<?xml version="1.0" encoding="UTF-8" standalone="no"?>
<!-- Created with Inkscape (http://www.inkscape.org/) -->

<svg
   xmlns:dc="http://purl.org/dc/elements/1.1/"
   xmlns:cc="http://creativecommons.org/ns#"
   xmlns:rdf="http://www.w3.org/1999/02/22-rdf-syntax-ns#"
   xmlns:svg="http://www.w3.org/2000/svg"
   xmlns="http://www.w3.org/2000/svg"
   xmlns:sodipodi="http://sodipodi.sourceforge.net/DTD/sodipodi-0.dtd"
   xmlns:inkscape="http://www.inkscape.org/namespaces/inkscape"
   width="512"
   height="512"
   viewBox="0 0 512 512"
   id="svg2"
   version="1.1"
   inkscape:version="0.91 r13725"
   sodipodi:docname="folder-public.svg"
   inkscape:export-filename="E:\Usuarios\David\Desktop\folder-download.png"
   inkscape:export-xdpi="90"
   inkscape:export-ydpi="90">
  <defs
     id="defs4" />
  <sodipodi:namedview
     id="base"
     pagecolor="#ffffff"
     bordercolor="#666666"
     borderopacity="1.0"
     inkscape:pageopacity="0.0"
     inkscape:pageshadow="2"
     inkscape:zoom="0.7"
     inkscape:cx="20.658135"
     inkscape:cy="284.33552"
     inkscape:document-units="px"
     inkscape:current-layer="layer1"
     showgrid="true"
     inkscape:snap-bbox="true"
     inkscape:bbox-nodes="true"
     fit-margin-top="0"
     fit-margin-left="0"
     fit-margin-right="0"
     fit-margin-bottom="0"
     units="px"
     inkscape:object-nodes="true"
     inkscape:snap-nodes="true"
     inkscape:snap-others="false"
     inkscape:window-width="1366"
     inkscape:window-height="705"
     inkscape:window-x="-8"
     inkscape:window-y="-8"
     inkscape:window-maximized="1">
    <inkscape:grid
       type="xygrid"
       id="grid4136"
       originx="-282.28082"
       originy="-341.501"
       visible="true" />
  </sodipodi:namedview>
  <metadata
     id="metadata7">
    <rdf:RDF>
      <cc:Work
         rdf:about="">
        <dc:format>image/svg+xml</dc:format>
        <dc:type
           rdf:resource="http://purl.org/dc/dcmitype/StillImage" />
        <dc:title></dc:title>
      </cc:Work>
    </rdf:RDF>
  </metadata>
  <g
     inkscape:label="Capa 1"
     inkscape:groupmode="layer"
     id="layer1"
     transform="translate(-282.28082,-198.8612)">
    <g
       id="g4172"
       transform="matrix(2.460733,0,0,2.460733,-533.36734,-915.42835)">
      <path
         inkscape:connector-curvature="0"
         transform="translate(282.28082,403.66119)"
         id="rect4151"
         d="m 65.71875,84.701172 c -4.431995,0 -8,3.568005 -8,8 l 0,9.999998 0,111 0,0.0488 c 0,4.4051 3.546075,7.95117 7.951172,7.95117 l 0.04883,0 61.999998,0 113.04883,0 c 4.40509,0 7.95117,-3.54607 7.95117,-7.95117 l 0,-111.04883 c 0,-4.405095 -3.54608,-7.95117 -7.95117,-7.95117 l -105.04883,0 0,-2.048828 c 0,-4.431995 -3.568,-8 -8,-8 l -61.999998,0 z"
         style="fill:#107662;fill-opacity:1;stroke:none" />
      <path
         sodipodi:nodetypes="cccccc"
         inkscape:connector-curvature="0"
         id="rect4166"
         d="m 347.99512,522.17497 14.81747,-14.81277 160.18741,1e-5 0,49.7153 -175.00488,0 z"
         style="fill:#ffffff;fill-opacity:1;stroke:none" />
      <path
         sodipodi:nodetypes="cccc"
         inkscape:connector-curvature="0"
         id="rect4169"
         d="m 362.81277,507.3622 0,14.81277 -14.81277,0 z"
         style="fill:#000000;fill-opacity:0.1372549;stroke:none" />
      <path
         sodipodi:nodetypes="czzssssccssccssc"
         inkscape:connector-curvature="0"
         id="rect4156"
         transform="translate(282.28082,403.66119)"
         d="m 144,112.88819 c -4.33969,0.0225 -7.52934,0.36085 -10.39035,3.49916 -2.86101,3.13831 -3.89047,6.50084 -8.89047,6.50084 -5,0 -59.00043,1.6e-4 -59.00043,1.6e-4 -4.432001,1e-5 -8,3.12199 -8,7 l 0,84.81282 c 0,3.87801 3.567999,7 8,7 l 71,0 103,0 1,0 c 4.432,0 8,-3.12199 8,-7 l 0,-1 0,-83.81282 0,-9 c 0,-4.43201 -4.014,-7.99999 -9,-8 z"
         style="fill:#16a085;fill-opacity:1;stroke:none" />
    </g>
    <path
       style="fill:#ffffff"
       d="m 528.89987,571.45585 c -11.4028,-1.41199 -22.44971,-5.49784 -31.95985,-11.82078 -14.76862,-9.81911 -25.51793,-24.1882 -30.57452,-40.87034 -1.17816,-3.88687 -2.37363,-9.76083 -2.79386,-13.72767 -0.38777,-3.66033 -0.38777,-12.62367 0,-16.284 3.14708,-29.70747 24.16837,-55.07901 52.83422,-63.76802 3.88687,-1.17816 9.76083,-2.37364 13.72766,-2.79387 3.66033,-0.38776 12.62368,-0.38776 16.28401,0 17.33989,1.83692 33.43681,9.72757 45.7843,22.4433 8.49361,8.74692 14.49961,18.89653 17.98372,30.39092 2.16415,7.13972 3.09527,13.71856 3.09527,21.86967 0,6.12629 -0.30702,9.48576 -1.35128,14.78624 -5.31201,26.96277 -25.40538,49.12796 -51.78434,57.12378 -3.88687,1.17816 -9.76084,2.37364 -13.72767,2.79387 -3.83998,0.40679 -13.72932,0.32601 -17.51766,-0.1431 z m -36.18419,-25.06361 c 1.81045,-1.23615 7.46348,-3.92123 13.01431,-6.18154 10.23939,-4.16951 13.74138,-6.10718 15.93713,-8.81808 1.94509,-2.40145 1.98523,-2.58203 2.02197,-9.09485 l 0.0334,-5.91891 -1.52549,-2.00951 c -2.41637,-3.18302 -4.19153,-7.12045 -5.00749,-11.10697 -0.31357,-1.53197 -0.45178,-1.7439 -1.47902,-2.26796 -2.47039,-1.2603 -3.95048,-4.68039 -3.95048,-9.12851 0,-2.74847 0.0293,-2.87336 0.99745,-4.24783 0.98969,-1.40512 0.99472,-1.42861 0.64677,-3.02806 -2.52101,-11.58893 -2.50056,-20.30744 0.0629,-26.83076 3.52827,-8.97848 11.96604,-13.66035 24.66192,-13.68417 6.51184,-0.0122 10.14393,1.12106 12.89153,4.02239 0.91243,0.96347 1.46393,1.28389 2.49041,1.44691 0.72515,0.11515 2.27293,0.66837 3.43951,1.22935 4.20932,2.02418 7.12947,6.2141 8.1508,11.69507 1.098,5.89233 0.34773,14.52455 -1.96122,22.56492 -0.32053,1.11616 -0.28674,1.24936 0.65654,2.58857 0.96464,1.36954 0.99446,1.4968 0.99446,4.24361 0,4.441 -1.48035,7.86835 -3.94065,9.12349 -1.06576,0.54372 -1.14898,0.68991 -1.62469,2.85395 -0.90976,4.13866 -3.27057,9.12136 -5.33862,11.26768 l -1.03686,1.07608 0.12549,5.95566 c 0.12414,5.89199 0.13445,5.97214 0.96462,7.49702 1.80702,3.31915 5.20399,5.67118 12.62772,8.74329 9.7065,4.01677 13.38996,5.67956 15.81577,7.13953 1.66763,1.00367 2.6877,1.44625 3.06054,1.32791 0.74566,-0.23666 5.43506,-5.45574 8.06944,-8.98089 6.71941,-8.99148 11.13693,-19.68559 12.93185,-31.30592 0.72565,-4.69787 0.72314,-14.66788 -0.005,-19.3373 -1.16756,-7.4888 -3.31618,-14.34129 -6.51682,-20.78378 -10.15559,-20.44202 -29.02786,-34.1344 -51.9798,-37.71284 -4.68849,-0.73098 -14.6488,-0.73098 -19.3373,0 -7.4888,1.16758 -14.34128,3.3162 -20.78377,6.51683 -20.44202,10.15558 -34.1344,29.02786 -37.71284,51.97979 -0.73099,4.6885 -0.73099,14.6488 0,19.3373 2.29275,14.70562 8.49749,27.3672 18.70107,38.16198 1.18053,1.24893 2.34418,2.26986 2.58589,2.26874 0.24172,-10e-4 0.83502,-0.27211 1.31846,-0.60219 z"
       id="path2982"
       inkscape:connector-curvature="0" />
  </g>
</svg>
