<?xml version="1.0" encoding="UTF-8" standalone="no"?>
<!-- Created with Inkscape (http://www.inkscape.org/) -->

<svg
   xmlns:dc="http://purl.org/dc/elements/1.1/"
   xmlns:cc="http://creativecommons.org/ns#"
   xmlns:rdf="http://www.w3.org/1999/02/22-rdf-syntax-ns#"
   xmlns:svg="http://www.w3.org/2000/svg"
   xmlns="http://www.w3.org/2000/svg"
   xmlns:sodipodi="http://sodipodi.sourceforge.net/DTD/sodipodi-0.dtd"
   xmlns:inkscape="http://www.inkscape.org/namespaces/inkscape"
   width="48"
   height="48"
   id="svg865"
   version="1.1"
   inkscape:version="0.48.5 r10040"
   sodipodi:docname="folder-seafile.svg">
  <defs
     id="defs867" />
  <sodipodi:namedview
     id="base"
     pagecolor="#ffffff"
     bordercolor="#666666"
     borderopacity="1.0"
     inkscape:pageopacity="0.0"
     inkscape:pageshadow="2"
     inkscape:zoom="9.3955635"
     inkscape:cx="-26.377539"
     inkscape:cy="20.969135"
     inkscape:document-units="px"
     inkscape:current-layer="folderLayer"
     showgrid="false"
     inkscape:window-width="1680"
     inkscape:window-height="991"
     inkscape:window-x="0"
     inkscape:window-y="-3"
     inkscape:window-maximized="1"
     borderlayer="true"
     inkscape:showpageshadow="false"
     showguides="false"
     inkscape:guide-bbox="true">
    <sodipodi:guide
       position="0,39.000017"
       orientation="30,0"
       id="guide4110" />
    <sodipodi:guide
       position="30,39.000017"
       orientation="0,-30"
       id="guide4116" />
    <sodipodi:guide
       position="30,9.0000174"
       orientation="0,18"
       id="guide4120" />
    <sodipodi:guide
       position="48,9.0000174"
       orientation="-30,0"
       id="guide4122" />
    <sodipodi:guide
       position="48,39.000017"
       orientation="0,-18"
       id="guide4124" />
    <sodipodi:guide
       position="4,41.000017"
       orientation="34,0"
       id="guide4164" />
    <sodipodi:guide
       position="22,41.000017"
       orientation="0,-18"
       id="guide4170" />
    <sodipodi:guide
       position="6,37.0002"
       orientation="27.999817,0"
       id="guide4174" />
    <sodipodi:guide
       position="6,9.0003836"
       orientation="0,35.999992"
       id="guide4176" />
    <sodipodi:guide
       position="41.999992,9.0003836"
       orientation="-27.999817,0"
       id="guide4178" />
    <sodipodi:guide
       position="41.999992,37.0002"
       orientation="0,-35.999992"
       id="guide4180" />
    <sodipodi:guide
       position="14,31.000017"
       orientation="20,0"
       id="guide4221" />
    <sodipodi:guide
       position="34,11.000017"
       orientation="-20,0"
       id="guide4225" />
    <sodipodi:guide
       position="34,31.000017"
       orientation="0,-20"
       id="guide4227" />
    <sodipodi:guide
       position="14,31.000017"
       orientation="11,0"
       id="guide4412" />
    <sodipodi:guide
       position="14,20.000017"
       orientation="6.123234e-17,1"
       id="guide4414" />
    <sodipodi:guide
       position="25,20.000017"
       orientation="-11,0"
       id="guide4416" />
    <sodipodi:guide
       position="25,31.000017"
       orientation="0,-11"
       id="guide4418" />
    <sodipodi:guide
       position="25,20.000017"
       orientation="9,0"
       id="guide4420" />
    <sodipodi:guide
       position="25,11.000017"
       orientation="0,9"
       id="guide4422" />
    <sodipodi:guide
       position="34,11.000017"
       orientation="-9,0"
       id="guide4424" />
    <sodipodi:guide
       position="34,20.000017"
       orientation="0,-9"
       id="guide4426" />
    <sodipodi:guide
       position="23.000001,35.000017"
       orientation="-1.9999999,0"
       id="guide4068" />
    <sodipodi:guide
       position="23.000001,37.000017"
       orientation="0,2"
       id="guide4070" />
    <sodipodi:guide
       position="25,37.000017"
       orientation="1.9999999,0"
       id="guide4072" />
    <sodipodi:guide
       position="25,35.000017"
       orientation="0,-2"
       id="guide4074" />
    <sodipodi:guide
       orientation="0,1"
       position="-5.0900019,45.012788"
       id="guide3049" />
    <sodipodi:guide
       orientation="0,1"
       position="14,5.0286766"
       id="guide3051" />
    <sodipodi:guide
       orientation="1,0"
       position="18.481902,18.990154"
       id="guide3071" />
  </sodipodi:namedview>
  <metadata
     id="metadata870">
    <rdf:RDF>
      <cc:Work
         rdf:about="">
        <dc:format>image/svg+xml</dc:format>
        <dc:type
           rdf:resource="http://purl.org/dc/dcmitype/StillImage" />
        <dc:title />
      </cc:Work>
    </rdf:RDF>
  </metadata>
  <g
     inkscape:groupmode="layer"
     id="folderLayer"
     inkscape:label="folder">
    <rect
       y="2.9586298"
       x="4"
       height="11.773318"
       width="18"
       id="folderTab"
       style="fill:#27ae60;fill-opacity:1;stroke:none" />
    <rect
       style="fill:#27ae60;fill-opacity:1;stroke:none"
       id="folderBackground"
       width="40"
       height="35.319954"
       x="4"
       y="5.313652" />
    <rect
       style="fill:#ffffff;fill-opacity:1;stroke:none"
       id="folderPaper"
       width="35.999992"
       height="32.965004"
       x="6"
       y="7.6680799" />
    <rect
       y="10.022959"
       x="2"
       height="32.965298"
       width="43.999996"
       id="folderFront"
       style="fill:#27ae60;fill-opacity:1;stroke:none" />
    <g
       id="g3882"
       transform="matrix(0.39409474,0,0,0.33763388,5.0365653,9.1341047)">
      <path
         sodipodi:nodetypes="cscssccssc"
         inkscape:connector-curvature="0"
         id="path3070"
         d="m 19.700881,79.411934 c 0,0 8.111729,8.187489 17.406418,5.076243 9.294689,-3.111246 7.604746,-6.058742 7.604746,-6.058742 0,0 5.06983,4.257494 9.463683,5.731243 4.393853,1.473747 13.857537,0 12.843571,-6.713741 -1.013966,-6.713741 3.210893,6.386241 12.336588,7.368739 L 65.836339,73.353192 c 0,0 -3.210893,5.731243 -6.59078,9.333737 -3.379887,3.602496 -14.140238,-10.091374 -17.068429,-4.584993 -2.975594,5.59552 -22.476249,1.309998 -22.476249,1.309998 z"
         style="fill:#ffffff;fill-opacity:1;stroke:none" />
      <path
         style="fill:#ffffff;fill-opacity:1;stroke:none"
         d="m 35.351115,65.971146 c 0,0 6.359195,8.187489 13.645772,5.076243 7.286577,-3.111246 5.961745,-6.058742 5.961745,-6.058742 0,0 3.974496,4.257494 7.41906,5.731243 3.444564,1.473747 10.863625,0 10.068726,-6.713741 -0.7949,-6.713741 2.517181,6.386241 9.671275,7.368739 L 71.519035,59.912404 c 0,0 -2.517181,5.731243 -5.166846,9.333737 -2.649664,3.602496 -11.085248,-10.091374 -13.380805,-4.584993 -2.332719,5.59552 -17.620269,1.309998 -17.620269,1.309998 z"
         id="path3840"
         inkscape:connector-curvature="0"
         sodipodi:nodetypes="cscssccssc" />
      <g
         transform="translate(-4.3402765,0)"
         id="g3844">
        <path
           style="fill:#ffffff"
           id="path5-6"
           d="m 63.489023,37.882242 c 0.07823,-0.492226 0.115791,-0.992862 0.115791,-1.493408 0,-6.244708 -5.750107,-11.327787 -12.821199,-11.327787 -4.10058,0 -7.866106,1.711911 -10.25135,4.51899 -0.841992,-0.179828 -1.699611,-0.27107 -2.569849,-0.27107 -6.185228,0 -11.218549,4.447041 -11.218549,9.911814 0,0.138322 0.0031,0.273813 0.0094,0.409304 -4.635765,1.216852 -8.022665,5.016793 -8.022665,9.502508 0,5.464772 5.033323,9.911813 11.21855,9.911813 h 27.245047 c 7.071092,0 12.8212,-5.080335 12.8212,-11.327786 0,-4.128978 -2.569849,-7.859714 -6.526391,-9.834378 z M 57.194214,56.212459 H 29.949166 c -4.426119,0 -8.01325,-3.16939 -8.01325,-7.079866 0,-3.910476 3.587232,-7.079865 8.01325,-7.079865 0.244204,0 0.475787,0.04425 0.71368,0.06363 -0.450745,-0.884983 -0.71368,-1.861208 -0.71368,-2.895577 0,-3.910564 3.587232,-7.079866 8.01325,-7.079866 1.446192,0 2.785907,0.365056 3.956542,0.956932 1.452401,-3.058768 4.873658,-5.204852 8.864657,-5.204852 5.311882,0 9.615899,3.802685 9.615899,8.495841 0,1.11729 -0.259829,2.17927 -0.704264,3.158327 4.091164,0.978969 7.114865,4.24792 7.114865,8.169458 0,4.693155 -4.304018,8.49584 -9.615901,8.49584 z"
           inkscape:connector-curvature="0" />
        <path
           inkscape:connector-curvature="0"
           d="m 82.95954,24.307439 c 0.03585,-0.22554 0.05306,-0.454934 0.05306,-0.684286 0,-2.861353 -2.634723,-5.190441 -5.874728,-5.190441 -1.878903,0 -3.604283,0.784405 -4.697213,2.070621 -0.385804,-0.0824 -0.778769,-0.124206 -1.177516,-0.124206 -2.834097,0 -5.140386,2.037654 -5.140386,4.541636 0,0.06338 0.0014,0.125462 0.0043,0.187545 -2.124127,0.557566 -3.676019,2.298716 -3.676019,4.35409 0,2.503981 2.30629,4.541635 5.140387,4.541635 h 12.483797 c 3.240005,0 5.874729,-2.327831 5.874729,-5.19044 0,-1.891915 -1.177516,-3.601355 -2.99042,-4.506154 z m -2.884308,8.398984 H 67.591435 c -2.028067,0 -3.671706,-1.452229 -3.671706,-3.244025 0,-1.791798 1.643685,-3.244025 3.671706,-3.244025 0.111895,0 0.218007,0.02028 0.327011,0.02916 -0.206533,-0.405502 -0.327011,-0.852813 -0.327011,-1.326765 0,-1.791837 1.643684,-3.244025 3.671705,-3.244025 0.662652,0 1.276515,0.16727 1.812905,0.43847 0.665496,-1.40154 2.233131,-2.384885 4.061823,-2.384885 2.433927,0 4.406047,1.742407 4.406047,3.892831 0,0.511946 -0.119055,0.998551 -0.322698,1.447159 1.87459,0.448567 3.260062,1.946415 3.260062,3.74328 0,2.150424 -1.97212,3.892831 -4.406047,3.892831 z"
           id="path3842"
           style="fill:#ffffff" />
      </g>
    </g>
  </g>
</svg>
