<?xml version="1.0" encoding="UTF-8" standalone="no"?>
<svg
   xmlns:dc="http://purl.org/dc/elements/1.1/"
   xmlns:cc="http://creativecommons.org/ns#"
   xmlns:rdf="http://www.w3.org/1999/02/22-rdf-syntax-ns#"
   xmlns:svg="http://www.w3.org/2000/svg"
   xmlns="http://www.w3.org/2000/svg"
   xmlns:sodipodi="http://sodipodi.sourceforge.net/DTD/sodipodi-0.dtd"
   xmlns:inkscape="http://www.inkscape.org/namespaces/inkscape"
   width="24"
   height="24"
   x="0"
   y="0"
   version="1.1"
   xml:space="preserve"
   id="svg9"
   sodipodi:docname="copy-update.svg"
   inkscape:version="0.92.3 (2405546, 2018-03-11)"><metadata
   id="metadata13"><rdf:RDF><cc:Work
       rdf:about=""><dc:format>image/svg+xml</dc:format><dc:type
         rdf:resource="http://purl.org/dc/dcmitype/StillImage" /></cc:Work></rdf:RDF></metadata><sodipodi:namedview
   pagecolor="#ffffff"
   bordercolor="#666666"
   borderopacity="1"
   objecttolerance="10"
   gridtolerance="10"
   guidetolerance="10"
   inkscape:pageopacity="0"
   inkscape:pageshadow="2"
   inkscape:window-width="640"
   inkscape:window-height="480"
   id="namedview11"
   showgrid="false"
   inkscape:zoom="9.8333333"
   inkscape:cx="10.220339"
   inkscape:cy="12"
   inkscape:window-x="0"
   inkscape:window-y="27"
   inkscape:window-maximized="0"
   inkscape:current-layer="svg9" />
 <defs
   id="defs3">
  <style
   id="current-color-scheme"
   type="text/css">
   .ColorScheme-Text { color:#d3dae3; } .ColorScheme-Highlight { color:#16a085; }
  </style>
 </defs>
 <path
   style="fill:currentColor"
   class="ColorScheme-Text"
   d="m20.636 3.0255-0.62102 0.75393a3.0001 3.0001 0 0 1 0.47402 0.55082l0.512-0.9785-0.365-0.3262zm-14.636 4.4748-4.0002 3.4997l4.3752-0.62502 1.6251 9.6253 3.3931-2.3011 9.6073 2.8011-3.0001-7.5003-2.0001-1.4-5.2522 4.4922-3.2488-8.0917-1.5-0.5zm10.207 0.90043-1.189 1.4435 1.9821 1.1562 1.047-2.0021a3.0001 3.0001 0 0 1 -0.047 0.002 3.0001 3.0001 0 0 1 -1.7931 -0.59962zm-3.2071 1.6287-3.0001 0.97103 1 3.0001 4.0001-3.0001-2.0001-0.97103z"
   id="path5" />
 <path
   style="fill:#ff0000"
   class="ColorScheme-Highlight"
   d="m20 6a2 2 0 0 1 -4 0 2 2 0 1 1 4 0z"
   id="path7" />
</svg>