<?xml version="1.0" encoding="UTF-8" standalone="no"?>
<svg
   xmlns:dc="http://purl.org/dc/elements/1.1/"
   xmlns:cc="http://creativecommons.org/ns#"
   xmlns:rdf="http://www.w3.org/1999/02/22-rdf-syntax-ns#"
   xmlns:svg="http://www.w3.org/2000/svg"
   xmlns="http://www.w3.org/2000/svg"
   xmlns:sodipodi="http://sodipodi.sourceforge.net/DTD/sodipodi-0.dtd"
   xmlns:inkscape="http://www.inkscape.org/namespaces/inkscape"
   width="24"
   height="24"
   version="1.1"
   id="svg9"
   sodipodi:docname="steadyflow-alert-panel.svg"
   inkscape:version="0.92.3 (2405546, 2018-03-11)">
  <metadata
     id="metadata13">
    <rdf:RDF>
      <cc:Work
         rdf:about="">
        <dc:format>image/svg+xml</dc:format>
        <dc:type
           rdf:resource="http://purl.org/dc/dcmitype/StillImage" />
      </cc:Work>
    </rdf:RDF>
  </metadata>
  <sodipodi:namedview
     pagecolor="#ffffff"
     bordercolor="#666666"
     borderopacity="1"
     objecttolerance="10"
     gridtolerance="10"
     guidetolerance="10"
     inkscape:pageopacity="0"
     inkscape:pageshadow="2"
     inkscape:window-width="787"
     inkscape:window-height="480"
     id="namedview11"
     showgrid="false"
     inkscape:zoom="9.8333333"
     inkscape:cx="0.61016949"
     inkscape:cy="12"
     inkscape:window-x="0"
     inkscape:window-y="27"
     inkscape:window-maximized="0"
     inkscape:current-layer="svg9" />
  <defs
     id="defs3">
    <style
       id="current-color-scheme"
       type="text/css">
   .ColorScheme-Text { color:#d3dae3; } .ColorScheme-Highlight { color:#16a085; }
  </style>
  </defs>
  <path
     style="fill:currentColor"
     class="ColorScheme-Text"
     d="M 13.5,5 C 11.9613,5 10.529878,5.7888906 9.7050781,7.0878906 9.4743581,7.0308906 9.23768,7.001 9,7 7.3431,7 6,8.3431 6,10 6.0011,10.4065 6.0848637,10.808541 6.2460938,11.181641 4.3242937,11.738641 3.0015,13.499 3,15.5 3,17.9853 5.0147,20 7.5,20 l 6.445312,0 -3.814453,-4.162109 A 0.50005,0.50005 0 0 1 10.5,15.037109 l 2.5,0 0,-4.5 a 0.50005,0.50005 0 0 1 0.5,-0.5 l 5,0 a 0.50005,0.50005 0 0 1 0.210938,0.04687 c -0.226,-0.1629996 -0.463797,-0.3126059 -0.716797,-0.4414059 0.0024,-0.035 0.0043,-0.069969 0.0059,-0.1054687 0,-2.4853 -2.0147,-4.5 -4.5,-4.5 L 13.5,5 Z m 5.402344,5.201172 A 0.50005,0.50005 0 0 1 19,10.5 l 0,4.5 1.957031,0 C 20.972191,14.8337 21,14.6703 21,14.5 20.9977,12.8014 20.204554,11.230272 18.902344,10.201172 Z"
     id="path5" />
  <path
     style="fill:#ff0000"
     class="ColorScheme-Highlight"
     d="m 14.0003,11.0012 0,4.5 a 0.50005,0.50005 0 0 1 -0.5,0.5 l -1.8633,0 4.3633,4.7598 4.3633,-4.7598 -1.8633,0 a 0.50005,0.50005 0 0 1 -0.5,-0.5 l 0,-4.5 -4,0 z"
     id="path7" />
</svg>
