<?xml version="1.0" encoding="UTF-8" standalone="no"?>
<!-- Created with Inkscape (http://www.inkscape.org/) -->

<svg
   xmlns:dc="http://purl.org/dc/elements/1.1/"
   xmlns:cc="http://creativecommons.org/ns#"
   xmlns:rdf="http://www.w3.org/1999/02/22-rdf-syntax-ns#"
   xmlns:svg="http://www.w3.org/2000/svg"
   xmlns="http://www.w3.org/2000/svg"
   xmlns:xlink="http://www.w3.org/1999/xlink"
   xmlns:sodipodi="http://sodipodi.sourceforge.net/DTD/sodipodi-0.dtd"
   xmlns:inkscape="http://www.inkscape.org/namespaces/inkscape"
   width="48"
   height="48"
   id="svg865"
   version="1.1"
   inkscape:version="0.48.5 r10040"
   sodipodi:docname="folder-vuze.svg">
  <defs
     id="defs867">
    <linearGradient
       x1="45"
       y1="92"
       x2="45"
       y2="7"
       id="linearGradient3986"
       xlink:href="#ButtonShadow"
       gradientUnits="userSpaceOnUse" />
    <linearGradient
       x1="45.447727"
       y1="80.471962"
       x2="45.447727"
       y2="7.0165396"
       id="ButtonShadow"
       gradientUnits="userSpaceOnUse"
       gradientTransform="matrix(1.0058652,0,0,0.994169,0,12)">
      <stop
         id="stop3750"
         style="stop-color:#000000;stop-opacity:1"
         offset="0" />
      <stop
         id="stop3752"
         style="stop-color:#000000;stop-opacity:0.58823532"
         offset="1" />
    </linearGradient>
    <linearGradient
       x1="45"
       y1="92"
       x2="45"
       y2="7"
       id="linearGradient3977"
       xlink:href="#ButtonShadow"
       gradientUnits="userSpaceOnUse" />
    <linearGradient
       x1="45.447727"
       y1="80.471962"
       x2="45.447727"
       y2="7.0165396"
       id="linearGradient3070"
       gradientUnits="userSpaceOnUse"
       gradientTransform="matrix(1.0058652,0,0,0.994169,0,12)">
      <stop
         id="stop3072"
         style="stop-color:#000000;stop-opacity:1"
         offset="0" />
      <stop
         id="stop3074"
         style="stop-color:#000000;stop-opacity:0.58823532"
         offset="1" />
    </linearGradient>
    <linearGradient
       x1="45"
       y1="92"
       x2="45"
       y2="7"
       id="linearGradient3969"
       xlink:href="#ButtonShadow"
       gradientUnits="userSpaceOnUse" />
    <linearGradient
       x1="45.447727"
       y1="80.471962"
       x2="45.447727"
       y2="7.0165396"
       id="linearGradient3077"
       gradientUnits="userSpaceOnUse"
       gradientTransform="matrix(1.0058652,0,0,0.994169,0,12)">
      <stop
         id="stop3079"
         style="stop-color:#000000;stop-opacity:1"
         offset="0" />
      <stop
         id="stop3081"
         style="stop-color:#000000;stop-opacity:0.58823532"
         offset="1" />
    </linearGradient>
    <linearGradient
       x1="45"
       y1="92"
       x2="45"
       y2="7"
       id="linearGradient3961"
       xlink:href="#ButtonShadow"
       gradientUnits="userSpaceOnUse" />
    <linearGradient
       x1="45.447727"
       y1="80.471962"
       x2="45.447727"
       y2="7.0165396"
       id="linearGradient3084"
       gradientUnits="userSpaceOnUse"
       gradientTransform="matrix(1.0058652,0,0,0.994169,0,12)">
      <stop
         id="stop3086"
         style="stop-color:#000000;stop-opacity:1"
         offset="0" />
      <stop
         id="stop3088"
         style="stop-color:#000000;stop-opacity:0.58823532"
         offset="1" />
    </linearGradient>
    <linearGradient
       x1="43"
       y1="91"
       x2="43"
       y2="7"
       id="linearGradient3952"
       xlink:href="#ButtonShadow"
       gradientUnits="userSpaceOnUse" />
    <linearGradient
       x1="45.447727"
       y1="80.471962"
       x2="45.447727"
       y2="7.0165396"
       id="linearGradient3091"
       gradientUnits="userSpaceOnUse"
       gradientTransform="matrix(1.0058652,0,0,0.994169,0,12)">
      <stop
         id="stop3093"
         style="stop-color:#000000;stop-opacity:1"
         offset="0" />
      <stop
         id="stop3095"
         style="stop-color:#000000;stop-opacity:0.58823532"
         offset="1" />
    </linearGradient>
    <linearGradient
       y2="7"
       x2="43"
       y1="91"
       x1="43"
       gradientUnits="userSpaceOnUse"
       id="linearGradient3103"
       xlink:href="#ButtonShadow"
       inkscape:collect="always" />
    <filter
       color-interpolation-filters="sRGB"
       inkscape:collect="always"
       id="filter4026">
      <feGaussianBlur
         inkscape:collect="always"
         stdDeviation="0.12426569"
         id="feGaussianBlur4028" />
    </filter>
  </defs>
  <sodipodi:namedview
     id="base"
     pagecolor="#ffffff"
     bordercolor="#666666"
     borderopacity="1.0"
     inkscape:pageopacity="0.0"
     inkscape:pageshadow="2"
     inkscape:zoom="9.0339581"
     inkscape:cx="-13.554642"
     inkscape:cy="23.065115"
     inkscape:document-units="px"
     inkscape:current-layer="folderLayer"
     showgrid="false"
     inkscape:window-width="1366"
     inkscape:window-height="707"
     inkscape:window-x="-2"
     inkscape:window-y="-3"
     inkscape:window-maximized="1"
     borderlayer="true"
     inkscape:showpageshadow="false"
     showguides="true"
     inkscape:guide-bbox="true">
    <sodipodi:guide
       position="0,39.000017"
       orientation="30,0"
       id="guide4110" />
    <sodipodi:guide
       position="30,39.000017"
       orientation="0,-30"
       id="guide4116" />
    <sodipodi:guide
       position="30,9.0000174"
       orientation="0,18"
       id="guide4120" />
    <sodipodi:guide
       position="48,9.0000174"
       orientation="-30,0"
       id="guide4122" />
    <sodipodi:guide
       position="48,39.000017"
       orientation="0,-18"
       id="guide4124" />
    <sodipodi:guide
       position="4,41.000017"
       orientation="34,0"
       id="guide4164" />
    <sodipodi:guide
       position="22,41.000017"
       orientation="0,-18"
       id="guide4170" />
    <sodipodi:guide
       position="6,37.0002"
       orientation="27.999817,0"
       id="guide4174" />
    <sodipodi:guide
       position="6,9.0003836"
       orientation="0,35.999992"
       id="guide4176" />
    <sodipodi:guide
       position="41.999992,9.0003836"
       orientation="-27.999817,0"
       id="guide4178" />
    <sodipodi:guide
       position="41.999992,37.0002"
       orientation="0,-35.999992"
       id="guide4180" />
    <sodipodi:guide
       position="14,31.000017"
       orientation="20,0"
       id="guide4221" />
    <sodipodi:guide
       position="34,11.000017"
       orientation="-20,0"
       id="guide4225" />
    <sodipodi:guide
       position="34,31.000017"
       orientation="0,-20"
       id="guide4227" />
    <sodipodi:guide
       position="14,31.000017"
       orientation="11,0"
       id="guide4412" />
    <sodipodi:guide
       position="14,20.000017"
       orientation="6.123234e-17,1"
       id="guide4414" />
    <sodipodi:guide
       position="25,20.000017"
       orientation="-11,0"
       id="guide4416" />
    <sodipodi:guide
       position="25,31.000017"
       orientation="0,-11"
       id="guide4418" />
    <sodipodi:guide
       position="25,20.000017"
       orientation="9,0"
       id="guide4420" />
    <sodipodi:guide
       position="25,11.000017"
       orientation="0,9"
       id="guide4422" />
    <sodipodi:guide
       position="34,11.000017"
       orientation="-9,0"
       id="guide4424" />
    <sodipodi:guide
       position="34,20.000017"
       orientation="0,-9"
       id="guide4426" />
    <sodipodi:guide
       position="23.000001,35.000017"
       orientation="-1.9999999,0"
       id="guide4068" />
    <sodipodi:guide
       position="23.000001,37.000017"
       orientation="0,2"
       id="guide4070" />
    <sodipodi:guide
       position="25,37.000017"
       orientation="1.9999999,0"
       id="guide4072" />
    <sodipodi:guide
       position="25,35.000017"
       orientation="0,-2"
       id="guide4074" />
    <sodipodi:guide
       orientation="0,1"
       position="-5.0900019,45.012788"
       id="guide3049" />
    <sodipodi:guide
       orientation="0,1"
       position="14,5.0286766"
       id="guide3051" />
    <sodipodi:guide
       orientation="1,0"
       position="18.481902,18.990154"
       id="guide3071" />
  </sodipodi:namedview>
  <metadata
     id="metadata870">
    <rdf:RDF>
      <cc:Work
         rdf:about="">
        <dc:format>image/svg+xml</dc:format>
        <dc:type
           rdf:resource="http://purl.org/dc/dcmitype/StillImage" />
        <dc:title></dc:title>
      </cc:Work>
    </rdf:RDF>
  </metadata>
  <g
     inkscape:groupmode="layer"
     id="folderLayer"
     inkscape:label="folder">
    <g
       id="g3910"
       transform="matrix(1.0181857,0,0,1.0181857,-0.43645647,-0.41778786)"
       style="opacity:0.3" />
    <rect
       y="2.9586298"
       x="4"
       height="11.773318"
       width="18"
       id="folderTab"
       style="fill:#27ae60;fill-opacity:1;stroke:none" />
    <rect
       style="fill:#27ae60;fill-opacity:1;stroke:none"
       id="folderBackground"
       width="40"
       height="35.319954"
       x="4"
       y="5.313652" />
    <rect
       style="fill:#ffffff;fill-opacity:1;stroke:none"
       id="folderPaper"
       width="35.999992"
       height="32.965004"
       x="6"
       y="7.6680799" />
    <rect
       y="10.022959"
       x="2"
       height="32.965298"
       width="43.999996"
       id="folderFront"
       style="fill:#3498db;fill-opacity:1;stroke:none" />
    <rect
       y="7.6680799"
       x="6"
       height="32.965004"
       width="35.999992"
       id="rect3849"
       style="fill:#ffffff;fill-opacity:1;stroke:none" />
    <rect
       style="fill:#27ae60;fill-opacity:1;stroke:none"
       id="rect3851"
       width="43.999996"
       height="32.965298"
       x="2"
       y="10.022959" />
    <g
       id="g3979"
       style="stroke:#ffffff;stroke-width:0.57270443;stroke-miterlimit:4;stroke-opacity:1;stroke-dasharray:none;filter:url(#filter4026)"
       transform="matrix(0.31391454,0,0,0.35112469,8.5828551,9.7954132)">
      <g
         transform="translate(78.737439,2.9792544)"
         id="g3968"
         style="stroke:#ffffff;stroke-width:0.57270443;stroke-miterlimit:4;stroke-opacity:1;stroke-dasharray:none">
        <path
           style="fill:#ffffff;stroke:#ffffff;stroke-width:0.61379999;stroke-linecap:butt;stroke-linejoin:miter;stroke-miterlimit:4;stroke-opacity:1;stroke-dasharray:none"
           d="m -56.398835,57.831731 c 0,0 -5.276217,1.360532 -7.111422,-2.267551 -1.835205,-3.628081 0.458802,-4.761857 0.458802,-4.761857 l 2.982208,-2.040796 c 0,0 2.064606,-10.20398 9.864231,-7.256164 l 1.147004,2.947817 -0.917604,3.174572 -2.294008,5.215368 -1.147002,2.947816 c 0,0 -2.294009,2.26755 -2.982209,2.040795 z"
           id="path3186"
           inkscape:connector-curvature="0"
           sodipodi:nodetypes="cscccccccc" />
        <path
           style="fill:#ffffff;stroke:#ffffff;stroke-width:0.61379999;stroke-linecap:butt;stroke-linejoin:miter;stroke-miterlimit:4;stroke-opacity:1;stroke-dasharray:none"
           d="m -47.452208,40.825097 -1.835206,-0.907021 -0.917602,-2.040795 0,-1.814041 2.294007,-2.040796 2.752808,-1.360531 2.064606,0.226755 c 0,0 -4.588015,6.802653 -4.358613,7.936429 z"
           id="path3188"
           inkscape:connector-curvature="0" />
        <path
           style="fill:#ffffff;stroke:#ffffff;stroke-width:0.57270443;stroke-linecap:butt;stroke-linejoin:miter;stroke-miterlimit:4;stroke-opacity:1;stroke-dasharray:none"
           d="m -49.583306,61.738574 -1.702431,-2.340843 -0.851215,-1.064019 0.638411,-2.340843 4.681686,-11.065802 0.851216,-3.617666 c 0,0 6.171312,-10.001783 9.150567,-11.704214 2.979254,-1.702431 4.894489,-8.086548 4.894489,-8.086548 0,0 0.212804,-1.489627 1.06402,-1.702431 0.851215,-0.212804 5.320097,-1.489627 5.320097,-1.489627 l 12.129821,0 c 0,0 1.276824,-2.128039 4.2560776,4.468882 l 1.489627,2.340842 c 0,0 0.425608,0.638412 -0.425607,2.128039 -0.851216,1.489627 -1.702431,4.256078 -1.702431,4.256078 l -1.7024316,3.404862 -2.340842,4.89449 0.638411,3.192058 1.06402,2.553647 2.9792536,3.404862 1.489627,0.638411 2.340843,0.425608 0.425608,-2.76645 -0.212804,-0.425608 0.638412,-1.489627 c 0,0 1.489627,-0.851216 2.340843,-0.851216 0.851215,0 2.34084199,2.553647 1.064019,3.404862 -1.276823,0.851216 -1.489627,0.425608 -1.489627,0.425608 l -0.638412,1.915235 4.04327399,0 2.55364701,0 -0.212804,-0.638412 1.702431,-0.425607 c 0,0 3.83047,1.702431 0.212804,3.404862 l -2.979255,-0.425608 -4.681685,-0.212804 c 0,0 -0.851216,3.83047 -4.043274,3.617666 -3.192058,-0.212804 -6.3841166,0 -6.8097246,-1.276823 l -3.404862,-1.276823 -0.851215,-0.425608 c 0,0 -1.489628,1.702431 -2.128039,0.638412 -0.638412,-1.06402 -0.212804,-2.340843 -0.212804,-2.340843 l 1.702431,-0.425608 1.276823,0.638412 2.340843,0.851215 -2.340843,-3.404862 -1.702431,-2.766451 c 0,0 -4.043274,8.299352 -7.66094,10.852999 0,0 -11.704215,-2.553647 -23.195624,5.107293 z"
           id="path3190"
           inkscape:connector-curvature="0" />
      </g>
      <path
         inkscape:connector-curvature="0"
         id="path3977"
         d="m 28.991223,66.70662 9.40543,7.256164 7.799624,2.494307 5.735018,-1.360532 3.211608,1.133776 5.276216,1.133776 0,0.226755 1.605805,-0.226755 c 0,0 0,-2.721062 -0.917603,-2.721062 -0.917602,0 -1.835206,0.90702 -1.835206,0.90702 l -1.376404,-0.680265 -0.688201,-1.133773 0.688201,-0.680267 8.946629,-1.133776 1.835206,-0.90702 1.605804,-1.814041 -0.4588,-1.360531 -1.147004,-0.45351 -1.605805,0.45351 -1.147005,0.680265 -0.229401,0.680266 -2.064605,0 -1.147003,-0.226756 -0.229402,-2.040797 -0.229401,-1.133776 -8.717226,-3.854836 c 0,0 -13.07584,-2.947816 -24.316475,4.761858 z"
         style="fill:#ffffff;stroke:#ffffff;stroke-width:0.61379999;stroke-linecap:butt;stroke-linejoin:miter;stroke-miterlimit:4;stroke-opacity:1;stroke-dasharray:none"
         sodipodi:nodetypes="ccccccccscccccccccccccccccc" />
    </g>
  </g>
</svg>
