<?xml version="1.0" encoding="UTF-8" standalone="no"?>
<!-- Created with Inkscape (http://www.inkscape.org/) -->

<svg
   xmlns:dc="http://purl.org/dc/elements/1.1/"
   xmlns:cc="http://creativecommons.org/ns#"
   xmlns:rdf="http://www.w3.org/1999/02/22-rdf-syntax-ns#"
   xmlns:svg="http://www.w3.org/2000/svg"
   xmlns="http://www.w3.org/2000/svg"
   xmlns:sodipodi="http://sodipodi.sourceforge.net/DTD/sodipodi-0.dtd"
   xmlns:inkscape="http://www.inkscape.org/namespaces/inkscape"
   width="48"
   height="48"
   id="svg2"
   version="1.1"
   inkscape:version="0.48.5 r10040"
   sodipodi:docname="user-trash.svg">
  <defs
     id="defs4" />
  <sodipodi:namedview
     id="base"
     pagecolor="#ffffff"
     bordercolor="#666666"
     borderopacity="1.0"
     inkscape:pageopacity="0.0"
     inkscape:pageshadow="2"
     inkscape:zoom="6.8114345"
     inkscape:cx="-2.2171963"
     inkscape:cy="30.775984"
     inkscape:document-units="px"
     inkscape:current-layer="layer1"
     showgrid="false"
     inkscape:window-width="1280"
     inkscape:window-height="670"
     inkscape:window-x="-2"
     inkscape:window-y="-3"
     inkscape:window-maximized="1"
     showguides="false">
    <sodipodi:guide
       position="9,37.0002"
       orientation="29.999939,0"
       id="guide3288" />
    <sodipodi:guide
       position="9,7.0002615"
       orientation="0,30"
       id="guide3290" />
    <sodipodi:guide
       position="39,7.0002615"
       orientation="-29.999939,0"
       id="guide3292" />
    <sodipodi:guide
       position="39,37.0002"
       orientation="0,-30"
       id="guide3294" />
    <sodipodi:guide
       position="15,44.000017"
       orientation="7,0"
       id="guide3312" />
    <sodipodi:guide
       position="15,37.000017"
       orientation="0,18"
       id="guide3314" />
    <sodipodi:guide
       position="33,37.000017"
       orientation="-7,0"
       id="guide3316" />
    <sodipodi:guide
       position="17,39.000017"
       orientation="2,0"
       id="guide3322" />
    <sodipodi:guide
       position="17,37.000017"
       orientation="0,14"
       id="guide3324" />
    <sodipodi:guide
       position="31,37.000017"
       orientation="-2,0"
       id="guide3326" />
    <sodipodi:guide
       position="31,39.000017"
       orientation="0,-14"
       id="guide3328" />
    <sodipodi:guide
       position="15,44.099993"
       orientation="7.0999756,0"
       id="guide3344" />
    <sodipodi:guide
       position="15,37.000017"
       orientation="0,18"
       id="guide3346" />
    <sodipodi:guide
       position="33,37.000017"
       orientation="-7.0999756,0"
       id="guide3348" />
    <sodipodi:guide
       position="15,44.000017"
       orientation="7,0"
       id="guide3354" />
    <sodipodi:guide
       position="15,37.000017"
       orientation="0,18"
       id="guide3356" />
    <sodipodi:guide
       position="33,37.000017"
       orientation="-7,0"
       id="guide3358" />
    <sodipodi:guide
       position="33,44.000017"
       orientation="0,-18"
       id="guide3360" />
  </sodipodi:namedview>
  <metadata
     id="metadata7">
    <rdf:RDF>
      <cc:Work
         rdf:about="">
        <dc:format>image/svg+xml</dc:format>
        <dc:type
           rdf:resource="http://purl.org/dc/dcmitype/StillImage" />
        <dc:title />
      </cc:Work>
    </rdf:RDF>
  </metadata>
  <g
     inkscape:label="Capa 1"
     inkscape:groupmode="layer"
     id="layer1"
     transform="translate(0,-1004.3622)">
    <path
       d="m 29.500001,1009.8622 c 0,3.0376 -2.464139,5.5002 -5.50381,5.5002 -3.039671,0 -5.50381,-2.4626 -5.50381,-5.5002 0,-3.0377 2.464139,-5.5002 5.50381,-5.5002 3.039671,0 5.50381,2.4625 5.50381,5.5002 z"
       sodipodi:ry="5.5001698"
       sodipodi:rx="5.5038104"
       sodipodi:cy="1009.8622"
       sodipodi:cx="23.996191"
       id="path3284"
       style="fill:none;stroke:none"
       sodipodi:type="arc" />
    <path
       d="m 27.500001,1048.8622 c 0,1.933 -1.568089,3.5001 -3.502425,3.5001 -1.934336,0 -3.502425,-1.5671 -3.502425,-3.5001 0,-1.9331 1.568089,-3.5001 3.502425,-3.5001 1.934336,0 3.502425,1.567 3.502425,3.5001 z"
       sodipodi:ry="3.5001078"
       sodipodi:rx="3.502425"
       sodipodi:cy="1048.8622"
       sodipodi:cx="23.997576"
       id="path3270"
       style="fill:none;stroke:none"
       sodipodi:type="arc" />
    <path
       d="m 1032.8622,-43.5 c 0,2.485358 -2.0161,4.500139 -4.5031,4.500139 -2.487,0 -4.5031,-2.014781 -4.5031,-4.500139 0,-2.485358 2.0161,-4.500139 4.5031,-4.500139 2.487,0 4.5031,2.014781 4.5031,4.500139 z"
       sodipodi:ry="4.5001388"
       sodipodi:rx="4.5031176"
       sodipodi:cy="-43.5"
       sodipodi:cx="1028.3591"
       id="path3272"
       style="fill:none;stroke:none"
       sodipodi:type="arc"
       transform="matrix(0,1,-1,0,0,0)" />
    <path
       sodipodi:type="arc"
       style="fill:none;stroke:none"
       id="path3274"
       sodipodi:cx="1028.3591"
       sodipodi:cy="-4.5"
       sodipodi:rx="4.5031176"
       sodipodi:ry="4.5001388"
       d="m 1032.8622,-4.5 c 0,2.485358 -2.0161,4.50013875961 -4.5031,4.50013875961 -2.487,0 -4.5031,-2.01478075961 -4.5031,-4.50013875961 0,-2.485358 2.0161,-4.5001388 4.5031,-4.5001388 2.487,0 4.5031,2.0147808 4.5031,4.5001388 z"
       transform="matrix(0,1,-1,0,0,0)" />
    <path
       transform="matrix(0,1,-1,0,0,0)"
       sodipodi:type="arc"
       style="fill:none;stroke:none"
       id="path3276"
       sodipodi:cx="1028.3602"
       sodipodi:cy="-45"
       sodipodi:rx="3.0020785"
       sodipodi:ry="3.0000923"
       d="m 1031.3623,-45 c 0,1.656905 -1.3441,3.000092 -3.0021,3.000092 -1.658,0 -3.002,-1.343187 -3.002,-3.000092 0,-1.656905 1.344,-3.000092 3.002,-3.000092 1.658,0 3.0021,1.343187 3.0021,3.000092 z" />
    <path
       d="m 1031.3623,-2.9999998 c 0,1.6569052 -1.3441,3.000092306409 -3.0021,3.000092306409 -1.658,0 -3.002,-1.343187106409 -3.002,-3.000092306409 0,-1.6569052 1.344,-3.0000922 3.002,-3.0000922 1.658,0 3.0021,1.343187 3.0021,3.0000922 z"
       sodipodi:ry="3.0000923"
       sodipodi:rx="3.0020785"
       sodipodi:cy="-2.9999998"
       sodipodi:cx="1028.3602"
       id="path3278"
       style="fill:none;stroke:none"
       sodipodi:type="arc"
       transform="matrix(0,1,-1,0,0,0)" />
    <rect
       style="fill:#8c8c8c;fill-opacity:1;fill-rule:evenodd;stroke:none"
       id="rect3280"
       width="29.999998"
       height="29.999998"
       x="9"
       y="1015.362" />
    <rect
       style="fill:#5a5a5a;fill-opacity:1;fill-rule:evenodd;stroke:none"
       id="rect3340"
       width="4"
       height="20"
       x="33"
       y="1019.362" />
    <rect
       style="fill:#5a5a5a;fill-opacity:1;fill-rule:evenodd;stroke:none"
       id="rect3330"
       width="4"
       height="20"
       x="22"
       y="1019.362" />
    <rect
       y="1019.362"
       x="11"
       height="20"
       width="4"
       id="rect3334"
       style="fill:#5a5a5a;fill-opacity:1;fill-rule:evenodd;stroke:none" />
    <rect
       y="1015.3622"
       x="5.9999995"
       height="7"
       width="36"
       id="rect3282"
       style="fill:#8c8c8c;fill-opacity:1;fill-rule:evenodd;stroke:none" />
    <path
       transform="matrix(0,1,-1,0,0,0)"
       sodipodi:type="arc"
       style="fill:none;stroke:none"
       id="path3296"
       sodipodi:cx="1012.3601"
       sodipodi:cy="-12"
       sodipodi:rx="3.0020785"
       sodipodi:ry="3.0000923"
       d="m 1015.3622,-12 c 0,1.656905 -1.3441,3.0000923 -3.0021,3.0000923 -1.658,0 -3.0021,-1.3431873 -3.0021,-3.0000923 0,-1.656905 1.3441,-3.000092 3.0021,-3.000092 1.658,0 3.0021,1.343187 3.0021,3.000092 z" />
    <path
       d="m 1015.3622,-36 c 0,1.656905 -1.3441,3.000092 -3.0021,3.000092 -1.658,0 -3.0021,-1.343187 -3.0021,-3.000092 0,-1.656905 1.3441,-3.000092 3.0021,-3.000092 1.658,0 3.0021,1.343187 3.0021,3.000092 z"
       sodipodi:ry="3.0000923"
       sodipodi:rx="3.0020785"
       sodipodi:cy="-36"
       sodipodi:cx="1012.3601"
       id="path3298"
       style="fill:none;stroke:none"
       sodipodi:type="arc"
       transform="matrix(0,1,-1,0,0,0)" />
    <path
       style="fill:#8c8c8c;fill-opacity:1;fill-rule:evenodd;stroke:none"
       d="M 17 4 L 15 9 L 15 11 L 17 11 L 17 9 L 17 4 z M 31 4 L 31 9 L 31 11 L 33 11 L 33 9 L 31 4 z "
       transform="translate(0,1004.3622)"
       id="path3376" />
    <path
       style="fill:#5a5a5a;fill-opacity:1;fill-rule:evenodd;stroke:none"
       d="M 17 4 L 17 9 L 31 9 L 31 4 L 17 4 z "
       transform="translate(0,1004.3622)"
       id="path3381" />
    <path
       d="m 25,1014.3622 c 0,0.5523 -0.448025,1 -1.000692,1 -0.552668,0 -1.000693,-0.4477 -1.000693,-1 0,-0.5523 0.448025,-1 1.000693,-1 0.552667,0 1.000692,0.4477 1.000692,1 z"
       sodipodi:ry="1.0000308"
       sodipodi:rx="1.0006928"
       sodipodi:cy="1014.3622"
       sodipodi:cx="23.999308"
       id="path3302"
       style="fill:none;stroke:none"
       sodipodi:type="arc" />
    <path
       sodipodi:type="arc"
       style="fill:none;stroke:none"
       id="path3304"
       sodipodi:cx="15.999307"
       sodipodi:cy="1014.3622"
       sodipodi:rx="1.0006928"
       sodipodi:ry="1.0000308"
       d="m 17,1014.3622 c 0,0.5523 -0.448026,1 -1.000693,1 -0.552668,0 -1.000693,-0.4477 -1.000693,-1 0,-0.5523 0.448025,-1 1.000693,-1 0.552667,0 1.000693,0.4477 1.000693,1 z" />
    <path
       sodipodi:type="arc"
       style="fill:none;stroke:none"
       id="path3306"
       sodipodi:cx="31.999308"
       sodipodi:cy="1014.3622"
       sodipodi:rx="1.0006928"
       sodipodi:ry="1.0000308"
       d="m 33,1014.3622 c 0,0.5523 -0.448025,1 -1.000692,1 -0.552668,0 -1.000693,-0.4477 -1.000693,-1 0,-0.5523 0.448025,-1 1.000693,-1 0.552667,0 1.000692,0.4477 1.000692,1 z" />
    <path
       transform="matrix(0,1,-1,0,0,0)"
       sodipodi:type="arc"
       style="fill:none;stroke:none"
       id="path3332"
       sodipodi:cx="1042.3599"
       sodipodi:cy="-24"
       sodipodi:rx="3.0020785"
       sodipodi:ry="3.0000923"
       d="m 1045.3619,-24 c 0,1.656905 -1.344,3.000092 -3.002,3.000092 -1.658,0 -3.0021,-1.343187 -3.0021,-3.000092 0,-1.656905 1.3441,-3.000092 3.0021,-3.000092 1.658,0 3.002,1.343187 3.002,3.000092 z" />
    <path
       d="m 1045.3619,-18 c 0,1.656905 -1.344,3.000092 -3.002,3.000092 -1.658,0 -3.0021,-1.343187 -3.0021,-3.000092 0,-1.656905 1.3441,-3.000092 3.0021,-3.000092 1.658,0 3.002,1.343187 3.002,3.000092 z"
       sodipodi:ry="3.0000923"
       sodipodi:rx="3.0020785"
       sodipodi:cy="-18"
       sodipodi:cx="1042.3599"
       id="path3336"
       style="fill:none;stroke:none"
       sodipodi:type="arc"
       transform="matrix(0,1,-1,0,0,0)" />
    <path
       d="m 1045.3619,-30 c 0,1.656905 -1.344,3.000092 -3.002,3.000092 -1.658,0 -3.0021,-1.343187 -3.0021,-3.000092 0,-1.656905 1.3441,-3.000092 3.0021,-3.000092 1.658,0 3.002,1.343187 3.002,3.000092 z"
       sodipodi:ry="3.0000923"
       sodipodi:rx="3.0020785"
       sodipodi:cy="-30"
       sodipodi:cx="1042.3599"
       id="path3338"
       style="fill:none;stroke:none"
       sodipodi:type="arc"
       transform="matrix(0,1,-1,0,0,0)" />
    <path
       sodipodi:type="arc"
       style="fill:none;stroke:none"
       id="path3268"
       sodipodi:cx="23.998615"
       sodipodi:cy="1006.3622"
       sodipodi:rx="2.0013857"
       sodipodi:ry="2.0000615"
       d="m 26.000001,1006.3622 c 0,1.1046 -0.896051,2 -2.001386,2 -1.105335,0 -2.001385,-0.8954 -2.001385,-2 0,-1.1046 0.89605,-2.0001 2.001385,-2.0001 1.105335,0 2.001386,0.8955 2.001386,2.0001 z" />
  </g>
</svg>
