<?xml version="1.0" encoding="UTF-8" standalone="no"?>
<!-- Generator: flash2svg, http://dissentgraphics.com/tools/flash2svg -->

<svg
   xmlns:dc="http://purl.org/dc/elements/1.1/"
   xmlns:cc="http://creativecommons.org/ns#"
   xmlns:rdf="http://www.w3.org/1999/02/22-rdf-syntax-ns#"
   xmlns:svg="http://www.w3.org/2000/svg"
   xmlns="http://www.w3.org/2000/svg"
   xmlns:sodipodi="http://sodipodi.sourceforge.net/DTD/sodipodi-0.dtd"
   xmlns:inkscape="http://www.inkscape.org/namespaces/inkscape"
   id="Drive-External"
   version="1.1"
   style="image-rendering:optimizeSpeed"
   x="0px"
   y="0px"
   width="512"
   height="512"
   viewBox="0 0 512 512"
   enable-background="new 0 0 1024 1024"
   inkscape:version="0.91 r13725"
   sodipodi:docname="drive-harddisk-usb.svg">
  <metadata
     id="metadata26">
    <rdf:RDF>
      <cc:Work
         rdf:about="">
        <dc:format>image/svg+xml</dc:format>
        <dc:type
           rdf:resource="http://purl.org/dc/dcmitype/StillImage" />
        <dc:title></dc:title>
      </cc:Work>
    </rdf:RDF>
  </metadata>
  <sodipodi:namedview
     pagecolor="#f7f7f7"
     bordercolor="#666666"
     borderopacity="1"
     objecttolerance="10"
     gridtolerance="10"
     guidetolerance="10"
     inkscape:pageopacity="0"
     inkscape:pageshadow="2"
     inkscape:window-width="1366"
     inkscape:window-height="691"
     id="namedview24"
     showgrid="false"
     inkscape:zoom="0.39067618"
     inkscape:cx="133.42416"
     inkscape:cy="142.732"
     inkscape:window-x="-4"
     inkscape:window-y="0"
     inkscape:window-maximized="1"
     inkscape:current-layer="Drive-External" />
  <defs
     transform="matrix(1 0 0 1 0 0) "
     id="defs3">
    <path
       d="m 38.650563,12.764798 -8.308794,0 0,8.310562 2.882358,0 c -0.257227,4.816849 -3.169536,5.132217 -5.755905,5.400015 -0.16209,0.01762 -0.29775,0.037 -0.45103,0.05286 l 0,-16.420277 4.154401,0 -5.792904,-8.107955 -5.838713,8.107954 4.154401,0 0,21.300551 c -0.186755,-0.02291 -0.366461,-0.04581 -0.569072,-0.06519 -2.491231,-0.257228 -5.280211,-0.560261 -5.717146,-4.882038 1.744213,-0.776966 2.961641,-2.522943 2.961641,-4.554335 0,-2.751982 -2.230481,-4.984224 -4.984224,-4.984224 -2.753745,0 -4.985984,2.232242 -4.985984,4.984224 0,2.607512 1.999678,4.742852 4.552574,4.964844 0.628973,5.415871 4.374629,6.485303 6.915191,6.832384 -1.89397,1.171619 -3.158965,3.261151 -3.158965,5.650197 0,3.67342 2.975735,6.64563 6.647392,6.64563 3.671658,0 6.645632,-2.973973 6.645632,-6.64563 0,-3.097301 -2.121246,-5.688957 -4.985986,-6.428928 l 0,-3.888362 c 0.218468,-0.03172 0.466885,-0.05462 0.706495,-0.07929 2.517658,-0.262512 7.655161,-0.819252 7.986386,-7.882437 l 2.938728,0 0,-8.310562 0.0035,0 0,0 z"
       id="path-main"
       inkscape:connector-curvature="0" />
  </defs>
  <g
     style="image-rendering:optimizeSpeed"
     id="g4168">
    <rect
       rx="21.112026"
       ry="21.112026"
       y="32.201813"
       x="71.055573"
       height="448.79819"
       width="369.87732"
       id="rect5752-11"
       style="opacity:1;fill:#5d6a7b;fill-opacity:1;stroke:none;stroke-width:0;stroke-linecap:butt;stroke-linejoin:miter;stroke-miterlimit:4;stroke-dasharray:none;stroke-dashoffset:0;stroke-opacity:1;image-rendering:optimizeSpeed" />
    <rect
       rx="5.8049579"
       ry="5.8049579"
       y="440.52255"
       x="92.826019"
       height="23.069307"
       width="167.12097"
       id="rect6297-3"
       style="opacity:1;fill:#394050;fill-opacity:1;stroke:none;stroke-width:0;stroke-linecap:butt;stroke-linejoin:miter;stroke-miterlimit:4;stroke-dasharray:none;stroke-dashoffset:0;stroke-opacity:1;image-rendering:optimizeSpeed" />
    <rect
       rx="21.112026"
       ry="18.504381"
       y="31.000002"
       x="71.067108"
       height="393.36499"
       width="369.87732"
       id="rect5752-1-3"
       style="opacity:1;fill:#ebebeb;fill-opacity:1;stroke:none;stroke-width:0;stroke-linecap:butt;stroke-linejoin:miter;stroke-miterlimit:4;stroke-dasharray:none;stroke-dashoffset:0;stroke-opacity:1;image-rendering:optimizeSpeed" />
    <path
       style="fill:#f5f5f5;fill-opacity:1;stroke-width:0.49891937;image-rendering:optimizeSpeed"
       inkscape:connector-curvature="0"
       d="m 351.47401,323.15074 q 39.53936,-39.53937 39.53936,-95.46822 c 0,-37.29422 -13.17147,-69.10033 -39.53936,-95.46823 C 325.10611,105.84641 293.3,92.674927 256.00578,92.674927 c -37.29423,0 -69.10034,13.171483 -95.46823,39.539363 -26.36789,26.3679 -39.53937,58.17401 -39.53937,95.46823 0,37.29422 13.17148,69.10034 39.53937,95.46822 26.36789,26.36789 58.174,39.53936 95.46823,39.53936 37.29422,0 69.10033,-13.17147 95.46823,-39.53936 z"
       id="path6" />
    <circle
       r="10.344707"
       cy="452.02554"
       cx="357.99997"
       id="path6382-0"
       style="opacity:1;fill:#d1d2d3;fill-opacity:1;stroke:none;stroke-width:0;stroke-linecap:butt;stroke-linejoin:miter;stroke-miterlimit:4;stroke-dasharray:none;stroke-dashoffset:0;stroke-opacity:1;image-rendering:optimizeSpeed" />
    <circle
       r="10.344707"
       cy="452.01965"
       cx="389.94727"
       id="path6382-7-3"
       style="opacity:1;fill:#d1d2d3;fill-opacity:1;stroke:none;stroke-width:0;stroke-linecap:butt;stroke-linejoin:miter;stroke-miterlimit:4;stroke-dasharray:none;stroke-dashoffset:0;stroke-opacity:1;image-rendering:optimizeSpeed" />
  </g>
  <g
     id="g4159"
     transform="translate(2.943305,0)">
    <path
       sodipodi:nodetypes="ccccccccc"
       inkscape:connector-curvature="0"
       id="rect1933"
       d="m 267.91998,196.39956 2.53125,2.53125 23.23242,0 2.53125,-2.53125 0,-23.16993 -2.53125,-2.53125 -23.23242,0 -2.53125,2.53125 z"
       style="color:#000000;font-style:normal;font-variant:normal;font-weight:normal;font-stretch:normal;font-size:medium;line-height:normal;font-family:sans-serif;text-indent:0;text-align:start;text-decoration:none;text-decoration-line:none;text-decoration-style:solid;text-decoration-color:#000000;letter-spacing:normal;word-spacing:normal;text-transform:none;direction:ltr;block-progression:tb;writing-mode:lr-tb;baseline-shift:baseline;text-anchor:start;white-space:normal;clip-rule:nonzero;display:inline;overflow:visible;visibility:visible;opacity:1;isolation:auto;mix-blend-mode:normal;color-interpolation:sRGB;color-interpolation-filters:linearRGB;solid-color:#000000;solid-opacity:1;fill:#16a085;fill-opacity:1;fill-rule:nonzero;stroke:none;stroke-width:5.06369448;stroke-linecap:butt;stroke-linejoin:miter;stroke-miterlimit:0;stroke-dasharray:none;stroke-dashoffset:0;stroke-opacity:1;color-rendering:auto;image-rendering:auto;shape-rendering:auto;text-rendering:auto;enable-background:accumulate" />
    <path
       sodipodi:nodetypes="cscsccc"
       inkscape:connector-curvature="0"
       id="path2830"
       d="m 252.80865,281.36635 c -10.67516,-0.001 -19.38672,8.70481 -19.38672,19.37696 0,10.67273 8.71258,19.37729 19.38867,19.375 10.67504,10e-4 19.38672,-8.70291 19.38672,-19.375 0,-10.67217 -8.71163,-19.37817 -19.38672,-19.37696 l -0.002,0 z"
       style="color:#000000;font-style:normal;font-variant:normal;font-weight:normal;font-stretch:normal;font-size:medium;line-height:normal;font-family:sans-serif;text-indent:0;text-align:start;text-decoration:none;text-decoration-line:none;text-decoration-style:solid;text-decoration-color:#000000;letter-spacing:normal;word-spacing:normal;text-transform:none;direction:ltr;block-progression:tb;writing-mode:lr-tb;baseline-shift:baseline;text-anchor:start;white-space:normal;clip-rule:nonzero;display:inline;overflow:visible;visibility:visible;opacity:1;isolation:auto;mix-blend-mode:normal;color-interpolation:sRGB;color-interpolation-filters:linearRGB;solid-color:#000000;solid-opacity:1;fill:#16a085;fill-opacity:1;fill-rule:nonzero;stroke:none;stroke-width:5.06369448;stroke-linecap:butt;stroke-linejoin:miter;stroke-miterlimit:0;stroke-dasharray:none;stroke-dashoffset:0;stroke-opacity:1;color-rendering:auto;image-rendering:auto;shape-rendering:auto;text-rendering:auto;enable-background:accumulate" />
    <path
       sodipodi:nodetypes="cscsc"
       inkscape:connector-curvature="0"
       id="path4602"
       d="m 223.64654,197.53042 c -7.56173,-0.002 -13.74805,6.18019 -13.74805,13.74023 0,7.56001 6.18644,13.74145 13.74805,13.74023 7.56173,0.002 13.74805,-6.18024 13.74805,-13.74023 0,-7.56003 -6.18644,-13.74146 -13.74805,-13.74023 z"
       style="color:#000000;font-style:normal;font-variant:normal;font-weight:normal;font-stretch:normal;font-size:medium;line-height:normal;font-family:sans-serif;text-indent:0;text-align:start;text-decoration:none;text-decoration-line:none;text-decoration-style:solid;text-decoration-color:#000000;letter-spacing:normal;word-spacing:normal;text-transform:none;direction:ltr;block-progression:tb;writing-mode:lr-tb;baseline-shift:baseline;text-anchor:start;white-space:normal;clip-rule:nonzero;display:inline;overflow:visible;visibility:visible;opacity:1;isolation:auto;mix-blend-mode:normal;color-interpolation:sRGB;color-interpolation-filters:linearRGB;solid-color:#000000;solid-opacity:1;fill:#16a085;fill-opacity:1;fill-rule:nonzero;stroke:none;stroke-width:5.06369448;stroke-linecap:butt;stroke-linejoin:miter;stroke-miterlimit:0;stroke-dasharray:none;stroke-dashoffset:0;stroke-opacity:1;color-rendering:auto;image-rendering:auto;shape-rendering:auto;text-rendering:auto;enable-background:accumulate" />
    <path
       sodipodi:nodetypes="sccssssccccssccccs"
       inkscape:connector-curvature="0"
       id="path4608"
       d="m 252.84381,134.38588 c -0.70316,0.0265 -1.05381,0.25789 -1.27735,0.40039 -0.44707,0.28501 -0.5216,0.4312 -0.61523,0.54297 -0.18727,0.22354 -0.2445,0.32712 -0.32032,0.44922 -0.15164,0.2442 -0.28782,0.49518 -0.45703,0.8125 -0.33842,0.63464 -0.77682,1.50275 -1.29492,2.55274 -1.0362,2.09997 -2.38028,4.90557 -3.7168,7.72265 -2.67302,5.63416 -5.31054,11.30469 -5.31054,11.30469 l 2.29492,3.60156 21.25391,0 2.29687,-3.59765 c 0,0 -2.55038,-5.49695 -5.13281,-11.03711 -1.29122,-2.77008 -2.58919,-5.55013 -3.58399,-7.66407 -0.49739,-1.05696 -0.91809,-1.946 -1.22656,-2.58984 -0.15424,-0.32192 -0.28113,-0.58166 -0.37891,-0.7793 -0.0489,-0.0988 -0.0893,-0.18199 -0.13085,-0.26171 -0.0416,-0.0797 0.1119,0.0645 -0.28321,-0.45508 -0.41414,-0.54457 -1.41403,-1.02846 -2.11718,-1.00196 z"
       style="color:#000000;font-style:normal;font-variant:normal;font-weight:normal;font-stretch:normal;font-size:medium;line-height:normal;font-family:sans-serif;text-indent:0;text-align:start;text-decoration:none;text-decoration-line:none;text-decoration-style:solid;text-decoration-color:#000000;letter-spacing:normal;word-spacing:normal;text-transform:none;direction:ltr;block-progression:tb;writing-mode:lr-tb;baseline-shift:baseline;text-anchor:start;white-space:normal;clip-rule:nonzero;display:inline;overflow:visible;visibility:visible;opacity:1;isolation:auto;mix-blend-mode:normal;color-interpolation:sRGB;color-interpolation-filters:linearRGB;solid-color:#000000;solid-opacity:1;fill:#16a085;fill-opacity:1;fill-rule:evenodd;stroke:none;stroke-width:5.06369448;stroke-linecap:butt;stroke-linejoin:miter;stroke-miterlimit:0;stroke-dasharray:none;stroke-dashoffset:0;stroke-opacity:1;color-rendering:auto;image-rendering:auto;shape-rendering:auto;text-rendering:auto;enable-background:accumulate" />
    <path
       inkscape:connector-curvature="0"
       id="path2766"
       d="m 219.38677,216.12807 c 0,9.84421 -0.36132,13.23821 -0.36132,21.20117 0,4.6666 2.52228,8.36862 5.39062,11.60352 2.86834,3.23489 6.36813,6.23568 9.78125,9.39648 6.82624,6.32162 12.91103,12.98944 13.66016,21 l 9.10156,-0.85156 c -1.11587,-11.93224 -9.43767,-20.26819 -16.55078,-26.85547 -3.55656,-3.29364 -6.90999,-6.22498 -9.15235,-8.7539 -2.24236,-2.52893 -3.08984,-4.42058 -3.08984,-5.53907 0,-7.68261 0.36133,-11.13664 0.36133,-21.20117 l -9.14063,0 z"
       style="color:#000000;font-style:normal;font-variant:normal;font-weight:normal;font-stretch:normal;font-size:medium;line-height:normal;font-family:sans-serif;text-indent:0;text-align:start;text-decoration:none;text-decoration-line:none;text-decoration-style:solid;text-decoration-color:#000000;letter-spacing:normal;word-spacing:normal;text-transform:none;direction:ltr;block-progression:tb;writing-mode:lr-tb;baseline-shift:baseline;text-anchor:start;white-space:normal;clip-rule:nonzero;display:inline;overflow:visible;visibility:visible;opacity:1;isolation:auto;mix-blend-mode:normal;color-interpolation:sRGB;color-interpolation-filters:linearRGB;solid-color:#000000;solid-opacity:1;fill:#16a085;fill-opacity:1;fill-rule:nonzero;stroke:none;stroke-width:9.1409235;stroke-linecap:butt;stroke-linejoin:miter;stroke-miterlimit:0;stroke-dasharray:none;stroke-dashoffset:0;stroke-opacity:1;color-rendering:auto;image-rendering:auto;shape-rendering:auto;text-rendering:auto;enable-background:accumulate" />
    <path
       inkscape:connector-curvature="0"
       id="path3653"
       d="m 277.63482,187.16909 c 0,0.86107 0.0607,2.2514 0.12695,4.67383 0.0662,2.42242 0.13881,5.5349 0.16602,8.6621 0.0272,3.12721 0.007,6.28087 -0.10352,8.70508 -0.0551,1.21211 -0.13499,2.24788 -0.22265,2.92774 -0.027,0.20937 -0.0757,0.31425 -0.12305,0.45703 -4.21049,6.40155 -10.8005,11.14257 -17.05469,17.03125 -6.40848,6.03396 -12.34961,13.97445 -12.34961,25.72851 l 9.14063,0 c 0,-8.88744 3.76666,-13.69985 9.47461,-19.07421 5.70795,-5.37437 13.43127,-10.63956 18.86719,-19.26172 l 0.10742,-0.17774 c 0.96544,-1.69882 0.86243,-2.436 1.0039,-3.5332 0.14148,-1.09721 0.22708,-2.32106 0.28907,-3.6836 0.12398,-2.72507 0.13931,-5.98317 0.11132,-9.19921 -0.028,-3.21605 -0.10091,-6.37907 -0.16796,-8.83203 -0.0671,-2.45297 -0.125,-4.53918 -0.125,-4.42383 l -9.14063,0 z"
       style="color:#000000;font-style:normal;font-variant:normal;font-weight:normal;font-stretch:normal;font-size:medium;line-height:normal;font-family:sans-serif;text-indent:0;text-align:start;text-decoration:none;text-decoration-line:none;text-decoration-style:solid;text-decoration-color:#000000;letter-spacing:normal;word-spacing:normal;text-transform:none;direction:ltr;block-progression:tb;writing-mode:lr-tb;baseline-shift:baseline;text-anchor:start;white-space:normal;clip-rule:nonzero;display:inline;overflow:visible;visibility:visible;opacity:1;isolation:auto;mix-blend-mode:normal;color-interpolation:sRGB;color-interpolation-filters:linearRGB;solid-color:#000000;solid-opacity:1;fill:#16a085;fill-opacity:1;fill-rule:nonzero;stroke:none;stroke-width:9.1409235;stroke-linecap:butt;stroke-linejoin:miter;stroke-miterlimit:0;stroke-dasharray:none;stroke-dashoffset:0;stroke-opacity:1;color-rendering:auto;image-rendering:auto;shape-rendering:auto;text-rendering:auto;enable-background:accumulate" />
    <path
       inkscape:connector-curvature="0"
       id="path5436"
       d="m 248.01373,153.47768 0,146.72266 9.14062,0 0,-146.72266 -9.14062,0 z"
       style="color:#000000;font-style:normal;font-variant:normal;font-weight:normal;font-stretch:normal;font-size:medium;line-height:normal;font-family:sans-serif;text-indent:0;text-align:start;text-decoration:none;text-decoration-line:none;text-decoration-style:solid;text-decoration-color:#000000;letter-spacing:normal;word-spacing:normal;text-transform:none;direction:ltr;block-progression:tb;writing-mode:lr-tb;baseline-shift:baseline;text-anchor:start;white-space:normal;clip-rule:nonzero;display:inline;overflow:visible;visibility:visible;opacity:1;isolation:auto;mix-blend-mode:normal;color-interpolation:sRGB;color-interpolation-filters:linearRGB;solid-color:#000000;solid-opacity:1;fill:#16a085;fill-opacity:1;fill-rule:nonzero;stroke:none;stroke-width:9.1409235;stroke-linecap:butt;stroke-linejoin:miter;stroke-miterlimit:0;stroke-dasharray:none;stroke-dashoffset:0;stroke-opacity:1;color-rendering:auto;image-rendering:auto;shape-rendering:auto;text-rendering:auto;enable-background:accumulate" />
  </g>
</svg>
