<?xml version="1.0" encoding="UTF-8" standalone="no"?>
<!-- Created with Inkscape (http://www.inkscape.org/) -->

<svg
   xmlns:dc="http://purl.org/dc/elements/1.1/"
   xmlns:cc="http://creativecommons.org/ns#"
   xmlns:rdf="http://www.w3.org/1999/02/22-rdf-syntax-ns#"
   xmlns:svg="http://www.w3.org/2000/svg"
   xmlns="http://www.w3.org/2000/svg"
   xmlns:sodipodi="http://sodipodi.sourceforge.net/DTD/sodipodi-0.dtd"
   xmlns:inkscape="http://www.inkscape.org/namespaces/inkscape"
   id="svg2"
   version="1.1"
   inkscape:version="0.91+devel r"
   width="512"
   height="512"
   sodipodi:docname="applets-screenshooter.svg"
   viewBox="0 0 512 512">
  <metadata
     id="metadata8">
    <rdf:RDF>
      <cc:Work
         rdf:about="">
        <dc:format>image/svg+xml</dc:format>
        <dc:type
           rdf:resource="http://purl.org/dc/dcmitype/StillImage" />
        <dc:title />
      </cc:Work>
    </rdf:RDF>
  </metadata>
  <defs
     id="defs6" />
  <sodipodi:namedview
     pagecolor="#ffffff"
     bordercolor="#666666"
     borderopacity="1"
     objecttolerance="10"
     gridtolerance="10"
     guidetolerance="10"
     inkscape:pageopacity="0"
     inkscape:pageshadow="2"
     inkscape:window-width="1920"
     inkscape:window-height="1024"
     id="namedview4"
     showgrid="false"
     inkscape:zoom="0.70710678"
     inkscape:cx="380.0267"
     inkscape:cy="408.93638"
     inkscape:window-x="0"
     inkscape:window-y="29"
     inkscape:window-maximized="1"
     inkscape:current-layer="svg2"
     inkscape:document-units="px" />
  <rect
     style="opacity:1;fill:#666666;fill-opacity:1;stroke:none;stroke-width:5.65382528;stroke-linecap:round;stroke-miterlimit:4;stroke-dasharray:22.61530156, 22.61530156;stroke-dashoffset:42;stroke-opacity:1"
     id="rect4147"
     width="90.201744"
     height="75.477806"
     x="210.89912"
     y="352.8588"
     ry="0" />
  <path
     style="opacity:1;fill:#c3c3c3;fill-opacity:1;stroke:none;stroke-width:5.63328028;stroke-linecap:round;stroke-miterlimit:4;stroke-dasharray:22.53312289, 22.53312289;stroke-dashoffset:42;stroke-opacity:1"
     d="m 210.76698,353.41547 90.46603,0 0,74.71138 z"
     id="rect4147-1"
     inkscape:connector-curvature="0"
     sodipodi:nodetypes="cccc" />
  <rect
     style="opacity:1;fill:#3c3c3c;fill-opacity:0.32007165;stroke:none;stroke-width:5.62832594;stroke-linecap:round;stroke-miterlimit:4;stroke-dasharray:22.51330515, 22.51330515;stroke-dashoffset:42;stroke-opacity:1"
     id="rect4143-3"
     width="462.39835"
     height="295.08395"
     x="24.947838"
     y="63.004776" />
  <path
     inkscape:connector-curvature="0"
     style="opacity:1;fill:#000000;fill-opacity:1;stroke:none;stroke-width:5.69529057;stroke-linecap:round;stroke-miterlimit:4;stroke-dasharray:22.78116275, 22.78116275;stroke-dashoffset:42;stroke-opacity:1"
     d="m 20.999999,56.313621 0,297.260179 470.000001,0 0,-297.260179 -470.000001,0 z m 150.667451,371.873369 0,13.02847 168.66509,0 0,-13.02847 -168.66509,0 z"
     id="rect4143" />
  <path
     style="fill:#333333;fill-opacity:1;fill-rule:evenodd;stroke:none;stroke-width:0.94230425px;stroke-linecap:butt;stroke-linejoin:miter;stroke-opacity:1"
     d="m 467.8841,83.235546 -426.953998,0.40306 10.768402,5.4569 -10.821775,-5.40721 1.034326,217.955714 0,0.009 0.01841,-0.009 425.067545,-1.70609 0.87789,-216.696854 0.009,-0.006 z"
     id="path4167"
     inkscape:connector-curvature="0" />
  <rect
     style="opacity:1;fill:none;fill-opacity:1;stroke:#ffffff;stroke-width:5.65382528;stroke-linecap:butt;stroke-linejoin:miter;stroke-miterlimit:4;stroke-dasharray:11.30765078, 11.30765078;stroke-dashoffset:0;stroke-opacity:1"
     id="rect4235"
     width="342.71176"
     height="173.93739"
     x="84.644135"
     y="104.58926" />
  <g
     id="g4231"
     transform="matrix(0.44857826,0,0,-0.44857826,173.93846,549.60234)"
     style="fill:#cccccc;fill-opacity:1;stroke:none">
    <path
       style="fill:#cccccc;fill-opacity:1;stroke:none;stroke-width:7.54062271;stroke-miterlimit:4;stroke-opacity:1;marker-start:none"
       sodipodi:nodetypes="cccccczcccccccc"
       id="path49000"
       d="m 439.22937,396.96624 c -39.99272,-55.39455 -48.56918,-95.83447 -62.16419,-91.99646 -10.62669,3 -5.54306,12.10035 -33.62407,18.45086 -26.96162,6.09741 -54.44504,-16.08805 -60.10583,-42.79361 -7.56022,-26.17937 4.86229,-59.03621 32.50809,-67.09242 27.36294,-9.8341 59.91571,6.32203 69.58267,33.5745 14.0265,31.16135 21.16299,72.29173 66.64075,107.68138 l 34.90671,27.1638 120.6271,171.10904 c 13.48121,22.11788 21.53977,51.5201 3.93501,79.45404 L 439.22937,396.96624 Z M 309.63984,293.56121 c 23.25361,23.30157 64.51312,9.21439 64.51152,-21.82128 1.71441,-28.54979 -32.933,-54.63199 -58.76636,-38.39095 -21.7463,11.37964 -21.66398,44.26065 -5.74516,60.21223 z"
       inkscape:connector-curvature="0" />
    <path
       style="fill:#cccccc;fill-opacity:1;stroke:none;stroke-width:6.30193853;stroke-linecap:butt;stroke-linejoin:miter;stroke-miterlimit:4;stroke-dasharray:none;stroke-opacity:1;marker-start:none"
       sodipodi:nodetypes="cccccczcccccccc"
       id="path48999"
       d="m 501.04181,395.45837 c 40.1155,-55.30522 48.78248,-95.72598 62.36912,-91.85768 10.62008,3.02363 5.5161,12.1129 33.5823,18.52574 26.94828,6.15744 54.48106,-15.96667 60.20111,-42.65946 7.61903,-26.16275 -4.73032,-59.04692 -32.35823,-67.16485 -27.34078,-9.895 -59.92949,6.18862 -69.65752,33.41935 -14.09572,31.13025 -21.32401,72.24438 -66.88019,107.53283 L 453.33141,380.33989 332.3229,551.17978 c -13.53038,22.08772 -21.65414,51.47196 -4.11168,79.44509 L 501.04181,395.45837 Z M 630.86163,292.34246 c -23.30556,23.24971 -64.5336,9.07061 -64.4631,-21.96506 -1.65035,-28.55353 33.05479,-54.55845 58.85208,-38.25976 21.72094,11.42802 21.56521,44.30875 5.61102,60.22482 z"
       inkscape:connector-curvature="0" />
  </g>
</svg>
