<?xml version="1.0" encoding="UTF-8" standalone="no"?>
<svg
   xmlns:dc="http://purl.org/dc/elements/1.1/"
   xmlns:cc="http://creativecommons.org/ns#"
   xmlns:rdf="http://www.w3.org/1999/02/22-rdf-syntax-ns#"
   xmlns:svg="http://www.w3.org/2000/svg"
   xmlns="http://www.w3.org/2000/svg"
   xmlns:sodipodi="http://sodipodi.sourceforge.net/DTD/sodipodi-0.dtd"
   xmlns:inkscape="http://www.inkscape.org/namespaces/inkscape"
   width="256"
   height="256"
   viewBox="0 0 256 256"
   version="1.1"
   id="svg6"
   sodipodi:docname="package_settings.svg"
   inkscape:version="0.92.3 (2405546, 2018-03-11)">
  <metadata
     id="metadata12">
    <rdf:RDF>
      <cc:Work
         rdf:about="">
        <dc:format>image/svg+xml</dc:format>
        <dc:type
           rdf:resource="http://purl.org/dc/dcmitype/StillImage" />
      </cc:Work>
    </rdf:RDF>
  </metadata>
  <defs
     id="defs10">
    <linearGradient
       gradientTransform="rotate(-90,23.999998,24)"
       gradientUnits="userSpaceOnUse"
       x2="47"
       x1="1"
       id="linearGradient3764">
      <stop
         id="stop822"
         style="stop-color:#333;stop-opacity:1" />
      <stop
         id="stop824"
         style="stop-color:#3d3d3d;stop-opacity:1"
         offset="1" />
    </linearGradient>
  </defs>
  <sodipodi:namedview
     pagecolor="#ffffff"
     bordercolor="#666666"
     borderopacity="1"
     objecttolerance="10"
     gridtolerance="10"
     guidetolerance="10"
     inkscape:pageopacity="0"
     inkscape:pageshadow="2"
     inkscape:window-width="1920"
     inkscape:window-height="994"
     id="namedview8"
     showgrid="false"
     inkscape:zoom="0.921875"
     inkscape:cx="8.6779661"
     inkscape:cy="128"
     inkscape:window-x="0"
     inkscape:window-y="27"
     inkscape:window-maximized="1"
     inkscape:current-layer="svg6" />
  <g
     id="g904"
     transform="matrix(5.4545711,0,0,5.4543815,-4.0044186,-4.0052294)">
    <g
       id="g835">
      <path
         id="path829"
         style="opacity:0.05"
         d="m 36.31,5 c 5.859,4.062 9.688,10.831 9.688,18.5 0,12.426 -10.07,22.5 -22.5,22.5 -7.669,0 -14.438,-3.828 -18.5,-9.688 1.037,1.822 2.306,3.499 3.781,4.969 4.085,3.712 9.514,5.969 15.469,5.969 12.703,0 23,-10.298 23,-23 0,-5.954 -2.256,-11.384 -5.969,-15.469 C 39.81,7.306 38.132,6.037 36.31,5 Z m 4.969,3.781 c 3.854,4.113 6.219,9.637 6.219,15.719 0,12.703 -10.297,23 -23,23 -6.081,0 -11.606,-2.364 -15.719,-6.219 4.16,4.144 9.883,6.719 16.219,6.719 12.703,0 23,-10.298 23,-23 0,-6.335 -2.575,-12.06 -6.719,-16.219 z"
         inkscape:connector-curvature="0" />
      <path
         id="path831"
         style="opacity:0.1"
         d="m 41.28,8.781 c 3.712,4.085 5.969,9.514 5.969,15.469 0,12.703 -10.297,23 -23,23 -5.954,0 -11.384,-2.256 -15.469,-5.969 4.113,3.854 9.637,6.219 15.719,6.219 12.703,0 23,-10.298 23,-23 0,-6.081 -2.364,-11.606 -6.219,-15.719 z"
         inkscape:connector-curvature="0" />
      <path
         id="path833"
         style="opacity:0.2"
         d="M 31.25,2.375 C 39.865,5.529 46,13.792 46,23.505 c 0,12.426 -10.07,22.5 -22.5,22.5 -9.708,0 -17.971,-6.135 -21.12,-14.75 a 23,23 0 0 0 44.875,-7 23,23 0 0 0 -16,-21.875 z"
         inkscape:connector-curvature="0" />
    </g>
    <g
       id="g839">
      <path
         id="path837"
         style="fill:url(#linearGradient3764);fill-opacity:1"
         d="M 24,1 C 36.703,1 47,11.297 47,24 47,36.703 36.703,47 24,47 11.297,47 1,36.703 1,24 1,11.297 11.297,1 24,1 Z"
         inkscape:connector-curvature="0" />
    </g>
    <g
       id="g855">
      <g
         id="g853">
        <g
           id="g851"
           transform="translate(1,1)">
          <g
             id="g849"
             style="opacity:0.1">
            <!-- color: #3d3d3d -->
            <g
               id="g847">
              <path
                 id="path841"
                 style="fill:#000000;fill-opacity:1;fill-rule:nonzero;stroke:none"
                 d="m 31.13,20.06 c 1.086,0.348 0.133,1.965 1.691,2.754 1.777,0.902 2.664,-1.379 3.73,0.25 1.066,1.629 -1.477,1.379 -1.406,3.297 0.074,1.918 2.59,1.508 1.645,3.203 -0.941,1.691 -1.988,-0.527 -3.699,0.484 -1.707,1.016 -0.074,2.887 -2.086,2.953 -2.01,0.063 -0.516,-1.906 -2.297,-2.813 -1.777,-0.902 -2.664,1.379 -3.73,-0.25 -1.066,-1.629 1.473,-1.379 1.402,-3.297 -0.07,-1.914 -2.586,-1.508 -1.645,-3.203 0.945,-1.691 1.992,0.531 3.699,-0.484 1.711,-1.012 0.078,-2.887 2.09,-2.949 0.25,-0.008 0.449,0.004 0.605,0.055 m -0.023,4.883 c -0.895,-0.184 -1.777,0.363 -1.969,1.23 -0.191,0.855 0.383,1.707 1.281,1.887 0.895,0.184 1.777,-0.363 1.969,-1.23 0.191,-0.852 -0.383,-1.707 -1.281,-1.887 m 0,0"
                 inkscape:connector-curvature="0" />
              <path
                 id="path843"
                 style="fill:#000000;fill-opacity:1;fill-rule:nonzero;stroke:none"
                 d="m 22.484,12.06 c 1.09,0.348 0.137,1.961 1.691,2.754 1.777,0.902 2.664,-1.379 3.73,0.25 1.066,1.629 -1.473,1.379 -1.402,3.297 0.07,1.914 2.586,1.508 1.645,3.203 -0.941,1.691 -1.992,-0.531 -3.699,0.484 -1.707,1.012 -0.074,2.887 -2.086,2.949 -2.02,0.066 -0.52,-1.906 -2.297,-2.809 -1.781,-0.902 -2.664,1.379 -3.73,-0.25 -1.066,-1.629 1.473,-1.379 1.402,-3.297 -0.07,-1.918 -2.586,-1.508 -1.645,-3.203 0.941,-1.691 1.992,0.527 3.699,-0.484 1.707,-1.016 0.074,-2.887 2.086,-2.953 0.254,-0.008 0.449,0.008 0.605,0.059 m -0.02,4.883 c -0.898,-0.184 -1.777,0.363 -1.977,1.23 -0.188,0.855 0.391,1.707 1.277,1.887 0.898,0.184 1.777,-0.363 1.969,-1.23 0.191,-0.852 -0.383,-1.707 -1.27,-1.887 m 0,0"
                 inkscape:connector-curvature="0" />
              <path
                 id="path845"
                 style="fill:#000000;fill-opacity:1;fill-rule:nonzero;stroke:none"
                 d="m 19.605,23.05 c 1.086,0.348 0.133,1.965 1.691,2.754 1.777,0.906 2.664,-1.379 3.73,0.254 1.066,1.629 -1.477,1.375 -1.402,3.293 0.07,1.918 2.586,1.512 1.641,3.203 -0.941,1.695 -1.988,-0.527 -3.699,0.484 -1.707,1.016 -0.074,2.891 -2.086,2.953 -2.01,0.063 -0.516,-1.906 -2.297,-2.809 -1.777,-0.906 -2.664,1.379 -3.73,-0.254 -1.066,-1.629 1.477,-1.375 1.402,-3.293 -0.07,-1.918 -2.586,-1.52 -1.641,-3.203 0.941,-1.695 1.988,0.527 3.699,-0.484 1.707,-1.016 0.074,-2.891 2.086,-2.953 0.25,-0.008 0.449,0.008 0.605,0.055 m -0.023,4.883 c -0.895,-0.184 -1.777,0.367 -1.969,1.227 -0.191,0.863 0.383,1.707 1.281,1.891 0.895,0.184 1.777,-0.367 1.969,-1.227 0.191,-0.863 -0.383,-1.707 -1.281,-1.891 m 0,0"
                 inkscape:connector-curvature="0" />
            </g>
          </g>
        </g>
      </g>
    </g>
    <g
       id="g867">
      <g
         id="g865">
        <!-- color: #3d3d3d -->
        <g
           id="g863">
          <path
             id="path857"
             style="fill:#4dde5b;fill-opacity:1;fill-rule:nonzero;stroke:none"
             d="m 31.13,20.06 c 1.086,0.348 0.133,1.965 1.691,2.754 1.777,0.902 2.664,-1.379 3.73,0.25 1.066,1.629 -1.477,1.379 -1.406,3.297 0.074,1.918 2.59,1.508 1.645,3.203 -0.941,1.691 -1.988,-0.527 -3.699,0.484 -1.707,1.016 -0.074,2.887 -2.086,2.953 -2.01,0.063 -0.516,-1.906 -2.297,-2.813 -1.777,-0.902 -2.664,1.379 -3.73,-0.25 -1.066,-1.629 1.473,-1.379 1.402,-3.297 -0.07,-1.914 -2.586,-1.508 -1.645,-3.203 0.945,-1.691 1.992,0.531 3.699,-0.484 1.711,-1.012 0.078,-2.887 2.09,-2.949 0.25,-0.008 0.449,0.004 0.605,0.055 m -0.023,4.883 c -0.895,-0.184 -1.777,0.363 -1.969,1.23 -0.191,0.855 0.383,1.707 1.281,1.887 0.895,0.184 1.777,-0.363 1.969,-1.23 0.191,-0.852 -0.383,-1.707 -1.281,-1.887 m 0,0"
             inkscape:connector-curvature="0" />
          <path
             id="path859"
             style="fill:#fb5969;fill-opacity:1;fill-rule:nonzero;stroke:none"
             d="m 22.484,12.06 c 1.09,0.348 0.137,1.961 1.691,2.754 1.777,0.902 2.664,-1.379 3.73,0.25 1.066,1.629 -1.473,1.379 -1.402,3.297 0.07,1.914 2.586,1.508 1.645,3.203 -0.941,1.691 -1.992,-0.531 -3.699,0.484 -1.707,1.012 -0.074,2.887 -2.086,2.949 -2.02,0.066 -0.52,-1.906 -2.297,-2.809 -1.781,-0.902 -2.664,1.379 -3.73,-0.25 -1.066,-1.629 1.473,-1.379 1.402,-3.297 -0.07,-1.918 -2.586,-1.508 -1.645,-3.203 0.941,-1.691 1.992,0.527 3.699,-0.484 1.707,-1.016 0.074,-2.887 2.086,-2.953 0.254,-0.008 0.449,0.008 0.605,0.059 m -0.02,4.883 c -0.898,-0.184 -1.777,0.363 -1.977,1.23 -0.188,0.855 0.391,1.707 1.277,1.887 0.898,0.184 1.777,-0.363 1.969,-1.23 0.191,-0.852 -0.383,-1.707 -1.27,-1.887 m 0,0"
             inkscape:connector-curvature="0" />
          <path
             id="path861"
             style="fill:#2cb0de;fill-opacity:1;fill-rule:nonzero;stroke:none"
             d="m 19.605,23.05 c 1.086,0.348 0.133,1.965 1.691,2.754 1.777,0.906 2.664,-1.379 3.73,0.254 1.066,1.629 -1.477,1.375 -1.402,3.293 0.07,1.918 2.586,1.512 1.641,3.203 -0.941,1.695 -1.988,-0.527 -3.699,0.484 -1.707,1.016 -0.074,2.891 -2.086,2.953 -2.01,0.063 -0.516,-1.906 -2.297,-2.809 -1.777,-0.906 -2.664,1.379 -3.73,-0.254 -1.066,-1.629 1.477,-1.375 1.402,-3.293 -0.07,-1.918 -2.586,-1.52 -1.641,-3.203 0.941,-1.695 1.988,0.527 3.699,-0.484 1.707,-1.016 0.074,-2.891 2.086,-2.953 0.25,-0.008 0.449,0.008 0.605,0.055 m -0.023,4.883 c -0.895,-0.184 -1.777,0.367 -1.969,1.227 -0.191,0.863 0.383,1.707 1.281,1.891 0.895,0.184 1.777,-0.367 1.969,-1.227 0.191,-0.863 -0.383,-1.707 -1.281,-1.891 m 0,0"
             inkscape:connector-curvature="0" />
        </g>
      </g>
    </g>
    <g
       id="g871">
      <path
         id="path869"
         style="opacity:0.1"
         d="m 40.03,7.531 c 3.712,4.084 5.969,9.514 5.969,15.469 0,12.703 -10.297,23 -23,23 C 17.045,46 11.615,43.744 7.53,40.031 11.708,44.322 17.54,47 23.999,47 c 12.703,0 23,-10.298 23,-23 0,-6.462 -2.677,-12.291 -6.969,-16.469 z"
         inkscape:connector-curvature="0" />
    </g>
  </g>
</svg>
