<?xml version="1.0" encoding="UTF-8" standalone="no"?>
<!-- Created with Inkscape (http://www.inkscape.org/) -->

<svg
   xmlns:dc="http://purl.org/dc/elements/1.1/"
   xmlns:cc="http://creativecommons.org/ns#"
   xmlns:rdf="http://www.w3.org/1999/02/22-rdf-syntax-ns#"
   xmlns:svg="http://www.w3.org/2000/svg"
   xmlns="http://www.w3.org/2000/svg"
   xmlns:sodipodi="http://sodipodi.sourceforge.net/DTD/sodipodi-0.dtd"
   xmlns:inkscape="http://www.inkscape.org/namespaces/inkscape"
   width="48"
   height="48"
   id="svg865"
   version="1.1"
   inkscape:version="0.48.5 r10040"
   sodipodi:docname="folder-steam.svg">
  <defs
     id="defs867" />
  <sodipodi:namedview
     id="base"
     pagecolor="#ffffff"
     bordercolor="#666666"
     borderopacity="1.0"
     inkscape:pageopacity="0.0"
     inkscape:pageshadow="2"
     inkscape:zoom="5.6568543"
     inkscape:cx="-35.101019"
     inkscape:cy="17.370401"
     inkscape:document-units="px"
     inkscape:current-layer="folderLayer"
     showgrid="false"
     inkscape:window-width="1280"
     inkscape:window-height="670"
     inkscape:window-x="-2"
     inkscape:window-y="-3"
     inkscape:window-maximized="1"
     borderlayer="true"
     inkscape:showpageshadow="false"
     showguides="false"
     inkscape:guide-bbox="true">
    <sodipodi:guide
       position="0,39.000017"
       orientation="30,0"
       id="guide4110" />
    <sodipodi:guide
       position="30,39.000017"
       orientation="0,-30"
       id="guide4116" />
    <sodipodi:guide
       position="30,9.0000174"
       orientation="0,18"
       id="guide4120" />
    <sodipodi:guide
       position="48,9.0000174"
       orientation="-30,0"
       id="guide4122" />
    <sodipodi:guide
       position="48,39.000017"
       orientation="0,-18"
       id="guide4124" />
    <sodipodi:guide
       position="4,41.000017"
       orientation="34,0"
       id="guide4164" />
    <sodipodi:guide
       position="22,41.000017"
       orientation="0,-18"
       id="guide4170" />
    <sodipodi:guide
       position="6,37.0002"
       orientation="27.999817,0"
       id="guide4174" />
    <sodipodi:guide
       position="6,9.0003836"
       orientation="0,35.999992"
       id="guide4176" />
    <sodipodi:guide
       position="41.999992,9.0003836"
       orientation="-27.999817,0"
       id="guide4178" />
    <sodipodi:guide
       position="41.999992,37.0002"
       orientation="0,-35.999992"
       id="guide4180" />
    <sodipodi:guide
       position="14,31.000017"
       orientation="20,0"
       id="guide4221" />
    <sodipodi:guide
       position="34,11.000017"
       orientation="-20,0"
       id="guide4225" />
    <sodipodi:guide
       position="34,31.000017"
       orientation="0,-20"
       id="guide4227" />
    <sodipodi:guide
       position="14,31.000017"
       orientation="11,0"
       id="guide4412" />
    <sodipodi:guide
       position="14,20.000017"
       orientation="6.123234e-17,1"
       id="guide4414" />
    <sodipodi:guide
       position="25,20.000017"
       orientation="-11,0"
       id="guide4416" />
    <sodipodi:guide
       position="25,31.000017"
       orientation="0,-11"
       id="guide4418" />
    <sodipodi:guide
       position="25,20.000017"
       orientation="9,0"
       id="guide4420" />
    <sodipodi:guide
       position="25,11.000017"
       orientation="0,9"
       id="guide4422" />
    <sodipodi:guide
       position="34,11.000017"
       orientation="-9,0"
       id="guide4424" />
    <sodipodi:guide
       position="34,20.000017"
       orientation="0,-9"
       id="guide4426" />
    <sodipodi:guide
       position="23.000001,35.000017"
       orientation="-1.9999999,0"
       id="guide4068" />
    <sodipodi:guide
       position="23.000001,37.000017"
       orientation="0,2"
       id="guide4070" />
    <sodipodi:guide
       position="25,37.000017"
       orientation="1.9999999,0"
       id="guide4072" />
    <sodipodi:guide
       position="25,35.000017"
       orientation="0,-2"
       id="guide4074" />
    <sodipodi:guide
       orientation="0,1"
       position="-5.0900019,45.012788"
       id="guide3049" />
    <sodipodi:guide
       orientation="0,1"
       position="14,5.0286766"
       id="guide3051" />
    <sodipodi:guide
       orientation="1,0"
       position="18.481902,18.990154"
       id="guide3071" />
  </sodipodi:namedview>
  <metadata
     id="metadata870">
    <rdf:RDF>
      <cc:Work
         rdf:about="">
        <dc:format>image/svg+xml</dc:format>
        <dc:type
           rdf:resource="http://purl.org/dc/dcmitype/StillImage" />
        <dc:title />
      </cc:Work>
    </rdf:RDF>
  </metadata>
  <g
     inkscape:groupmode="layer"
     id="folderLayer"
     inkscape:label="folder">
    <g
       id="g3057"
       transform="matrix(0.75810482,0,0,0.8389353,-21.519484,-33.697157)"
       style="fill:#8c8c8c;fill-opacity:1">
      <path
         transform="matrix(1.283852,0,0,1.095473,107.77473,40.52972)"
         d="m -24.805994,19.567579 c 0,2.522597 -2.044969,4.567566 -4.567566,4.567566 -2.522597,0 -4.567566,-2.044969 -4.567566,-4.567566 0,-2.522597 2.044969,-4.567566 4.567566,-4.567566 2.522597,0 4.567566,2.044969 4.567566,4.567566 z"
         sodipodi:ry="4.5675659"
         sodipodi:rx="4.5675659"
         sodipodi:cy="19.567579"
         sodipodi:cx="-29.37356"
         id="path3329"
         style="fill:#8c8c8c;fill-opacity:1;stroke:none"
         sodipodi:type="arc" />
      <path
         inkscape:connector-curvature="0"
         id="path3428"
         d="m 70.139087,52.633633 c -5.873456,0 -10.653285,4.259161 -10.653285,9.531247 0,5.272086 4.779829,9.562499 10.653285,9.562499 5.873452,0 10.618465,-4.290413 10.618465,-9.562499 0,-5.272086 -4.745013,-9.531247 -10.618465,-9.531247 z m 0,3.21874 c 3.898016,0 7.032553,2.813598 7.032553,6.312507 0,3.498909 -3.134537,6.343759 -7.032553,6.343759 -3.898024,0 -7.067373,-2.84485 -7.067373,-6.343759 0,-3.498909 3.169349,-6.312507 7.067373,-6.312507 z"
         style="fill:#8c8c8c;fill-opacity:1;stroke:none" />
      <path
         id="path3435"
         d="m 59.525161,62.289888 -6.754038,8.999999 2.228137,1.999984 c 1.097688,0.511972 2.000275,1.299047 2.576282,2.281252 l 2.193324,1.968767 10.096242,-6.062491 -10.339947,-9.187511 z"
         style="fill:#8c8c8c;fill-opacity:1;stroke:none"
         inkscape:connector-curvature="0" />
      <path
         transform="matrix(0.98449261,0,0,0.97652563,97.184989,45.690193)"
         d="m -40.25,33.375 c 0,2.485281 -2.014719,4.5 -4.5,4.5 -2.485281,0 -4.5,-2.014719 -4.5,-4.5 0,-2.485281 2.014719,-4.5 4.5,-4.5 2.485281,0 4.5,2.014719 4.5,4.5 z"
         sodipodi:ry="4.5"
         sodipodi:rx="4.5"
         sodipodi:cy="33.375"
         sodipodi:cx="-44.75"
         id="path4205"
         style="fill:#8c8c8c;fill-opacity:1;stroke:none"
         sodipodi:type="arc" />
      <path
         inkscape:connector-curvature="0"
         id="path4207"
         d="m 52.21409,71.289922 c -4.1916,0 -7.589589,3.050043 -7.589589,6.812503 0,3.762425 3.397989,6.812468 7.589589,6.812468 4.191608,0 7.589589,-3.050043 7.589589,-6.812468 0,-3.76246 -3.397981,-6.812503 -7.589589,-6.812503 z m 0,1.37498 c 3.345601,0 6.057747,2.434465 6.057747,5.437523 0,3.003024 -2.712146,5.437488 -6.057747,5.437488 -3.3456,0 -6.057746,-2.434464 -6.057746,-5.437488 0,-3.003058 2.712146,-5.437523 6.057746,-5.437523 z"
         style="fill:#8c8c8c;fill-opacity:1;stroke:none" />
      <path
         sodipodi:nodetypes="cccccccc"
         id="rect3263-1"
         d="m 39.33005,67.660159 0,8.437499 12.523969,5.875015 c 0.05719,0.0248 0.12313,-0.0013 0.145949,-0.06236 l 2.656311,-7.062519 c 0.02268,-0.0613 -0.03012,-0.131811 -0.08759,-0.15626 L 39.330021,67.660265 z"
         style="fill:#8c8c8c;fill-opacity:1;stroke:none"
         inkscape:connector-curvature="0" />
    </g>
  </g>
</svg>
