<?xml version="1.0" encoding="UTF-8" standalone="no"?>
<!-- Created with Inkscape (http://www.inkscape.org/) -->

<svg
   xmlns:dc="http://purl.org/dc/elements/1.1/"
   xmlns:cc="http://creativecommons.org/ns#"
   xmlns:rdf="http://www.w3.org/1999/02/22-rdf-syntax-ns#"
   xmlns:svg="http://www.w3.org/2000/svg"
   xmlns="http://www.w3.org/2000/svg"
   xmlns:sodipodi="http://sodipodi.sourceforge.net/DTD/sodipodi-0.dtd"
   xmlns:inkscape="http://www.inkscape.org/namespaces/inkscape"
   id="svg2"
   version="1.1"
   inkscape:version="0.91+devel r"
   width="512"
   height="512"
   sodipodi:docname="preferences-desktop-wallpaper.svg"
   viewBox="0 0 512 512">
  <metadata
     id="metadata8">
    <rdf:RDF>
      <cc:Work
         rdf:about="">
        <dc:format>image/svg+xml</dc:format>
        <dc:type
           rdf:resource="http://purl.org/dc/dcmitype/StillImage" />
        <dc:title />
      </cc:Work>
    </rdf:RDF>
  </metadata>
  <defs
     id="defs6" />
  <sodipodi:namedview
     pagecolor="#ffffff"
     bordercolor="#666666"
     borderopacity="1"
     objecttolerance="10"
     gridtolerance="10"
     guidetolerance="10"
     inkscape:pageopacity="0"
     inkscape:pageshadow="2"
     inkscape:window-width="959"
     inkscape:window-height="1024"
     id="namedview4"
     showgrid="false"
     inkscape:zoom="0.7734375"
     inkscape:cx="167.88077"
     inkscape:cy="310.62332"
     inkscape:window-x="960"
     inkscape:window-y="29"
     inkscape:window-maximized="0"
     inkscape:current-layer="svg2" />
  <rect
     style="opacity:1;fill:#666666;fill-opacity:1;stroke:none;stroke-width:5.65747643;stroke-linecap:round;stroke-miterlimit:4;stroke-dasharray:22.62990507, 22.62990507;stroke-dashoffset:42;stroke-opacity:1"
     id="rect4147"
     width="90.201813"
     height="75.575264"
     x="210.89909"
     y="360.22867"
     ry="0" />
  <path
     style="opacity:1;fill:#c3c3c3;fill-opacity:1;stroke:none;stroke-width:5.63691807;stroke-linecap:round;stroke-miterlimit:4;stroke-dasharray:22.54767334, 22.54767334;stroke-dashoffset:42;stroke-opacity:1"
     d="m 210.76695,360.78606 90.46609,0 0,74.80784 z"
     id="rect4147-1"
     inkscape:connector-curvature="0"
     sodipodi:nodetypes="cccc" />
  <rect
     style="opacity:1;fill:#000000;fill-opacity:1;stroke:none;stroke-width:5.69896841;stroke-linecap:round;stroke-miterlimit:4;stroke-dasharray:22.79587335, 22.79587335000000081;stroke-dashoffset:42;stroke-opacity:1"
     id="rect4143"
     width="470"
     height="297.64453"
     x="21"
     y="63.300007" />
  <rect
     style="opacity:1;fill:#000000;fill-opacity:1;stroke:none;stroke-width:5.65747643;stroke-linecap:round;stroke-miterlimit:4;stroke-dasharray:22.62990507, 22.62990506999999951;stroke-dashoffset:42;stroke-opacity:1"
     id="rect4145"
     width="168.66437"
     height="13.045905"
     x="171.66783"
     y="435.65408" />
  <path
     style="fill:#ffc926;fill-opacity:1;fill-rule:evenodd;stroke:none;stroke-width:0.9429127px;stroke-linecap:butt;stroke-linejoin:miter;stroke-opacity:1"
     d="M 40.929421,90.659971 257.8063,200.70093 467.88456,90.258011 Z"
     id="path4169"
     inkscape:connector-curvature="0"
     sodipodi:nodetypes="cccc" />
  <rect
     style="opacity:1;fill:#3ecdf6;fill-opacity:1;stroke:none;stroke-width:7.25654125;stroke-opacity:1"
     id="rect4157"
     width="425.10971"
     height="239.80797"
     x="41.732628"
     y="90.345116"
     ry="1.1366407e-05" />
  <path
     inkscape:connector-curvature="0"
     style="fill:#172f55;fill-opacity:1;fill-rule:evenodd;stroke:none;stroke-width:6.35904551px;stroke-linecap:butt;stroke-linejoin:miter;stroke-opacity:1"
     d="m 404.10259,156.95521 -268.61521,174.02478 331.8188,0 0,-133.07777 -63.20359,-40.94701 z"
     id="path4202" />
  <path
     inkscape:connector-curvature="0"
     style="fill:#1c3867;fill-opacity:1;fill-rule:evenodd;stroke:none;stroke-width:7.01655054px;stroke-linecap:butt;stroke-linejoin:miter;stroke-opacity:1"
     d="m 157.2345,229.35652 -116.027205,61.10122 0,40.73415 309.405895,0 L 157.2345,229.35652 Z"
     id="path4197" />
  <path
     inkscape:connector-curvature="0"
     style="fill:#f1f2f4;fill-opacity:1;fill-rule:evenodd;stroke:none;stroke-width:7.01655054px;stroke-linecap:butt;stroke-linejoin:miter;stroke-opacity:1"
     d="m 157.2345,228.6923 -45.11543,23.7583 25.77756,-3.39123 19.33787,-5.09176 9.66893,10.18353 9.66894,-5.09177 19.33786,0 -38.67573,-20.36707 z"
     id="path4231" />
  <path
     inkscape:connector-curvature="0"
     style="fill:#f1f2f4;fill-opacity:1;fill-rule:evenodd;stroke:none;stroke-width:6.35904551px;stroke-linecap:butt;stroke-linejoin:miter;stroke-opacity:1"
     d="m 404.10259,156.95521 -60.04031,38.89766 28.43852,-8.1874 31.60179,15.35512 7.90045,-10.23675 39.50225,25.59188 -15.8009,-25.59188 15.8009,0 0,-5.11837 -47.4027,-30.71026 z"
     id="path4236" />
  <path
     style="opacity:1;fill:#baebfc;fill-opacity:1;stroke:none;stroke-width:6.01778221;stroke-opacity:1"
     d="m 123.7328,116.67592 c -6.12349,0 -11.94712,1.89872 -15.98958,5.19055 -4.46845,0.39716 -8.410211,2.28621 -10.627294,5.09177 -0.607421,-0.0611 -1.220104,-0.0967 -1.833713,-0.0967 -7.856419,0 -14.225299,4.55867 -14.225299,10.18253 0.0061,0.44298 0.04979,0.88443 0.138697,1.32284 -4.472932,1.80095 -7.24402,5.18698 -7.25156,8.86018 0,5.62437 6.36888,10.18304 14.2253,10.18304 l 64.013839,0 c 11.7846,0 21.33796,-6.83825 21.33796,-15.27429 0,-8.43604 -9.55336,-15.2743 -21.33796,-15.2743 -0.62164,0.004 -1.24272,0.051 -1.86152,0.0713 -2.22064,-2.79538 -6.15536,-4.67578 -10.61343,-5.07191 -4.04177,-3.28623 -9.85919,-5.17274 -15.97565,-5.18088 z"
     id="rect4249"
     inkscape:connector-curvature="0"
     sodipodi:nodetypes="cccccccssscccc" />
</svg>
