<?xml version="1.0" encoding="UTF-8" standalone="no"?>
<!-- Created with Inkscape (http://www.inkscape.org/) -->

<svg
   xmlns:dc="http://purl.org/dc/elements/1.1/"
   xmlns:cc="http://creativecommons.org/ns#"
   xmlns:rdf="http://www.w3.org/1999/02/22-rdf-syntax-ns#"
   xmlns:svg="http://www.w3.org/2000/svg"
   xmlns="http://www.w3.org/2000/svg"
   xmlns:sodipodi="http://sodipodi.sourceforge.net/DTD/sodipodi-0.dtd"
   xmlns:inkscape="http://www.inkscape.org/namespaces/inkscape"
   id="svg7384"
   height="48"
   width="48"
   version="1.1"
   inkscape:version="0.48.5 r10040"
   sodipodi:docname="edit-image-face-detect.svg"
   inkscape:export-filename="/home/uri/Descargas/NITRUX-KDE/NITRUX-KDE/16x16/actions/view-preview.png"
   inkscape:export-xdpi="30"
   inkscape:export-ydpi="30">
  <defs
     id="defs9" />
  <sodipodi:namedview
     pagecolor="#ffffff"
     bordercolor="#666666"
     borderopacity="1"
     objecttolerance="10"
     gridtolerance="10"
     guidetolerance="10"
     inkscape:pageopacity="0"
     inkscape:pageshadow="2"
     inkscape:window-width="1280"
     inkscape:window-height="670"
     id="namedview7"
     showgrid="false"
     inkscape:zoom="9.1700638"
     inkscape:cx="23.045219"
     inkscape:cy="33.586111"
     inkscape:window-x="-2"
     inkscape:window-y="-3"
     inkscape:window-maximized="1"
     inkscape:current-layer="svg7384"
     showguides="true" />
  <metadata
     id="metadata90">
    <rdf:RDF>
      <cc:Work
         rdf:about="">
        <dc:format>image/svg+xml</dc:format>
        <dc:type
           rdf:resource="http://purl.org/dc/dcmitype/StillImage" />
        <dc:title>Gnome Symbolic Icon Theme</dc:title>
      </cc:Work>
    </rdf:RDF>
  </metadata>
  <title
     id="title9167">Gnome Symbolic Icon Theme</title>
  <path
     style="fill:#8c8c8c;stroke:none;fill-opacity:1"
     d="m 9,9 0,30 30,0 0,-7 0,-23 z m 2,2 26,0 0,21 -9.039606,0.02889 -2.107531,-9.90709 -3.766982,0.06946 -1.501127,9.728578 -2.476195,0.0021 L 12.5,32 11,32 z m 13.021224,2.795013 c -1.866281,0 -3.369141,1.502859 -3.369141,3.36914 0,1.866281 1.50286,3.369141 3.369141,3.369141 1.866281,0 3.36914,-1.50286 3.36914,-3.369141 0,-1.866281 -1.502859,-3.36914 -3.36914,-3.36914 z"
     id="rect2983"
     inkscape:connector-curvature="0"
     sodipodi:nodetypes="cccccccccccccccccsssss" />
  <g
     id="g8133">
    <rect
       y="12.396487"
       x="17.492437"
       height="3.3505027"
       width="1.2708803"
       id="rect3755"
       style="fill:#8c8c8c;fill-opacity:1;fill-rule:evenodd;stroke:none" />
    <rect
       transform="matrix(-0.00274031,0.99999625,-0.99999625,-0.00274031,0,0)"
       style="fill:#8c8c8c;fill-opacity:1;fill-rule:evenodd;stroke:none"
       id="rect3757"
       width="1.2708803"
       height="3.3505027"
       x="12.343912"
       y="-20.878578" />
  </g>
  <g
     id="g8145">
    <rect
       transform="scale(1,-1)"
       style="fill:#8c8c8c;fill-opacity:1;fill-rule:evenodd;stroke:none"
       id="rect3765"
       width="1.2708803"
       height="3.3505027"
       x="17.492437"
       y="-21.742401" />
    <rect
       y="-20.785028"
       x="-21.794847"
       height="3.3505027"
       width="1.2708803"
       id="rect3767"
       style="fill:#8c8c8c;fill-opacity:1;fill-rule:evenodd;stroke:none"
       transform="matrix(-0.00274031,-0.99999625,-0.99999625,0.00274031,0,0)" />
  </g>
  <g
     id="g8139">
    <rect
       transform="scale(-1,1)"
       style="fill:#8c8c8c;fill-opacity:1;fill-rule:evenodd;stroke:none"
       id="rect3771"
       width="1.2708803"
       height="3.3505027"
       x="-30.842939"
       y="12.396487" />
    <rect
       y="27.456615"
       x="12.476366"
       height="3.3505027"
       width="1.2708803"
       id="rect3773"
       style="fill:#8c8c8c;fill-opacity:1;fill-rule:evenodd;stroke:none"
       transform="matrix(0.00274031,0.99999625,0.99999625,-0.00274031,0,0)" />
  </g>
  <g
     id="g8151">
    <rect
       transform="scale(-1,-1)"
       y="-21.742401"
       x="-30.842939"
       height="3.3505027"
       width="1.2708803"
       id="rect3777"
       style="fill:#8c8c8c;fill-opacity:1;fill-rule:evenodd;stroke:none" />
    <rect
       transform="matrix(0.00274031,-0.99999625,0.99999625,0.00274031,0,0)"
       style="fill:#8c8c8c;fill-opacity:1;fill-rule:evenodd;stroke:none"
       id="rect3779"
       width="1.2708803"
       height="3.3505027"
       x="-21.662394"
       y="27.550167" />
  </g>
  <rect
     style="fill:#8c8c8c;fill-opacity:1;fill-rule:evenodd;stroke:none"
     id="rect3781"
     width="2.9153929"
     height="8.3684521"
     x="28.077614"
     y="-36.456398"
     transform="matrix(0.60784088,0.79405886,-0.80041112,0.59945145,0,0)" />
  <path
     sodipodi:type="star"
     style="fill:#8c8c8c;fill-opacity:1;fill-rule:evenodd;stroke:none"
     id="path3804"
     sodipodi:sides="3"
     sodipodi:cx="31.406544"
     sodipodi:cy="-12.959227"
     sodipodi:r1="4.0583782"
     sodipodi:r2="2.0291891"
     sodipodi:arg1="0.53581124"
     sodipodi:arg2="1.5830088"
     inkscape:flatsided="false"
     inkscape:rounded="0"
     inkscape:randomized="0"
     d="m 34.896159,-10.887267 -3.514396,-0.04292 -3.514397,-0.04292 1.79437,-3.022096 1.794369,-3.022096 1.720027,3.065017 z"
     inkscape:transform-center-x="-0.24769213"
     inkscape:transform-center-y="-0.79249931"
     transform="matrix(0.99095744,-0.13417654,0.13417654,0.99095744,11.619262,23.289724)" />
</svg>
