<?xml version="1.0" encoding="UTF-8" standalone="no"?>
<!-- Created using Karbon, part of Calligra: http://www.calligra.org/karbon -->

<svg
   xmlns:dc="http://purl.org/dc/elements/1.1/"
   xmlns:cc="http://creativecommons.org/ns#"
   xmlns:rdf="http://www.w3.org/1999/02/22-rdf-syntax-ns#"
   xmlns:svg="http://www.w3.org/2000/svg"
   xmlns="http://www.w3.org/2000/svg"
   xmlns:sodipodi="http://sodipodi.sourceforge.net/DTD/sodipodi-0.dtd"
   xmlns:inkscape="http://www.inkscape.org/namespaces/inkscape"
   width="38.4pt"
   height="38.4pt"
   id="svg2"
   version="1.1"
   inkscape:version="0.48.4 r9939"
   sodipodi:docname="im-ban-user.svg">
  <metadata
     id="metadata13">
    <rdf:RDF>
      <cc:Work
         rdf:about="">
        <dc:format>image/svg+xml</dc:format>
        <dc:type
           rdf:resource="http://purl.org/dc/dcmitype/StillImage" />
        <dc:title></dc:title>
      </cc:Work>
    </rdf:RDF>
  </metadata>
  <sodipodi:namedview
     pagecolor="#ffffff"
     bordercolor="#666666"
     borderopacity="1"
     objecttolerance="10"
     gridtolerance="10"
     guidetolerance="10"
     inkscape:pageopacity="0"
     inkscape:pageshadow="2"
     inkscape:window-width="713"
     inkscape:window-height="480"
     id="namedview11"
     showgrid="false"
     inkscape:zoom="11.721514"
     inkscape:cx="23.147994"
     inkscape:cy="19.010247"
     inkscape:window-x="0"
     inkscape:window-y="0"
     inkscape:window-maximized="0"
     inkscape:current-layer="svg2">
    <sodipodi:guide
       position="9.5367432e-07,48.000001"
       orientation="47.999999,0"
       id="guide4071" />
    <sodipodi:guide
       position="9.5367432e-07,1.9073486e-06"
       orientation="0,47.999999"
       id="guide4073" />
    <sodipodi:guide
       position="48,1.9073486e-06"
       orientation="-47.999999,0"
       id="guide4075" />
    <sodipodi:guide
       position="48,48.000001"
       orientation="0,-47.999999"
       id="guide4077" />
    <sodipodi:guide
       position="9.000001,39.000001"
       orientation="29.999999,0"
       id="guide4079" />
    <sodipodi:guide
       position="9.000001,9.0000019"
       orientation="0,29.999999"
       id="guide4081" />
    <sodipodi:guide
       position="39,9.0000019"
       orientation="-29.999999,0"
       id="guide4083" />
    <sodipodi:guide
       position="39,39.000001"
       orientation="0,-29.999999"
       id="guide4085" />
  </sodipodi:namedview>
  <defs
     id="defs4" />
  <g
     transform="matrix(0.35811967,0,0,0.35811967,6.8685803,6.8372445)"
     id="layer1">
    <rect
       width="84"
       height="84"
       rx="6"
       ry="0"
       x="6"
       y="6"
       id="rect2419"
       style="fill:#3e64a6;fill-opacity:1;fill-rule:nonzero;stroke:none" />
    <path
       d="m 62.125,16.0625 c -6.285379,0 -10.947088,1.650914 -13.9375,4.90625 -2.987294,3.251942 -4.125,7.828644 -4.125,13.15625 l 0,4.9375 -6.03125,0 -0.03125,0 c -0.0386,0.0014 -0.191145,0.03156 -0.1875,0.03125 0.0042,-3.57e-4 -0.191682,7.79e-4 -0.1875,0 0.0042,-7.79e-4 -0.191583,0.06369 -0.1875,0.0625 0.0041,-0.0012 -0.160193,0.0641 -0.15625,0.0625 0.0039,-0.0016 -0.191264,0.06448 -0.1875,0.0625 0.0038,-0.002 -0.159796,0.127349 -0.15625,0.125 0.0035,-0.0023 -0.159544,0.09644 -0.15625,0.09375 0.0033,-0.0027 -0.159258,0.128008 -0.15625,0.125 0.003,-0.003 -0.127692,0.159544 -0.125,0.15625 0.0027,-0.0033 -0.0961,0.159796 -0.09375,0.15625 0.0023,-0.0035 -0.126982,0.160014 -0.125,0.15625 0.002,-0.0038 -0.0641,0.191443 -0.0625,0.1875 0.0016,-0.0039 -0.06369,0.160333 -0.0625,0.15625 0.0012,-0.0041 -0.06328,0.191682 -0.0625,0.1875 7.79e-4,-0.0042 -3.57e-4,0.191739 0,0.1875 3.07e-4,-0.0036 -0.02981,0.1489 -0.03125,0.1875 -2.35e-4,0.0063 1e-5,0.03184 0,0.03125 l 0,12.9375 0,0.03125 c 0.0014,0.0386 0.03156,0.191145 0.03125,0.1875 -3.57e-4,-0.0042 7.79e-4,0.191682 0,0.1875 -7.79e-4,-0.0042 0.06369,0.191583 0.0625,0.1875 -0.0012,-0.0041 0.0641,0.160193 0.0625,0.15625 -0.0016,-0.0039 0.06448,0.191264 0.0625,0.1875 -0.002,-0.0038 0.127349,0.159796 0.125,0.15625 -0.0023,-0.0035 0.09644,0.159544 0.09375,0.15625 -0.0027,-0.0033 0.128008,0.159258 0.125,0.15625 -0.003,-0.003 0.159544,0.127692 0.15625,0.125 -0.0033,-0.0027 0.159796,0.0961 0.15625,0.09375 -0.0035,-0.0023 0.160014,0.126982 0.15625,0.125 -0.0038,-0.002 0.191443,0.0641 0.1875,0.0625 -0.0039,-0.0016 0.160333,0.06369 0.15625,0.0625 -0.0041,-0.0012 0.191682,0.06328 0.1875,0.0625 -0.0042,-7.79e-4 0.191739,3.57e-4 0.1875,0 -0.0036,-3.07e-4 0.1489,0.02981 0.1875,0.03125 0.0063,2.35e-4 0.03184,-1e-5 0.03125,0 l 6.03125,0 0,34.03125 0,0.03125 18.75,0 c 2.35e-4,-0.0063 -1e-5,-0.03185 0,-0.03125 l 0,-34.03125 8,0 c -0.0039,5.8e-5 0.19137,-0.03166 0.1875,-0.03125 -0.0039,4.14e-4 0.191315,-0.03202 0.1875,-0.03125 -0.0038,7.67e-4 0.159979,-0.03236 0.15625,-0.03125 -0.0037,0.0011 0.159862,-0.06395 0.15625,-0.0625 -0.0036,0.0014 0.159714,-0.06427 0.15625,-0.0625 -0.0035,0.0018 0.159537,-0.09583 0.15625,-0.09375 -0.0033,0.0021 0.159332,-0.09613 0.15625,-0.09375 -0.0031,0.0024 0.127852,-0.127648 0.125,-0.125 -0.0029,0.0026 0.127597,-0.127898 0.125,-0.125 -0.0026,0.0029 0.127321,-0.128124 0.125,-0.125 -0.0023,0.0031 0.09578,-0.159573 0.09375,-0.15625 -0.002,0.0033 0.06421,-0.159744 0.0625,-0.15625 -0.0017,0.0035 0.09514,-0.159887 0.09375,-0.15625 -0.0014,0.0036 0.0323,-0.159998 0.03125,-0.15625 -0.001,0.0037 0.0632,-0.191328 0.0625,-0.1875 -6.99e-4,0.0038 3.46e-4,-0.160126 0,-0.15625 L 74,41.21875 74,41.1875 c 0.0028,-0.02978 0.03136,-0.06406 0.03125,-0.0625 -1.54e-4,0.0022 3.7e-5,-0.09598 0,-0.09375 -3.7e-5,0.0022 -8e-5,-0.127228 0,-0.125 8e-5,0.0022 -1.97e-4,-0.09597 0,-0.09375 1.97e-4,0.0022 -0.03156,-0.09596 -0.03125,-0.09375 3.14e-4,0.0022 -4.29e-4,-0.09594 0,-0.09375 4.29e-4,0.0022 -0.03179,-0.09591 -0.03125,-0.09375 5.43e-4,0.0022 -0.03191,-0.09588 -0.03125,-0.09375 6.56e-4,0.0021 -0.03202,-0.09584 -0.03125,-0.09375 7.67e-4,0.0021 -0.03213,-0.0958 -0.03125,-0.09375 8.76e-4,0.0021 -0.03223,-0.09575 -0.03125,-0.09375 9.82e-4,0.002 -0.06359,-0.0957 -0.0625,-0.09375 0.0011,0.0019 -0.06369,-0.09564 -0.0625,-0.09375 0.0012,0.0019 -0.03253,-0.09557 -0.03125,-0.09375 0.0013,0.0018 -0.06388,-0.06425 -0.0625,-0.0625 0.0014,0.0018 -0.06397,-0.09543 -0.0625,-0.09375 0.0015,0.0017 -0.06405,-0.0641 -0.0625,-0.0625 0.0016,0.0016 -0.09539,-0.06401 -0.09375,-0.0625 0.0016,0.0015 -0.06421,-0.06393 -0.0625,-0.0625 0.0017,0.0014 -0.09554,-0.06383 -0.09375,-0.0625 0.0018,0.0013 -0.06435,-0.06374 -0.0625,-0.0625 0.0019,0.0012 -0.09567,-0.06364 -0.09375,-0.0625 0.0019,0.0011 -0.09572,-0.06354 -0.09375,-0.0625 0.002,10e-4 -0.09578,-0.03218 -0.09375,-0.03125 0.002,9.33e-4 -0.09582,-0.03208 -0.09375,-0.03125 0.0021,8.26e-4 -0.09586,-0.03197 -0.09375,-0.03125 0.0021,7.16e-4 -0.0959,-0.03185 -0.09375,-0.03125 0.0021,6.04e-4 -0.09592,-0.03174 -0.09375,-0.03125 0.0022,4.9e-4 -0.09595,-0.03162 -0.09375,-0.03125 0.0022,3.75e-4 -0.09597,-2.59e-4 -0.09375,0 0.0022,2.59e-4 -0.09597,-1.43e-4 -0.09375,0 0.0022,1.43e-4 -0.12723,-0.03128 -0.125,-0.03125 l -9.3125,0 0.03125,-3.6875 c 0,-1.539638 0.24274,-2.441919 0.3125,-2.53125 0.06174,-0.07906 0.159677,-0.194177 0.5625,-0.3125 0.402823,-0.118323 1.078403,-0.1875 2.125,-0.1875 l 6.15625,0 c -5.95e-4,-1e-5 0.02497,2.35e-4 0.03125,0 0.0386,-0.0014 0.191145,-0.03156 0.1875,-0.03125 -0.0042,3.57e-4 0.191682,-7.79e-4 0.1875,0 -0.0042,7.79e-4 0.191583,-0.06369 0.1875,-0.0625 -0.0041,0.0012 0.160193,-0.0641 0.15625,-0.0625 -0.0039,0.0016 0.191264,-0.06448 0.1875,-0.0625 -0.0038,0.002 0.159796,-0.127349 0.15625,-0.125 -0.0035,0.0023 0.159544,-0.09644 0.15625,-0.09375 -0.0033,0.0027 0.159258,-0.128008 0.15625,-0.125 -0.003,0.003 0.127692,-0.159544 0.125,-0.15625 -0.0027,0.0033 0.0961,-0.159796 0.09375,-0.15625 -0.0023,0.0035 0.126982,-0.160014 0.125,-0.15625 -0.002,0.0038 0.0641,-0.191443 0.0625,-0.1875 -0.0016,0.0039 0.06369,-0.160333 0.0625,-0.15625 -0.0012,0.0041 0.06328,-0.191682 0.0625,-0.1875 -7.79e-4,0.0042 3.57e-4,-0.191739 0,-0.1875 -3.07e-4,0.0036 0.02981,-0.1489 0.03125,-0.1875 2.35e-4,-0.0063 -1e-5,-0.03185 0,-0.03125 l 0,-12.34375 c -1e-5,5.95e-4 2.35e-4,-0.02497 0,-0.03125 -0.0014,-0.0386 -0.03156,-0.191145 -0.03125,-0.1875 3.57e-4,0.0042 -7.79e-4,-0.191682 0,-0.1875 7.79e-4,0.0042 -0.06369,-0.191583 -0.0625,-0.1875 0.0012,0.0041 -0.0641,-0.160193 -0.0625,-0.15625 0.0016,0.0039 -0.06448,-0.191264 -0.0625,-0.1875 0.002,0.0038 -0.127349,-0.159796 -0.125,-0.15625 0.0023,0.0035 -0.09644,-0.159544 -0.09375,-0.15625 0.0027,0.0033 -0.128008,-0.159258 -0.125,-0.15625 0.003,0.003 -0.159544,-0.127692 -0.15625,-0.125 0.0033,0.0027 -0.159796,-0.0961 -0.15625,-0.09375 0.0035,0.0023 -0.160014,-0.126982 -0.15625,-0.125 0.0038,0.002 -0.191443,-0.0641 -0.1875,-0.0625 0.0039,0.0016 -0.160333,-0.06369 -0.15625,-0.0625 0.0041,0.0012 -0.191682,-0.06328 -0.1875,-0.0625 0.0042,7.79e-4 -0.191739,-3.57e-4 -0.1875,0 0.0036,3.07e-4 -0.1489,-0.02981 -0.1875,-0.03125 l -0.03125,0 -9.875,0 z"
       inkscape:connector-curvature="0"
       id="path3863"
       style="opacity:0.15;fill:#2c4775;fill-opacity:0.97647059" />
    <path
       d="m 62.125,17.09375 c -6.11094,0 -10.437373,1.568736 -13.1875,4.5625 -2.750127,2.993764 -3.84375,7.284489 -3.84375,12.46875 l 0,5.96875 -7.09375,0 A 0.8919204,0.8919204 0 0 0 37.09375,41 l 0,13 A 0.8919204,0.8919204 0 0 0 38,54.90625 l 7.09375,0 0,35.09375 16.6875,0 0,-35.09375 9.03125,0 a 0.8919204,0.8919204 0 0 0 0.875,-0.8125 l 1.3125,-13 a 0.8919204,0.8919204 0 0 0 -0.875,-1 l -10.34375,0 0.03125,-4.71875 c 0,-1.591024 0.120315,-2.630026 0.53125,-3.15625 0.410935,-0.526224 1.289959,-0.90625 3.5,-0.90625 l 6.1875,0 A 0.8919204,0.8919204 0 0 0 72.9375,30.40625 L 72.9375,18 a 0.8919204,0.8919204 0 0 0 -0.90625,-0.90625 l -9.90625,0 z"
       inkscape:connector-curvature="0"
       id="path3859"
       style="opacity:0.4;fill:#2c4775;fill-opacity:0.97647059" />
    <path
       d="M 60.874072,90 46,90 l 0,-36.00414 -8,0 L 38,41 l 8,0 0,-6.859772 C 46,24.018564 50.195296,18 62.1178,18 l 9.926568,0 0,12.409056 -6.204516,0 c -4.641972,0 -4.947504,1.73358 -4.947504,4.96992 L 60.874348,41 l 11.240028,0 -1.315128,12.99586 -9.925176,0 0,36.00414 z"
       inkscape:connector-curvature="0"
       id="path3835"
       style="fill:#ffffff" />
  </g>
</svg>
