<?xml version="1.0" encoding="UTF-8" standalone="no"?>
<!-- Created using Karbon, part of Calligra: http://www.calligra.org/karbon -->

<svg
   xmlns:dc="http://purl.org/dc/elements/1.1/"
   xmlns:cc="http://creativecommons.org/ns#"
   xmlns:rdf="http://www.w3.org/1999/02/22-rdf-syntax-ns#"
   xmlns:svg="http://www.w3.org/2000/svg"
   xmlns="http://www.w3.org/2000/svg"
   xmlns:sodipodi="http://sodipodi.sourceforge.net/DTD/sodipodi-0.dtd"
   xmlns:inkscape="http://www.inkscape.org/namespaces/inkscape"
   width="38.4pt"
   height="38.4pt"
   id="svg2"
   version="1.1"
   inkscape:version="0.48.4 r9939"
   sodipodi:docname="im-facebook.svg">
  <metadata
     id="metadata13">
    <rdf:RDF>
      <cc:Work
         rdf:about="">
        <dc:format>image/svg+xml</dc:format>
        <dc:type
           rdf:resource="http://purl.org/dc/dcmitype/StillImage" />
        <dc:title></dc:title>
      </cc:Work>
    </rdf:RDF>
  </metadata>
  <sodipodi:namedview
     pagecolor="#ffffff"
     bordercolor="#666666"
     borderopacity="1"
     objecttolerance="10"
     gridtolerance="10"
     guidetolerance="10"
     inkscape:pageopacity="0"
     inkscape:pageshadow="2"
     inkscape:window-width="713"
     inkscape:window-height="480"
     id="namedview11"
     showgrid="false"
     inkscape:zoom="11.721514"
     inkscape:cx="23.147994"
     inkscape:cy="19.010247"
     inkscape:window-x="0"
     inkscape:window-y="0"
     inkscape:window-maximized="0"
     inkscape:current-layer="svg2">
    <sodipodi:guide
       position="9.5367432e-07,48.000001"
       orientation="47.999999,0"
       id="guide4071" />
    <sodipodi:guide
       position="9.5367432e-07,1.9073486e-06"
       orientation="0,47.999999"
       id="guide4073" />
    <sodipodi:guide
       position="48,1.9073486e-06"
       orientation="-47.999999,0"
       id="guide4075" />
    <sodipodi:guide
       position="48,48.000001"
       orientation="0,-47.999999"
       id="guide4077" />
    <sodipodi:guide
       position="8.9578869,21.754868"
       orientation="29.999999,0"
       id="guide4079" />
    <sodipodi:guide
       position="9.000001,9.0000019"
       orientation="0,29.999999"
       id="guide4081" />
    <sodipodi:guide
       position="39,9.0000019"
       orientation="-29.999999,0"
       id="guide4083" />
    <sodipodi:guide
       position="39,39.000001"
       orientation="0,-29.999999"
       id="guide4085" />
  </sodipodi:namedview>
  <defs
     id="defs4" />
  <rect
     style="fill:#ffdd55;fill-opacity:1;fill-rule:nonzero;stroke:none"
     id="rect2419"
     y="8.9859629"
     x="9.0172987"
     ry="0"
     rx="2.1487181"
     height="30.082052"
     width="30.082052" />
  <path
     style="color:#000000;fill:#ff6600;fill-opacity:1;fill-rule:nonzero;stroke:none;stroke-width:0.89999998;marker:none;visibility:visible;display:inline;overflow:visible;enable-background:accumulate"
     d="M 24 10.34375 C 16.461251 10.34375 10.34375 16.461251 10.34375 24 C 10.34375 31.538749 16.461251 37.65625 24 37.65625 C 31.538749 37.65625 37.65625 31.538749 37.65625 24 C 37.65625 16.461251 31.538749 10.34375 24 10.34375 z M 24 12.3125 C 30.455054 12.3125 35.6875 17.544946 35.6875 24 C 35.6875 30.455054 30.455054 35.6875 24 35.6875 C 17.544946 35.6875 12.3125 30.455054 12.3125 24 C 12.3125 17.544946 17.544946 12.3125 24 12.3125 z "
     id="path3904" />
  <rect
     style="color:#000000;fill:#ff6600;fill-opacity:1;fill-rule:nonzero;stroke:none;stroke-width:0.89999998;marker:none;visibility:visible;display:inline;overflow:visible;enable-background:accumulate"
     id="rect3909"
     width="2.9006491"
     height="2.3466549"
     x="22.522688"
     y="36.653343"
     rx="0" />
  <rect
     rx="0"
     y="47.021721"
     x="3.8572133"
     height="2.3466549"
     width="2.9006491"
     id="rect3911"
     style="color:#000000;fill:#ff6600;fill-opacity:1;fill-rule:nonzero;stroke:none;stroke-width:0.89999998;marker:none;visibility:visible;display:inline;overflow:visible;enable-background:accumulate"
     transform="matrix(0.78572195,-0.61857984,0.61857984,0.78572195,0,0)" />
  <rect
     transform="matrix(0.00396139,-0.99999215,0.99999215,0.00396139,0,0)"
     style="color:#000000;fill:#ff6600;fill-opacity:1;fill-rule:nonzero;stroke:none;stroke-width:0.89999998;marker:none;visibility:visible;display:inline;overflow:visible;enable-background:accumulate"
     id="rect3913"
     width="2.9006491"
     height="2.3466549"
     x="-25.982723"
     y="36.782085"
     rx="0"
     inkscape:transform-center-y="1.5370827"
     inkscape:transform-center-x="0.13452367" />
  <g
     id="g3949">
    <rect
       transform="scale(1,-1)"
       style="color:#000000;fill:#ff6600;fill-opacity:1;fill-rule:nonzero;stroke:none;stroke-width:0.89999998;marker:none;visibility:visible;display:inline;overflow:visible;enable-background:accumulate"
       id="rect3922"
       width="2.9006491"
       height="2.3466549"
       x="22.522688"
       y="-11.412263"
       rx="0" />
    <rect
       rx="0"
       y="9.2555189"
       x="33.589626"
       height="2.3466549"
       width="2.9006491"
       id="rect3924"
       style="color:#000000;fill:#ff6600;fill-opacity:1;fill-rule:nonzero;stroke:none;stroke-width:0.89999998;marker:none;visibility:visible;display:inline;overflow:visible;enable-background:accumulate"
       transform="matrix(0.78572195,0.61857984,0.61857984,-0.78572195,0,0)" />
  </g>
  <rect
     rx="0"
     y="14.798735"
     x="31.704363"
     height="2.3466549"
     width="2.9006491"
     id="rect3962"
     style="color:#000000;fill:#ff6600;fill-opacity:1;fill-rule:nonzero;stroke:none;stroke-width:0.89999998;marker:none;visibility:visible;display:inline;overflow:visible;enable-background:accumulate"
     transform="matrix(0.74225461,0.67011797,-0.67011797,0.74225461,0,0)"
     inkscape:transform-center-y="0.85313209" />
  <rect
     inkscape:transform-center-y="0.56744344"
     transform="matrix(-0.0066986,0.99997756,-0.99997756,-0.0066986,0,0)"
     style="color:#000000;fill:#ff6600;fill-opacity:1;fill-rule:nonzero;stroke:none;stroke-width:0.89999998;marker:none;visibility:visible;display:inline;overflow:visible;enable-background:accumulate"
     id="rect3964"
     width="2.9006491"
     height="2.3466549"
     x="22.457008"
     y="-11.531425"
     rx="0"
     inkscape:transform-center-x="0.63705782" />
  <rect
     inkscape:transform-center-y="0.12641071"
     transform="matrix(0.77270273,-0.63476806,0.63476806,0.77270273,0,0)"
     style="color:#000000;fill:#ff6600;fill-opacity:1;fill-rule:nonzero;stroke:none;stroke-width:0.89999998;marker:none;visibility:visible;display:inline;overflow:visible;enable-background:accumulate"
     id="rect3966"
     width="2.9006491"
     height="2.3466549"
     x="1.1999201"
     y="18.433798"
     rx="0"
     inkscape:transform-center-x="-0.84371476" />
  <g
     id="g3976"
     transform="translate(0.6339016,0)">
    <path
       d="m 20.21923,19.420074 c 0,0.471172 -0.38196,0.853133 -0.853132,0.853133 -0.471171,0 -0.853132,-0.381961 -0.853132,-0.853133 0,-0.471171 0.381961,-0.853132 0.853132,-0.853132 0.471172,0 0.853132,0.381961 0.853132,0.853132 z"
       sodipodi:ry="0.85313207"
       sodipodi:rx="0.85313207"
       sodipodi:cy="19.420074"
       sodipodi:cx="19.366098"
       id="path3968"
       style="color:#000000;fill:#ff6600;fill-opacity:1;fill-rule:nonzero;stroke:none;stroke-width:0.89999998;marker:none;visibility:visible;display:inline;overflow:visible;enable-background:accumulate"
       sodipodi:type="arc" />
    <path
       transform="translate(8,0)"
       sodipodi:type="arc"
       style="color:#000000;fill:#ff6600;fill-opacity:1;fill-rule:nonzero;stroke:none;stroke-width:0.89999998;marker:none;visibility:visible;display:inline;overflow:visible;enable-background:accumulate"
       id="path3970"
       sodipodi:cx="19.366098"
       sodipodi:cy="19.420074"
       sodipodi:rx="0.85313207"
       sodipodi:ry="0.85313207"
       d="m 20.21923,19.420074 c 0,0.471172 -0.38196,0.853133 -0.853132,0.853133 -0.471171,0 -0.853132,-0.381961 -0.853132,-0.853133 0,-0.471171 0.381961,-0.853132 0.853132,-0.853132 0.471172,0 0.853132,0.381961 0.853132,0.853132 z" />
  </g>
  <path
     style="color:#000000;fill:#ff6600;fill-opacity:1;fill-rule:nonzero;stroke:none;stroke-width:0.89999998;marker:none;visibility:visible;display:inline;overflow:visible;enable-background:accumulate"
     d="m 19.28125,27.072489 c -0.03159,0.146615 -0.0625,0.285118 -0.0625,0.4375 0,1.743336 2.142688,3.15625 4.78125,3.15625 2.638562,0 4.78125,-1.412914 4.78125,-3.15625 0,-0.152382 -0.03091,-0.290885 -0.0625,-0.4375 -0.324684,1.264979 -2.306706,2.25 -4.71875,2.25 -2.412044,0 -4.394066,-0.985021 -4.71875,-2.25 z"
     id="path3980"
     inkscape:connector-curvature="0" />
</svg>
