<?xml version="1.0" encoding="UTF-8" standalone="no"?>
<!-- Created with Inkscape (http://www.inkscape.org/) -->

<svg
   xmlns:dc="http://purl.org/dc/elements/1.1/"
   xmlns:cc="http://creativecommons.org/ns#"
   xmlns:rdf="http://www.w3.org/1999/02/22-rdf-syntax-ns#"
   xmlns:svg="http://www.w3.org/2000/svg"
   xmlns="http://www.w3.org/2000/svg"
   xmlns:sodipodi="http://sodipodi.sourceforge.net/DTD/sodipodi-0.dtd"
   xmlns:inkscape="http://www.inkscape.org/namespaces/inkscape"
   width="48px"
   height="48px"
   id="svg4359"
   version="1.1"
   inkscape:version="0.48.5 r10040"
   sodipodi:docname="show-offline.svg">
  <defs
     id="defs4361" />
  <sodipodi:namedview
     id="base"
     pagecolor="#ffffff"
     bordercolor="#666666"
     borderopacity="1.0"
     inkscape:pageopacity="0.0"
     inkscape:pageshadow="2"
     inkscape:zoom="15.191495"
     inkscape:cx="22.956225"
     inkscape:cy="24.255782"
     inkscape:current-layer="layer1"
     showgrid="true"
     inkscape:grid-bbox="true"
     inkscape:document-units="px"
     inkscape:window-width="1280"
     inkscape:window-height="670"
     inkscape:window-x="-2"
     inkscape:window-y="-3"
     inkscape:window-maximized="1"
     showguides="true">
    <sodipodi:guide
       position="9,39"
       orientation="30,0"
       id="guide3276" />
    <sodipodi:guide
       position="9,9"
       orientation="0,30"
       id="guide3278" />
    <sodipodi:guide
       position="39,9"
       orientation="-30,0"
       id="guide3280" />
    <sodipodi:guide
       position="39,39"
       orientation="0,-30"
       id="guide3282" />
  </sodipodi:namedview>
  <metadata
     id="metadata4364">
    <rdf:RDF>
      <cc:Work
         rdf:about="">
        <dc:format>image/svg+xml</dc:format>
        <dc:type
           rdf:resource="http://purl.org/dc/dcmitype/StillImage" />
        <dc:title />
      </cc:Work>
    </rdf:RDF>
  </metadata>
  <g
     id="layer1"
     inkscape:label="Layer 1"
     inkscape:groupmode="layer">
    <path
       style="fill:#8c8c8c;fill-opacity:1;stroke:none"
       id="path3813"
       inkscape:connector-curvature="0"
       d="m 24.158256,8.5277767 c -2.79637,0 -5.068551,2.3416573 -5.068551,5.2415493 0.0068,0.332329 0.0097,0.721172 0.04088,1.134534 -0.442547,0.262132 -0.496936,1.281041 -0.102183,2.314451 0.152217,0.398491 0.362466,0.736151 0.572256,0.99839 0.007,0.0087 0.0134,0.01407 0.02044,0.02269 0.05008,0.273036 0.0825,0.486192 0.143063,0.794173 0.187612,0.625363 0.972764,1.802425 1.655454,2.813646 0.06809,0.780074 0.07567,1.540586 -0.06132,2.427905 -1.106198,1.019716 -3.159873,1.741169 -4.761987,2.495975 -3.244134,0.739451 -3.00733,10.803479 -3.00733,10.803479 l 3.886138,-0.04809 c 0.06202,0.246155 0.234242,0.45474 0.449628,0.544577 0.0949,0.04081 0.169118,0.120324 0.429192,0.204216 1.370005,0.441927 3.458708,0.748792 5.804309,0.748792 2.345601,0 4.454742,-0.306865 5.824746,-0.748792 0.260075,-0.08389 0.334297,-0.163438 0.429191,-0.204216 0.203445,-0.09107 0.365866,-0.288565 0.429192,-0.521887 l 3.202924,-0.478517 c 0,0 -0.43781,-9.129468 -2.548931,-10.276872 -1.576752,-0.738673 -3.51263,-1.509045 -4.55761,-2.518667 -0.07858,-0.718332 -0.08089,-1.425411 -0.04088,-2.132925 0.620694,-1.063818 1.447756,-2.416307 1.655454,-3.108624 0.07634,-0.358534 0.104218,-0.59976 0.163501,-0.907627 0.183291,-0.248922 0.355202,-0.553414 0.490506,-0.907628 0.374869,-0.98137 0.341192,-1.927743 -0.04088,-2.246378 0.0267,-0.426418 0.05016,-0.838161 0.06132,-1.202606 0,-2.899886 -2.272181,-5.2415499 -5.068551,-5.2415499 z"
       sodipodi:nodetypes="cccscccccccccsscccccccccscccc" />
    <path
       sodipodi:nodetypes="cccscccccccccssc"
       d="m 24.158256,8.5277767 c 0.144924,10.6834883 -0.09205,12.9679483 -1.1e-5,30.4962873 2.345601,0 4.454742,-0.306865 5.824746,-0.748792 0.260075,-0.08389 0.334297,-0.163438 0.429191,-0.204216 0.203445,-0.09107 0.365866,-0.288565 0.429192,-0.521887 l 3.202924,-0.478517 c 0,0 -0.43781,-9.129468 -2.548931,-10.276872 -1.576752,-0.738673 -3.51263,-1.509045 -4.55761,-2.518667 -0.07858,-0.718332 -0.08089,-1.425411 -0.04088,-2.132925 0.620694,-1.063818 1.447756,-2.416307 1.655454,-3.108624 0.07634,-0.358534 0.104218,-0.59976 0.163501,-0.907627 0.183291,-0.248922 0.355202,-0.553414 0.490506,-0.907628 0.374869,-0.98137 0.341192,-1.927743 -0.04088,-2.246378 0.0267,-0.426418 0.05016,-0.838161 0.06132,-1.202606 0,-2.899886 -2.272181,-5.2415499 -5.068551,-5.2415499 z"
       inkscape:connector-curvature="0"
       id="path2990"
       style="fill:#808080;fill-opacity:1;stroke:none" />
  </g>
</svg>
