<?xml version="1.0" encoding="UTF-8" standalone="no"?>
<svg
   xmlns:dc="http://purl.org/dc/elements/1.1/"
   xmlns:cc="http://creativecommons.org/ns#"
   xmlns:rdf="http://www.w3.org/1999/02/22-rdf-syntax-ns#"
   xmlns:svg="http://www.w3.org/2000/svg"
   xmlns="http://www.w3.org/2000/svg"
   xmlns:sodipodi="http://sodipodi.sourceforge.net/DTD/sodipodi-0.dtd"
   xmlns:inkscape="http://www.inkscape.org/namespaces/inkscape"
   viewBox="0 0 513 512"
   height="512"
   width="513"
   version="1.1"
   id="svg2"
   inkscape:version="0.91+devel r"
   sodipodi:docname="web-browser.svg">
  <sodipodi:namedview
     pagecolor="#ffffff"
     bordercolor="#666666"
     borderopacity="1"
     objecttolerance="10"
     gridtolerance="10"
     guidetolerance="10"
     inkscape:pageopacity="0"
     inkscape:pageshadow="2"
     inkscape:window-width="1920"
     inkscape:window-height="1024"
     id="namedview12"
     showgrid="false"
     inkscape:zoom="1.4736842"
     inkscape:cx="383.43756"
     inkscape:cy="270.99337"
     inkscape:window-x="0"
     inkscape:window-y="29"
     inkscape:window-maximized="1"
     inkscape:current-layer="svg2" />
  <metadata
     id="metadata8">
    <rdf:RDF>
      <cc:Work
         rdf:about="">
        <dc:format>image/svg+xml</dc:format>
        <dc:type
           rdf:resource="http://purl.org/dc/dcmitype/StillImage" />
        <dc:title />
      </cc:Work>
    </rdf:RDF>
  </metadata>
  <defs
     id="defs6" />
  <circle
     r="225"
     cy="256"
     cx="256.5"
     id="path3773"
     style="fill:#ffffff;fill-opacity:1;fill-rule:nonzero;stroke:none;stroke-width:1.04232097" />
  <circle
     r="178.82187"
     cy="261.09793"
     cx="256.69748"
     id="path2984"
     style="fill:#ffffff;fill-opacity:1;fill-rule:nonzero;stroke:none;stroke-width:1.19457543" />
  <path
     style="fill:#51b9c3;fill-opacity:1;stroke:none;stroke-width:0.9651975"
     d="M 235.96252,453.63908 C 158.94087,445.54071 92.715362,392.26551 68.320814,318.77947 c -7.093012,-21.36698 -9.999122,-39.67784 -9.999122,-63.00273 0,-23.32491 2.90611,-41.63578 9.999122,-63.00277 C 86.798859,137.11078 129.33211,92.359587 184.52881,70.506173 c 34.48893,-13.654816 74.65152,-17.083871 112.24426,-9.583348 37.88447,7.558726 73.1302,26.553917 100.84528,54.349145 30.96976,31.05931 50.47301,70.57165 56.76587,115.00401 1.42126,10.03515 1.42126,40.96635 0,51.00151 -8.22619,58.08317 -39.57107,108.34117 -87.46019,140.23268 -26.02972,17.33435 -55.47756,28.09989 -86.92679,31.7787 -11.87367,1.38895 -32.58871,1.55368 -44.03472,0.35021 z M 262.7435,339.19445 c 2.63187,-11.41051 5.14688,-21.58701 5.58889,-22.61443 0.55372,-1.28717 2.35187,-2.31815 5.78249,-3.31546 19.01707,-5.52841 35.04204,-21.53604 40.50942,-40.46557 1.03977,-3.59999 1.97902,-5.20887 3.31916,-5.68552 1.02794,-0.36561 11.88769,-2.94719 24.13274,-5.73681 12.24506,-2.78963 21.96992,-5.33766 21.61082,-5.66232 -0.35912,-0.32464 -10.3778,-2.83021 -22.26375,-5.56796 -11.88594,-2.73772 -22.39526,-5.26969 -23.35405,-5.62659 -1.21475,-0.45219 -2.36093,-2.5786 -3.78077,-7.01416 -2.17253,-6.78683 -4.74962,-12.41778 -6.05142,-13.22233 -0.4371,-0.27015 -2.82179,2.24317 -5.29931,5.58516 l -4.50456,6.07632 1.95888,6.09217 c 7.29168,22.67713 -4.97957,47.54676 -27.72509,56.18939 -9.12249,3.46628 -22.9359,3.62006 -30.77976,0.3427 -2.68599,-1.12228 -2.87306,-1.04361 -8.44181,3.54976 -3.13223,2.5836 -5.69496,5.09172 -5.69496,5.5736 0,0.9984 5.26169,3.39029 12.42571,5.64854 4.50603,1.42042 4.95278,1.79829 5.78652,4.89458 0.9944,3.69288 10.27876,43.57017 10.37255,44.5511 0.19474,2.03689 2.19736,-5.33576 6.4083,-23.59217 z m -53.09658,-52.54142 c 0.74043,-1.0548 2.57906,-3.66828 4.08584,-5.80776 l 2.73962,-3.88995 -2.11294,-5.79729 c -12.48979,-34.26843 18.98795,-68.76296 54.34038,-59.54831 l 5.93991,1.54824 5.51382,-4.67773 c 3.03261,-2.57273 5.51384,-4.99444 5.51384,-5.38155 0,-0.7939 -5.9749,-3.43626 -12.70991,-5.6209 -2.57912,-0.83658 -4.67672,-2.08036 -4.91724,-2.91568 -0.23068,-0.80119 -2.64053,-11.1816 -5.35521,-23.06752 -2.71471,-11.88595 -5.19347,-21.90669 -5.50836,-22.26831 -0.31489,-0.36162 -2.98872,9.72269 -5.94184,22.40955 -2.95312,12.68688 -5.77664,23.55785 -6.27449,24.15771 -0.49784,0.59986 -2.14252,1.34246 -3.65484,1.65021 -1.51231,0.30774 -6.44512,2.32939 -10.96179,4.49254 -6.97176,3.33897 -9.32832,5.05806 -15.6025,11.38198 -7.90584,7.96845 -11.95974,14.60888 -15.45969,25.32345 l -1.8856,5.77242 -12.70068,3.00514 c -6.98539,1.65282 -17.47034,4.08826 -23.2999,5.41206 -5.82955,1.32382 -10.303,2.67701 -9.94098,3.0071 0.36203,0.3301 10.1886,2.81372 21.83683,5.51914 11.64822,2.70543 21.83362,5.10303 22.63422,5.328 0.89496,0.25146 2.18448,2.64102 3.34788,6.20382 2.31253,7.0818 6.76185,15.74554 8.0673,15.70861 0.52806,-0.015 1.5659,-0.89019 2.30633,-1.94497 z"
     id="path3001"
     inkscape:connector-curvature="0" />
  <path
     style="fill:#ffffff;fill-opacity:1;fill-rule:nonzero;stroke:#ffffff;stroke-width:1.44779634;stroke-miterlimit:4;stroke-dasharray:none;stroke-opacity:1"
     d="m 257.02616,151.72022 c -0.26476,0 -2.47875,8.12988 -4.92025,18.06729 -4.85254,19.75106 -6.27511,24.96894 -7.12021,26.11689 -0.30594,0.41559 -2.41097,1.43307 -4.67895,2.26029 -7.79224,2.84213 -16.39949,7.47138 -20.54249,11.04888 -9.54903,8.24565 -15.54471,16.90552 -19.54902,28.23391 -1.31576,3.72234 -2.47934,6.88091 -2.58454,7.02031 -0.18012,0.23866 -3.60577,1.07311 -32.95622,8.02132 -6.5087,1.54081 -11.58054,3.0368 -11.27133,3.32352 0.49586,0.45981 10.60869,2.98614 35.88387,8.96766 8.37277,1.98145 7.92431,1.5864 10.98288,9.7123 1.94331,5.16292 4.8693,11.08143 6.25494,12.65502 0.56196,0.63817 1.10362,1.15937 1.20461,1.15937 0.10098,0 2.01109,-2.52918 4.24347,-5.62152 l 4.05874,-5.62341 -2.15096,-6.47738 c -1.96242,-5.9115 -2.15174,-7.20332 -2.1585,-14.76638 -0.008,-9.57826 0.87229,-13.2766 5.1295,-21.54918 4.97791,-9.67305 15.49592,-18.57921 26.29409,-22.2674 6.51123,-2.22395 17.69399,-2.51811 25.44578,-0.66923 l 5.88732,1.40256 3.39516,-2.91257 c 5.78105,-4.96062 7.13186,-6.36747 6.73188,-7.01465 -0.21231,-0.34352 -3.58645,-1.85479 -7.49725,-3.35745 -3.91082,-1.5027 -7.58304,-3.08441 -8.16082,-3.5158 -0.93087,-0.69502 -2.71303,-7.54861 -10.76799,-41.39605 -0.36883,-1.54988 -0.88892,-2.8183 -1.15371,-2.8183 z m 50.90474,72.68767 -1.60237,1.94736 c -0.88109,1.0709 -2.93841,3.65421 -4.57149,5.74217 l -2.96912,3.7967 1.69852,5.56685 c 5.33274,17.48332 0.8021,34.70564 -12.43634,47.2796 -5.00622,4.75493 -12.70497,9.26086 -18.45564,10.80192 -7.48345,2.00539 -21.54743,1.8552 -26.90488,-0.28843 -2.46716,-0.98721 -2.92858,-0.99606 -4.62427,-0.0924 -3.05998,1.63075 -9.7886,8.04669 -9.28814,8.85645 0.25071,0.40566 4.00291,2.11783 8.33802,3.80423 6.59386,2.56509 7.99773,3.35891 8.59063,4.85992 0.3898,0.98683 2.82088,10.89408 5.40285,22.01669 2.58195,11.12261 4.88362,20.96927 5.11442,21.88095 0.50849,2.00875 -0.13442,4.25834 6.77901,-23.73972 2.81885,-11.41576 5.54641,-21.14254 6.06075,-21.61514 0.51435,-0.4726 2.8741,-1.55087 5.2445,-2.39603 6.4303,-2.29267 13.76022,-6.09523 18.23506,-9.45969 8.62755,-6.48672 16.49462,-16.68916 19.91286,-25.82657 3.10133,-8.2903 4.11735,-10.30963 5.38211,-10.69069 0.67467,-0.20328 10.60863,-2.61742 22.07512,-5.36515 11.4665,-2.74774 21.09337,-5.24301 21.39459,-5.54423 0.30121,-0.30121 -9.36743,-2.91403 -21.48696,-5.80626 -14.42775,-3.44308 -22.36045,-5.63463 -22.97623,-6.3492 -0.51727,-0.60024 -2.19867,-4.38929 -3.73636,-8.41908 -1.53771,-4.02979 -3.33233,-8.14367 -3.9871,-9.14298 l -1.18954,-1.81729 z"
     id="path2985"
     inkscape:connector-curvature="0" />
  <path
     d="m 236.19353,237.06282 -84.6521,123.25576 123.12203,-83.65267 z"
     style="fill:#d7d7d7;fill-opacity:1;stroke:#d7d7d7;stroke-width:1.93039501;stroke-opacity:1"
     id="path3791"
     inkscape:connector-curvature="0" />
  <path
     d="M 275.8822,275.43473 360.5343,152.17897 237.41227,235.83164 Z"
     style="fill:#de3e3e;fill-opacity:1;stroke:#de3e3e;stroke-width:1.93039501;stroke-opacity:1"
     id="path3791-7"
     inkscape:connector-curvature="0" />
</svg>
