<?xml version="1.0" encoding="UTF-8" standalone="no"?>
<svg
   xmlns:dc="http://purl.org/dc/elements/1.1/"
   xmlns:cc="http://creativecommons.org/ns#"
   xmlns:rdf="http://www.w3.org/1999/02/22-rdf-syntax-ns#"
   xmlns:svg="http://www.w3.org/2000/svg"
   xmlns="http://www.w3.org/2000/svg"
   xmlns:xlink="http://www.w3.org/1999/xlink"
   xmlns:sodipodi="http://sodipodi.sourceforge.net/DTD/sodipodi-0.dtd"
   xmlns:inkscape="http://www.inkscape.org/namespaces/inkscape"
   viewBox="0 0 512 512"
   id="svg2"
   version="1.1"
   inkscape:version="0.91+devel r"
   sodipodi:docname="preferences-system-privacy.svg"
   width="512"
   height="512">
  <metadata
     id="metadata76">
    <rdf:RDF>
      <cc:Work
         rdf:about="">
        <dc:format>image/svg+xml</dc:format>
        <dc:type
           rdf:resource="http://purl.org/dc/dcmitype/StillImage" />
        <dc:title></dc:title>
      </cc:Work>
    </rdf:RDF>
  </metadata>
  <sodipodi:namedview
     pagecolor="#ffffff"
     bordercolor="#666666"
     borderopacity="1"
     objecttolerance="10"
     gridtolerance="10"
     guidetolerance="10"
     inkscape:pageopacity="0"
     inkscape:pageshadow="2"
     inkscape:window-width="1920"
     inkscape:window-height="1025"
     id="namedview74"
     showgrid="false"
     inkscape:zoom="6.3344983"
     inkscape:cx="28.104416"
     inkscape:cy="34.209121"
     inkscape:window-x="0"
     inkscape:window-y="29"
     inkscape:window-maximized="1"
     inkscape:current-layer="svg2" />
  <defs
     id="defs4">
    <linearGradient
       id="linearGradient3764"
       x1="1"
       x2="47"
       gradientUnits="userSpaceOnUse"
       gradientTransform="rotate(-90,23.999998,24)">
      <stop
         stop-color="#8358b4"
         stop-opacity="1"
         id="stop7" />
      <stop
         offset="1"
         stop-color="#8d65ba"
         stop-opacity="1"
         id="stop9" />
    </linearGradient>
    <clipPath
       id="clipPath-057129763">
      <g
         transform="translate(0,-1004.3622)"
         id="g12">
        <path
           d="m -24,13 c 0,1.105 -0.672,2 -1.5,2 -0.828,0 -1.5,-0.895 -1.5,-2 0,-1.105 0.672,-2 1.5,-2 0.828,0 1.5,0.895 1.5,2 z"
           transform="matrix(15.333333,0,0,11.5,414.99999,878.8622)"
           id="path14"
           inkscape:connector-curvature="0"
           style="fill:#1890d0" />
      </g>
    </clipPath>
    <clipPath
       id="clipPath-064426159">
      <g
         transform="translate(0,-1004.3622)"
         id="g17">
        <path
           d="m -24,13 c 0,1.105 -0.672,2 -1.5,2 -0.828,0 -1.5,-0.895 -1.5,-2 0,-1.105 0.672,-2 1.5,-2 0.828,0 1.5,0.895 1.5,2 z"
           transform="matrix(15.333333,0,0,11.5,414.99999,878.8622)"
           id="path19"
           inkscape:connector-curvature="0"
           style="fill:#1890d0" />
      </g>
    </clipPath>
  </defs>
  <g
     id="g21"
     transform="matrix(9.7826087,0,0,9.7826087,21.217391,21.217391)" />
  <g
     id="g29"
     style="fill:#8e44ad;fill-opacity:1"
     transform="matrix(9.7826087,0,0,9.7826087,21.217391,21.217391)">
    <path
       d="M 24,1 C 36.703,1 47,11.297 47,24 47,36.703 36.703,47 24,47 11.297,47 1,36.703 1,24 1,11.297 11.297,1 24,1 Z"
       id="path31"
       style="fill:#8e44ad;fill-opacity:1"
       inkscape:connector-curvature="0" />
  </g>
  <g
     id="g33"
     transform="matrix(9.7826087,0,0,9.7826087,21.217391,21.217391)" />
  <g
     id="g35"
     transform="matrix(9.7826087,0,0,9.7826087,21.217391,21.217391)">
    <g
       clip-path="url(#clipPath-057129763)"
       id="g37">
      <g
         transform="translate(1,1)"
         id="g39">
        <g
           id="g41"
           style="opacity:0.1">
          <!-- color: #8d65ba -->
          <g
             id="g43">
            <path
               d="m 33,24 c 0,4.969 -4.03,9 -9,9 -4.969,0 -9,-4.03 -9,-9 0,-4.969 4.03,-9 9,-9 4.969,0 9,4.03 9,9 m 0,0"
               id="path47"
               inkscape:connector-curvature="0"
               style="fill:#000000;fill-opacity:1;fill-rule:nonzero;stroke:none" />
            <use
               xlink:href="#SVGCleanerId_0"
               id="use49"
               x="0"
               y="0"
               width="100%"
               height="100%"
               transform="translate(-30,-434)" />
            <path
               d="m 28,22 c 0,1.105 -0.895,2 -2,2 -1.105,0 -2,-0.895 -2,-2 0,-1.105 0.895,-2 2,-2 1.105,0 2,0.895 2,2 m 0,0"
               id="path51"
               inkscape:connector-curvature="0"
               style="fill:#000000;fill-opacity:1;fill-rule:nonzero;stroke:none" />
            <path
               d="m 30.984,13.719 -16.25,19.27 c 0.742,0.48 1.496,0.91 2.273,1.293 L 33.249,15.005 C 32.526,14.501 31.686,14.079 30.983,13.72 m 0,0"
               id="path53"
               inkscape:connector-curvature="0"
               style="fill:#000000;fill-opacity:1;fill-rule:nonzero;stroke:none" />
          </g>
        </g>
      </g>
    </g>
  </g>
  <path
     style="fill:#ececeb;fill-opacity:1;fill-rule:nonzero;stroke:none;stroke-width:9.78260899"
     inkscape:connector-curvature="0"
     id="path61"
     d="m 428.37935,245.07283 c -3.66848,-5.15544 -7.71848,-10.00761 -11.80761,-14.79131 -21.93261,-25.67935 -47.11304,-48.57065 -74.70978,-65.1913 -17.61848,-10.62392 -36.48913,-19.1837 -56.025,-23.31196 -9.93913,-2.06413 -19.66305,-3.13043 -29.925,-3.16956 -9.93913,0 -19.86848,1.10543 -29.80761,3.16956 -19.56522,4.12826 -38.36739,12.68804 -55.98587,23.31196 -27.58696,16.62065 -52.80652,39.52174 -74.817393,65.1913 -4.05,4.77391 -8.021739,9.62609 -11.690217,14.79131 -5.008696,6.87717 -5.008696,14.97717 0,21.85434 11.201087,15.70109 24.57391,29.64131 38.10326,42.45653 29.26957,27.47934 62.78478,50.47826 99.7337,59.76195 11.42608,2.86631 22.8913,4.24565 34.39565,4.24565 11.65109,0 23.03804,-1.37934 34.46413,-4.24565 36.94891,-9.28369 70.50326,-32.29239 99.81196,-59.76195 13.6076,-12.76631 26.9413,-26.74566 38.17173,-42.45653 4.93044,-6.87717 4.93044,-14.97717 0,-21.85434 m 0,0" />
  <path
     style="fill:#52b3d9;fill-opacity:1;fill-rule:nonzero;stroke:none;stroke-width:9.78260899"
     inkscape:connector-curvature="0"
     id="path63"
     d="m 344.04348,256 c 0,48.60978 -39.42391,88.04348 -88.04348,88.04348 -48.60978,0 -88.04348,-39.42391 -88.04348,-88.04348 0,-48.60978 39.42391,-88.04348 88.04348,-88.04348 48.60978,0 88.04348,39.42391 88.04348,88.04348 m 0,0" />
  <path
     style="fill:#000000;fill-opacity:1;fill-rule:nonzero;stroke:none;stroke-width:9.78260899"
     inkscape:connector-curvature="0"
     id="SVGCleanerId_0"
     d="m 304.91304,256 c 0,26.98043 -21.89347,48.87391 -48.91304,48.87391 -27.01957,0 -48.91304,-21.89348 -48.91304,-48.87391 0,-27.01957 21.89347,-48.91304 48.91304,-48.91304 27.01957,0 48.91304,21.89347 48.91304,48.91304 m 0,0" />
  <path
     style="fill:#ffffff;fill-opacity:1;fill-rule:nonzero;stroke:none;stroke-width:9.78260899"
     inkscape:connector-curvature="0"
     id="path66"
     d="M 295.13043,236.43478 C 295.13043,247.24457 286.375,256 275.56522,256 264.75543,256 256,247.24457 256,236.43478 c 0,-10.80978 8.75543,-19.56521 19.56522,-19.56521 10.80978,0 19.56521,8.75543 19.56521,19.56521 m 0,0" />
  <path
     style="fill:#f64747;fill-opacity:1;fill-rule:nonzero;stroke:none;stroke-width:9.78260899"
     inkscape:connector-curvature="0"
     id="path68"
     d="M 324.32174,155.425 165.35435,343.93587 c 7.25869,4.69565 14.63478,8.90217 22.23587,12.64891 L 346.47935,168.00543 c -7.07283,-4.93043 -15.29022,-9.05869 -22.16739,-12.57065 m 0,0" />
  <g
     id="g70"
     transform="matrix(9.7826087,0,0,9.7826087,21.217391,21.217391)" />
</svg>
