<?xml version="1.0" encoding="UTF-8" standalone="no"?>
<svg
   xmlns:dc="http://purl.org/dc/elements/1.1/"
   xmlns:cc="http://creativecommons.org/ns#"
   xmlns:rdf="http://www.w3.org/1999/02/22-rdf-syntax-ns#"
   xmlns:svg="http://www.w3.org/2000/svg"
   xmlns="http://www.w3.org/2000/svg"
   xmlns:sodipodi="http://sodipodi.sourceforge.net/DTD/sodipodi-0.dtd"
   xmlns:inkscape="http://www.inkscape.org/namespaces/inkscape"
   height="512"
   viewBox="0 0 512 512"
   width="512"
   id="svg3149"
   version="1.1"
   inkscape:version="0.91+devel r"
   sodipodi:docname="gnome-boxes.svg">
  <metadata
     id="metadata3169">
    <rdf:RDF>
      <cc:Work
         rdf:about="">
        <dc:format>image/svg+xml</dc:format>
        <dc:type
           rdf:resource="http://purl.org/dc/dcmitype/StillImage" />
        <dc:title />
      </cc:Work>
    </rdf:RDF>
  </metadata>
  <defs
     id="defs3167" />
  <sodipodi:namedview
     pagecolor="#ffffff"
     bordercolor="#666666"
     borderopacity="1"
     objecttolerance="10"
     gridtolerance="10"
     guidetolerance="10"
     inkscape:pageopacity="0"
     inkscape:pageshadow="2"
     inkscape:window-width="959"
     inkscape:window-height="1024"
     id="namedview3165"
     showgrid="false"
     inkscape:zoom="0.4609375"
     inkscape:cx="292.78728"
     inkscape:cy="621.90548"
     inkscape:window-x="960"
     inkscape:window-y="29"
     inkscape:window-maximized="0"
     inkscape:current-layer="svg3149" />
  <path
     style="fill:#f9de69;stroke-width:4.83799839;fill-opacity:1"
     d="m 256.62574,31 -224.37423,112.78926 0.004,0.52503 -0.20596,-0.10105 L 31,368.10375 254.55241,481 l 0.62378,-0.317 0.21387,0.10699 225.18219,-112.89624 0,-209.04122 0.30101,-0.15256 0.12674,-14.91071 -0.42775,-0.21595 0,-1.47205 -1.46543,0.73701 L 256.62578,31 Z"
     id="path3153"
     inkscape:connector-curvature="0" />
  <path
     style="fill:#fff0ac;stroke-width:4.83799839;fill-opacity:1"
     d="m 390.06784,188.8277 -44.47787,22.13914 0.88689,65.47591 19.86579,3.84478 12.85432,-19.0794 10.03196,3.89673 z"
     id="path3159"
     inkscape:connector-curvature="0"
     sodipodi:nodetypes="ccccccc" />
  <path
     d="M 121.44392,99.588819 345.84971,210.78552 390.77368,188.7822 166.40701,76.979496 Z"
     id="path3161"
     inkscape:connector-curvature="0"
     style="fill:#fff7d6;fill-opacity:1;stroke-width:4.83799839"
     sodipodi:nodetypes="ccccc" />
  <path
     d="m 210.44139,350.3819 -74.66922,-37.70725 c -4.12087,-2.0848 -7.46391,0.45149 -7.46391,5.65234 l 0,47.12274 c 0,5.20825 3.34304,11.12404 7.46391,13.20129 l 74.66922,37.70725 c 4.12087,2.07729 7.46397,-0.45923 7.46397,-5.65985 l 0,-47.12274 c 0,-5.20075 -3.35055,-11.11649 -7.46397,-13.19378 z m -18.67476,37.6997 -44.79856,-22.63187 c -2.05668,-1.03862 -3.73198,-3.98899 -3.73198,-6.59312 0,-2.60412 1.6753,-3.86859 3.73198,-2.82992 l 44.79856,22.62433 c 2.05668,1.04617 3.73198,3.99653 3.73198,6.60066 0,2.60413 -1.66779,3.86859 -3.73198,2.82992 z m 7.46391,-15.08287 -52.26247,-26.39507 c -2.05668,-1.04617 -3.73198,-3.99654 -3.73198,-6.60067 0,-2.60414 1.6753,-3.86855 3.73198,-2.82993 l 52.26247,26.40262 c 2.06418,1.03862 3.73199,3.99649 3.73199,6.59312 0,2.60412 -1.66035,3.87609 -3.73199,2.82993 z"
     id="path3163"
     inkscape:connector-curvature="0"
     style="fill:#ffffff;stroke-width:4.83799839" />
</svg>
