<?xml version="1.0" encoding="UTF-8" standalone="no"?>
<!-- Created with Inkscape (http://www.inkscape.org/) -->

<svg
   xmlns:dc="http://purl.org/dc/elements/1.1/"
   xmlns:cc="http://creativecommons.org/ns#"
   xmlns:rdf="http://www.w3.org/1999/02/22-rdf-syntax-ns#"
   xmlns:svg="http://www.w3.org/2000/svg"
   xmlns="http://www.w3.org/2000/svg"
   xmlns:sodipodi="http://sodipodi.sourceforge.net/DTD/sodipodi-0.dtd"
   xmlns:inkscape="http://www.inkscape.org/namespaces/inkscape"
   id="svg2"
   version="1.1"
   inkscape:version="0.91 r13725"
   width="512"
   height="512"
   sodipodi:docname="ktorrent.svg">
  <metadata
     id="metadata8">
    <rdf:RDF>
      <cc:Work
         rdf:about="">
        <dc:format>image/svg+xml</dc:format>
        <dc:type
           rdf:resource="http://purl.org/dc/dcmitype/StillImage" />
        <dc:title />
      </cc:Work>
    </rdf:RDF>
  </metadata>
  <defs
     id="defs6" />
  <sodipodi:namedview
     pagecolor="#ffffff"
     bordercolor="#666666"
     borderopacity="1"
     objecttolerance="10"
     gridtolerance="10"
     guidetolerance="10"
     inkscape:pageopacity="0"
     inkscape:pageshadow="2"
     inkscape:window-width="1366"
     inkscape:window-height="705"
     id="namedview4"
     showgrid="false"
     inkscape:zoom="0.4609375"
     inkscape:cx="47.086881"
     inkscape:cy="364.87"
     inkscape:window-x="-8"
     inkscape:window-y="-8"
     inkscape:window-maximized="1"
     inkscape:current-layer="svg2" />
  <rect
     style="fill:#2980b9;fill-opacity:1;fill-rule:evenodd;stroke:none"
     id="rect2998"
     width="455.59323"
     height="449.08475"
     x="28.542343"
     y="32.033897"
     ry="224.54237" />
  <g
     transform="matrix(2.8058046,0,0,2.8058046,115.70837,115.71117)"
     id="g4144"
     style="fill:#ffffff">
    <path
       inkscape:connector-curvature="0"
       id="path4"
       d="M 50,94.55 C 31.954,94.55 17.273,79.869 17.273,61.824 17.273,44.434 46.83,7.905 48.088,6.358 48.556,5.783 49.258,5.449 50,5.449 c 0.742,0 1.444,0.334 1.912,0.909 C 53.17,7.904 82.728,44.434 82.728,61.824 82.727,79.869 68.046,94.55 50,94.55 Z"
       style="fill:#ffffff;fill-opacity:1"
       sodipodi:nodetypes="sscsccs" />
    <path
       inkscape:connector-curvature="0"
       id="path6"
       d="m 52.365,81.14 c -11.955,0 -21.681,-9.726 -21.681,-21.681 0,-1.361 1.103,-2.464 2.464,-2.464 1.361,0 2.464,1.103 2.464,2.464 0,9.238 7.515,16.752 16.752,16.752 1.361,0 2.464,1.103 2.464,2.464 0,1.361 -1.102,2.465 -2.463,2.465 z"
       style="fill:#2980b9;fill-opacity:1" />
  </g>
</svg>
