<?xml version="1.0" encoding="UTF-8" standalone="no"?>
<!-- Created with Inkscape (http://www.inkscape.org/) -->

<svg
   xmlns:dc="http://purl.org/dc/elements/1.1/"
   xmlns:cc="http://creativecommons.org/ns#"
   xmlns:rdf="http://www.w3.org/1999/02/22-rdf-syntax-ns#"
   xmlns:svg="http://www.w3.org/2000/svg"
   xmlns="http://www.w3.org/2000/svg"
   xmlns:sodipodi="http://sodipodi.sourceforge.net/DTD/sodipodi-0.dtd"
   xmlns:inkscape="http://www.inkscape.org/namespaces/inkscape"
   id="svg2"
   version="1.1"
   inkscape:version="0.91+devel r"
   width="512"
   height="512"
   sodipodi:docname="libreoffice-draw.svg"
   viewBox="0 0 512 512">
  <metadata
     id="metadata8">
    <rdf:RDF>
      <cc:Work
         rdf:about="">
        <dc:format>image/svg+xml</dc:format>
        <dc:type
           rdf:resource="http://purl.org/dc/dcmitype/StillImage" />
        <dc:title />
      </cc:Work>
    </rdf:RDF>
  </metadata>
  <defs
     id="defs6" />
  <sodipodi:namedview
     pagecolor="#ffffff"
     bordercolor="#666666"
     borderopacity="1"
     objecttolerance="10"
     gridtolerance="10"
     guidetolerance="10"
     inkscape:pageopacity="0"
     inkscape:pageshadow="2"
     inkscape:window-width="959"
     inkscape:window-height="1026"
     id="namedview4"
     showgrid="false"
     inkscape:zoom="0.23963134"
     inkscape:cx="313.84615"
     inkscape:cy="512"
     inkscape:window-x="0"
     inkscape:window-y="27"
     inkscape:window-maximized="0"
     inkscape:current-layer="svg2" />
  <path
     sodipodi:nodetypes="ccccc"
     inkscape:connector-curvature="0"
     id="path4213"
     d="M 375.63839,159.79348 399.70805,419.93155 108.36276,382.1741 125.82705,126.68653 Z"
     style="fill:#fefefe;stroke-width:0.44956937" />
  <path
     inkscape:connector-curvature="0"
     id="path4203"
     d="m 257.77299,481.35944 -138.46737,0.0719 -3.14698,-0.3963 -3.14699,-0.39625 -4.04612,-1.14757 -4.04613,-1.14752 -3.37177,-1.83933 c -1.854473,-1.01166 -4.282147,-2.45443 -5.394832,-3.2062 -1.112684,-0.75177 -3.51186,-2.79613 -5.331506,-4.54302 l -3.308448,-3.17617 -1.925439,-2.69741 c -1.058992,-1.48358 -2.847015,-4.52766 -3.973384,-6.76463 l -2.047945,-4.06721 -0.906625,-3.35068 c -0.498644,-1.84288 -1.116217,-5.06498 -1.372382,-7.16024 l -0.465754,-3.80954 0.0036,-181.41304 0.0036,-181.413037 0.458948,-4.046125 0.458951,-4.046124 0.937488,-3.492196 0.937487,-3.492196 2.016538,-3.925698 c 1.109281,-2.159135 2.88482,-5.139537 3.945826,-6.623116 l 1.929098,-2.697416 3.308448,-3.196212 3.308444,-3.196213 3.146986,-2.02809 c 1.730842,-1.11545 4.197471,-2.557535 5.481391,-3.204634 1.28393,-0.647098 4.01506,-1.663399 6.06919,-2.258447 l 3.73478,-1.081905 4.04613,-0.49584 4.04612,-0.495839 73.06473,-0.0013 73.06472,-0.0013 13.92184,14.049043 c 7.65702,7.726974 33.44669,33.691255 57.3104,57.698395 23.8637,24.00715 55.47995,55.82043 70.25832,70.69619 l 26.86978,27.04683 -0.13533,121.26994 -0.13532,121.26994 -0.80351,3.37177 -0.80351,3.37177 -1.74973,3.99161 c -0.96236,2.19538 -2.59832,5.43228 -3.63547,7.19311 l -1.88574,3.2015 -4.3127,4.31623 -4.31269,4.31622 -4.35465,2.54906 -4.35464,2.54905 -2.86365,1.07789 c -1.57501,0.59285 -4.36962,1.44249 -6.21024,1.8881 l -3.34658,0.81026 -138.46737,0.0719 z m 28.43526,-103.72036 1.4611,0.0491 0,-6.22217 c 0,-3.42219 0.13293,-9.59253 0.29539,-13.71187 l 0.29538,-7.48969 32.87216,0 32.87215,0 3.66663,-0.45976 3.66663,-0.45976 1.49162,-0.62734 1.49162,-0.62734 1.20772,-1.27314 c 0.66424,-0.70023 1.46077,-1.88006 1.77006,-2.62185 l 0.56235,-1.34871 0.38566,-61.05799 0.38566,-61.058 -0.35744,-7.27655 -0.35745,-7.27655 -39.77731,-0.36506 c -21.87752,-0.20078 -39.82428,-0.41203 -39.8817,-0.46945 -0.0574,-0.0574 -0.24595,-10.66594 -0.41898,-23.5745 l -0.31459,-23.47013 -1.29053,0 c -0.7098,0 -4.57169,0.50495 -8.58199,1.12211 -4.0103,0.61715 -8.80875,1.42384 -10.66323,1.79263 -1.85447,0.36879 -13.58823,2.0955 -26.07502,3.83714 -12.48679,1.74164 -24.82747,3.57112 -27.42373,4.06552 -2.59627,0.4944 -14.63349,2.30092 -26.74938,4.01449 -12.1159,1.71357 -28.70501,4.09114 -36.86469,5.28349 -8.15968,1.19236 -15.08867,2.32493 -15.39775,2.51682 l -0.56196,0.3489 0,86.71383 0,86.71383 0.46647,0.28829 c 0.25655,0.15856 5.36478,0.96484 11.35162,1.79174 5.98684,0.82689 11.20291,1.62719 11.59127,1.77845 0.38835,0.15126 12.02096,1.8927 25.85024,3.86986 13.82927,1.97717 36.67558,5.29317 50.76958,7.3689 14.094,2.07572 26.13122,3.9031 26.74938,4.06085 0.61816,0.15774 6.28273,1.06035 12.58794,2.00579 6.30521,0.94544 12.12152,1.74109 12.92512,1.7681 z m 38.77536,-35.01729 -35.51598,0 0,-2.69742 0,-2.69741 27.5586,0 27.55861,0 0.53948,-0.53949 0.53948,-0.53948 0,-12.22515 0,-12.22514 -0.71112,-0.27288 -0.71112,-0.27289 -27.38697,0 -27.38696,0 0,-3.81793 0,-3.81794 27.9857,-0.1158 27.98569,-0.11579 -6.21104,-6.74354 c -3.41608,-3.70895 -7.78863,-8.46315 -9.7168,-10.56488 -1.92817,-2.10174 -4.345,-4.79739 -5.37073,-5.99033 -1.02573,-1.19294 -2.45894,-2.66878 -3.1849,-3.27964 -0.72596,-0.61085 -2.05578,-2.11306 -2.95513,-3.33823 -0.89936,-1.22518 -1.7697,-2.2259 -1.93409,-2.22382 -0.16439,0.002 -6.16577,5.55901 -13.3364,12.34875 l -13.03751,12.34498 -0.12011,-11.22483 c -0.0661,-6.17365 -0.0661,-16.33306 0,-22.57645 l 0.12011,-11.35163 1.39031,2.24785 1.39032,2.24784 1.75667,1.51852 c 0.96617,0.83518 3.17281,2.409 4.90365,3.49736 l 3.14699,1.97885 2.9222,0.91119 2.9222,0.9112 3.77451,0.46649 3.77451,0.46649 4.29132,-0.5061 4.29132,-0.50611 3.04969,-1.06058 3.04969,-1.06058 3.72027,-2.4822 c 2.04615,-1.36522 4.23012,-3.05629 4.85326,-3.75794 0.62315,-0.70165 1.56189,-1.89498 2.08609,-2.65185 0.5242,-0.75686 1.57828,-2.61462 2.34241,-4.12834 l 1.38932,-2.75223 0.48078,-3.0987 0.48078,-3.0987 -0.44968,-2.79222 -0.44967,-2.79221 -1.81332,-3.83366 -1.81333,-3.83366 -2.62039,-2.6204 -2.6204,-2.62039 -2.44456,-1.5594 -2.44456,-1.5594 -3.38555,-1.16506 -3.38554,-1.16507 -4.11002,-0.54721 -4.11003,-0.54721 -4.26968,0.52471 -4.26968,0.52472 -3.52011,1.24812 -3.52011,1.24812 -2.5209,1.67642 -2.5209,1.67642 -2.20351,2.35909 c -1.21193,1.29749 -2.54517,2.86485 -2.96275,3.48301 l -0.75923,1.12392 -0.0236,-8.42943 -0.0236,-8.42942 35.51598,0 35.51598,0 0,65.41234 0,65.41235 -35.51598,0 z m -120.48459,-35.27396 -8.31703,0.14341 -6.51876,-0.60267 c -3.58532,-0.33146 -6.87279,-0.62049 -7.3055,-0.64228 l -0.78675,-0.0396 0,-39.60718 0,-39.60717 14.94818,0.22709 14.94818,0.2271 2.47264,0.51382 c 1.35994,0.28261 3.74171,0.92681 5.29281,1.43157 l 2.82018,0.91776 3.93991,2.19246 3.93991,2.19246 0.9485,1.28292 c 0.52168,0.70561 1.64771,2.68497 2.5023,4.39858 0.85458,1.71362 1.90496,4.12719 2.33418,5.36351 0.42922,1.23631 0.96413,2.59812 1.1887,3.02624 0.22456,0.42811 0.74189,2.65348 1.14961,4.94526 l 0.74131,4.16687 0.0379,6.96833 0.0379,6.96832 -0.60756,4.04613 -0.60756,4.04612 -1.98246,6.05085 -1.98246,6.05085 -1.53107,2.73781 -1.53106,2.7378 -2.54531,2.22579 -2.5453,2.2258 -3.16794,1.88945 -3.16794,1.88944 -3.19427,0.74489 -3.19427,0.74489 -8.31703,0.1434 z m -1.63371,-14.41538 c 1.76396,-0.15448 4.29259,-0.46531 5.61918,-0.69074 l 2.41198,-0.40986 1.94276,-0.97027 c 1.06852,-0.53364 2.53864,-1.51451 3.26695,-2.17971 l 1.32418,-1.20945 0.53127,-2.43408 0.53128,-2.43406 0.36428,-8.40401 0.36427,-8.40401 -0.37474,-7.45232 -0.37475,-7.45232 -0.49917,-2.8008 -0.49918,-2.8008 -0.98007,-1.47321 -0.98008,-1.47321 -2.43956,-1.20338 -2.43956,-1.20338 -5.27609,-0.0208 -5.27608,-0.0208 -0.26152,0.25956 -0.26152,0.25956 -0.29129,12.55317 -0.29128,12.55317 0.34077,13.84634 0.34077,13.84634 3.2072,-0.28087 z M 434.56615,139.38793 c -0.30908,-0.0157 -0.96657,-0.1949 -1.4611,-0.39829 l -0.89914,-0.36979 -26.97358,-27.36262 C 390.39686,96.20779 370.26594,75.802362 360.49695,65.911835 350.72795,56.021309 339.64445,44.77812 335.86693,40.926972 l -6.8682,-7.002089 -0.27112,-1.670672 -0.27111,-1.670671 34.3415,0.150618 34.3415,0.150618 3.59655,0.964282 c 1.97811,0.530356 5.09166,1.583838 6.919,2.341073 l 3.32245,1.376789 3.81401,2.537757 3.81401,2.537757 3.34102,3.395652 3.34101,3.395652 1.94489,2.945077 c 1.06968,1.619793 2.50373,4.057762 3.18678,5.417709 0.68305,1.359948 1.72752,3.888775 2.32105,5.619617 l 1.07916,3.146986 0.65169,4.270909 0.65169,4.270909 0.003,33.155745 0.003,33.15574 -0.56197,-0.0285 z"
     style="fill:#ffc831;fill-opacity:1;stroke-width:0.44956937" />
  <path
     inkscape:connector-curvature="0"
     id="path4201"
     d="m 381.02468,145.7104 c -0.0853,0 -0.5405,-0.45519 -1.01153,-1.01153 l -0.85643,-1.01153 1.01153,0.85642 c 0.55635,0.47104 1.01154,0.92622 1.01154,1.01153 0,0.0853 -0.0698,0.15511 -0.15511,0.15511 z m 53.54147,-6.32247 c -0.30908,-0.0157 -0.96657,-0.1949 -1.4611,-0.39829 l -0.89914,-0.36979 -26.97358,-27.36262 C 390.39686,96.20779 370.26594,75.802362 360.49695,65.911835 350.72795,56.021309 339.64445,44.77812 335.86693,40.926972 l -6.8682,-7.002089 -0.27112,-1.670672 -0.27111,-1.670671 34.3415,0.150618 34.3415,0.150618 3.59655,0.964282 c 1.97811,0.530356 5.09166,1.583838 6.919,2.341073 l 3.32245,1.376789 3.81401,2.537757 3.81401,2.537757 3.34102,3.395652 3.34101,3.395652 1.94489,2.945077 c 1.06968,1.619793 2.50373,4.057762 3.18678,5.417709 0.68305,1.359948 1.72752,3.888775 2.32105,5.619617 l 1.07916,3.146986 0.65169,4.270909 0.65169,4.270909 0.003,33.155745 0.003,33.15574 -0.56197,-0.0285 z m -357.420367,-38.51205 -0.180574,1.45108 0.0036,-3.146991 0.0036,-3.146985 0.176946,1.69591 c 0.09732,0.932753 0.09569,2.348896 -0.0036,3.146986 z"
     style="fill:#d6af2c;stroke-width:0.44956937" />
  <path
     inkscape:connector-curvature="0"
     id="path4199"
     d="m 433.97492,138.96686 -1.20376,0 -7.62968,-7.75507 C 420.94516,126.9465 405.44491,111.21719 390.6965,96.257768 375.94809,81.298347 357.00058,62.092278 348.59092,53.577615 340.18127,45.062952 332.57412,37.371466 331.68615,36.485424 330.79818,35.599382 329.83722,34.4364 329.5507,33.901018 l -0.52096,-0.973421 0,-1.179487 0,-1.179487 33.60531,0.173044 33.60531,0.173044 3.34658,0.788789 c 1.84062,0.433835 4.64688,1.278221 6.23613,1.876414 l 2.88955,1.087624 4.32875,2.552523 4.32875,2.552523 4.29918,4.303022 4.29919,4.303023 1.89925,3.201502 c 1.04458,1.760826 2.68662,4.997726 3.64898,7.19311 l 1.74973,3.991609 0.78462,3.37177 0.78463,3.37177 0.17149,34.72923 0.17149,34.72924 -1.20376,0 z"
     style="fill:#e7b62d;fill-opacity:1;stroke-width:0.44956937" />
</svg>
