<?xml version="1.0" encoding="UTF-8" standalone="no"?>
<svg
   xmlns:dc="http://purl.org/dc/elements/1.1/"
   xmlns:cc="http://creativecommons.org/ns#"
   xmlns:rdf="http://www.w3.org/1999/02/22-rdf-syntax-ns#"
   xmlns:svg="http://www.w3.org/2000/svg"
   xmlns="http://www.w3.org/2000/svg"
   xmlns:sodipodi="http://sodipodi.sourceforge.net/DTD/sodipodi-0.dtd"
   xmlns:inkscape="http://www.inkscape.org/namespaces/inkscape"
   height="512"
   width="512"
   viewBox="0 0 512 512"
   id="svg2"
   version="1.1"
   inkscape:version="0.91+devel r"
   sodipodi:docname="x-office-calendar.svg">
  <metadata
     id="metadata16">
    <rdf:RDF>
      <cc:Work
         rdf:about="">
        <dc:format>image/svg+xml</dc:format>
        <dc:type
           rdf:resource="http://purl.org/dc/dcmitype/StillImage" />
        <dc:title />
        <dc:title />
      </cc:Work>
    </rdf:RDF>
  </metadata>
  <defs
     id="defs14" />
  <sodipodi:namedview
     pagecolor="#ffffff"
     bordercolor="#666666"
     borderopacity="1"
     objecttolerance="10"
     gridtolerance="10"
     guidetolerance="10"
     inkscape:pageopacity="0"
     inkscape:pageshadow="2"
     inkscape:window-width="1920"
     inkscape:window-height="1025"
     id="namedview12"
     showgrid="false"
     inkscape:zoom="1.1600971"
     inkscape:cx="306.2626"
     inkscape:cy="30.731833"
     inkscape:window-x="0"
     inkscape:window-y="29"
     inkscape:window-maximized="1"
     inkscape:current-layer="svg2" />
  <path
     sodipodi:nodetypes="csscccc"
     inkscape:connector-curvature="0"
     style="opacity:1;fill:#ececec;fill-opacity:1;stroke:none;stroke-width:46.39199829;stroke-linecap:butt;stroke-linejoin:miter;stroke-miterlimit:4;stroke-dasharray:92.78399314, 92.78399314;stroke-dashoffset:0;stroke-opacity:1"
     d="m 31,120.39711 0,270.93421 c 0,49.51702 39.746619,89.37379 89.12681,89.37379 l 239.60185,0 119.73306,-120.7 0,-239.608 z"
     id="rect4178" />
  <path
     style="opacity:1;fill:#ffffff;fill-opacity:1;stroke:none;stroke-width:46.39199829;stroke-linecap:butt;stroke-linejoin:miter;stroke-miterlimit:4;stroke-dasharray:92.78399314, 92.78399314;stroke-dashoffset:0;stroke-opacity:1"
     d="m 120.12636,31.000005 c -1.06648,0 -2.12538,0.02658 -3.18257,0.06347 1.05815,-0.02907 2.11511,-0.06347 3.18257,-0.06347 z m 270.20839,0 c 1.06879,0 2.12708,0.03434 3.18654,0.06347 -1.05784,-0.03695 -2.11939,-0.06347 -3.18654,-0.06347 z M 31.0004,284.70898 l 0,146.23395 c 0,29.00791 26.223001,49.76215 50.395715,49.76215 l 278.333295,0 119.7333,-120.6998 0,-75.2963 z"
     id="rect4178-9"
     inkscape:connector-curvature="0"
     sodipodi:nodetypes="cccccccsscccc" />
  <g
     transform="matrix(0.99861731,0,0,1.0013846,-8,0)"
     style="font-style:normal;font-variant:normal;font-weight:normal;font-stretch:normal;font-size:236.4680481px;line-height:125%;font-family:Sawasdee;-inkscape-font-specification:'Sawasdee, Normal';text-align:start;letter-spacing:0px;word-spacing:0px;writing-mode:lr-tb;text-anchor:start;fill:#4b4b4b;fill-opacity:1;stroke:none;stroke-width:5.91152763px;stroke-linecap:butt;stroke-linejoin:miter;stroke-opacity:1"
     id="text4186">
    <path
       d="m 157.55624,333.91348 c 0,29.55851 23.6699,53.22841 53.22841,53.22841 29.09665,0 52.99747,-23.6699 52.99747,-53.22841 0,-21.01425 -12.70092,-39.71924 -31.05952,-47.91711 11.66175,-6.81231 19.74416,-18.70499 19.74416,-33.71517 0,-22.74619 -18.70499,-40.75841 -41.45119,-40.75841 -22.74619,0 -41.33572,18.01222 -41.33572,40.75841 l 10.2762,0 c 0,-16.74212 13.74008,-30.48221 31.05952,-30.48221 17.31944,0 31.05953,13.74009 31.05953,30.48221 0,17.31944 -14.31741,28.75027 -31.05953,28.75027 l 0,10.39166 c 23.43897,0 42.60582,19.28231 42.60582,42.49035 0,23.55444 -19.16685,42.95221 -42.60582,42.95221 -23.55443,0 -42.60581,-19.39777 -42.60581,-42.95221 l -10.85352,0 z"
       style="font-style:normal;font-variant:normal;font-weight:normal;font-stretch:normal;font-size:236.4680481px;line-height:125%;font-family:Sawasdee;-inkscape-font-specification:'Sawasdee, Normal';text-align:start;writing-mode:lr-tb;text-anchor:start;fill:#4b4b4b;fill-opacity:1;stroke-width:5.91152763px"
       id="path5836"
       inkscape:connector-curvature="0" />
    <path
       d="m 335.20953,385.40994 10.39166,0 0,-172.38613 -34.75434,20.66786 5.19583,9.12157 18.70499,-11.1999 z"
       style="font-style:normal;font-variant:normal;font-weight:normal;font-stretch:normal;font-size:236.4680481px;line-height:125%;font-family:Sawasdee;-inkscape-font-specification:'Sawasdee, Normal';text-align:start;writing-mode:lr-tb;text-anchor:start;fill:#4b4b4b;fill-opacity:1;stroke-width:5.91152763px"
       id="path5838"
       inkscape:connector-curvature="0"
       sodipodi:nodetypes="ccccccc" />
  </g>
  <path
     inkscape:connector-curvature="0"
     style="opacity:1;fill:#d48787;fill-opacity:1;stroke:none;stroke-width:46.39199829;stroke-linecap:butt;stroke-linejoin:miter;stroke-miterlimit:4;stroke-dasharray:92.78399314, 92.78399313999999265;stroke-dashoffset:0;stroke-opacity:1"
     d="m 388.36687,358.46262 c -12.14209,0 -29.27159,17.10082 -29.27159,29.1032 l 0,93.43418 0.33934,0 L 481,358.46262 l -92.63309,0 z"
     id="rect4218" />
  <path
     style="opacity:1;fill:#d41a1a;fill-opacity:1;stroke:none;stroke-width:46.39199829;stroke-linecap:butt;stroke-linejoin:miter;stroke-miterlimit:4;stroke-dasharray:92.78399314, 92.78399314;stroke-dashoffset:0;stroke-opacity:1"
     d="m 81.921611,31.000005 c -49.380201,0 -50.921211,-0.214438 -50.921211,89.396745 l 448.46231,-0.0456 c -0.0438,-88.310492 0.80547,-89.351135 -48.5595,-89.351135 l -348.981599,0 z m 24.825679,30.503709 c 7.80063,-1.02e-4 14.12547,6.339694 14.12477,14.16194 10e-5,7.821712 -6.32467,14.164028 -14.12477,14.163924 C 98.9472,89.829682 92.62438,83.487366 92.624481,75.665654 92.62363,67.843408 98.94666,61.503612 106.74729,61.503714 Z m 299.15815,0.124957 c 7.43773,0.0043 13.46603,6.049066 13.47008,13.507398 0.004,7.464191 -6.02652,13.5191 -13.47008,13.523264 -7.44941,0.004 -13.48994,-6.05321 -13.48589,-13.523264 0.004,-7.464195 6.04233,-13.511358 13.48589,-13.507398 z"
     id="rect4178-4"
     inkscape:connector-curvature="0" />
</svg>
