<?xml version="1.0" encoding="UTF-8" standalone="no"?>
<svg
   xmlns:dc="http://purl.org/dc/elements/1.1/"
   xmlns:cc="http://creativecommons.org/ns#"
   xmlns:rdf="http://www.w3.org/1999/02/22-rdf-syntax-ns#"
   xmlns:svg="http://www.w3.org/2000/svg"
   xmlns="http://www.w3.org/2000/svg"
   xmlns:sodipodi="http://sodipodi.sourceforge.net/DTD/sodipodi-0.dtd"
   xmlns:inkscape="http://www.inkscape.org/namespaces/inkscape"
   width="64"
   viewBox="0 0 64 64"
   height="64"
   id="svg2"
   version="1.1"
   inkscape:version="0.91 r13725"
   sodipodi:docname="application-x-kexi-connectiondata.svg">
  <metadata
     id="metadata14">
    <rdf:RDF>
      <cc:Work
         rdf:about="">
        <dc:format>image/svg+xml</dc:format>
        <dc:type
           rdf:resource="http://purl.org/dc/dcmitype/StillImage" />
        <dc:title />
      </cc:Work>
    </rdf:RDF>
  </metadata>
  <defs
     id="defs12">
    <clipPath
       clipPathUnits="userSpaceOnUse"
       id="clipPath4157">
      <path
         d="m 27.642964,3.2951379 13.085584,13.0855841 -11.072418,0 c -0.977824,0 -2.013166,-1.035372 -2.013166,-2.013167 l 0,-11.0724171 z"
         id="path4159"
         inkscape:connector-curvature="0"
         style="fill:#f9f8f2;fill-opacity:1;stroke-width:1.00658333" />
    </clipPath>
  </defs>
  <sodipodi:namedview
     pagecolor="#ffffff"
     bordercolor="#666666"
     borderopacity="1"
     objecttolerance="10"
     gridtolerance="10"
     guidetolerance="10"
     inkscape:pageopacity="0"
     inkscape:pageshadow="2"
     inkscape:window-width="1920"
     inkscape:window-height="996"
     id="namedview10"
     showgrid="true"
     inkscape:zoom="16.000001"
     inkscape:cx="24.239251"
     inkscape:cy="33.909378"
     inkscape:window-x="-4"
     inkscape:window-y="0"
     inkscape:window-maximized="1"
     inkscape:current-layer="svg2"
     inkscape:snap-bbox="true"
     inkscape:bbox-nodes="true"
     inkscape:object-nodes="true"
     borderlayer="false"
     showguides="false"
     inkscape:bbox-paths="true"
     inkscape:snap-bbox-edge-midpoints="true">
    <inkscape:grid
       type="xygrid"
       id="grid4160"
       visible="true" />
  </sodipodi:namedview>
  <g
     id="g4174"
     transform="matrix(0.13425926,0,0,0.13425926,-1.8702411,-2.3703705)">
    <path
       sodipodi:nodetypes="sccssssss"
       inkscape:connector-curvature="0"
       id="path4172"
       d="m 111.68966,39.999999 200.17241,2e-6 107.99807,111.724139 0,293.27586 c 0,14.958 -12.042,27 -27,27 l -281.17048,0 C 96.731656,472 84.689656,459.958 84.689656,445 l 0,-378.000001 c 0,-14.958 12.042,-27 27.000004,-27 z"
       style="fill:#9b59b6;fill-opacity:1;fill-rule:evenodd;stroke:none;stroke-width:1.19299817px;stroke-linecap:butt;stroke-linejoin:miter;stroke-opacity:1" />
    <path
       inkscape:connector-curvature="0"
       id="rect4167"
       d="M 419.86014,151.72414 311.86207,40.000001 l -0.002,84.724139 c -3.4e-4,14.958 12.042,27 27,27 z"
       style="fill:#000000;fill-opacity:0.17647059;fill-rule:evenodd;stroke:none;stroke-width:1.19299817px;stroke-linecap:butt;stroke-linejoin:miter;stroke-opacity:1"
       sodipodi:nodetypes="ccssc" />
  </g>
  <path
     inkscape:connector-curvature="0"
     style="opacity:1;fill:#f7f7f7;fill-opacity:1;stroke:none;stroke-opacity:1"
     d="m 32,23 c -6.075132,0 -11,1.343146 -11,3 l 0,5 0,4 0,1 a 11,3 0 0 0 1,1.242188 11,3 0 0 0 0.01172,0.0059 11,3 0 0 0 0.476562,0.251953 11,3 0 0 0 0.03125,0.01367 11,3 0 0 0 0.550781,0.232422 11,3 0 0 0 0.06445,0.02344 11,3 0 0 0 0.589843,0.201172 11,3 0 0 0 0.132813,0.04102 11,3 0 0 0 0.65039,0.179687 11,3 0 0 0 0.09961,0.02539 11,3 0 0 0 0.773437,0.175781 11,3 0 0 0 0.05273,0.0098 11,3 0 0 0 0.814453,0.15039 11,3 0 0 0 0.138672,0.02344 11,3 0 0 0 0.779297,0.115234 11,3 0 0 0 0.220703,0.0293 11,3 0 0 0 0.736328,0.08203 11,3 0 0 0 0.367187,0.03711 11,3 0 0 0 0.539063,0.04492 11,3 0 0 0 0.591797,0.04102 11,3 0 0 0 0.490234,0.02539 11,3 0 0 0 0.576172,0.02344 11,3 0 0 0 0.462891,0.01367 A 11,3 0 0 0 32,39 a 11,3 0 0 0 0.958984,-0.01367 11,3 0 0 0 0.414063,-0.01367 11,3 0 0 0 0.716797,-0.0293 11,3 0 0 0 0.345703,-0.02148 11,3 0 0 0 0.707031,-0.04883 11,3 0 0 0 0.31836,-0.0293 11,3 0 0 0 0.767578,-0.07617 11,3 0 0 0 0.179687,-0.02148 11,3 0 0 0 0.808594,-0.107422 11,3 0 0 0 0.212891,-0.03516 11,3 0 0 0 0.677734,-0.111328 11,3 0 0 0 0.3125,-0.06055 11,3 0 0 0 0.595703,-0.125 11,3 0 0 0 0.195313,-0.04687 11,3 0 0 0 0.662109,-0.167969 11,3 0 0 0 0.01367,-0.0039 11,3 0 0 0 0.02344,-0.0078 11,3 0 0 0 0.701172,-0.21875 11,3 0 0 0 0.636719,-0.24414 11,3 0 0 0 0.002,0 11,3 0 0 0 0.0059,-0.002 11,3 0 0 0 0.535157,-0.253906 11,3 0 0 0 0.0059,-0.0039 A 11,3 0 0 0 42,37.242188 11,3 0 0 0 43,36 l 0,-1 0,-4 0,-5 c 0,-1.656854 -4.924868,-3 -11,-3 z m 0,16 -1,0 0,3 1,0 0,1 -8,0 0,-1 -3,0 0,3 3,0 0,-1 8,0 1,0 7,0 0,1 3,0 0,-3 -3,0 0,1 -7,0 0,-1 1,0 0,-3 -2,0 z m 0,-15 c 5.522847,0 10,0.895431 10,2 0,1.104569 -4.477153,2 -10,2 -5.522847,0 -10,-0.895431 -10,-2 0,-1.104569 4.477153,-2 10,-2 z M 22,27.242188 C 23.78371,28.311606 27.69217,28.99864 32,29 36.30783,28.9986 40.21629,28.311606 42,27.242188 L 42,31 c 0,1.104569 -4.477153,2 -10,2 -5.522847,0 -10,-0.895431 -10,-2 l 0,-3.757812 z m 0,5 C 23.78371,33.311606 27.69217,33.99864 32,34 36.30783,33.9986 40.21629,33.311606 42,32.242188 L 42,34 42,34.757812 42,35 42,36 A 10,2 0 0 1 32,38 10,2 0 0 1 22,36 L 22,35 22,34.757812 22,34 22,32.242188 Z M 32,40 l 1,0 0,1 -1,0 0,-1 z m -10,3 1,0 0,1 -1,0 0,-1 z m 19,0 1,0 0,1 -1,0 0,-1 z"
     id="rect4185" />
</svg>
