<?xml version="1.0" encoding="UTF-8" standalone="no"?>
<!-- Created with Inkscape (http://www.inkscape.org/) -->

<svg
   xmlns:dc="http://purl.org/dc/elements/1.1/"
   xmlns:cc="http://creativecommons.org/ns#"
   xmlns:rdf="http://www.w3.org/1999/02/22-rdf-syntax-ns#"
   xmlns:svg="http://www.w3.org/2000/svg"
   xmlns="http://www.w3.org/2000/svg"
   xmlns:sodipodi="http://sodipodi.sourceforge.net/DTD/sodipodi-0.dtd"
   xmlns:inkscape="http://www.inkscape.org/namespaces/inkscape"
   width="48"
   height="48"
   id="svg865"
   version="1.1"
   inkscape:version="0.48.5 r10040"
   sodipodi:docname="folder-seafile.svg">
  <defs
     id="defs867" />
  <sodipodi:namedview
     id="base"
     pagecolor="#ffffff"
     bordercolor="#666666"
     borderopacity="1.0"
     inkscape:pageopacity="0.0"
     inkscape:pageshadow="2"
     inkscape:zoom="8"
     inkscape:cx="-15.956313"
     inkscape:cy="18.073379"
     inkscape:document-units="px"
     inkscape:current-layer="folderLayer"
     showgrid="false"
     inkscape:window-width="1280"
     inkscape:window-height="670"
     inkscape:window-x="-2"
     inkscape:window-y="-3"
     inkscape:window-maximized="1"
     borderlayer="true"
     inkscape:showpageshadow="false"
     showguides="true"
     inkscape:guide-bbox="true">
    <sodipodi:guide
       position="0,39.000017"
       orientation="30,0"
       id="guide4110" />
    <sodipodi:guide
       position="30,39.000017"
       orientation="0,-30"
       id="guide4116" />
    <sodipodi:guide
       position="30,9.0000174"
       orientation="0,18"
       id="guide4120" />
    <sodipodi:guide
       position="48,9.0000174"
       orientation="-30,0"
       id="guide4122" />
    <sodipodi:guide
       position="48,39.000017"
       orientation="0,-18"
       id="guide4124" />
    <sodipodi:guide
       position="4,41.000017"
       orientation="34,0"
       id="guide4164" />
    <sodipodi:guide
       position="22,41.000017"
       orientation="0,-18"
       id="guide4170" />
    <sodipodi:guide
       position="6,37.0002"
       orientation="27.999817,0"
       id="guide4174" />
    <sodipodi:guide
       position="6,9.0003836"
       orientation="0,35.999992"
       id="guide4176" />
    <sodipodi:guide
       position="41.999992,9.0003836"
       orientation="-27.999817,0"
       id="guide4178" />
    <sodipodi:guide
       position="41.999992,37.0002"
       orientation="0,-35.999992"
       id="guide4180" />
    <sodipodi:guide
       position="14,31.000017"
       orientation="20,0"
       id="guide4221" />
    <sodipodi:guide
       position="34,11.000017"
       orientation="-20,0"
       id="guide4225" />
    <sodipodi:guide
       position="34,31.000017"
       orientation="0,-20"
       id="guide4227" />
    <sodipodi:guide
       position="14,31.000017"
       orientation="11,0"
       id="guide4412" />
    <sodipodi:guide
       position="14,20.000017"
       orientation="6.123234e-17,1"
       id="guide4414" />
    <sodipodi:guide
       position="25,20.000017"
       orientation="-11,0"
       id="guide4416" />
    <sodipodi:guide
       position="25,31.000017"
       orientation="0,-11"
       id="guide4418" />
    <sodipodi:guide
       position="25,20.000017"
       orientation="9,0"
       id="guide4420" />
    <sodipodi:guide
       position="25,11.000017"
       orientation="0,9"
       id="guide4422" />
    <sodipodi:guide
       position="34,11.000017"
       orientation="-9,0"
       id="guide4424" />
    <sodipodi:guide
       position="34,20.000017"
       orientation="0,-9"
       id="guide4426" />
    <sodipodi:guide
       position="23.000001,35.000017"
       orientation="-1.9999999,0"
       id="guide4068" />
    <sodipodi:guide
       position="23.000001,37.000017"
       orientation="0,2"
       id="guide4070" />
    <sodipodi:guide
       position="25,37.000017"
       orientation="1.9999999,0"
       id="guide4072" />
    <sodipodi:guide
       position="25,35.000017"
       orientation="0,-2"
       id="guide4074" />
    <sodipodi:guide
       orientation="0,1"
       position="-5.0900019,45.012788"
       id="guide3049" />
    <sodipodi:guide
       orientation="0,1"
       position="14,5.0286766"
       id="guide3051" />
    <sodipodi:guide
       orientation="1,0"
       position="18.481902,18.990154"
       id="guide3071" />
  </sodipodi:namedview>
  <metadata
     id="metadata870">
    <rdf:RDF>
      <cc:Work
         rdf:about="">
        <dc:format>image/svg+xml</dc:format>
        <dc:type
           rdf:resource="http://purl.org/dc/dcmitype/StillImage" />
        <dc:title />
      </cc:Work>
    </rdf:RDF>
  </metadata>
  <g
     inkscape:groupmode="layer"
     id="folderLayer"
     inkscape:label="folder">
    <g
       id="g3824">
      <path
         sodipodi:nodetypes="cscssccssc"
         inkscape:connector-curvature="0"
         id="path3070"
         d="m 11.026706,37.32867 c 0,0 3.685615,3.954104 7.908716,2.451544 4.2231,-1.502559 3.455264,-2.926037 3.455264,-2.926037 0,0 2.303509,2.056134 4.299884,2.767873 1.996375,0.711739 6.296259,0 5.835558,-3.242365 -0.460702,-3.242365 1.458889,3.084201 5.605206,3.558693 l -6.142692,-5.535745 c 0,0 -1.458889,2.767873 -2.994562,4.507678 -1.535673,1.739806 -6.424706,-4.873575 -7.755148,-2.214298 -1.35198,2.702327 -10.212226,0.632657 -10.212226,0.632657 z"
         style="fill:#8c8c8c;fill-opacity:1;stroke:none" />
      <path
         style="fill:#8c8c8c;fill-opacity:1;stroke:none"
         d="m 18.137489,30.837513 c 0,0 2.88934,3.954104 6.200042,2.451545 3.310702,-1.50256 2.708757,-2.926037 2.708757,-2.926037 0,0 1.805837,2.056134 3.370896,2.767873 1.56506,0.711738 4.935957,0 4.574789,-3.242365 -0.361167,-3.242366 1.143697,3.0842 4.394205,3.558693 l -4.815567,-5.535746 c 0,0 -1.143697,2.767873 -2.347589,4.507679 -1.203892,1.739806 -5.036652,-4.873575 -6.079653,-2.214298 -1.059886,2.702326 -8.00588,0.632656 -8.00588,0.632656 z"
         id="path3840"
         inkscape:connector-curvature="0"
         sodipodi:nodetypes="cscssccssc" />
      <path
         inkscape:connector-curvature="0"
         d="m 28.950093,17.272127 c 0.03554,-0.237718 0.05261,-0.479497 0.05261,-0.721233 0,-3.015848 -2.612597,-5.470694 -5.825393,-5.470694 -1.863124,0 -3.574014,0.826758 -4.657765,2.182422 -0.382564,-0.08685 -0.772229,-0.130912 -1.167627,-0.130912 -2.810298,0 -5.097219,2.147675 -5.097219,4.786858 0,0.0668 0.0014,0.132236 0.0043,0.197671 -2.106289,0.587672 -3.645148,2.422833 -3.645148,4.589185 0,2.639183 2.286922,4.786857 5.097219,4.786857 H 26.09 c 3.212795,0 5.825393,-2.45352 5.825393,-5.470693 0,-1.994068 -1.167628,-3.795807 -2.965307,-4.749461 z m -2.860087,8.852481 H 13.711047 c -2.011035,0 -3.64087,-1.53064 -3.64087,-3.419184 0,-1.888543 1.629881,-3.419183 3.64087,-3.419183 0.110956,0 0.216177,0.02137 0.324265,0.03073 -0.204799,-0.427398 -0.324265,-0.89886 -0.324265,-1.398403 0,-1.888586 1.629882,-3.419184 3.640871,-3.419184 0.657086,0 1.265794,0.176302 1.79768,0.462145 0.659907,-1.477215 2.214377,-2.513655 4.027712,-2.513655 2.413487,0 4.369045,1.836486 4.369045,4.103021 0,0.539589 -0.118055,1.052467 -0.319987,1.525297 1.858846,0.472788 3.232684,2.05151 3.232684,3.945396 0,2.266534 -1.955558,4.103021 -4.369046,4.103021 z"
         id="path5-6"
         style="fill:#8c8c8c;fill-opacity:1" />
      <path
         style="fill:#8c8c8c;fill-opacity:1"
         id="path3842"
         d="m 37.796645,10.716249 c 0.01629,-0.108923 0.02411,-0.219708 0.02411,-0.330472 0,-1.3818755 -1.197103,-2.5066961 -2.66922,-2.5066961 -0.853691,0 -1.637629,0.3788242 -2.134208,0.9999954 -0.175293,-0.039795 -0.353839,-0.059985 -0.535012,-0.059985 -1.28769,0 -2.335567,0.9840741 -2.335567,2.1933583 0,0.03061 6.36e-4,0.06059 0.002,0.09057 -0.965111,0.269274 -1.670223,1.110153 -1.670223,2.102785 0,1.209284 1.047878,2.193358 2.335568,2.193358 h 5.672092 c 1.472116,0 2.66922,-1.124213 2.66922,-2.506695 0,-0.91369 -0.535012,-1.739255 -1.358717,-2.176223 z m -1.310504,4.056244 h -5.672092 c -0.921465,0 -1.668263,-0.701346 -1.668263,-1.566684 0,-0.865339 0.746819,-1.566685 1.668263,-1.566685 0.05084,0 0.09905,0.0098 0.14858,0.01408 -0.09384,-0.195835 -0.14858,-0.411862 -0.14858,-0.640754 0,-0.865358 0.746818,-1.5666846 1.668263,-1.5666846 0.30108,0 0.579992,0.080782 0.823704,0.2117567 0.302373,-0.6768662 1.014637,-1.1517674 1.845515,-1.1517674 1.10587,0 2.001915,0.8414861 2.001915,1.8800223 0,0.247241 -0.05409,0.482244 -0.146619,0.698897 0.851731,0.216633 1.481229,0.940011 1.481229,1.807797 0,1.038536 -0.896045,1.880022 -2.001915,1.880022 z"
         inkscape:connector-curvature="0" />
    </g>
  </g>
</svg>
