<?xml version="1.0" encoding="UTF-8" standalone="no"?>
<!-- Created with Inkscape (http://www.inkscape.org/) -->

<svg
   xmlns:dc="http://purl.org/dc/elements/1.1/"
   xmlns:cc="http://creativecommons.org/ns#"
   xmlns:rdf="http://www.w3.org/1999/02/22-rdf-syntax-ns#"
   xmlns:svg="http://www.w3.org/2000/svg"
   xmlns="http://www.w3.org/2000/svg"
   xmlns:sodipodi="http://sodipodi.sourceforge.net/DTD/sodipodi-0.dtd"
   xmlns:inkscape="http://www.inkscape.org/namespaces/inkscape"
   width="48"
   height="48"
   id="svg865"
   version="1.1"
   inkscape:version="0.48.5 r10040"
   sodipodi:docname="folder-print.svg">
  <defs
     id="defs867" />
  <sodipodi:namedview
     id="base"
     pagecolor="#ffffff"
     bordercolor="#666666"
     borderopacity="1.0"
     inkscape:pageopacity="0.0"
     inkscape:pageshadow="2"
     inkscape:zoom="8"
     inkscape:cx="-1.209664"
     inkscape:cy="18.073379"
     inkscape:document-units="px"
     inkscape:current-layer="folderLayer"
     showgrid="false"
     inkscape:window-width="1280"
     inkscape:window-height="670"
     inkscape:window-x="-2"
     inkscape:window-y="-3"
     inkscape:window-maximized="1"
     borderlayer="true"
     inkscape:showpageshadow="false"
     showguides="true"
     inkscape:guide-bbox="true">
    <sodipodi:guide
       position="0,39.000017"
       orientation="30,0"
       id="guide4110" />
    <sodipodi:guide
       position="30,39.000017"
       orientation="0,-30"
       id="guide4116" />
    <sodipodi:guide
       position="30,9.0000174"
       orientation="0,18"
       id="guide4120" />
    <sodipodi:guide
       position="48,9.0000174"
       orientation="-30,0"
       id="guide4122" />
    <sodipodi:guide
       position="48,39.000017"
       orientation="0,-18"
       id="guide4124" />
    <sodipodi:guide
       position="4,41.000017"
       orientation="34,0"
       id="guide4164" />
    <sodipodi:guide
       position="22,41.000017"
       orientation="0,-18"
       id="guide4170" />
    <sodipodi:guide
       position="6,37.0002"
       orientation="27.999817,0"
       id="guide4174" />
    <sodipodi:guide
       position="6,9.0003836"
       orientation="0,35.999992"
       id="guide4176" />
    <sodipodi:guide
       position="41.999992,9.0003836"
       orientation="-27.999817,0"
       id="guide4178" />
    <sodipodi:guide
       position="41.999992,37.0002"
       orientation="0,-35.999992"
       id="guide4180" />
    <sodipodi:guide
       position="14,31.000017"
       orientation="20,0"
       id="guide4221" />
    <sodipodi:guide
       position="34,11.000017"
       orientation="-20,0"
       id="guide4225" />
    <sodipodi:guide
       position="77.125,-4.75"
       orientation="0,-20"
       id="guide4227" />
    <sodipodi:guide
       position="14,31.000017"
       orientation="11,0"
       id="guide4412" />
    <sodipodi:guide
       position="14,20.000017"
       orientation="6.123234e-17,1"
       id="guide4414" />
    <sodipodi:guide
       position="25,20.000017"
       orientation="-11,0"
       id="guide4416" />
    <sodipodi:guide
       position="25,31.000017"
       orientation="0,-11"
       id="guide4418" />
    <sodipodi:guide
       position="25,20.000017"
       orientation="9,0"
       id="guide4420" />
    <sodipodi:guide
       position="25,11.000017"
       orientation="0,9"
       id="guide4422" />
    <sodipodi:guide
       position="34,11.000017"
       orientation="-9,0"
       id="guide4424" />
    <sodipodi:guide
       position="34,20.000017"
       orientation="0,-9"
       id="guide4426" />
    <sodipodi:guide
       position="23.000001,35.000017"
       orientation="-1.9999999,0"
       id="guide4068" />
    <sodipodi:guide
       position="23.000001,37.000017"
       orientation="0,2"
       id="guide4070" />
    <sodipodi:guide
       position="25,37.000017"
       orientation="1.9999999,0"
       id="guide4072" />
    <sodipodi:guide
       position="25,35.000017"
       orientation="0,-2"
       id="guide4074" />
    <sodipodi:guide
       orientation="0,1"
       position="-5.0900019,45.012788"
       id="guide3049" />
    <sodipodi:guide
       orientation="0,1"
       position="14,5.0286766"
       id="guide3051" />
    <sodipodi:guide
       orientation="1,0"
       position="18.481902,18.990154"
       id="guide3071" />
  </sodipodi:namedview>
  <metadata
     id="metadata870">
    <rdf:RDF>
      <cc:Work
         rdf:about="">
        <dc:format>image/svg+xml</dc:format>
        <dc:type
           rdf:resource="http://purl.org/dc/dcmitype/StillImage" />
        <dc:title />
      </cc:Work>
    </rdf:RDF>
  </metadata>
  <g
     inkscape:groupmode="layer"
     id="folderLayer"
     inkscape:label="folder">
    <path
       sodipodi:nodetypes="sscsssscsssscssssccssssssccccsssssssssssscccsssscc"
       inkscape:connector-curvature="0"
       style="fill:#8c8c8c;fill-opacity:1;stroke:none;display:inline"
       id="path3738-0"
       d="m 14.597341,7.879081 c -1.420659,0 -2.56437,1.198329 -2.56437,2.686819 l 0,9.851673 -0.85478,0 c -1.420669,0 -2.564369,1.19833 -2.564369,2.686809 l 0,8.956088 c 0,1.488491 1.1437,2.686798 2.564369,2.686798 l 0.85478,0 0,2.686832 c 0,1.4885 1.143711,2.686819 2.56437,2.686819 l 18.805317,0 c 1.42066,0 2.564371,-1.198319 2.564371,-2.686819 l 0,-2.686832 0.85478,0 c 1.420669,0 2.564369,-1.198307 2.564369,-2.686798 l 0,-8.956088 c 0,-1.488479 -1.1437,-2.686809 -2.564369,-2.686809 l -0.801356,0 -0.05341,0 0,-9.851673 c 0,-1.48849 -1.1437,-2.686819 -2.56435,-2.686819 z m 0.605394,1.709922 17.272479,0 c 1.953717,0 1.953717,0 1.953717,1.704157 l 0,8.921749 0,2.040154 -20.889518,0 0,-2.141481 0,-8.852674 c 0,-1.671905 0,-1.671905 1.663322,-1.671905 z m 16.490353,16.20221 c 0.471849,0 0.854791,0.401243 0.854791,0.895606 0,0.494364 -0.382942,0.895618 -0.854791,0.895618 -0.471847,0 -0.8548,-0.401254 -0.8548,-0.895618 0,-0.494363 0.382953,-0.895606 0.8548,-0.895606 z m 3.419151,0 c 0.471847,0 0.85479,0.401243 0.85479,0.895606 0,0.494364 -0.382943,0.895618 -0.85479,0.895618 -0.471839,0 -0.85478,-0.401254 -0.85478,-0.895618 0,-0.494363 0.382931,-0.895606 0.85478,-0.895606 z m -21.572826,7.163132 20.889518,0 0,2.528539 0,1.986349 c 0,0.913427 0,0.913427 -1.008279,0.913427 l -18.818268,0 c -1.062971,0 -1.062971,0 -1.062971,-0.989513 l 0,-2.468314 z" />
  </g>
</svg>
