<?xml version="1.0" encoding="UTF-8" standalone="no"?>
<!-- Created with Inkscape (http://www.inkscape.org/) -->

<svg
   xmlns:dc="http://purl.org/dc/elements/1.1/"
   xmlns:cc="http://creativecommons.org/ns#"
   xmlns:rdf="http://www.w3.org/1999/02/22-rdf-syntax-ns#"
   xmlns:svg="http://www.w3.org/2000/svg"
   xmlns="http://www.w3.org/2000/svg"
   xmlns:sodipodi="http://sodipodi.sourceforge.net/DTD/sodipodi-0.dtd"
   xmlns:inkscape="http://www.inkscape.org/namespaces/inkscape"
   width="48"
   height="48"
   id="svg2"
   version="1.1"
   inkscape:version="0.48.5 r10040"
   sodipodi:docname="deriv_func.svg">
  <defs
     id="defs4" />
  <sodipodi:namedview
     id="base"
     pagecolor="#ffffff"
     bordercolor="#666666"
     borderopacity="1.0"
     inkscape:pageopacity="0.0"
     inkscape:pageshadow="2"
     inkscape:zoom="9.226045"
     inkscape:cx="30.736876"
     inkscape:cy="31.045902"
     inkscape:document-units="px"
     inkscape:current-layer="layer1"
     showgrid="false"
     inkscape:window-width="1280"
     inkscape:window-height="670"
     inkscape:window-x="-2"
     inkscape:window-y="-3"
     inkscape:window-maximized="1">
    <inkscape:grid
       type="xygrid"
       id="grid3004" />
    <sodipodi:guide
       position="9,39.000017"
       orientation="30,0"
       id="guide3263" />
    <sodipodi:guide
       position="9,9.0000174"
       orientation="0,30"
       id="guide3265" />
    <sodipodi:guide
       position="39,9.0000174"
       orientation="-30,0"
       id="guide3267" />
    <sodipodi:guide
       position="39,39.000017"
       orientation="0,-30"
       id="guide3269" />
  </sodipodi:namedview>
  <metadata
     id="metadata7">
    <rdf:RDF>
      <cc:Work
         rdf:about="">
        <dc:format>image/svg+xml</dc:format>
        <dc:type
           rdf:resource="http://purl.org/dc/dcmitype/StillImage" />
        <dc:title />
      </cc:Work>
    </rdf:RDF>
  </metadata>
  <g
     inkscape:label="Capa 1"
     inkscape:groupmode="layer"
     id="layer1"
     transform="translate(0,-1004.3622)">
    <rect
       style="fill:#8c8c8c;fill-opacity:1;fill-rule:evenodd;stroke:none"
       id="rect3830"
       width="30.043842"
       height="30.087637"
       x="8.9671669"
       y="1013.2745"
       ry="1.3625971e-07" />
    <path
       inkscape:connector-curvature="0"
       id="path3027"
       d="m 14.503863,1021.5545 0,19.2785 17.179774,0 0,-19.2785 -17.179774,0 z m 8.886944,3.1256 c 1.098398,0 1.980377,0.4264 1.980377,0.9583 0,0.5317 -0.897163,0.9581 -2.029887,0.9581 -1.064074,0 -1.955622,-0.4429 -1.955622,-0.9581 0,-0.5319 0.906733,-0.9583 2.005132,-0.9583 z m 1.609056,4.1295 0,5.7037 0,0.6616 c 0,0.6648 0.368123,0.7758 2.599245,0.7758 l 0.247548,0 0,0.6159 -8.886944,0 0,-0.6159 0.247548,0 c 2.196797,0 2.57449,-0.111 2.57449,-0.7758 l 0,-0.6616 0,-3.9698 c 0,-0.7146 -0.215259,-0.8213 -1.485283,-0.8213 l -1.757585,0 0,-0.7301 6.460981,-0.1825 z"
       style="fill:none;fill-opacity:1;fill-rule:evenodd;stroke:none" />
    <g
       id="g3895"
       transform="translate(2.4562065,1.3946822)">
      <path
         sodipodi:nodetypes="cssc"
         transform="translate(0,1004.3622)"
         inkscape:connector-curvature="0"
         id="path3889"
         d="m 14.02557,30.832089 c -0.536498,2.989056 5.520079,6.710366 4.905117,-2.069346 -0.434985,-6.210209 -0.0309,1.027331 -0.766424,-12.952576 -0.35911,-6.8255294 5.748184,-6.2736868 5.901469,-1.609491"
         style="fill:none;stroke:#ffffff;stroke-width:2.5;stroke-linecap:butt;stroke-linejoin:miter;stroke-opacity:1;stroke-miterlimit:4;stroke-dasharray:none" />
      <path
         sodipodi:nodetypes="cc"
         transform="translate(0,1004.3622)"
         inkscape:connector-curvature="0"
         id="path3891"
         d="m 15.864989,22.401419 7.664246,0"
         style="fill:none;stroke:#ffffff;stroke-width:2.5;stroke-linecap:butt;stroke-linejoin:miter;stroke-opacity:1;stroke-miterlimit:4;stroke-dasharray:none" />
      <path
         style="fill:none;stroke:#ffffff;stroke-width:1px;stroke-linecap:butt;stroke-linejoin:miter;stroke-opacity:1"
         d="m 27.989023,1017.6204 -1.102044,4.1077"
         id="path3893"
         inkscape:connector-curvature="0"
         sodipodi:nodetypes="cc" />
    </g>
  </g>
</svg>
