<?xml version="1.0" encoding="UTF-8" standalone="no"?>
<!-- Created using Karbon, part of Calligra: http://www.calligra.org/karbon -->

<svg
   xmlns:dc="http://purl.org/dc/elements/1.1/"
   xmlns:cc="http://creativecommons.org/ns#"
   xmlns:rdf="http://www.w3.org/1999/02/22-rdf-syntax-ns#"
   xmlns:svg="http://www.w3.org/2000/svg"
   xmlns="http://www.w3.org/2000/svg"
   xmlns:sodipodi="http://sodipodi.sourceforge.net/DTD/sodipodi-0.dtd"
   xmlns:inkscape="http://www.inkscape.org/namespaces/inkscape"
   width="38.4pt"
   height="38.4pt"
   id="svg2"
   version="1.1"
   inkscape:version="0.48.4 r9939"
   sodipodi:docname="im-msn.svg">
  <metadata
     id="metadata13">
    <rdf:RDF>
      <cc:Work
         rdf:about="">
        <dc:format>image/svg+xml</dc:format>
        <dc:type
           rdf:resource="http://purl.org/dc/dcmitype/StillImage" />
        <dc:title />
      </cc:Work>
    </rdf:RDF>
  </metadata>
  <sodipodi:namedview
     pagecolor="#ffffff"
     bordercolor="#666666"
     borderopacity="1"
     objecttolerance="10"
     gridtolerance="10"
     guidetolerance="10"
     inkscape:pageopacity="0"
     inkscape:pageshadow="2"
     inkscape:window-width="959"
     inkscape:window-height="757"
     id="namedview11"
     showgrid="false"
     inkscape:zoom="11.721514"
     inkscape:cx="7.0237971"
     inkscape:cy="25.835304"
     inkscape:window-x="0"
     inkscape:window-y="0"
     inkscape:window-maximized="0"
     inkscape:current-layer="svg2">
    <sodipodi:guide
       position="9.5367432e-07,48.000001"
       orientation="47.999999,0"
       id="guide4071" />
    <sodipodi:guide
       position="9.5367432e-07,1.9073486e-06"
       orientation="0,47.999999"
       id="guide4073" />
    <sodipodi:guide
       position="48,1.9073486e-06"
       orientation="-47.999999,0"
       id="guide4075" />
    <sodipodi:guide
       position="48,48.000001"
       orientation="0,-47.999999"
       id="guide4077" />
    <sodipodi:guide
       position="9.000001,39.000001"
       orientation="29.999999,0"
       id="guide4079" />
    <sodipodi:guide
       position="9.000001,9.0000019"
       orientation="0,29.999999"
       id="guide4081" />
    <sodipodi:guide
       position="39,9.0000019"
       orientation="-29.999999,0"
       id="guide4083" />
    <sodipodi:guide
       position="39,39.000001"
       orientation="0,-29.999999"
       id="guide4085" />
  </sodipodi:namedview>
  <defs
     id="defs4" />
  <rect
     style="color:#000000;fill:#000080;fill-opacity:1;fill-rule:nonzero;stroke:none;stroke-width:0.89999998000000003;stroke-linecap:butt;stroke-linejoin:miter;stroke-miterlimit:4;stroke-opacity:1;stroke-dasharray:1.80000000000000004, 0.90000000000000002;stroke-dashoffset:0;marker:none;visibility:visible;display:inline;overflow:visible;enable-background:accumulate"
     id="rect2991"
     width="29.999998"
     height="30"
     x="9.000001"
     y="8.999999" />
  <g
     transform="matrix(1.2275888,0,0,1.2275888,-16.759511,-6.8945307)"
     id="g3830"
     style="fill:#28dd90;fill-opacity:1">
    <path
       sodipodi:type="arc"
       style="color:#000000;fill:#28dd90;fill-opacity:1;fill-rule:nonzero;stroke:none;stroke-width:0.89999998000000003;marker:none;visibility:visible;display:inline;overflow:visible;enable-background:accumulate"
       id="path3832"
       sodipodi:cx="29.006493"
       sodipodi:cy="19.84664"
       sodipodi:rx="4.4362869"
       sodipodi:ry="4.6922264"
       d="m 33.44278,19.84664 c 0,2.591445 -1.986194,4.692226 -4.436287,4.692226 -2.450094,0 -4.436287,-2.100781 -4.436287,-4.692226 0,-2.591445 1.986193,-4.692227 4.436287,-4.692227 2.450093,0 4.436287,2.100782 4.436287,4.692227 z" />
    <path
       style="color:#000000;fill:#28dd90;fill-opacity:1;fill-rule:nonzero;stroke:none;stroke-width:0.89999998000000003;marker:none;visibility:visible;display:inline;overflow:visible;enable-background:accumulate"
       d="m 29,23.6875 c -3.251086,0 -5.875,3.097449 -5.875,6.9375 0,1.302099 0.06051,1.240918 0.331871,3.5625 l 11.373448,0 c 0.184457,-1.979204 0.07593,-2.262526 0.07593,-3.5625 0,-3.840051 -2.655164,-6.9375 -5.906249,-6.9375 z"
       id="path3834"
       inkscape:connector-curvature="0"
       sodipodi:nodetypes="ssccss" />
  </g>
  <g
     id="g3826"
     transform="matrix(1.394448,0,0,1.394448,-11.024843,-9.9873487)"
     style="fill:#93c7d3;fill-opacity:1">
    <path
       d="m 33.44278,19.84664 c 0,2.591445 -1.986194,4.692226 -4.436287,4.692226 -2.450094,0 -4.436287,-2.100781 -4.436287,-4.692226 0,-2.591445 1.986193,-4.692227 4.436287,-4.692227 2.450093,0 4.436287,2.100782 4.436287,4.692227 z"
       sodipodi:ry="4.6922264"
       sodipodi:rx="4.4362869"
       sodipodi:cy="19.84664"
       sodipodi:cx="29.006493"
       id="path3819"
       style="color:#000000;fill:#93c7d3;fill-opacity:1;fill-rule:nonzero;stroke:none;stroke-width:0.89999998000000003;marker:none;visibility:visible;display:inline;overflow:visible;enable-background:accumulate"
       sodipodi:type="arc" />
    <path
       sodipodi:nodetypes="ssccss"
       inkscape:connector-curvature="0"
       id="path3821"
       d="m 29,23.6875 c -3.251086,0 -5.875,3.097449 -5.875,6.9375 0,1.302099 0.06051,1.240918 0.331871,3.5625 l 11.373448,0 c 0.184457,-1.979204 0.07593,-2.262526 0.07593,-3.5625 0,-3.840051 -2.655164,-6.9375 -5.906249,-6.9375 z"
       style="color:#000000;fill:#93c7d3;fill-opacity:1;fill-rule:nonzero;stroke:none;stroke-width:0.89999998000000003;marker:none;visibility:visible;display:inline;overflow:visible;enable-background:accumulate" />
  </g>
  <path
     style="fill:#ffd42a;stroke:none"
     d="m 11.346657,31.449237 c 0,0 -1.7431391,-4.982552 0.767816,-5.204106 2.900649,-0.255939 10.237585,6.739744 17.318582,6.057238 7.080999,-0.682506 9.395983,-1.732506 8.37256,-1.706264 -3.327215,0.08531 -8.20193,1.279698 -12.041025,0 -3.707151,-1.235717 -9.698985,-5.886612 -12.455729,-6.227865 -2.878677,-0.356347 -4.30886,1.706264 -4.30886,2.730023 0,1.023758 2.346656,4.350974 2.346656,4.350974 z"
     id="path3840"
     inkscape:connector-curvature="0"
     sodipodi:nodetypes="cssssssc" />
</svg>
