<?xml version="1.0" encoding="UTF-8" standalone="no"?>
<!-- Created with Inkscape (http://www.inkscape.org/) -->

<svg
   xmlns:dc="http://purl.org/dc/elements/1.1/"
   xmlns:cc="http://creativecommons.org/ns#"
   xmlns:rdf="http://www.w3.org/1999/02/22-rdf-syntax-ns#"
   xmlns:svg="http://www.w3.org/2000/svg"
   xmlns="http://www.w3.org/2000/svg"
   xmlns:sodipodi="http://sodipodi.sourceforge.net/DTD/sodipodi-0.dtd"
   xmlns:inkscape="http://www.inkscape.org/namespaces/inkscape"
   width="48"
   height="48"
   id="svg3380"
   version="1.1"
   inkscape:version="0.48.4 r9939"
   sodipodi:docname="mixer-capture.svg">
  <defs
     id="defs3382" />
  <sodipodi:namedview
     id="base"
     pagecolor="#ffffff"
     bordercolor="#666666"
     borderopacity="1.0"
     inkscape:pageopacity="0.0"
     inkscape:pageshadow="2"
     inkscape:zoom="10.172212"
     inkscape:cx="2.2912497"
     inkscape:cy="32.725083"
     inkscape:document-units="px"
     inkscape:current-layer="layer1"
     showgrid="false"
     fit-margin-top="0"
     fit-margin-left="0"
     fit-margin-right="0"
     fit-margin-bottom="0"
     inkscape:window-width="636"
     inkscape:window-height="455"
     inkscape:window-x="0"
     inkscape:window-y="0"
     inkscape:window-maximized="0"
     showguides="true">
    <sodipodi:guide
       position="9,38.999997"
       orientation="30,0"
       id="guide3264" />
    <sodipodi:guide
       position="9,8.9999974"
       orientation="0,30"
       id="guide3266" />
    <sodipodi:guide
       position="39,8.9999974"
       orientation="-30,0"
       id="guide3268" />
    <sodipodi:guide
       position="39,38.999997"
       orientation="0,-30"
       id="guide3270" />
  </sodipodi:namedview>
  <metadata
     id="metadata3385">
    <rdf:RDF>
      <cc:Work
         rdf:about="">
        <dc:format>image/svg+xml</dc:format>
        <dc:type
           rdf:resource="http://purl.org/dc/dcmitype/StillImage" />
        <dc:title></dc:title>
      </cc:Work>
    </rdf:RDF>
  </metadata>
  <g
     inkscape:label="Capa 1"
     inkscape:groupmode="layer"
     id="layer1"
     transform="translate(-336,-328.36218)">
    <path
       style="color:#000000;fill:#808080;fill-opacity:1;fill-rule:evenodd;stroke:none;stroke-width:0.80000000999999998;marker:none;visibility:visible;display:inline;overflow:visible;enable-background:accumulate"
       d="M 24 9.375 C 15.926717 9.375 9.375 15.926717 9.375 24 C 9.375 32.073283 15.926717 38.625 24 38.625 C 32.073283 38.625 38.625 32.073283 38.625 24 C 38.625 15.926717 32.073283 9.375 24 9.375 z M 24 21.4375 C 25.417447 21.4375 26.5625 22.582553 26.5625 24 C 26.5625 25.417447 25.417447 26.5625 24 26.5625 C 22.582553 26.5625 21.4375 25.417447 21.4375 24 C 21.4375 22.582553 22.582553 21.4375 24 21.4375 z "
       transform="translate(336,328.36218)"
       id="path3129" />
    <path
       style="color:#000000;fill:#b3b3b3;fill-opacity:1;fill-rule:evenodd;stroke:none;stroke-width:0.80000001;marker:none;visibility:visible;display:inline;overflow:visible;enable-background:accumulate"
       d="m 360,338.29525 c -7.64209,0 -13.84375,6.25165 -13.84375,13.95534 0,7.70369 6.20166,13.95534 13.84375,13.95534 7.64209,0 13.84375,-6.25165 13.84375,-13.95534 0,-7.70369 -6.20166,-13.95534 -13.84375,-13.95534 z m 0,10.58464 c 2.09536,0 3.78125,1.60322 3.78125,3.59122 0,1.98799 -1.68589,3.62271 -3.78125,3.62271 -2.09536,0 -3.8125,-1.63472 -3.8125,-3.62271 0,-1.988 1.71714,-3.59122 3.8125,-3.59122 z"
       id="path3134"
       inkscape:connector-curvature="0" />
    <path
       style="fill:#ffffff;stroke:none"
       d="m 12.609396,16.532303 7.699543,5.467791 c 0,0 0.336592,-0.991483 1.562226,-1.562226 l -4.12874,-8.480656 c 0,0 -2.716518,0.748186 -5.133029,4.575091 z"
       id="path3142"
       inkscape:connector-curvature="0"
       transform="translate(336,328.36218)"
       sodipodi:nodetypes="ccccc" />
    <path
       sodipodi:nodetypes="ccccc"
       inkscape:connector-curvature="0"
       id="path3912"
       d="m 367.03709,363.84797 -5.10473,-7.9449 c 0,0 1.00603,-0.29024 1.63301,-1.48807 l 8.28,4.51771 c 0,0 -0.8734,2.67888 -4.80828,4.91526 z"
       style="fill:#ffffff;stroke:none" />
  </g>
</svg>
