<?xml version="1.0" encoding="UTF-8" standalone="no"?>
<!-- Created with Inkscape (http://www.inkscape.org/) -->

<svg
   xmlns:dc="http://purl.org/dc/elements/1.1/"
   xmlns:cc="http://creativecommons.org/ns#"
   xmlns:rdf="http://www.w3.org/1999/02/22-rdf-syntax-ns#"
   xmlns:svg="http://www.w3.org/2000/svg"
   xmlns="http://www.w3.org/2000/svg"
   xmlns:sodipodi="http://sodipodi.sourceforge.net/DTD/sodipodi-0.dtd"
   xmlns:inkscape="http://www.inkscape.org/namespaces/inkscape"
   width="48"
   height="48"
   id="svg3813"
   version="1.1"
   inkscape:version="0.48.5 r10040"
   sodipodi:docname="smallclock.svg">
  <defs
     id="defs3815" />
  <sodipodi:namedview
     id="base"
     pagecolor="#ffffff"
     bordercolor="#666666"
     borderopacity="1.0"
     inkscape:pageopacity="0.0"
     inkscape:pageshadow="2"
     inkscape:zoom="11.477675"
     inkscape:cx="29.232841"
     inkscape:cy="18.597588"
     inkscape:document-units="px"
     inkscape:current-layer="layer1"
     showgrid="false"
     fit-margin-top="0"
     fit-margin-left="0"
     fit-margin-right="0"
     fit-margin-bottom="0"
     inkscape:window-width="1280"
     inkscape:window-height="670"
     inkscape:window-x="-2"
     inkscape:window-y="-3"
     inkscape:window-maximized="1">
    <sodipodi:guide
       position="9.0000072,38.999993"
       orientation="30,0"
       id="guide3264" />
    <sodipodi:guide
       position="9.0000072,8.9999929"
       orientation="0,30"
       id="guide3266" />
    <sodipodi:guide
       position="39.000007,8.9999929"
       orientation="-30,0"
       id="guide3268" />
    <sodipodi:guide
       position="39.000007,38.999993"
       orientation="0,-30"
       id="guide3270" />
  </sodipodi:namedview>
  <metadata
     id="metadata3818">
    <rdf:RDF>
      <cc:Work
         rdf:about="">
        <dc:format>image/svg+xml</dc:format>
        <dc:type
           rdf:resource="http://purl.org/dc/dcmitype/StillImage" />
        <dc:title />
      </cc:Work>
    </rdf:RDF>
  </metadata>
  <g
     inkscape:label="Capa 1"
     inkscape:groupmode="layer"
     id="layer1"
     transform="translate(-378.85714,-514.07647)">
    <path
       style="fill:#8c8c8c;fill-opacity:1;fill-rule:evenodd;stroke:none"
       d="m 402.85346,528.65251 c -2.46736,1.5e-4 -4.91841,1.01635 -6.66181,2.76093 -1.74339,1.74458 -2.75847,4.19604 -2.75847,6.66303 0,2.46699 1.01508,4.91845 2.75847,6.66303 1.7434,1.74458 4.19445,2.76078 6.66181,2.76093 2.46736,1.4e-4 4.91987,-1.01511 6.66549,-2.7597 1.74562,-1.74459 2.76215,-4.197 2.76215,-6.66426 0,-2.46726 -1.01653,-4.91967 -2.76215,-6.66426 -1.74562,-1.74459 -4.19813,-2.75984 -6.66549,-2.7597 z m 0,2.51306 c 1.80939,-1.1e-4 3.60855,0.74408 4.88868,2.02345 1.28012,1.27937 2.0259,3.07812 2.0259,4.88745 0,1.80933 -0.74578,3.60808 -2.0259,4.88745 -1.28013,1.27937 -3.07929,2.02356 -4.88868,2.02345 -1.8094,-1.1e-4 -3.60651,-0.74532 -4.885,-2.02468 -1.27849,-1.27936 -2.02222,-3.0771 -2.02222,-4.88622 0,-1.80912 0.74373,-3.60686 2.02222,-4.88622 1.27849,-1.27936 3.0756,-2.02457 4.885,-2.02468 z"
       id="path3272"
       inkscape:connector-curvature="0"
       sodipodi:nodetypes="ssssssssssssssssss" />
    <rect
       style="color:#000000;fill:#d40000;fill-opacity:1;fill-rule:evenodd;stroke:none;stroke-width:0.80000001;marker:none;visibility:visible;display:inline;overflow:visible;enable-background:accumulate"
       id="rect2987"
       width="2.0910158"
       height="5.9245448"
       x="23.175425"
       y="18.725779"
       transform="translate(378.85714,514.07647)" />
    <rect
       transform="matrix(0,1,-1,0,0,0)"
       y="-408.04034"
       x="536.71899"
       height="5.9245448"
       width="2.0910158"
       id="rect2989"
       style="color:#000000;fill:#d40000;fill-opacity:1;fill-rule:evenodd;stroke:none;stroke-width:0.80000001;marker:none;visibility:visible;display:inline;overflow:visible;enable-background:accumulate" />
  </g>
</svg>
