<?xml version="1.0" encoding="UTF-8" standalone="no"?>
<!-- Created with Inkscape (http://www.inkscape.org/) -->

<svg
   xmlns:dc="http://purl.org/dc/elements/1.1/"
   xmlns:cc="http://creativecommons.org/ns#"
   xmlns:rdf="http://www.w3.org/1999/02/22-rdf-syntax-ns#"
   xmlns:svg="http://www.w3.org/2000/svg"
   xmlns="http://www.w3.org/2000/svg"
   xmlns:sodipodi="http://sodipodi.sourceforge.net/DTD/sodipodi-0.dtd"
   xmlns:inkscape="http://www.inkscape.org/namespaces/inkscape"
   width="48"
   height="48"
   id="svg3613"
   version="1.1"
   inkscape:version="0.48.5 r10040"
   sodipodi:docname="configure.svg">
  <defs
     id="defs3615" />
  <sodipodi:namedview
     id="base"
     pagecolor="#ffffff"
     bordercolor="#666666"
     borderopacity="1.0"
     inkscape:pageopacity="0.0"
     inkscape:pageshadow="2"
     inkscape:zoom="7.721992"
     inkscape:cx="17.317838"
     inkscape:cy="23.203634"
     inkscape:document-units="px"
     inkscape:current-layer="layer1"
     showgrid="false"
     inkscape:window-width="1280"
     inkscape:window-height="670"
     inkscape:window-x="-2"
     inkscape:window-y="-3"
     inkscape:window-maximized="1">
    <sodipodi:guide
       position="9,39.000017"
       orientation="30,0"
       id="guide3269" />
    <sodipodi:guide
       position="9,9.0000174"
       orientation="0,30"
       id="guide3271" />
    <sodipodi:guide
       position="39,9.0000174"
       orientation="-30,0"
       id="guide3273" />
    <sodipodi:guide
       position="39,39.000017"
       orientation="0,-30"
       id="guide3275" />
  </sodipodi:namedview>
  <metadata
     id="metadata3618">
    <rdf:RDF>
      <cc:Work
         rdf:about="">
        <dc:format>image/svg+xml</dc:format>
        <dc:type
           rdf:resource="http://purl.org/dc/dcmitype/StillImage" />
        <dc:title />
      </cc:Work>
    </rdf:RDF>
  </metadata>
  <g
     inkscape:label="Capa 1"
     inkscape:groupmode="layer"
     id="layer1"
     transform="translate(0,-1004.3622)">
    <rect
       style="fill:none;stroke:none"
       id="rect3265"
       width="30.195869"
       height="30.171719"
       x="-744.93896"
       y="700.7442"
       transform="matrix(0.67897787,-0.73415874,0.72587901,0.68782241,0,0)" />
    <path
       inkscape:connector-curvature="0"
       style="fill:#8c8c8c;fill-opacity:1;stroke:none;stroke-width:0.50000000000000000;stroke-miterlimit:4;stroke-opacity:1;stroke-dasharray:none"
       d="m 21.911211,1021.944 -4.169866,5.0179 5.997053,5.596 4.192679,-4.9963 -6.019866,-5.6176 z m -0.264911,6.1184 1.87938,-2.0322 c 0.105172,-0.1137 0.279859,-0.1247 0.374718,-0.035 l 0.456271,0.4323 c 0.09486,0.09 0.07266,0.2454 -0.03251,0.3592 l -1.87938,2.0321 c -0.105172,0.1137 -0.257044,0.1464 -0.351904,0.057 l -0.456272,-0.4324 c -0.09486,-0.09 -0.09547,-0.267 0.0097,-0.3807 z"
       id="rect2921" />
    <path
       sodipodi:nodetypes="cssscccc"
       style="fill:#8c8c8c;fill-opacity:1;stroke:none;stroke-width:0.49999997000000002;stroke-miterlimit:4;stroke-opacity:1;stroke-dasharray:none"
       id="path2917"
       inkscape:connector-curvature="0"
       d="m 9.1334253,1018.8811 c -0.8211143,2.9038 -0.049086,6.1892 2.2377197,8.331 3.133046,2.9344 7.912585,2.6252 10.675325,-0.6906 2.762814,-3.3157 3.151794,-7.7294 0.01875,-10.6637 -2.286804,-2.1418 -5.879906,-2.9494 -8.496553,-1.7272 l 5.720713,5.4127 -4.501819,4.6875 z" />
    <path
       inkscape:connector-curvature="0"
       style="fill:#8c8c8c;fill-opacity:1;stroke:none"
       d="m 21.675477,1030.9931 c -0.31877,0.4886 -0.198834,1.1061 0.545607,1.8168 l 6.822711,6.5084 0.479085,0.4539 2.371153,2.2035 c 1.833336,1.7171 4.605497,1.5534 6.222164,-0.3867 1.616666,-1.9402 1.441023,-4.8941 -0.392312,-6.6112 l -2.349797,-2.2266 -0.500441,-0.4308 -6.454781,-6.0731 c -1.059799,-0.9915 -1.752866,-0.4443 -2.252677,0.075 l -4.31986,4.4858 c -0.06251,0.065 -0.125317,0.115 -0.170852,0.1848 z m 3.857372,0.3188 1.516318,-1.6396 c 0.313663,-0.3392 0.882733,-0.2901 1.308119,0.113 l 7.642543,7.2418 c 0.425386,0.4031 0.534052,0.9963 0.220389,1.3354 l -1.516317,1.6396 c -0.313663,0.3391 -0.905546,0.2685 -1.330933,-0.1346 l -7.642542,-7.2419 c -0.425387,-0.4031 -0.511239,-0.9746 -0.197577,-1.3137 z"
       id="rect2928" />
  </g>
</svg>
