<?xml version="1.0" encoding="UTF-8" standalone="no"?>
<!-- Created using Karbon, part of Calligra: http://www.calligra.org/karbon -->

<svg
   xmlns:dc="http://purl.org/dc/elements/1.1/"
   xmlns:cc="http://creativecommons.org/ns#"
   xmlns:rdf="http://www.w3.org/1999/02/22-rdf-syntax-ns#"
   xmlns:svg="http://www.w3.org/2000/svg"
   xmlns="http://www.w3.org/2000/svg"
   xmlns:sodipodi="http://sodipodi.sourceforge.net/DTD/sodipodi-0.dtd"
   xmlns:inkscape="http://www.inkscape.org/namespaces/inkscape"
   width="38.4pt"
   height="38.4pt"
   id="svg2"
   version="1.1"
   inkscape:version="0.48.5 r10040"
   sodipodi:docname="network-wired.svg">
  <metadata
     id="metadata10">
    <rdf:RDF>
      <cc:Work
         rdf:about="">
        <dc:format>image/svg+xml</dc:format>
        <dc:type
           rdf:resource="http://purl.org/dc/dcmitype/StillImage" />
        <dc:title />
      </cc:Work>
    </rdf:RDF>
  </metadata>
  <sodipodi:namedview
     pagecolor="#ffffff"
     bordercolor="#666666"
     borderopacity="1"
     objecttolerance="10"
     gridtolerance="10"
     guidetolerance="10"
     inkscape:pageopacity="0"
     inkscape:pageshadow="2"
     inkscape:window-width="1680"
     inkscape:window-height="988"
     id="namedview8"
     showgrid="false"
     inkscape:zoom="4.9166667"
     inkscape:cx="-42.813559"
     inkscape:cy="23.694915"
     inkscape:window-x="0"
     inkscape:window-y="-3"
     inkscape:window-maximized="1"
     inkscape:current-layer="layer1" />
  <defs
     id="defs4" />
  <g
     id="layer1">
    <rect
       style="color:#000000;fill:#27ae60;fill-opacity:1;fill-rule:nonzero;stroke:none;stroke-width:2.59999989999999981;marker:none;visibility:visible;display:inline;overflow:visible;enable-background:accumulate"
       id="rect2987"
       width="40.677967"
       height="39.864407"
       x="3.6610169"
       y="4.0677967"
       rx="0" />
  </g>
  <g
     id="network-wired-activated"
     transform="matrix(1.6207627,0,0,1.4664043,4.5508476,6.4031484)">
    <rect
       style="fill:#ffffff;fill-opacity:0;stroke:none"
       id="rect4614"
       width="24"
       height="24"
       x="0"
       y="0" />
    <path
       sodipodi:nodetypes="sssscccsssccssscccssssssssssssss"
       inkscape:connector-curvature="0"
       style="fill:#ffffff;fill-opacity:1;stroke:none"
       d="m 8.7852251,2.522436 c -1.6677204,0.010649 -3,1.3322517 -3,3 l 0,6.102903 c 0,1.667748 1.8047708,2.938988 3,2.916441 l 2.1769739,0.125339 7.49e-4,2.136701 c -1.1017604,0 -1.9999996,0.898239 -1.9999996,2 l -6,0 c -0.554,0 -1,0.446 -1,1 0,0.554 0.446,1 1,1 l 6,0 c 2.9555186,0.07788 3.0516046,-0.03803 5.9999996,0 l 6,0 c 0.554,0 1,-0.446 1,-1 0,-0.554 -0.446,-1 -1,-1 l -6,0 c 0,-1.101761 -0.898239,-2 -2,-2 l -7.48e-4,-2.136701 2.365978,-0.08356 c 1.666897,-0.05887 3,-1.332252 3,-3 l 0,-6.1029038 c 0,-1.6677483 -1.33228,-3.0106494 -3,-3 z m 0,2 6.5429519,-0.04178 c 0.553127,-0.00353 1,0.4468637 1,1 l 0,6.102904 c 0,0.553136 -0.446873,0.996468 -1,1 l -6.5429519,0.04178 c -0.5531272,0.0035 -1,-0.446864 -1,-1 l 0,-6.1029032 c 0,-0.5531363 0.446873,-0.9964688 1,-1.0000008 z"
       id="path4820" />
  </g>
  <rect
     style="opacity:1;color:#000000;fill:#ffffff;fill-opacity:1;fill-rule:evenodd;stroke:none;stroke-width:1.20000005000000010;marker:none;visibility:visible;display:inline;overflow:visible;enable-background:accumulate"
     id="rect2986"
     width="3.4576271"
     height="10.983051"
     x="22.169491"
     y="32.949154" />
</svg>
