<?xml version="1.0" encoding="UTF-8" standalone="no"?>
<svg
   xmlns:dc="http://purl.org/dc/elements/1.1/"
   xmlns:cc="http://creativecommons.org/ns#"
   xmlns:rdf="http://www.w3.org/1999/02/22-rdf-syntax-ns#"
   xmlns:svg="http://www.w3.org/2000/svg"
   xmlns="http://www.w3.org/2000/svg"
   xmlns:sodipodi="http://sodipodi.sourceforge.net/DTD/sodipodi-0.dtd"
   xmlns:inkscape="http://www.inkscape.org/namespaces/inkscape"
   viewBox="0 0 48 48"
   id="svg2"
   version="1.1"
   inkscape:version="0.91 r13725"
   sodipodi:docname="internet.svg">
  <metadata
     id="metadata63">
    <rdf:RDF>
      <cc:Work
         rdf:about="">
        <dc:format>image/svg+xml</dc:format>
        <dc:type
           rdf:resource="http://purl.org/dc/dcmitype/StillImage" />
        <dc:title></dc:title>
      </cc:Work>
    </rdf:RDF>
  </metadata>
  <sodipodi:namedview
     pagecolor="#ffffff"
     bordercolor="#666666"
     borderopacity="1"
     objecttolerance="10"
     gridtolerance="10"
     guidetolerance="10"
     inkscape:pageopacity="0"
     inkscape:pageshadow="2"
     inkscape:window-width="1366"
     inkscape:window-height="693"
     id="namedview61"
     showgrid="false"
     inkscape:zoom="4.9166667"
     inkscape:cx="69.050847"
     inkscape:cy="24"
     inkscape:window-x="0"
     inkscape:window-y="26"
     inkscape:window-maximized="1"
     inkscape:current-layer="svg2" />
  <defs
     id="defs4">
    <linearGradient
       id="linearGradient3764"
       x1="1"
       x2="47"
       gradientUnits="userSpaceOnUse"
       gradientTransform="matrix(0,-1,1,0,-1.5e-6,47.999998)">
      <stop
         style="stop-color:#575757;stop-opacity:1"
         id="stop7" />
      <stop
         offset="1"
         style="stop-color:#616161;stop-opacity:1"
         id="stop9" />
    </linearGradient>
    <clipPath
       id="clipPath-618118983">
      <g
         transform="translate(0,-1004.3622)"
         id="g12">
        <path
           d="m -24 13 c 0 1.105 -0.672 2 -1.5 2 -0.828 0 -1.5 -0.895 -1.5 -2 0 -1.105 0.672 -2 1.5 -2 0.828 0 1.5 0.895 1.5 2 z"
           transform="matrix(15.333333,0,0,11.5,414.99999,878.8622)"
           style="fill:#1890d0"
           id="path14" />
      </g>
    </clipPath>
    <clipPath
       id="clipPath-628792572">
      <g
         transform="translate(0,-1004.3622)"
         id="g17">
        <path
           d="m -24 13 c 0 1.105 -0.672 2 -1.5 2 -0.828 0 -1.5 -0.895 -1.5 -2 0 -1.105 0.672 -2 1.5 -2 0.828 0 1.5 0.895 1.5 2 z"
           transform="matrix(15.333333,0,0,11.5,414.99999,878.8622)"
           style="fill:#1890d0"
           id="path19" />
      </g>
    </clipPath>
  </defs>
  <g
     id="g21">
    <path
       d="m 36.31 5 c 5.859 4.062 9.688 10.831 9.688 18.5 c 0 12.426 -10.07 22.5 -22.5 22.5 c -7.669 0 -14.438 -3.828 -18.5 -9.688 c 1.037 1.822 2.306 3.499 3.781 4.969 c 4.085 3.712 9.514 5.969 15.469 5.969 c 12.703 0 23 -10.298 23 -23 c 0 -5.954 -2.256 -11.384 -5.969 -15.469 c -1.469 -1.475 -3.147 -2.744 -4.969 -3.781 z m 4.969 3.781 c 3.854 4.113 6.219 9.637 6.219 15.719 c 0 12.703 -10.297 23 -23 23 c -6.081 0 -11.606 -2.364 -15.719 -6.219 c 4.16 4.144 9.883 6.719 16.219 6.719 c 12.703 0 23 -10.298 23 -23 c 0 -6.335 -2.575 -12.06 -6.719 -16.219 z"
       style="opacity:0.05"
       id="path23" />
    <path
       d="m 41.28 8.781 c 3.712 4.085 5.969 9.514 5.969 15.469 c 0 12.703 -10.297 23 -23 23 c -5.954 0 -11.384 -2.256 -15.469 -5.969 c 4.113 3.854 9.637 6.219 15.719 6.219 c 12.703 0 23 -10.298 23 -23 c 0 -6.081 -2.364 -11.606 -6.219 -15.719 z"
       style="opacity:0.1"
       id="path25" />
    <path
       d="m 31.25 2.375 c 8.615 3.154 14.75 11.417 14.75 21.13 c 0 12.426 -10.07 22.5 -22.5 22.5 c -9.708 0 -17.971 -6.135 -21.12 -14.75 a 23 23 0 0 0 44.875 -7 a 23 23 0 0 0 -16 -21.875 z"
       style="opacity:0.2"
       id="path27" />
  </g>
  <g
     id="g29"
     style="fill:#ececec">
    <path
       d="m 24 1 c 12.703 0 23 10.297 23 23 c 0 12.703 -10.297 23 -23 23 -12.703 0 -23 -10.297 -23 -23 0 -12.703 10.297 -23 23 -23 z"
       style="fill:#ececec;fill-opacity:1"
       id="path31" />
  </g>
  <g
     id="g57">
    <path
       d="m 40.03 7.531 c 3.712 4.084 5.969 9.514 5.969 15.469 0 12.703 -10.297 23 -23 23 c -5.954 0 -11.384 -2.256 -15.469 -5.969 4.178 4.291 10.01 6.969 16.469 6.969 c 12.703 0 23 -10.298 23 -23 0 -6.462 -2.677 -12.291 -6.969 -16.469 z"
       style="opacity:0.1"
       id="path59" />
  </g>
  <g
     transform="matrix(0.93221415,0,0,0.94067823,1.6304129,-943.56126)"
     id="layer1"
     inkscape:label="Capa 1">
    <ellipse
       id="path3265"
       style="fill:none;fill-opacity:1;fill-rule:evenodd;stroke:none"
       cx="23.997576"
       cy="1048.8622"
       rx="3.502425"
       ry="3.5001078" />
    <ellipse
       style="fill:none;fill-opacity:1;fill-rule:evenodd;stroke:none"
       id="path3267"
       cx="23.997576"
       cy="1007.8622"
       rx="3.502425"
       ry="3.5001078" />
    <ellipse
       id="path3269"
       style="fill:none;fill-opacity:1;fill-rule:evenodd;stroke:none"
       cx="5.4961891"
       cy="1028.3622"
       rx="5.5038109"
       ry="5.5001693" />
    <ellipse
       style="fill:none;fill-opacity:1;fill-rule:evenodd;stroke:none"
       id="path3271"
       cx="42.496189"
       cy="1028.3622"
       rx="5.5038109"
       ry="5.5001693" />
    <ellipse
       style="fill:none;fill-opacity:1;fill-rule:evenodd;stroke:none"
       id="path3293"
       cx="23.997576"
       cy="1048.8622"
       rx="3.502425"
       ry="3.5001078" />
    <ellipse
       id="path3295"
       style="fill:none;fill-opacity:1;fill-rule:evenodd;stroke:none"
       cx="23.997576"
       cy="1007.8622"
       rx="3.502425"
       ry="3.5001078" />
    <ellipse
       style="fill:none;fill-opacity:1;fill-rule:evenodd;stroke:none"
       id="path3297"
       cx="5.4961891"
       cy="1028.3622"
       rx="5.5038109"
       ry="5.5001693" />
    <ellipse
       id="path3299"
       style="fill:none;fill-opacity:1;fill-rule:evenodd;stroke:none"
       cx="42.496189"
       cy="1028.3622"
       rx="5.5038109"
       ry="5.5001693" />
    <g
       transform="matrix(1.686369,0,0,1.9525138,-7.7060693,972.74554)"
       id="g3015">
      <rect
         id="shape1"
         stroke-miterlimit="2.00000000000"
         width="16.32048"
         height="1.7183038"
         x="10.580257"
         y="35.46471"
         style="fill:#4d4d4d;fill-rule:evenodd;stroke:#003bc3;stroke-width:0;stroke-linecap:square;stroke-linejoin:miter;stroke-miterlimit:2" />
      <rect
         id="shape2"
         transform="matrix(0,1,-1,0,0,0)"
         stroke-miterlimit="2.00000000000"
         width="7.2637377"
         height="2.1410315"
         x="29.893166"
         y="-19.854296"
         style="fill:#4d4d4d;fill-rule:evenodd;stroke:#003bc3;stroke-width:0;stroke-linecap:square;stroke-linejoin:miter;stroke-miterlimit:2" />
      <rect
         id="shape11"
         stroke-miterlimit="2.00000000000"
         width="7.79809"
         height="4.0703735"
         x="18.769802"
         y="19.819849"
         style="fill:#278a49;fill-opacity:1;fill-rule:evenodd;stroke:#003bc3;stroke-width:0;stroke-linecap:square;stroke-linejoin:miter;stroke-miterlimit:2" />
      <rect
         id="shape21"
         stroke-miterlimit="2.00000000000"
         width="7.79809"
         height="4.0703735"
         x="18.769802"
         y="24.399019"
         style="fill:#278a49;fill-opacity:1;fill-rule:evenodd;stroke:#003bc3;stroke-width:0;stroke-linecap:square;stroke-linejoin:miter;stroke-miterlimit:2" />
      <rect
         id="shape3"
         stroke-miterlimit="2.00000000000"
         width="7.79809"
         height="4.0703735"
         x="18.769802"
         y="28.978189"
         style="fill:#278a49;fill-opacity:1;fill-rule:evenodd;stroke:#003bc3;stroke-width:0;stroke-linecap:square;stroke-linejoin:miter;stroke-miterlimit:2" />
      <rect
         id="rect15"
         stroke-miterlimit="2.00000000000"
         width="7.7851276"
         height="4.0703754"
         x="11.009444"
         y="19.819931"
         style="fill:#27ae60;fill-opacity:1;fill-rule:evenodd;stroke:#003bc3;stroke-width:0;stroke-linecap:square;stroke-linejoin:miter;stroke-miterlimit:2" />
      <rect
         id="rect17"
         stroke-miterlimit="2.00000000000"
         width="7.7851276"
         height="4.0703754"
         x="11.009444"
         y="24.399183"
         style="fill:#27ae60;fill-opacity:1;fill-rule:evenodd;stroke:#003bc3;stroke-width:0;stroke-linecap:square;stroke-linejoin:miter;stroke-miterlimit:2" />
      <rect
         id="shape31"
         stroke-miterlimit="2.00000000000"
         width="7.7851276"
         height="4.0703754"
         x="11.009444"
         y="28.978271"
         style="fill:#27ae60;fill-opacity:1;fill-rule:evenodd;stroke:#003bc3;stroke-width:0;stroke-linecap:square;stroke-linejoin:miter;stroke-miterlimit:2" />
      <rect
         id="shape4"
         stroke-miterlimit="2.00000000000"
         width="1.2426618"
         height="2.4381588"
         x="11.546803"
         y="20.430439"
         style="fill:#ecf0f1;fill-opacity:0.8745098;fill-rule:evenodd;stroke:#003bc3;stroke-width:0;stroke-linecap:square;stroke-linejoin:miter;stroke-miterlimit:2" />
      <rect
         id="shape5"
         stroke-miterlimit="2.00000000000"
         width="1.2426618"
         height="2.4381588"
         x="11.546803"
         y="25.009609"
         style="fill:#ecf0f1;fill-opacity:0.8745098;fill-rule:evenodd;stroke:#003bc3;stroke-width:0;stroke-linecap:square;stroke-linejoin:miter;stroke-miterlimit:2" />
      <rect
         id="shape6"
         stroke-miterlimit="2.00000000000"
         width="1.2426618"
         height="2.4381588"
         x="11.580665"
         y="29.588779"
         style="fill:#ecf0f1;fill-opacity:0.8745098;fill-rule:evenodd;stroke:#003bc3;stroke-width:0;stroke-linecap:square;stroke-linejoin:miter;stroke-miterlimit:2" />
    </g>
  </g>
</svg>
