<?xml version="1.0" encoding="UTF-8" standalone="no"?>
<svg
   xmlns:dc="http://purl.org/dc/elements/1.1/"
   xmlns:cc="http://creativecommons.org/ns#"
   xmlns:rdf="http://www.w3.org/1999/02/22-rdf-syntax-ns#"
   xmlns:svg="http://www.w3.org/2000/svg"
   xmlns="http://www.w3.org/2000/svg"
   xmlns:sodipodi="http://sodipodi.sourceforge.net/DTD/sodipodi-0.dtd"
   xmlns:inkscape="http://www.inkscape.org/namespaces/inkscape"
   width="24"
   height="24"
   version="1.1"
   id="svg9"
   sodipodi:docname="autokey-status-error.svg"
   inkscape:version="0.92.3 (2405546, 2018-03-11)">
  <metadata
     id="metadata13">
    <rdf:RDF>
      <cc:Work
         rdf:about="">
        <dc:format>image/svg+xml</dc:format>
        <dc:type
           rdf:resource="http://purl.org/dc/dcmitype/StillImage" />
      </cc:Work>
    </rdf:RDF>
  </metadata>
  <sodipodi:namedview
     pagecolor="#ffffff"
     bordercolor="#666666"
     borderopacity="1"
     objecttolerance="10"
     gridtolerance="10"
     guidetolerance="10"
     inkscape:pageopacity="0"
     inkscape:pageshadow="2"
     inkscape:window-width="812"
     inkscape:window-height="480"
     id="namedview11"
     showgrid="false"
     inkscape:zoom="9.8333333"
     inkscape:cx="12"
     inkscape:cy="12"
     inkscape:window-x="0"
     inkscape:window-y="27"
     inkscape:window-maximized="0"
     inkscape:current-layer="svg9" />
  <defs
     id="defs3">
    <style
       id="current-color-scheme"
       type="text/css">
   .ColorScheme-Text { color:#d3dae3; } .ColorScheme-Highlight { color:#16a085; }
  </style>
  </defs>
  <g
     id="g7"
     style="fill:#ff0000">
    <path
       style="fill:#ff0000"
       class="ColorScheme-Highlight"
       d="M 4,17.203 4,17.75 C 4,18.962 5.0381,20 6.25,20 l 11.5,0 C 18.962,20 20,18.962 20,17.75 l 0,-0.547 C 19.468,17.688 18.775,18 18,18 L 6,18 C 5.2254,18 4.5316,17.688 4,17.203 Z M 12,6 c 0.216901,0 0.427709,0.1358 0.49605,0.35 l 0.87,2.6503 2.851,0 c 0.486625,0 0.688347,0.6862 0.293,0.9699 l -2.314,1.6662 0.88,2.7015 c 0.144289,0.4587 -0.378668,0.8438 -0.769,0.563 L 12,13.2204 9.7015499,14.9009 c -0.393805,0.2887 -0.9254452,-0.1003 -0.7695,-0.563 L 9.8226498,11.6264 7.52,9.951 C 7.1283687,9.6659 7.3290098,8.9992 7.81345,8.9998 l 2.8506,0 0.881,-2.6498 C 11.60945,6.1509 11.783098,6 12,6 Z M 7,4 C 5.9806772,3.9998 5.1139707,4.9871 5,6 L 4.0122243,14.779 C 3.8806145,15.964 4.8077628,17.0002 6,17 l 12,0 c 1.192117,0 2.120121,-1.0362 1.988524,-2.221 L 19,6 C 18.885957,4.9872 18.019208,4 17,4 Z"
       id="path5" />
  </g>
</svg>
