<?xml version="1.0" encoding="UTF-8" standalone="no"?>
<svg
   xmlns:dc="http://purl.org/dc/elements/1.1/"
   xmlns:cc="http://creativecommons.org/ns#"
   xmlns:rdf="http://www.w3.org/1999/02/22-rdf-syntax-ns#"
   xmlns:svg="http://www.w3.org/2000/svg"
   xmlns="http://www.w3.org/2000/svg"
   xmlns:sodipodi="http://sodipodi.sourceforge.net/DTD/sodipodi-0.dtd"
   xmlns:inkscape="http://www.inkscape.org/namespaces/inkscape"
   width="24"
   height="24"
   version="1"
   id="svg9"
   sodipodi:docname="firewall-applet-panic.svg"
   inkscape:version="0.92.3 (2405546, 2018-03-11)">
  <metadata
     id="metadata13">
    <rdf:RDF>
      <cc:Work
         rdf:about="">
        <dc:format>image/svg+xml</dc:format>
        <dc:type
           rdf:resource="http://purl.org/dc/dcmitype/StillImage" />
      </cc:Work>
    </rdf:RDF>
  </metadata>
  <sodipodi:namedview
     pagecolor="#ffffff"
     bordercolor="#666666"
     borderopacity="1"
     objecttolerance="10"
     gridtolerance="10"
     guidetolerance="10"
     inkscape:pageopacity="0"
     inkscape:pageshadow="2"
     inkscape:window-width="640"
     inkscape:window-height="480"
     id="namedview11"
     showgrid="false"
     inkscape:zoom="9.8333333"
     inkscape:cx="10.220339"
     inkscape:cy="12"
     inkscape:window-x="0"
     inkscape:window-y="27"
     inkscape:window-maximized="0"
     inkscape:current-layer="svg9" />
  <defs
     id="defs3">
    <style
       id="current-color-scheme"
       type="text/css">
   .ColorScheme-Text { color:#d3dae3; } .ColorScheme-Highlight { color:#16a085; }
  </style>
  </defs>
  <g
     transform="matrix(.046206 0 0 .045375 3.8524 3.9989)"
     id="g7"
     style="fill:#ff0000">
    <path
       style="fill:#ff0000"
       class="ColorScheme-Highlight"
       d="m10.924 3.0117-6.7697 1.9863c-0.0924 0.032-0.1543 0.4742-0.1543 0.5704 0 2.3721 0.6393 5.1166 1.7539 7.5256 0.9041 1.954 2.53 4.56 5.1411 5.881 0.033 0.016 0.069 0.025 0.105 0.025 0.03632 0 0.07225-0.0086 0.10547-0.02539 2.6105-1.3207 4.2364-3.9268 5.1406-5.8809 1.115-2.409 1.754-5.1539 1.754-7.5256 0-0.0962-0.062-0.5384-0.154-0.5704l-6.77-1.9863c-0.04972-0.017243-0.10263-0.017243-0.15234 0zm0.03125 2.9961c0.02841-0.0097 0.05948-0.0097 0.08789 0l3.8691 1.3184c0.053 0.018 0.088 0.065 0.088 0.1191 0 1.3341-0.36508 2.8773-1.002 4.2324-0.51672 1.0991-1.4458 2.5657-2.9375 3.3086-0.018 0.01-0.039 0.014-0.06 0.014s-0.042-0.004-0.061-0.014c-1.4913-0.742-2.4204-2.209-2.937-3.308-0.637-1.355-1.002-2.8984-1.002-4.2327 0-0.0541 0.0351-0.1011 0.0879-0.1191l3.8671-1.3184zm-0.955 0.9922v4h2v-4h-2zm0 5v2h2v-2h-2z"
       transform="matrix(21.642 0 0 22.039 -61.732 -66.091)"
       id="path5" />
  </g>
</svg>
