<?xml version="1.0" encoding="UTF-8" standalone="no"?>
<svg
   xmlns:dc="http://purl.org/dc/elements/1.1/"
   xmlns:cc="http://creativecommons.org/ns#"
   xmlns:rdf="http://www.w3.org/1999/02/22-rdf-syntax-ns#"
   xmlns:svg="http://www.w3.org/2000/svg"
   xmlns="http://www.w3.org/2000/svg"
   xmlns:sodipodi="http://sodipodi.sourceforge.net/DTD/sodipodi-0.dtd"
   xmlns:inkscape="http://www.inkscape.org/namespaces/inkscape"
   width="24"
   height="24"
   version="1.1"
   id="svg7"
   sodipodi:docname="mic-volume-muted.svg"
   inkscape:version="0.92.3 (2405546, 2018-03-11)">
  <metadata
     id="metadata11">
    <rdf:RDF>
      <cc:Work
         rdf:about="">
        <dc:format>image/svg+xml</dc:format>
        <dc:type
           rdf:resource="http://purl.org/dc/dcmitype/StillImage" />
      </cc:Work>
    </rdf:RDF>
  </metadata>
  <sodipodi:namedview
     pagecolor="#ffffff"
     bordercolor="#666666"
     borderopacity="1"
     objecttolerance="10"
     gridtolerance="10"
     guidetolerance="10"
     inkscape:pageopacity="0"
     inkscape:pageshadow="2"
     inkscape:window-width="813"
     inkscape:window-height="480"
     id="namedview9"
     showgrid="false"
     inkscape:zoom="9.8333333"
     inkscape:cx="10.067797"
     inkscape:cy="12"
     inkscape:window-x="0"
     inkscape:window-y="27"
     inkscape:window-maximized="0"
     inkscape:current-layer="svg7" />
  <defs
     id="defs3">
    <style
       id="current-color-scheme"
       type="text/css">
   .ColorScheme-Text { color:#d3dae3; } .ColorScheme-Highlight { color:#16a085; }
  </style>
  </defs>
  <path
     style="fill:#ff0000"
     class="ColorScheme-Highlight"
     d="m 12,3.99995 c -1.6621,0 -3,1.3381 -3,3 l 0,5.002 c 0,1.662 1.3379,2.998 3,2.998 1.6621,0 3,-1.3362 3,-2.998 l 0,-5.002 c 0,-1.6619 -1.338,-3 -3,-3 z m -6,7 0,0.99805 C 6,14.965 8,18 11,18 l 0,2 2,0 0,-2 c 3,0 5,-3.0356 5,-6.002 L 18,11 l -2,0 0,0.99805 c 0,2.234 -1.767,4.002 -4,4.002 -2.2334,0 -4,-1.768 -4,-4.002 l 0,-0.998 -2,0 z"
     id="path5" />
</svg>
