<?xml version="1.0" encoding="UTF-8" standalone="no"?>
<svg
   xmlns:dc="http://purl.org/dc/elements/1.1/"
   xmlns:cc="http://creativecommons.org/ns#"
   xmlns:rdf="http://www.w3.org/1999/02/22-rdf-syntax-ns#"
   xmlns:svg="http://www.w3.org/2000/svg"
   xmlns="http://www.w3.org/2000/svg"
   xmlns:sodipodi="http://sodipodi.sourceforge.net/DTD/sodipodi-0.dtd"
   xmlns:inkscape="http://www.inkscape.org/namespaces/inkscape"
   width="24"
   height="24"
   version="1.1"
   id="svg7"
   sodipodi:docname="ubuntuone-client-error.svg"
   inkscape:version="0.92.3 (2405546, 2018-03-11)">
  <metadata
     id="metadata11">
    <rdf:RDF>
      <cc:Work
         rdf:about="">
        <dc:format>image/svg+xml</dc:format>
        <dc:type
           rdf:resource="http://purl.org/dc/dcmitype/StillImage" />
      </cc:Work>
    </rdf:RDF>
  </metadata>
  <sodipodi:namedview
     pagecolor="#ffffff"
     bordercolor="#666666"
     borderopacity="1"
     objecttolerance="10"
     gridtolerance="10"
     guidetolerance="10"
     inkscape:pageopacity="0"
     inkscape:pageshadow="2"
     inkscape:window-width="787"
     inkscape:window-height="480"
     id="namedview9"
     showgrid="false"
     inkscape:zoom="9.8333333"
     inkscape:cx="0.61016949"
     inkscape:cy="12"
     inkscape:window-x="0"
     inkscape:window-y="27"
     inkscape:window-maximized="0"
     inkscape:current-layer="svg7" />
  <defs
     id="defs3">
    <style
       id="current-color-scheme"
       type="text/css">
   .ColorScheme-Text { color:#d3dae3; } .ColorScheme-Highlight { color:#16a085; }
  </style>
  </defs>
  <path
     style="fill:#ff0000"
     class="ColorScheme-Highlight"
     d="m10.03 6.0014c-0.3922 0.011-0.7926 0.084-1.1889 0.219-1.6926 0.5749-2.9688 2.2417-3.3472 4.3126-1.111 0.26797-2.0489 1.2479-2.3772 2.6557-0.46544 1.9998 0.50347 4.0625 2.158 4.6245 0.027025 0.008 0.035033 0.024 0.063059 0.031 0.2282 0.099 0.4934 0.156 0.7507 0.156h11.98c0.4294 0 0.82177-0.14698 1.1571-0.40595 1.3413-0.77391 2.074-2.6187 1.6576-4.4055-0.30729-1.3208-1.1681-2.2897-2.1901-2.6247-0.009-0.044 0.01001-0.08099 0-0.12499-0.465-1.9999-2.193-3.1558-3.847-2.5938-0.318 0.108-0.61 0.2549-0.876 0.4689-0.912-1.4808-2.394-2.3537-3.942-2.3127zm-1.032 3.9995h0.75071 0.031029c0.19118 0.008 0.36734 0.11199 0.50047 0.24997l1.7206 1.6878 1.7516-1.6878c0.19919-0.17198 0.3193-0.24297 0.50047-0.24997h0.75071v0.74991c0 0.21498-0.02603 0.41295-0.18818 0.56294l-1.7206 1.7188 1.6896 1.6878c0.14113 0.14198 0.21921 0.32896 0.21921 0.53094v0.74991h-0.75071c-0.19919 0-0.39037-0.07799-0.5315-0.21897l-1.719-1.689-1.721 1.688c-0.141 0.142-0.3329 0.219-0.5311 0.219h-0.75071v-0.74991c0-0.19898 0.078073-0.38996 0.21921-0.53094l1.7206-1.687-1.7206-1.719c-0.1571-0.142-0.2352-0.353-0.2192-0.563v-0.74991z"
     id="path5" />
</svg>
