<?xml version="1.0" encoding="UTF-8" standalone="no"?>
<!-- Created with Inkscape (http://www.inkscape.org/) -->

<svg
   xmlns:dc="http://purl.org/dc/elements/1.1/"
   xmlns:cc="http://creativecommons.org/ns#"
   xmlns:rdf="http://www.w3.org/1999/02/22-rdf-syntax-ns#"
   xmlns:svg="http://www.w3.org/2000/svg"
   xmlns="http://www.w3.org/2000/svg"
   xmlns:sodipodi="http://sodipodi.sourceforge.net/DTD/sodipodi-0.dtd"
   xmlns:inkscape="http://www.inkscape.org/namespaces/inkscape"
   width="48"
   height="48"
   id="svg865"
   version="1.1"
   inkscape:version="0.48.5 r10040"
   sodipodi:docname="folder-software.svg">
  <defs
     id="defs867" />
  <sodipodi:namedview
     id="base"
     pagecolor="#ffffff"
     bordercolor="#666666"
     borderopacity="1.0"
     inkscape:pageopacity="0.0"
     inkscape:pageshadow="2"
     inkscape:zoom="5.6568543"
     inkscape:cx="-49.61618"
     inkscape:cy="17.370401"
     inkscape:document-units="px"
     inkscape:current-layer="folderLayer"
     showgrid="false"
     inkscape:window-width="1280"
     inkscape:window-height="670"
     inkscape:window-x="-2"
     inkscape:window-y="-3"
     inkscape:window-maximized="1"
     borderlayer="true"
     inkscape:showpageshadow="false"
     showguides="false"
     inkscape:guide-bbox="true">
    <sodipodi:guide
       position="0,39.000017"
       orientation="30,0"
       id="guide4110" />
    <sodipodi:guide
       position="30,39.000017"
       orientation="0,-30"
       id="guide4116" />
    <sodipodi:guide
       position="30,9.0000174"
       orientation="0,18"
       id="guide4120" />
    <sodipodi:guide
       position="48,9.0000174"
       orientation="-30,0"
       id="guide4122" />
    <sodipodi:guide
       position="48,39.000017"
       orientation="0,-18"
       id="guide4124" />
    <sodipodi:guide
       position="4,41.000017"
       orientation="34,0"
       id="guide4164" />
    <sodipodi:guide
       position="22,41.000017"
       orientation="0,-18"
       id="guide4170" />
    <sodipodi:guide
       position="6,37.0002"
       orientation="27.999817,0"
       id="guide4174" />
    <sodipodi:guide
       position="6,9.0003836"
       orientation="0,35.999992"
       id="guide4176" />
    <sodipodi:guide
       position="41.999992,9.0003836"
       orientation="-27.999817,0"
       id="guide4178" />
    <sodipodi:guide
       position="41.999992,37.0002"
       orientation="0,-35.999992"
       id="guide4180" />
    <sodipodi:guide
       position="14,31.000017"
       orientation="20,0"
       id="guide4221" />
    <sodipodi:guide
       position="34,11.000017"
       orientation="-20,0"
       id="guide4225" />
    <sodipodi:guide
       position="34,31.000017"
       orientation="0,-20"
       id="guide4227" />
    <sodipodi:guide
       position="14,31.000017"
       orientation="11,0"
       id="guide4412" />
    <sodipodi:guide
       position="14,20.000017"
       orientation="6.123234e-17,1"
       id="guide4414" />
    <sodipodi:guide
       position="25,20.000017"
       orientation="-11,0"
       id="guide4416" />
    <sodipodi:guide
       position="25,31.000017"
       orientation="0,-11"
       id="guide4418" />
    <sodipodi:guide
       position="25,20.000017"
       orientation="9,0"
       id="guide4420" />
    <sodipodi:guide
       position="25,11.000017"
       orientation="0,9"
       id="guide4422" />
    <sodipodi:guide
       position="34,11.000017"
       orientation="-9,0"
       id="guide4424" />
    <sodipodi:guide
       position="34,20.000017"
       orientation="0,-9"
       id="guide4426" />
    <sodipodi:guide
       position="23.000001,35.000017"
       orientation="-1.9999999,0"
       id="guide4068" />
    <sodipodi:guide
       position="23.000001,37.000017"
       orientation="0,2"
       id="guide4070" />
    <sodipodi:guide
       position="25,37.000017"
       orientation="1.9999999,0"
       id="guide4072" />
    <sodipodi:guide
       position="25,35.000017"
       orientation="0,-2"
       id="guide4074" />
    <sodipodi:guide
       orientation="0,1"
       position="-5.0900019,45.012788"
       id="guide3049" />
    <sodipodi:guide
       orientation="0,1"
       position="14,5.0286766"
       id="guide3051" />
    <sodipodi:guide
       orientation="1,0"
       position="18.481902,18.990154"
       id="guide3071" />
  </sodipodi:namedview>
  <metadata
     id="metadata870">
    <rdf:RDF>
      <cc:Work
         rdf:about="">
        <dc:format>image/svg+xml</dc:format>
        <dc:type
           rdf:resource="http://purl.org/dc/dcmitype/StillImage" />
        <dc:title />
      </cc:Work>
    </rdf:RDF>
  </metadata>
  <g
     inkscape:groupmode="layer"
     id="folderLayer"
     inkscape:label="folder">
    <g
       transform="matrix(0.40654925,0,0,0.43822899,4.3676629,3.7626492)"
       style="fill:#8c8c8c;display:inline;fill-opacity:1"
       id="g3096">
      <g
         transform="matrix(1.6123654,0,0,1.5485704,-21.663959,-44.736942)"
         style="fill:#8c8c8c;fill-opacity:1"
         id="g3156">
        <path
           style="fill:#8c8c8c;fill-opacity:1;fill-rule:evenodd"
           d="m 30.320936,57.256238 2.03195,0.01269 1.35463,2.620223 -4.74121,-0.02962 z"
           id="path3006"
           inkscape:connector-curvature="0" />
        <path
           style="fill:#8c8c8c;fill-opacity:1;fill-rule:evenodd"
           d="m 30.316596,82.675965 2.02544,0 1.35029,-2.60339 -4.72602,0 z"
           id="path3010"
           inkscape:connector-curvature="0" />
        <path
           style="fill:#8c8c8c;fill-opacity:1;fill-rule:evenodd"
           d="m 41.405996,63.095079 1.00327,1.748165 -1.16588,2.115583 -2.34098,-4.079052 z"
           id="path3014"
           inkscape:connector-curvature="0" />
        <path
           style="fill:#8c8c8c;fill-opacity:1;fill-rule:evenodd"
           d="m 20.234546,75.094257 1.01824,1.753925 2.52011,0.204071 -2.3759,-4.092473 z"
           id="path3018"
           inkscape:connector-curvature="0" />
        <path
           style="fill:#8c8c8c;fill-opacity:1;fill-rule:evenodd"
           d="m 42.409516,75.073896 -1.00023,1.758761 -2.51227,0.225936 2.33389,-4.103748 z"
           id="path3022"
           inkscape:connector-curvature="0" />
        <path
           style="fill:#8c8c8c;fill-opacity:1;fill-rule:evenodd"
           d="m 21.291906,63.062996 -1.01485,1.733009 1.14316,2.117983 2.36797,-4.043677 z"
           id="path3026"
           inkscape:connector-curvature="0" />
        <path
           style="fill:#8c8c8c;fill-opacity:1"
           d="m 31.322306,59.844675 c -2.64801,1.57e-4 -5.27849,1.09074 -7.1495,2.96303 -1.87102,1.87229 -2.9604,4.50321 -2.9604,7.15077 0,2.6476 1.08938,5.2785 2.9604,7.1508 1.87101,1.8723 4.50149,2.9629 7.1495,2.963 2.6479,2e-4 5.28,-1.0894 7.1534,-2.9617 1.8734,-1.8722 2.9643,-4.5042 2.9643,-7.1521 0,-2.64786 -1.0909,-5.27978 -2.9643,-7.15209 -1.8734,-1.87229 -4.5055,-2.961867 -7.1534,-2.96171 z m 10e-4,4.04553 c 1.5888,-1e-4 3.1677,0.65444 4.2918,1.77782 1.124,1.12338 1.7791,2.70176 1.7791,4.29045 0,1.5887 -0.6551,3.1671 -1.7791,4.2905 -1.1241,1.1234 -2.703,1.7779 -4.2918,1.7778 -1.58879,-1e-4 -3.16788,-0.6544 -4.29049,-1.7778 -1.12261,-1.1234 -1.77518,-2.7019 -1.77518,-4.2905 0,-1.58853 0.65257,-3.16708 1.77518,-4.29045 1.12261,-1.12337 2.7017,-1.77773 4.29049,-1.77782 z"
           id="path3030"
           inkscape:connector-curvature="0" />
      </g>
      <g
         id="g3092"
         style="fill:#8c8c8c;fill-opacity:1"
         transform="matrix(2.1515882,0,0,2.1514679,-5.628974,-114.11786)">
        <path
           inkscape:connector-curvature="0"
           id="path3094"
           d="m 30.320936,57.256238 2.03195,0.01269 1.35463,2.620223 -4.74121,-0.02962 z"
           style="fill:#8c8c8c;fill-opacity:1;fill-rule:evenodd" />
        <path
           inkscape:connector-curvature="0"
           id="path3096"
           d="m 30.316596,82.675965 2.02544,0 1.35029,-2.60339 -4.72602,0 z"
           style="fill:#8c8c8c;fill-opacity:1;fill-rule:evenodd" />
        <path
           inkscape:connector-curvature="0"
           id="path3098"
           d="m 41.405996,63.095079 1.00327,1.748165 -1.16588,2.115583 -2.34098,-4.079052 z"
           style="fill:#8c8c8c;fill-opacity:1;fill-rule:evenodd" />
        <path
           inkscape:connector-curvature="0"
           id="path3100"
           d="m 20.234546,75.094257 1.01824,1.753925 2.52011,0.204071 -2.3759,-4.092473 z"
           style="fill:#8c8c8c;fill-opacity:1;fill-rule:evenodd" />
        <path
           inkscape:connector-curvature="0"
           id="path3102"
           d="m 42.409516,75.073896 -1.00023,1.758761 -2.51227,0.225936 2.33389,-4.103748 z"
           style="fill:#8c8c8c;fill-opacity:1;fill-rule:evenodd" />
        <path
           inkscape:connector-curvature="0"
           id="path3104"
           d="m 21.291906,63.062996 -1.01485,1.733009 1.14316,2.117983 2.36797,-4.043677 z"
           style="fill:#8c8c8c;fill-opacity:1;fill-rule:evenodd" />
        <path
           inkscape:connector-curvature="0"
           id="path3106"
           d="m 31.322306,59.844675 c -2.64801,1.57e-4 -5.27849,1.09074 -7.1495,2.96303 -1.87102,1.87229 -2.9604,4.50321 -2.9604,7.15077 0,2.6476 1.08938,5.2785 2.9604,7.1508 1.87101,1.8723 4.50149,2.9629 7.1495,2.963 2.6479,2e-4 5.28,-1.0894 7.1534,-2.9617 1.8734,-1.8722 2.9643,-4.5042 2.9643,-7.1521 0,-2.64786 -1.0909,-5.27978 -2.9643,-7.15209 -1.8734,-1.87229 -4.5055,-2.961867 -7.1534,-2.96171 z m 10e-4,4.04553 c 1.5888,-1e-4 3.1677,0.65444 4.2918,1.77782 1.124,1.12338 1.7791,2.70176 1.7791,4.29045 0,1.5887 -0.6551,3.1671 -1.7791,4.2905 -1.1241,1.1234 -2.703,1.7779 -4.2918,1.7778 -1.58879,-1e-4 -3.16788,-0.6544 -4.29049,-1.7778 -1.12261,-1.1234 -1.77518,-2.7019 -1.77518,-4.2905 0,-1.58853 0.65257,-3.16708 1.77518,-4.29045 1.12261,-1.12337 2.7017,-1.77773 4.29049,-1.77782 z"
           style="fill:#8c8c8c;fill-opacity:1" />
      </g>
    </g>
  </g>
</svg>
