<?xml version="1.0" encoding="UTF-8" standalone="no"?>
<svg
   xmlns:dc="http://purl.org/dc/elements/1.1/"
   xmlns:cc="http://creativecommons.org/ns#"
   xmlns:rdf="http://www.w3.org/1999/02/22-rdf-syntax-ns#"
   xmlns:svg="http://www.w3.org/2000/svg"
   xmlns="http://www.w3.org/2000/svg"
   xmlns:sodipodi="http://sodipodi.sourceforge.net/DTD/sodipodi-0.dtd"
   xmlns:inkscape="http://www.inkscape.org/namespaces/inkscape"
   width="64"
   viewBox="0 0 64 64"
   height="64"
   id="svg2"
   version="1.1"
   inkscape:version="0.91 r13725"
   sodipodi:docname="libreoffice-drawing-template.svg">
  <metadata
     id="metadata14">
    <rdf:RDF>
      <cc:Work
         rdf:about="">
        <dc:format>image/svg+xml</dc:format>
        <dc:type
           rdf:resource="http://purl.org/dc/dcmitype/StillImage" />
        <dc:title />
      </cc:Work>
    </rdf:RDF>
  </metadata>
  <defs
     id="defs12">
    <clipPath
       clipPathUnits="userSpaceOnUse"
       id="clipPath4157">
      <path
         d="m 27.642964,3.2951379 13.085584,13.0855841 -11.072418,0 c -0.977824,0 -2.013166,-1.035372 -2.013166,-2.013167 l 0,-11.0724171 z"
         id="path4159"
         inkscape:connector-curvature="0"
         style="fill:#f9f8f2;fill-opacity:1;stroke-width:1.00658333" />
    </clipPath>
  </defs>
  <sodipodi:namedview
     pagecolor="#ffffff"
     bordercolor="#666666"
     borderopacity="1"
     objecttolerance="10"
     gridtolerance="10"
     guidetolerance="10"
     inkscape:pageopacity="0"
     inkscape:pageshadow="2"
     inkscape:window-width="1920"
     inkscape:window-height="996"
     id="namedview10"
     showgrid="true"
     inkscape:zoom="11.313708"
     inkscape:cx="-24.227308"
     inkscape:cy="24.190819"
     inkscape:window-x="-4"
     inkscape:window-y="0"
     inkscape:window-maximized="1"
     inkscape:current-layer="svg2"
     inkscape:snap-bbox="true"
     inkscape:bbox-nodes="true"
     inkscape:object-nodes="true"
     borderlayer="false"
     showguides="false">
    <inkscape:grid
       type="xygrid"
       id="grid4160"
       visible="true" />
  </sodipodi:namedview>
  <g
     id="g4174"
     transform="matrix(0.13425926,0,0,0.13425926,-1.8703707,-2.3703705)">
    <path
       sodipodi:nodetypes="sccssssss"
       inkscape:connector-curvature="0"
       id="path4172"
       d="m 111.68966,39.999999 200.17241,2e-6 107.99807,111.724139 0,293.27586 c 0,14.958 -12.042,27 -27,27 l -281.17048,0 C 96.731656,472 84.689656,459.958 84.689656,445 l 0,-378.000001 c 0,-14.958 12.042,-27 27.000004,-27 z"
       style="fill:#96a6a6;fill-opacity:1;fill-rule:evenodd;stroke:none;stroke-width:1.19299817px;stroke-linecap:butt;stroke-linejoin:miter;stroke-opacity:1" />
    <path
       inkscape:connector-curvature="0"
       id="rect4167"
       d="M 419.86014,151.72414 311.86207,40.000001 l -0.002,84.724139 c -3.4e-4,14.958 12.042,27 27,27 z"
       style="fill:#000000;fill-opacity:0.17647059;fill-rule:evenodd;stroke:none;stroke-width:1.19299817px;stroke-linecap:butt;stroke-linejoin:miter;stroke-opacity:1"
       sodipodi:nodetypes="ccssc" />
  </g>
  <path
     inkscape:connector-curvature="0"
     style="fill:#f7f7f7;fill-opacity:1"
     d="m 41.7548,35.941155 c -0.192133,0 -0.373511,0.04648 -0.535822,0.127266 L 37.259956,31.9542 c 0.223667,-0.349796 0.343933,-0.760047 0.343933,-1.189609 0,-1.189352 -0.931089,-2.156944 -2.075578,-2.156944 -0.4224,0 -0.815711,0.132096 -1.143755,0.358434 l -3.96,-4.115237 c 0.07773,-0.168928 0.122467,-0.357162 0.122467,-0.556827 0,-0.714832 -0.557579,-1.294013 -1.245201,-1.294013 -0.687866,0 -1.2452,0.579436 -1.2452,1.294013 0,0.714578 0.557578,1.294014 1.2452,1.294014 0.192134,0 0.373267,-0.04648 0.535822,-0.127268 l 2.8468,2.9584 c -1.068955,-0.443026 -2.213932,-0.674189 -3.382377,-0.674189 -1.715023,0 -3.377,0.495097 -4.823378,1.431949 -0.3696,-0.353095 -0.862645,-0.569275 -1.403111,-0.569275 C 21.931089,28.607905 21,29.575494 21,30.764592 c 0,1.189101 0.931089,2.156943 2.075578,2.156943 1.144489,0 2.075578,-0.967589 2.075578,-2.156943 0,-0.316264 -0.06649,-0.616775 -0.184556,-0.887569 1.302644,-0.830923 2.795711,-1.269118 4.335711,-1.269118 1.538778,0 3.032822,0.439212 4.335222,1.269627 -0.118066,0.270793 -0.184311,0.57105 -0.184311,0.88706 0,1.189354 0.931089,2.156943 2.075578,2.156943 0.299689,0 0.588867,-0.06757 0.854089,-0.192298 0.799578,1.35371 1.221489,2.905563 1.221489,4.505931 0,1.232029 -0.242489,2.414019 -0.720623,3.520815 -0.167444,-0.04573 -0.343444,-0.06987 -0.524577,-0.06987 -1.144489,0 -2.075578,0.967592 -2.075578,2.156944 0,1.189355 0.931089,2.156943 2.075578,2.156943 1.144489,0 2.075578,-0.967588 2.075578,-2.156943 0,-0.692985 -0.316556,-1.310271 -0.806667,-1.705028 0.528489,-1.21882 0.806667,-2.557545 0.806667,-3.902617 0,-1.21501 -0.2222,-2.404619 -0.648756,-3.514971 l 2.846556,2.958144 c -0.07773,0.168928 -0.122467,0.357162 -0.122467,0.556827 0,0.714834 0.557578,1.294016 1.2452,1.294016 C 42.442911,38.529432 43,37.949996 43,37.235163 43,36.520332 42.442422,35.941149 41.7548,35.941149 Z M 23.075578,32.058861 c -0.686645,0 -1.2452,-0.580451 -1.2452,-1.294013 0,-0.713565 0.558555,-1.294015 1.2452,-1.294015 0.686644,0 1.2452,0.58045 1.2452,1.294015 0,0.713562 -0.558556,1.294013 -1.2452,1.294013 z m 13.282866,12.07822 c -0.686644,0 -1.2452,-0.580454 -1.2452,-1.294015 0,-0.713561 0.558556,-1.294011 1.2452,-1.294011 0.686645,0 1.245201,0.58045 1.245201,1.294011 2.44e-4,0.713561 -0.558556,1.294015 -1.245201,1.294015 z"
     id="path13"
     sodipodi:nodetypes="sccssccssssccsccssscscsscscsssscsccsssssssssssscs" />
</svg>
