<?xml version="1.0" encoding="UTF-8" standalone="no"?>
<!-- Created with Inkscape (http://www.inkscape.org/) -->

<svg
   xmlns:dc="http://purl.org/dc/elements/1.1/"
   xmlns:cc="http://creativecommons.org/ns#"
   xmlns:rdf="http://www.w3.org/1999/02/22-rdf-syntax-ns#"
   xmlns:svg="http://www.w3.org/2000/svg"
   xmlns="http://www.w3.org/2000/svg"
   xmlns:sodipodi="http://sodipodi.sourceforge.net/DTD/sodipodi-0.dtd"
   xmlns:inkscape="http://www.inkscape.org/namespaces/inkscape"
   width="64"
   height="64"
   id="svg3809"
   version="1.1"
   inkscape:version="0.91 r13725"
   sodipodi:docname="dialog-question.svg">
  <defs
     id="defs3811" />
  <sodipodi:namedview
     id="base"
     pagecolor="#ffffff"
     bordercolor="#666666"
     borderopacity="1.0"
     inkscape:pageopacity="0.0"
     inkscape:pageshadow="2"
     inkscape:zoom="5.6568542"
     inkscape:cx="36.111892"
     inkscape:cy="21.598731"
     inkscape:document-units="px"
     inkscape:current-layer="layer1"
     showgrid="true"
     fit-margin-top="0"
     fit-margin-left="0"
     fit-margin-right="0"
     fit-margin-bottom="0"
     inkscape:snap-bbox="true"
     inkscape:window-width="1366"
     inkscape:window-height="688"
     inkscape:window-x="-4"
     inkscape:window-y="0"
     inkscape:window-maximized="1"
     inkscape:showpageshadow="true"
     borderlayer="true"
     showguides="true">
    <inkscape:grid
       type="xygrid"
       id="grid3830"
       empspacing="5"
       visible="true"
       enabled="true"
       snapvisiblegridlinesonly="true"
       originx="21.000002"
       originy="20.999999" />
  </sodipodi:namedview>
  <metadata
     id="metadata3814">
    <rdf:RDF>
      <cc:Work
         rdf:about="">
        <dc:format>image/svg+xml</dc:format>
        <dc:type
           rdf:resource="http://purl.org/dc/dcmitype/StillImage" />
        <dc:title></dc:title>
      </cc:Work>
    </rdf:RDF>
  </metadata>
  <g
     inkscape:label="Layer 1"
     inkscape:groupmode="layer"
     id="layer1"
     transform="translate(-736.85718,-157.93361)">
    <circle
       style="fill:#9b59b6;fill-opacity:1"
       id="path4167"
       cx="768.85718"
       cy="189.93361"
       r="26" />
    <g
       id="g4150"
       transform="translate(-24,-58)"
       style="fill:#ffffff">
      <path
         id="rect4169"
         d="m 792.85718,235.93361 c -1.94444,0 -3.76,0.68188 -5.03906,1.96094 -1.27906,1.27906 -1.96094,3.09462 -1.96094,5.03906 l 4,0 c 0,-1.05555 0.31813,-1.74 0.78906,-2.21094 0.47094,-0.47094 1.15539,-0.78906 2.21094,-0.78906 1.05556,0 1.74,0.31812 2.21094,0.78906 0.47094,0.47094 0.78906,1.15539 0.78906,2.21094 0,0.91667 -0.1807,1.30664 -0.42188,1.65234 -0.24118,0.34569 -0.63626,0.67215 -1.2246,1.08399 -0.58835,0.41184 -1.36988,0.88627 -2.0918,1.72851 -0.72192,0.84224 -1.26172,2.1185 -1.26172,3.53516 l 0,1 4,0 0,-1 c 0,-0.58333 0.0832,-0.68208 0.29883,-0.93359 0.21558,-0.25151 0.68599,-0.58959 1.34765,-1.05274 0.66165,-0.46316 1.51657,-1.0742 2.21289,-2.07226 0.69632,-0.99806 1.14063,-2.35807 1.14063,-3.94141 0,-1.94444 -0.68187,-3.76 -1.96094,-5.03906 -1.27906,-1.27906 -3.09461,-1.96094 -5.03906,-1.96094 z m -2,20 0,4 4,0 0,-4 -4,0 z"
         style="opacity:1;fill:#ffffff;fill-opacity:1;stroke:none;stroke-width:2;stroke-linecap:round;stroke-linejoin:round;stroke-miterlimit:4;stroke-dasharray:none;stroke-opacity:1"
         inkscape:connector-curvature="0" />
    </g>
  </g>
</svg>
