<svg xmlns="http://www.w3.org/2000/svg" width="48" height="48">
<defs>
    <path
         d="M 27,3.5 C 25.692308,3.5 22.5,4.4896249 22.5,7 C 22.5,8.3207666 23.528896,9.915899 23.5,12.5 L 14.5,12.5 L 14.5,24.5 C 11.843751,24.540605 9.848557,21.459395 8.5,21.5 C 5.9747718,21.578412 5.5000003,24.289856 5.5000003,25.589222 C 5.5000003,29.487321 6.973561,30.489512 9.5,30.5 C 11.338942,30.5 11.271635,29.459395 14.5,29.5 L 14.5,42.5 L 24.5,42.5 C 24.5,39.251585 21.5,38.6 21.5,36 C 21.5,34.050951 22.538462,33.5 24.5,33.5 C 27.688547,33.5 30.5,33.9 30.5,36.5 C 30.5,38.097864 29.5,39.901268 29.5,42.5 L 39.5,42.5 L 39.5,26.5 C 35.501001,26.5 35,28.5 33,28.5 C 30.473548,28.5 28.5,26.898098 28.5,23 C 28.5,21 29.973543,19.5 32.5,19.5 C 35.115385,19.5 34.845719,21.5 39.5,21.5 L 39.5,12.5 L 28.5,12.5 C 28.453326,9.312941 31.51813,7.9524274 31.5,6 C 31.456536,3.4900017 28.961538,3.5 27,3.5 z "
       id="path-main"
       sodipodi:nodetypes="cscccssccccssscccsssccccc" />
</defs>
<acyl-settings>
<linearGradient
     id="linearGradient4321">
    <stop
       style="stop-color:#00F6FF;stop-opacity:1.0;"
       offset="0.0"
       id="stop1" />
    <stop
       style="stop-color:#00F6FF;stop-opacity:1.0;"
       offset="1.0"
       id="stop2" />
  </linearGradient>
<linearGradient
     inkscape:collect="always"
     xlink:href="#linearGradient4321"
     id="acyl_gradient"
     x1="91.0%"
     y1="22.0%"
     x2="88.0%"
     y2="82.0%" />
<filter id="filter1111" x="-50%" y="-50%" width="200%" height="200%">
	<feImage
	id="feImage2"
	xlink:href="#1"
	result="result1" />
	<feComposite
	id="feComposite3633"
	in="result1"
	in2="SourceAlpha"
	operator="out" />
</filter>
<defs>
<use id="1" transform="translate(22.5,22.5) scale(1) translate(-22.5,-22.5)" style="stroke-opacity:1;stroke:url(#acyl_gradient);stroke-width:4" xlink:href="#path-main" />
</defs>
<use id="2" transform="translate(22.5,22.5) scale(1) translate(-22.5,-22.5)" style="fill:url(#acyl_gradient);filter:url(#filter1111)" xlink:href="#path-main" />
</acyl-settings>
</svg>
