<?xml version="1.0" encoding="UTF-8" standalone="no"?>
<svg
   xmlns:dc="http://purl.org/dc/elements/1.1/"
   xmlns:cc="http://creativecommons.org/ns#"
   xmlns:rdf="http://www.w3.org/1999/02/22-rdf-syntax-ns#"
   xmlns:svg="http://www.w3.org/2000/svg"
   xmlns="http://www.w3.org/2000/svg"
   xmlns:sodipodi="http://sodipodi.sourceforge.net/DTD/sodipodi-0.dtd"
   xmlns:inkscape="http://www.inkscape.org/namespaces/inkscape"
   version="1.1"
   viewBox="0 0 48 48"
   id="svg27"
   sodipodi:docname="dino.svg"
   inkscape:version="0.92.3 (2405546, 2018-03-11)">
  <metadata
     id="metadata31">
    <rdf:RDF>
      <cc:Work
         rdf:about="">
        <dc:format>image/svg+xml</dc:format>
        <dc:type
           rdf:resource="http://purl.org/dc/dcmitype/StillImage" />
      </cc:Work>
    </rdf:RDF>
  </metadata>
  <sodipodi:namedview
     pagecolor="#ffffff"
     bordercolor="#666666"
     borderopacity="1"
     objecttolerance="10"
     gridtolerance="10"
     guidetolerance="10"
     inkscape:pageopacity="0"
     inkscape:pageshadow="2"
     inkscape:window-width="1920"
     inkscape:window-height="994"
     id="namedview29"
     showgrid="false"
     inkscape:zoom="4.9166667"
     inkscape:cx="1.6271186"
     inkscape:cy="24"
     inkscape:window-x="0"
     inkscape:window-y="27"
     inkscape:window-maximized="1"
     inkscape:current-layer="svg27" />
  <defs
     id="defs7">
    <linearGradient
       id="linearGradient3764"
       x1="1"
       x2="47"
       gradientTransform="matrix(0 -1 1 0 -1.5e-6 48)"
       gradientUnits="userSpaceOnUse">
      <stop
         style="stop-color:#99cf70"
         offset="0"
         id="stop2" />
      <stop
         style="stop-color:#a4d480"
         offset="1"
         id="stop4" />
    </linearGradient>
  </defs>
  <path
     d="m 39.790842,2.7551157 c 3.716949,4.6389753 5.98187,10.8098543 5.991802,17.5838303 0.02119,14.450011 -10.253469,26.184835 -22.950087,26.21161 -5.951009,0.01255 -11.382043,-2.542266 -15.4711832,-6.757295 4.1173612,4.375361 9.6425312,7.05397 15.7214752,7.04115 C 35.779468,46.807636 46.054119,35.071674 46.032935,20.6228 46.022793,13.705497 43.650765,7.42564 39.790842,2.7551157 Z"
     style="opacity:0.1;stroke-width:1.06628299"
     id="path11"
     inkscape:connector-curvature="0" />
  <path
     d="m31.25 2.375c8.615 3.154 14.75 11.417 14.75 21.13 0 12.426-10.07 22.5-22.5 22.5-9.708 0-17.971-6.135-21.12-14.75a23 23 0 0 0 44.875 -7 23 23 0 0 0 -16 -21.875z"
     style="opacity:.2"
     id="path13" />
  <path
     d="m24 1c12.703 0 23 10.297 23 23s-10.297 23-23 23-23-10.297-23-23 10.297-23 23-23z"
     style="fill:url(#linearGradient3764)"
     id="path15" />
  <path
     d="M 39.566268,6.8982074 C 43.257475,11.017256 45.506713,16.49887 45.516575,22.515109 45.53762,35.348738 35.334113,45.770904 22.725418,45.794684 16.815622,45.805831 11.422197,43.536796 7.3613738,39.793261 11.515463,44.120566 17.308603,46.815188 23.719652,46.803096 36.328346,46.779318 46.531844,36.356139 46.510807,23.523519 46.500106,16.995068 43.833325,11.111137 39.566268,6.8982074 Z"
     style="opacity:0.1;stroke-width:1.00139225"
     id="path17"
     inkscape:connector-curvature="0" />
  <path
     d="m 22.218646,5.9259165 -4.38767,5.9700785 c -0.01848,0.0034 -0.03654,0.0077 -0.055,0.01108 l -6.67083,-3.1507228 0.01043,5.9320998 c -3.6158528,2.624801 -5.9178365,6.830624 -5.9081024,12.366435 0.00742,4.220331 2.9551642,6.674767 5.9446714,8.430238 0.844785,3.458776 1.654337,7.031 4.45974,7.026067 2.223686,-0.0039 3.078805,-5.632541 5.919935,-5.637537 2.84113,-0.005 3.614934,5.620771 5.939724,5.616683 1.482457,-0.0026 2.90818,-2.846814 3.696247,-5.633627 2.228632,2.80866 6.678479,4.208602 11.125852,4.200781 l 1.475037,-4.222938 -4.447373,0.0078 2.957494,-4.225547 -5.402817,0.0095 c -0.006,-0.01475 -0.01161,-0.03189 -0.01745,-0.04667 l 5.415442,-2.776386 -4.454791,-4.212512 4.435001,-7.041707 -7.325313,-1.531344 c -0.02848,-0.03198 -0.06108,-0.0615 -0.08992,-0.09326 l -0.01444,-8.2098112 -7.846814,3.2064892 z"
     style="opacity:0.1;stroke-width:1.44412398"
     id="path19"
     inkscape:connector-curvature="0" />
  <path
     d="m 20.733714,4.5217459 -4.407931,5.9975471 -6.7055558,-3.1672551 0.014842,8.4406641 31.1736558,23.860476 1.475037,-4.222939 -4.447372,0.0078 2.957493,-4.225546 -5.509997,0.0097 5.50505,-2.823244 -4.454793,-4.212512 4.435004,-7.041709 -7.415036,-1.550317 -0.01457,-8.2840908 -7.846813,3.2064898 z"
     style="fill:#41555f;stroke-width:1.44412398"
     id="path21"
     inkscape:connector-curvature="0" />
  <path
     d="m 20.002375,10.147345 c -9.006076,0.01584 -16.2971346,5.655784 -16.2798189,15.503227 0.00742,4.220333 2.9551654,6.674767 5.9446709,8.430238 0.844785,3.458776 1.654339,7.031001 4.459741,7.026068 2.223686,-0.0039 3.078805,-5.632542 5.919934,-5.637538 2.84113,-0.005 3.614935,5.620771 5.939723,5.616684 1.482458,-0.0026 2.908182,-2.84583 3.696251,-5.632643 2.228633,2.80866 6.678477,4.207617 11.125849,4.199797 -2.971133,-3.531284 -4.457266,-5.61929 -5.947145,-9.837015 0.901328,-1.809158 1.475932,-3.713827 1.470089,-7.036493 -0.01229,-6.992529 -7.323217,-12.648161 -16.329294,-12.632325 z"
     style="fill:#048c7f;stroke-width:1.44412398"
     id="path23"
     inkscape:connector-curvature="0" />
  <ellipse
     cx="12.572203"
     cy="21.438147"
     style="fill:#f0f0f0;stroke-width:1.44412398"
     id="circle25"
     rx="1.4824595"
     ry="1.4067796"
     transform="rotate(-0.10074869)" />
</svg>
