<?xml version="1.0" encoding="UTF-8" standalone="no"?>
<!-- Created with Inkscape (http://www.inkscape.org/) -->

<svg
   xmlns:dc="http://purl.org/dc/elements/1.1/"
   xmlns:cc="http://creativecommons.org/ns#"
   xmlns:rdf="http://www.w3.org/1999/02/22-rdf-syntax-ns#"
   xmlns:svg="http://www.w3.org/2000/svg"
   xmlns="http://www.w3.org/2000/svg"
   xmlns:sodipodi="http://sodipodi.sourceforge.net/DTD/sodipodi-0.dtd"
   xmlns:inkscape="http://www.inkscape.org/namespaces/inkscape"
   id="svg2"
   version="1.1"
   inkscape:version="0.91+devel r14033 custom"
   width="512"
   height="512"
   viewBox="0 0 512.00002 512.00002"
   sodipodi:docname="gimp.svg">
  <metadata
     id="metadata8">
    <rdf:RDF>
      <cc:Work
         rdf:about="">
        <dc:format>image/svg+xml</dc:format>
        <dc:type
           rdf:resource="http://purl.org/dc/dcmitype/StillImage" />
        <dc:title />
      </cc:Work>
    </rdf:RDF>
  </metadata>
  <defs
     id="defs6">
    <clipPath
       clipPathUnits="userSpaceOnUse"
       id="clipPath4178">
      <circle
         r="225"
         cy="222.68037"
         cx="204.3168"
         id="circle4180"
         style="opacity:1;fill:#1c5266;fill-opacity:0.19099205;fill-rule:evenodd;stroke:none;stroke-width:3.33392239;stroke-linecap:butt;stroke-linejoin:miter;stroke-miterlimit:4;stroke-dasharray:none;stroke-dashoffset:0;stroke-opacity:1" />
    </clipPath>
  </defs>
  <sodipodi:namedview
     pagecolor="#ffffff"
     bordercolor="#666666"
     borderopacity="1"
     objecttolerance="10"
     gridtolerance="10"
     guidetolerance="10"
     inkscape:pageopacity="0"
     inkscape:pageshadow="2"
     inkscape:window-width="1920"
     inkscape:window-height="1011"
     id="namedview4"
     showgrid="false"
     inkscape:zoom="0.82226563"
     inkscape:cx="933.64556"
     inkscape:cy="53.155955"
     inkscape:window-x="0"
     inkscape:window-y="27"
     inkscape:window-maximized="1"
     inkscape:current-layer="svg2" />
  <g
     id="g4170"
     clip-path="url(#clipPath4178)"
     transform="translate(51.683197,33.319626)">
    <path
       style="fill:#ffffff;fill-opacity:1;stroke-width:0.64930689"
       d="M 37.84674,577.46148 C 3.4866283,573.24039 -23.307436,543.31089 -26.622305,505.44825 -27.06645,500.37522 -27.209109,426.8368 -27.069598,274.87633 -26.875089,63.010988 -26.808357,51.496955 -25.746999,46.674528 -21.892685,29.161924 -15.185075,15.936028 -4.4986797,4.7777202 6.1686553,-6.3607068 18.962669,-13.391487 34.111129,-16.439787 c 6.42735,-1.29337 418.810071,-1.29337 425.237421,0 24.02949,4.83542 43.31638,20.5972082 53.61454,43.815348 4.09385,9.229975 6.21946,17.718276 7.10261,28.36324 0.48092,5.7968 0.6195,73.557369 0.47242,230.987789 -0.19809,212.07438 -0.2622,223.02873 -1.33301,227.86328 -3.77685,17.05186 -9.41506,28.17095 -20.28271,39.99939 -10.7369,11.68619 -21.18173,17.94936 -36.77213,22.05019 -4.45767,1.17252 -14.07654,1.2329 -211.99611,1.33106 -120.08423,0.0595 -209.422508,-0.15464 -212.30742,-0.50903 z"
       id="path3350"
       inkscape:connector-curvature="0" />
    <path
       sodipodi:nodetypes="cccsccccssssscccccccscccccscccccccccccccccccccccccscsscssccccccscccccsccscccscsssscccccsccccccccssccccccscccccccccccsccsccccssscsccccccscccsscccccccccsccccccccccccccc"
       inkscape:connector-curvature="0"
       id="path3344"
       d="m 363.91836,106.51515 c -17.81037,3.10201 2.63141,21.73281 -1.63129,31.90201 15.45901,-4.30399 18.53252,-27.6151 1.63129,-31.90201 z m 7.38998,39.39739 c -0.85962,0.011 -1.80557,0.32614 -2.39402,0.754 -11.11507,8.08159 -3.46018,25.25569 -10.88094,35.32418 5.24492,0.2998 10.51345,-1.43613 15.14244,-3.28466 15.05441,-4.94679 9.52873,-25.37081 -0.50924,-32.44562 -0.3579,-0.25224 -0.84251,-0.35475 -1.35824,-0.3479 z m -22.98598,0.78214 c -5.35435,-0.0391 -3.53139,14.03901 2.35163,14.27384 4.97679,0.19863 5.51748,-8.17231 3.42744,-11.85894 -0.90802,-1.60167 -4.41425,-2.40493 -5.77907,-2.4149 z m 6.11645,39.21257 c -17.46425,5.18408 -35.84544,10.97963 -54.60564,12.72869 0.003,-1.7e-4 0.008,-3.1e-4 0.011,-6.5e-4 0.19688,-0.009 0.38223,-0.013 0.5681,-0.0173 0.0837,-0.001 0.17136,-0.005 0.25267,-0.006 0.17428,-0.001 0.33659,0.001 0.49904,0.005 0.0791,0.001 0.1616,0.001 0.23775,0.005 0.13865,0.005 0.2666,0.0152 0.39469,0.025 0.0938,0.008 0.18915,0.0138 0.27699,0.0237 0.17102,0.0191 0.33439,0.0416 0.48099,0.0716 0.001,3e-4 0.003,3.2e-4 0.005,6.7e-4 0.006,10e-4 0.011,0.002 0.0173,0.003 0.0744,0.0157 0.14596,0.0329 0.21343,0.0518 0.011,0.002 0.0213,0.006 0.0322,0.01 0.0653,0.0192 0.12834,0.0391 0.18674,0.0615 10e-4,3.1e-4 10e-4,0.001 0.003,0.001 0.003,0.001 0.008,0.002 0.01,0.005 0.0623,0.0243 0.12114,0.0505 0.17499,0.0786 0.27381,0.14353 0.43369,0.33969 0.46059,0.59924 0.001,0.0123 0.005,0.0225 0.005,0.0346 0.001,0.0398 -10e-4,0.0826 -0.005,0.12536 -10e-4,0.0179 -10e-4,0.0347 -0.005,0.0532 -0.008,0.0438 -0.0184,0.0907 -0.0313,0.1375 -0.005,0.0196 -0.01,0.0381 -0.0164,0.0581 -0.0151,0.0463 -0.0354,0.0953 -0.0564,0.14453 -0.011,0.0249 -0.0199,0.0492 -0.0321,0.0748 -0.0217,0.0454 -0.0479,0.0928 -0.0745,0.14069 -0.0183,0.0327 -0.0366,0.0652 -0.0573,0.099 -0.0292,0.0477 -0.0617,0.0971 -0.0958,0.14709 -0.0253,0.0373 -0.0512,0.0746 -0.0792,0.11318 -0.0359,0.0494 -0.0751,0.10002 -0.11539,0.15157 -0.0335,0.0427 -0.0677,0.0862 -0.10432,0.13047 -0.0416,0.0502 -0.0854,0.10131 -0.13104,0.15349 -0.042,0.048 -0.0855,0.0968 -0.13103,0.14644 -0.0553,0.0606 -0.11354,0.12236 -0.1742,0.18549 -0.0258,0.0268 -0.0532,0.0545 -0.0801,0.0818 -0.1845,0.18818 -0.39426,0.38919 -0.62615,0.60053 -0.15297,0.13941 -0.33408,0.29265 -0.50848,0.44256 -0.1344,0.1155 -0.25585,0.22466 -0.40331,0.34662 -0.20606,0.17044 -0.4449,0.35708 -0.67717,0.54042 -0.1558,0.12298 -0.29507,0.23751 -0.46294,0.36645 -0.41109,0.31572 -0.85655,0.64874 -1.34257,1.00152 -0.54865,0.59444 -1.03928,1.18491 -1.4736,1.77088 -1.30342,1.75846 -2.10292,3.4764 -2.46777,5.13931 -0.0608,0.27713 -0.10976,0.55229 -0.14674,0.82629 -3e-5,2e-4 3e-5,3e-4 0,6.6e-4 -0.14302,1.0606 -0.10573,2.09659 0.0855,3.10559 0.006,0.0336 0.009,0.0676 0.0157,0.10109 5e-5,2.2e-4 -4e-5,3.2e-4 0,6.8e-4 0.052,0.25998 0.11476,0.51826 0.18755,0.77447 0.21849,0.76945 0.52854,1.52139 0.92197,2.25437 0.1311,0.24426 0.27132,0.48593 0.42058,0.72587 1.6e-4,2.6e-4 6.7e-4,3.1e-4 6.7e-4,6.7e-4 0.14914,0.23968 0.30733,0.4772 0.47394,0.71243 1.1e-4,1.8e-4 -1.2e-4,3.3e-4 0,6.8e-4 0.1667,0.23532 0.34216,0.46825 0.52571,0.69901 0.18383,0.23106 0.37587,0.45987 0.57596,0.68621 0.19996,0.22621 0.40743,0.44954 0.62302,0.67088 2.2e-4,2.4e-4 3.4e-4,3.3e-4 6.7e-4,6.7e-4 0.43119,0.4427 0.89266,0.87511 1.38257,1.29762 1.95968,1.69002 4.36886,3.21443 7.06592,4.5388 -0.13425,0.27754 -0.29099,0.55757 -0.46845,0.84034 -0.0887,0.14139 -0.183,0.28333 -0.28168,0.42595 -0.0988,0.14275 -0.20176,0.28581 -0.30996,0.42976 -0.21614,0.28754 -0.45042,0.57724 -0.7007,0.86913 -0.25039,0.29204 -0.51644,0.58597 -0.79643,0.88192 -0.55972,0.59156 -1.17432,1.19063 -1.82515,1.79518 -0.65079,0.60454 -1.33772,1.21443 -2.04326,1.82842 -1.76373,1.53488 -3.64246,3.09392 -5.35063,4.64944 -2.56258,2.33359 -4.74233,4.65962 -5.58211,6.88526 -0.056,0.14836 -0.10605,0.29574 -0.14987,0.44319 -0.0438,0.14765 -0.0812,0.29461 -0.11219,0.4413 -0.062,0.29272 -0.0984,0.5838 -0.10594,0.87231 -10e-6,2.2e-4 1e-5,3.2e-4 0,6.7e-4 -0.008,0.28873 0.0137,0.57483 0.0651,0.8589 0.0257,0.14203 0.059,0.28323 0.10045,0.42401 0.0414,0.14099 0.0906,0.28114 0.14829,0.42081 0.11502,0.2787 0.26275,0.55503 0.44568,0.82821 1.7e-4,2.6e-4 6.8e-4,3e-4 6.8e-4,6.6e-4 0.0915,0.13645 0.19126,0.2724 0.30052,0.40739 0.10963,0.13548 0.22808,0.26958 0.35625,0.40355 0.25584,0.26741 0.5497,0.532 0.88274,0.79301 0.1664,0.13041 0.34234,0.26013 0.52887,0.38885 0.37346,0.25774 0.7877,0.51167 1.24525,0.76233 0.45739,0.25055 0.95827,0.49754 1.50421,0.74058 0.4584,0.20407 0.95609,0.4046 1.47988,0.60309 0.10002,0.0379 0.19333,0.0768 0.29582,0.11452 0.63924,0.23517 1.32592,0.46585 2.06289,0.69262 0.3566,0.0257 0.68846,0.0717 1.00279,0.13303 0.0297,0.006 0.0617,0.01 0.091,0.016 2.3e-4,5e-5 3.2e-4,-7e-5 6.6e-4,0 0.0393,0.008 0.075,0.0194 0.11379,0.028 0.29525,0.0667 0.57531,0.14662 0.8341,0.24366 0.14643,0.0549 0.28679,0.11439 0.42215,0.17843 0.13537,0.0641 0.26523,0.1325 0.38997,0.20529 2.9e-4,1.8e-4 3.5e-4,3.1e-4 6.8e-4,6.6e-4 0.24928,0.14555 0.4779,0.30818 0.68735,0.48606 0.10476,0.0888 0.20516,0.18126 0.30054,0.27756 1.3e-4,1.2e-4 -1.2e-4,6.6e-4 0,6.6e-4 0.0954,0.0963 0.18654,0.19597 0.27307,0.2993 1.2e-4,1.4e-4 -1.3e-4,6.7e-4 0,6.7e-4 0.0864,0.10336 0.16905,0.20984 0.24716,0.31976 0.0783,0.11024 0.15172,0.2238 0.22206,0.34024 0.21074,0.34881 0.38667,0.72421 0.53358,1.12111 0.12584,0.34001 0.22515,0.69985 0.31229,1.06739 0.0145,0.0613 0.0343,0.11904 0.0479,0.18098 0.0634,0.28926 0.11611,0.58504 0.16086,0.8864 0.0447,0.30113 0.081,0.60726 0.11059,0.91709 4e-5,2.2e-4 -2e-5,3.1e-4 0,6.7e-4 0.0295,0.30962 0.0525,0.62263 0.0706,0.93755 6.7e-4,0.011 6.7e-4,0.0219 10e-4,0.0327 0.0348,0.61989 0.0513,1.24621 0.062,1.86681 0.011,0.63124 0.0164,1.25592 0.0306,1.86106 0.0213,0.90792 0.0621,1.77101 0.17027,2.54407 0.0361,0.25763 0.0799,0.50471 0.1326,0.74059 0.0265,0.11819 0.055,0.23329 0.0863,0.34533 0.0312,0.11183 0.0647,0.22016 0.1012,0.32554 0.0366,0.10562 0.0762,0.20769 0.11844,0.30633 0.0421,0.0985 0.0873,0.19283 0.13574,0.28396 0.0159,0.0297 0.0337,0.0567 0.0502,0.0857 0.0846,0.1485 0.17613,0.28849 0.28012,0.41442 0.062,0.0753 0.12815,0.14576 0.19774,0.21233 0.20881,0.19988 0.45168,0.35984 0.73602,0.47454 0.28413,0.11464 0.60933,0.18394 0.98082,0.20209 0.24767,0.0123 0.51573,0.001 0.80664,-0.0333 0.14545,-0.0175 0.29661,-0.041 0.45354,-0.071 0.31386,-0.0599 0.65138,-0.14507 1.01378,-0.25709 0.18121,-0.056 0.3686,-0.11893 0.56261,-0.18867 0.77603,-0.27875 1.65602,-0.66858 2.65453,-1.18313 0.24962,-0.12865 0.50668,-0.26489 0.77133,-0.4093 0.51606,-0.42396 0.98489,-0.7999 1.42416,-1.14606 0.17021,-0.1341 0.31959,-0.24682 0.47867,-0.36965 0.26204,-0.20244 0.51744,-0.39835 0.75012,-0.5711 0.14267,-0.10594 0.27535,-0.2017 0.40725,-0.29675 0.21432,-0.15447 0.41584,-0.29665 0.60262,-0.42337 0.15968,-0.10828 0.32196,-0.21954 0.46218,-0.30827 0.0279,-0.0178 0.0581,-0.0367 0.0855,-0.0537 0.19852,-0.12357 0.37681,-0.22673 0.53594,-0.31082 0.0646,-0.0341 0.12765,-0.0661 0.18595,-0.0941 0.0256,-0.0123 0.0518,-0.0262 0.0762,-0.0371 0.0783,-0.0354 0.15098,-0.0642 0.21733,-0.0875 0.009,-0.002 0.0179,-0.008 0.0258,-0.01 0.0754,-0.0256 0.14195,-0.043 0.20168,-0.0532 0.009,-10e-4 0.0156,-6.7e-4 0.0242,-10e-4 0.0474,-0.006 0.0899,-0.008 0.12712,-0.005 0.0123,10e-4 0.022,0.005 0.0329,0.006 0.031,0.006 0.058,0.0158 0.0809,0.03 0.008,0.005 0.014,0.01 0.0204,0.0146 0.0223,0.0184 0.0403,0.0414 0.0534,0.0691 0.003,0.005 0.005,0.01 0.008,0.0146 0.0136,0.0354 0.0223,0.0758 0.0226,0.12409 0,0.0502 -0.005,0.10702 -0.0179,0.17073 16.11891,-25.83873 34.02899,-52.28014 35.1318,-81.88244 z"
       style="fill:#f64747;fill-opacity:1;stroke-width:0.45385963" />
    <path
       sodipodi:nodetypes="ccccsc"
       inkscape:connector-curvature="0"
       id="path3340"
       d="m 62.284088,281.11719 c -10.618728,7.93458 -32.306936,7.93803 -23.270827,24.71171 4.85512,7.50079 8.589085,13.57208 14.561821,19.38952 0.433526,-0.29352 0.795756,-0.57835 1.032626,-0.80012 4.657261,-4.36036 10.552047,-19.8915 10.544338,-33.98177 -0.0022,-5.47905 -1.397539,-8.47659 -2.867958,-9.31934 z"
       style="fill:#004e72;stroke-width:0.45385963" />
    <path
       sodipodi:nodetypes="cacccc"
       inkscape:connector-curvature="0"
       id="path3342-7"
       d="m 228.75102,71.260888 c -8.47731,14.316546 -14.07059,30.123722 -24.13547,43.467232 -7.87709,10.44311 -16.63403,20.45627 -27.94149,28.06706 21.95349,-8.04702 48.35615,-11.56165 64.97997,-19.15065 0.57044,-0.27148 1.18306,-0.56598 1.76668,-0.84442 -2.60884,-17.52395 -7.26849,-35.022605 -14.66969,-51.539222 z"
       style="fill:#004e72;fill-opacity:1;stroke-width:0.45385963" />
    <path
       sodipodi:nodetypes="cccccccccccccccccscccccccccccccccccsccccccccscccccccsccccccccccccccccccccccccccccscccccccccccccccccccccccccccccccccscccccscssccssccccccccccccccccccccccccccscccccccccccccccccssssscssssssssccccscccccccccccsscccccccsccccscccccccscsccccccccccccccccssccccccccccccccccccccccccscccccccccccccccccccsccccccccccccccccccccccccscccccccccccsccccccccccccsccccccccccccccsccccccccccscccccccccccscccccccccccccccccccccsccccccccsccscccsccccccccccccccccscssccccccscccsccccccccccccccccccccccccccccccccccccccccccccccccccccccccccccccccccccccccccccccscccsccccccccsccccccccccccscccccccccccccccccccccccccccccccccscccccccczccczcc"
       inkscape:connector-curvature="0"
       id="rect4736"
       d="m 316.12346,62.184234 c 0.57647,0.812622 1.12952,1.635901 1.66732,2.465965 0.0826,0.127369 0.16772,0.253526 0.24933,0.381288 0.21017,0.329 0.41391,0.660768 0.61811,0.992341 0.11464,0.186027 0.23008,0.371465 0.34281,0.558288 0.18955,0.314179 0.37538,0.62989 0.55968,0.946263 0.12295,0.211076 0.2449,0.422648 0.36553,0.634682 0.17769,0.312314 0.35391,0.62523 0.52657,0.939589 0.11072,0.201483 0.2186,0.403882 0.32724,0.606173 0.17861,0.332716 0.35736,0.665389 0.53046,1.000215 0.0637,0.123243 0.12465,0.247467 0.18762,0.370979 0.39588,0.776693 0.77745,1.558553 1.14402,2.345958 0.0501,0.107449 0.10238,0.214209 0.15194,0.321884 0.15436,0.335774 0.30279,0.673528 0.45191,1.011111 0.0951,0.215254 0.19075,0.430238 0.28372,0.646192 0.13618,0.316372 0.26894,0.633853 0.40059,0.951722 0.0979,0.236238 0.19486,0.472798 0.29023,0.709844 0.13125,0.326256 0.26043,0.653071 0.38698,0.980813 0.0799,0.206759 0.15767,0.414003 0.23566,0.621343 0.13025,0.346282 0.26063,0.692402 0.38569,1.040223 0.0745,0.207191 0.14543,0.415434 0.21813,0.623152 0.25674,0.733669 0.50277,1.470364 0.73693,2.21016 0.0381,0.120153 0.0787,0.239704 0.11624,0.360073 0,0.0032 0.003,0.0075 0.003,0.01098 0.098,0.31508 0.1904,0.631378 0.28438,0.947469 0.0783,0.263133 0.1576,0.526071 0.2331,0.789871 0.0855,0.299092 0.16733,0.599056 0.24933,0.898967 0.0765,0.27982 0.15247,0.559672 0.22592,0.840182 0.0772,0.294441 0.15226,0.589269 0.22593,0.884421 0.0717,0.286775 0.14127,0.573981 0.20973,0.861403 0.0701,0.294021 0.14041,0.587924 0.20711,0.882602 0.0657,0.28952 0.1272,0.579773 0.18962,0.869886 0.063,0.292891 0.12786,0.585502 0.18762,0.878974 0.11012,0.540045 0.21496,1.080974 0.31424,1.622753 2.4e-4,8.72e-4 0,0.0022 0,0.0032 0.0463,0.252462 0.088,0.505539 0.13183,0.758336 0.0594,0.342158 0.11868,0.684144 0.17399,1.026882 0.0425,0.264091 0.0819,0.528505 0.12211,0.792897 0.0495,0.326374 0.0979,0.652791 0.14347,0.979586 0.0378,0.271078 0.0745,0.542177 0.10974,0.813514 0.0431,0.331973 0.084,0.664258 0.12337,0.996575 0.0309,0.261022 0.0617,0.521969 0.0902,0.783185 0.0402,0.368352 0.0768,0.737017 0.11232,1.105693 0.021,0.216395 0.0431,0.432732 0.0623,0.649222 0.0429,0.4822 0.0806,0.96443 0.11551,1.44697 0.021,0.29055 0.0395,0.58106 0.0578,0.87169 0.0252,0.4041 0.0502,0.80823 0.0701,1.21238 0.011,0.23318 0.0196,0.46637 0.0293,0.69955 0.015,0.35848 0.029,0.71692 0.0395,1.07535 0.008,0.25972 0.014,0.51931 0.0196,0.77897 0.008,0.34476 0.013,0.68952 0.0163,1.03416 0.003,0.25263 0.005,0.50519 0.005,0.75772 0,0.37521 -0.003,0.75016 -0.006,1.12507 -0.003,0.20997 -0.003,0.42 -0.006,0.62984 -0.008,0.46596 -0.021,0.93133 -0.0357,1.39667 -0.005,0.1347 -0.006,0.26965 -0.011,0.40431 0,0.024 -0.003,0.0481 -0.003,0.0721 -0.0199,0.54234 -0.0454,1.084 -0.0747,1.62518 -0.01,0.17067 -0.0204,0.34108 -0.0306,0.51161 -0.0239,0.40368 -0.0507,0.80706 -0.0799,1.20996 -0.0143,0.19808 -0.0286,0.39619 -0.0443,0.59407 -0.0438,0.55791 -0.0906,1.11509 -0.14414,1.67126 l 0,0.0152 c -0.0605,0.62763 -0.12672,1.25411 -0.19933,1.87918 -2.6e-4,0.002 0,0.005 0,0.008 -0.0567,0.48811 -0.1204,0.97455 -0.18438,1.46091 -0.0183,0.13884 -0.0337,0.27836 -0.0525,0.41705 -4e-5,2.1e-4 0,3.1e-4 0,6.6e-4 -0.0986,0.6553 -0.208,1.30777 -0.32205,1.95921 -0.0239,0.1366 -0.0475,0.27333 -0.0721,0.40977 -0.11453,0.63572 -0.23593,1.27015 -0.36488,1.90222 -0.0202,0.0993 -0.0418,0.19797 -0.0623,0.29704 -0.12941,0.62289 -0.26471,1.24401 -0.40777,1.8634 -0.011,0.0487 -0.022,0.0975 -0.0333,0.1461 -0.15066,0.64716 -0.31006,1.29218 -0.47528,1.93555 -0.0316,0.12255 -0.0634,0.24495 -0.0954,0.36735 -0.16585,0.63463 -0.33718,1.26821 -0.51682,1.8992 -0.0172,0.0603 -0.0353,0.1204 -0.0525,0.18064 -0.17074,0.59496 -0.34775,1.188 -0.53045,1.77974 -0.0333,0.10767 -0.0657,0.21554 -0.0994,0.32312 -0.19298,0.61711 -0.39295,1.23217 -0.59864,1.84583 -0.0395,0.11796 -0.0801,0.2356 -0.12015,0.35341 -0.21491,0.63315 -0.43421,1.26542 -0.66227,1.89494 -0.1553,0.42865 -0.31338,0.85632 -0.47462,1.28329 -0.48356,1.28084 -0.99358,2.55421 -1.52906,3.8202 -5e-5,1.8e-4 1.2e-4,3e-4 0,6.6e-4 -0.13376,0.31626 -0.27148,0.63152 -0.40837,0.94687 -0.0459,0.10562 -0.0901,0.21159 -0.13633,0.31703 -0.003,0.005 -0.005,0.01 -0.008,0.0152 -0.1318,0.30102 -0.26601,0.60123 -0.4006,0.90141 -0.0631,0.14072 -0.1259,0.28137 -0.18959,0.4219 -0.12015,0.26505 -0.24197,0.52969 -0.36425,0.7941 -0.0747,0.16151 -0.14916,0.32307 -0.22465,0.48434 -0.35373,0.75586 -0.71688,1.50859 -1.08753,2.25927 -0.0446,0.0901 -0.089,0.1803 -0.13374,0.27036 -0.38443,0.77368 -0.77679,1.54493 -1.17845,2.3132 -0.003,0.008 -0.008,0.0147 -0.011,0.0219 -0.008,0.0144 -0.0153,0.0286 -0.0227,0.0431 -0.42262,0.80724 -0.85315,1.6119 -1.29401,2.41324 l 0,6.7e-4 c -0.42708,0.77629 -0.86537,1.54905 -1.30894,2.31988 -0.0932,0.16211 -0.18848,0.32367 -0.28243,0.48556 -0.33442,0.57591 -0.67229,1.15046 -1.01547,1.72338 -0.16318,0.27261 -0.32834,0.54457 -0.49345,0.81653 -0.2811,0.46273 -0.56526,0.92434 -0.85184,1.38514 -0.18597,0.29924 -0.37147,0.59871 -0.55969,0.89716 -0.27239,0.43167 -0.54889,0.86176 -0.82585,1.29178 -0.20936,0.32527 -0.41726,0.65103 -0.62915,0.97535 -0.22991,0.3517 -0.46387,0.70175 -0.69667,1.05235 -0.57988,0.87376 -1.16763,1.74444 -1.76473,2.61144 -0.0845,0.12271 -0.1677,0.246 -0.25257,0.36857 -0.35332,0.51045 -0.71108,1.01884 -1.07,1.52699 -0.0866,0.12266 -0.17145,0.24602 -0.25841,0.36856 6.6e-4,-0.001 6.6e-4,-0.003 10e-4,-0.005 -6.83559,9.63242 -14.6433,18.85544 -22.61356,27.76214 1.64888,1.74298 7.31805,1.07426 12.04728,0.63469 0.28814,-0.0268 0.56472,-0.0489 0.8447,-0.0733 0.3776,-0.0329 0.74775,-0.063 1.10573,-0.0891 0.41484,-0.0304 0.82721,-0.0599 1.20764,-0.0771 3.2e-4,-3e-5 8.6e-4,5e-5 10e-4,0 0.0623,-0.006 0.12463,-0.0128 0.18698,-0.0188 0.98296,-0.0931 1.96498,-0.19765 2.94576,-0.31218 0.88416,-0.10326 1.76741,-0.21555 2.64968,-0.33523 0.88304,-0.11979 1.76477,-0.24667 2.64579,-0.3819 7.16546,-1.09979 14.26095,-2.6975 21.25983,-4.52215 0.50393,-0.13137 1.00925,-0.25914 1.51218,-0.3928 l 0,-6.8e-4 c 0.47618,-0.12656 0.94991,-0.25769 1.42516,-0.38613 5.18947,-1.40256 10.32429,-2.90782 15.38714,-4.41486 2.21021,-0.6579 4.40686,-1.31615 6.58946,-1.96405 l 0,10e-4 c -1.10277,29.60025 -19.01038,56.03996 -35.12895,81.87584 -0.013,0.0659 -0.039,0.14463 -0.0663,0.22429 -0.003,0.01 -0.005,0.0165 -0.008,0.026 -0.011,0.0309 -0.0274,0.0674 -0.0402,0.10002 -0.0206,0.0526 -0.0437,0.10745 -0.0683,0.16367 -0.0312,0.0701 -0.0688,0.14626 -0.10712,0.22308 -0.0279,0.0556 -0.0517,0.10745 -0.083,0.1667 0,0.002 -0.003,0.005 -0.005,0.008 -0.0126,0.0239 -0.0279,0.0499 -0.0421,0.075 -0.0457,0.0843 -0.0945,0.17137 -0.14674,0.26187 -0.011,0.0191 -0.0196,0.0363 -0.0312,0.0559 l 0,0.002 c -0.02,0.0341 -0.0473,0.0753 -0.0695,0.11158 -0.003,0.003 -0.005,0.008 -0.008,0.011 -0.12975,0.21791 -0.27416,0.45029 -0.43501,0.69774 -0.0183,0.0283 -0.0312,0.051 -0.05,0.08 -0.01,0.015 -0.0223,0.0327 -0.0326,0.0479 -0.20092,0.30539 -0.41939,0.62731 -0.659,0.96869 -0.005,0.006 -0.008,0.011 -0.011,0.017 -0.003,0.005 -0.005,0.008 -0.009,0.0123 -0.0202,0.0286 -0.0439,0.0604 -0.0649,0.0897 -0.18618,0.26373 -0.38712,0.54062 -0.59211,0.82137 -0.0629,0.0873 -0.1229,0.17227 -0.19026,0.26369 0,10e-4 -0.003,0.002 -0.003,0.005 -0.0388,0.0525 -0.0828,0.10939 -0.12211,0.16247 -0.26249,0.35443 -0.53168,0.71492 -0.81548,1.0875 0,10e-4 -0.003,0.003 -0.005,0.005 -0.0417,0.0545 -0.0866,0.11122 -0.12853,0.1661 -0.28001,0.36636 -0.56441,0.73663 -0.859,1.11417 -0.008,0.009 -0.013,0.0165 -0.0196,0.0249 -0.10035,0.12848 -0.20491,0.25988 -0.30646,0.38919 -0.13546,0.17251 -0.27043,0.34287 -0.40774,0.51647 -0.11035,0.13944 -0.21733,0.27718 -0.32852,0.41705 -0.006,0.008 -0.011,0.015 -0.0177,0.0224 -0.11256,0.14158 -0.22693,0.28021 -0.34021,0.42191 -0.53135,0.66477 -1.06055,1.3204 -1.59073,1.97131 -0.0747,0.0916 -0.15029,0.18776 -0.22462,0.27884 -0.005,0.005 -0.009,0.011 -0.013,0.0164 -0.0458,0.0561 -0.0823,0.0987 -0.12793,0.15458 -0.79816,0.97657 -1.51501,1.84081 -2.2205,2.69026 -0.26575,0.32001 -0.5419,0.65734 -0.78563,0.94989 -0.83012,0.99658 -1.52063,1.82206 -1.97639,2.37504 -0.51353,0.5907 -1.03279,1.17849 -1.5563,1.76401 -0.16992,0.19004 -0.34263,0.37851 -0.51358,0.56799 -0.36368,0.40313 -0.72827,0.80573 -1.09662,1.20632 -0.19566,0.21278 -0.39324,0.42445 -0.5902,0.63649 -0.34384,0.37019 -0.68908,0.73954 -1.03688,1.1075 -0.20581,0.21775 -0.41289,0.43471 -0.62006,0.65167 -0.35617,0.37295 -0.71433,0.74474 -1.07455,1.11538 -0.20314,0.209 -0.40655,0.41792 -0.61097,0.62619 -0.35896,0.36571 -0.72074,0.72956 -1.08364,1.09294 -0.20925,0.20955 -0.4173,0.41986 -0.62784,0.62862 -0.38966,0.38636 -0.78306,0.77053 -1.17713,1.15418 -0.18316,0.17832 -0.36455,0.35754 -0.54864,0.53526 -0.57702,0.55704 -1.15776,1.11161 -1.74395,1.66278 -1.2439,1.16961 -2.50873,2.32615 -3.79306,3.46859 -0.58463,0.52004 -1.17454,1.03634 -1.76732,1.55064 -0.14973,0.12989 -0.30035,0.25905 -0.45059,0.38856 -0.48083,0.41454 -0.96441,0.82714 -1.45049,1.23783 -0.12918,0.10913 -0.25805,0.21848 -0.3876,0.32734 -0.61473,0.5166 -1.232,1.03121 -1.85499,1.54154 -2.68534,2.19975 -5.44678,4.34099 -8.2789,6.42013 -0.70807,0.51986 -1.42062,1.03569 -2.13739,1.54756 -0.65209,0.46572 -1.30872,0.92728 -1.96796,1.38636 -0.16884,0.11759 -0.33844,0.23447 -0.50773,0.3516 -0.52879,0.36594 -1.06003,0.7295 -1.59332,1.09115 -0.15392,0.10432 -0.30734,0.20937 -0.46163,0.31336 -0.6753,0.45527 -1.35315,0.90779 -2.03547,1.35607 -0.66661,0.43794 -1.33761,0.87149 -2.0108,1.30268 -0.19542,0.12519 -0.39163,0.24945 -0.58759,0.37405 -0.51518,0.32754 -1.03219,0.65296 -1.55112,0.97655 -0.19296,0.1204 -0.38568,0.24091 -0.57916,0.36067 -0.68385,0.42332 -1.36991,0.84452 -2.06014,1.26087 -0.76636,0.46229 -1.53669,0.92004 -2.31076,1.37362 -0.29567,0.17325 -0.59471,0.3427 -0.89147,0.51467 -1.25661,0.72827 -2.52014,1.44836 -3.79629,2.15318 -1.8e-4,1e-4 -3.4e-4,-10e-5 -6.7e-4,0 -1.57751,0.87118 -3.16993,1.72471 -4.77605,2.55933 -0.80314,0.41732 -1.6098,0.82981 -2.41985,1.23784 -0.81006,0.40797 -1.62379,0.81143 -2.44062,1.20991 -1.63348,0.79699 -3.28073,1.57488 -4.94033,2.33322 -1.6596,0.75833 -3.33181,1.49751 -5.01628,2.21624 -1.68483,0.71885 -3.38185,1.41736 -5.09031,2.0956 -0.79797,0.31674 -1.59873,0.62816 -2.40167,0.93592 -0.32231,0.12353 -0.64626,0.24405 -0.96936,0.36616 -0.47969,0.18119 -0.95935,0.36271 -1.44074,0.54071 -0.35546,0.13141 -0.71232,0.26013 -1.06871,0.38979 -0.47165,0.17155 -0.94347,0.34259 -1.4167,0.51101 -0.36308,0.1292 -0.72681,0.25693 -1.09079,0.38433 -0.45309,0.15851 -0.90701,0.31532 -1.36153,0.47098 -0.37322,0.12782 -0.74648,0.25542 -1.12065,0.38131 -0.46793,0.15738 -0.93695,0.31244 -1.40632,0.46678 -0.35887,0.11795 -0.71745,0.23661 -1.07715,0.35278 -0.48373,0.15623 -0.96915,0.30896 -1.45437,0.46192 -0.35794,0.11281 -0.71516,0.2272 -1.07389,0.33823 -0.71758,0.22208 -1.43687,0.4399 -2.15755,0.6547 -0.0982,0.0293 -0.19584,0.06 -0.29412,0.089 -0.89051,0.26405 -1.78372,0.52239 -2.6789,0.77533 -0.895,0.25278 -1.79246,0.5005 -2.69189,0.74198 -0.89963,0.24147 -1.80161,0.47735 -2.70552,0.70741 -0.90372,0.22996 -1.81003,0.45443 -2.71786,0.67283 -0.0264,0.008 -0.0528,0.0123 -0.0793,0.019 -0.79498,0.19091 -1.59191,0.37633 -2.38997,0.55827 -0.24258,0.0552 -0.48563,0.10925 -0.72848,0.16367 -0.58638,0.13151 -1.17352,0.26011 -1.76147,0.38675 -0.27265,0.0588 -0.54512,0.11807 -0.81809,0.17582 -0.78801,0.16642 -1.57723,0.32971 -2.36791,0.48736 -0.0267,0.005 -0.0532,0.011 -0.0799,0.0163 -0.1568,0.0312 -0.31445,0.0594 -0.47138,0.0903 -1.68302,0.33095 -3.37118,0.64456 -5.06563,0.93472 l -6.6e-4,0 c -0.1385,0.0239 -0.27762,0.0451 -0.41618,0.0686 -1.71487,0.29017 -3.43499,0.56161 -5.16043,0.8093 -0.93255,0.13381 -1.86684,0.26123 -2.80227,0.38249 -0.93521,0.12126 -1.87213,0.23638 -2.81007,0.34491 -0.93812,0.10852 -1.87778,0.21045 -2.81848,0.30609 -3.76263,0.38286 -7.5453,0.66288 -11.34281,0.83537 -0.94965,0.0432 -1.90017,0.0795 -2.85162,0.10913 -1.90224,0.0594 -3.80838,0.0916 -5.71686,0.0964 -0.005,0 -0.011,-4e-5 -0.015,0 -0.86878,0.003 -1.92101,0.014 -3.05029,0.0285 l 0.002,0 c -8.23443,0.10724 -22.66726,0.43821 -33.28893,-0.70741 -5.19662,-0.44649 -10.30817,-1.26998 -15.2878,-2.43023 -0.30292,-0.0706 -0.605093,-0.14269 -0.907027,-0.21578 -0.378054,-0.0915 -0.755224,-0.18521 -1.131673,-0.28066 -1.576457,-0.39967 -3.139456,-0.83087 -4.685821,-1.29787 -0.0054,-0.003 -0.01098,-0.003 -0.01615,-0.005 -0.646655,-0.19538 -1.28994,-0.39807 -1.930942,-0.60498 -0.366964,-0.11844 -0.732216,-0.24031 -1.097274,-0.3625 -0.260129,-0.0871 -0.519988,-0.17469 -0.779115,-0.2637 -0.378463,-0.12987 -0.756053,-0.26135 -1.132341,-0.39519 -0.0097,-0.003 -0.01863,-0.008 -0.02788,-0.01 -0.231748,-0.0826 -0.462505,-0.16686 -0.693424,-0.25095 -0.0054,-0.003 -0.01098,-0.005 -0.0169,-0.006 -0.385008,-0.14018 -0.769812,-0.28063 -1.152463,-0.42492 -1.83e-4,-10e-5 -3.23e-4,6e-5 -6.56e-4,0 -0.01464,-0.006 -0.02939,-0.011 -0.04425,-0.017 -0.189457,-0.0715 -0.377321,-0.14571 -0.566175,-0.21825 -0.961876,-0.36952 -1.917205,-0.74968 -2.863286,-1.14508 -0.448649,-0.1875 -0.893853,-0.38025 -1.338819,-0.57346 -0.148653,-0.0645 -0.297801,-0.12815 -0.446044,-0.19337 -0.433834,-0.19078 -0.865106,-0.38516 -1.295302,-0.58135 -0.147091,-0.0671 -0.294204,-0.13415 -0.440854,-0.20187 -0.0065,-0.003 -0.01227,-0.006 -0.0183,-0.009 -0.42816,-0.19774 -0.854652,-0.39766 -1.279066,-0.60073 -0.129822,-0.0621 -0.258793,-0.12529 -0.38826,-0.18793 -2.04216,-0.98745 -4.039876,-2.03538 -5.988271,-3.14186 -0.03316,-0.0189 -0.06686,-0.0369 -0.09991,-0.0558 -0.0065,-0.003 -0.01227,-0.008 -0.0182,-0.011 -0.485836,-0.2768 -0.96826,-0.55744 -1.447873,-0.84135 -0.02358,-0.014 -0.04716,-0.0279 -0.07084,-0.0419 -0.0022,-0.003 -0.0065,-0.003 -0.0086,-0.005 -0.624723,-0.37058 -1.243741,-0.74736 -1.857569,-1.12995 -0.0054,-0.003 -0.0097,-0.006 -0.01497,-0.009 -0.610264,-0.38049 -1.214887,-0.7669 -1.814073,-1.15901 -0.01098,-0.008 -0.02304,-0.015 -0.03445,-0.0223 -0.600435,-0.39327 -1.19526,-0.7925 -1.784218,-1.1972 -0.0022,-0.003 -0.0065,-0.005 -0.0086,-0.008 -0.594707,-0.40876 -1.183352,-0.82305 -1.766033,-1.2433 -0.463593,-0.33437 -0.923266,-0.67206 -1.379054,-1.01353 -0.0065,-0.005 -0.01227,-0.009 -0.01755,-0.0126 -0.01098,0.01 -0.02272,0.0186 -0.03381,0.0285 l 86.609223,63.65266 154.89575,103.36678 c 108.4176,-9.4397 328.37796,-200.26465 244.09942,-267.25265 L 400.68274,124.06935 Z m -87.52583,9.368411 -2.87257,56.681105 c -0.003,0.0988 0.0391,0.17492 0.11881,0.23277 l 0.14997,-0.0437 c 0.6132,-0.17719 1.22133,-0.35599 1.82382,-0.53647 0.19244,-0.0576 0.38458,-0.11538 0.5759,-0.17337 0.6016,-0.18242 1.19697,-0.36654 1.7868,-0.55285 0.13995,-0.0442 0.28145,-0.0883 0.42073,-0.13275 0.73022,-0.23303 1.45353,-0.46864 2.16404,-0.70864 0.005,-0.001 0.009,-0.002 0.013,-0.005 0.0327,-0.011 0.0638,-0.0229 0.0968,-0.0339 0.64975,-0.22016 1.28919,-0.44371 1.92119,-0.67043 0.19947,-0.0715 0.39517,-0.14479 0.5928,-0.21702 0.47707,-0.17441 0.94877,-0.35052 1.41476,-0.5292 0.22229,-0.0853 0.44321,-0.17078 0.66291,-0.25702 0.42754,-0.16785 0.84869,-0.33852 1.26609,-0.51042 0.25966,-0.10691 0.52288,-0.21272 0.77847,-0.32128 0.0761,-0.0323 0.15155,-0.0645 0.22724,-0.097 0.49303,-0.21134 0.98104,-0.42531 1.45829,-0.64317 0.40292,-0.19177 0.82729,-0.39552 1.24725,-0.59648 0.17027,-0.0812 0.34801,-0.16617 0.51941,-0.24793 9.81072,-4.68059 21.40703,-10.34334 32.48188,-17.04234 z m 135.37212,34.962035 0.003,0 c 1.84838,0.46882 3.45789,1.16565 4.8384,2.03982 0.19735,0.12499 0.3898,0.25342 0.57783,0.38554 0.56386,0.39613 1.08574,0.8235 1.56669,1.27845 1.12195,1.0612 2.02096,2.27178 2.7062,3.58195 0.0979,0.18719 0.19125,0.37627 0.28048,0.56739 l 0,6.6e-4 c 0.17834,0.38205 0.33969,0.77154 0.48371,1.16752 l 0,6.8e-4 c 0.14398,0.39596 0.27102,0.79809 0.38113,1.2057 l 0,6.5e-4 c 0.0549,0.20372 0.10594,0.40852 0.15258,0.61467 l 0,6.8e-4 c 0.23327,1.03162 0.36231,2.09269 0.39021,3.16429 0.011,0.42873 0.006,0.85891 -0.015,1.28997 l 0,6.7e-4 c -0.011,0.21534 -0.0247,0.43072 -0.0428,0.64619 l 0,6.8e-4 c 0,0.019 -0.005,0.038 -0.006,0.0571 -0.0343,0.38725 -0.0819,0.77448 -0.14153,1.16084 -0.005,0.0249 -0.006,0.0497 -0.01,0.0746 l 0,6.6e-4 c -0.034,0.2149 -0.0719,0.42958 -0.11366,0.64378 l 0,6.6e-4 c -0.12542,0.64296 -0.28562,1.28188 -0.4798,1.91313 l 0,6.8e-4 c -0.19421,0.63124 -0.42234,1.25472 -0.68369,1.86644 l 0,6.6e-4 c -0.1742,0.40769 -0.36335,0.81021 -0.5668,1.20632 l 0,6.5e-4 c -0.20347,0.39617 -0.42152,0.78586 -0.65382,1.16812 l 0,6.8e-4 c -1.85907,3.05924 -4.63348,5.6361 -8.2036,7.13665 -0.66943,0.28134 -1.36668,0.52504 -2.0913,0.72681 0.13321,-0.3178 0.24234,-0.64359 0.3292,-0.97719 0.0869,-0.33358 0.15169,-0.67471 0.19607,-1.02263 0.0223,-0.17375 0.039,-0.3497 0.0514,-0.52677 l 0,-6.8e-4 c 0.0123,-0.17705 0.0199,-0.35567 0.0227,-0.53585 l 0,-6.7e-4 c 0.023,-1.44293 -0.24806,-2.98286 -0.68955,-4.57308 l 0,-6.5e-4 c -0.11035,-0.39761 -0.23114,-0.79833 -0.36098,-1.20148 -0.25967,-0.80627 -0.5544,-1.62203 -0.86874,-2.44171 -0.15717,-0.40985 -0.31927,-0.82078 -0.48434,-1.23177 -0.49522,-1.23299 -1.0176,-2.46742 -1.51477,-3.68442 l 0,-6.5e-4 c -0.33141,-0.81115 -0.65147,-1.61414 -0.94533,-2.40353 l 0,-6.6e-4 c -0.29385,-0.78941 -0.56139,-1.56514 -0.78693,-2.3211 l 0,-6.7e-4 c -0.11281,-0.37804 -0.21522,-0.75091 -0.30517,-1.11842 -0.09,-0.36748 -0.16785,-0.72899 -0.23114,-1.08446 l 0,-6.7e-4 c -0.15819,-0.88846 -0.22705,-1.73713 -0.17658,-2.53446 l 0,-6.7e-4 c 0,-0.0141 0.003,-0.0277 0.005,-0.0419 0.021,-0.30397 0.0586,-0.601 0.11623,-0.88928 0.0303,-0.15073 0.0656,-0.29937 0.10648,-0.44555 l 0,-6.6e-4 c 0.0409,-0.14619 0.0874,-0.29018 0.13959,-0.4316 l 0,-6.7e-4 c 0.0202,-0.0549 0.0455,-0.10767 0.0676,-0.16185 0.0348,-0.0856 0.0674,-0.17206 0.10648,-0.2558 0.12761,-0.27315 0.27913,-0.53631 0.45642,-0.78866 l 0,-6.8e-4 c 0.0886,-0.12603 0.18337,-0.24918 0.28502,-0.36976 l 0,-6.7e-4 c 0.10163,-0.12053 0.21003,-0.23846 0.32532,-0.3534 l 0,-6.7e-4 c 0.23083,-0.23008 0.48962,-0.4489 0.77781,-0.65528 l 0,-6.8e-4 c 0.0422,-0.0302 0.0897,-0.0581 0.13311,-0.088 0.19436,-0.13272 0.40274,-0.25934 0.6233,-0.38131 0.0671,-0.0371 0.12979,-0.076 0.19932,-0.11218 l 0,-6.7e-4 c 0.17487,-0.0906 0.35707,-0.17778 0.54797,-0.26187 0.38157,-0.16809 0.79618,-0.32302 1.24467,-0.46374 0.22467,-0.0704 0.45774,-0.1373 0.69995,-0.20064 0.48377,-0.12654 1.00296,-0.23889 1.55955,-0.33583 z m 7.39001,39.39729 0.003,6.7e-4 c 0.12893,-0.001 0.25563,0.003 0.37919,0.0158 0.24733,0.0252 0.48041,0.0803 0.68823,0.17034 0.0519,0.0225 0.10217,0.047 0.15061,0.0739 0.0483,0.0268 0.0944,0.0564 0.13897,0.088 0.15671,0.11048 0.31238,0.22442 0.46684,0.34128 0.1547,0.11709 0.30798,0.23684 0.4603,0.36008 0.15221,0.12313 0.30287,0.24915 0.45257,0.37826 0.1498,0.1292 0.29822,0.26148 0.44538,0.39645 0.37223,0.34134 0.73488,0.70271 1.08885,1.07839 0.0655,0.0695 0.13194,0.13735 0.19673,0.20794 0.063,0.0686 0.12462,0.13949 0.18698,0.20914 0.2118,0.23652 0.4205,0.47721 0.6246,0.725 0.39616,0.48088 0.77733,0.98211 1.14205,1.50091 0.24314,0.34585 0.47911,0.69913 0.7071,1.0596 0.0818,0.12942 0.15719,0.2641 0.23697,0.39525 0.80929,1.33002 1.51754,2.74296 2.09068,4.20451 l 0,6.6e-4 c 0.3148,0.80289 0.59015,1.619 0.82261,2.44171 0.1647,0.58274 0.30658,1.16888 0.42658,1.75552 0.008,0.0345 0.0153,0.0687 0.022,0.10303 0.006,0.0306 0.011,0.0615 0.017,0.0922 0.15624,0.79793 0.27066,1.59634 0.33761,2.38959 0.0172,0.20589 0.0319,0.41145 0.0427,0.61648 0.0444,0.82017 0.0375,1.63242 -0.0239,2.43022 -0.0153,0.19944 -0.0341,0.39837 -0.0564,0.59588 -0.067,0.59248 -0.16528,1.17543 -0.29672,1.74642 -0.1314,0.5708 -0.29619,1.1297 -0.49537,1.67307 l 0,6.7e-4 c -0.13285,0.36237 -0.28121,0.7177 -0.44544,1.06567 -0.16421,0.34798 -0.34422,0.68839 -0.54083,1.02021 -0.19656,0.33182 -0.40961,0.65477 -0.63952,0.96869 -0.22991,0.31391 -0.47663,0.6187 -0.74085,0.91292 -0.2642,0.29423 -0.54582,0.57828 -0.84532,0.85108 -0.14973,0.13641 -0.30422,0.26998 -0.46295,0.40069 -0.79371,0.65344 -1.70093,1.23466 -2.7289,1.72945 -0.20564,0.099 -0.41637,0.19477 -0.63175,0.28674 -0.43061,0.18384 -0.88086,0.35346 -1.35112,0.50798 -1.15723,0.46213 -2.35459,0.91745 -3.58141,1.33543 -0.53704,0.18298 -1.08086,0.35688 -1.62837,0.52313 -0.70325,0.21354 -1.41369,0.41279 -2.13093,0.58921 -0.63763,0.15683 -1.28045,0.29695 -1.92638,0.41646 -0.64619,0.11954 -1.29591,0.21866 -1.94783,0.2934 -0.32576,0.0374 -0.65244,0.0686 -0.9791,0.0933 -0.98071,0.0742 -1.96493,0.0901 -2.94835,0.0339 l 0,-6.6e-4 c 0.11599,-0.15733 0.22828,-0.31634 0.33698,-0.47707 0.10864,-0.16058 0.21389,-0.32291 0.31554,-0.48676 l 0,-6.7e-4 c 0.0364,-0.0586 0.0698,-0.1182 0.10519,-0.17701 0.2625,-0.43647 0.50364,-0.88274 0.72134,-1.34028 l 0,-6.6e-4 c 0.0824,-0.17296 0.16126,-0.34739 0.23765,-0.52315 l 0,-6.6e-4 c 0.0763,-0.17573 0.15007,-0.35262 0.22074,-0.53102 l 0,-6.6e-4 c 0.025,-0.063 0.0479,-0.12703 0.0721,-0.19035 0.0445,-0.11599 0.0896,-0.23153 0.1318,-0.34855 0.0652,-0.18113 0.12815,-0.36385 0.1883,-0.54738 0.30078,-0.91772 0.53878,-1.86502 0.72977,-2.83393 0.0763,-0.38738 0.14537,-0.77854 0.20777,-1.17237 l 0,-6.7e-4 c 0.0624,-0.39383 0.11832,-0.79064 0.16881,-1.18995 l 0,-6.6e-4 c 0.10099,-0.7988 0.18078,-1.60755 0.24672,-2.42232 l 0,-6.6e-4 c 0.033,-0.40729 0.0623,-0.81592 0.0896,-1.22573 l 0,-6.4e-4 c 0.10914,-1.6398 0.18106,-3.29581 0.28181,-4.9362 l 0,-6.5e-4 c 0.0254,-0.40995 0.0525,-0.8188 0.0825,-1.22632 l 0,-6.6e-4 c 0.0299,-0.40751 0.0622,-0.81374 0.0987,-1.21784 l 0,-6.5e-4 c 0.0366,-0.40409 0.0774,-0.80604 0.12274,-1.20572 l 0,-6.7e-4 c 0.0453,-0.39967 0.0951,-0.79686 0.15124,-1.19115 l 0,-6.7e-4 c 0.0561,-0.39426 0.11869,-0.78568 0.18766,-1.17358 l 0,-6.7e-4 c 0.0691,-0.38808 0.14515,-0.77225 0.22917,-1.15295 0.16802,-0.76122 0.36813,-1.5068 0.60838,-2.23259 l 0,-6.8e-4 c 0.06,-0.18131 0.12249,-0.36131 0.18766,-0.54011 l 0,-6.6e-4 c 0.1304,-0.35775 0.27203,-0.71026 0.4246,-1.0572 l 0,-6.5e-4 c 0.0763,-0.17338 0.15545,-0.34538 0.23766,-0.51587 l 0,-6.5e-4 c 0.16448,-0.34116 0.34133,-0.67623 0.53108,-1.00507 l 0,-6.6e-4 c 0.0949,-0.16435 0.1932,-0.32691 0.29476,-0.48799 l 0,-6.6e-4 c 0.10153,-0.16109 0.20708,-0.32059 0.31559,-0.4783 l 0,-6.5e-4 c 0.10852,-0.1577 0.22056,-0.31318 0.33632,-0.46738 l 0,-6.5e-4 c 0.11574,-0.1542 0.23581,-0.3065 0.35904,-0.45707 l 0,-0.001 c 0.24658,-0.30125 0.50822,-0.59481 0.78627,-0.88079 l 0,-6.7e-4 c 0.13898,-0.14293 0.28261,-0.28357 0.42983,-0.42251 0.4421,-0.41723 0.92153,-0.81647 1.44267,-1.1954 0.0736,-0.0535 0.15312,-0.10497 0.23699,-0.15458 0.25147,-0.14858 0.54535,-0.2782 0.85833,-0.37826 0.0242,-0.008 0.0496,-0.0137 0.074,-0.0212 0.16704,-0.0505 0.33835,-0.0919 0.51161,-0.12428 0.23822,-0.0443 0.47915,-0.072 0.71355,-0.075 z m -22.98362,0.78259 0,0 0,0 c 0.17024,0.001 0.37375,0.0153 0.60123,0.0412 0.45653,0.052 1.00942,0.15347 1.58552,0.30491 0.14405,0.0378 0.28931,0.079 0.43501,0.12307 0.7288,0.22037 1.46411,0.51812 2.06145,0.89412 0.11942,0.0751 0.23302,0.15379 0.34022,0.2352 0.10745,0.0816 0.20779,0.16564 0.30061,0.25338 0.18546,0.17528 0.3397,0.36294 0.4532,0.56315 0.0652,0.11526 0.12819,0.23492 0.18828,0.35886 0.0602,0.12395 0.11722,0.25184 0.17207,0.38372 0.10975,0.264 0.20887,0.54257 0.29673,0.8335 0.0877,0.29066 0.16419,0.59335 0.22917,0.90443 0.065,0.31108 0.11833,0.63034 0.15973,0.95536 0.0412,0.32502 0.0708,0.65559 0.0877,0.98809 0.009,0.16625 0.0136,0.3332 0.0156,0.50009 0.011,0.83452 -0.0579,1.67211 -0.21298,2.46233 -0.0621,0.3161 -0.13783,0.62433 -0.22788,0.92201 -0.1801,0.59535 -0.4173,1.14777 -0.71485,1.63065 -0.1488,0.24143 -0.31269,0.46561 -0.49217,0.66923 -0.0898,0.10196 -0.18343,0.19852 -0.28114,0.28976 -0.0879,0.082 -0.17971,0.15819 -0.27398,0.23096 -0.01,0.008 -0.0196,0.017 -0.0299,0.0249 l 0,6.7e-4 c -0.1053,0.0795 -0.21521,0.15344 -0.32854,0.22065 -0.14615,0.0867 -0.3019,0.15826 -0.46163,0.22309 -0.21266,0.0863 -0.43427,0.15671 -0.67134,0.20064 -0.27681,0.0514 -0.57068,0.0724 -0.88173,0.06 -0.27599,-0.011 -0.54279,-0.0522 -0.80055,-0.12126 -0.0857,-0.023 -0.17024,-0.0494 -0.25386,-0.0782 -0.0838,-0.0289 -0.16631,-0.0609 -0.24802,-0.0958 -0.0818,-0.0348 -0.16243,-0.0722 -0.24221,-0.11281 -0.0794,-0.0403 -0.15769,-0.0834 -0.23502,-0.12912 -0.0774,-0.0458 -0.15325,-0.0945 -0.22855,-0.14549 -0.15062,-0.10174 -0.29705,-0.21342 -0.4389,-0.3346 -0.28363,-0.2424 -0.54934,-0.52211 -0.79667,-0.8317 -0.12369,-0.15479 -0.24277,-0.31714 -0.3571,-0.48616 -0.22859,-0.33807 -0.4384,-0.70272 -0.62848,-1.08751 -0.38013,-0.76953 -0.6819,-1.61874 -0.89861,-2.49324 -0.1084,-0.43724 -0.19514,-0.8809 -0.26037,-1.32391 -0.0652,-0.44299 -0.10864,-0.88517 -0.12917,-1.32028 -0.072,-1.52286 0.13422,-2.95584 0.65122,-4.00568 0.1477,-0.29994 0.3208,-0.56833 0.52005,-0.79895 0.0498,-0.0578 0.10131,-0.11317 0.15454,-0.1661 0.0263,-0.0262 0.0542,-0.0496 0.0811,-0.0746 0.0574,-0.0528 0.11685,-0.10261 0.17792,-0.14972 0.0845,-0.0651 0.17133,-0.12701 0.26296,-0.18065 0.12612,-0.0739 0.25899,-0.13619 0.39863,-0.18671 0.20933,-0.0757 0.43436,-0.12449 0.67459,-0.14307 0.0795,-0.006 0.16114,-0.009 0.24415,-0.009 z m -45.31218,52.17329 c 0.003,8.7e-4 0.006,0.002 0.009,0.003 -0.002,-10e-4 -0.005,-0.003 -0.008,-0.003 0,0 -8.7e-4,-3e-5 -10e-4,0 z m -8.7191,15.38866 c 0.005,0.1026 0.005,0.20584 0.0124,0.30793 10e-4,0.017 0.003,0.0339 0.005,0.0509 0.006,0.0732 0.0153,0.14583 0.0226,0.21884 -0.003,-0.0333 -0.005,-0.0671 -0.008,-0.10066 -0.013,-0.14094 -0.0224,-0.28243 -0.0292,-0.42433 -8.7e-4,-0.0177 -0.002,-0.035 -0.003,-0.0528 z m 0.0545,0.70985 c 0.005,0.0417 0.009,0.0833 0.013,0.12487 0.024,0.18763 0.0541,0.37433 0.0889,0.56012 -0.009,-0.048 -0.0132,-0.0968 -0.0214,-0.14488 -0.0283,-0.16347 -0.0534,-0.32736 -0.0733,-0.49223 -0.001,-0.016 -0.005,-0.0319 -0.008,-0.0479 z m -5.24548,34.85452 c 0.0225,0.0739 0.0502,0.14766 0.0773,0.22126 0.001,0.003 0.003,0.008 0.005,0.011 -0.0286,-0.0772 -0.058,-0.15447 -0.0818,-0.23216 z m 4.00862,4.02265 c 0.009,0.005 0.0169,0.01 0.0254,0.014 10e-4,8.7e-4 0.003,0.001 0.006,0.002 0.10475,0.0567 0.21704,0.1128 0.32659,0.16912 0.008,0.003 0.015,0.008 0.0221,0.011 -0.12875,-0.0657 -0.25719,-0.13093 -0.37983,-0.197 z m 19.23993,17.88555 c -0.0519,0.0259 -0.10519,0.0523 -0.15647,0.0776 0.003,-8.7e-4 0.003,-8.7e-4 0.005,-10e-4 0.0497,-0.0246 0.10088,-0.0507 0.15129,-0.0758 z"
       style="opacity:0.95;fill:#000000;fill-opacity:0.15686275;stroke:none;stroke-width:1.45079136;stroke-linecap:butt;stroke-linejoin:miter;stroke-miterlimit:4;stroke-dasharray:2.9015828, 2.9015828;stroke-dashoffset:0;stroke-opacity:1" />
    <path
       sodipodi:nodetypes="ccccccscccccccscccccccccssccsscccccccccccccccccscccccscccccccc"
       id="path3342-8"
       d="m 315.97444,61.971458 c -7.2684,27.932472 -46.61045,47.623572 -73.01151,60.219202 -0.17136,0.0818 -0.34849,0.16677 -0.51875,0.24794 -0.41995,0.20095 -0.84497,0.40471 -1.24794,0.59649 -0.4772,0.21785 -0.96523,0.43181 -1.45826,0.64316 -0.0757,0.0324 -0.15119,0.0648 -0.22725,0.097 -0.25559,0.10851 -0.51818,0.21435 -0.77781,0.32128 -0.4174,0.17188 -0.83855,0.34256 -1.26608,0.51039 -0.21971,0.0862 -0.44061,0.17182 -0.6629,0.25703 -0.466,0.17868 -0.93837,0.3548 -1.41545,0.5292 -0.19759,0.0722 -0.39333,0.14548 -0.59279,0.21702 -0.63201,0.22672 -1.2714,0.45028 -1.9212,0.67044 -0.0329,0.011 -0.064,0.0229 -0.0968,0.0339 -0.005,0.001 -0.009,0.002 -0.013,0.005 -0.71047,0.23998 -1.43379,0.47559 -2.16401,0.70863 -0.1393,0.0445 -0.28078,0.0886 -0.42076,0.13274 -0.58982,0.18633 -1.18521,0.37043 -1.7868,0.55286 -0.19127,0.0579 -0.38346,0.11574 -0.5759,0.17337 -0.6025,0.18048 -1.2106,0.35927 -1.8238,0.53647 -0.13593,0.0392 -0.27066,0.0791 -0.4071,0.1182 -1.0012,0.28717 -2.02048,0.5696 -3.04703,0.84987 -0.9063,0.24733 -1.82204,0.49259 -2.74579,0.73591 -0.44801,0.11808 -0.89679,0.23605 -1.34852,0.35341 -0.25109,0.0651 -0.50686,0.13018 -0.75902,0.19519 -1.55652,0.40149 -3.13166,0.80112 -4.72412,1.19904 -4.99949,1.24929 -10.14275,2.49602 -15.29493,3.83231 -7.29497,1.89205 -14.58984,3.96376 -21.45007,6.47832 -2.7e-4,1.7e-4 -3.2e-4,3.1e-4 0,6.7e-4 -5.38061,1.97224 -10.498,4.21243 -15.13392,6.85657 -20.98203,11.9673 -36.24251,28.27235 -48.12461,47.23229 -15.98502,25.50683 -4.91319,58.30717 -48.645768,82.70628 -0.724496,0.86012 -1.618058,1.65259 -2.631505,2.39565 0.04899,-0.036 0.09884,-0.0711 0.147393,-0.10723 1.470407,0.84275 2.865008,3.84046 2.867839,9.31952 0.0075,14.09027 -5.886942,29.62124 -10.544204,33.98162 -0.236049,0.22098 -0.597592,0.50408 -1.029097,0.79651 15.605415,15.1998 38.191095,25.55754 62.632202,27.65731 12.10212,1.30529 29.16357,0.69357 36.3522,0.68014 61.07783,-0.15213 119.28148,-28.50614 154.24668,-68.72403 3.6461,-4.42384 22.32321,-26.2733 7.20304,-13.85198 -16.93698,9.24357 -2.67903,-14.29142 -15.16769,-15.19347 -23.57479,-7.2539 4.01364,-18.91986 8.30941,-27.80154 -10.78826,-5.29744 -16.97256,-13.79258 -8.19191,-23.30607 16.12573,-11.70491 -9.95292,-2.49454 -13.82432,-6.58683 20.60131,-23.02183 40.14835,-48.14296 44.49668,-77.0433 2.73018,-20.06743 -0.71097,-41.7505 -13.20429,-59.225279 z M 148.36374,201.67388 c 12.46114,-0.0151 13.3946,19.35377 14.76711,28.04584 2.07391,13.00425 4.47543,27.61707 -14.73788,32.48616 -1.30545,0.55686 -6.34962,3.78233 -4.86892,-0.2061 5.46194,-9.49652 -4.00274,-33.46914 -18.61143,-21.54874 -1.4555,-13.53342 3.38582,-29.00859 17.37002,-37.49629 2.28557,-0.88099 4.30095,-1.27871 6.0811,-1.28087 z M 61.359734,281.6081 c -0.08462,0.0598 -0.171499,0.11856 -0.257771,0.17761 0.08635,-0.059 0.172726,-0.11758 0.257771,-0.17761 z m -8.609357,43.39451 0,0.008 c 0.0583,0.0575 0.119421,0.11354 0.177918,0.17095 -0.06001,-0.0589 -0.118441,-0.11869 -0.177918,-0.17764 z"
       style="fill:#006697;stroke-width:0.45385963"
       inkscape:connector-curvature="0" />
  </g>
  <path
     style="fill:#001a26;fill-opacity:1;fill-rule:evenodd;stroke:#00354e;stroke-width:0.95520681;stroke-linecap:butt;stroke-linejoin:round;stroke-miterlimit:4;stroke-dasharray:none;stroke-opacity:1"
     d="m 179.25879,372.00301 c 7.02998,-0.71464 10.14978,-0.96256 18.49572,-7.82474 9.16192,-8.42849 17.17904,-18.2886 25.74374,-27.46393 0.48184,-1.69582 -2.08713,-5.84882 -2.88767,-3.09326 -0.20787,1.73361 -0.99862,2.21645 -2.8995,4.68782 -8.78938,9.16794 -17.71082,20.46696 -26.36814,27.5038 -1.13449,1.24611 -8.60019,5.21081 -12.08415,6.19031 z"
     id="path4154"
     inkscape:connector-curvature="0"
     sodipodi:nodetypes="ccccccc" />
  <path
     style="opacity:1;fill:#9c4242;fill-opacity:1;fill-rule:evenodd;stroke:none;stroke-width:1.14897633;stroke-linecap:butt;stroke-linejoin:round;stroke-miterlimit:4;stroke-dasharray:none;stroke-dashoffset:0;stroke-opacity:1"
     id="path4231"
     sodipodi:type="arc"
     sodipodi:cx="-372.45239"
     sodipodi:cy="350.8894"
     sodipodi:rx="289.90512"
     sodipodi:ry="350.49344"
     sodipodi:start="0"
     sodipodi:end="0.049042181"
     sodipodi:open="true"
     d="m -82.547272,350.8894 a 289.90512,350.49344 0 0 1 -0.34856,17.18208" />
  <path
     style="opacity:1;fill:#9c4242;fill-opacity:1;fill-rule:evenodd;stroke:none;stroke-width:1.14897633;stroke-linecap:butt;stroke-linejoin:round;stroke-miterlimit:4;stroke-dasharray:none;stroke-dashoffset:0;stroke-opacity:1"
     id="path4233"
     sodipodi:type="arc"
     sodipodi:cx="-714.7525"
     sodipodi:cy="202.36014"
     sodipodi:rx="303.14401"
     sodipodi:ry="282.90164"
     sodipodi:start="0"
     sodipodi:end="0.049042181"
     sodipodi:open="true"
     d="m -411.60849,202.36014 a 303.14401,282.90164 0 0 1 -0.36448,13.86855" />
  <path
     style="opacity:1;fill:#ffffff;fill-opacity:1;fill-rule:evenodd;stroke:none;stroke-width:2.3958447;stroke-linecap:butt;stroke-linejoin:round;stroke-miterlimit:4;stroke-dasharray:none;stroke-dashoffset:0;stroke-opacity:1"
     id="path4237"
     sodipodi:type="arc"
     sodipodi:cx="263.61121"
     sodipodi:cy="163.69576"
     sodipodi:rx="4.1980052"
     sodipodi:ry="5.261035"
     sodipodi:start="0.34945506"
     sodipodi:end="0.34612148"
     sodipodi:open="true"
     d="m 267.55548,165.49706 a 4.1980052,5.261035 0 0 1 -5.37832,3.14325 4.1980052,5.261035 0 0 1 -2.51262,-6.73762 4.1980052,5.261035 0 0 1 5.37414,-3.15448 4.1980052,5.261035 0 0 1 2.52157,6.73236"
     transform="matrix(0.88433837,0.4668465,-0.30888314,0.9511,0,0)" />
</svg>
