<?xml version="1.0" encoding="UTF-8" standalone="no"?>
<!-- Created with Inkscape (http://www.inkscape.org/) -->

<svg
   xmlns:dc="http://purl.org/dc/elements/1.1/"
   xmlns:cc="http://creativecommons.org/ns#"
   xmlns:rdf="http://www.w3.org/1999/02/22-rdf-syntax-ns#"
   xmlns:svg="http://www.w3.org/2000/svg"
   xmlns="http://www.w3.org/2000/svg"
   xmlns:sodipodi="http://sodipodi.sourceforge.net/DTD/sodipodi-0.dtd"
   xmlns:inkscape="http://www.inkscape.org/namespaces/inkscape"
   id="svg2"
   version="1.1"
   inkscape:version="0.91+devel r"
   width="512"
   height="512"
   sodipodi:docname="preferences-desktop-accessibility.svg"
   viewBox="0 0 512 512">
  <metadata
     id="metadata8">
    <rdf:RDF>
      <cc:Work
         rdf:about="">
        <dc:format>image/svg+xml</dc:format>
        <dc:type
           rdf:resource="http://purl.org/dc/dcmitype/StillImage" />
        <dc:title></dc:title>
      </cc:Work>
    </rdf:RDF>
  </metadata>
  <defs
     id="defs6" />
  <sodipodi:namedview
     pagecolor="#ffffff"
     bordercolor="#666666"
     borderopacity="1"
     objecttolerance="10"
     gridtolerance="10"
     guidetolerance="10"
     inkscape:pageopacity="0"
     inkscape:pageshadow="2"
     inkscape:window-width="1920"
     inkscape:window-height="1025"
     id="namedview4"
     showgrid="false"
     inkscape:zoom="0.4609375"
     inkscape:cx="541.26837"
     inkscape:cy="710.27578"
     inkscape:window-x="0"
     inkscape:window-y="29"
     inkscape:window-maximized="1"
     inkscape:current-layer="svg2"
     inkscape:document-units="px" />
  <ellipse
     style="fill:#ffffff;fill-opacity:1;fill-rule:nonzero;stroke:#4169e1;stroke-width:0;stroke-linecap:round;stroke-linejoin:miter;stroke-miterlimit:4;stroke-dasharray:none;stroke-opacity:1"
     id="path3005"
     cx="257.09106"
     cy="259.24396"
     rx="129.93437"
     ry="151.33786" />
  <path
     inkscape:connector-curvature="0"
     id="path2984"
     d="m 238.4833,480.5189 c -14.43665,-1.35986 -26.33876,-3.34465 -37.90694,-6.32133 -8.36673,-2.15294 -8.14983,-2.08951 -15.75353,-4.6054 -6.70077,-2.21712 -8.43511,-2.85441 -10.2085,-3.75114 -0.47016,-0.23775 -1.07845,-0.43226 -1.35174,-0.43226 -0.27329,0 -2.17551,-0.77073 -4.22716,-1.71274 -2.05165,-0.942 -3.85652,-1.71273 -4.01084,-1.71273 -0.87373,0 -18.72187,-9.33375 -24.54078,-12.83369 -9.03561,-5.43471 -11.18413,-6.87408 -19.22106,-12.87686 -11.36578,-8.48908 -26.719014,-22.66163 -34.171559,-31.54372 -1.467874,-1.74944 -3.183717,-3.71628 -3.812991,-4.37077 -3.936725,-4.09444 -15.186994,-20.06838 -21.563896,-30.61795 -2.575806,-4.26127 -9.482924,-17.55356 -10.552784,-20.30814 -0.365872,-0.94201 -1.290361,-3.01796 -2.054429,-4.61323 -0.764069,-1.59528 -1.389214,-3.08409 -1.389214,-3.30847 0,-0.22438 -0.425196,-1.34145 -0.944884,-2.48238 -0.519684,-1.14093 -1.09816,-2.62494 -1.285504,-3.2978 -0.187339,-0.67286 -0.623192,-1.88401 -0.968553,-2.69144 -1.54703,-3.61682 -4.639642,-13.64748 -7.166571,-23.24426 -0.999726,-3.79675 -3.396831,-16.24181 -4.147297,-21.53152 C 31.741632,277.94793 31,267.08537 31,255.96579 c 0,-24.93733 3.723455,-47.62165 11.82065,-72.01472 2.025267,-6.10118 2.197065,-6.56585 3.61629,-9.78114 0.433749,-0.98268 0.788641,-1.94034 0.788641,-2.12813 0,-0.1878 0.354888,-1.14545 0.788641,-2.12813 0.433753,-0.98268 0.969126,-2.22711 1.18972,-2.7654 0.566755,-1.38297 6.342499,-13.50042 6.997463,-14.68058 0.298736,-0.53829 1.197607,-2.18985 1.997491,-3.67015 1.202147,-2.22473 3.259396,-5.7447 7.487855,-12.81178 3.411554,-5.70177 13.469775,-19.26615 18.953467,-25.56039 1.21844,-1.39853 3.323011,-3.84451 4.676834,-5.43551 7.374121,-8.66602 24.495658,-24.00192 34.406968,-30.818604 0.78266,-0.53829 2.02036,-1.419125 2.75047,-1.957415 2.73869,-2.019184 12.69464,-8.475698 16.10848,-10.44647 5.11418,-2.952369 19.40852,-10.35102 19.99837,-10.35102 0.15951,0 1.68456,-0.651281 3.38899,-1.44729 4.56807,-2.133387 10.08953,-4.258752 18.11405,-6.972618 9.95512,-3.366778 18.30246,-5.654545 26.58409,-7.285935 13.24178,-2.608484 16.58331,-3.025975 33.10703,-4.136385 11.39121,-0.765498 12.97754,-0.765498 24.36874,0 16.52372,1.11041 19.86526,1.527901 33.10703,4.136385 2.57901,0.508037 4.61745,0.965349 8.73829,1.960382 10.45914,2.525498 27.54955,8.370378 35.95985,12.298171 1.70443,0.796009 3.22947,1.44729 3.38899,1.44729 0.58985,0 14.88419,7.398651 19.99837,10.35102 3.41384,1.970772 13.36979,8.427286 16.10848,10.44647 0.7301,0.53829 1.96781,1.419125 2.75047,1.957415 9.91131,6.816684 27.03285,22.152584 34.40697,30.818604 1.35382,1.591 3.45839,4.03698 4.67683,5.43551 5.4837,6.29424 15.54192,19.85862 18.95347,25.56039 4.22847,7.06708 6.28571,10.58705 7.48786,12.81178 0.79988,1.4803 1.69875,3.13186 1.99749,3.67015 0.65496,1.18016 6.43071,13.29761 6.99746,14.68058 0.2206,0.53829 0.75597,1.78272 1.18972,2.7654 0.43375,0.98268 0.78864,1.94033 0.78864,2.12813 0,0.18779 0.35489,1.14545 0.78865,2.12813 1.41922,3.21529 1.59101,3.67996 3.6163,9.78114 12.80706,38.58156 15.30069,78.18976 7.36826,117.03517 -1.46176,7.15832 -1.6901,8.13001 -3.16242,13.4572 -2.20169,7.96657 -4.63241,15.62216 -5.90414,18.59541 -0.34536,0.80743 -0.78122,2.01858 -0.96856,2.69144 -0.18734,0.67286 -0.76582,2.15687 -1.2855,3.2978 -0.51969,1.14093 -0.94488,2.258 -0.94488,2.48238 0,0.22438 -0.62515,1.71319 -1.38921,3.30847 -0.76408,1.59527 -1.68857,3.67122 -2.05444,4.61323 -1.06986,2.75458 -7.97697,16.04687 -10.55278,20.30814 -5.3339,8.82409 -8.65969,13.75057 -14.88854,22.05428 -3.04217,4.05553 -6.04608,7.90918 -6.67536,8.56367 -0.62927,0.65449 -2.34512,2.62133 -3.81299,4.37077 -4.11933,4.90949 -18.40098,18.90745 -23.88696,23.41245 -6.40159,5.25689 -5.81109,4.79003 -10.28459,8.13127 -8.03694,6.00278 -10.18547,7.44215 -19.22107,12.87686 -5.81891,3.49994 -23.66705,12.83369 -24.54078,12.83369 -0.15431,0 -1.95919,0.77073 -4.01084,1.71273 -2.05164,0.94201 -3.95387,1.71274 -4.22716,1.71274 -0.27329,0 -0.88157,0.19451 -1.35174,0.43226 -0.47016,0.23774 -1.40867,0.6659 -2.08558,0.95147 -1.44361,0.60902 -14.33906,4.89594 -16.49198,5.48253 -23.44251,6.38728 -41.32144,8.83312 -63.75257,8.72132 -6.63372,-0.0329 -14.05511,-0.24794 -16.49198,-0.47745 z m 36.37424,-21.99833 c 13.09596,-1.53716 20.52677,-2.77955 29.34752,-4.90673 29.81006,-7.18887 58.9566,-21.7718 81.96759,-41.01097 6.41362,-5.36233 17.85188,-16.57214 23.26374,-22.7991 23.14123,-26.62661 38.61879,-57.95718 45.62055,-92.34779 2.75873,-13.55005 3.72986,-23.89171 3.72874,-39.70738 -0.002,-22.1775 -2.55424,-39.4652 -8.78954,-59.52643 -4.68967,-15.08838 -10.6522,-28.50685 -18.9177,-42.57369 -16.46608,-28.02321 -40.90748,-52.74889 -68.78224,-69.58226 -15.47126,-9.343 -34.1101,-17.66969 -47.99903,-21.443027 -23.59906,-6.411381 -35.02931,-7.998354 -57.845,-8.031165 -15.23208,-0.0219 -17.83681,0.147886 -30.27632,1.973619 -35.44765,5.202616 -68.38608,19.614783 -97.22883,42.542343 -15.24354,12.11734 -29.397932,27.40587 -40.532463,43.78017 -10.448672,15.36567 -19.021975,32.70052 -24.672867,49.88743 -2.290342,6.96596 -4.882101,16.44648 -5.758227,21.06328 -0.280907,1.48029 -0.700539,3.68238 -0.932511,4.89353 -0.533455,2.78529 -1.710208,10.60308 -2.504376,16.63799 -0.808052,6.14039 -0.811207,34.35743 -0.0045,40.61628 1.005835,7.80419 1.606918,11.8137 2.384249,15.90396 0.409194,2.15315 0.928676,4.90576 1.154409,6.11691 2.325094,12.47526 8.687143,30.84474 15.687624,45.29572 15.591619,32.18556 39.101892,59.2134 68.935732,79.24979 9.68481,6.5043 13.99296,8.96372 25.20523,14.38904 16.28585,7.8803 31.36126,12.95871 49.40522,16.643 3.28084,0.6699 14.7787,2.36024 19.69191,2.89499 5.75183,0.626 32.61794,0.65475 37.85114,0.0405 z m -31.20512,-31.5855 c -31.21047,-2.18459 -62.91738,-13.85104 -88.12131,-32.42394 -10.32696,-7.60998 -24.41387,-20.95306 -31.57634,-29.90903 -19.33024,-24.17053 -31.125769,-50.10595 -35.832072,-78.78579 -1.22701,-7.47731 -1.504749,-10.02927 -2.057048,-18.9009 -2.236639,-35.92744 7.94665,-72.98674 28.34709,-103.16143 25.35831,-37.508 64.45818,-63.63239 108.01017,-72.16646 20.74614,-4.06524 37.92446,-4.57147 58.15185,-1.71367 43.99913,6.21634 83.47702,29.15671 111.08575,64.55125 37.59762,48.20037 45.89182,113.81354 21.51936,170.23395 -12.58014,29.12209 -34.92844,55.97426 -61.22192,73.56002 -13.85816,9.26869 -29.47122,16.80713 -43.81451,21.15491 -2.84302,0.86179 -5.72296,1.75416 -6.39987,1.98304 -1.02554,0.34677 -5.08963,1.29734 -11.81514,2.7635 -2.27237,0.49538 -6.60506,1.17834 -12.30745,1.94001 -5.44542,0.72734 -27.83586,1.3038 -33.96856,0.87454 z M 218.21656,396.3987 c 6.60992,-2.45829 12.15601,-11.88109 17.56281,-29.83919 2.96873,-9.8603 3.31715,-11.06036 5.39906,-18.5954 6.12315,-22.16147 8.6226,-29.35722 11.60097,-33.39832 2.13277,-2.89379 3.43687,-3.03337 5.58794,-0.59809 2.83217,3.20636 5.06361,8.92307 9.16331,23.47532 1.289,4.57545 3.65177,12.94339 5.2506,18.59541 7.70284,27.23043 12.93065,37.38823 20.73628,40.29122 3.52617,1.31142 4.31831,1.31513 8.12244,0.0381 7.83168,-2.62898 9.88958,-11.79087 5.98056,-26.62581 -0.52506,-1.99262 -2.52752,-8.42348 -4.44992,-14.2908 -3.96409,-12.09876 -4.85472,-15.21588 -6.61344,-23.14634 -0.6864,-3.09515 -1.45792,-6.50839 -1.71449,-7.58496 -1.65669,-6.95146 -4.57416,-24.95413 -5.86846,-36.21211 -1.35176,-11.75784 -1.58126,-15.05683 -1.83829,-26.42504 -0.41788,-18.4819 0.71715,-25.24811 5.03637,-30.02338 3.24312,-3.58556 7.4471,-5.27899 17.20189,-6.9292 1.35382,-0.22903 6.67063,-1.20002 11.81515,-2.15775 5.14451,-0.95774 10.01826,-1.86378 10.83055,-2.01343 0.81229,-0.14966 5.24297,-0.9138 9.84596,-1.69809 20.3791,-3.47237 27.6475,-5.98652 31.01476,-10.72806 1.35339,-1.90576 1.47577,-2.41357 1.46353,-6.07281 -0.0104,-3.10865 -0.24479,-4.42813 -1.05818,-5.95697 -2.47158,-4.64554 -5.85671,-6.57286 -11.57308,-6.5891 -2.08079,-0.006 -4.30145,0.18509 -4.93478,0.42444 -2.58522,0.97702 -20.20557,2.93623 -35.58876,3.95711 -32.00588,2.12403 -60.09972,2.79042 -85.90598,2.03771 -34.93597,-1.01902 -56.35664,-2.44104 -72.86008,-4.83687 -11.82962,-1.71731 -15.22671,-1.87407 -17.97804,-0.82962 -2.8343,1.07596 -5.25363,3.74825 -6.57739,7.26514 -2.37383,6.30669 -0.47853,11.33989 5.45613,14.48942 4.97766,2.64166 12.39117,4.55682 26.48377,6.84163 6.44817,1.04543 14.30319,2.4306 17.72272,3.12526 2.03073,0.41253 7.45831,1.4315 12.0613,2.26439 16.05373,2.90485 19.38591,4.60844 22.44063,11.47284 1.81948,4.08861 2.41946,9.50803 2.41324,21.79784 -0.008,16.47355 -1.17361,28.87831 -4.91859,52.36074 -2.38382,14.94742 -5.8782,29.25309 -10.81145,44.26111 -6.00609,18.27183 -7.62014,26.17564 -6.47288,31.6969 1.16942,5.62794 3.32858,8.4792 7.6873,10.15143 3.18207,1.2208 5.01513,1.22198 8.28654,0.005 z m 43.89703,-212.12069 c 5.93219,-1.10178 12.20208,-4.35084 16.36413,-8.47988 3.83806,-3.80763 6.06994,-7.32441 7.87,-12.40079 1.09934,-3.10025 1.27652,-4.42289 1.30023,-9.70627 0.0303,-6.75937 -0.45334,-8.93298 -3.21536,-14.44953 -3.89307,-7.77559 -11.57961,-13.83398 -20.42086,-16.09536 -3.7184,-0.95107 -11.20813,-0.98307 -15.07558,-0.0644 -9.09104,2.15947 -17.23204,8.84072 -21.15538,17.36203 -3.37011,7.31972 -3.72242,16.58239 -0.90625,23.8258 1.58018,4.06432 4.06502,8.14362 6.62731,10.87988 3.64679,3.89439 11.18273,7.95733 16.82545,9.0713 4.61246,0.91058 7.12593,0.92279 11.78631,0.0572 z"
     style="fill:#2980b9;fill-opacity:1;stroke-width:0.44551635" />
</svg>
