<?xml version="1.0" encoding="UTF-8" standalone="no"?>
<svg
   xmlns:dc="http://purl.org/dc/elements/1.1/"
   xmlns:cc="http://creativecommons.org/ns#"
   xmlns:rdf="http://www.w3.org/1999/02/22-rdf-syntax-ns#"
   xmlns:svg="http://www.w3.org/2000/svg"
   xmlns="http://www.w3.org/2000/svg"
   xmlns:sodipodi="http://sodipodi.sourceforge.net/DTD/sodipodi-0.dtd"
   xmlns:inkscape="http://www.inkscape.org/namespaces/inkscape"
   viewBox="0 0 512 512"
   id="svg2"
   version="1.1"
   inkscape:version="0.91+devel r"
   width="512"
   height="512"
   sodipodi:docname="grub-customizer.svg">
  <metadata
     id="metadata126">
    <rdf:RDF>
      <cc:Work
         rdf:about="">
        <dc:format>image/svg+xml</dc:format>
        <dc:type
           rdf:resource="http://purl.org/dc/dcmitype/StillImage" />
        <dc:title></dc:title>
      </cc:Work>
    </rdf:RDF>
  </metadata>
  <sodipodi:namedview
     pagecolor="#ffffff"
     bordercolor="#666666"
     borderopacity="1"
     objecttolerance="10"
     gridtolerance="10"
     guidetolerance="10"
     inkscape:pageopacity="0"
     inkscape:pageshadow="2"
     inkscape:window-width="1920"
     inkscape:window-height="1025"
     id="namedview124"
     showgrid="false"
     inkscape:zoom="5.6568543"
     inkscape:cx="80.372682"
     inkscape:cy="51.521726"
     inkscape:window-x="0"
     inkscape:window-y="29"
     inkscape:window-maximized="1"
     inkscape:current-layer="svg2">
    <inkscape:grid
       type="xygrid"
       id="grid3103"
       empspacing="5"
       visible="true"
       enabled="true"
       snapvisiblegridlinesonly="true" />
  </sodipodi:namedview>
  <defs
     id="defs4">
    <linearGradient
       id="linearGradient3764"
       x1="1"
       x2="47"
       gradientUnits="userSpaceOnUse"
       gradientTransform="rotate(-90,23.999998,24)">
      <stop
         stop-color="#e4e4e4"
         stop-opacity="1"
         id="stop7" />
      <stop
         offset="1"
         stop-color="#eee"
         stop-opacity="1"
         id="stop9" />
    </linearGradient>
    <clipPath
       id="clipPath-417599645">
      <g
         transform="translate(0,-1004.3622)"
         id="g17">
        <path
           d="m -24,13 c 0,1.105 -0.672,2 -1.5,2 -0.828,0 -1.5,-0.895 -1.5,-2 0,-1.105 0.672,-2 1.5,-2 0.828,0 1.5,0.895 1.5,2 z"
           transform="matrix(15.333333,0,0,11.5,414.99999,878.8622)"
           id="path19"
           inkscape:connector-curvature="0"
           style="fill:#1890d0" />
      </g>
    </clipPath>
  </defs>
  <path
     sodipodi:nodetypes="ssssssssssssssssssssscsssssssssssssssssssscssssssssssssssssssscsscsscsssssscssssssssssssssssscsssssssssssssssss"
     inkscape:connector-curvature="0"
     id="path2986"
     d="m 137.48974,455.90648 c -3.03446,-3.25726 -5.20306,-9.2199 -5.17509,-14.22913 0.0144,-2.5817 2.67535,-11.40093 7.60553,-25.20725 4.17086,-11.67994 7.63878,-22.28517 7.70649,-23.56717 0.0898,-1.70049 -1.93595,-4.19947 -7.48996,-9.2396 -4.18721,-3.79981 -10.2727,-10.04114 -13.52332,-13.86961 -3.25063,-3.82847 -6.81027,-7.34246 -7.91032,-7.80881 -1.23379,-0.52304 -10.30892,2.10387 -23.686966,6.85648 -11.927774,4.23741 -23.377028,7.82777 -25.44278,7.97865 -4.252157,0.31063 -12.23415,-2.72938 -15.651578,-5.96089 -2.717283,-2.56942 -22.590924,-50.67671 -23.026542,-55.73936 -0.432066,-5.02127 3.052306,-12.59437 7.457991,-16.20947 2.005518,-1.64564 12.860067,-7.15892 24.121234,-12.25171 12.122206,-5.48222 20.807909,-10.0453 21.291274,-11.18544 0.449032,-1.05924 0.54989,-6.02637 0.22416,-11.03813 -0.325785,-5.01175 -0.293203,-13.70673 0.0724,-19.32212 0.365564,-5.61543 0.119416,-10.86833 -0.547034,-11.67314 -0.666446,-0.80481 -10.320507,-5.93146 -21.453482,-11.39249 -12.947671,-6.35116 -21.475344,-11.06639 -23.66496,-13.08503 -4.172752,-3.84698 -7.283266,-12.28173 -6.249849,-16.94771 0.419137,-1.89247 5.797619,-14.94947 11.952178,-29.01553 l 11.190105,-25.57465 4.523567,-2.4502 c 7.994067,-4.33 10.72653,-3.94697 36.310199,5.08967 14.480363,5.1147 23.448933,7.83248 24.466903,7.41426 0.88389,-0.363 5.05463,-4.31636 9.26832,-8.78497 4.21369,-4.46856 10.36215,-10.42137 13.66324,-13.22835 3.3011,-2.80701 6.33423,-5.88736 6.74029,-6.84521 0.40607,-0.95784 -2.4196,-10.71865 -6.27925,-21.690653 -3.85967,-10.97204 -7.45605,-21.69229 -7.99196,-23.822867 -1.50731,-5.992308 -0.28537,-12.103352 3.40579,-17.032789 2.78707,-3.722045 5.61976,-5.179464 28.03707,-14.424667 13.71522,-5.656328 26.89773,-10.431088 29.29448,-10.610512 5.56184,-0.416377 12.83413,2.628191 16.38701,6.860522 1.49603,1.782125 6.88068,12.381083 11.96589,23.553293 5.0852,11.172131 9.67411,20.87249 10.19759,21.55628 0.55166,0.72066 5.7041,1.04632 12.2568,0.77475 6.21778,-0.25786 15.3177,-0.16351 20.22206,0.20949 6.64982,0.50565 9.43864,0.20988 10.9687,-1.16394 1.12844,-1.0131 6.53701,-10.943533 12.01904,-22.067609 10.54292,-21.393531 12.76251,-24.540844 19.28394,-27.344021 7.25416,-3.118129 10.32871,-2.322795 38.3017,9.907928 l 25.47855,11.140068 2.88064,4.349948 c 4.95612,7.484068 4.58753,10.674597 -4.13063,35.755196 -4.22005,12.140293 -7.84819,23.083863 -8.06253,24.318963 -0.30164,1.73823 1.31624,3.79377 7.1605,9.09728 4.15263,3.76842 10.5551,10.38747 14.22772,14.70908 3.67263,4.3216 7.05139,8.01594 7.50834,8.20968 0.45695,0.19389 10.71846,-3.16363 22.80334,-7.46068 12.08488,-4.29714 23.93864,-7.97193 26.34172,-8.16623 5.68051,-0.45935 12.59248,2.49702 16.63424,7.11479 1.91909,2.1925 6.95707,13.13548 12.84839,27.9078 10.11274,25.35744 10.64014,27.99163 7.22481,36.08605 -2.41555,5.72501 -6.55337,8.39818 -28.82299,18.6207 -12.10871,5.5583 -22.17875,10.4903 -22.37788,10.95996 -0.1991,0.46967 -0.11115,6.26621 0.19589,12.88122 0.30664,6.61497 0.1883,15.64673 -0.26346,20.07056 -0.56114,5.49573 -0.32063,8.56157 0.75955,9.67961 0.8695,0.89996 11.11249,6.39849 22.76228,12.21893 23.11917,11.55081 26.53022,14.14961 28.13776,21.43775 1.5197,6.88978 0.27545,11.04308 -11.01606,36.77077 l -10.80117,24.6106 -4.65674,2.89949 c -8.31526,5.17754 -9.78571,5 -36.86052,-4.44982 -13.22935,-4.6174 -24.37488,-8.26521 -24.76788,-8.10621 -0.39299,0.15911 -3.73542,3.59595 -7.4276,7.6377 -3.6922,4.04176 -10.26497,10.36741 -14.60617,14.05707 -4.34123,3.68962 -8.0056,7.3429 -8.1431,8.11837 -0.13748,0.7755 3.13297,10.93425 7.26768,22.57501 4.1347,11.64076 7.67766,23.50372 7.87324,26.36211 0.41545,6.07155 -1.59278,11.46266 -5.80304,15.57841 -3.71553,3.63213 -48.50958,22.18059 -54.71385,22.65609 -5.18765,0.39779 -13.03778,-2.65137 -16.67042,-6.47468 -1.39177,-1.46482 -6.91186,-12.2468 -12.26687,-23.95996 -5.355,-11.71316 -10.43131,-21.59362 -11.28069,-21.95655 -0.8493,-0.363 -6.61494,-0.47638 -12.81235,-0.25186 -6.19743,0.22428 -15.18001,0.0836 -19.9613,-0.31264 -6.60852,-0.54782 -9.00972,-0.28624 -10.01293,1.09002 -0.72581,0.99586 -6.05781,11.19872 -11.84888,22.67304 -12.73724,25.23731 -14.92333,27.63175 -25.9079,28.37731 -3.18517,0.21629 -7.62149,-1.39469 -29.56652,-10.7358 -19.42219,-8.26725 -26.40001,-11.61378 -28.16383,-13.50712 z m 86.9615,-99.16496 c 24.34084,7.43753 47.75271,6.39749 71.36543,-3.1703 17.99689,-7.29229 32.16612,-18.02858 44.66033,-33.83994 7.83273,-9.91229 18.31495,-34.68864 20.03423,-47.35417 5.21764,-38.43616 -8.69281,-74.26111 -38.43223,-98.97822 -6.92956,-5.75932 -8.99034,-6.90054 -24.40749,-13.51604 -14.76685,-6.33636 -17.96386,-7.37772 -25.98125,-8.46238 -40.03133,-5.4157 -79.69381,11.78052 -102.35944,44.37937 -20.36376,29.28814 -24.42263,66.27315 -10.95309,99.80605 7.05254,17.55755 19.15459,33.37695 34.54031,45.14996 4.38729,3.35712 10.96217,7.29841 20.57227,12.33187 0.76775,0.40218 5.70016,2.04634 10.96093,3.6538 z m -6.77208,-50.55006 c -21.75479,-17.08732 -30.08909,-45.30012 -20.98094,-71.02341 6.3683,-17.98544 18.30001,-30.42836 36.00906,-37.55191 32.25094,-12.97308 68.5493,2.1654 81.47438,33.97947 10.6458,26.20379 3.98459,54.22929 -17.19184,72.33066 -18.03683,15.4177 -40.88712,19.34147 -63.28037,10.8663 -7.62355,-2.8853 -11.18825,-4.79795 -16.03029,-8.60111 z m 37.80613,-12.65062 c 7.86619,0.33782 21.69075,-3.75599 28.03711,-9.24816 4.47834,-3.87556 5.45923,-5.38188 9.10597,-13.98343 3.87935,-9.15029 1.51502,-10.0207 0.83107,-17.13401 -1.38061,-14.35894 -8.26503,-24.25692 -21.24915,-30.55066 -10.43025,-5.05581 -17.76672,-5.50269 -28.44199,-1.73251 -13.53492,4.78011 -22.67099,15.52923 -24.72256,29.08748 -1.77574,11.73539 0.9226,21.35883 8.51081,30.35321 7.0791,8.39094 16.19924,12.70403 27.92874,13.20808 z"
     style="fill:#cccccc;stroke-width:0.9451862" />
  <g
     id="g4158"
     transform="matrix(5.8492043,0,0,5.8492043,-116.98145,-113.92201)">
    <g
       transform="translate(0,80)"
       id="g33" />
    <path
       d="m 87.089166,73.166229 c -0.908391,3.504199 -5.490578,10.814436 -7.939784,14.036919 -2.437706,3.233983 -2.144489,6.143133 -6.649066,5.007644 -4.493077,-1.12399 -5.749307,-0.91989 -10.409112,-0.672669 -4.605194,0.25872 -3.616309,-0.123607 -6.502462,1.100992 -2.874653,1.213099 -12.542103,-14.833199 -13.329754,-17.83146 -0.764653,-2.986762 -1.135489,-2.627431 0.876769,-5.849914 1.986385,-3.233983 2.291094,-6.433469 4.930025,-10.342994 2.638931,-3.929648 5.703311,-5.930404 5.479088,-8.92579 -0.876769,-11.127774 -1.549439,-16.698847 3.716917,-19.268785 5.007644,-2.449202 9.207512,-0.98888 10.857559,-0.158106 0.718665,0.359332 2.178986,1.066495 3.25698,2.291097 1.077994,1.201603 2.055372,3.009759 2.604434,5.300855 1.123991,4.593692 -0.471444,3.075877 0.807775,8.342237 1.259096,5.254862 3.817534,7.839173 6.939409,11.993043 3.133365,4.153871 6.390346,11.015663 5.355473,14.979806 m 0,0"
       id="SVGCleanerId_0"
       inkscape:connector-curvature="0"
       style="fill:#000000;fill-opacity:1;fill-rule:nonzero;stroke:none;stroke-width:2.87465072" />
    <path
       d="m 57.350905,45.911665 c 0.819273,-0.301838 0.684168,-0.347833 1.236097,-1.471821 0.436947,-0.86527 0.819274,-1.2361 0.807775,-2.549816 0,-1.279219 -0.425448,-1.719041 -1.066495,-2.561313 -0.618049,-0.796279 -1.595426,-0.842273 -2.222099,-0.741661 -0.359337,0.0575 -0.819274,0.482942 -1.13549,1.112491 -0.212724,0.425448 -0.370827,0.965882 -0.393825,1.526439 -0.03446,1.52644 0.08911,2.098496 0.471444,3.13337 0.436947,1.213102 1.503442,1.842651 2.302593,1.549436 m 0,0"
       id="path88"
       inkscape:connector-curvature="0"
       style="fill:#f9f9f9;fill-opacity:1;fill-rule:nonzero;stroke:none;stroke-width:2.87465072" />
    <path
       d="m 56.589126,40.653929 c 0.405325,0 0.919882,0.24722 1.178602,0.595052 0.27022,0.347833 0.448447,0.842273 0.448447,1.40283 0,0.819276 -0.08912,1.73054 -0.618049,2.009381 -0.169603,0.06612 -0.52894,0.169604 -0.730165,0.169604 -0.459945,0 -0.505933,-0.293214 -0.94288,-0.718663 -0.158112,-0.146607 -0.606558,-0.899765 -0.606558,-1.514941 0,-0.382328 -0.08911,-0.931386 0.270219,-1.425826 0.247221,-0.359332 0.560562,-0.528936 1.000384,-0.528936 m 0,0.0115"
       id="SVGCleanerId_1"
       inkscape:connector-curvature="0"
       style="fill:#000000;fill-opacity:1;fill-rule:nonzero;stroke:none;stroke-width:2.87465072" />
    <path
       d="m 65.85125,46.015152 c 2.066871,-0.201225 2.785536,-0.954384 3.156364,-2.2566 0.324832,-1.15561 0.336331,-2.437704 -0.572053,-3.952645 -0.86527,-1.437326 -1.359712,-1.661548 -2.604434,-1.762161 -1.920266,-0.146608 -2.828657,1.11249 -3.25698,2.00938 -0.448446,0.977382 -0.359337,0.842273 -0.32484,2.078373 0.03446,1.302217 0.807783,1.661548 1.279219,2.480824 0.482944,0.78478 2.089877,1.425827 2.3141,1.414328 m 0.01152,-0.0115"
       id="path91"
       inkscape:connector-curvature="0"
       style="fill:#f9f9f9;fill-opacity:1;fill-rule:nonzero;stroke:none;stroke-width:2.87465072" />
    <path
       d="m 65.684514,40.596435 c 1.032006,0 1.627057,0.86527 1.831157,1.966262 0.07759,0.505939 -0.03446,1.077994 -0.359329,1.483319 -0.370835,0.471443 -1.032006,0.741661 -1.560937,0.741661 -0.51744,0 -1.077994,0.07762 -1.391335,-0.301839 -0.301833,-0.405325 -0.359328,-1.27922 -0.359328,-1.920266 0,-0.707164 0.224223,-1.213103 0.59505,-1.606931 0.293218,-0.293214 0.807775,-0.359331 1.247597,-0.359331 m 0,0"
       id="SVGCleanerId_2"
       inkscape:connector-curvature="0"
       style="fill:#000000;fill-opacity:1;fill-rule:nonzero;stroke:none;stroke-width:2.87465072" />
    <path
       d="m 59.552889,52.000175 c -1.785161,0.06612 -4.605194,-4.625313 -4.682812,-2.673425 -0.04598,1.65005 0.04598,1.618428 0.04598,3.210985 0,1.066496 -0.517433,1.15561 -1.638548,2.762539 -0.583552,0.842273 -1.031998,1.762162 -1.379836,2.696423 -0.224223,0.549058 -0.425448,1.123988 -0.59505,1.696044 -0.06615,0.281716 -0.189726,0.583554 -0.27022,0.86527 -0.549054,1.943263 -2.561313,4.346472 -3.021258,6.289736 -0.471444,1.931765 -1.020499,3.167865 -0.94288,5.749301 0.06615,2.592935 0.08911,1.842652 0.919882,2.492323 0.830781,0.641047 1.673053,1.247598 2.97527,2.325592 1.379828,1.144111 4.222859,3.075875 4.605186,3.693924 0.405324,0.618048 0.405324,1.997884 0.158111,2.449205 -0.247221,0.436947 -2.39171,0.684168 -2.39171,0.684168 0,0 1.87427,2.457822 2.256597,2.797035 0.359328,0.336331 1.897268,1.966262 8.141009,0.86527 3.527199,-0.641047 6.243741,-2.480827 8.218627,-4.254481 2.549814,-2.345722 1.259096,-3.009759 1.583936,-4.176871 0.482943,-1.696044 2.043872,-2.325593 2.39171,-4.23436 0.04598,-0.270218 0.135105,-0.471443 0.405325,-0.899767 0.393825,-0.540433 0.301841,-1.684544 0.301841,-2.696421 0,-2.696423 -0.324839,-5.401469 -0.988884,-7.410851 -0.60655,-1.88577 -1.560938,-3.199485 -2.380212,-4.89553 -1.638547,-3.380589 -1.560937,-4.907028 -3.032757,-7.063017 -1.661545,-2.492322 -0.842272,-4.15387 -3.064379,-4.053257 -2.762538,0.146607 -4.996136,3.705425 -7.61207,3.806037 m 0,0"
       id="path100"
       inkscape:connector-curvature="0"
       style="fill:#f9f9f9;fill-opacity:1;fill-rule:nonzero;stroke:none;stroke-width:2.87465072" />
    <path
       sodipodi:nodetypes="ccccccscccccccscccccccccccccscscccsccccccccsccccccs"
       inkscape:connector-curvature="0"
       id="path102"
       d="m 60.496094,43.146484 c -0.707158,0.07762 -1.145909,0.0111 -1.830078,0.335938 -0.730164,0.347833 -1.81098,1.167448 -2.394532,1.65039 -1.121116,0.922764 -1.919026,1.302013 -1.873046,2.4375 0.03161,1.077994 0.965829,1.9203 1.986328,2.705079 1.009008,0.787655 1.874138,1.765571 2.492187,1.966797 0.641047,0.2271 1.754505,0.18164 2.550781,0.18164 1.773661,10e-7 4.074517,-2.099873 5.365235,-2.470703 1.606933,-0.482941 2.169354,-1.289721 2.292969,-3.109375 0.112108,-1.517816 -2.257809,-1.788833 -4.042969,-2.337891 -0.537556,-0.155231 -0.953551,-0.377878 -1.53711,-0.783203 -0.629548,-0.436946 -2.009381,-0.662893 -3.009765,-0.550781 z M 44.341797,73.570312 c -1.123982,-0.023 -1.751827,0.542176 -2.458985,1.214844 -0.707166,0.672668 -1.560776,2.380164 -2.796874,3.210938 l -0.0039,0 c -1.224606,0.830774 -4.358021,0.763774 -5.154297,1.738281 -0.776161,0.977378 0.03467,2.392107 0.01172,5.019531 0,1.123991 -0.200831,1.966223 -0.335937,2.650391 -0.201225,0.86527 -0.324554,1.471795 0.06641,2.089844 0.707166,1.089493 1.818478,1.372685 8.251953,2.628906 3.435208,0.672669 6.691888,2.401851 8.859375,2.580078 2.178986,0.146612 2.651347,-0.540555 3.976562,-1.638672 1.313716,-1.112492 1.740387,-0.775887 1.697266,-3.199219 -0.04598,-2.426208 -1.696042,-3.145293 -3.570312,-5.939453 -1.874278,-2.797035 -2.18106,-3.31186 -3.425782,-5.166015 -1.247605,-1.831153 -3.714354,-5.154957 -5.117187,-5.189454 z M 75.240234,74.875 c -0.876769,0 -1.043493,0.02203 -1.785156,0.458984 -0.402483,0.235721 -0.4375,1.762158 -0.4375,3.570313 0,1.425823 0.01011,3.031775 -0.125,4.333984 -0.31334,3.032757 -0.973755,4.795237 -1.03125,6.75 -0.06901,1.951889 0.63803,3.265763 1.267578,3.783203 0.618048,0.526057 1.551611,0.931641 3.583985,0.931641 2.04388,0 3.30999,-0.427592 4.658203,-1.695313 0.86527,-0.810649 1.785116,-1.573707 4.435547,-3.28125 2.112866,-1.34533 5.288412,-2.828769 5.917968,-3.423828 0.313333,-0.290335 0.875895,-0.570442 0.921875,-1.648437 0.03446,-0.931389 -0.765609,-1.23766 -1.326172,-1.5625 -0.784777,-0.425448 -2.819336,-1.965527 -3.839843,-3.480469 -0.618081,-0.919888 0.258068,-2.438141 -0.595703,-3.59375 l 0,0.01563 c -0.505942,-0.695666 -1.415448,-0.394531 -1.539063,-0.394531 -0.146604,0 -0.932761,1.277607 -1.246094,1.648437 -0.339205,0.393827 -1.223967,1.054952 -1.853515,1.425782 -0.626682,0.382328 -1.122489,0.585208 -2.470703,0.496093 -1.336722,-0.100614 -1.719084,-0.5289 -2.144532,-0.865234 -0.416824,-0.347833 -0.841257,-0.618665 -0.763671,-1.460938 0.09194,-0.842273 0.203832,-1.438326 -0.06641,-1.685546 C 76.507564,74.918427 76.117003,74.875 75.240234,74.875 Z"
       style="fill:#f9de69;fill-opacity:1;fill-rule:nonzero;stroke:none;stroke-width:2.87465072" />
  </g>
</svg>
