<?xml version="1.0" encoding="UTF-8" standalone="no"?>
<svg
   xmlns:dc="http://purl.org/dc/elements/1.1/"
   xmlns:cc="http://creativecommons.org/ns#"
   xmlns:rdf="http://www.w3.org/1999/02/22-rdf-syntax-ns#"
   xmlns:svg="http://www.w3.org/2000/svg"
   xmlns="http://www.w3.org/2000/svg"
   xmlns:sodipodi="http://sodipodi.sourceforge.net/DTD/sodipodi-0.dtd"
   xmlns:inkscape="http://www.inkscape.org/namespaces/inkscape"
   viewBox="0 0 48 48"
   version="1.1"
   id="svg53"
   sodipodi:docname="libreoffice-draw.svg"
   inkscape:version="0.92.3 (2405546, 2018-03-11)">
  <metadata
     id="metadata57">
    <rdf:RDF>
      <cc:Work
         rdf:about="">
        <dc:format>image/svg+xml</dc:format>
        <dc:type
           rdf:resource="http://purl.org/dc/dcmitype/StillImage" />
      </cc:Work>
    </rdf:RDF>
  </metadata>
  <sodipodi:namedview
     pagecolor="#ffffff"
     bordercolor="#666666"
     borderopacity="1"
     objecttolerance="10"
     gridtolerance="10"
     guidetolerance="10"
     inkscape:pageopacity="0"
     inkscape:pageshadow="2"
     inkscape:window-width="1920"
     inkscape:window-height="994"
     id="namedview55"
     showgrid="false"
     inkscape:zoom="13.906433"
     inkscape:cx="-5.0947282"
     inkscape:cy="21.303376"
     inkscape:window-x="0"
     inkscape:window-y="27"
     inkscape:window-maximized="1"
     inkscape:current-layer="svg53" />
  <defs
     id="defs7">
    <linearGradient
       id="linearGradient3764"
       x1="1"
       x2="47"
       gradientUnits="userSpaceOnUse"
       gradientTransform="matrix(0,-1,1,0,-1.5e-6,47.999998)">
      <stop
         style="stop-color:#b0e648;stop-opacity:1"
         id="stop2" />
      <stop
         offset="1"
         style="stop-color:#b9e85a;stop-opacity:1"
         id="stop4" />
    </linearGradient>
  </defs>
  <g
     id="g15">
    <path
       d="m 36.31 5 c 5.859 4.062 9.688 10.831 9.688 18.5 c 0 12.426 -10.07 22.5 -22.5 22.5 c -7.669 0 -14.438 -3.828 -18.5 -9.688 c 1.037 1.822 2.306 3.499 3.781 4.969 c 4.085 3.712 9.514 5.969 15.469 5.969 c 12.703 0 23 -10.298 23 -23 c 0 -5.954 -2.256 -11.384 -5.969 -15.469 c -1.469 -1.475 -3.147 -2.744 -4.969 -3.781 z m 4.969 3.781 c 3.854 4.113 6.219 9.637 6.219 15.719 c 0 12.703 -10.297 23 -23 23 c -6.081 0 -11.606 -2.364 -15.719 -6.219 c 4.16 4.144 9.883 6.719 16.219 6.719 c 12.703 0 23 -10.298 23 -23 c 0 -6.335 -2.575 -12.06 -6.719 -16.219 z"
       style="opacity:0.05"
       id="path9" />
    <path
       d="m 41.28 8.781 c 3.712 4.085 5.969 9.514 5.969 15.469 c 0 12.703 -10.297 23 -23 23 c -5.954 0 -11.384 -2.256 -15.469 -5.969 c 4.113 3.854 9.637 6.219 15.719 6.219 c 12.703 0 23 -10.298 23 -23 c 0 -6.081 -2.364 -11.606 -6.219 -15.719 z"
       style="opacity:0.1"
       id="path11" />
    <path
       d="m 31.25 2.375 c 8.615 3.154 14.75 11.417 14.75 21.13 c 0 12.426 -10.07 22.5 -22.5 22.5 c -9.708 0 -17.971 -6.135 -21.12 -14.75 a 23 23 0 0 0 44.875 -7 a 23 23 0 0 0 -16 -21.875 z"
       style="opacity:0.2"
       id="path13" />
  </g>
  <g
     id="g19"
     style="fill:#303126;fill-opacity:1">
    <path
       d="M 24,1 C 36.703,1 47,11.297 47,24 47,36.703 36.703,47 24,47 11.297,47 1,36.703 1,24 1,11.297 11.297,1 24,1 Z"
       style="fill:#303126;fill-opacity:1"
       id="path17"
       inkscape:connector-curvature="0" />
  </g>
  <g
     id="g31">
    <g
       id="g29">
      <g
         transform="translate(1,1)"
         id="g27">
        <g
           style="opacity:0.1"
           id="g25">
          <!-- color: #b9e85a -->
          <g
             id="g23">
            <path
               d="m 25 10 c -0.551 0 -1 0.449 -1 1 0.046 1.014 0.02 2.07 0.02 3.098 c -2.292 0.456 -4.02 2.476 -4.02 4.902 c 0 0.575 0.116 1.119 0.295 1.633 l -6.295 19.367 8.762 -16.551 c 0.676 0.341 1.429 0.551 2.238 0.551 c 0.808 0 1.562 -0.21 2.238 -0.551 l 8.762 16.551 -6.293 -19.373 c 0.177 -0.512 0.293 -1.054 0.293 -1.627 0 -2.412 -1.711 -4.423 -3.98 -4.895 0 -1.169 0.012 -1.938 -0.02 -3.105 0 -0.551 -0.449 -1 -1 -1 m 0 6 c 1.656 0 3 1.34 3 3 0 1.66 -1.344 3 -3 3 -1.66 0 -3 -1.34 -3 -3 0 -1.66 1.344 -3 3 -3 z"
               transform="translate(-1,-1)"
               id="path21" />
          </g>
        </g>
      </g>
    </g>
  </g>
  <g
     id="g47">
    <g
       id="g45">
      <!-- color: #b9e85a -->
      <g
         id="g43">
        <path
           d="m 25.02 10 0 3.227 c 0 0.98 -0.445 1.773 -1 1.773 -0.551 0 -1 -0.793 -1 -1.773 l 0 -3.227 m 2 0"
           style="fill:#be3d27;fill-opacity:1;stroke:none;fill-rule:nonzero"
           id="path33" />
        <path
           d="m 25 10 c 0 0.551 -0.449 1 -1 1 -0.551 0 -1 -0.449 -1 -1 0 -0.551 0.449 -1 1 -1 0.551 0 1 0.449 1 1 m 0 0"
           style="fill:#be3d27;fill-opacity:1;stroke:none;fill-rule:nonzero"
           id="path35" />
        <path
           d="M 22,22 13,39 19.5,19.004 M 22,22"
           style="fill:#ebecf1;fill-opacity:1;stroke:none;fill-rule:nonzero"
           id="path37" />
        <path
           d="M 26,22 35,39 28.504,19.004 M 26,22"
           style="fill:#ebecf1;fill-opacity:1;stroke:none;fill-rule:nonzero"
           id="path39" />
        <path
           d="m 24 13 c -2.762 0 -5 2.238 -5 5 0 2.762 2.238 5 5 5 2.758 0 5 -2.238 5 -5 0 -2.762 -2.242 -5 -5 -5 m 0 2 c 1.656 0 3 1.34 3 3 0 1.66 -1.344 3 -3 3 -1.66 0 -3 -1.34 -3 -3 0 -1.66 1.344 -3 3 -3 m 0 0"
           style="fill:#be3d27;fill-opacity:1;stroke:none;fill-rule:nonzero"
           id="path41" />
      </g>
    </g>
  </g>
  <g
     id="g51">
    <path
       d="m 40.03 7.531 c 3.712 4.084 5.969 9.514 5.969 15.469 0 12.703 -10.297 23 -23 23 c -5.954 0 -11.384 -2.256 -15.469 -5.969 4.178 4.291 10.01 6.969 16.469 6.969 c 12.703 0 23 -10.298 23 -23 0 -6.462 -2.677 -12.291 -6.969 -16.469 z"
       style="opacity:0.1"
       id="path49" />
  </g>
</svg>
