<?xml version="1.0" encoding="UTF-8" standalone="no"?>
<!-- Created with Inkscape (http://www.inkscape.org/) -->

<svg
   xmlns:dc="http://purl.org/dc/elements/1.1/"
   xmlns:cc="http://creativecommons.org/ns#"
   xmlns:rdf="http://www.w3.org/1999/02/22-rdf-syntax-ns#"
   xmlns:svg="http://www.w3.org/2000/svg"
   xmlns="http://www.w3.org/2000/svg"
   xmlns:sodipodi="http://sodipodi.sourceforge.net/DTD/sodipodi-0.dtd"
   xmlns:inkscape="http://www.inkscape.org/namespaces/inkscape"
   width="512"
   height="512"
   viewBox="0 0 512 512"
   id="svg2"
   version="1.1"
   inkscape:version="0.91 r13725"
   sodipodi:docname="folder-important.svg"
   inkscape:export-filename="E:\Usuarios\David\Desktop\folder-download.png"
   inkscape:export-xdpi="90"
   inkscape:export-ydpi="90">
  <defs
     id="defs4" />
  <sodipodi:namedview
     id="base"
     pagecolor="#ffffff"
     bordercolor="#666666"
     borderopacity="1.0"
     inkscape:pageopacity="0.0"
     inkscape:pageshadow="2"
     inkscape:zoom="0.7"
     inkscape:cx="-100.88129"
     inkscape:cy="318.75971"
     inkscape:document-units="px"
     inkscape:current-layer="layer1"
     showgrid="true"
     inkscape:snap-bbox="true"
     inkscape:bbox-nodes="true"
     fit-margin-top="0"
     fit-margin-left="0"
     fit-margin-right="0"
     fit-margin-bottom="0"
     units="px"
     inkscape:object-nodes="true"
     inkscape:snap-nodes="true"
     inkscape:snap-others="false"
     inkscape:window-width="1366"
     inkscape:window-height="705"
     inkscape:window-x="-8"
     inkscape:window-y="-8"
     inkscape:window-maximized="1">
    <inkscape:grid
       type="xygrid"
       id="grid4136"
       originx="-282.28082"
       originy="-341.501"
       visible="true" />
  </sodipodi:namedview>
  <metadata
     id="metadata7">
    <rdf:RDF>
      <cc:Work
         rdf:about="">
        <dc:format>image/svg+xml</dc:format>
        <dc:type
           rdf:resource="http://purl.org/dc/dcmitype/StillImage" />
        <dc:title></dc:title>
      </cc:Work>
    </rdf:RDF>
  </metadata>
  <g
     inkscape:label="Capa 1"
     inkscape:groupmode="layer"
     id="layer1"
     transform="translate(-282.28082,-198.8612)">
    <g
       id="g4172"
       transform="matrix(2.460733,0,0,2.460733,-533.36734,-915.42835)">
      <path
         inkscape:connector-curvature="0"
         transform="translate(282.28082,403.66119)"
         id="rect4151"
         d="m 65.71875,84.701172 c -4.431995,0 -8,3.568005 -8,8 l 0,9.999998 0,111 0,0.0488 c 0,4.4051 3.546075,7.95117 7.951172,7.95117 l 0.04883,0 61.999998,0 113.04883,0 c 4.40509,0 7.95117,-3.54607 7.95117,-7.95117 l 0,-111.04883 c 0,-4.405095 -3.54608,-7.95117 -7.95117,-7.95117 l -105.04883,0 0,-2.048828 c 0,-4.431995 -3.568,-8 -8,-8 l -61.999998,0 z"
         style="fill:#107662;fill-opacity:1;stroke:none" />
      <path
         sodipodi:nodetypes="cccccc"
         inkscape:connector-curvature="0"
         id="rect4166"
         d="m 347.99512,522.17497 14.81747,-14.81277 160.18741,1e-5 0,49.7153 -175.00488,0 z"
         style="fill:#ffffff;fill-opacity:1;stroke:none" />
      <path
         sodipodi:nodetypes="cccc"
         inkscape:connector-curvature="0"
         id="rect4169"
         d="m 362.81277,507.3622 0,14.81277 -14.81277,0 z"
         style="fill:#000000;fill-opacity:0.1372549;stroke:none" />
      <path
         sodipodi:nodetypes="czzssssccssccssc"
         inkscape:connector-curvature="0"
         id="rect4156"
         transform="translate(282.28082,403.66119)"
         d="m 144,112.88819 c -4.33969,0.0225 -7.52934,0.36085 -10.39035,3.49916 -2.86101,3.13831 -3.89047,6.50084 -8.89047,6.50084 -5,0 -59.00043,1.6e-4 -59.00043,1.6e-4 -4.432001,1e-5 -8,3.12199 -8,7 l 0,84.81282 c 0,3.87801 3.567999,7 8,7 l 71,0 103,0 1,0 c 4.432,0 8,-3.12199 8,-7 l 0,-1 0,-83.81282 0,-9 c 0,-4.43201 -4.014,-7.99999 -9,-8 z"
         style="fill:#16a085;fill-opacity:1;stroke:none" />
    </g>
    <g
       transform="matrix(12.5,0,0,12.5,400.78082,34.3612)"
       id="g4165"
       style="fill:#ffffff">
      <g
         transform="translate(-1.25,-1003.4845)"
         id="g4148"
         style="fill:#ffffff;fill-opacity:1">
        <g
           style="fill:#ffffff;fill-opacity:1"
           transform="matrix(0.44029588,0,0,0.28111603,-9.7643537,1026.3064)"
           id="g5">
          <path
             style="fill:#ffffff;fill-opacity:1"
             inkscape:connector-curvature="0"
             d="m 47.982,36.647 c 0.542,-0.583 1.262,-0.876 2.151,-0.876 1.076,0 1.797,0.375 2.16,1.119 0.365,0.746 0.544,1.82 0.544,3.224 0,0.828 -0.042,1.666 -0.132,2.52 L 51.9,51.898 c -0.088,1.104 -0.277,1.949 -0.563,2.538 -0.292,0.59 -0.764,0.886 -1.427,0.886 -0.681,0 -1.148,-0.287 -1.413,-0.858 -0.264,-0.569 -0.451,-1.438 -0.563,-2.604 L 47.33,42.859 c -0.112,-1.755 -0.169,-3.014 -0.169,-3.778 10e-4,-1.04 0.273,-1.852 0.821,-2.434 z"
             id="path7" />
        </g>
        <circle
           style="fill:#ffffff;fill-opacity:1;stroke:none"
           id="path4146"
           cx="12.232786"
           cy="1043.6068"
           r="1" />
      </g>
      <path
         inkscape:connector-curvature="0"
         id="path4369"
         transform="translate(3,29)"
         d="M 8,2 A 6,6 0 0 0 2,8 6,6 0 0 0 8,14 6,6 0 0 0 14,8 6,6 0 0 0 8,2 Z M 8,3 A 5,5 0 0 1 13,8 5,5 0 0 1 8,13 5,5 0 0 1 3,8 5,5 0 0 1 8,3 Z"
         style="fill:#ffffff;fill-opacity:1;stroke:none" />
    </g>
  </g>
</svg>
