<?xml version="1.0" encoding="UTF-8" standalone="no"?>
<!-- Created with Inkscape (http://www.inkscape.org/) -->

<svg
   xmlns:dc="http://purl.org/dc/elements/1.1/"
   xmlns:cc="http://creativecommons.org/ns#"
   xmlns:rdf="http://www.w3.org/1999/02/22-rdf-syntax-ns#"
   xmlns:svg="http://www.w3.org/2000/svg"
   xmlns="http://www.w3.org/2000/svg"
   xmlns:sodipodi="http://sodipodi.sourceforge.net/DTD/sodipodi-0.dtd"
   xmlns:inkscape="http://www.inkscape.org/namespaces/inkscape"
   width="48"
   height="48"
   id="svg3022"
   version="1.1"
   inkscape:version="0.48.5 r10040"
   sodipodi:docname="server-database.svg">
  <defs
     id="defs3024" />
  <sodipodi:namedview
     id="base"
     pagecolor="#ffffff"
     bordercolor="#666666"
     borderopacity="1.0"
     inkscape:pageopacity="0.0"
     inkscape:pageshadow="2"
     inkscape:zoom="8.0343727"
     inkscape:cx="30.582822"
     inkscape:cy="27.165402"
     inkscape:document-units="px"
     inkscape:current-layer="layer1"
     showgrid="false"
     inkscape:window-width="1366"
     inkscape:window-height="712"
     inkscape:window-x="-2"
     inkscape:window-y="-3"
     inkscape:window-maximized="1">
    <sodipodi:guide
       position="11,41.000017"
       orientation="34,0"
       id="guide3359" />
    <sodipodi:guide
       position="11,7.0000174"
       orientation="0,26"
       id="guide3361" />
    <sodipodi:guide
       position="37,7.0000174"
       orientation="-34,0"
       id="guide3363" />
    <sodipodi:guide
       position="37,41.000017"
       orientation="0,-26"
       id="guide3365" />
  </sodipodi:namedview>
  <metadata
     id="metadata3027">
    <rdf:RDF>
      <cc:Work
         rdf:about="">
        <dc:format>image/svg+xml</dc:format>
        <dc:type
           rdf:resource="http://purl.org/dc/dcmitype/StillImage" />
        <dc:title />
      </cc:Work>
    </rdf:RDF>
  </metadata>
  <g
     inkscape:label="Capa 1"
     inkscape:groupmode="layer"
     id="layer1"
     transform="translate(0,-1004.3622)">
    <path
       sodipodi:type="arc"
       style="fill:none;stroke:none"
       id="path3265"
       sodipodi:cx="23.997576"
       sodipodi:cy="1048.8622"
       sodipodi:rx="3.502425"
       sodipodi:ry="3.5001078"
       d="m 27.500001,1048.8622 c 0,1.933 -1.568089,3.5001 -3.502425,3.5001 -1.934336,0 -3.502425,-1.5671 -3.502425,-3.5001 0,-1.9331 1.568089,-3.5001 3.502425,-3.5001 1.934336,0 3.502425,1.567 3.502425,3.5001 z"
       transform="matrix(1,0,0,1.0444472,0,-46.77459)" />
    <path
       d="m 27.500001,1007.8622 c 0,1.933 -1.568089,3.5001 -3.502425,3.5001 -1.934336,0 -3.502425,-1.5671 -3.502425,-3.5001 0,-1.9331 1.568089,-3.5001 3.502425,-3.5001 1.934336,0 3.502425,1.567 3.502425,3.5001 z"
       sodipodi:ry="3.5001078"
       sodipodi:rx="3.502425"
       sodipodi:cy="1007.8622"
       sodipodi:cx="23.997576"
       id="path3267"
       style="fill:none;stroke:none"
       sodipodi:type="arc"
       transform="matrix(1,0,0,1.2420366,0,-243.09243)" />
    <path
       sodipodi:type="arc"
       style="fill:none;fill-opacity:1;fill-rule:evenodd;stroke:none"
       id="path3269"
       sodipodi:cx="5.4961891"
       sodipodi:cy="1028.3622"
       sodipodi:rx="5.5038109"
       sodipodi:ry="5.5001693"
       d="m 11,1028.3622 c 0,3.0376 -2.4641401,5.5002 -5.5038109,5.5002 -3.0396708,0 -5.50381087,-2.4626 -5.50381087,-5.5002 0,-3.0377 2.46414007,-5.5002 5.50381087,-5.5002 3.0396708,0 5.5038109,2.4625 5.5038109,5.5002 z" />
    <path
       d="m 48,1028.3622 c 0,3.0376 -2.46414,5.5002 -5.503811,5.5002 -3.039671,0 -5.503811,-2.4626 -5.503811,-5.5002 0,-3.0377 2.46414,-5.5002 5.503811,-5.5002 3.039671,0 5.503811,2.4625 5.503811,5.5002 z"
       sodipodi:ry="5.5001693"
       sodipodi:rx="5.5038109"
       sodipodi:cy="1028.3622"
       sodipodi:cx="42.496189"
       id="path3271"
       style="fill:none;fill-opacity:1;fill-rule:evenodd;stroke:none"
       sodipodi:type="arc" />
    <path
       d="m 27.500001,1048.8622 c 0,1.933 -1.568089,3.5001 -3.502425,3.5001 -1.934336,0 -3.502425,-1.5671 -3.502425,-3.5001 0,-1.9331 1.568089,-3.5001 3.502425,-3.5001 1.934336,0 3.502425,1.567 3.502425,3.5001 z"
       sodipodi:ry="3.5001078"
       sodipodi:rx="3.502425"
       sodipodi:cy="1048.8622"
       sodipodi:cx="23.997576"
       id="path3293"
       style="fill:none;stroke:none"
       sodipodi:type="arc"
       transform="matrix(1,0,0,1.0444472,0,-46.77459)" />
    <path
       sodipodi:type="arc"
       style="fill:none;stroke:none"
       id="path3295"
       sodipodi:cx="23.997576"
       sodipodi:cy="1007.8622"
       sodipodi:rx="3.502425"
       sodipodi:ry="3.5001078"
       d="m 27.500001,1007.8622 c 0,1.933 -1.568089,3.5001 -3.502425,3.5001 -1.934336,0 -3.502425,-1.5671 -3.502425,-3.5001 0,-1.9331 1.568089,-3.5001 3.502425,-3.5001 1.934336,0 3.502425,1.567 3.502425,3.5001 z"
       transform="matrix(1,0,0,1.2420366,0,-243.09243)" />
    <path
       d="m 11,1028.3622 c 0,3.0376 -2.4641401,5.5002 -5.5038109,5.5002 -3.0396708,0 -5.50381087,-2.4626 -5.50381087,-5.5002 0,-3.0377 2.46414007,-5.5002 5.50381087,-5.5002 3.0396708,0 5.5038109,2.4625 5.5038109,5.5002 z"
       sodipodi:ry="5.5001693"
       sodipodi:rx="5.5038109"
       sodipodi:cy="1028.3622"
       sodipodi:cx="5.4961891"
       id="path3297"
       style="fill:none;fill-opacity:1;fill-rule:evenodd;stroke:none"
       sodipodi:type="arc" />
    <path
       sodipodi:type="arc"
       style="fill:none;fill-opacity:1;fill-rule:evenodd;stroke:none"
       id="path3299"
       sodipodi:cx="42.496189"
       sodipodi:cy="1028.3622"
       sodipodi:rx="5.5038109"
       sodipodi:ry="5.5001693"
       d="m 48,1028.3622 c 0,3.0376 -2.46414,5.5002 -5.503811,5.5002 -3.039671,0 -5.503811,-2.4626 -5.503811,-5.5002 0,-3.0377 2.46414,-5.5002 5.503811,-5.5002 3.039671,0 5.503811,2.4625 5.503811,5.5002 z" />
    <rect
       id="shape11"
       stroke-miterlimit="2.00000000000"
       width="13.150457"
       height="10.309778"
       x="23.946743"
       y="1011.4157"
       style="fill:#278a49;fill-rule:evenodd;stroke:#003bc3;stroke-width:0;stroke-linecap:square;stroke-linejoin:miter;stroke-miterlimit:2;fill-opacity:1" />
    <rect
       id="shape21"
       stroke-miterlimit="2.00000000000"
       width="13.150457"
       height="10.309778"
       x="23.946743"
       y="1023.014"
       style="fill:#278a49;fill-rule:evenodd;stroke:#003bc3;stroke-width:0;stroke-linecap:square;stroke-linejoin:miter;stroke-miterlimit:2;fill-opacity:1" />
    <rect
       id="shape3"
       stroke-miterlimit="2.00000000000"
       width="13.150457"
       height="10.309778"
       x="23.946743"
       y="1034.6125"
       style="fill:#278a49;fill-rule:evenodd;stroke:#003bc3;stroke-width:0;stroke-linecap:square;stroke-linejoin:miter;stroke-miterlimit:2;fill-opacity:1" />
    <rect
       id="rect15"
       stroke-miterlimit="2.00000000000"
       width="13.128598"
       height="10.309782"
       x="10.859916"
       y="1011.4158"
       style="fill:#27ae60;fill-rule:evenodd;stroke:#003bc3;stroke-width:0;stroke-linecap:square;stroke-linejoin:miter;stroke-miterlimit:2;fill-opacity:1" />
    <rect
       id="rect17"
       stroke-miterlimit="2.00000000000"
       width="13.128598"
       height="10.309782"
       x="10.859916"
       y="1023.0146"
       style="fill:#27ae60;fill-rule:evenodd;stroke:#003bc3;stroke-width:0;stroke-linecap:square;stroke-linejoin:miter;stroke-miterlimit:2;fill-opacity:1" />
    <rect
       id="shape31"
       stroke-miterlimit="2.00000000000"
       width="13.128598"
       height="10.309782"
       x="10.859916"
       y="1034.6129"
       style="fill:#27ae60;fill-rule:evenodd;stroke:#003bc3;stroke-width:0;stroke-linecap:square;stroke-linejoin:miter;stroke-miterlimit:2;fill-opacity:1" />
    <rect
       id="shape4"
       stroke-miterlimit="2.00000000000"
       width="2.0955863"
       height="6.1755695"
       x="11.766102"
       y="1012.9622"
       style="fill:#ecf0f1;fill-opacity:0.8745098;fill-rule:evenodd;stroke:#003bc3;stroke-width:0;stroke-linecap:square;stroke-linejoin:miter;stroke-miterlimit:2" />
    <rect
       id="shape5"
       stroke-miterlimit="2.00000000000"
       width="2.0955863"
       height="6.1755695"
       x="11.766102"
       y="1024.5607"
       style="fill:#ecf0f1;fill-opacity:0.8745098;fill-rule:evenodd;stroke:#003bc3;stroke-width:0;stroke-linecap:square;stroke-linejoin:miter;stroke-miterlimit:2" />
    <rect
       id="shape6"
       stroke-miterlimit="2.00000000000"
       width="2.0955863"
       height="6.1755695"
       x="11.823205"
       y="1036.1592"
       style="fill:#ecf0f1;fill-opacity:0.8745098;fill-rule:evenodd;stroke:#003bc3;stroke-width:0;stroke-linecap:square;stroke-linejoin:miter;stroke-miterlimit:2" />
  </g>
</svg>
