<?xml version="1.0" encoding="UTF-8" standalone="no"?>
<!-- Created with Inkscape (http://www.inkscape.org/) -->

<svg
   xmlns:dc="http://purl.org/dc/elements/1.1/"
   xmlns:cc="http://creativecommons.org/ns#"
   xmlns:rdf="http://www.w3.org/1999/02/22-rdf-syntax-ns#"
   xmlns:svg="http://www.w3.org/2000/svg"
   xmlns="http://www.w3.org/2000/svg"
   xmlns:sodipodi="http://sodipodi.sourceforge.net/DTD/sodipodi-0.dtd"
   xmlns:inkscape="http://www.inkscape.org/namespaces/inkscape"
   width="16"
   height="16"
   id="svg2"
   version="1.1"
   inkscape:version="0.91 r13725"
   viewBox="0 0 16 16"
   sodipodi:docname="network-server-database.svg">
  <sodipodi:namedview
     id="base"
     pagecolor="#ffffff"
     bordercolor="#ffffff"
     borderopacity="1.0"
     inkscape:pageopacity="0.0"
     inkscape:pageshadow="2"
     inkscape:zoom="26.062306"
     inkscape:cx="-9.6369886"
     inkscape:cy="8.7255156"
     inkscape:document-units="px"
     inkscape:current-layer="layer1"
     showgrid="true"
     inkscape:showpageshadow="false"
     borderlayer="true"
     inkscape:window-width="1920"
     inkscape:window-height="1002"
     inkscape:window-x="0"
     inkscape:window-y="26"
     inkscape:window-maximized="1"
     units="px"
     showguides="true"
     inkscape:snap-bbox="true">
    <inkscape:grid
       id="grid4101"
       type="xygrid" />
    <sodipodi:guide
       id="guide4071"
       orientation="12,0"
       position="2,14.000017" />
    <sodipodi:guide
       id="guide4073"
       orientation="0,12"
       position="2,2.0000174" />
    <sodipodi:guide
       id="guide4075"
       orientation="-12,0"
       position="14,2.0000174" />
    <sodipodi:guide
       id="guide4077"
       orientation="0,-12"
       position="14,14.000017" />
  </sodipodi:namedview>
  <defs
     id="defs4" />
  <metadata
     id="metadata7">
    <rdf:RDF>
      <cc:Work
         rdf:about="">
        <dc:format>image/svg+xml</dc:format>
        <dc:type
           rdf:resource="http://purl.org/dc/dcmitype/StillImage" />
        <dc:title />
      </cc:Work>
    </rdf:RDF>
  </metadata>
  <g
     transform="translate(0,-1036.3622)"
     id="layer1"
     inkscape:groupmode="layer"
     inkscape:label="Capa 1">
    <g
       style="fill:#b2b2b2;fill-opacity:1"
       inkscape:label="Capa 1"
       id="layer1-2">
      <path
         inkscape:connector-curvature="0"
         style="opacity:1;fill:#e7ded7;fill-opacity:1;stroke:none;stroke-opacity:1"
         d="M 8,2 A 6,2 0 0 0 2,4 l 0,8 a 6,2 0 0 0 6,2 6,2 0 0 0 6,-2 L 14,4 A 6,2 0 0 0 8,2 Z M 8,3 A 5,1 0 0 1 13,4 5,1 0 0 1 8,5 5,1 0 0 1 3,4 5,1 0 0 1 8,3 Z M 3,5.1015625 A 6,2 0 0 0 8,6 6,2 0 0 0 13,5.1035156 L 13,8 A 5,1 0 0 1 8,9 5,1 0 0 1 3,8 L 3,5.1015625 Z m 0,4 A 6,2 0 0 0 8,10 6,2 0 0 0 13,9.1035156 L 13,12 A 5,1 0 0 1 8,13 5,1 0 0 1 3,12 L 3,9.1015625 Z"
         transform="translate(0,1036.3622)"
         id="path4140" />
    </g>
  </g>
</svg>
