<?xml version="1.0" encoding="UTF-8" standalone="no"?>
<!-- Created with Inkscape (http://www.inkscape.org/) -->

<svg
   xmlns:dc="http://purl.org/dc/elements/1.1/"
   xmlns:cc="http://creativecommons.org/ns#"
   xmlns:rdf="http://www.w3.org/1999/02/22-rdf-syntax-ns#"
   xmlns:svg="http://www.w3.org/2000/svg"
   xmlns="http://www.w3.org/2000/svg"
   xmlns:sodipodi="http://sodipodi.sourceforge.net/DTD/sodipodi-0.dtd"
   xmlns:inkscape="http://www.inkscape.org/namespaces/inkscape"
   width="16"
   height="16"
   id="svg4359"
   version="1.1"
   inkscape:version="0.91 r13725"
   sodipodi:docname="user-trash.svg">
  <sodipodi:namedview
     id="base"
     pagecolor="#ffffff"
     bordercolor="#ffffff"
     borderopacity="1.0"
     inkscape:pageopacity="0.0"
     inkscape:pageshadow="2"
     inkscape:zoom="16.639531"
     inkscape:cx="-22.063563"
     inkscape:cy="6.8537791"
     inkscape:current-layer="layer1"
     showgrid="true"
     inkscape:grid-bbox="true"
     inkscape:document-units="px"
     inkscape:window-width="1920"
     inkscape:window-height="1002"
     inkscape:window-x="0"
     inkscape:window-y="26"
     inkscape:window-maximized="1"
     inkscape:showpageshadow="false"
     borderlayer="true"
     showguides="true"
     fit-margin-top="0"
     fit-margin-left="0"
     fit-margin-right="0"
     fit-margin-bottom="0"
     inkscape:object-nodes="true">
    <inkscape:grid
       originy="-3px"
       originx="-3px"
       id="grid4105"
       type="xygrid" />
    <sodipodi:guide
       id="guide4205"
       orientation="16,0"
       position="0,16" />
    <sodipodi:guide
       id="guide4207"
       orientation="0,16"
       position="0,0" />
    <sodipodi:guide
       id="guide4209"
       orientation="-16,0"
       position="16,10" />
    <sodipodi:guide
       id="guide4211"
       orientation="0,-16"
       position="16,16" />
    <sodipodi:guide
       id="guide4213"
       orientation="12,0"
       position="2.0000086,15" />
    <sodipodi:guide
       id="guide4217"
       orientation="-12,0"
       position="14,1" />
    <sodipodi:guide
       id="guide4219"
       orientation="0,-12"
       position="13.999992,15" />
    <sodipodi:guide
       id="guide4223"
       orientation="6,0"
       position="2.0000086,8" />
    <sodipodi:guide
       id="guide4225"
       orientation="0,11.999984"
       position="2.0000086,1" />
    <sodipodi:guide
       id="guide4227"
       orientation="-6,0"
       position="13.999992,2" />
  </sodipodi:namedview>
  <defs
     id="defs4361">
    <linearGradient
       id="linearGradient4103">
      <stop
         id="stop4105"
         offset="0"
         style="stop-color:#bdecfb;stop-opacity:1" />
      <stop
         id="stop4107"
         offset="1"
         style="stop-color:#f5feff;stop-opacity:1" />
    </linearGradient>
    <linearGradient
       id="linearGradient4314">
      <stop
         id="stop4316"
         offset="0"
         style="stop-color:#ff4b00;stop-opacity:1" />
      <stop
         id="stop4318"
         offset="1"
         style="stop-color:#ff5500;stop-opacity:1" />
    </linearGradient>
    <linearGradient
       id="linearGradient5020-1">
      <stop
         style="stop-color:#0da8db;stop-opacity:1"
         offset="0"
         id="stop5022-6" />
      <stop
         style="stop-color:#1fe1fb;stop-opacity:1"
         offset="1"
         id="stop5024-0" />
    </linearGradient>
  </defs>
  <metadata
     id="metadata4364">
    <rdf:RDF>
      <cc:Work
         rdf:about="">
        <dc:format>image/svg+xml</dc:format>
        <dc:type
           rdf:resource="http://purl.org/dc/dcmitype/StillImage" />
        <dc:title />
      </cc:Work>
    </rdf:RDF>
  </metadata>
  <g
     transform="translate(-3,-29)"
     inkscape:groupmode="layer"
     inkscape:label="Layer 1"
     id="layer1">
    <path
       id="rect4172"
       d="m 8,30 0,2 -2,0 -1,0 0,1 0,1 0,1 1,0 0,8 0,1 1,0 9,0 0,-1 0,-8 1,0 0,-1 0,-2 -3,0 0,-2 -1,0 -4,0 -1,0 z m 1,1 4,0 0,1 -4,0 0,-1 z m -3,2 10,0 0,1 -9,0 -1,0 0,-1 z m 1,2 8,0 0,8 -8,0 0,-8 z m 1,1 0,6 1,0 0,-6 -1,0 z m 2.5,0 0,6 1,0 0,-6 -1,0 z m 2.5,0 0,6 1,0 0,-6 -1,0 z"
       style="fill:#e7ded7;fill-opacity:1;fill-rule:nonzero;stroke:#ff00ff;stroke-width:0;stroke-miterlimit:4;stroke-dasharray:none;stroke-opacity:1"
       inkscape:connector-curvature="0" />
  </g>
</svg>
