<?xml version="1.0" encoding="UTF-8" standalone="no"?>
<!-- Created with Inkscape (http://www.inkscape.org/) -->

<svg
   xmlns:dc="http://purl.org/dc/elements/1.1/"
   xmlns:cc="http://creativecommons.org/ns#"
   xmlns:rdf="http://www.w3.org/1999/02/22-rdf-syntax-ns#"
   xmlns:svg="http://www.w3.org/2000/svg"
   xmlns="http://www.w3.org/2000/svg"
   xmlns:sodipodi="http://sodipodi.sourceforge.net/DTD/sodipodi-0.dtd"
   xmlns:inkscape="http://www.inkscape.org/namespaces/inkscape"
   id="svg3017"
   version="1.1"
   inkscape:version="0.91+devel r"
   width="512"
   height="512"
   sodipodi:docname="libreoffice-impress.svg"
   viewBox="0 0 512 512">
  <metadata
     id="metadata3023">
    <rdf:RDF>
      <cc:Work
         rdf:about="">
        <dc:format>image/svg+xml</dc:format>
        <dc:type
           rdf:resource="http://purl.org/dc/dcmitype/StillImage" />
        <dc:title></dc:title>
      </cc:Work>
    </rdf:RDF>
  </metadata>
  <defs
     id="defs3021" />
  <sodipodi:namedview
     pagecolor="#ffffff"
     bordercolor="#666666"
     borderopacity="1"
     objecttolerance="10"
     gridtolerance="10"
     guidetolerance="10"
     inkscape:pageopacity="0"
     inkscape:pageshadow="2"
     inkscape:window-width="1920"
     inkscape:window-height="1024"
     id="namedview3019"
     showgrid="false"
     inkscape:zoom="1.625"
     inkscape:cx="256"
     inkscape:cy="649.84615"
     inkscape:window-x="0"
     inkscape:window-y="29"
     inkscape:window-maximized="1"
     inkscape:current-layer="svg3017"
     inkscape:document-units="px" />
  <rect
     style="fill:#ffffff;fill-opacity:1;fill-rule:evenodd;stroke:none;stroke-width:0.44721052px;stroke-linecap:butt;stroke-linejoin:miter;stroke-opacity:1"
     id="rect2993"
     width="234.62868"
     height="227.08212"
     x="137.56818"
     y="139.91754"
     ry="6.5772176" />
  <path
     inkscape:connector-curvature="0"
     id="path2986"
     d="m 116.01094,480.6215 c -1.79573,-0.23076 -5.2855,-1.08954 -7.75508,-1.90843 -16.332352,-5.41572 -27.988312,-19.22532 -30.545596,-36.18944 -0.592554,-3.93089 -0.690312,-30.202 -0.691609,-185.8008 0,-126.91231 0.153257,-182.510575 0.514783,-185.520353 2.079837,-17.315421 13.705705,-31.548832 30.497972,-37.3383 l 4.55908,-1.571842 76.69938,-0.0045 76.69933,-0.0045 84.26859,84.806575 84.26855,84.80658 0.32132,117.78546 c 0.22504,82.50627 0.16851,119.00124 -0.18881,121.84447 -2.52401,20.08351 -18.66621,36.35621 -38.80835,39.12203 -4.62085,0.6345 -274.89426,0.60803 -279.83956,-0.0273 z M 271.72839,249.58482 c 0.0662,-58.68665 -0.0561,-106.87951 -0.27182,-107.09524 -0.45418,-0.4542 -128.48193,21.99239 -129.37993,22.68366 -0.47609,0.3665 -0.57359,17.62962 -0.47753,84.55591 l 0.12071,84.09539 63.75021,11.31667 c 35.06265,6.22416 64.28746,11.27839 64.94409,11.23162 l 1.19383,-0.085 z m -79.62919,36.30429 -3.10396,-0.27572 -0.12244,-35.31024 c -0.0678,-19.54283 0.0628,-35.49551 0.29243,-35.72517 0.22825,-0.22823 5.87044,-0.53571 12.53826,-0.68331 9.99552,-0.22125 12.60526,-0.14015 14.86926,0.46205 5.90358,1.57033 9.85572,5.29018 11.89553,11.19627 0.96383,2.79071 1.11704,4.15132 1.11704,9.91976 0,7.51032 -0.46044,9.7722 -2.98647,14.67183 -3.74467,7.26322 -11.46008,11.35354 -21.41579,11.35354 -2.57616,0 -4.07874,0.20116 -4.31111,0.57714 -0.19619,0.31743 -0.52484,5.62553 -0.73034,11.79579 -0.20549,6.17025 -0.48071,11.49764 -0.61156,11.83863 -0.24896,0.64878 -1.74157,0.68481 -7.43085,0.17943 z m 17.94124,-37.46612 c 4.59727,-2.14071 6.6811,-6.11751 6.33527,-12.09028 -0.26099,-4.50718 -1.73285,-7.40463 -4.62425,-9.10319 -1.99939,-1.17454 -2.67762,-1.30564 -6.75896,-1.30646 l -4.5365,-9.9e-4 0.0627,10.62234 c 0.0759,12.87095 0.12526,13.01795 4.36544,13.01072 1.86438,-0.003 3.50551,-0.36354 5.1563,-1.13223 z m 145.61277,8.5386 0,-68.7643 -38.20242,0 -38.20238,0 -0.1313,8.08246 c -0.0911,5.60802 0.0335,8.18424 0.40665,8.41492 0.29587,0.18287 1.32195,0.15027 2.28019,-0.0724 0.95824,-0.22271 2.43756,-0.41004 3.2874,-0.4163 l 1.54516,-0.0114 0.1262,14.92281 0.12616,14.92281 15.04219,0.23876 15.04219,0.23877 -0.16139,2.62641 c -0.0887,1.44453 -0.6955,4.23602 -1.34834,6.20331 -3.04935,9.18901 -10.29881,16.42343 -19.46412,19.42378 -3.20847,1.05032 -4.66132,1.25348 -8.633,1.20723 -2.62638,-0.0306 -5.52739,-0.11767 -6.44663,-0.19351 l -1.67136,-0.1379 0,4.29777 0,4.29777 26.5029,0.23876 26.50291,0.23877 0,3.34271 0,3.3427 -26.50291,0.23877 -26.5029,0.23877 0,7.64047 0,7.64048 26.5029,0.23877 26.50291,0.23876 0,3.34271 0,3.34271 -26.50291,0.23876 -26.5029,0.23877 -0.12862,10.97285 c -0.0708,6.03507 -0.0233,11.2474 0.1055,11.58296 0.18783,0.48949 7.76586,0.58594 38.33099,0.48786 l 38.09693,-0.12222 0,-68.7643 z m -60.55995,-31.11225 c -0.17884,-0.17883 -0.32513,-6.84341 -0.32513,-14.8102 l 0,-14.48507 2.04854,0 c 2.9718,0 7.22616,1.19706 11.3223,3.18581 5.26032,2.55398 10.66244,8.06697 13.25568,13.52773 1.94916,4.10449 2.857,7.26033 3.09089,10.74442 l 0.12822,1.91012 -14.59771,0.12616 c -8.02869,0.0694 -14.74395,-0.0202 -14.92279,-0.19897 z m 75.84086,0.55034 0,-53.48334 -45.84283,0 -45.84288,0 0,3.82024 0,3.82024 41.78386,0.23876 41.78386,0.23876 0.11816,48.94682 c 0.0649,26.92074 0.22289,49.22451 0.35088,49.56393 0.16931,0.44882 1.24414,0.57906 3.94091,0.47754 l 3.70804,-0.1396 z"
     style="fill:#fd7e00;fill-opacity:1;stroke-width:0.44721052"
     sodipodi:nodetypes="cssssscccccsssccscsscsscsscscsssssscssscssscscccccccscssccccccsssscccccccccccccccccscsccccscsssscscccccccccscscc" />
  <path
     inkscape:connector-curvature="0"
     id="path2984"
     d="m 432.66923,139.10075 c -0.71436,-0.31578 -19.72249,-19.26944 -42.24029,-42.119243 -22.51778,-22.8498 -45.50045,-46.16805 -51.07257,-51.818325 -9.82441,-9.962185 -11.21539,-11.767455 -10.50117,-13.62871 0.25553,-0.665889 3.8033,-0.726708 33.83674,-0.580104 l 33.55128,0.163784 4.54202,1.238928 c 16.77279,4.575122 28.27804,16.07945 32.86584,32.863211 l 1.24155,4.542019 0.0152,34.81958 c 0.01,22.81668 -0.14936,34.8667 -0.46227,34.95629 -0.26264,0.0752 -1.06201,-0.12165 -1.77638,-0.43743 z"
     style="fill:#fd6a00;fill-opacity:1;stroke-width:0.44721052" />
</svg>
