<?xml version="1.0" encoding="UTF-8" standalone="no"?>
<!-- Created with Inkscape (http://www.inkscape.org/) -->

<svg
   xmlns:dc="http://purl.org/dc/elements/1.1/"
   xmlns:cc="http://creativecommons.org/ns#"
   xmlns:rdf="http://www.w3.org/1999/02/22-rdf-syntax-ns#"
   xmlns:svg="http://www.w3.org/2000/svg"
   xmlns="http://www.w3.org/2000/svg"
   xmlns:xlink="http://www.w3.org/1999/xlink"
   xmlns:sodipodi="http://sodipodi.sourceforge.net/DTD/sodipodi-0.dtd"
   xmlns:inkscape="http://www.inkscape.org/namespaces/inkscape"
   version="1.0"
   width="96"
   height="96"
   id="svg2408"
   style="display:inline"
   inkscape:version="0.91 r13725"
   sodipodi:docname="show-background.svg">
  <sodipodi:namedview
     pagecolor="#ffffff"
     bordercolor="#666666"
     borderopacity="1"
     objecttolerance="10"
     gridtolerance="10"
     guidetolerance="10"
     inkscape:pageopacity="0"
     inkscape:pageshadow="2"
     inkscape:window-width="1366"
     inkscape:window-height="695"
     id="namedview105"
     showgrid="false"
     inkscape:zoom="2"
     inkscape:cx="36.02605"
     inkscape:cy="49.178305"
     inkscape:window-x="-4"
     inkscape:window-y="0"
     inkscape:window-maximized="1"
     inkscape:current-layer="svg2408" />
  <defs
     id="defs2410">
    <linearGradient
       inkscape:collect="always"
       id="linearGradient3866">
      <stop
         style="stop-color:#81a4cf;stop-opacity:1;"
         offset="0"
         id="stop3868" />
      <stop
         style="stop-color:#81a4cf;stop-opacity:0;"
         offset="1"
         id="stop3870" />
    </linearGradient>
    <linearGradient
       id="linearGradient4042">
      <stop
         id="stop4044"
         style="stop-color:#000000;stop-opacity:1"
         offset="0" />
      <stop
         id="stop4046"
         style="stop-color:#000000;stop-opacity:0"
         offset="1" />
    </linearGradient>
    <linearGradient
       id="linearGradient4007">
      <stop
         id="stop4009"
         style="stop-color:#000000;stop-opacity:1"
         offset="0" />
      <stop
         id="stop4011"
         style="stop-color:#000000;stop-opacity:0"
         offset="1" />
    </linearGradient>
    <linearGradient
       x1="45.447727"
       y1="92.539597"
       x2="45.447727"
       y2="7.0165396"
       id="ButtonShadow"
       gradientUnits="userSpaceOnUse"
       gradientTransform="scale(1.0058652,0.994169)">
      <stop
         id="stop3750"
         style="stop-color:#000000;stop-opacity:1"
         offset="0" />
      <stop
         id="stop3752"
         style="stop-color:#000000;stop-opacity:0.58823532"
         offset="1" />
    </linearGradient>
    <linearGradient
       id="linearGradient3737">
      <stop
         id="stop3739"
         style="stop-color:#ffffff;stop-opacity:1"
         offset="0" />
      <stop
         id="stop3741"
         style="stop-color:#ffffff;stop-opacity:0"
         offset="1" />
    </linearGradient>
    <linearGradient
       id="linearGradient3700">
      <stop
         id="stop3702"
         style="stop-color:#ebebeb;stop-opacity:1"
         offset="0" />
      <stop
         id="stop3704"
         style="stop-color:#fafafa;stop-opacity:1"
         offset="1" />
    </linearGradient>
    <filter
       color-interpolation-filters="sRGB"
       id="filter3174">
      <feGaussianBlur
         id="feGaussianBlur3176"
         stdDeviation="1.71" />
    </filter>
    <linearGradient
       x1="36.357143"
       y1="6"
       x2="36.357143"
       y2="63.893143"
       id="linearGradient3188"
       xlink:href="#linearGradient3737"
       gradientUnits="userSpaceOnUse" />
    <linearGradient
       id="linearGradient3405">
      <stop
         id="stop3407"
         style="stop-color:#d0d0d0;stop-opacity:1"
         offset="0" />
      <stop
         id="stop3409"
         style="stop-color:#a1a1a1;stop-opacity:1"
         offset="1" />
    </linearGradient>
    <linearGradient
       id="linearGradient3553">
      <stop
         id="stop3555"
         style="stop-color:#5496b4;stop-opacity:0.78431374"
         offset="0" />
      <stop
         id="stop3557"
         style="stop-color:#dfecf2;stop-opacity:0.50196081"
         offset="1" />
    </linearGradient>
    <linearGradient
       id="linearGradient3192">
      <stop
         id="stop3194"
         style="stop-color:#404040;stop-opacity:1"
         offset="0" />
      <stop
         id="stop3200"
         style="stop-color:#b7b7b7;stop-opacity:1"
         offset="0.5" />
      <stop
         id="stop3196"
         style="stop-color:#404040;stop-opacity:1"
         offset="1" />
    </linearGradient>
    <filter
       color-interpolation-filters="sRGB"
       id="filter3274">
      <feGaussianBlur
         id="feGaussianBlur3276"
         stdDeviation="1.9857422" />
    </filter>
    <linearGradient
       id="linearGradient5452">
      <stop
         id="stop5454"
         style="stop-color:#ffffff;stop-opacity:1"
         offset="0" />
      <stop
         id="stop5456"
         style="stop-color:#ffffff;stop-opacity:0"
         offset="1" />
    </linearGradient>
    <linearGradient
       id="linearGradient3425">
      <stop
         id="stop3427"
         style="stop-color:#000000;stop-opacity:1"
         offset="0" />
      <stop
         id="stop3429"
         style="stop-color:#000000;stop-opacity:0"
         offset="1" />
    </linearGradient>
    <linearGradient
       id="linearGradient3363">
      <stop
         id="stop3365"
         style="stop-color:#000000;stop-opacity:1"
         offset="0" />
      <stop
         id="stop3377"
         style="stop-color:#646464;stop-opacity:1"
         offset="0.2" />
      <stop
         id="stop3371"
         style="stop-color:#c8c8c8;stop-opacity:1"
         offset="0.30000001" />
      <stop
         id="stop3373"
         style="stop-color:#646464;stop-opacity:1"
         offset="0.40000001" />
      <stop
         id="stop3367"
         style="stop-color:#000000;stop-opacity:1"
         offset="1" />
    </linearGradient>
    <filter
       x="-0.09372972"
       y="-0.16673079"
       width="1.1874593"
       height="1.3334616"
       color-interpolation-filters="sRGB"
       id="filter3439">
      <feGaussianBlur
         id="feGaussianBlur3441"
         stdDeviation="0.31930287" />
    </filter>
    <radialGradient
       cx="63.937504"
       cy="95.865532"
       r="20.6875"
       fx="63.937504"
       fy="95.865532"
       id="radialGradient3217"
       xlink:href="#linearGradient3405"
       gradientUnits="userSpaceOnUse"
       gradientTransform="matrix(0.1433207,-0.1433132,0.8374475,0.8374024,38.231607,-15.647539)" />
    <linearGradient
       x1="40.113346"
       y1="2.60251"
       x2="40.113346"
       y2="75.039833"
       id="linearGradient3219"
       xlink:href="#linearGradient3553"
       gradientUnits="userSpaceOnUse" />
    <linearGradient
       x1="12.75"
       y1="11.75"
       x2="63.25"
       y2="64"
       id="linearGradient3221"
       xlink:href="#linearGradient3192"
       gradientUnits="userSpaceOnUse" />
    <linearGradient
       x1="34.795921"
       y1="2.4125435"
       x2="26.033436"
       y2="49.632542"
       id="linearGradient3223"
       xlink:href="#linearGradient5452"
       gradientUnits="userSpaceOnUse"
       gradientTransform="matrix(0.9931034,0,0,0.9931034,0.512069,0.5103448)" />
    <linearGradient
       x1="124.34372"
       y1="42.893944"
       x2="10.007462"
       y2="21.098124"
       id="linearGradient3225"
       xlink:href="#linearGradient5452"
       gradientUnits="userSpaceOnUse" />
    <radialGradient
       cx="31.357048"
       cy="22.817865"
       r="7.3570485"
       fx="31.357048"
       fy="22.817865"
       id="radialGradient3227"
       xlink:href="#linearGradient5452"
       gradientUnits="userSpaceOnUse"
       gradientTransform="matrix(1.0000002,4.8290072e-8,-3.4809718e-8,0.7208464,-6.5191416e-6,6.3696886)" />
    <linearGradient
       x1="53.797203"
       y1="73.685364"
       x2="61.486988"
       y2="81.817085"
       id="linearGradient3229"
       xlink:href="#linearGradient3425"
       gradientUnits="userSpaceOnUse"
       gradientTransform="matrix(0.6875241,-0.6874876,0.6875241,0.6874876,23.861388,39.569248)" />
    <linearGradient
       x1="72"
       y1="129.125"
       x2="55.941025"
       y2="129.125"
       id="linearGradient3231"
       xlink:href="#linearGradient3363"
       gradientUnits="userSpaceOnUse"
       gradientTransform="matrix(0.97228013,0,0,0.97228013,-11.10833,44.852525)" />
    <linearGradient
       x1="64.414215"
       y1="87.40625"
       x2="64.414215"
       y2="75.81768"
       id="linearGradient3233"
       xlink:href="#linearGradient5452"
       gradientUnits="userSpaceOnUse"
       gradientTransform="matrix(0.6875241,-0.6874876,0.6875241,0.6874876,23.861388,39.569248)" />
    <linearGradient
       x1="22.221363"
       y1="14.907595"
       x2="83.446823"
       y2="78.167587"
       id="linearGradient4029"
       xlink:href="#linearGradient4007"
       gradientUnits="userSpaceOnUse"
       gradientTransform="matrix(0.99635096,-0.08535079,0.08535079,0.99635096,-0.3317144,16.320707)" />
    <linearGradient
       x1="22.221363"
       y1="14.907595"
       x2="83.446823"
       y2="78.167587"
       id="linearGradient4132"
       xlink:href="#linearGradient4007"
       gradientUnits="userSpaceOnUse"
       gradientTransform="matrix(0.99035174,0.13857643,-0.13857643,0.99035174,5.2104084,8.0650361)" />
    <linearGradient
       id="linearGradient3737-5">
      <stop
         id="stop3739-3"
         style="stop-color:#ffffff;stop-opacity:1"
         offset="0" />
      <stop
         id="stop3741-5"
         style="stop-color:#ffffff;stop-opacity:0"
         offset="1" />
    </linearGradient>
    <radialGradient
       cx="48"
       cy="90.171875"
       r="42"
       fx="48"
       fy="90.171875"
       id="radialGradient2858"
       xlink:href="#linearGradient3737-5"
       gradientUnits="userSpaceOnUse"
       gradientTransform="matrix(1.1573129,0,0,0.99590774,-7.551021,0.1971319)" />
    <linearGradient
       x1="45.447727"
       y1="92.539597"
       x2="45.447727"
       y2="7.0165396"
       id="ButtonShadow-0"
       gradientUnits="userSpaceOnUse"
       gradientTransform="matrix(1.0058652,0,0,0.994169,100,0)">
      <stop
         id="stop3750-8"
         style="stop-color:#000000;stop-opacity:1"
         offset="0" />
      <stop
         id="stop3752-5"
         style="stop-color:#000000;stop-opacity:0.58823532"
         offset="1" />
    </linearGradient>
    <linearGradient
       x1="32.251034"
       y1="6.1317081"
       x2="32.251034"
       y2="90.238609"
       id="linearGradient3780"
       xlink:href="#ButtonShadow-0"
       gradientUnits="userSpaceOnUse"
       gradientTransform="matrix(1.0238095,0,0,1.0119048,-1.1428571,-98.071429)" />
    <linearGradient
       x1="32.251034"
       y1="6.1317081"
       x2="32.251034"
       y2="90.238609"
       id="linearGradient3772"
       xlink:href="#ButtonShadow-0"
       gradientUnits="userSpaceOnUse"
       gradientTransform="matrix(1.0238095,0,0,1.0119048,-1.1428571,-98.071429)" />
    <linearGradient
       x1="32.251034"
       y1="6.1317081"
       x2="32.251034"
       y2="90.238609"
       id="linearGradient3721"
       xlink:href="#ButtonShadow-0"
       gradientUnits="userSpaceOnUse"
       gradientTransform="matrix(1,0,0,-1,0,97)" />
    <linearGradient
       x1="32.251034"
       y1="6.1317081"
       x2="32.251034"
       y2="90.238609"
       id="linearGradient2918"
       xlink:href="#ButtonShadow-0"
       gradientUnits="userSpaceOnUse"
       gradientTransform="matrix(1.0238095,0,0,1.0119048,-1.1428571,-98.071429)" />
    <linearGradient
       x1="48"
       y1="90"
       x2="48"
       y2="5.9877172"
       id="linearGradient3979"
       xlink:href="#linearGradient3700"
       gradientUnits="userSpaceOnUse" />
    <linearGradient
       x1="32.251034"
       y1="6.1317081"
       x2="32.251034"
       y2="90.238609"
       id="linearGradient3987"
       xlink:href="#ButtonShadow-0"
       gradientUnits="userSpaceOnUse"
       gradientTransform="matrix(1.0238095,0,0,-1.0119048,-1.1428571,98.071429)" />
    <linearGradient
       x1="40.543461"
       y1="83.183121"
       x2="40.543461"
       y2="-52.934109"
       id="linearGradient7949"
       xlink:href="#linearGradient4042"
       gradientUnits="userSpaceOnUse"
       gradientTransform="matrix(1.0642373,0,0,1.0642373,-1.0152197,-4.4276623)" />
    <linearGradient
       inkscape:collect="always"
       xlink:href="#linearGradient4042"
       id="linearGradient3070"
       gradientUnits="userSpaceOnUse"
       gradientTransform="matrix(1.0642373,0,0,1.0642373,-1.0152197,-4.4276623)"
       x1="40.543461"
       y1="83.183121"
       x2="40.543461"
       y2="-52.934109" />
    <radialGradient
       inkscape:collect="always"
       xlink:href="#linearGradient3866"
       id="radialGradient3872"
       cx="38"
       cy="37.75"
       fx="38"
       fy="37.75"
       r="38.173105"
       gradientUnits="userSpaceOnUse"
       gradientTransform="matrix(-0.64219139,-1.588017,1.7537562,-0.70929134,-3.8010231,124.87039)" />
    <radialGradient
       inkscape:collect="always"
       xlink:href="#linearGradient3866"
       id="radialGradient3876"
       gradientUnits="userSpaceOnUse"
       gradientTransform="matrix(0.16306876,-0.43055264,0.90039726,0.34105529,-2.1866081,41.236159)"
       cx="45.800728"
       cy="19.667021"
       fx="45.800728"
       fy="19.667021"
       r="38.173105" />
  </defs>
  <metadata
     id="metadata2413">
    <rdf:RDF>
      <cc:Work
         rdf:about="">
        <dc:format>image/svg+xml</dc:format>
        <dc:type
           rdf:resource="http://purl.org/dc/dcmitype/StillImage" />
        <dc:title />
      </cc:Work>
    </rdf:RDF>
  </metadata>
  <g
     id="layer2"
     style="display:none">
    <rect
       width="86"
       height="85"
       rx="6"
       ry="6"
       x="5"
       y="7"
       id="rect3745"
       style="opacity:0.9;fill:url(#ButtonShadow);fill-opacity:1;fill-rule:nonzero;stroke:none;filter:url(#filter3174)" />
  </g>
  <rect
     style="fill:#16a085;fill-opacity:1;stroke:none"
     id="rect907-9"
     width="85.612999"
     height="84.17057"
     x="5.6466246"
     y="5.5268726" />
  <rect
     y="81.983818"
     x="5.6466398"
     height="7.804605"
     width="85.612976"
     id="rect920-3"
     style="fill:#292f34;fill-opacity:1;stroke:none" />
  <rect
     y="84.823517"
     x="73.403473"
     height="2.1345391"
     width="2.6377523"
     id="rect827-2"
     style="fill:#f7f7f7;fill-opacity:1;stroke:none" />
  <rect
     y="83.870651"
     x="19.113781"
     height="3.2639737"
     width="3.136802"
     id="rect5248-6"
     style="fill:#d45500;fill-opacity:1;stroke:none" />
  <rect
     style="fill:#349ba3;fill-opacity:1;stroke:none"
     id="rect5250-6"
     width="3.136802"
     height="3.2639737"
     x="25.111746"
     y="83.870651" />
  <rect
     style="fill:#cccccc;fill-opacity:1;stroke:none"
     id="rect5252-6"
     width="3.136802"
     height="3.2639737"
     x="13.477251"
     y="83.870651" />
  <rect
     y="83.870651"
     x="30.208055"
     height="3.2639737"
     width="3.136802"
     id="rect5254-5"
     style="fill:#16a085;fill-opacity:1;stroke:none" />
  <path
     inkscape:connector-curvature="0"
     style="fill:#f7f7f7;fill-opacity:1;stroke:none"
     d="m 9.7082986,83.445812 -0.7460035,0.07238 0,3.093705 0.7386424,-0.111877 0,-1.319301 0.9924905,1.463073 0.778649,-0.248108 -1.016985,-1.406368 1.025146,-1.327527 -0.794961,-0.184068 -0.9843395,1.327527 0.008,-1.359555 z m -1.6919671,0.754114 c -0.008,8.37e-4 -0.017503,0.0059 -0.022903,0.01167 l -0.2930045,0.294916 c -0.011702,0.01167 -0.015602,0.03172 -0.006,0.04689 l 0.342802,0.568472 c -0.060909,0.102929 -0.1095466,0.213973 -0.1443719,0.331049 l -0.6292956,0.131533 c -0.017503,0.0038 -0.030105,0.01965 -0.030105,0.03795 l 0,0.416508 c 0,0.01751 0.011702,0.03269 0.028604,0.03717 l 0.6113129,0.150212 c 0.032705,0.135621 0.083513,0.264661 0.1502128,0.382829 l -0.3542238,0.543002 c -0.010002,0.0156 -0.008,0.0348 0.006,0.04771 l 0.2930045,0.294925 c 0.011602,0.0116 0.031605,0.0156 0.046507,0.006 L 8.5698755,87.1623 c 0.1089666,0.06331 0.2259944,0.112457 0.3501432,0.146122 l 0.1289996,0.625965 c 0.004,0.0175 0.019703,0.03051 0.037606,0.03051 l 0.4146432,0 c 0.017503,0 0.032505,-0.0117 0.036706,-0.02881 l 0.151773,-0.627605 c 0.1280295,-0.0348 0.2491879,-0.08661 0.3607552,-0.152743 l 0.546843,0.360644 c 0.0156,0.01 0.03461,0.008 0.04731,-0.006 l 0.293014,-0.294795 c 0.0116,-0.0116 0.0156,-0.031 0.006,-0.04611 l -0.19995,-0.33105 -0.06441,0.0204 c -0.01,0.002 -0.0197,-8.31e-4 -0.0253,-0.01 0,0 -0.127049,-0.187768 -0.291384,-0.429645 -0.19642,0.386919 -0.5963105,0.652279 -1.0577806,0.652279 -0.6556398,0 -1.1867305,-0.535351 -1.1867305,-1.195294 0,-0.485464 0.2872837,-0.903062 0.7002964,-1.090106 l 0,-0.308033 c -0.075111,0.02646 -0.1473024,0.05837 -0.2163129,0.09613 -5e-5,-5.9e-5 -6.101e-4,9.7e-5 -8.101e-4,0 L 8.0421754,84.205321 c -0.008,-0.0059 -0.015602,-0.0078 -0.024504,-0.0059 z"
     id="path5692_2_-1" />
  <path
     d="m 79.170928,87.002076 0,-0.380857 c 0.07611,-0.136791 0.169086,-0.25976 0.278533,-0.36911 0.109546,-0.110712 0.223784,-0.211581 0.342822,-0.30272 0.120638,-0.09242 0.239656,-0.177646 0.357104,-0.255846 0.119078,-0.07938 0.225354,-0.155466 0.319008,-0.228489 0.09511,-0.07413 0.172197,-0.148461 0.230916,-0.222653 0.05871,-0.07414 0.08811,-0.152936 0.08811,-0.236312 0,-0.122386 -0.03731,-0.212884 -0.111877,-0.271471 -0.07461,-0.05856 -0.184068,-0.08775 -0.32852,-0.08775 -0.142822,0 -0.252368,0.0319 -0.32854,0.09553 -0.07451,0.06245 -0.122969,0.156827 -0.145162,0.283184 l -0.673712,-0.03113 c 0.0156,-0.107988 0.04851,-0.209634 0.09771,-0.304665 0.04921,-0.09495 0.119078,-0.178425 0.209491,-0.24999 0.09201,-0.0716 0.206312,-0.127641 0.342812,-0.167918 0.138141,-0.04164 0.302346,-0.06245 0.492795,-0.06245 0.180958,0 0.341222,0.0175 0.480883,0.05273 0.139712,0.03405 0.257119,0.08386 0.352344,0.150406 0.09511,0.06635 0.167525,0.147683 0.216643,0.244134 0.04921,0.09495 0.07371,0.203758 0.07371,0.326127 0,0.129003 -0.03101,0.245437 -0.09281,0.349613 -0.06181,0.104292 -0.141262,0.200508 -0.238056,0.289041 -0.09691,0.08717 -0.204731,0.169085 -0.323779,0.246078 -0.117518,0.07686 -0.231716,0.151575 -0.342803,0.224598 -0.111096,0.07297 -0.212682,0.146515 -0.304726,0.220707 -0.09051,0.07413 -0.157984,0.153524 -0.202351,0.238237 l 1.556957,0 0,0.451158 -2.347347,0"
     inkscape:connector-curvature="0"
     id="text3830-8"
     style="font-style:normal;font-variant:normal;font-weight:bold;font-stretch:normal;font-size:9px;line-height:100%;font-family:'Liberation Sans';-inkscape-font-specification:'Liberation Sans Bold';text-align:start;writing-mode:lr-tb;text-anchor:start;display:inline;fill:#f7f7f7;fill-opacity:1;stroke:none" />
  <path
     d="m 84.114409,86.211229 c 0,0.122586 -0.0229,0.233123 -0.06891,0.331478 -0.04451,0.09711 -0.111877,0.180177 -0.202321,0.249117 -0.09051,0.06911 -0.203061,0.121989 -0.337941,0.158965 -0.133481,0.03561 -0.289114,0.05371 -0.467061,0.05371 -0.19801,0 -0.365176,-0.0223 -0.501496,-0.06711 -0.134841,-0.04481 -0.246078,-0.103316 -0.333611,-0.176287 -0.08601,-0.07411 -0.151383,-0.157604 -0.19586,-0.250998 -0.04301,-0.09322 -0.07101,-0.187769 -0.08391,-0.283594 l 0.615584,-0.04787 c 0.008,0.05759 0.0243,0.110519 0.04731,0.158966 0.0243,0.04731 0.05661,0.08811 0.09692,0.122589 0.04011,0.03441 0.08891,0.06131 0.146322,0.08051 0.05871,0.0175 0.127639,0.0269 0.206621,0.0269 0.144952,0 0.25758,-0.0321 0.337912,-0.09571 0.08031,-0.06381 0.120638,-0.161494 0.120638,-0.293183 0,-0.08035 -0.0194,-0.144958 -0.05821,-0.193601 -0.03731,-0.04865 -0.08541,-0.08561 -0.144182,-0.111297 -0.05741,-0.02685 -0.119858,-0.04476 -0.187178,-0.0537 -0.06751,-0.0097 -0.13134,-0.01362 -0.191659,-0.01362 l -0.210922,0 0,-0.434953 0.19802,0 c 0.06031,0 0.121218,-0.0039 0.182908,-0.01556 0.06301,-0.0097 0.119848,-0.0286 0.170055,-0.05565 0.05021,-0.02685 0.09101,-0.06382 0.122779,-0.111296 0.03151,-0.04865 0.04731,-0.109935 0.04731,-0.184068 0,-0.111298 -0.0352,-0.19802 -0.105456,-0.260615 -0.06891,-0.06382 -0.170056,-0.09573 -0.303476,-0.09573 -0.124919,0 -0.226004,0.03055 -0.303486,0.09184 -0.07611,0.06129 -0.119848,0.148266 -0.13133,0.260594 l -0.604822,-0.03813 c 0.0175,-0.126475 0.05611,-0.23635 0.116158,-0.329591 0.06171,-0.0932 0.138541,-0.170448 0.230305,-0.231856 0.09321,-0.06129 0.20018,-0.106822 0.320689,-0.136007 0.120448,-0.03055 0.248267,-0.04611 0.383148,-0.04611 0.177837,0 0.33074,0.01945 0.458449,0.05759 0.12765,0.03814 0.232436,0.09008 0.314248,0.155077 0.08171,0.06518 0.142032,0.141261 0.180758,0.228023 0.0387,0.08678 0.05811,0.179592 0.05811,0.277853 0,0.07919 -0.0136,0.153325 -0.0387,0.222263 -0.0258,0.06771 -0.06531,0.129003 -0.118308,0.184069 -0.05151,0.0537 -0.118298,0.100205 -0.200171,0.139899 -0.08171,0.03833 -0.178627,0.06712 -0.290564,0.08619 l 0,0.0078 c 0.124919,0.01362 0.233185,0.03833 0.325009,0.07666 0.09181,0.03698 0.167136,0.08367 0.225995,0.139899 0.05871,0.05623 0.102535,0.120052 0.13133,0.191656 0.0286,0.07024 0.04301,0.144958 0.04301,0.224189"
     inkscape:connector-curvature="0"
     id="text3834-4"
     style="font-style:normal;font-variant:normal;font-weight:bold;font-stretch:normal;font-size:9px;line-height:100%;font-family:'Liberation Sans';-inkscape-font-specification:'Liberation Sans Bold';text-align:start;writing-mode:lr-tb;text-anchor:start;display:inline;fill:#f7f7f7;fill-opacity:1;stroke:none" />
  <rect
     style="fill:#f7f7f7;fill-opacity:1;stroke:none"
     id="rect5274-2"
     width="0.44634372"
     height="0.46161035"
     x="84.745636"
     y="84.927963" />
  <rect
     y="85.906212"
     x="84.759796"
     height="0.46161035"
     width="0.44634372"
     id="rect5276-9"
     style="fill:#f7f7f7;fill-opacity:1;stroke:none" />
  <path
     style="font-style:normal;font-variant:normal;font-weight:bold;font-stretch:normal;font-size:9px;line-height:100%;font-family:'Liberation Sans';-inkscape-font-specification:'Liberation Sans Bold';text-align:start;writing-mode:lr-tb;text-anchor:start;display:inline;fill:#f7f7f7;fill-opacity:1;stroke:none"
     id="path5278-6"
     inkscape:connector-curvature="0"
     d="m 85.752198,86.973712 0,-0.380848 c 0.07621,-0.136781 0.169076,-0.259749 0.278532,-0.369105 0.109547,-0.110713 0.223774,-0.21158 0.342822,-0.302719 0.120639,-0.09242 0.239637,-0.177841 0.357105,-0.255866 0.119078,-0.07938 0.225354,-0.155465 0.318998,-0.22849 0.09511,-0.07413 0.172196,-0.148461 0.230925,-0.222651 0.05871,-0.07413 0.08811,-0.152936 0.08811,-0.236293 -2e-5,-0.122388 -0.0373,-0.212884 -0.111877,-0.271471 -0.07461,-0.05856 -0.184067,-0.08775 -0.328539,-0.08775 -0.142822,0 -0.252349,0.03191 -0.32852,0.09553 -0.07451,0.06246 -0.122979,0.156827 -0.145152,0.283165 l -0.673743,-0.03113 c 0.0156,-0.108184 0.04841,-0.209616 0.09772,-0.304646 0.04921,-0.09495 0.119078,-0.178425 0.209502,-0.25001 0.09201,-0.0716 0.206331,-0.127641 0.342822,-0.167918 0.138151,-0.04165 0.302346,-0.06246 0.492805,-0.06246 0.180947,2e-5 0.341222,0.01751 0.480893,0.05273 0.139701,0.03386 0.257099,0.08386 0.352333,0.150407 0.09511,0.06635 0.167526,0.147682 0.216633,0.244133 0.04921,0.09495 0.07371,0.203778 0.07371,0.326146 0,0.129004 -0.031,0.245438 -0.09281,0.349593 -0.06181,0.104293 -0.141261,0.200529 -0.238056,0.28906 -0.09691,0.08717 -0.204751,0.169281 -0.323769,0.24608 -0.117538,0.07686 -0.231735,0.151574 -0.342832,0.224598 -0.111107,0.07296 -0.212672,0.146515 -0.304716,0.220687 -0.09051,0.07412 -0.158004,0.153517 -0.202361,0.23826 l 1.556946,0 0,0.451158 -2.347316,0" />
  <path
     style="font-style:normal;font-variant:normal;font-weight:bold;font-stretch:normal;font-size:9px;line-height:100%;font-family:'Liberation Sans';-inkscape-font-specification:'Liberation Sans Bold';text-align:start;writing-mode:lr-tb;text-anchor:start;display:inline;fill:#f7f7f7;fill-opacity:1;stroke:none"
     id="path5280-3"
     inkscape:connector-curvature="0"
     d="m 90.90125,86.214635 c 0,0.12258 -0.0229,0.233137 -0.06891,0.331492 -0.04451,0.09712 -0.111887,0.180177 -0.202321,0.249098 -0.09051,0.06911 -0.203051,0.121998 -0.337922,0.158974 -0.13348,0.03561 -0.289133,0.05371 -0.46706,0.05371 -0.198021,0 -0.365196,-0.0223 -0.501517,-0.06711 -0.13484,-0.04481 -0.246077,-0.103516 -0.3336,-0.176487 -0.08601,-0.07411 -0.151373,-0.157604 -0.19588,-0.251018 -0.04301,-0.09321 -0.07101,-0.187768 -0.08381,-0.283593 l 0.615584,-0.04787 c 0.008,0.05759 0.0243,0.110519 0.04731,0.158965 0.0243,0.04731 0.05661,0.08811 0.09691,0.122589 0.04011,0.0346 0.08891,0.06131 0.146312,0.08051 0.05871,0.0175 0.127649,0.0268 0.206641,0.0268 0.144952,0 0.257559,-0.0319 0.337922,-0.09571 0.08031,-0.06381 0.120438,-0.161494 0.120438,-0.293161 -2e-5,-0.08035 -0.0194,-0.144958 -0.05821,-0.193603 -0.03731,-0.04865 -0.08541,-0.08561 -0.144182,-0.111101 -0.05741,-0.02685 -0.119858,-0.04476 -0.187178,-0.0537 -0.06751,-0.0097 -0.13134,-0.01362 -0.191459,-0.01362 l -0.210942,0 0,-0.434972 0.19802,0 c 0.06031,0 0.121218,-0.0038 0.182897,-0.01556 0.06301,-0.0097 0.119859,-0.0286 0.170066,-0.05565 0.05021,-0.02685 0.09101,-0.06382 0.122769,-0.111297 0.0316,-0.04865 0.04731,-0.10974 0.04731,-0.184068 0,-0.111296 -0.03521,-0.198 -0.105466,-0.260594 -0.06891,-0.06382 -0.170056,-0.09574 -0.303476,-0.09574 -0.124919,0 -0.226004,0.03055 -0.303476,0.09184 -0.07611,0.06129 -0.119868,0.148266 -0.13134,0.260595 l -0.604822,-0.03814 c 0.0175,-0.126474 0.05611,-0.236331 0.116168,-0.329571 0.06171,-0.0932 0.138531,-0.170448 0.230315,-0.231855 0.09321,-0.06129 0.20016,-0.106822 0.320698,-0.136009 0.120639,-0.03074 0.248248,-0.04611 0.383119,-0.04611 0.177847,0 0.33074,0.01945 0.458459,0.05759 0.12764,0.03833 0.232436,0.09008 0.314238,0.155076 0.08171,0.06518 0.142042,0.141262 0.180767,0.228003 0.03871,0.08678 0.05811,0.179592 0.05811,0.277853 0,0.07919 -0.0136,0.153326 -0.03871,0.222263 -0.0259,0.06771 -0.06521,0.129004 -0.118308,0.184069 -0.05171,0.0537 -0.118298,0.1004 -0.20016,0.139899 -0.08171,0.03833 -0.178617,0.06712 -0.290574,0.08619 l 0,0.0078 c 0.124729,0.01362 0.233175,0.03813 0.324999,0.07666 0.09181,0.03717 0.167146,0.08367 0.225995,0.139899 0.05871,0.05623 0.102545,0.120053 0.131339,0.191657 0.02881,0.07024 0.04301,0.144958 0.04301,0.224189" />
  <rect
     style="fill:#f7f7f7;fill-opacity:1;stroke:none"
     id="rect5282-7"
     width="2.6377523"
     height="2.1345391"
     x="69.487091"
     y="84.848465" />
  <rect
     y="84.873451"
     x="65.645325"
     height="2.1345391"
     width="2.6377523"
     id="rect5284-2"
     style="fill:#f7f7f7;fill-opacity:1;stroke:none" />
  <path
     sodipodi:type="star"
     style="fill:#f7f7f7;fill-opacity:1;fill-rule:evenodd;stroke:none"
     id="path5286-6"
     sodipodi:sides="3"
     sodipodi:cx="38.975643"
     sodipodi:cy="40.712048"
     sodipodi:r1="0.27668685"
     sodipodi:r2="0.13834342"
     sodipodi:arg1="2.6191892"
     sodipodi:arg2="3.6663868"
     inkscape:flatsided="true"
     inkscape:rounded="0"
     inkscape:randomized="0"
     d="m 38.73586,40.850104 0.240114,-0.414743 0.239121,0.415316 z"
     inkscape:transform-center-x="0.00026573688"
     inkscape:transform-center-y="-0.10168063"
     transform="matrix(1.6212349,0,0,1.4732431,14.609313,25.823837)" />
  <rect
     y="11.858797"
     x="9.6630888"
     height="5.0101128"
     width="5"
     id="rect5288-4"
     style="fill:#1abc9c;fill-opacity:1;stroke:none" />
  <rect
     style="fill:#1abc9c;fill-opacity:1;stroke:none"
     id="rect5290-4"
     width="5"
     height="5.0101128"
     x="9.6630888"
     y="21.803909" />
  <rect
     y="31.748997"
     x="9.6630888"
     height="5.0101128"
     width="5"
     id="rect5292-7"
     style="fill:#1abc9c;fill-opacity:1;stroke:none" />
</svg>
