<?xml version="1.0" encoding="UTF-8" standalone="no"?>
<!-- Created with Inkscape (http://www.inkscape.org/) -->

<svg
   xmlns:dc="http://purl.org/dc/elements/1.1/"
   xmlns:cc="http://creativecommons.org/ns#"
   xmlns:rdf="http://www.w3.org/1999/02/22-rdf-syntax-ns#"
   xmlns:svg="http://www.w3.org/2000/svg"
   xmlns="http://www.w3.org/2000/svg"
   xmlns:sodipodi="http://sodipodi.sourceforge.net/DTD/sodipodi-0.dtd"
   xmlns:inkscape="http://www.inkscape.org/namespaces/inkscape"
   width="48"
   height="48"
   id="svg3381"
   version="1.1"
   inkscape:version="0.48.5 r10040"
   sodipodi:docname="color.svg">
  <defs
     id="defs3383" />
  <sodipodi:namedview
     id="base"
     pagecolor="#ffffff"
     bordercolor="#666666"
     borderopacity="1.0"
     inkscape:pageopacity="0.0"
     inkscape:pageshadow="2"
     inkscape:zoom="11.313708"
     inkscape:cx="-18.22098"
     inkscape:cy="24.42252"
     inkscape:document-units="px"
     inkscape:current-layer="layer1"
     showgrid="false"
     fit-margin-top="0"
     fit-margin-left="0"
     fit-margin-right="0"
     fit-margin-bottom="0"
     inkscape:window-width="1280"
     inkscape:window-height="670"
     inkscape:window-x="-2"
     inkscape:window-y="-3"
     inkscape:window-maximized="1">
    <sodipodi:guide
       position="9.0000117,39.000009"
       orientation="30.000031,0"
       id="guide3264" />
    <sodipodi:guide
       position="9.0000117,8.9999785"
       orientation="0,30"
       id="guide3266" />
    <sodipodi:guide
       position="39.000012,34.58801"
       orientation="-30.000031,0"
       id="guide3268" />
    <sodipodi:guide
       position="39.000012,39.000009"
       orientation="0,-30"
       id="guide3270" />
    <sodipodi:guide
       position="9.0000117,19.999979"
       orientation="11,0"
       id="guide3276" />
    <sodipodi:guide
       position="24.000012,39.000009"
       orientation="15.000031,0"
       id="guide3311" />
    <sodipodi:guide
       position="24.000012,23.999979"
       orientation="0,15"
       id="guide3313" />
    <sodipodi:guide
       position="39.000012,39.000009"
       orientation="0,-15"
       id="guide3317" />
  </sodipodi:namedview>
  <metadata
     id="metadata3386">
    <rdf:RDF>
      <cc:Work
         rdf:about="">
        <dc:format>image/svg+xml</dc:format>
        <dc:type
           rdf:resource="http://purl.org/dc/dcmitype/StillImage" />
        <dc:title />
      </cc:Work>
    </rdf:RDF>
  </metadata>
  <g
     inkscape:label="Capa 1"
     inkscape:groupmode="layer"
     id="layer1"
     transform="translate(-364.57143,-499.79075)">
    <path
       sodipodi:type="arc"
       style="fill:none;fill-opacity:1;fill-rule:evenodd;stroke:#8c8c8c;stroke-opacity:1"
       id="path2991"
       sodipodi:cx="25.068472"
       sodipodi:cy="23.914175"
       sodipodi:rx="16.06846"
       sodipodi:ry="14.914184"
       d="m 41.136932,23.914175 c 0,8.236876 -7.194094,14.914184 -16.06846,14.914184 -8.874366,0 -16.0684606,-6.677308 -16.0684606,-14.914184 0,-8.236876 7.1940946,-14.9141836 16.0684606,-14.9141836 8.874366,0 16.06846,6.6773076 16.06846,14.9141836 z"
       transform="matrix(0.93674154,0,0,1.0088897,365.14076,499.71074)" />
    <path
       sodipodi:type="arc"
       style="fill:#ff0000;fill-opacity:1;fill-rule:evenodd;stroke:none"
       id="path3980"
       sodipodi:cx="17.98703"
       sodipodi:cy="18.168932"
       sodipodi:rx="3.756505"
       sodipodi:ry="3.756505"
       d="m 21.743535,18.168932 c 0,2.07466 -1.681845,3.756505 -3.756505,3.756505 -2.07466,0 -3.756505,-1.681845 -3.756505,-3.756505 0,-2.07466 1.681845,-3.756505 3.756505,-3.756505 2.07466,0 3.756505,1.681845 3.756505,3.756505 z"
       transform="matrix(1.2823529,0,0,1.2823529,360.64179,497.13557)" />
    <path
       transform="matrix(1.3058823,0,0,1.3058823,370.18563,496.61968)"
       d="m 21.743535,18.168932 c 0,2.07466 -1.681845,3.756505 -3.756505,3.756505 -2.07466,0 -3.756505,-1.681845 -3.756505,-3.756505 0,-2.07466 1.681845,-3.756505 3.756505,-3.756505 2.07466,0 3.756505,1.681845 3.756505,3.756505 z"
       sodipodi:ry="3.756505"
       sodipodi:rx="3.756505"
       sodipodi:cy="18.168932"
       sodipodi:cx="17.98703"
       id="path3982"
       style="fill:#0000ff;fill-opacity:1;fill-rule:evenodd;stroke:none"
       sodipodi:type="arc" />
    <path
       sodipodi:type="arc"
       style="fill:#ffd42a;fill-opacity:1;fill-rule:evenodd;stroke:none"
       id="path3984"
       sodipodi:cx="17.98703"
       sodipodi:cy="18.168932"
       sodipodi:rx="3.756505"
       sodipodi:ry="3.756505"
       d="m 21.743535,18.168932 c 0,2.07466 -1.681845,3.756505 -3.756505,3.756505 -2.07466,0 -3.756505,-1.681845 -3.756505,-3.756505 0,-2.07466 1.681845,-3.756505 3.756505,-3.756505 2.07466,0 3.756505,1.681845 3.756505,3.756505 z"
       transform="matrix(1.2352941,0,0,1.2352941,366.52894,506.03393)" />
  </g>
</svg>
