<?xml version="1.0" encoding="UTF-8" standalone="no"?>
<!-- Created with Inkscape (http://www.inkscape.org/) -->

<svg
   xmlns:dc="http://purl.org/dc/elements/1.1/"
   xmlns:cc="http://creativecommons.org/ns#"
   xmlns:rdf="http://www.w3.org/1999/02/22-rdf-syntax-ns#"
   xmlns:svg="http://www.w3.org/2000/svg"
   xmlns="http://www.w3.org/2000/svg"
   xmlns:sodipodi="http://sodipodi.sourceforge.net/DTD/sodipodi-0.dtd"
   xmlns:inkscape="http://www.inkscape.org/namespaces/inkscape"
   width="48"
   height="48"
   id="svg2"
   version="1.1"
   inkscape:version="0.48.5 r10040"
   sodipodi:docname="debug-run.svg">
  <defs
     id="defs4" />
  <sodipodi:namedview
     id="base"
     pagecolor="#ffffff"
     bordercolor="#666666"
     borderopacity="1.0"
     inkscape:pageopacity="0.0"
     inkscape:pageshadow="2"
     inkscape:zoom="8.0343727"
     inkscape:cx="12.732765"
     inkscape:cy="29.56142"
     inkscape:document-units="px"
     inkscape:current-layer="layer1"
     showgrid="false"
     inkscape:window-width="1280"
     inkscape:window-height="670"
     inkscape:window-x="-2"
     inkscape:window-y="-3"
     inkscape:window-maximized="1">
    <inkscape:grid
       type="xygrid"
       id="grid3004" />
    <sodipodi:guide
       position="9,39.000017"
       orientation="30,0"
       id="guide3263" />
    <sodipodi:guide
       position="9,9.0000174"
       orientation="0,30"
       id="guide3265" />
    <sodipodi:guide
       position="39,9.0000174"
       orientation="-30,0"
       id="guide3267" />
    <sodipodi:guide
       position="39,39.000017"
       orientation="0,-30"
       id="guide3269" />
  </sodipodi:namedview>
  <metadata
     id="metadata7">
    <rdf:RDF>
      <cc:Work
         rdf:about="">
        <dc:format>image/svg+xml</dc:format>
        <dc:type
           rdf:resource="http://purl.org/dc/dcmitype/StillImage" />
        <dc:title />
      </cc:Work>
    </rdf:RDF>
  </metadata>
  <g
     inkscape:label="Capa 1"
     inkscape:groupmode="layer"
     id="layer1"
     transform="translate(0,-1004.3622)">
    <g
       id="g11690">
      <rect
         style="fill:#8c8c8c;fill-opacity:1;fill-rule:evenodd;stroke:none"
         id="rect3785"
         width="4.3177791"
         height="21.287434"
         x="8.8840904"
         y="1013.2379"
         ry="1.1788818e-07" />
      <rect
         transform="matrix(-0.00458327,0.9999895,-0.99991065,-0.01336789,0,0)"
         ry="6.9029511e-08"
         y="-28.38732"
         x="1021.4373"
         height="12.464873"
         width="4.3176923"
         id="rect3787"
         style="fill:#8c8c8c;fill-opacity:1;fill-rule:evenodd;stroke:none" />
      <path
         inkscape:transform-center-y="0.0045397843"
         inkscape:transform-center-x="-1.6132199"
         transform="matrix(0.00108207,0.99999941,-0.99999941,0.00108207,53.022429,988.852)"
         d="m 29.373793,33.686499 2.79943,-4.852348 2.799431,-4.852348 2.802541,4.850552 2.802541,4.850552 -5.601972,0.0018 z"
         inkscape:randomized="0"
         inkscape:rounded="0"
         inkscape:flatsided="false"
         sodipodi:arg2="3.6648709"
         sodipodi:arg1="2.6176733"
         sodipodi:r2="3.2343001"
         sodipodi:r1="6.4686003"
         sodipodi:cy="30.450403"
         sodipodi:cx="34.974728"
         sodipodi:sides="3"
         id="path3789"
         style="fill:#8c8c8c;fill-opacity:1;fill-rule:evenodd;stroke:none"
         sodipodi:type="star" />
    </g>
    <g
       id="g17"
       transform="matrix(0.04055138,0,0,0.03883247,21.404581,1026.3757)"
       style="fill:#8c8c8c;fill-opacity:1">
      <title
         id="title19">Layer 1</title>
      <g
         id="layer1-8"
         style="fill:#8c8c8c;fill-opacity:1">
        <path
           stroke-miterlimit="4"
           id="path2274"
           d="m 249.6384,25.241638 c -2.4076,18.120819 -17.91083,32.125 -36.6875,32.125 -17.82254,1.5e-5 -32.72373,-12.597519 -36.25,-29.375 -13.05912,2.811798 -25.65302,6.850143 -37.6875,11.96875 6.59542,16.770355 0.1373,36.312973 -15.9375,45.59375 -14.92545,8.617218 -33.387881,5.681183 -44.937503,-6.0625 -8.09996,7.531219 -15.637527,15.690613 -22.46875,24.406252 14.381088,11.16882 18.672455,31.53808 9.3125,47.75 -8.9272,15.46237 -27.340164,22.07309 -43.65625,16.6875 -3.910324,12.02029 -6.779068,24.51465 -8.46875,37.375 18.742218,1.82535 33.40625,17.62408 33.40625,36.84375 1.5e-5,18.10476 -13.012253,33.16067 -30.1875,36.375 1.277954,5.75903 2.759415,11.42917 4.5,17 3.359619,-0.88443 6.79512,-1.29526 10.1875,-1.21875 12.507599,0.28213 24.572922,6.91208 31.28125,18.53125 9.130905,15.81521 5.263657,35.57922 -8.28125,46.90625 7.557648,9.94781 15.978577,19.20843 25.15625,27.65625 6.978363,-8.45319 17.227966,-13.19947 27.781253,-13.4375 6.5516,-0.14777 13.19503,1.45483 19.28125,4.96875 16.87545,9.74304 23.1712,30.78021 14.875,48.0625 11.47454,4.75067 23.45239,8.51947 35.84375,11.1875 3.52627,-16.77747 18.42746,-29.375 36.25,-29.375 18.77664,0 34.27987,14.00415 36.6875,32.125 11.22039,-1.52948 22.16482,-3.92511 32.75,-7.15625 -5.53757,-16.37812 1.05172,-34.93305 16.59375,-43.90625 5.53293,-3.19446 11.5606,-4.78345 17.53125,-4.9375 12.00396,-0.30969 23.78512,5.25311 31.09378,15.5 10.67425,-8.07825 20.55432,-17.16217 29.5,-27.09375 -12.83087,-11.43585 -16.33533,-30.69068 -7.40625,-46.15625 6.70831,-11.61917 18.77362,-18.24912 31.28125,-18.53125 4.98938,-0.11255 10.05707,0.79239 14.875,2.78125 4.32318,-10.70374 7.78839,-21.85141 10.3125,-33.34375 -16.0976,-4.02341 -28.03125,-18.59738 -28.03125,-35.9375 0,-18.44177 13.50635,-33.74143 31.15625,-36.5625 -2.44861,-18.8367 -7.39685,-36.88211 -14.5,-53.8125 -17.27747,8.27774 -38.29303,1.99215 -48.03125,-14.875 -9.10419,-15.76889 -5.26654,-35.46939 8.1875,-46.812502 -8.07678,-8.699493 -16.8772,-16.736557 -26.3125,-23.96875 -11.35633,13.372879 -30.98905,17.175293 -46.71878,8.09375 -14.78348,-8.535233 -21.46149,-25.745178 -17.3125,-41.5 -11.27509,-3.579941 -22.96024,-6.238251 -34.96875,-7.875 z M 221.0759,158.99164 c 1.28143,0 2.54693,0.0295 3.8125,0.0937 5.06219,0.25708 10.00421,1.0271 14.75,2.25 1.18649,0.30551 2.36844,0.63806 3.53125,1 2.32556,0.72436 4.591,1.5592 6.8125,2.5 1.11081,0.47009 2.20031,0.9754 3.28125,1.5 0.54046,0.2623 1.09201,0.53738 1.625,0.8125 0.0745,0.0382 0.14441,0.0866 0.21875,0.125 0.725,0.37478 1.4454,0.75854 2.15625,1.15625 0.78265,0.44 1.54669,0.87826 2.3125,1.34375 2.04205,1.24203 4.0307,2.57278 5.9375,4 0.71508,0.53491 1.4291,1.09668 2.125,1.65625 0.42749,0.34454 0.86163,0.67752 1.28125,1.03125 0.56656,0.47632 1.10428,0.97607 1.65625,1.46875 1.03448,0.9234 2.05194,1.86444 3.03125,2.84375 0.63022,0.63058 1.23675,1.28479 1.84375,1.9375 0.0101,0.0109 0.0212,0.0204 0.0312,0.0312 0.28067,0.30218 0.56814,0.59945 0.84375,0.90625 0.70736,0.78738 1.3891,1.58908 2.0625,2.40625 0.18902,0.2294 0.37619,0.45581 0.5625,0.6875 0.56134,0.69674 1.11987,1.40793 1.65625,2.125 0.66839,0.8952 1.30905,1.79303 1.9375,2.71875 0.8779,1.29318 1.73385,2.61892 2.53125,3.96875 0.4544,0.76858 0.88534,1.55774 1.3125,2.34375 1.14404,2.1051 2.18481,4.24713 3.125,6.46875 0.41211,0.97314 0.81634,1.94351 1.1875,2.9375 0.0379,0.10147 0.0563,0.21081 0.0937,0.3125 0.32959,0.89462 0.64181,1.80826 0.9375,2.71875 0.0406,0.12503 0.085,0.24966 0.125,0.375 0.11505,0.36081 0.20285,0.73056 0.3125,1.09375 0.26931,0.892 0.54495,1.78171 0.78125,2.6875 0.065,0.24927 0.125,0.49972 0.1875,0.75 0.16006,0.6401 0.29416,1.29095 0.4375,1.9375 0.17688,0.79785 0.34903,1.59903 0.5,2.40625 0.008,0.0421 0.0235,0.0828 0.0312,0.125 0.0134,0.0723 0.0181,0.14636 0.0312,0.21875 0.16989,0.93277 0.3341,1.86798 0.46875,2.8125 0.009,0.063 0.0224,0.12448 0.0312,0.1875 0.0289,0.20675 0.0353,0.41772 0.0625,0.625 0.11459,0.8724 0.22851,1.74341 0.3125,2.625 0.10428,1.09564 0.19375,2.20385 0.25,3.3125 0.0632,1.2554 0.0937,2.54147 0.0937,3.8125 0,2.56286 -0.12125,5.06625 -0.375,7.5625 -0.001,0.0103 10e-4,0.021 0,0.0312 -0.12635,1.23767 -0.28232,2.46853 -0.46875,3.6875 -0.002,0.0102 0.002,0.0211 0,0.0312 -0.18692,1.21881 -0.41077,2.42642 -0.65625,3.625 -0.002,0.01 0.002,0.0212 0,0.0312 -0.12299,0.59924 -0.26392,1.18753 -0.40625,1.78125 -0.13758,0.59506 -0.28571,1.19174 -0.4375,1.78125 -0.003,0.01 0.003,0.0215 0,0.0312 -0.30347,1.17657 -0.64106,2.34671 -1,3.5 -0.003,0.01 0.003,0.0217 0,0.0312 -0.72181,2.31582 -1.56363,4.59991 -2.5,6.8125 -0.94019,2.22162 -1.98096,4.36364 -3.125,6.46875 -0.004,0.008 0.004,0.0232 0,0.0312 -1.14045,2.09668 -2.3884,4.12509 -3.71875,6.09375 -0.005,0.007 0.005,0.024 0,0.0312 -0.66324,0.98074 -1.3544,1.92834 -2.0625,2.875 -0.005,0.007 0.005,0.0244 0,0.0312 -0.70862,0.94671 -1.4668,1.87021 -2.21875,2.78125 -0.005,0.006 0.005,0.025 0,0.0312 -3.02475,3.66229 -6.39923,7.03891 -10.0625,10.0625 -3.66904,3.02832 -7.63379,5.71219 -11.84375,8 -2.10511,1.14404 -4.27838,2.18481 -6.5,3.125 -2.2215,0.94006 -4.48694,1.77624 -6.8125,2.5 -1.16281,0.36194 -2.34476,0.69452 -3.53125,1 -4.74579,1.22186 -9.68781,1.99316 -14.75,2.25 -1.26557,0.0642 -2.53107,0.0937 -3.8125,0.0937 -1.28144,0 -2.54694,-0.0295 -3.8125,-0.0937 -5.0622,-0.25708 -10.00421,-1.0271 -14.75,-2.25 -1.1865,-0.30548 -2.36844,-0.63806 -3.53125,-1 -2.32557,-0.72437 -4.59101,-1.55918 -6.8125,-2.5 -2.22162,-0.94019 -4.3949,-1.98096 -6.5,-3.125 -1.05249,-0.57236 -2.07273,-1.19147 -3.09375,-1.8125 -1.02103,-0.621 -2.04047,-1.27115 -3.03125,-1.9375 -0.98807,-0.6677 -1.95279,-1.34931 -2.90625,-2.0625 -1.90696,-1.42639 -3.74076,-2.93219 -5.5,-4.53125 -0.87406,-0.79447 -1.72721,-1.63394 -2.5625,-2.46875 -0.84592,-0.8454 -1.66416,-1.67731 -2.46875,-2.5625 -0.005,-0.006 0.005,-0.0255 0,-0.0312 -0.79947,-0.88004 -1.58667,-1.76975 -2.34375,-2.6875 -0.75714,-0.91733 -1.50556,-1.85904 -2.21875,-2.8125 -0.71314,-0.95389 -1.39487,-1.91779 -2.0625,-2.90625 -1.33539,-1.97611 -2.57471,-4.0199 -3.71875,-6.125 -1.14402,-2.10511 -2.18482,-4.24713 -3.125,-6.46875 -0.004,-0.009 0.004,-0.0224 0,-0.0312 -0.46628,-1.10224 -0.9299,-2.21518 -1.34375,-3.34375 -0.003,-0.009 0.003,-0.022 0,-0.0312 -0.41675,-1.13788 -0.79438,-2.27442 -1.15625,-3.4375 -0.3541,-1.1377 -0.6684,-2.2778 -0.96875,-3.4375 -0.0215,-0.0831 -0.0413,-0.16684 -0.0625,-0.25 -0.26944,-1.05564 -0.52631,-2.14588 -0.75,-3.21875 -0.0561,-0.26963 -0.10309,-0.54181 -0.15625,-0.8125 -0.1496,-0.76056 -0.31137,-1.51258 -0.4375,-2.28125 -0.0631,-0.38498 -0.13034,-0.76929 -0.1875,-1.15625 -0.004,-0.0304 0.004,-0.0633 0,-0.0937 -0.14908,-1.0167 -0.26773,-2.03263 -0.375,-3.0625 -0.0185,-0.17765 -0.0452,-0.35321 -0.0625,-0.53125 -0.10205,-1.05377 -0.16147,-2.12085 -0.21875,-3.1875 -0.005,-0.0844 -0.027,-0.1655 -0.0312,-0.25 -0.0642,-1.2656 -0.0937,-2.53107 -0.0937,-3.8125 0,-1.28144 0.0295,-2.54694 0.0937,-3.8125 0.0613,-1.25299 0.15493,-2.5072 0.28125,-3.75 0.001,-0.0103 -0.001,-0.0209 0,-0.0312 0.12582,-1.2378 0.28283,-2.46839 0.46875,-3.6875 0.002,-0.0102 -0.002,-0.0211 0,-0.0312 0.1864,-1.21894 0.41128,-2.42627 0.65625,-3.625 0.002,-0.01 -0.002,-0.0213 0,-0.0312 0.24545,-1.19861 0.54126,-2.38565 0.84375,-3.5625 0.002,-0.01 -0.003,-0.0215 0,-0.0312 0.30294,-1.17673 0.64154,-2.34656 1,-3.5 0.003,-0.009 -0.003,-0.0218 0,-0.0312 0.36187,-1.16278 0.7395,-2.29996 1.15625,-3.4375 0.31225,-0.8523 0.65771,-1.69388 1,-2.53125 0.0389,-0.095 0.0858,-0.1864 0.125,-0.28125 0.16827,-0.4068 0.32476,-0.81562 0.5,-1.21875 0.27026,-0.62097 0.55706,-1.23175 0.84375,-1.84375 0.19638,-0.41971 0.3898,-0.8346 0.59375,-1.25 0.44925,-0.914 0.92038,-1.82471 1.40625,-2.71875 0.004,-0.008 -0.004,-0.0233 0,-0.0312 0.57196,-1.05249 1.16067,-2.07273 1.78125,-3.09375 0.62509,-1.02838 1.26468,-2.03638 1.9375,-3.03125 0.66287,-0.98093 1.35479,-1.92816 2.0625,-2.875 0.005,-0.007 -0.005,-0.0247 0,-0.0312 0.70825,-0.94687 1.46716,-1.87003 2.21875,-2.78125 0.005,-0.006 -0.005,-0.0252 0,-0.0312 0.75708,-0.91727 1.54428,-1.80796 2.34375,-2.6875 2.39859,-2.63886 4.96676,-5.10355 7.71875,-7.375 3.66903,-3.02832 7.63379,-5.71219 11.84375,-8 2.1051,-1.14401 4.27838,-2.18482 6.5,-3.125 2.22149,-0.94007 4.48693,-1.77622 6.8125,-2.5 1.16281,-0.36194 2.34475,-0.69449 3.53125,-1 4.74579,-1.22187 9.6878,-1.99314 14.75,-2.25 1.26556,-0.0642 2.53106,-0.0937 3.8125,-0.0937 z"
           inkscape:connector-curvature="0"
           style="fill:#8c8c8c;fill-opacity:1;stroke-width:0;stroke-miterlimit:4" />
        <path
           stroke-miterlimit="4"
           id="path2249"
           d="m 221.06027,62.147888 c -94.47085,1.5e-5 -171.124983,76.685392 -171.124983,171.156252 0,94.47085 76.654133,171.125 171.124983,171.125 94.47086,6e-5 171.15622,-76.65415 171.15622,-171.125 0,-94.47086 -76.68536,-171.156252 -171.15622,-171.156252 z m 0.0312,96.843752 c 1.28143,0 2.54694,0.0295 3.8125,0.0937 5.0622,0.25708 10.00421,1.0271 14.75,2.25 1.18649,0.30551 2.36844,0.63806 3.53125,1 2.32556,0.72436 4.591,1.5592 6.8125,2.5 3.3324,1.41028 6.53052,3.07559 9.59375,4.9375 2.04202,1.24203 4.0307,2.57278 5.9375,4 2.86041,2.13962 5.5727,4.47894 8.09375,7 5.04172,5.04464 9.34952,10.80755 12.78125,17.125 1.14404,2.1051 2.18482,4.24713 3.125,6.46875 3.29685,7.78506 5.30002,16.25577 5.75,25.125 0.0632,1.2554 0.0937,2.54147 0.0937,3.8125 0,2.56286 -0.12124,5.06625 -0.375,7.5625 -0.001,0.0103 10e-4,0.021 0,0.0312 -0.12634,1.23767 -0.28232,2.46853 -0.46875,3.6875 -0.002,0.0102 0.002,0.0211 0,0.0312 -0.18692,1.21881 -0.41077,2.42642 -0.65625,3.625 -0.002,0.01 0.002,0.0212 0,0.0312 -0.24597,1.19845 -0.54074,2.3858 -0.84375,3.5625 -0.002,0.01 0.003,0.0215 0,0.0312 -0.30347,1.17657 -0.64102,2.34671 -1,3.5 -0.003,0.01 0.003,0.0217 0,0.0312 -1.44656,4.64105 -3.34158,9.07959 -5.625,13.28125 -0.004,0.008 0.004,0.0232 0,0.0312 -1.14044,2.09668 -2.3884,4.12509 -3.71875,6.09375 -0.005,0.007 0.005,0.024 0,0.0312 -0.66324,0.98074 -1.3544,1.92834 -2.0625,2.875 -0.005,0.007 0.005,0.0244 0,0.0312 -0.70862,0.94671 -1.4668,1.87021 -2.21875,2.78125 -0.005,0.006 0.005,0.025 0,0.0312 -1.50986,1.82812 -3.10608,3.57483 -4.78125,5.25 -0.8454,0.84591 -1.70855,1.66418 -2.59375,2.46875 -0.87961,0.79953 -1.77017,1.58661 -2.6875,2.34375 -3.66904,3.02832 -7.63379,5.71219 -11.84375,8 -2.1051,1.14404 -4.27838,2.18481 -6.5,3.125 -2.2215,0.94006 -4.48694,1.77624 -6.8125,2.5 -1.16281,0.36194 -2.34476,0.69452 -3.53125,1 -4.74579,1.22186 -9.6878,1.99316 -14.75,2.25 -1.26556,0.0642 -2.53107,0.0937 -3.8125,0.0937 -1.28143,0 -2.54693,-0.0295 -3.8125,-0.0937 -5.06219,-0.25708 -10.00421,-1.0271 -14.75,-2.25 -1.18649,-0.30548 -2.36841,-0.63806 -3.53125,-1 -2.32556,-0.72437 -4.591,-1.55918 -6.8125,-2.5 -3.3324,-1.41028 -6.53049,-3.07559 -9.59375,-4.9375 -2.04202,-1.24204 -4.03067,-2.57279 -5.9375,-4 -3.82016,-2.85752 -7.32895,-6.06845 -10.53125,-9.59375 -0.79947,-0.88004 -1.58667,-1.76975 -2.34375,-2.6875 -3.02859,-3.66931 -5.71194,-7.63355 -8,-11.84375 -1.14401,-2.10511 -2.18481,-4.24713 -3.125,-6.46875 -0.004,-0.009 0.004,-0.0224 0,-0.0312 -0.46628,-1.10224 -0.9299,-2.21518 -1.34375,-3.34375 -0.003,-0.009 0.003,-0.022 0,-0.0312 -0.41675,-1.13788 -0.79437,-2.27442 -1.15625,-3.4375 -1.81256,-5.82355 -2.93097,-11.94248 -3.25,-18.28125 -0.0642,-1.2656 -0.0937,-2.53107 -0.0937,-3.8125 0,-2.57346 0.11917,-5.08747 0.375,-7.59375 0.12583,-1.2378 0.28284,-2.46839 0.46875,-3.6875 0.002,-0.0102 -0.002,-0.0211 0,-0.0312 0.1864,-1.21894 0.41129,-2.42627 0.65625,-3.625 0.002,-0.01 -0.002,-0.0213 0,-0.0312 0.24545,-1.19861 0.54126,-2.38565 0.84375,-3.5625 0.002,-0.01 -0.002,-0.0215 0,-0.0312 0.30295,-1.17673 0.64154,-2.34656 1,-3.5 0.003,-0.009 -0.003,-0.0218 0,-0.0312 0.36188,-1.16278 0.7395,-2.29996 1.15625,-3.4375 1.25351,-3.42136 2.74729,-6.71009 4.46875,-9.875 0.57196,-1.05249 1.16068,-2.07273 1.78125,-3.09375 0.62509,-1.02838 1.26468,-2.03638 1.9375,-3.03125 0.66287,-0.98093 1.3548,-1.92816 2.0625,-2.875 0.005,-0.007 -0.005,-0.0247 0,-0.0312 0.70825,-0.94687 1.46716,-1.87003 2.21875,-2.78125 0.005,-0.006 -0.005,-0.0252 0,-0.0312 0.75708,-0.91727 1.54428,-1.80796 2.34375,-2.6875 0.79953,-0.87961 1.59714,-1.72214 2.4375,-2.5625 0.84543,-0.84592 1.70859,-1.66416 2.59375,-2.46875 0.87961,-0.79953 1.77017,-1.58661 2.6875,-2.34375 3.66904,-3.02832 7.63379,-5.71219 11.84375,-8 2.1051,-1.14401 4.27841,-2.18482 6.5,-3.125 2.2215,-0.94007 4.48694,-1.77622 6.8125,-2.5 1.16284,-0.36194 2.34476,-0.69449 3.53125,-1 4.74579,-1.22187 9.68781,-1.99314 14.75,-2.25 1.26557,-0.0642 2.53107,-0.0937 3.8125,-0.0937 z"
           inkscape:connector-curvature="0"
           style="fill:#8c8c8c;fill-opacity:1;stroke-width:0;stroke-miterlimit:4" />
        <path
           stroke-miterlimit="4"
           id="path2252"
           d="m 221.06027,84.429138 c -82.16916,0 -148.843748,66.705842 -148.843748,148.875002 0,82.16916 66.674618,148.84375 148.843748,148.84375 82.16916,0 148.87503,-66.67459 148.87503,-148.84375 0,-82.16916 -66.70587,-148.875002 -148.87503,-148.875002 z m 0.0312,74.562502 c 41.00571,0 74.28125,33.30679 74.28125,74.3125 0,41.0057 -33.27554,74.28125 -74.28125,74.28125 -41.00571,0 -74.28125,-33.3068 -74.28125,-74.3125 0,-41.00571 33.27554,-74.28125 74.28125,-74.28125 z"
           inkscape:connector-curvature="0"
           style="fill:#8c8c8c;fill-opacity:1;stroke-width:0;stroke-miterlimit:4" />
        <path
           style="fill:#8c8c8c;fill-opacity:1;stroke-width:0;stroke-miterlimit:4"
           inkscape:connector-curvature="0"
           id="path3904"
           d="m 221.81596,66.555997 c -92.37738,0 -167.350307,74.680143 -167.350307,166.703273 0,92.02309 74.972977,166.76185 167.350307,166.76185 92.37736,0 167.35026,-74.68021 167.35026,-166.70331 l 0,-0.0585 c 0,-92.02315 -74.9729,-166.703293 -167.35026,-166.703293 z m 0,37.754073 c 71.5892,0 129.69062,57.79549 129.69062,129.00774 -10e-5,71.21222 -58.10147,128.94918 -129.69062,128.94918 -71.58917,0 -129.690638,-57.79546 -129.690638,-129.00772 0,-71.21226 58.101468,-128.9492 129.690638,-128.9492 z"
           stroke-miterlimit="4" />
        <path
           stroke-miterlimit="4"
           d="m 221.0759,142.29135 c -50.30101,0 -91.125,40.758 -91.125,90.98123 0,50.22321 40.82402,91.01319 91.125,91.01319 50.30099,0 91.12497,-40.75803 91.12497,-90.98125 l 0,-0.0319 c 0,-50.22323 -40.82398,-90.98123 -91.12497,-90.98123 z m 0,20.60495 c 38.9815,0 70.61868,31.54289 70.61868,70.40822 -6e-5,38.86531 -31.63721,70.37627 -70.61868,70.37627 -38.98149,0 -70.61869,-31.54288 -70.61869,-70.40821 0,-38.86534 31.6372,-70.37628 70.61869,-70.37628 z"
           id="path3318"
           inkscape:connector-curvature="0"
           style="fill:#8c8c8c;fill-opacity:1;stroke-width:0;stroke-miterlimit:4" />
        <g
           id="g3091"
           style="fill:#8c8c8c;fill-opacity:1" />
        <g
           id="g3099"
           transform="matrix(1.0495921,0,0,1.0577031,-12.797254,-16.510552)"
           style="fill:#8c8c8c;fill-opacity:1" />
      </g>
    </g>
  </g>
</svg>
