<?xml version="1.0" encoding="UTF-8" standalone="no"?>
<!-- Created with Inkscape (http://www.inkscape.org/) -->

<svg
   xmlns:dc="http://purl.org/dc/elements/1.1/"
   xmlns:cc="http://creativecommons.org/ns#"
   xmlns:rdf="http://www.w3.org/1999/02/22-rdf-syntax-ns#"
   xmlns:svg="http://www.w3.org/2000/svg"
   xmlns="http://www.w3.org/2000/svg"
   xmlns:sodipodi="http://sodipodi.sourceforge.net/DTD/sodipodi-0.dtd"
   xmlns:inkscape="http://www.inkscape.org/namespaces/inkscape"
   width="48"
   height="48"
   id="svg3381"
   version="1.1"
   inkscape:version="0.48.5 r10040"
   sodipodi:docname="edit-find-mail.svg">
  <defs
     id="defs3383" />
  <sodipodi:namedview
     id="base"
     pagecolor="#ffffff"
     bordercolor="#666666"
     borderopacity="1.0"
     inkscape:pageopacity="0.0"
     inkscape:pageshadow="2"
     inkscape:zoom="9.4767761"
     inkscape:cx="26.350928"
     inkscape:cy="19.216914"
     inkscape:document-units="px"
     inkscape:current-layer="layer1"
     showgrid="false"
     fit-margin-top="0"
     fit-margin-left="0"
     fit-margin-right="0"
     fit-margin-bottom="0"
     inkscape:window-width="1280"
     inkscape:window-height="670"
     inkscape:window-x="-2"
     inkscape:window-y="-3"
     inkscape:window-maximized="1">
    <sodipodi:guide
       position="9.0000117,39.000009"
       orientation="30.000031,0"
       id="guide3264" />
    <sodipodi:guide
       position="9.0000117,8.9999785"
       orientation="0,30"
       id="guide3266" />
    <sodipodi:guide
       position="39.000012,34.58801"
       orientation="-30.000031,0"
       id="guide3268" />
    <sodipodi:guide
       position="39.000012,39.000009"
       orientation="0,-30"
       id="guide3270" />
    <sodipodi:guide
       position="9.0000117,19.999979"
       orientation="11,0"
       id="guide3276" />
    <sodipodi:guide
       position="24.000012,39.000009"
       orientation="15.000031,0"
       id="guide3311" />
    <sodipodi:guide
       position="24.000012,23.999979"
       orientation="0,15"
       id="guide3313" />
    <sodipodi:guide
       position="39.000012,39.000009"
       orientation="0,-15"
       id="guide3317" />
  </sodipodi:namedview>
  <metadata
     id="metadata3386">
    <rdf:RDF>
      <cc:Work
         rdf:about="">
        <dc:format>image/svg+xml</dc:format>
        <dc:type
           rdf:resource="http://purl.org/dc/dcmitype/StillImage" />
        <dc:title />
      </cc:Work>
    </rdf:RDF>
  </metadata>
  <g
     inkscape:label="Capa 1"
     inkscape:groupmode="layer"
     id="layer1"
     transform="translate(-364.57143,-499.79075)">
    <g
       id="g5008">
      <path
         sodipodi:nodetypes="ssssssssssssssssss"
         inkscape:connector-curvature="0"
         id="rect3833"
         transform="translate(364.57143,499.79075)"
         d="M 13.53125,9 C 11.037703,9 9,11.006453 9,13.5 L 9,34.46875 C 9,36.962297 11.037703,39 13.53125,39 L 34.375,39 c 2.493547,0 4.53125,-2.037703 4.53125,-4.53125 l 0,-20.96875 C 38.90625,11.006453 36.868547,9 34.375,9 z m -0.125,4 21.03125,0 c 0.269496,0 0.469937,0.230507 0.46875,0.5 l -0.09207,20.894732 c -0.0012,0.269493 -0.199254,0.5 -0.46875,0.5 l -21.03125,0 c -0.269496,0 -0.501188,-0.230506 -0.5,-0.5 L 12.90625,13.5 c 0.0012,-0.269493 0.230504,-0.5 0.5,-0.5 z"
         style="fill:#8c8c8c;fill-opacity:1;fill-rule:evenodd;stroke:none" />
      <rect
         style="fill:#8c8c8c;fill-opacity:1;fill-rule:evenodd;stroke:none"
         id="rect3761"
         width="3.1273091"
         height="18.084196"
         x="85.102379"
         y="623.70703"
         transform="matrix(-0.66276562,0.74882691,0.69625123,0.71779818,0,0)"
         ry="2.5940514e-07" />
      <rect
         ry="2.5940514e-07"
         transform="matrix(0.66276562,0.74882691,-0.69625123,0.71779818,0,0)"
         y="39.761375"
         x="644.22034"
         height="18.084196"
         width="3.1273091"
         id="rect3782"
         style="fill:#8c8c8c;fill-opacity:1;fill-rule:evenodd;stroke:none" />
      <g
         id="g3792"
         transform="matrix(1.0659731,0,0,1.1196821,-23.546078,-61.083985)">
        <path
           transform="matrix(0.93810998,0,0,0.89311064,365.87873,501.58289)"
           d="m 21.631828,39.611073 c 0,3.525801 -2.827728,6.384027 -6.315908,6.384027 -3.48818,0 -6.3159086,-2.858226 -6.3159086,-6.384027 0,-3.525801 2.8277286,-6.384028 6.3159086,-6.384028 3.48818,0 6.315908,2.858227 6.315908,6.384028 z"
           sodipodi:ry="6.3840275"
           sodipodi:rx="6.3159084"
           sodipodi:cy="39.611073"
           sodipodi:cx="15.31592"
           id="path3788"
           style="fill:#8c8c8c;fill-opacity:1;fill-rule:evenodd;stroke:none"
           sodipodi:type="arc" />
        <path
           sodipodi:type="arc"
           style="fill:#cccccc;fill-opacity:1;fill-rule:evenodd;stroke:none"
           id="path3790"
           sodipodi:cx="15.31592"
           sodipodi:cy="39.611073"
           sodipodi:rx="6.3159084"
           sodipodi:ry="6.3840275"
           d="m 21.631828,39.611073 c 0,3.525801 -2.827728,6.384027 -6.315908,6.384027 -3.48818,0 -6.3159086,-2.858226 -6.3159086,-6.384027 0,-3.525801 2.8277286,-6.384028 6.3159086,-6.384028 3.48818,0 6.315908,2.858227 6.315908,6.384028 z"
           transform="matrix(0.7970513,0,0,0.75881827,368.03917,506.90235)" />
      </g>
      <g
         transform="matrix(1.0659731,0,0,1.1196821,-9.546078,-61.083985)"
         id="g3796">
        <path
           sodipodi:type="arc"
           style="fill:#8c8c8c;fill-opacity:1;fill-rule:evenodd;stroke:none"
           id="path3798"
           sodipodi:cx="15.31592"
           sodipodi:cy="39.611073"
           sodipodi:rx="6.3159084"
           sodipodi:ry="6.3840275"
           d="m 21.631828,39.611073 c 0,3.525801 -2.827728,6.384027 -6.315908,6.384027 -3.48818,0 -6.3159086,-2.858226 -6.3159086,-6.384027 0,-3.525801 2.8277286,-6.384028 6.3159086,-6.384028 3.48818,0 6.315908,2.858227 6.315908,6.384028 z"
           transform="matrix(0.93810998,0,0,0.89311064,365.87873,501.58289)" />
        <path
           transform="matrix(0.7970513,0,0,0.75881827,368.03917,506.90235)"
           d="m 21.631828,39.611073 c 0,3.525801 -2.827728,6.384027 -6.315908,6.384027 -3.48818,0 -6.3159086,-2.858226 -6.3159086,-6.384027 0,-3.525801 2.8277286,-6.384028 6.3159086,-6.384028 3.48818,0 6.315908,2.858227 6.315908,6.384028 z"
           sodipodi:ry="6.3840275"
           sodipodi:rx="6.3159084"
           sodipodi:cy="39.611073"
           sodipodi:cx="15.31592"
           id="path3800"
           style="fill:#cccccc;fill-opacity:1;fill-rule:evenodd;stroke:none"
           sodipodi:type="arc" />
      </g>
    </g>
  </g>
</svg>
