<?xml version="1.0" encoding="UTF-8" standalone="no"?>
<!-- Created using Karbon, part of Calligra: http://www.calligra.org/karbon -->

<svg
   xmlns:dc="http://purl.org/dc/elements/1.1/"
   xmlns:cc="http://creativecommons.org/ns#"
   xmlns:rdf="http://www.w3.org/1999/02/22-rdf-syntax-ns#"
   xmlns:svg="http://www.w3.org/2000/svg"
   xmlns="http://www.w3.org/2000/svg"
   xmlns:xlink="http://www.w3.org/1999/xlink"
   xmlns:sodipodi="http://sodipodi.sourceforge.net/DTD/sodipodi-0.dtd"
   xmlns:inkscape="http://www.inkscape.org/namespaces/inkscape"
   width="38.4pt"
   height="38.4pt"
   id="svg2"
   version="1.1"
   inkscape:version="0.48.4 r9939"
   sodipodi:docname="align-horizontal-center.svg">
  <metadata
     id="metadata13">
    <rdf:RDF>
      <cc:Work
         rdf:about="">
        <dc:format>image/svg+xml</dc:format>
        <dc:type
           rdf:resource="http://purl.org/dc/dcmitype/StillImage" />
        <dc:title></dc:title>
      </cc:Work>
    </rdf:RDF>
  </metadata>
  <sodipodi:namedview
     pagecolor="#ffffff"
     bordercolor="#666666"
     borderopacity="1"
     objecttolerance="10"
     gridtolerance="10"
     guidetolerance="10"
     inkscape:pageopacity="0"
     inkscape:pageshadow="2"
     inkscape:window-width="711"
     inkscape:window-height="649"
     id="namedview11"
     showgrid="false"
     inkscape:zoom="9.8333329"
     inkscape:cx="-2.6026088"
     inkscape:cy="26.149359"
     inkscape:window-x="305"
     inkscape:window-y="30"
     inkscape:window-maximized="0"
     inkscape:current-layer="svg2">
    <sodipodi:guide
       position="9.5367432e-07,48.000001"
       orientation="47.999999,0"
       id="guide4071" />
    <sodipodi:guide
       position="9.5367432e-07,1.9073486e-06"
       orientation="0,47.999999"
       id="guide4073" />
    <sodipodi:guide
       position="48,1.9073486e-06"
       orientation="-47.999999,0"
       id="guide4075" />
    <sodipodi:guide
       position="48,48.000001"
       orientation="0,-47.999999"
       id="guide4077" />
    <sodipodi:guide
       position="9.000001,39.000001"
       orientation="29.999999,0"
       id="guide4079" />
    <sodipodi:guide
       position="9.000001,9.0000019"
       orientation="0,29.999999"
       id="guide4081" />
    <sodipodi:guide
       position="39,9.0000019"
       orientation="-29.999999,0"
       id="guide4083" />
    <sodipodi:guide
       position="39,39.000001"
       orientation="0,-29.999999"
       id="guide4085" />
  </sodipodi:namedview>
  <defs
     id="defs4">
    <linearGradient
       inkscape:collect="always"
       id="linearGradient3772">
      <stop
         style="stop-color:#000000;stop-opacity:1;"
         offset="0"
         id="stop3774" />
      <stop
         style="stop-color:#000000;stop-opacity:0;"
         offset="1"
         id="stop3776" />
    </linearGradient>
    <radialGradient
       inkscape:collect="always"
       xlink:href="#linearGradient3772"
       id="radialGradient3778"
       cx="26.504368"
       cy="27.826399"
       fx="26.504368"
       fy="27.826399"
       r="11.118112"
       gradientUnits="userSpaceOnUse"
       gradientTransform="matrix(1.0955365,-0.31554923,0.27677931,0.96093351,-10.233906,9.4505126)" />
  </defs>
  <rect
     style="color:#000000;fill:#d40000;fill-opacity:1;fill-rule:nonzero;stroke:none;stroke-width:1;marker:none;visibility:visible;display:inline;overflow:visible;enable-background:accumulate"
     id="rect2991"
     width="29.999998"
     height="30"
     x="9.000001"
     y="8.999999" />
  <path
     sodipodi:nodetypes="ccccccccccccccccccccccccccccccccc"
     inkscape:connector-curvature="0"
     id="path3780"
     d="m 11.276041,36.508474 1.015265,-2.675371 1.783577,-3.114407 -2.716535,-3.553442 2.881166,-2.675371 -2.826295,-3.553444 2.44213,-2.565612 -0.960393,-3.004648 -1.39943,-3.77296 2.908609,1.426865 3.347646,1.426865 3.128126,-2.85373 2.689091,2.524453 3.567162,-2.524453 3.128128,2.304935 3.78668,-1.536624 2.469573,-0.768311 -0.658554,2.551892 -1.646381,3.320205 2.304935,3.429963 -1.975658,2.990929 1.975658,3.210446 -1.8659,3.100687 1.317105,3.75924 0.548795,2.442134 -3.155567,-2.730253 -3.155566,2.757689 -3.375084,-2.620494 -2.936049,2.64793 -3.045808,-2.620494 -3.265325,2.647929 -2.716531,-2.620494 z"
     style="fill:#1a1a1a;stroke:none;opacity:0.35" />
  <path
     style="fill:#ffcc00;stroke:none"
     d="m 12.20339,35.59322 0.940674,-2.478813 1.652539,-2.885594 -2.516953,-3.292373 2.669488,-2.478813 -2.618648,-3.292374 2.262708,-2.377118 -0.889834,-2.783899 -1.296614,-3.495763 2.694915,1.322034 3.101696,1.322034 2.898305,-2.644068 2.491525,2.338983 3.305085,-2.338983 2.898306,2.135593 3.508475,-1.423729 2.288135,-0.711864 -0.61017,2.364406 -1.525423,3.076272 2.135593,3.177966 -1.830508,2.771187 1.830508,2.974576 -1.728813,2.872882 1.220338,3.483051 0.508475,2.262712 -2.923729,-2.529663 -2.923729,2.555083 -3.127119,-2.427968 -2.720339,2.453388 -2.822034,-2.427968 -3.025424,2.453388 -2.516949,-2.427968 z"
     id="path2995"
     inkscape:connector-curvature="0"
     sodipodi:nodetypes="ccccccccccccccccccccccccccccccccc" />
  <path
     sodipodi:type="star"
     style="color:#000000;fill:#d4aa00;fill-opacity:1;fill-rule:nonzero;stroke:none;stroke-width:1;marker:none;visibility:visible;display:inline;overflow:visible;enable-background:accumulate"
     id="path3768"
     sodipodi:sides="5"
     sodipodi:cx="25.932205"
     sodipodi:cy="27.254236"
     sodipodi:r1="11.835996"
     sodipodi:r2="5.5269747"
     sodipodi:arg1="-2.3561945"
     sodipodi:arg2="-1.727876"
     inkscape:flatsided="false"
     inkscape:rounded="0"
     inkscape:randomized="0"
     d="m 17.562892,18.884924 7.504704,2.910384 6.238039,-5.087021 -0.448859,8.036755 6.765704,4.360752 -7.782113,2.056603 -2.056604,7.782114 -4.360752,-6.765704 -8.036755,0.448859 5.087021,-6.238039 z"
     inkscape:transform-center-x="-0.5023605"
     transform="matrix(0.63646011,-0.32638314,0.32638314,0.63646011,-1.6028267,15.611924)" />
  <path
     transform="matrix(0.5520064,-0.28307443,0.28307443,0.5520064,1.7000264,16.684143)"
     inkscape:transform-center-x="-0.43570085"
     d="m 17.562892,18.884924 7.504704,2.910384 6.238039,-5.087021 -0.448859,8.036755 6.765704,4.360752 -7.782113,2.056603 -2.056604,7.782114 -4.360752,-6.765704 -8.036755,0.448859 5.087021,-6.238039 z"
     inkscape:randomized="0"
     inkscape:rounded="0"
     inkscape:flatsided="false"
     sodipodi:arg2="-1.727876"
     sodipodi:arg1="-2.3561945"
     sodipodi:r2="5.5269747"
     sodipodi:r1="11.835996"
     sodipodi:cy="27.254236"
     sodipodi:cx="25.932205"
     sodipodi:sides="5"
     id="path3770"
     style="color:#000000;fill:#ffcc00;fill-opacity:1;fill-rule:nonzero;stroke:url(#radialGradient3778);stroke-width:1;marker:none;visibility:visible;display:inline;overflow:visible;enable-background:accumulate"
     sodipodi:type="star" />
</svg>
