<?xml version="1.0" encoding="UTF-8" standalone="no"?>
<!-- Created using Karbon, part of Calligra: http://www.calligra.org/karbon -->

<svg
   xmlns:dc="http://purl.org/dc/elements/1.1/"
   xmlns:cc="http://creativecommons.org/ns#"
   xmlns:rdf="http://www.w3.org/1999/02/22-rdf-syntax-ns#"
   xmlns:svg="http://www.w3.org/2000/svg"
   xmlns="http://www.w3.org/2000/svg"
   xmlns:sodipodi="http://sodipodi.sourceforge.net/DTD/sodipodi-0.dtd"
   xmlns:inkscape="http://www.inkscape.org/namespaces/inkscape"
   width="38.4pt"
   height="38.4pt"
   id="svg2"
   version="1.1"
   inkscape:version="0.48.5 r10040"
   sodipodi:docname="object-order-back.svg">
  <metadata
     id="metadata14">
    <rdf:RDF>
      <cc:Work
         rdf:about="">
        <dc:format>image/svg+xml</dc:format>
        <dc:type
           rdf:resource="http://purl.org/dc/dcmitype/StillImage" />
      </cc:Work>
    </rdf:RDF>
  </metadata>
  <sodipodi:namedview
     pagecolor="#ffffff"
     bordercolor="#666666"
     borderopacity="1"
     objecttolerance="10"
     gridtolerance="10"
     guidetolerance="10"
     inkscape:pageopacity="0"
     inkscape:pageshadow="2"
     inkscape:window-width="1280"
     inkscape:window-height="670"
     id="namedview12"
     showgrid="false"
     inkscape:zoom="9.8333333"
     inkscape:cx="27.966102"
     inkscape:cy="18.905822"
     inkscape:window-x="-2"
     inkscape:window-y="-3"
     inkscape:window-maximized="1"
     inkscape:current-layer="svg2" />
  <defs
     id="defs4" />
  <g
     id="layer1">
    <rect
       id="rect3270"
       transform="translate(9, 8.99999)"
       fill="none"
       width="24.00000000000pt"
       height="24.00002480000pt" />
    <path
       id="rect3278"
       transform="matrix(5.34295e-16 1 -1 5.34295e-16 26.7241 8.98071)"
       fill="#4d4d4d"
       fill-rule="evenodd"
       d="M0 0L0 17.7241L17.7291 17.7241L17.7291 2.42025L13.7291 2.42025L13.7291 13.7241L4 13.7241L4 4L14.1079 4L14.1079 0Z"
       style="fill:#8c8c8c;fill-opacity:1" />
    <path
       id="rect32781"
       transform="translate(20.5594, 20.5702)"
       fill="#4d4d4d"
       fill-rule="evenodd"
       d="M18.4134 0L0 0L0 18.4347L14.2558 18.4526L14.2634 14.3057L4.1556 14.2755L4.1556 4.15918L14.2579 4.15918L14.2579 18.4602L18.4134 18.4602Z"
       style="fill:#8c8c8c;fill-opacity:1" />
    <rect
       id="rect3320"
       transform="matrix(0 1 1 0 27.5531 14.7358)"
       fill="#4d4d4d"
       width="4.15830150333pt"
       height="4.11423618752pt"
       style="fill:#8c8c8c;fill-opacity:1" />
    <rect
       id="rect33201"
       transform="matrix(1.11022e-16 -1 -1 -1.11022e-16 19.5873 32.6955)"
       fill="#4d4d4d"
       width="4.02155262375pt"
       height="3.82939785080pt"
       style="fill:#8c8c8c;fill-opacity:1" />
  </g>
</svg>
