<?xml version="1.0" encoding="UTF-8" standalone="no"?>
<!-- Created with Inkscape (http://www.inkscape.org/) -->

<svg
   xmlns:dc="http://purl.org/dc/elements/1.1/"
   xmlns:cc="http://creativecommons.org/ns#"
   xmlns:rdf="http://www.w3.org/1999/02/22-rdf-syntax-ns#"
   xmlns:svg="http://www.w3.org/2000/svg"
   xmlns="http://www.w3.org/2000/svg"
   xmlns:xlink="http://www.w3.org/1999/xlink"
   xmlns:sodipodi="http://sodipodi.sourceforge.net/DTD/sodipodi-0.dtd"
   xmlns:inkscape="http://www.inkscape.org/namespaces/inkscape"
   width="48"
   height="48"
   id="svg2"
   version="1.1"
   inkscape:version="0.48.5 r10040"
   sodipodi:docname="resizeimages.svg">
  <defs
     id="defs4">
    <linearGradient
       inkscape:collect="always"
       xlink:href="#linearGradient3637"
       id="linearGradient3073"
       gradientUnits="userSpaceOnUse"
       gradientTransform="matrix(3,0,0,3,-75.822222,17.822222)"
       x1="9.1734705"
       y1="-0.66666669"
       x2="9.1734705"
       y2="18.002266" />
    <linearGradient
       id="linearGradient3637">
      <stop
         id="stop3639"
         style="stop-color:#f0f0f0;stop-opacity:1"
         offset="0" />
      <stop
         id="stop3641"
         style="stop-color:#aaaaaa;stop-opacity:1"
         offset="1" />
    </linearGradient>
  </defs>
  <sodipodi:namedview
     id="base"
     pagecolor="#ffffff"
     bordercolor="#666666"
     borderopacity="1.0"
     inkscape:pageopacity="0.0"
     inkscape:pageshadow="2"
     inkscape:zoom="4.9834517"
     inkscape:cx="4.8236574"
     inkscape:cy="31.072069"
     inkscape:document-units="px"
     inkscape:current-layer="layer1"
     showgrid="false"
     showguides="true"
     inkscape:window-width="1280"
     inkscape:window-height="670"
     inkscape:window-x="-2"
     inkscape:window-y="-3"
     inkscape:window-maximized="1">
    <sodipodi:guide
       position="9,39.000017"
       orientation="30,0"
       id="guide3267" />
    <sodipodi:guide
       position="9,9.0000174"
       orientation="0,30"
       id="guide3269" />
    <sodipodi:guide
       position="39,9.0000174"
       orientation="-30,0"
       id="guide3271" />
    <sodipodi:guide
       position="39,39.000017"
       orientation="0,-30"
       id="guide3273" />
    <sodipodi:guide
       position="28,21.999529"
       orientation="13,0"
       id="guide4255" />
    <sodipodi:guide
       position="28,8.9995291"
       orientation="0,11"
       id="guide4257" />
    <sodipodi:guide
       position="39,8.9995291"
       orientation="-13,0"
       id="guide4259" />
    <sodipodi:guide
       position="39,21.999529"
       orientation="0,-11"
       id="guide4261" />
    <sodipodi:guide
       position="9,39.000017"
       orientation="13,0"
       id="guide4291" />
    <sodipodi:guide
       position="9,26.000017"
       orientation="0,19.000002"
       id="guide4293" />
    <sodipodi:guide
       position="28.000002,26.000017"
       orientation="-13,0"
       id="guide4295" />
    <sodipodi:guide
       position="28.000002,39.000017"
       orientation="0,-19.000002"
       id="guide4297" />
  </sodipodi:namedview>
  <metadata
     id="metadata7">
    <rdf:RDF>
      <cc:Work
         rdf:about="">
        <dc:format>image/svg+xml</dc:format>
        <dc:type
           rdf:resource="http://purl.org/dc/dcmitype/StillImage" />
        <dc:title />
      </cc:Work>
    </rdf:RDF>
  </metadata>
  <g
     inkscape:label="Capa 1"
     inkscape:groupmode="layer"
     id="layer1"
     transform="translate(0,-1004.3622)">
    <path
       style="font-size:8.99714469999999800px;font-style:normal;font-variant:normal;font-weight:bold;font-stretch:normal;text-align:start;line-height:125%;writing-mode:lr-tb;text-anchor:start;fill:#8c8c8c;fill-opacity:1;stroke:none;display:inline;font-family:Sans;-inkscape-font-specification:Abandoned Bitplane Bold"
       id="path3648"
       inkscape:connector-curvature="0"
       d="m 23.859113,1013.3418 c -0.60953,0 -1.103101,0.4736 -1.103101,1.0577 l 0,10.5371 c 0,0.584 0.493571,1.0576 1.103101,1.0576 l 13.930594,0 c 0.60953,0 1.103101,-0.4736 1.103101,-1.0576 l 0,-10.5371 c 0,-0.5841 -0.493571,-1.0577 -1.103101,-1.0577 z m 10.631796,2.1054 c 0.810192,0 1.470801,0.6371 1.470801,1.4135 0,0.7765 -0.66061,1.4037 -1.470801,1.4037 -0.810193,0 -1.470802,-0.6272 -1.470802,-1.4037 0,-0.7764 0.660609,-1.4135 1.470802,-1.4135 z m -5.137301,2.8172 3.666499,3.163 1.103101,-1.0576 3.298799,2.4613 0,1.7594 -13.195193,0 0,-3.1631 1.827997,-2.1153 1.470801,1.0577 z"
       sodipodi:nodetypes="sssssssssssssscccccccccc" />
    <path
       sodipodi:nodetypes="sssssssssssssscccccccccc"
       d="m 10.321212,1024.7797 c -0.7933053,0 -1.4356883,0.6989 -1.4356883,1.561 l 0,15.5506 c 0,0.8619 0.642383,1.5608 1.4356883,1.5608 l 18.130686,0 c 0.793305,0 1.435688,-0.6989 1.435688,-1.5608 l 0,-15.5506 c 0,-0.8621 -0.642383,-1.561 -1.435688,-1.561 z m 13.837296,3.1072 c 1.054467,0 1.91425,0.9403 1.91425,2.086 0,1.146 -0.859785,2.0716 -1.91425,2.0716 -1.054467,0 -1.91425,-0.9256 -1.91425,-2.0716 0,-1.1457 0.859783,-2.086 1.91425,-2.086 z m -6.686204,4.1576 4.771954,4.668 1.435688,-1.5608 4.29339,3.6323 0,2.5964 -17.173561,0 0,-4.6679 2.37914,-3.1218 1.914249,1.561 z"
       inkscape:connector-curvature="0"
       id="path3034"
       style="font-size:8.99714469999999800px;font-style:normal;font-variant:normal;font-weight:bold;font-stretch:normal;text-align:start;line-height:125%;writing-mode:lr-tb;text-anchor:start;fill:#8c8c8c;fill-opacity:1;stroke:none;display:inline;font-family:Sans;-inkscape-font-specification:Abandoned Bitplane Bold" />
  </g>
</svg>
