<?xml version="1.0" encoding="UTF-8" standalone="no"?>
<!-- Created with Inkscape (http://www.inkscape.org/) -->

<svg
   xmlns:dc="http://purl.org/dc/elements/1.1/"
   xmlns:cc="http://creativecommons.org/ns#"
   xmlns:rdf="http://www.w3.org/1999/02/22-rdf-syntax-ns#"
   xmlns:svg="http://www.w3.org/2000/svg"
   xmlns="http://www.w3.org/2000/svg"
   xmlns:sodipodi="http://sodipodi.sourceforge.net/DTD/sodipodi-0.dtd"
   xmlns:inkscape="http://www.inkscape.org/namespaces/inkscape"
   width="48"
   height="48"
   id="svg3381"
   version="1.1"
   inkscape:version="0.48.5 r10040"
   sodipodi:docname="continue-data-project.svg">
  <defs
     id="defs3383" />
  <sodipodi:namedview
     id="base"
     pagecolor="#ffffff"
     bordercolor="#666666"
     borderopacity="1.0"
     inkscape:pageopacity="0.0"
     inkscape:pageshadow="2"
     inkscape:zoom="11.313708"
     inkscape:cx="36.868193"
     inkscape:cy="20.886986"
     inkscape:document-units="px"
     inkscape:current-layer="layer1"
     showgrid="false"
     fit-margin-top="0"
     fit-margin-left="0"
     fit-margin-right="0"
     fit-margin-bottom="0"
     inkscape:window-width="1280"
     inkscape:window-height="670"
     inkscape:window-x="-2"
     inkscape:window-y="-3"
     inkscape:window-maximized="1">
    <sodipodi:guide
       position="9.0000117,39.000009"
       orientation="30.000031,0"
       id="guide3264" />
    <sodipodi:guide
       position="9.0000117,8.9999785"
       orientation="0,30"
       id="guide3266" />
    <sodipodi:guide
       position="39.000012,34.58801"
       orientation="-30.000031,0"
       id="guide3268" />
    <sodipodi:guide
       position="39.000012,39.000009"
       orientation="0,-30"
       id="guide3270" />
    <sodipodi:guide
       position="9.0000117,19.999979"
       orientation="11,0"
       id="guide3276" />
    <sodipodi:guide
       position="24.000012,39.000009"
       orientation="15.000031,0"
       id="guide3311" />
    <sodipodi:guide
       position="24.000012,23.999979"
       orientation="0,15"
       id="guide3313" />
    <sodipodi:guide
       position="39.000012,39.000009"
       orientation="0,-15"
       id="guide3317" />
  </sodipodi:namedview>
  <metadata
     id="metadata3386">
    <rdf:RDF>
      <cc:Work
         rdf:about="">
        <dc:format>image/svg+xml</dc:format>
        <dc:type
           rdf:resource="http://purl.org/dc/dcmitype/StillImage" />
        <dc:title />
      </cc:Work>
    </rdf:RDF>
  </metadata>
  <g
     inkscape:label="Capa 1"
     inkscape:groupmode="layer"
     id="layer1"
     transform="translate(-364.57143,-499.79075)">
    <path
       sodipodi:type="arc"
       style="fill:none;stroke:#8c8c8c;stroke-width:1.00485932999999994;stroke-opacity:1"
       id="path2991"
       sodipodi:cx="25.068472"
       sodipodi:cy="23.914175"
       sodipodi:rx="16.06846"
       sodipodi:ry="14.914184"
       d="m 41.136932,23.914175 c 0,8.236876 -7.194094,14.914184 -16.06846,14.914184 -8.874366,0 -16.0684606,-6.677308 -16.0684606,-14.914184 0,-8.236876 7.1940946,-14.9141836 16.0684606,-14.9141836 8.874366,0 16.06846,6.6773076 16.06846,14.9141836 z"
       transform="matrix(0.93221231,0,0,0.99516351,365.25431,499.90641)" />
    <path
       style="fill:#cccccc;fill-opacity:1;fill-rule:evenodd;stroke:none"
       d="M 24.0625 9.78125 C 16.192912 9.78125 9.8125 16.108714 9.8125 23.90625 C 9.8125 31.703786 16.192912 38.03125 24.0625 38.03125 C 31.932088 38.03125 38.3125 31.703786 38.3125 23.90625 C 38.3125 16.108714 31.932088 9.78125 24.0625 9.78125 z M 24.0625 21.125 C 25.622804 21.125 26.875 22.360231 26.875 23.90625 C 26.875 25.452269 25.622804 26.71875 24.0625 26.71875 C 22.502196 26.71875 21.21875 25.452269 21.21875 23.90625 C 21.21875 22.360231 22.502196 21.125 24.0625 21.125 z "
       transform="translate(364.57143,499.79075)"
       id="path2994" />
    <path
       style="fill:#8c8c8c;fill-opacity:1;fill-rule:evenodd;stroke:none"
       d="M 24.0625 19.96875 C 21.86173 19.96875 20.0625 21.725629 20.0625 23.90625 C 20.0625 26.086871 21.86173 27.875 24.0625 27.875 C 26.26327 27.875 28.03125 26.086871 28.03125 23.90625 C 28.03125 21.725629 26.26327 19.96875 24.0625 19.96875 z M 24.0625 21.125 C 25.622804 21.125 26.875 22.360231 26.875 23.90625 C 26.875 25.452269 25.622804 26.71875 24.0625 26.71875 C 22.502196 26.71875 21.21875 25.452269 21.21875 23.90625 C 21.21875 22.360231 22.502196 21.125 24.0625 21.125 z "
       transform="translate(364.57143,499.79075)"
       id="path2992" />
    <path
       style="fill:#8c8c8c;fill-opacity:1;fill-rule:evenodd;stroke:none"
       d="m 393.66987,528.24944 c -2.22924,1.8272 -2.60489,4.87558 -1.17361,7.5218 -0.17299,-1.9223 0.48257,-3.77337 2.03381,-5.04483 2.90711,-2.3828 7.77199,-1.80845 10.86633,1.27592 0.2299,0.22916 0.44668,0.45331 0.64406,0.69596 -0.34222,-1.16329 -1.01541,-2.30777 -2.00876,-3.29792 -2.92965,-2.92023 -7.57078,-3.43859 -10.36183,-1.15093 z"
       id="path2996"
       inkscape:connector-curvature="0" />
    <path
       sodipodi:type="star"
       style="fill:#8c8c8c;fill-opacity:1;fill-rule:evenodd;stroke:none"
       id="path3769"
       sodipodi:sides="3"
       sodipodi:cx="-6.0104079"
       sodipodi:cy="27.493902"
       sodipodi:r1="5.4270735"
       sodipodi:r2="2.7135367"
       sodipodi:arg1="2.6123459"
       sodipodi:arg2="3.6595434"
       inkscape:flatsided="false"
       inkscape:rounded="0"
       inkscape:randomized="0"
       d="m -10.694991,30.233941 2.3269658,-4.083513 2.3269654,-4.083513 2.3729431,4.056968 2.3729432,4.056967 -4.6999084,0.02655 z"
       transform="matrix(0.99999893,-0.00146218,0.00146218,0.99999893,411.55382,504.02463)"
       inkscape:transform-center-x="-0.019291053"
       inkscape:transform-center-y="-1.3400265" />
  </g>
</svg>
