<?xml version="1.0" encoding="UTF-8" standalone="no"?>
<!-- Created with Inkscape (http://www.inkscape.org/) -->

<svg
   xmlns:dc="http://purl.org/dc/elements/1.1/"
   xmlns:cc="http://creativecommons.org/ns#"
   xmlns:rdf="http://www.w3.org/1999/02/22-rdf-syntax-ns#"
   xmlns:svg="http://www.w3.org/2000/svg"
   xmlns="http://www.w3.org/2000/svg"
   xmlns:sodipodi="http://sodipodi.sourceforge.net/DTD/sodipodi-0.dtd"
   xmlns:inkscape="http://www.inkscape.org/namespaces/inkscape"
   width="48"
   height="48"
   id="svg3404"
   version="1.1"
   inkscape:version="0.48.5 r10040"
   sodipodi:docname="document-print.svg">
  <defs
     id="defs3406" />
  <sodipodi:namedview
     id="base"
     pagecolor="#ffffff"
     bordercolor="#666666"
     borderopacity="1.0"
     inkscape:pageopacity="0.0"
     inkscape:pageshadow="2"
     inkscape:zoom="6.9871193"
     inkscape:cx="14.781636"
     inkscape:cy="35.438437"
     inkscape:document-units="px"
     inkscape:current-layer="layer1"
     showgrid="false"
     fit-margin-top="0"
     fit-margin-left="0"
     fit-margin-right="0"
     fit-margin-bottom="0"
     inkscape:window-width="1280"
     inkscape:window-height="670"
     inkscape:window-x="-2"
     inkscape:window-y="-3"
     inkscape:window-maximized="1"
     showguides="true">
    <sodipodi:guide
       position="9.0000117,38.999986"
       orientation="30,0"
       id="guide3264" />
    <sodipodi:guide
       position="9.0000117,8.9999857"
       orientation="0,30"
       id="guide3266" />
    <sodipodi:guide
       position="39.000012,8.9999857"
       orientation="-30,0"
       id="guide3268" />
    <sodipodi:guide
       position="51.66199,39.076531"
       orientation="0,-30"
       id="guide3270" />
  </sodipodi:namedview>
  <metadata
     id="metadata3409">
    <rdf:RDF>
      <cc:Work
         rdf:about="">
        <dc:format>image/svg+xml</dc:format>
        <dc:type
           rdf:resource="http://purl.org/dc/dcmitype/StillImage" />
        <dc:title />
      </cc:Work>
    </rdf:RDF>
  </metadata>
  <g
     inkscape:label="Capa 1"
     inkscape:groupmode="layer"
     id="layer1"
     transform="translate(-384.57143,-456.93361)">
    <path
       sodipodi:nodetypes="sscsssscsssscssssccssssssccccsssssssssssscccsssscc"
       inkscape:connector-curvature="0"
       style="fill:#8c8c8c;fill-opacity:1;stroke:none;display:inline"
       id="path3738-0"
       d="m 399.4529,465.94339 c -1.37773,0 -2.48688,1.11428 -2.48688,2.49837 l 0,9.16069 -0.82895,0 c -1.37774,0 -2.48688,1.11428 -2.48688,2.49836 l 0,8.32792 c 0,1.38409 1.10914,2.49835 2.48688,2.49835 l 0.82895,0 0,2.49838 c 0,1.3841 1.10915,2.49837 2.48688,2.49837 l 18.23706,0 c 1.37773,0 2.48688,-1.11427 2.48688,-2.49837 l 0,-2.49838 0.82895,0 c 1.37774,0 2.48688,-1.11426 2.48688,-2.49835 l 0,-8.32792 c 0,-1.38408 -1.10914,-2.49836 -2.48688,-2.49836 l -0.77714,0 -0.0518,0 0,-9.16069 c 0,-1.38409 -1.10914,-2.49837 -2.48686,-2.49837 z m 0.5871,1.58999 16.75054,0 c 1.89468,0 1.89468,0 1.89468,1.58463 l 0,8.29599 0,1.89706 -20.25828,0 0,-1.99128 0,-8.23176 c 0,-1.55464 0,-1.55464 1.61306,-1.55464 z m 15.99205,15.06581 c 0.45759,0 0.82896,0.3731 0.82896,0.83279 0,0.45969 -0.37137,0.8328 -0.82896,0.8328 -0.45759,0 -0.82897,-0.37311 -0.82897,-0.8328 0,-0.45969 0.37138,-0.83279 0.82897,-0.83279 z m 3.31583,0 c 0.45759,0 0.82896,0.3731 0.82896,0.83279 0,0.45969 -0.37137,0.8328 -0.82896,0.8328 -0.45758,0 -0.82895,-0.37311 -0.82895,-0.8328 0,-0.45969 0.37136,-0.83279 0.82895,-0.83279 z m -20.92094,6.66072 20.25828,0 0,2.35119 0,1.84703 c 0,0.84936 0,0.84936 -0.97781,0.84936 l -18.24962,0 c -1.03085,0 -1.03085,0 -1.03085,-0.92011 l 0,-2.29519 z" />
  </g>
</svg>
