<?xml version="1.0" encoding="UTF-8" standalone="no"?>
<!-- Created with Inkscape (http://www.inkscape.org/) -->

<svg
   xmlns:dc="http://purl.org/dc/elements/1.1/"
   xmlns:cc="http://creativecommons.org/ns#"
   xmlns:rdf="http://www.w3.org/1999/02/22-rdf-syntax-ns#"
   xmlns:svg="http://www.w3.org/2000/svg"
   xmlns="http://www.w3.org/2000/svg"
   xmlns:sodipodi="http://sodipodi.sourceforge.net/DTD/sodipodi-0.dtd"
   xmlns:inkscape="http://www.inkscape.org/namespaces/inkscape"
   width="48"
   height="48"
   id="svg3760"
   version="1.1"
   inkscape:version="0.48.5 r10040"
   sodipodi:docname="download-later.svg">
  <defs
     id="defs3762" />
  <sodipodi:namedview
     id="base"
     pagecolor="#ffffff"
     bordercolor="#666666"
     borderopacity="1.0"
     inkscape:pageopacity="0.0"
     inkscape:pageshadow="2"
     inkscape:zoom="11.52699"
     inkscape:cx="34.110619"
     inkscape:cy="22.47433"
     inkscape:document-units="px"
     inkscape:current-layer="layer1"
     showgrid="false"
     fit-margin-top="0"
     fit-margin-left="0"
     fit-margin-right="0"
     fit-margin-bottom="0"
     inkscape:window-width="1280"
     inkscape:window-height="670"
     inkscape:window-x="-2"
     inkscape:window-y="-3"
     inkscape:window-maximized="1"
     showguides="false">
    <sodipodi:guide
       position="8.9999856,39.000012"
       orientation="30,0"
       id="guide3280" />
    <sodipodi:guide
       position="8.9999856,9.0000118"
       orientation="0,30"
       id="guide3282" />
    <sodipodi:guide
       position="38.999986,9.0000118"
       orientation="-30,0"
       id="guide3284" />
    <sodipodi:guide
       position="38.999986,39.000012"
       orientation="0,-30"
       id="guide3286" />
  </sodipodi:namedview>
  <metadata
     id="metadata3765">
    <rdf:RDF>
      <cc:Work
         rdf:about="">
        <dc:format>image/svg+xml</dc:format>
        <dc:type
           rdf:resource="http://purl.org/dc/dcmitype/StillImage" />
        <dc:title />
      </cc:Work>
    </rdf:RDF>
  </metadata>
  <g
     inkscape:label="Capa 1"
     inkscape:groupmode="layer"
     id="layer1"
     transform="translate(-550.28572,-582.6479)">
    <path
       style="fill:#8c8c8c;fill-opacity:1;fill-rule:evenodd;stroke:none"
       d="m 574.27791,591.6479 c -3.92727,2.3e-4 -7.82858,1.61575 -10.60352,4.39258 -2.77494,2.77683 -4.38867,6.68075 -4.38867,10.60742 0,3.92667 1.61373,7.82864 4.38867,10.60547 2.77494,2.77683 6.67625,4.3943 10.60352,4.39453 3.92726,2.3e-4 7.83284,-1.61769 10.61133,-4.39453 2.77848,-2.77684 4.39648,-6.67836 4.39648,-10.60547 0,-3.92711 -1.618,-7.83058 -4.39648,-10.60742 -2.77849,-2.77685 -6.68407,-4.39281 -10.61133,-4.39258 z m 0.002,4 c 2.87999,-1.7e-4 5.7437,1.18435 7.78125,3.2207 2.03755,2.03636 3.22461,4.89942 3.22461,7.7793 0,2.87988 -1.18706,5.74099 -3.22461,7.77734 -2.03755,2.03636 -4.90126,3.22283 -7.78125,3.22266 -2.87999,-1.7e-4 -5.74043,-1.18631 -7.77539,-3.22266 -2.03496,-2.03634 -3.21875,-4.89778 -3.21875,-7.77734 0,-2.87956 1.18379,-5.741 3.21875,-7.77734 2.03496,-2.03635 4.8954,-3.22249 7.77539,-3.22266 z"
       id="path3272"
       inkscape:connector-curvature="0" />
    <rect
       style="fill:#8c8c8c;fill-opacity:1;fill-rule:evenodd;stroke:none"
       id="rect2988"
       width="2.6025875"
       height="9.5428209"
       x="22.382252"
       y="15.554409"
       transform="translate(550.28572,582.6479)" />
    <rect
       style="fill:#8c8c8c;fill-opacity:1;fill-rule:evenodd;stroke:none"
       id="rect2990"
       width="8.1547737"
       height="2.7760932"
       x="23.076275"
       y="23.188665"
       transform="translate(550.28572,582.6479)" />
    <rect
       style="fill:#8c8c8c;fill-opacity:1;fill-rule:evenodd;stroke:none"
       id="rect2992"
       width="2.6025875"
       height="9.7163267"
       x="40.079849"
       y="22.321136"
       transform="translate(550.28572,582.6479)" />
    <path
       sodipodi:type="star"
       style="fill:#8c8c8c;fill-opacity:1;fill-rule:evenodd;stroke:none"
       id="path2994"
       sodipodi:sides="3"
       sodipodi:cx="39.385822"
       sodipodi:cy="40.886261"
       sodipodi:r1="4.8208399"
       sodipodi:r2="2.4104204"
       sodipodi:arg1="-0.52807445"
       sodipodi:arg2="0.5191231"
       inkscape:flatsided="false"
       inkscape:rounded="0"
       inkscape:randomized="0"
       d="m 43.549962,38.457179 -2.071281,3.624937 -2.071282,3.624937 -2.103647,-3.606251 -2.103646,-3.606251 4.174928,-0.01869 z"
       transform="translate(552.5413,575.01364)"
       inkscape:transform-center-x="0.010788216"
       inkscape:transform-center-y="1.1958551" />
  </g>
</svg>
