<?xml version="1.0" encoding="UTF-8" standalone="no"?>
<!-- Created with Inkscape (http://www.inkscape.org/) -->

<svg
   xmlns:dc="http://purl.org/dc/elements/1.1/"
   xmlns:cc="http://creativecommons.org/ns#"
   xmlns:rdf="http://www.w3.org/1999/02/22-rdf-syntax-ns#"
   xmlns:svg="http://www.w3.org/2000/svg"
   xmlns="http://www.w3.org/2000/svg"
   version="1.1"
   width="48"
   height="48"
   id="svg3381">
  <defs
     id="defs3383" />
  <metadata
     id="metadata3386">
    <rdf:RDF>
      <cc:Work
         rdf:about="">
        <dc:format>image/svg+xml</dc:format>
        <dc:type
           rdf:resource="http://purl.org/dc/dcmitype/StillImage" />
        <dc:title></dc:title>
      </cc:Work>
    </rdf:RDF>
  </metadata>
  <g
     transform="translate(-364.57143,-499.79075)"
     id="layer1">
    <path
       d="m 41.136932,23.914175 a 16.06846,14.914184 0 1 1 -32.1369206,0 16.06846,14.914184 0 1 1 32.1369206,0 z"
       transform="matrix(0.93674154,0,0,1,365.14076,499.79075)"
       id="path2991"
       style="fill:#d40000;fill-opacity:1;fill-rule:evenodd;stroke:none" />
    <path
       d="m 41.136932,23.914175 a 16.06846,14.914184 0 1 1 -32.1369206,0 16.06846,14.914184 0 1 1 32.1369206,0 z"
       transform="matrix(0.93674154,0,0,1,365.14076,499.79075)"
       id="path3013"
       style="fill:#ffcc00;fill-opacity:1;fill-rule:evenodd;stroke:none" />
    <path
       d="m 21.195154,21.078135 a 2.9843752,2.9218862 0 1 1 -5.96875,0 2.9843752,2.9218862 0 1 1 5.96875,0 z"
       transform="translate(364.57143,499.79075)"
       id="path4085"
       style="fill:#1a1a1a;fill-opacity:1;fill-rule:evenodd;stroke:none" />
    <path
       d="m 21.195154,21.078135 a 2.9843752,2.9218862 0 1 1 -5.96875,0 2.9843752,2.9218862 0 1 1 5.96875,0 z"
       transform="translate(376.50893,499.91256)"
       id="path4087"
       style="fill:#1a1a1a;fill-opacity:1;fill-rule:evenodd;stroke:none" />
    <path
       d="m 380.28699,528.98845 c 1.68922,2.93221 4.81181,4.90625 8.40625,4.90625 3.581,0 6.6813,-1.96094 8.375,-4.875 -2.39401,1.30576 -5.2684,2.0625 -8.375,2.0625 -3.12309,0 -6.00479,-0.77527 -8.40625,-2.09375 z"
       id="path4089"
       style="fill:#1a1a1a;fill-opacity:1;fill-rule:evenodd;stroke:none" />
  </g>
</svg>
