<?xml version="1.0" encoding="UTF-8" standalone="no"?>
<!-- Created using Karbon, part of Calligra: http://www.calligra.org/karbon -->

<svg
   xmlns:dc="http://purl.org/dc/elements/1.1/"
   xmlns:cc="http://creativecommons.org/ns#"
   xmlns:rdf="http://www.w3.org/1999/02/22-rdf-syntax-ns#"
   xmlns:svg="http://www.w3.org/2000/svg"
   xmlns="http://www.w3.org/2000/svg"
   xmlns:xlink="http://www.w3.org/1999/xlink"
   xmlns:sodipodi="http://sodipodi.sourceforge.net/DTD/sodipodi-0.dtd"
   xmlns:inkscape="http://www.inkscape.org/namespaces/inkscape"
   width="38.4pt"
   height="38.4pt"
   id="svg2"
   version="1.1"
   inkscape:version="0.48.5 r10040"
   sodipodi:docname="im-invisible-user.svg">
  <metadata
     id="metadata13">
    <rdf:RDF>
      <cc:Work
         rdf:about="">
        <dc:format>image/svg+xml</dc:format>
        <dc:type
           rdf:resource="http://purl.org/dc/dcmitype/StillImage" />
        <dc:title />
      </cc:Work>
    </rdf:RDF>
  </metadata>
  <sodipodi:namedview
     pagecolor="#ffffff"
     bordercolor="#666666"
     borderopacity="1"
     objecttolerance="10"
     gridtolerance="10"
     guidetolerance="10"
     inkscape:pageopacity="0"
     inkscape:pageshadow="2"
     inkscape:window-width="1280"
     inkscape:window-height="670"
     id="namedview11"
     showgrid="false"
     inkscape:zoom="12.279475"
     inkscape:cx="30.447604"
     inkscape:cy="25.103294"
     inkscape:window-x="-2"
     inkscape:window-y="-3"
     inkscape:window-maximized="1"
     inkscape:current-layer="svg2">
    <sodipodi:guide
       position="9.5367432e-07,48.000001"
       orientation="47.999999,0"
       id="guide4071" />
    <sodipodi:guide
       position="9.5367432e-07,1.9073486e-06"
       orientation="0,47.999999"
       id="guide4073" />
    <sodipodi:guide
       position="48,1.9073486e-06"
       orientation="-47.999999,0"
       id="guide4075" />
    <sodipodi:guide
       position="48,48.000001"
       orientation="0,-47.999999"
       id="guide4077" />
    <sodipodi:guide
       position="9.000001,39.000001"
       orientation="29.999999,0"
       id="guide4079" />
    <sodipodi:guide
       position="9.000001,9.0000019"
       orientation="0,29.999999"
       id="guide4081" />
    <sodipodi:guide
       position="39,9.0000019"
       orientation="-29.999999,0"
       id="guide4083" />
    <sodipodi:guide
       position="39,39.000001"
       orientation="0,-29.999999"
       id="guide4085" />
  </sodipodi:namedview>
  <defs
     id="defs4">
    <linearGradient
       id="linearGradient3791">
      <stop
         style="stop-color:#999999;stop-opacity:1;"
         offset="0"
         id="stop3793" />
      <stop
         style="stop-color:#999999;stop-opacity:1;"
         offset="1"
         id="stop3795" />
    </linearGradient>
    <clipPath
       id="clipPath4211">
      <path
         d="m -28,6 c -3.324,0 -6,2.676 -6,6 l 0,0.53125 0,70.9375 L -34,84 c 0,3.324 2.676,6 6,6 l 0.53125,0 7.46875,0 30.96875,0 c 0,0 0.24654,-18.83702 0,-21.78125 C 10.48249,62.41176 -3.33105,29.39342 -10.5,6 L -20,6 -27.46875,6 -28,6 z"
         inkscape:connector-curvature="0"
         id="path4213"
         style="fill:url(#linearGradient4215);fill-opacity:1;stroke:none;display:inline" />
    </clipPath>
    <linearGradient
       inkscape:collect="always"
       xlink:href="#linearGradient3117"
       id="linearGradient3115"
       gradientUnits="userSpaceOnUse"
       gradientTransform="matrix(-0.71186441,0,0,0.71186441,93.55932,2.4406779)"
       x1="85.216583"
       y1="44.724644"
       x2="95.671806"
       y2="23.497499" />
    <linearGradient
       id="linearGradient3117">
      <stop
         offset="0"
         style="stop-color:#767372;stop-opacity:1"
         id="stop3119" />
      <stop
         offset="1"
         style="stop-color:#767372;stop-opacity:1"
         id="stop3121" />
    </linearGradient>
    <clipPath
       id="clipPath3131">
      <path
         d="m -28,6 c -3.324,0 -6,2.676 -6,6 l 0,0.53125 0,70.9375 L -34,84 c 0,3.324 2.676,6 6,6 l 0.53125,0 7.46875,0 30.96875,0 c 0,0 0.24654,-18.83702 0,-21.78125 C 10.48249,62.41176 -3.33105,29.39342 -10.5,6 L -20,6 -27.46875,6 -28,6 z"
         inkscape:connector-curvature="0"
         id="path3133"
         style="fill:url(#linearGradient4215);fill-opacity:1;stroke:none;display:inline" />
    </clipPath>
    <linearGradient
       x1="58.650177"
       y1="122"
       x2="58.650177"
       y2="5.4252338"
       id="linearGradient5172"
       xlink:href="#linearGradient5095"
       gradientUnits="userSpaceOnUse"
       gradientTransform="matrix(0.79888068,0,0,0.79888068,-2.8215905,1.206716)" />
    <linearGradient
       x1="58.650177"
       y1="122"
       x2="58.650177"
       y2="5.4252338"
       id="linearGradient5095"
       xlink:href="#linearGradient5059"
       gradientUnits="userSpaceOnUse"
       gradientTransform="matrix(1.0172414,0,0,1.0172414,-1.1034483,-1.1034483)"
       spreadMethod="pad">
      <stop
         id="stop5097"
         style="stop-color:#dcdcdc;stop-opacity:1"
         offset="0" />
      <stop
         id="stop5099"
         style="stop-color:#f5f5f5;stop-opacity:1"
         offset="0.89612097" />
      <stop
         id="stop5101"
         style="stop-color:#8d8d8d;stop-opacity:1"
         offset="1" />
    </linearGradient>
    <linearGradient
       x1="58.650177"
       y1="122"
       x2="58.650177"
       y2="5.4252338"
       id="linearGradient5059"
       xlink:href="#linearGradient5051"
       gradientUnits="userSpaceOnUse"
       gradientTransform="matrix(1.0172414,0,0,1.0172414,-1.1034483,-1.1034483)"
       spreadMethod="pad">
      <stop
         id="stop5061"
         style="stop-color:#dcdcdc;stop-opacity:1"
         offset="0" />
      <stop
         id="stop5065"
         style="stop-color:#e4e4e4;stop-opacity:1"
         offset="0.40241864" />
      <stop
         id="stop5063"
         style="stop-color:#f0f0f0;stop-opacity:1"
         offset="1" />
    </linearGradient>
    <linearGradient
       x1="58.650177"
       y1="122"
       x2="58.650177"
       y2="5.4252338"
       id="linearGradient5051"
       gradientUnits="userSpaceOnUse"
       gradientTransform="matrix(1.0172414,0,0,1.0172414,-1.1034483,-1.1034483)">
      <stop
         id="stop5053"
         style="stop-color:#dcdcdc;stop-opacity:1"
         offset="0" />
      <stop
         id="stop5057"
         style="stop-color:#e4e4e4;stop-opacity:1"
         offset="0.40241864" />
      <stop
         id="stop5055"
         style="stop-color:#f0f0f0;stop-opacity:1"
         offset="1" />
    </linearGradient>
    <linearGradient
       y2="5.4252338"
       x2="58.650177"
       y1="122"
       x1="58.650177"
       gradientTransform="matrix(0.79888068,0,0,0.79888068,-2.8215905,1.206716)"
       gradientUnits="userSpaceOnUse"
       id="linearGradient3183"
       xlink:href="#linearGradient5095"
       inkscape:collect="always" />
    <linearGradient
       inkscape:collect="always"
       xlink:href="#linearGradient5095"
       id="linearGradient3125"
       gradientUnits="userSpaceOnUse"
       gradientTransform="matrix(0.79888068,0,0,0.79888068,-2.8215905,1.206716)"
       x1="58.650177"
       y1="122"
       x2="58.650177"
       y2="5.4252338" />
    <linearGradient
       inkscape:collect="always"
       xlink:href="#linearGradient3117"
       id="linearGradient3127"
       gradientUnits="userSpaceOnUse"
       gradientTransform="matrix(-0.71186441,0,0,0.71186441,93.55932,2.4406779)"
       x1="85.216583"
       y1="44.724644"
       x2="95.671806"
       y2="23.497499" />
    <linearGradient
       inkscape:collect="always"
       xlink:href="#linearGradient3117"
       id="linearGradient3171"
       gradientUnits="userSpaceOnUse"
       gradientTransform="matrix(-0.71186441,0,0,0.71186441,93.55932,2.4406779)"
       x1="85.216583"
       y1="44.724644"
       x2="95.671806"
       y2="23.497499" />
    <linearGradient
       inkscape:collect="always"
       xlink:href="#linearGradient5095"
       id="linearGradient3191"
       gradientUnits="userSpaceOnUse"
       gradientTransform="matrix(0.79888068,0,0,0.79888068,-2.8215905,1.206716)"
       x1="58.650177"
       y1="122"
       x2="58.650177"
       y2="5.4252338" />
    <linearGradient
       inkscape:collect="always"
       xlink:href="#linearGradient5095"
       id="linearGradient3194"
       gradientUnits="userSpaceOnUse"
       gradientTransform="matrix(0.12635925,0,0,0.12635925,16.42207,23.087339)"
       x1="58.650177"
       y1="122"
       x2="58.650177"
       y2="5.4252338" />
    <linearGradient
       inkscape:collect="always"
       xlink:href="#linearGradient5095"
       id="linearGradient3232"
       gradientUnits="userSpaceOnUse"
       gradientTransform="matrix(0.12635925,0,0,0.12635925,16.42207,23.087339)"
       x1="58.650177"
       y1="122"
       x2="58.650177"
       y2="5.4252338" />
    <linearGradient
       inkscape:collect="always"
       xlink:href="#linearGradient3117"
       id="linearGradient3234"
       gradientUnits="userSpaceOnUse"
       gradientTransform="matrix(-0.71186441,0,0,0.71186441,93.55932,2.4406779)"
       x1="85.216583"
       y1="44.724644"
       x2="95.671806"
       y2="23.497499" />
    <linearGradient
       inkscape:collect="always"
       xlink:href="#linearGradient5095"
       id="linearGradient3081"
       gradientUnits="userSpaceOnUse"
       gradientTransform="matrix(0.14906939,0,0,0.14280453,14.897127,20.93717)"
       x1="58.650177"
       y1="122"
       x2="58.650177"
       y2="5.4252338" />
    <linearGradient
       inkscape:collect="always"
       xlink:href="#linearGradient3791"
       id="linearGradient3797"
       x1="23.30444"
       y1="88.712532"
       x2="24.041058"
       y2="5.676652"
       gradientUnits="userSpaceOnUse" />
  </defs>
  <rect
     style="color:#000000;fill:#8c8c8c;fill-opacity:1;fill-rule:nonzero;stroke:none;stroke-width:0.89999998000000003;stroke-linecap:butt;stroke-linejoin:miter;stroke-miterlimit:4;stroke-opacity:1;stroke-dasharray:1.80000000000000004, 0.90000000000000002;stroke-dashoffset:0;marker:none;visibility:visible;display:inline;overflow:visible;enable-background:accumulate"
     id="rect2991"
     width="29.999998"
     height="30"
     x="9.000001"
     y="8.999999" />
  <g
     id="g3107"
     transform="matrix(1,0,0,1.0111441,-0.2020885,-0.63322943)"
     style="fill:url(#linearGradient3797);fill-opacity:1">
    <path
       style="fill:url(#linearGradient3797);fill-opacity:1;stroke:none;display:inline;enable-background:new"
       id="path3798-9"
       inkscape:connector-curvature="0"
       d="m 24.202112,9.907634 c -3.917449,0 -7.090535,3.28543 -7.090535,7.328356 0.0094,0.463323 0.01226,0.980715 0.05583,1.557016 -0.619966,0.365446 -0.701884,1.797841 -0.148891,3.238593 0.213241,0.555556 0.506351,1.004574 0.800244,1.370174 0.0098,0.01226 0.02736,0.02962 0.03722,0.04152 0.07015,0.380659 0.119877,0.67091 0.204713,1.100291 0.262826,0.871862 1.351298,2.513879 2.30768,3.923678 0.09538,1.087563 0.09885,2.167592 -0.09306,3.404675 -2.752797,2.52539 -9.799584,3.655164 -9.789031,6.269582 l -0.130277,0.996483 27.692167,0 -0.130278,-0.996489 c -0.01117,-2.237595 -7.088595,-3.655167 -9.807641,-6.269585 -0.110092,-1.001466 -0.13048,-1.982317 -0.07443,-2.968709 0.869529,-1.483143 2.016712,-3.394444 2.307678,-4.359643 0.106928,-0.49986 0.158881,-0.837158 0.241933,-1.266373 0.256772,-0.347037 0.499036,-0.751784 0.688582,-1.245613 0.525157,-1.3682 0.4608,-2.690562 -0.07442,-3.13479 0.0374,-0.5945 0.07742,-1.15272 0.09306,-1.660817 5e-6,-4.042919 -3.173087,-7.3283499 -7.090536,-7.3283499 z" />
    <path
       d="m 24.202112,10.449144 c -3.563654,0 -6.450171,3.222033 -6.450171,7.18694 0.0087,0.454381 0.01118,0.961786 0.0508,1.526966 -0.563976,0.358396 -0.638496,1.763148 -0.135431,3.176095 0.193983,0.544837 0.460621,0.985192 0.727973,1.343736 0.0088,0.01195 0.02488,0.02907 0.03385,0.04073 0.06382,0.373314 0.10904,0.65796 0.186227,1.079055 0.239089,0.855038 1.229255,2.46537 2.099265,3.847964 0.08676,1.066574 0.08992,2.125763 -0.08466,3.338971 -2.504185,2.476655 -8.914556,3.58463 -8.904957,6.148596 l -0.11851,0.977252 25.191219,0 -0.118511,-0.977258 c -0.01028,-2.194416 -6.448407,-3.584633 -8.92189,-6.148598 -0.100152,-0.98214 -0.118695,-1.944064 -0.06772,-2.911418 0.791002,-1.454523 1.83458,-3.328941 2.099268,-4.275514 0.09727,-0.490215 0.144528,-0.821005 0.220083,-1.241936 0.233583,-0.340339 0.453969,-0.73728 0.626396,-1.221576 0.477728,-1.341796 0.419181,-2.638642 -0.06772,-3.074298 0.03403,-0.583025 0.07042,-1.130474 0.08466,-1.628768 5e-6,-3.964898 -2.886517,-7.186928 -6.450171,-7.186928 z"
       inkscape:connector-curvature="0"
       id="path3184"
       style="fill:url(#linearGradient3797);fill-opacity:1;stroke:none;display:inline;enable-background:new" />
  </g>
</svg>
