<?xml version="1.0" encoding="UTF-8" standalone="no"?>
<!-- Created with Inkscape (http://www.inkscape.org/) -->

<svg
   xmlns:dc="http://purl.org/dc/elements/1.1/"
   xmlns:cc="http://creativecommons.org/ns#"
   xmlns:rdf="http://www.w3.org/1999/02/22-rdf-syntax-ns#"
   xmlns:svg="http://www.w3.org/2000/svg"
   xmlns="http://www.w3.org/2000/svg"
   xmlns:sodipodi="http://sodipodi.sourceforge.net/DTD/sodipodi-0.dtd"
   xmlns:inkscape="http://www.inkscape.org/namespaces/inkscape"
   width="48"
   height="48"
   id="svg3381"
   version="1.1"
   inkscape:version="0.48.4 r9939"
   sodipodi:docname="acrobat.svg">
  <defs
     id="defs3383" />
  <sodipodi:namedview
     id="base"
     pagecolor="#ffffff"
     bordercolor="#666666"
     borderopacity="1.0"
     inkscape:pageopacity="0.0"
     inkscape:pageshadow="2"
     inkscape:zoom="11.313708"
     inkscape:cx="11.940371"
     inkscape:cy="24.466714"
     inkscape:document-units="px"
     inkscape:current-layer="layer1"
     showgrid="false"
     fit-margin-top="0"
     fit-margin-left="0"
     fit-margin-right="0"
     fit-margin-bottom="0"
     inkscape:window-width="640"
     inkscape:window-height="480"
     inkscape:window-x="644"
     inkscape:window-y="78"
     inkscape:window-maximized="0">
    <sodipodi:guide
       position="9.0000117,39.000009"
       orientation="30.000031,0"
       id="guide3264" />
    <sodipodi:guide
       position="9.0000117,8.9999785"
       orientation="0,30"
       id="guide3266" />
    <sodipodi:guide
       position="39.000012,34.58801"
       orientation="-30.000031,0"
       id="guide3268" />
    <sodipodi:guide
       position="39.000012,39.000009"
       orientation="0,-30"
       id="guide3270" />
    <sodipodi:guide
       position="9.0000117,19.999979"
       orientation="11,0"
       id="guide3276" />
    <sodipodi:guide
       position="24.000012,39.000009"
       orientation="15.000031,0"
       id="guide3311" />
    <sodipodi:guide
       position="24.000012,23.999979"
       orientation="0,15"
       id="guide3313" />
    <sodipodi:guide
       position="39.000012,39.000009"
       orientation="0,-15"
       id="guide3317" />
  </sodipodi:namedview>
  <metadata
     id="metadata3386">
    <rdf:RDF>
      <cc:Work
         rdf:about="">
        <dc:format>image/svg+xml</dc:format>
        <dc:type
           rdf:resource="http://purl.org/dc/dcmitype/StillImage" />
        <dc:title></dc:title>
      </cc:Work>
    </rdf:RDF>
  </metadata>
  <g
     inkscape:label="Capa 1"
     inkscape:groupmode="layer"
     id="layer1"
     transform="translate(-364.57143,-499.79075)">
    <path
       style="fill:#ffffff;fill-opacity:1"
       d="m 397.70229,526.24409 c -1.19251,-0.0133 -2.62174,0.0915 -4.17407,0.31374 -0.71087,-0.40905 -1.46182,-0.85754 -2.05623,-1.4139 -1.50828,-1.41001 -2.77274,-3.36871 -3.55713,-5.56367 0.0537,-0.21016 0.10538,-0.41543 0.15202,-0.62309 0.21824,-0.98236 0.3746,-4.22921 0.3746,-4.22921 0,0 -0.62008,2.43918 -0.71789,2.80708 -0.0625,0.23354 -0.14158,0.4827 -0.23135,0.74202 -0.47583,-1.67503 -0.71798,-3.29994 -0.71798,-4.53099 0,-0.34844 0.0297,-1.02443 0.12837,-1.55993 0.0478,-0.38189 0.18712,-0.58045 0.33064,-0.67638 0.28381,0.0691 0.60078,0.50455 0.93243,1.23364 0.28483,0.63008 0.2671,1.36022 0.2671,1.81216 0,0 0.30533,-1.11902 0.23477,-1.78025 -0.0429,-0.39703 -0.42059,-1.41811 -1.22234,-1.40584 l -0.0653,0 -0.35696,-0.005 c -0.58573,0 -1.13359,0.2874 -1.26593,0.7608 -0.49217,1.81629 0.0585,4.62509 0.97713,8.12446 l -0.27808,0.67746 c -0.70321,1.71581 -1.5817,3.42506 -2.35485,4.94202 -3.19127,6.25127 -5.67363,9.62414 -7.32876,9.8603 l -0.007,-0.068 c -0.0359,-0.77967 1.40223,-2.79084 3.35084,-4.38935 0.20313,-0.16486 1.06961,-1.00447 1.06961,-1.00447 0,0 -1.1705,0.61971 -1.43325,0.77875 -2.44139,1.45952 -3.65677,2.92097 -3.85482,3.89127 -0.0587,0.28834 -0.0199,0.64225 0.23394,0.78771 l 0.62478,0.31439 c 1.69917,0.85162 3.78782,-1.3872 6.56624,-6.26171 2.8271,-0.92837 6.35393,-1.8029 9.56554,-2.27641 2.87452,1.64432 6.17203,2.42714 7.43861,2.08884 0.24105,-0.0637 0.49522,-0.25288 0.62452,-0.42752 0.10159,-0.1607 0.2429,-0.80388 0.2429,-0.80388 0,0 -0.23773,0.3262 -0.4338,0.42189 -0.80221,0.37903 -3.33298,-0.25334 -5.93098,-1.52564 2.24603,-0.2393 4.11811,-0.24937 5.11806,0.0707 1.26981,0.40572 1.26981,0.82253 1.253,0.90731 0.0168,-0.0699 0.0746,-0.34911 0.0677,-0.46769 -0.0291,-0.30515 -0.12228,-0.57724 -0.35271,-0.80277 -0.47038,-0.46345 -1.6313,-0.69776 -3.21329,-0.71854 z m -14.12465,2.93565 c 0.48091,-0.85559 1.00183,-1.78738 1.53502,-2.7925 1.03154,-1.95335 1.65735,-3.46125 2.1835,-4.88023 0.82937,1.67046 1.97422,3.25798 3.47512,4.53011 0.33479,0.28353 0.69055,0.55174 1.05674,0.80507 -2.7261,0.50741 -5.58971,1.22161 -8.25038,2.33755 z"
       id="path2994"
       inkscape:connector-curvature="0" />
    <g
       transform="matrix(0.35701663,0,0,0.35701663,371.54861,506.85134)"
       id="g3061">
      <rect
         style="fill:#00df16;fill-opacity:1;fill-rule:evenodd;stroke:none"
         id="rect3072"
         width="42.237507"
         height="41.340996"
         x="6.0581632"
         y="5.8815775"
         ry="0" />
      <rect
         ry="0"
         y="5.8815775"
         x="48.24559"
         height="41.340996"
         width="41.812744"
         id="rect3074"
         style="fill:#b6fd00;fill-opacity:1;fill-rule:evenodd;stroke:none" />
      <rect
         ry="0"
         y="47.116692"
         x="6.0581632"
         height="42.764889"
         width="42.095921"
         id="rect3076"
         style="fill:#b6fd00;fill-opacity:1;fill-rule:evenodd;stroke:none" />
      <rect
         style="fill:#00df16;fill-opacity:1;fill-rule:evenodd;stroke:none"
         id="rect3078"
         width="41.960758"
         height="42.696964"
         x="48.097576"
         y="47.18462"
         ry="0" />
      <path
         inkscape:connector-curvature="0"
         id="path3037"
         d="m 5.9812392,5.8913319 42.5188088,41.2185391 -42.5188088,0 z"
         style="fill:#b6fd00;fill-opacity:1;stroke:none" />
      <path
         style="fill:#d40000;fill-opacity:1;stroke:none"
         d="M 5.9812392,89.890033 48.500048,47.11117 l -42.5188088,0 z"
         id="path3807"
         inkscape:connector-curvature="0" />
      <path
         inkscape:connector-curvature="0"
         id="path3809"
         d="m 90.108668,89.760006 -42.518809,-42.778863 42.518809,0 z"
         style="fill:#b6fd00;fill-opacity:1;stroke:none" />
      <path
         style="fill:#00df16;fill-opacity:1;stroke:none"
         d="m 90.108668,5.7613046 -42.388782,41.3485664 42.388782,0 z"
         id="path3811"
         inkscape:connector-curvature="0" />
    </g>
    <path
       sodipodi:type="arc"
       style="color:#000000;fill:#fffd01;fill-opacity:1;fill-rule:nonzero;stroke:none;stroke-width:0.89999998000000003;marker:none;visibility:visible;display:inline;overflow:visible;enable-background:accumulate"
       id="path3028"
       sodipodi:cx="25.279068"
       sodipodi:cy="24.577087"
       sodipodi:rx="4.5078058"
       sodipodi:ry="4.6845827"
       d="m 29.786874,24.577087 a 4.5078058,4.6845827 0 1 1 -9.015612,0 4.5078058,4.6845827 0 1 1 9.015612,0 z"
       transform="translate(363.29236,499.21366)" />
  </g>
</svg>
