<?xml version="1.0" encoding="UTF-8" standalone="no"?>
<!-- Created using Karbon, part of Calligra: http://www.calligra.org/karbon -->

<svg
   xmlns:dc="http://purl.org/dc/elements/1.1/"
   xmlns:cc="http://creativecommons.org/ns#"
   xmlns:rdf="http://www.w3.org/1999/02/22-rdf-syntax-ns#"
   xmlns:svg="http://www.w3.org/2000/svg"
   xmlns="http://www.w3.org/2000/svg"
   xmlns:sodipodi="http://sodipodi.sourceforge.net/DTD/sodipodi-0.dtd"
   xmlns:inkscape="http://www.inkscape.org/namespaces/inkscape"
   width="38.4pt"
   height="38.4pt"
   id="svg2"
   version="1.1"
   inkscape:version="0.48.4 r9939"
   sodipodi:docname="object-ungroup.svg">
  <metadata
     id="metadata13">
    <rdf:RDF>
      <cc:Work
         rdf:about="">
        <dc:format>image/svg+xml</dc:format>
        <dc:type
           rdf:resource="http://purl.org/dc/dcmitype/StillImage" />
      </cc:Work>
    </rdf:RDF>
  </metadata>
  <sodipodi:namedview
     pagecolor="#ffffff"
     bordercolor="#666666"
     borderopacity="1"
     objecttolerance="10"
     gridtolerance="10"
     guidetolerance="10"
     inkscape:pageopacity="0"
     inkscape:pageshadow="2"
     inkscape:window-width="640"
     inkscape:window-height="480"
     id="namedview11"
     showgrid="false"
     inkscape:zoom="4.9166667"
     inkscape:cx="24"
     inkscape:cy="24"
     inkscape:window-x="0"
     inkscape:window-y="0"
     inkscape:window-maximized="0"
     inkscape:current-layer="svg2" />
  <defs
     id="defs4" />
  <g
     id="layer1">
    <rect
       id="rect3270"
       transform="translate(9, 8.99999)"
       fill="none"
       width="24.00000000000pt"
       height="24.00002480000pt" />
    <path
       id="rect3278"
       transform="matrix(5.34295e-16 1 -1 5.34295e-16 26.7241 8.98071)"
       fill="#e74c3c"
       fill-rule="evenodd"
       d="M0 0L0 17.7241L17.7291 17.7241L17.7291 12.8321L13.7291 12.8321L13.7291 13.7241L4 13.7241L4 4L4.87281 4L4.87281 0Z"
       style="fill:#d40000" />
    <path
       id="rect32781"
       transform="translate(14.7612, 14.7487)"
       fill="#e74c3c"
       fill-rule="evenodd"
       d="M17.9509 0L0 0L0 17.9612L4.98007 17.9612L4.98007 13.9089L4.05121 13.9089L4.05121 4.05237L13.8997 4.05237L13.8997 4.95408L17.9509 4.95408Z"
       style="fill:#d40000" />
    <path
       id="rect32782"
       transform="translate(20.5594, 20.5702)"
       fill="#e74c3c"
       fill-rule="evenodd"
       d="M18.4134 0L0 0L0 18.4347L14.2558 18.4526L14.2634 14.3057L4.1556 14.2755L4.1556 4.15918L14.2579 4.15918L14.2579 18.4602L18.4134 18.4602Z"
       style="fill:#d40000" />
  </g>
</svg>
