<?xml version="1.0" encoding="UTF-8" standalone="no"?>
<svg
   xmlns:dc="http://purl.org/dc/elements/1.1/"
   xmlns:cc="http://creativecommons.org/ns#"
   xmlns:rdf="http://www.w3.org/1999/02/22-rdf-syntax-ns#"
   xmlns:svg="http://www.w3.org/2000/svg"
   xmlns="http://www.w3.org/2000/svg"
   xmlns:sodipodi="http://sodipodi.sourceforge.net/DTD/sodipodi-0.dtd"
   xmlns:inkscape="http://www.inkscape.org/namespaces/inkscape"
   height="512"
   id="Layer_1"
   version="1.1"
   viewBox="0 0 512 512"
   width="512"
   xml:space="preserve"
   inkscape:version="0.91 r13725"
   sodipodi:docname="audio-headphones.svg"><sodipodi:namedview
     pagecolor="#ffffff"
     bordercolor="#666666"
     borderopacity="1"
     objecttolerance="10"
     gridtolerance="10"
     guidetolerance="10"
     inkscape:pageopacity="0"
     inkscape:pageshadow="2"
     inkscape:window-width="1920"
     inkscape:window-height="1002"
     id="namedview48"
     showgrid="false"
     inkscape:zoom="1.0309201"
     inkscape:cx="-95.763715"
     inkscape:cy="323.59391"
     inkscape:window-x="0"
     inkscape:window-y="26"
     inkscape:window-maximized="1"
     inkscape:current-layer="Layer_1" /><metadata
     id="metadata52"><rdf:RDF><cc:Work
         rdf:about=""><dc:format>image/svg+xml</dc:format><dc:type
           rdf:resource="http://purl.org/dc/dcmitype/StillImage" /><dc:title /></cc:Work></rdf:RDF></metadata><defs
     id="defs50" /><g
     style="fill:#333333"
     transform="matrix(7.34375,0,0,7.34375,21,35.716875)"
     id="Headphone"><g
       style="fill:#333333"
       id="g4"><path
         inkscape:connector-curvature="0"
         id="path6"
         style="fill:#cccccc"
         d="M 32,0 C 16.536,0 4,12.535 4,27.996 l 0,9.998 c 0,1.105 0.895,2 2,2 1.104,0 1.999,-0.895 2,-1.999 L 8,27.996 C 8,14.743 18.745,3.999 32,3.999 c 13.255,0 24,10.744 24,23.997 l 0,9.998 c 0,1.105 0.895,2 2,2 1.104,0 1.999,-0.895 2,-1.999 l 0,-9.999 C 60,12.535 47.464,0 32,0 Z" /></g></g><g
     style="fill:#1ba39c;fill-opacity:1"
     transform="matrix(7.34375,0,0,7.34375,21,35.716875)"
     id="Headphone_3_"><g
       style="fill:#1ba39c;fill-opacity:1"
       id="g9"><path
         inkscape:connector-curvature="0"
         id="path11"
         style="clip-rule:evenodd;fill:#1ba39c;fill-opacity:1;fill-rule:evenodd"
         d="m 7,33.996 c -6.075,0 -7,4.924 -7,10.998 0,6.074 0.925,10.998 7,10.998 6.075,0 3,-4.924 3,-10.998 0,-6.074 3.075,-10.998 -3,-10.998 z m 50.604,0 c -5.742,0 -2.836,4.924 -2.836,10.998 0,6.074 -2.906,10.998 2.836,10.998 C 63.345,55.992 64,51.068 64,44.994 64,38.92 63.345,33.996 57.604,33.996 Z" /></g></g><g
     style="fill:#000000"
     transform="matrix(7.34375,0,0,7.34375,21,35.716875)"
     id="Headphone_2_"><g
       style="fill:#000000"
       id="g14"><path
         inkscape:connector-curvature="0"
         id="path16"
         style="clip-rule:evenodd;fill:#000000;fill-rule:evenodd"
         d="m 12,29.996 c -3.314,0 -6,2.687 -6,5.999 l 0,17.998 c 0,3.313 2.686,5.999 6,5.999 3.313,0 6,-2.686 6,-5.999 l 0,-17.998 c 0,-3.312 -2.687,-5.999 -6,-5.999 z m 40,0 c -3.314,0 -6,2.687 -6,5.999 l 0,17.998 c 0,3.313 2.686,5.999 6,5.999 3.313,0 6,-2.686 6,-5.999 l 0,-17.998 c 0,-3.312 -2.687,-5.999 -6,-5.999 z" /></g></g><g
     transform="matrix(3.9140028,0,0,3.9140028,5.3439885,272.78631)"
     id="g18" /><g
     transform="matrix(3.9140028,0,0,3.9140028,5.3439885,272.78631)"
     id="g20" /><g
     transform="matrix(3.9140028,0,0,3.9140028,5.3439885,272.78631)"
     id="g22" /><g
     transform="matrix(3.9140028,0,0,3.9140028,5.3439885,272.78631)"
     id="g24" /><g
     transform="matrix(3.9140028,0,0,3.9140028,5.3439885,272.78631)"
     id="g26" /><g
     transform="matrix(3.9140028,0,0,3.9140028,5.3439885,272.78631)"
     id="g28" /><g
     transform="matrix(3.9140028,0,0,3.9140028,5.3439885,272.78631)"
     id="g30" /><g
     transform="matrix(3.9140028,0,0,3.9140028,5.3439885,272.78631)"
     id="g32" /><g
     transform="matrix(3.9140028,0,0,3.9140028,5.3439885,272.78631)"
     id="g34" /><g
     transform="matrix(3.9140028,0,0,3.9140028,5.3439885,272.78631)"
     id="g36" /><g
     transform="matrix(3.9140028,0,0,3.9140028,5.3439885,272.78631)"
     id="g38" /><g
     transform="matrix(3.9140028,0,0,3.9140028,5.3439885,272.78631)"
     id="g40" /><g
     transform="matrix(3.9140028,0,0,3.9140028,5.3439885,272.78631)"
     id="g42" /><g
     transform="matrix(3.9140028,0,0,3.9140028,5.3439885,272.78631)"
     id="g44" /><g
     transform="matrix(3.9140028,0,0,3.9140028,5.3439885,272.78631)"
     id="g46" /></svg>