<?xml version="1.0" encoding="UTF-8" standalone="no"?>
<svg
   xmlns:dc="http://purl.org/dc/elements/1.1/"
   xmlns:cc="http://creativecommons.org/ns#"
   xmlns:rdf="http://www.w3.org/1999/02/22-rdf-syntax-ns#"
   xmlns:svg="http://www.w3.org/2000/svg"
   xmlns="http://www.w3.org/2000/svg"
   xmlns:sodipodi="http://sodipodi.sourceforge.net/DTD/sodipodi-0.dtd"
   xmlns:inkscape="http://www.inkscape.org/namespaces/inkscape"
   viewBox="0 0 512 512"
   id="svg2"
   version="1.1"
   inkscape:version="0.91+devel r"
   width="512"
   height="512"
   sodipodi:docname="input-tablet.svg">
  <metadata
     id="metadata77">
    <rdf:RDF>
      <cc:Work
         rdf:about="">
        <dc:format>image/svg+xml</dc:format>
        <dc:type
           rdf:resource="http://purl.org/dc/dcmitype/StillImage" />
        <dc:title></dc:title>
      </cc:Work>
    </rdf:RDF>
  </metadata>
  <sodipodi:namedview
     pagecolor="#ffffff"
     bordercolor="#666666"
     borderopacity="1"
     objecttolerance="10"
     gridtolerance="10"
     guidetolerance="10"
     inkscape:pageopacity="0"
     inkscape:pageshadow="2"
     inkscape:window-width="1920"
     inkscape:window-height="1025"
     id="namedview75"
     showgrid="false"
     inkscape:zoom="0.86915207"
     inkscape:cx="-9.3433421"
     inkscape:cy="-65.284855"
     inkscape:window-x="0"
     inkscape:window-y="29"
     inkscape:window-maximized="1"
     inkscape:current-layer="g59" />
  <defs
     id="defs4">
    <linearGradient
       id="linearGradient3764"
       y1="47"
       x2="0"
       y2="1"
       gradientUnits="userSpaceOnUse">
      <stop
         stop-color="#a2e7e8"
         stop-opacity="1"
         id="stop7" />
      <stop
         offset="1"
         stop-color="#b2ecec"
         stop-opacity="1"
         id="stop9" />
    </linearGradient>
    <clipPath
       id="clipPath-599798769">
      <g
         transform="translate(0,-1004.3622)"
         id="g12">
        <path
           d="m -24,13 c 0,1.105 -0.672,2 -1.5,2 -0.828,0 -1.5,-0.895 -1.5,-2 0,-1.105 0.672,-2 1.5,-2 0.828,0 1.5,0.895 1.5,2 z"
           transform="matrix(15.333333,0,0,11.5,414.99999,878.8622)"
           id="path14"
           inkscape:connector-curvature="0"
           style="fill:#1890d0" />
      </g>
    </clipPath>
    <clipPath
       id="clipPath-609371321">
      <g
         transform="translate(0,-1004.3622)"
         id="g17">
        <path
           d="m -24,13 c 0,1.105 -0.672,2 -1.5,2 -0.828,0 -1.5,-0.895 -1.5,-2 0,-1.105 0.672,-2 1.5,-2 0.828,0 1.5,0.895 1.5,2 z"
           transform="matrix(15.333333,0,0,11.5,414.99999,878.8622)"
           id="path19"
           inkscape:connector-curvature="0"
           style="fill:#1890d0" />
      </g>
    </clipPath>
  </defs>
  <g
     id="g33"
     transform="translate(0,464)" />
  <g
     id="g55"
     transform="matrix(1.0391134,0,0,1,-0.4302477,464)">
    <g
       id="g59">
      <path
         style="fill:#223656;fill-opacity:1;fill-rule:nonzero;stroke:none;stroke-width:3.55131745"
         inkscape:connector-curvature="0"
         id="path61"
         d="m 63.559358,-384.499 366.437122,0 c 18.40511,0 33.31246,12.74801 33.31246,28.48717 l 0,256.384427 c 0,15.739156 -14.90735,28.487162 -33.31246,28.487162 l -366.437122,0 c -18.405123,0 -33.312448,-12.748006 -33.312448,-28.487162 l 0,-256.384427 c 0,-15.73916 14.907325,-28.48717 33.312448,-28.48717 m 0,0" />
      <path
         style="fill:#d2dbe8;fill-opacity:1;fill-rule:nonzero;stroke:none;stroke-width:3.55131745"
         inkscape:connector-curvature="0"
         id="path63"
         d="m 107.00768,-356.01183 316.46839,0 0,256.384427 -316.46839,0 m 0,-256.384427" />
      <path
         style="fill:#405578;fill-opacity:1;fill-rule:nonzero;stroke:none;stroke-width:3.55131745"
         inkscape:connector-curvature="0"
         id="path65"
         d="m 81.845693,-244.04449 49.968687,0 c 9.1776,0 16.65624,6.39535 16.65624,14.24357 0,7.84821 -7.47864,14.24358 -16.65624,14.24358 l -49.968687,0 c -9.177581,0 -16.656229,-6.39537 -16.656229,-14.24358 0,-7.84822 7.478648,-14.24357 16.656229,-14.24357 m 0,0" />
      <path
         style="fill:#223656;fill-opacity:1;fill-rule:nonzero;stroke:none;stroke-width:3.55131745"
         inkscape:connector-curvature="0"
         id="path67"
         d="m 376.02983,-36.196662 c 5.8217,5.675865 14.18947,6.819831 21.05342,0 l 10.52673,-10.369075 c 5.76215,-5.6172 6.10461,-14.812964 0,-20.73816 L 260.23602,-212.52969 c -10.52672,-10.36908 -31.58013,-10.36908 -36.88073,-5.16253 -5.24103,5.16253 -5.24103,25.90069 5.28571,36.26977 m 147.37394,145.225788" />
      <path
         style="fill:#727f92;fill-opacity:1;fill-rule:nonzero;stroke:none;stroke-width:3.55131745"
         inkscape:connector-curvature="0"
         id="path69"
         d="m 208.8399,-232.36914 c -4.49957,4.49958 4.53794,31.6121 13.58823,40.6496 l 27.11251,-27.11251 c -9.0375,-9.03751 -36.15003,-18.07501 -40.70074,-13.53709 m 0,0" />
    </g>
  </g>
</svg>
