<?xml version="1.0" encoding="UTF-8" standalone="no"?>
<!-- Created with Inkscape (http://www.inkscape.org/) -->

<svg
   xmlns:dc="http://purl.org/dc/elements/1.1/"
   xmlns:cc="http://creativecommons.org/ns#"
   xmlns:rdf="http://www.w3.org/1999/02/22-rdf-syntax-ns#"
   xmlns:svg="http://www.w3.org/2000/svg"
   xmlns="http://www.w3.org/2000/svg"
   xmlns:sodipodi="http://sodipodi.sourceforge.net/DTD/sodipodi-0.dtd"
   xmlns:inkscape="http://www.inkscape.org/namespaces/inkscape"
   id="svg3007"
   version="1.1"
   inkscape:version="0.91+devel r"
   width="512"
   height="512"
   sodipodi:docname="libreoffice-math.svg"
   viewBox="0 0 512 512">
  <metadata
     id="metadata3013">
    <rdf:RDF>
      <cc:Work
         rdf:about="">
        <dc:format>image/svg+xml</dc:format>
        <dc:type
           rdf:resource="http://purl.org/dc/dcmitype/StillImage" />
        <dc:title></dc:title>
      </cc:Work>
    </rdf:RDF>
  </metadata>
  <defs
     id="defs3011" />
  <sodipodi:namedview
     pagecolor="#ffffff"
     bordercolor="#666666"
     borderopacity="1"
     objecttolerance="10"
     gridtolerance="10"
     guidetolerance="10"
     inkscape:pageopacity="0"
     inkscape:pageshadow="2"
     inkscape:window-width="1920"
     inkscape:window-height="1024"
     id="namedview3009"
     showgrid="false"
     inkscape:zoom="1.625"
     inkscape:cx="206.76923"
     inkscape:cy="600.61538"
     inkscape:window-x="0"
     inkscape:window-y="29"
     inkscape:window-maximized="1"
     inkscape:current-layer="g5035" />
  <g
     id="g5035"
     transform="translate(0,-512)">
    <g
       transform="matrix(0.44588452,0,0,0.44588452,26.195112,539.98642)"
       id="g5017">
      <path
         sodipodi:nodetypes="ccccccccc"
         inkscape:connector-curvature="0"
         id="path5033"
         d="M 175.88748,562.95299 215.34114,318.87271 700.48842,253.78995 874.70901,409.88812 848.56017,636.53788 810.89842,918.65451 511.29641,959.49784 294.32124,907.54473 Z"
         style="fill:#fefefe;stroke-width:1.06779659" />
      <path
         inkscape:connector-curvature="0"
         id="path5021"
         d="m 181.23728,1013.5911 c -31.02979,-10.5666 -54.12968,-33.7266 -64.52465,-64.69266 l -2.74653,-8.18178 0,-427.276 0,-427.275985 2.74653,-8.181784 c 8.92143,-26.576478 26.6918,-46.947485 51.71109,-59.278876 l 11.21187,-5.526049 177.89458,-0.276208 177.89456,-0.276208 156.82136,157.7762 c 86.25175,86.77692 170.85387,171.95121 188.00473,189.27621 l 31.18336,31.5 0.75501,274.42372 0.755,274.42372 -2.87965,8.52741 c -10.63583,31.49538 -33.66704,54.60199 -64.86102,65.07349 l -8.18178,2.7466 -323.888,-0.027 -323.88798,-0.027 -8.00848,-2.7271 z m 398.04079,-267.07783 0.28657,-24.80027 101.68801,-0.29295 101.688,-0.29295 5.56602,-2.51686 c 6.84388,-3.0947 9.74737,-8.28192 11.02717,-19.70061 0.47347,-4.22446 0.73257,-82.3999 0.57578,-173.7232 -0.28329,-164.99712 -0.29887,-166.06926 -2.47357,-170.31356 -2.7214,-5.31126 -4.89368,-7.3024 -10.97731,-10.0619 -4.70266,-2.1331 -6.54515,-2.17127 -105.95961,-2.19431 l -101.17372,-0.0235 0,-23.36078 c 0,-19.80883 -0.25194,-23.56987 -1.65698,-24.73594 -1.36483,-1.13272 -4.51811,-0.87034 -17.88559,1.48824 -13.06606,2.3054 -236.50328,36.85504 -284.77946,44.03486 -6.75381,1.00445 -13.3608,2.2228 -14.6822,2.70742 l -2.40255,0.88114 0,188.36177 c 0,149.43738 0.27583,188.57109 1.33475,189.37464 0.73411,0.55707 40.49619,6.91686 88.36017,14.13288 131.09932,19.76464 193.45302,29.62378 209.35586,33.10258 7.89114,1.72621 16.0293,3.04743 18.08481,2.93604 l 3.73729,-0.20252 0.28656,-24.80027 z m -0.73952,-123.89041 0.0809,-77.6822 6.59279,25.09322 c 3.62603,13.80127 7.02417,25.76285 7.55141,26.58128 0.77442,1.20214 3.72313,1.37216 15.34566,0.88485 8.23251,-0.34516 14.9026,-1.10804 15.59222,-1.78331 0.66286,-0.64905 7.94771,-29.39723 16.18857,-63.88485 l 14.98336,-62.70474 17.05053,-0.65624 c 9.37779,-0.36094 35.09362,-0.72132 57.14629,-0.80085 29.59545,-0.10678 40.43132,-0.48017 41.37711,-1.42596 0.87545,-0.87545 1.28136,-6.05086 1.28136,-16.33729 0,-10.28644 -0.40591,-15.46185 -1.28136,-16.33729 -1.66346,-1.66347 -147.71791,-1.87392 -148.74359,-0.21433 -0.3627,0.58687 -3.98573,23.26348 -8.05117,50.39246 -4.06545,27.12899 -7.54375,49.7815 -7.72956,50.33893 -0.18582,0.55744 -2.40945,-5.4215 -4.94141,-13.28651 -2.53197,-7.86503 -5.09071,-14.90068 -5.6861,-15.63479 -0.68887,-0.84936 -3.94729,-1.33474 -8.96026,-1.33474 l -7.87773,0 0,-72.07627 0,-72.07627 99.30508,0 99.30508,0 0,170.31355 0,170.31356 -99.30508,0 -99.30508,0 0.0809,-77.68221 z M 760.21704,557.6096 c 2.02663,-1.25253 0.2011,-4.44802 -9.31028,-16.29722 -5.57924,-6.95056 -10.14407,-12.89324 -10.14407,-13.20596 0,-0.31271 4.8318,-8.34951 10.73732,-17.85956 5.90554,-9.51004 10.58565,-18.08762 10.40025,-19.0613 -0.27476,-1.44297 -2.11208,-1.86904 -9.93648,-2.30422 -5.27967,-0.29364 -10.80067,-0.14539 -12.26889,0.32945 -1.65894,0.53651 -6.27676,5.69033 -12.19852,13.61441 -5.24097,7.01308 -9.8271,12.75106 -10.19141,12.75106 -0.36431,0 -5.12583,-5.767 -10.58115,-12.81556 -5.66074,-7.31397 -10.91349,-13.0652 -12.2359,-13.39711 -1.27443,-0.31986 -6.15958,-0.43909 -10.85592,-0.26495 -7.72688,0.2865 -8.5691,0.52876 -8.85756,2.54787 -0.17644,1.235 2.61633,7.43305 6.25478,13.88135 3.61545,6.40755 7.96324,14.11095 9.66175,17.11864 l 3.08821,5.46856 -10.16486,12.68398 c -13.25995,16.54613 -13.22638,16.85894 1.85209,17.25787 l 11.44099,0.30269 10.17527,-9.19 10.17526,-9.19 10.8135,9.82499 10.81347,9.82499 10.24918,-0.75233 c 5.63704,-0.41379 10.62438,-0.98422 11.08297,-1.26765 z m -308.34209,46.87664 -6.45555,-0.37345 -7.7764,-39.73012 c -4.27701,-21.85159 -8.01139,-40.57103 -8.2986,-41.59879 -0.28723,-1.02775 -1.42828,-1.86864 -2.53567,-1.86864 -2.4814,0 -2.04461,-1.55459 -12.4165,44.19279 -4.54217,20.03422 -8.28668,36.48785 -8.32113,36.56361 -0.0345,0.0758 -5.57109,-0.16448 -12.30364,-0.5339 l -12.24101,-0.67165 -9.79818,-39.50848 c -8.45164,-34.07894 -10.06785,-39.50847 -11.76046,-39.50847 -1.58842,0 -2.22077,1.4241 -3.31901,7.47457 -4.02063,22.15071 -12.21164,65.38886 -12.69324,67.00424 -0.48141,1.61472 -1.97975,1.86864 -11.02662,1.86864 l -10.4695,0 2.56769,-12.01271 c 8.24717,-38.58364 21.07213,-93.34313 22.10896,-94.39998 0.71392,-0.7277 5.93465,-1.39686 12.71339,-1.62954 l 11.50205,-0.39478 0.99382,3.76511 c 0.5466,2.07082 4.14175,16.97911 7.98922,33.12953 10.21262,42.86922 9.38585,40.04238 11.7114,40.04238 1.74853,0 2.52613,-2.18281 5.51574,-15.48306 1.91413,-8.51567 6.09414,-26.29449 9.28891,-39.50847 l 5.80868,-24.02542 5.75085,-0.69524 c 8.12608,-0.98241 18.3366,-1.01863 19.8278,-0.0704 1.61817,1.02902 6.04574,16.85363 20.08167,71.77405 6.22884,24.37246 11.52727,44.91419 11.77433,45.6483 0.45776,1.36025 -2.60943,1.45281 -18.219,0.54982 z M 908.21325,252.9185 c -1.57466,-0.47521 -3.73695,-1.51505 -4.80509,-2.31075 -1.06815,-0.79571 -36.51365,-36.52386 -78.76778,-79.39589 C 782.38623,128.33983 731.83544,77.158623 712.30528,57.475851 689.19758,34.187578 676.22717,20.327825 675.16747,17.791599 673.13799,12.93437 674.59846,7.6039439 678.2069,6.6982829 679.50842,6.3716224 713.93688,6.2758545 754.71461,6.4854654 l 74.1413,0.3811108 10.67796,2.8939694 c 36.65621,9.9346574 63.9449,37.2220234 73.89557,73.8919944 l 2.89756,10.677966 0.37412,78.297654 c 0.28247,59.11914 0.0651,78.67001 -0.88748,79.8178 -1.38514,1.669 -3.25143,1.78502 -7.60039,0.47254 z"
         style="fill:#cccccc;fill-opacity:1;stroke-width:1.06779659" />
      <path
         inkscape:connector-curvature="0"
         id="path5019"
         d="m 906.80506,251.43508 c -1.76187,-0.7853 -5.34524,-3.78053 -7.96306,-6.65604 C 896.22418,241.90353 845.29028,190.1297 785.65556,129.72609 726.02084,69.322484 676.641,18.54357 675.92259,16.884064 c -0.9651,-2.229336 -1.00753,-3.874058 -0.16249,-6.298131 l 1.14371,-3.2808485 70.66508,0 c 42.57455,0 74.18891,0.4418518 79.52971,1.1115309 46.18603,5.7912386 82.48035,42.5534586 87.75634,88.8876796 0.70755,6.213675 1.00473,36.597655 0.80647,82.449935 l -0.31398,72.61017 -2.66949,0.24926 c -1.46822,0.13709 -4.11102,-0.39327 -5.87288,-1.17858 z"
         style="fill:#b5b5b5;fill-opacity:1;stroke-width:1.06779659" />
    </g>
  </g>
</svg>
