<?xml version="1.0" encoding="UTF-8" standalone="no"?>
<!-- Created with Inkscape (http://www.inkscape.org/) -->

<svg
   xmlns:dc="http://purl.org/dc/elements/1.1/"
   xmlns:cc="http://creativecommons.org/ns#"
   xmlns:rdf="http://www.w3.org/1999/02/22-rdf-syntax-ns#"
   xmlns:svg="http://www.w3.org/2000/svg"
   xmlns="http://www.w3.org/2000/svg"
   xmlns:sodipodi="http://sodipodi.sourceforge.net/DTD/sodipodi-0.dtd"
   xmlns:inkscape="http://www.inkscape.org/namespaces/inkscape"
   width="48"
   height="48"
   id="svg3381"
   version="1.1"
   inkscape:version="0.48.4 r9939"
   sodipodi:docname="contact_busy_overlay.svg">
  <defs
     id="defs3383" />
  <sodipodi:namedview
     id="base"
     pagecolor="#ffffff"
     bordercolor="#666666"
     borderopacity="1.0"
     inkscape:pageopacity="0.0"
     inkscape:pageshadow="2"
     inkscape:zoom="8.2094237"
     inkscape:cx="-4.598189"
     inkscape:cy="28.946186"
     inkscape:document-units="px"
     inkscape:current-layer="layer1"
     showgrid="false"
     fit-margin-top="0"
     fit-margin-left="0"
     fit-margin-right="0"
     fit-margin-bottom="0"
     inkscape:window-width="1366"
     inkscape:window-height="709"
     inkscape:window-x="0"
     inkscape:window-y="-3"
     inkscape:window-maximized="1">
    <sodipodi:guide
       position="9.0000117,39.000009"
       orientation="30.000031,0"
       id="guide3264" />
    <sodipodi:guide
       position="9.0000117,8.9999785"
       orientation="0,30"
       id="guide3266" />
    <sodipodi:guide
       position="39.000012,34.58801"
       orientation="-30.000031,0"
       id="guide3268" />
    <sodipodi:guide
       position="39.000012,39.000009"
       orientation="0,-30"
       id="guide3270" />
    <sodipodi:guide
       position="9.0000117,19.999979"
       orientation="11,0"
       id="guide3276" />
    <sodipodi:guide
       position="24.000012,39.000009"
       orientation="15.000031,0"
       id="guide3311" />
    <sodipodi:guide
       position="24.000012,23.999979"
       orientation="0,15"
       id="guide3313" />
    <sodipodi:guide
       position="39.000012,39.000009"
       orientation="0,-15"
       id="guide3317" />
  </sodipodi:namedview>
  <metadata
     id="metadata3386">
    <rdf:RDF>
      <cc:Work
         rdf:about="">
        <dc:format>image/svg+xml</dc:format>
        <dc:type
           rdf:resource="http://purl.org/dc/dcmitype/StillImage" />
        <dc:title></dc:title>
      </cc:Work>
    </rdf:RDF>
  </metadata>
  <g
     inkscape:label="Capa 1"
     inkscape:groupmode="layer"
     id="layer1"
     transform="translate(-364.57143,-499.79075)">
    <path
       sodipodi:type="arc"
       style="fill:#d40000;fill-opacity:1;fill-rule:evenodd;stroke:none"
       id="path2991"
       sodipodi:cx="25.068472"
       sodipodi:cy="23.914175"
       sodipodi:rx="16.06846"
       sodipodi:ry="14.914184"
       d="m 41.136932,23.914175 c 0,8.236876 -7.194094,14.914184 -16.06846,14.914184 -8.874366,0 -16.0684606,-6.677308 -16.0684606,-14.914184 0,-8.236876 7.1940946,-14.9141836 16.0684606,-14.9141836 8.874366,0 16.06846,6.6773076 16.06846,14.9141836 z"
       transform="matrix(0.93674154,0,0,1,365.14076,499.79075)" />
    <path
       transform="matrix(0.81022462,0,0,0.86493935,368.31235,503.02061)"
       d="m 41.136932,23.914175 a 16.06846,14.914184 0 1 1 -32.1369206,0 16.06846,14.914184 0 1 1 32.1369206,0 z"
       sodipodi:ry="14.914184"
       sodipodi:rx="16.06846"
       sodipodi:cy="23.914175"
       sodipodi:cx="25.068472"
       id="path3013"
       style="fill:#ececec;fill-opacity:1;fill-rule:evenodd;stroke:none"
       sodipodi:type="arc" />
    <g
       id="g3080">
      <g
         id="g3025">
        <path
           sodipodi:type="arc"
           style="fill:#ececec;fill-opacity:1;fill-rule:evenodd;stroke:none"
           id="path3015"
           sodipodi:cx="14.71666"
           sodipodi:cy="13.086601"
           sodipodi:rx="0.30935922"
           sodipodi:ry="0.35355341"
           d="m 15.026019,13.086601 a 0.30935922,0.35355341 0 1 1 -0.618719,0 0.30935922,0.35355341 0 1 1 0.618719,0 z"
           transform="translate(364.57143,499.79075)" />
        <path
           transform="matrix(0.72157434,0,0,0.87818878,370.02292,501.16951)"
           d="m 15.026019,13.086601 a 0.30935922,0.35355341 0 1 1 -0.618719,0 0.30935922,0.35355341 0 1 1 0.618719,0 z"
           sodipodi:ry="0.35355341"
           sodipodi:rx="0.30935922"
           sodipodi:cy="13.086601"
           sodipodi:cx="14.71666"
           id="path3017"
           style="fill:#ececec;fill-opacity:1;fill-rule:evenodd;stroke:none"
           sodipodi:type="arc" />
        <path
           sodipodi:type="arc"
           style="fill:#ececec;fill-opacity:1;fill-rule:evenodd;stroke:none"
           id="path3019"
           sodipodi:cx="14.71666"
           sodipodi:cy="13.086601"
           sodipodi:rx="0.30935922"
           sodipodi:ry="0.35355341"
           d="m 15.026019,13.086601 a 0.30935922,0.35355341 0 1 1 -0.618719,0 0.30935922,0.35355341 0 1 1 0.618719,0 z"
           transform="matrix(1.1392128,0,0,0.87818878,364.13508,500.17897)" />
        <path
           transform="matrix(0.72157431,0,0,0.57366073,367.99878,506.94201)"
           d="m 15.026019,13.086601 a 0.30935922,0.35355341 0 1 1 -0.618719,0 0.30935922,0.35355341 0 1 1 0.618719,0 z"
           sodipodi:ry="0.35355341"
           sodipodi:rx="0.30935922"
           sodipodi:cy="13.086601"
           sodipodi:cx="14.71666"
           id="path3021"
           style="fill:#ececec;fill-opacity:1;fill-rule:evenodd;stroke:none"
           sodipodi:type="arc" />
        <path
           sodipodi:type="arc"
           style="fill:#ececec;fill-opacity:1;fill-rule:evenodd;stroke:none"
           id="path3023"
           sodipodi:cx="14.71666"
           sodipodi:cy="13.086601"
           sodipodi:rx="0.30935922"
           sodipodi:ry="0.35355341"
           d="m 15.026019,13.086601 a 0.30935922,0.35355341 0 1 1 -0.618719,0 0.30935922,0.35355341 0 1 1 0.618719,0 z"
           transform="matrix(0.44314865,0,0,0.57366073,371.96708,506.16681)" />
      </g>
      <g
         transform="matrix(0.94140473,0.33727901,-0.33727901,0.94140473,199.45843,-100.23599)"
         id="g3032">
        <path
           transform="translate(364.57143,499.79075)"
           d="m 15.026019,13.086601 c 0,0.195262 -0.138505,0.353554 -0.309359,0.353554 -0.170855,0 -0.30936,-0.158292 -0.30936,-0.353554 0,-0.195262 0.138505,-0.353553 0.30936,-0.353553 0.170854,0 0.309359,0.158291 0.309359,0.353553 z"
           sodipodi:ry="0.35355341"
           sodipodi:rx="0.30935922"
           sodipodi:cy="13.086601"
           sodipodi:cx="14.71666"
           id="path3034"
           style="fill:#ececec;fill-opacity:1;fill-rule:evenodd;stroke:none"
           sodipodi:type="arc" />
        <path
           sodipodi:type="arc"
           style="fill:#ececec;fill-opacity:1;fill-rule:evenodd;stroke:none"
           id="path3036"
           sodipodi:cx="14.71666"
           sodipodi:cy="13.086601"
           sodipodi:rx="0.30935922"
           sodipodi:ry="0.35355341"
           d="m 15.026019,13.086601 c 0,0.195262 -0.138505,0.353554 -0.309359,0.353554 -0.170855,0 -0.30936,-0.158292 -0.30936,-0.353554 0,-0.195262 0.138505,-0.353553 0.30936,-0.353553 0.170854,0 0.309359,0.158291 0.309359,0.353553 z"
           transform="matrix(0.72157434,0,0,0.87818878,370.02292,501.16951)" />
        <path
           transform="matrix(1.1392128,0,0,0.87818878,364.13508,500.17897)"
           d="m 15.026019,13.086601 c 0,0.195262 -0.138505,0.353554 -0.309359,0.353554 -0.170855,0 -0.30936,-0.158292 -0.30936,-0.353554 0,-0.195262 0.138505,-0.353553 0.30936,-0.353553 0.170854,0 0.309359,0.158291 0.309359,0.353553 z"
           sodipodi:ry="0.35355341"
           sodipodi:rx="0.30935922"
           sodipodi:cy="13.086601"
           sodipodi:cx="14.71666"
           id="path3038"
           style="fill:#ececec;fill-opacity:1;fill-rule:evenodd;stroke:none"
           sodipodi:type="arc" />
        <path
           sodipodi:type="arc"
           style="fill:#ececec;fill-opacity:1;fill-rule:evenodd;stroke:none"
           id="path3040"
           sodipodi:cx="14.71666"
           sodipodi:cy="13.086601"
           sodipodi:rx="0.30935922"
           sodipodi:ry="0.35355341"
           d="m 15.026019,13.086601 c 0,0.195262 -0.138505,0.353554 -0.309359,0.353554 -0.170855,0 -0.30936,-0.158292 -0.30936,-0.353554 0,-0.195262 0.138505,-0.353553 0.30936,-0.353553 0.170854,0 0.309359,0.158291 0.309359,0.353553 z"
           transform="matrix(0.72157431,0,0,0.57366073,367.99878,506.94201)" />
        <path
           transform="matrix(0.44314865,0,0,0.57366073,371.96708,506.16681)"
           d="m 15.026019,13.086601 c 0,0.195262 -0.138505,0.353554 -0.309359,0.353554 -0.170855,0 -0.30936,-0.158292 -0.30936,-0.353554 0,-0.195262 0.138505,-0.353553 0.30936,-0.353553 0.170854,0 0.309359,0.158291 0.309359,0.353553 z"
           sodipodi:ry="0.35355341"
           sodipodi:rx="0.30935922"
           sodipodi:cy="13.086601"
           sodipodi:cx="14.71666"
           id="path3042"
           style="fill:#ececec;fill-opacity:1;fill-rule:evenodd;stroke:none"
           sodipodi:type="arc" />
      </g>
      <g
         id="g3044"
         transform="matrix(-0.7737708,0.63346566,0.63346566,0.7737708,357.43274,-127.63815)">
        <path
           sodipodi:type="arc"
           style="fill:#ececec;fill-opacity:1;fill-rule:evenodd;stroke:none"
           id="path3046"
           sodipodi:cx="14.71666"
           sodipodi:cy="13.086601"
           sodipodi:rx="0.30935922"
           sodipodi:ry="0.35355341"
           d="m 15.026019,13.086601 c 0,0.195262 -0.138505,0.353554 -0.309359,0.353554 -0.170855,0 -0.30936,-0.158292 -0.30936,-0.353554 0,-0.195262 0.138505,-0.353553 0.30936,-0.353553 0.170854,0 0.309359,0.158291 0.309359,0.353553 z"
           transform="translate(364.57143,499.79075)" />
        <path
           transform="matrix(0.72157434,0,0,0.87818878,370.02292,501.16951)"
           d="m 15.026019,13.086601 c 0,0.195262 -0.138505,0.353554 -0.309359,0.353554 -0.170855,0 -0.30936,-0.158292 -0.30936,-0.353554 0,-0.195262 0.138505,-0.353553 0.30936,-0.353553 0.170854,0 0.309359,0.158291 0.309359,0.353553 z"
           sodipodi:ry="0.35355341"
           sodipodi:rx="0.30935922"
           sodipodi:cy="13.086601"
           sodipodi:cx="14.71666"
           id="path3048"
           style="fill:#ececec;fill-opacity:1;fill-rule:evenodd;stroke:none"
           sodipodi:type="arc" />
        <path
           sodipodi:type="arc"
           style="fill:#ececec;fill-opacity:1;fill-rule:evenodd;stroke:none"
           id="path3050"
           sodipodi:cx="14.71666"
           sodipodi:cy="13.086601"
           sodipodi:rx="0.30935922"
           sodipodi:ry="0.35355341"
           d="m 15.026019,13.086601 c 0,0.195262 -0.138505,0.353554 -0.309359,0.353554 -0.170855,0 -0.30936,-0.158292 -0.30936,-0.353554 0,-0.195262 0.138505,-0.353553 0.30936,-0.353553 0.170854,0 0.309359,0.158291 0.309359,0.353553 z"
           transform="matrix(1.1392128,0,0,0.87818878,364.13508,500.17897)" />
        <path
           transform="matrix(0.72157431,0,0,0.57366073,367.99878,506.94201)"
           d="m 15.026019,13.086601 c 0,0.195262 -0.138505,0.353554 -0.309359,0.353554 -0.170855,0 -0.30936,-0.158292 -0.30936,-0.353554 0,-0.195262 0.138505,-0.353553 0.30936,-0.353553 0.170854,0 0.309359,0.158291 0.309359,0.353553 z"
           sodipodi:ry="0.35355341"
           sodipodi:rx="0.30935922"
           sodipodi:cy="13.086601"
           sodipodi:cx="14.71666"
           id="path3052"
           style="fill:#ececec;fill-opacity:1;fill-rule:evenodd;stroke:none"
           sodipodi:type="arc" />
        <path
           sodipodi:type="arc"
           style="fill:#ececec;fill-opacity:1;fill-rule:evenodd;stroke:none"
           id="path3054"
           sodipodi:cx="14.71666"
           sodipodi:cy="13.086601"
           sodipodi:rx="0.30935922"
           sodipodi:ry="0.35355341"
           d="m 15.026019,13.086601 c 0,0.195262 -0.138505,0.353554 -0.309359,0.353554 -0.170855,0 -0.30936,-0.158292 -0.30936,-0.353554 0,-0.195262 0.138505,-0.353553 0.30936,-0.353553 0.170854,0 0.309359,0.158291 0.309359,0.353553 z"
           transform="matrix(0.44314865,0,0,0.57366073,371.96708,506.16681)" />
      </g>
      <g
         transform="matrix(-0.987442,0.13919584,0.15798195,0.87002226,686.85904,11.251911)"
         id="g3056">
        <path
           transform="translate(364.57143,499.79075)"
           d="m 15.026019,13.086601 c 0,0.195262 -0.138505,0.353554 -0.309359,0.353554 -0.170855,0 -0.30936,-0.158292 -0.30936,-0.353554 0,-0.195262 0.138505,-0.353553 0.30936,-0.353553 0.170854,0 0.309359,0.158291 0.309359,0.353553 z"
           sodipodi:ry="0.35355341"
           sodipodi:rx="0.30935922"
           sodipodi:cy="13.086601"
           sodipodi:cx="14.71666"
           id="path3058"
           style="fill:#ececec;fill-opacity:1;fill-rule:evenodd;stroke:none"
           sodipodi:type="arc" />
        <path
           sodipodi:type="arc"
           style="fill:#ececec;fill-opacity:1;fill-rule:evenodd;stroke:none"
           id="path3060"
           sodipodi:cx="14.71666"
           sodipodi:cy="13.086601"
           sodipodi:rx="0.30935922"
           sodipodi:ry="0.35355341"
           d="m 15.026019,13.086601 c 0,0.195262 -0.138505,0.353554 -0.309359,0.353554 -0.170855,0 -0.30936,-0.158292 -0.30936,-0.353554 0,-0.195262 0.138505,-0.353553 0.30936,-0.353553 0.170854,0 0.309359,0.158291 0.309359,0.353553 z"
           transform="matrix(0.72157434,0,0,0.87818878,370.02292,501.16951)" />
        <path
           transform="matrix(1.1392128,0,0,0.87818878,364.13508,500.17897)"
           d="m 15.026019,13.086601 c 0,0.195262 -0.138505,0.353554 -0.309359,0.353554 -0.170855,0 -0.30936,-0.158292 -0.30936,-0.353554 0,-0.195262 0.138505,-0.353553 0.30936,-0.353553 0.170854,0 0.309359,0.158291 0.309359,0.353553 z"
           sodipodi:ry="0.35355341"
           sodipodi:rx="0.30935922"
           sodipodi:cy="13.086601"
           sodipodi:cx="14.71666"
           id="path3062"
           style="fill:#ececec;fill-opacity:1;fill-rule:evenodd;stroke:none"
           sodipodi:type="arc" />
        <path
           sodipodi:type="arc"
           style="fill:#ececec;fill-opacity:1;fill-rule:evenodd;stroke:none"
           id="path3064"
           sodipodi:cx="14.71666"
           sodipodi:cy="13.086601"
           sodipodi:rx="0.30935922"
           sodipodi:ry="0.35355341"
           d="m 15.026019,13.086601 c 0,0.195262 -0.138505,0.353554 -0.309359,0.353554 -0.170855,0 -0.30936,-0.158292 -0.30936,-0.353554 0,-0.195262 0.138505,-0.353553 0.30936,-0.353553 0.170854,0 0.309359,0.158291 0.309359,0.353553 z"
           transform="matrix(0.72157431,0,0,0.57366073,367.99878,506.94201)" />
        <path
           transform="matrix(0.44314865,0,0,0.57366073,371.96708,506.16681)"
           d="m 15.026019,13.086601 c 0,0.195262 -0.138505,0.353554 -0.309359,0.353554 -0.170855,0 -0.30936,-0.158292 -0.30936,-0.353554 0,-0.195262 0.138505,-0.353553 0.30936,-0.353553 0.170854,0 0.309359,0.158291 0.309359,0.353553 z"
           sodipodi:ry="0.35355341"
           sodipodi:rx="0.30935922"
           sodipodi:cy="13.086601"
           sodipodi:cx="14.71666"
           id="path3066"
           style="fill:#ececec;fill-opacity:1;fill-rule:evenodd;stroke:none"
           sodipodi:type="arc" />
      </g>
      <g
         id="g3068"
         transform="matrix(0.35595907,0.9315097,-0.83783957,0.28270458,691.34545,13.851382)">
        <path
           sodipodi:type="arc"
           style="fill:#ececec;fill-opacity:1;fill-rule:evenodd;stroke:none"
           id="path3070"
           sodipodi:cx="14.71666"
           sodipodi:cy="13.086601"
           sodipodi:rx="0.30935922"
           sodipodi:ry="0.35355341"
           d="m 15.026019,13.086601 c 0,0.195262 -0.138505,0.353554 -0.309359,0.353554 -0.170855,0 -0.30936,-0.158292 -0.30936,-0.353554 0,-0.195262 0.138505,-0.353553 0.30936,-0.353553 0.170854,0 0.309359,0.158291 0.309359,0.353553 z"
           transform="translate(364.57143,499.79075)" />
        <path
           transform="matrix(0.72157434,0,0,0.87818878,370.02292,501.16951)"
           d="m 15.026019,13.086601 c 0,0.195262 -0.138505,0.353554 -0.309359,0.353554 -0.170855,0 -0.30936,-0.158292 -0.30936,-0.353554 0,-0.195262 0.138505,-0.353553 0.30936,-0.353553 0.170854,0 0.309359,0.158291 0.309359,0.353553 z"
           sodipodi:ry="0.35355341"
           sodipodi:rx="0.30935922"
           sodipodi:cy="13.086601"
           sodipodi:cx="14.71666"
           id="path3072"
           style="fill:#ececec;fill-opacity:1;fill-rule:evenodd;stroke:none"
           sodipodi:type="arc" />
        <path
           sodipodi:type="arc"
           style="fill:#ececec;fill-opacity:1;fill-rule:evenodd;stroke:none"
           id="path3074"
           sodipodi:cx="14.71666"
           sodipodi:cy="13.086601"
           sodipodi:rx="0.30935922"
           sodipodi:ry="0.35355341"
           d="m 15.026019,13.086601 c 0,0.195262 -0.138505,0.353554 -0.309359,0.353554 -0.170855,0 -0.30936,-0.158292 -0.30936,-0.353554 0,-0.195262 0.138505,-0.353553 0.30936,-0.353553 0.170854,0 0.309359,0.158291 0.309359,0.353553 z"
           transform="matrix(1.1392128,0,0,0.87818878,364.13508,500.17897)" />
        <path
           transform="matrix(0.72157431,0,0,0.57366073,367.99878,506.94201)"
           d="m 15.026019,13.086601 c 0,0.195262 -0.138505,0.353554 -0.309359,0.353554 -0.170855,0 -0.30936,-0.158292 -0.30936,-0.353554 0,-0.195262 0.138505,-0.353553 0.30936,-0.353553 0.170854,0 0.309359,0.158291 0.309359,0.353553 z"
           sodipodi:ry="0.35355341"
           sodipodi:rx="0.30935922"
           sodipodi:cy="13.086601"
           sodipodi:cx="14.71666"
           id="path3076"
           style="fill:#ececec;fill-opacity:1;fill-rule:evenodd;stroke:none"
           sodipodi:type="arc" />
        <path
           sodipodi:type="arc"
           style="fill:#ececec;fill-opacity:1;fill-rule:evenodd;stroke:none"
           id="path3078"
           sodipodi:cx="14.71666"
           sodipodi:cy="13.086601"
           sodipodi:rx="0.30935922"
           sodipodi:ry="0.35355341"
           d="m 15.026019,13.086601 c 0,0.195262 -0.138505,0.353554 -0.309359,0.353554 -0.170855,0 -0.30936,-0.158292 -0.30936,-0.353554 0,-0.195262 0.138505,-0.353553 0.30936,-0.353553 0.170854,0 0.309359,0.158291 0.309359,0.353553 z"
           transform="matrix(0.44314865,0,0,0.57366073,371.96708,506.16681)" />
      </g>
    </g>
    <g
       id="g3112"
       transform="matrix(-0.00434933,0.99999054,-0.99999054,-0.00434933,914.00076,137.70833)">
      <g
         id="g3114">
        <path
           transform="translate(364.57143,499.79075)"
           d="m 15.026019,13.086601 c 0,0.195262 -0.138505,0.353554 -0.309359,0.353554 -0.170855,0 -0.30936,-0.158292 -0.30936,-0.353554 0,-0.195262 0.138505,-0.353553 0.30936,-0.353553 0.170854,0 0.309359,0.158291 0.309359,0.353553 z"
           sodipodi:ry="0.35355341"
           sodipodi:rx="0.30935922"
           sodipodi:cy="13.086601"
           sodipodi:cx="14.71666"
           id="path3116"
           style="fill:#ececec;fill-opacity:1;fill-rule:evenodd;stroke:none"
           sodipodi:type="arc" />
        <path
           sodipodi:type="arc"
           style="fill:#ececec;fill-opacity:1;fill-rule:evenodd;stroke:none"
           id="path3118"
           sodipodi:cx="14.71666"
           sodipodi:cy="13.086601"
           sodipodi:rx="0.30935922"
           sodipodi:ry="0.35355341"
           d="m 15.026019,13.086601 c 0,0.195262 -0.138505,0.353554 -0.309359,0.353554 -0.170855,0 -0.30936,-0.158292 -0.30936,-0.353554 0,-0.195262 0.138505,-0.353553 0.30936,-0.353553 0.170854,0 0.309359,0.158291 0.309359,0.353553 z"
           transform="matrix(0.72157434,0,0,0.87818878,370.02292,501.16951)" />
        <path
           transform="matrix(1.1392128,0,0,0.87818878,364.13508,500.17897)"
           d="m 15.026019,13.086601 c 0,0.195262 -0.138505,0.353554 -0.309359,0.353554 -0.170855,0 -0.30936,-0.158292 -0.30936,-0.353554 0,-0.195262 0.138505,-0.353553 0.30936,-0.353553 0.170854,0 0.309359,0.158291 0.309359,0.353553 z"
           sodipodi:ry="0.35355341"
           sodipodi:rx="0.30935922"
           sodipodi:cy="13.086601"
           sodipodi:cx="14.71666"
           id="path3120"
           style="fill:#ececec;fill-opacity:1;fill-rule:evenodd;stroke:none"
           sodipodi:type="arc" />
        <path
           sodipodi:type="arc"
           style="fill:#ececec;fill-opacity:1;fill-rule:evenodd;stroke:none"
           id="path3122"
           sodipodi:cx="14.71666"
           sodipodi:cy="13.086601"
           sodipodi:rx="0.30935922"
           sodipodi:ry="0.35355341"
           d="m 15.026019,13.086601 c 0,0.195262 -0.138505,0.353554 -0.309359,0.353554 -0.170855,0 -0.30936,-0.158292 -0.30936,-0.353554 0,-0.195262 0.138505,-0.353553 0.30936,-0.353553 0.170854,0 0.309359,0.158291 0.309359,0.353553 z"
           transform="matrix(0.72157431,0,0,0.57366073,367.99878,506.94201)" />
        <path
           transform="matrix(0.44314865,0,0,0.57366073,371.96708,506.16681)"
           d="m 15.026019,13.086601 c 0,0.195262 -0.138505,0.353554 -0.309359,0.353554 -0.170855,0 -0.30936,-0.158292 -0.30936,-0.353554 0,-0.195262 0.138505,-0.353553 0.30936,-0.353553 0.170854,0 0.309359,0.158291 0.309359,0.353553 z"
           sodipodi:ry="0.35355341"
           sodipodi:rx="0.30935922"
           sodipodi:cy="13.086601"
           sodipodi:cx="14.71666"
           id="path3124"
           style="fill:#ececec;fill-opacity:1;fill-rule:evenodd;stroke:none"
           sodipodi:type="arc" />
      </g>
      <g
         id="g3126"
         transform="matrix(0.94140473,0.33727901,-0.33727901,0.94140473,199.45843,-100.23599)">
        <path
           sodipodi:type="arc"
           style="fill:#ececec;fill-opacity:1;fill-rule:evenodd;stroke:none"
           id="path3128"
           sodipodi:cx="14.71666"
           sodipodi:cy="13.086601"
           sodipodi:rx="0.30935922"
           sodipodi:ry="0.35355341"
           d="m 15.026019,13.086601 c 0,0.195262 -0.138505,0.353554 -0.309359,0.353554 -0.170855,0 -0.30936,-0.158292 -0.30936,-0.353554 0,-0.195262 0.138505,-0.353553 0.30936,-0.353553 0.170854,0 0.309359,0.158291 0.309359,0.353553 z"
           transform="translate(364.57143,499.79075)" />
        <path
           transform="matrix(0.72157434,0,0,0.87818878,370.02292,501.16951)"
           d="m 15.026019,13.086601 c 0,0.195262 -0.138505,0.353554 -0.309359,0.353554 -0.170855,0 -0.30936,-0.158292 -0.30936,-0.353554 0,-0.195262 0.138505,-0.353553 0.30936,-0.353553 0.170854,0 0.309359,0.158291 0.309359,0.353553 z"
           sodipodi:ry="0.35355341"
           sodipodi:rx="0.30935922"
           sodipodi:cy="13.086601"
           sodipodi:cx="14.71666"
           id="path3130"
           style="fill:#ececec;fill-opacity:1;fill-rule:evenodd;stroke:none"
           sodipodi:type="arc" />
        <path
           sodipodi:type="arc"
           style="fill:#ececec;fill-opacity:1;fill-rule:evenodd;stroke:none"
           id="path3132"
           sodipodi:cx="14.71666"
           sodipodi:cy="13.086601"
           sodipodi:rx="0.30935922"
           sodipodi:ry="0.35355341"
           d="m 15.026019,13.086601 c 0,0.195262 -0.138505,0.353554 -0.309359,0.353554 -0.170855,0 -0.30936,-0.158292 -0.30936,-0.353554 0,-0.195262 0.138505,-0.353553 0.30936,-0.353553 0.170854,0 0.309359,0.158291 0.309359,0.353553 z"
           transform="matrix(1.1392128,0,0,0.87818878,364.13508,500.17897)" />
        <path
           transform="matrix(0.72157431,0,0,0.57366073,367.99878,506.94201)"
           d="m 15.026019,13.086601 c 0,0.195262 -0.138505,0.353554 -0.309359,0.353554 -0.170855,0 -0.30936,-0.158292 -0.30936,-0.353554 0,-0.195262 0.138505,-0.353553 0.30936,-0.353553 0.170854,0 0.309359,0.158291 0.309359,0.353553 z"
           sodipodi:ry="0.35355341"
           sodipodi:rx="0.30935922"
           sodipodi:cy="13.086601"
           sodipodi:cx="14.71666"
           id="path3134"
           style="fill:#ececec;fill-opacity:1;fill-rule:evenodd;stroke:none"
           sodipodi:type="arc" />
        <path
           sodipodi:type="arc"
           style="fill:#ececec;fill-opacity:1;fill-rule:evenodd;stroke:none"
           id="path3136"
           sodipodi:cx="14.71666"
           sodipodi:cy="13.086601"
           sodipodi:rx="0.30935922"
           sodipodi:ry="0.35355341"
           d="m 15.026019,13.086601 c 0,0.195262 -0.138505,0.353554 -0.309359,0.353554 -0.170855,0 -0.30936,-0.158292 -0.30936,-0.353554 0,-0.195262 0.138505,-0.353553 0.30936,-0.353553 0.170854,0 0.309359,0.158291 0.309359,0.353553 z"
           transform="matrix(0.44314865,0,0,0.57366073,371.96708,506.16681)" />
      </g>
      <g
         transform="matrix(-0.7737708,0.63346566,0.63346566,0.7737708,357.43274,-127.63815)"
         id="g3138">
        <path
           transform="translate(364.57143,499.79075)"
           d="m 15.026019,13.086601 c 0,0.195262 -0.138505,0.353554 -0.309359,0.353554 -0.170855,0 -0.30936,-0.158292 -0.30936,-0.353554 0,-0.195262 0.138505,-0.353553 0.30936,-0.353553 0.170854,0 0.309359,0.158291 0.309359,0.353553 z"
           sodipodi:ry="0.35355341"
           sodipodi:rx="0.30935922"
           sodipodi:cy="13.086601"
           sodipodi:cx="14.71666"
           id="path3140"
           style="fill:#ececec;fill-opacity:1;fill-rule:evenodd;stroke:none"
           sodipodi:type="arc" />
        <path
           sodipodi:type="arc"
           style="fill:#ececec;fill-opacity:1;fill-rule:evenodd;stroke:none"
           id="path3142"
           sodipodi:cx="14.71666"
           sodipodi:cy="13.086601"
           sodipodi:rx="0.30935922"
           sodipodi:ry="0.35355341"
           d="m 15.026019,13.086601 c 0,0.195262 -0.138505,0.353554 -0.309359,0.353554 -0.170855,0 -0.30936,-0.158292 -0.30936,-0.353554 0,-0.195262 0.138505,-0.353553 0.30936,-0.353553 0.170854,0 0.309359,0.158291 0.309359,0.353553 z"
           transform="matrix(0.72157434,0,0,0.87818878,370.02292,501.16951)" />
        <path
           transform="matrix(1.1392128,0,0,0.87818878,364.13508,500.17897)"
           d="m 15.026019,13.086601 c 0,0.195262 -0.138505,0.353554 -0.309359,0.353554 -0.170855,0 -0.30936,-0.158292 -0.30936,-0.353554 0,-0.195262 0.138505,-0.353553 0.30936,-0.353553 0.170854,0 0.309359,0.158291 0.309359,0.353553 z"
           sodipodi:ry="0.35355341"
           sodipodi:rx="0.30935922"
           sodipodi:cy="13.086601"
           sodipodi:cx="14.71666"
           id="path3144"
           style="fill:#ececec;fill-opacity:1;fill-rule:evenodd;stroke:none"
           sodipodi:type="arc" />
        <path
           sodipodi:type="arc"
           style="fill:#ececec;fill-opacity:1;fill-rule:evenodd;stroke:none"
           id="path3146"
           sodipodi:cx="14.71666"
           sodipodi:cy="13.086601"
           sodipodi:rx="0.30935922"
           sodipodi:ry="0.35355341"
           d="m 15.026019,13.086601 c 0,0.195262 -0.138505,0.353554 -0.309359,0.353554 -0.170855,0 -0.30936,-0.158292 -0.30936,-0.353554 0,-0.195262 0.138505,-0.353553 0.30936,-0.353553 0.170854,0 0.309359,0.158291 0.309359,0.353553 z"
           transform="matrix(0.72157431,0,0,0.57366073,367.99878,506.94201)" />
        <path
           transform="matrix(0.44314865,0,0,0.57366073,371.96708,506.16681)"
           d="m 15.026019,13.086601 c 0,0.195262 -0.138505,0.353554 -0.309359,0.353554 -0.170855,0 -0.30936,-0.158292 -0.30936,-0.353554 0,-0.195262 0.138505,-0.353553 0.30936,-0.353553 0.170854,0 0.309359,0.158291 0.309359,0.353553 z"
           sodipodi:ry="0.35355341"
           sodipodi:rx="0.30935922"
           sodipodi:cy="13.086601"
           sodipodi:cx="14.71666"
           id="path3148"
           style="fill:#ececec;fill-opacity:1;fill-rule:evenodd;stroke:none"
           sodipodi:type="arc" />
      </g>
      <g
         id="g3150"
         transform="matrix(-0.987442,0.13919584,0.15798195,0.87002226,686.85904,11.251911)">
        <path
           sodipodi:type="arc"
           style="fill:#ececec;fill-opacity:1;fill-rule:evenodd;stroke:none"
           id="path3152"
           sodipodi:cx="14.71666"
           sodipodi:cy="13.086601"
           sodipodi:rx="0.30935922"
           sodipodi:ry="0.35355341"
           d="m 15.026019,13.086601 c 0,0.195262 -0.138505,0.353554 -0.309359,0.353554 -0.170855,0 -0.30936,-0.158292 -0.30936,-0.353554 0,-0.195262 0.138505,-0.353553 0.30936,-0.353553 0.170854,0 0.309359,0.158291 0.309359,0.353553 z"
           transform="translate(364.57143,499.79075)" />
        <path
           transform="matrix(0.72157434,0,0,0.87818878,370.02292,501.16951)"
           d="m 15.026019,13.086601 c 0,0.195262 -0.138505,0.353554 -0.309359,0.353554 -0.170855,0 -0.30936,-0.158292 -0.30936,-0.353554 0,-0.195262 0.138505,-0.353553 0.30936,-0.353553 0.170854,0 0.309359,0.158291 0.309359,0.353553 z"
           sodipodi:ry="0.35355341"
           sodipodi:rx="0.30935922"
           sodipodi:cy="13.086601"
           sodipodi:cx="14.71666"
           id="path3154"
           style="fill:#ececec;fill-opacity:1;fill-rule:evenodd;stroke:none"
           sodipodi:type="arc" />
        <path
           sodipodi:type="arc"
           style="fill:#ececec;fill-opacity:1;fill-rule:evenodd;stroke:none"
           id="path3156"
           sodipodi:cx="14.71666"
           sodipodi:cy="13.086601"
           sodipodi:rx="0.30935922"
           sodipodi:ry="0.35355341"
           d="m 15.026019,13.086601 c 0,0.195262 -0.138505,0.353554 -0.309359,0.353554 -0.170855,0 -0.30936,-0.158292 -0.30936,-0.353554 0,-0.195262 0.138505,-0.353553 0.30936,-0.353553 0.170854,0 0.309359,0.158291 0.309359,0.353553 z"
           transform="matrix(1.1392128,0,0,0.87818878,364.13508,500.17897)" />
        <path
           transform="matrix(0.72157431,0,0,0.57366073,367.99878,506.94201)"
           d="m 15.026019,13.086601 c 0,0.195262 -0.138505,0.353554 -0.309359,0.353554 -0.170855,0 -0.30936,-0.158292 -0.30936,-0.353554 0,-0.195262 0.138505,-0.353553 0.30936,-0.353553 0.170854,0 0.309359,0.158291 0.309359,0.353553 z"
           sodipodi:ry="0.35355341"
           sodipodi:rx="0.30935922"
           sodipodi:cy="13.086601"
           sodipodi:cx="14.71666"
           id="path3158"
           style="fill:#ececec;fill-opacity:1;fill-rule:evenodd;stroke:none"
           sodipodi:type="arc" />
        <path
           sodipodi:type="arc"
           style="fill:#ececec;fill-opacity:1;fill-rule:evenodd;stroke:none"
           id="path3160"
           sodipodi:cx="14.71666"
           sodipodi:cy="13.086601"
           sodipodi:rx="0.30935922"
           sodipodi:ry="0.35355341"
           d="m 15.026019,13.086601 c 0,0.195262 -0.138505,0.353554 -0.309359,0.353554 -0.170855,0 -0.30936,-0.158292 -0.30936,-0.353554 0,-0.195262 0.138505,-0.353553 0.30936,-0.353553 0.170854,0 0.309359,0.158291 0.309359,0.353553 z"
           transform="matrix(0.44314865,0,0,0.57366073,371.96708,506.16681)" />
      </g>
      <g
         transform="matrix(0.35595907,0.9315097,-0.83783957,0.28270458,691.34545,13.851382)"
         id="g3162">
        <path
           transform="translate(364.57143,499.79075)"
           d="m 15.026019,13.086601 c 0,0.195262 -0.138505,0.353554 -0.309359,0.353554 -0.170855,0 -0.30936,-0.158292 -0.30936,-0.353554 0,-0.195262 0.138505,-0.353553 0.30936,-0.353553 0.170854,0 0.309359,0.158291 0.309359,0.353553 z"
           sodipodi:ry="0.35355341"
           sodipodi:rx="0.30935922"
           sodipodi:cy="13.086601"
           sodipodi:cx="14.71666"
           id="path3164"
           style="fill:#ececec;fill-opacity:1;fill-rule:evenodd;stroke:none"
           sodipodi:type="arc" />
        <path
           sodipodi:type="arc"
           style="fill:#ececec;fill-opacity:1;fill-rule:evenodd;stroke:none"
           id="path3166"
           sodipodi:cx="14.71666"
           sodipodi:cy="13.086601"
           sodipodi:rx="0.30935922"
           sodipodi:ry="0.35355341"
           d="m 15.026019,13.086601 c 0,0.195262 -0.138505,0.353554 -0.309359,0.353554 -0.170855,0 -0.30936,-0.158292 -0.30936,-0.353554 0,-0.195262 0.138505,-0.353553 0.30936,-0.353553 0.170854,0 0.309359,0.158291 0.309359,0.353553 z"
           transform="matrix(0.72157434,0,0,0.87818878,370.02292,501.16951)" />
        <path
           transform="matrix(1.1392128,0,0,0.87818878,364.13508,500.17897)"
           d="m 15.026019,13.086601 c 0,0.195262 -0.138505,0.353554 -0.309359,0.353554 -0.170855,0 -0.30936,-0.158292 -0.30936,-0.353554 0,-0.195262 0.138505,-0.353553 0.30936,-0.353553 0.170854,0 0.309359,0.158291 0.309359,0.353553 z"
           sodipodi:ry="0.35355341"
           sodipodi:rx="0.30935922"
           sodipodi:cy="13.086601"
           sodipodi:cx="14.71666"
           id="path3168"
           style="fill:#ececec;fill-opacity:1;fill-rule:evenodd;stroke:none"
           sodipodi:type="arc" />
        <path
           sodipodi:type="arc"
           style="fill:#ececec;fill-opacity:1;fill-rule:evenodd;stroke:none"
           id="path3170"
           sodipodi:cx="14.71666"
           sodipodi:cy="13.086601"
           sodipodi:rx="0.30935922"
           sodipodi:ry="0.35355341"
           d="m 15.026019,13.086601 c 0,0.195262 -0.138505,0.353554 -0.309359,0.353554 -0.170855,0 -0.30936,-0.158292 -0.30936,-0.353554 0,-0.195262 0.138505,-0.353553 0.30936,-0.353553 0.170854,0 0.309359,0.158291 0.309359,0.353553 z"
           transform="matrix(0.72157431,0,0,0.57366073,367.99878,506.94201)" />
        <path
           transform="matrix(0.44314865,0,0,0.57366073,371.96708,506.16681)"
           d="m 15.026019,13.086601 c 0,0.195262 -0.138505,0.353554 -0.309359,0.353554 -0.170855,0 -0.30936,-0.158292 -0.30936,-0.353554 0,-0.195262 0.138505,-0.353553 0.30936,-0.353553 0.170854,0 0.309359,0.158291 0.309359,0.353553 z"
           sodipodi:ry="0.35355341"
           sodipodi:rx="0.30935922"
           sodipodi:cy="13.086601"
           sodipodi:cx="14.71666"
           id="path3172"
           style="fill:#ececec;fill-opacity:1;fill-rule:evenodd;stroke:none"
           sodipodi:type="arc" />
      </g>
    </g>
    <g
       transform="matrix(-0.99312035,-0.11709814,0.11709814,-0.99312035,713.43746,1089.2061)"
       id="g3174">
      <g
         id="g3176">
        <path
           sodipodi:type="arc"
           style="fill:#ececec;fill-opacity:1;fill-rule:evenodd;stroke:none"
           id="path3178"
           sodipodi:cx="14.71666"
           sodipodi:cy="13.086601"
           sodipodi:rx="0.30935922"
           sodipodi:ry="0.35355341"
           d="m 15.026019,13.086601 c 0,0.195262 -0.138505,0.353554 -0.309359,0.353554 -0.170855,0 -0.30936,-0.158292 -0.30936,-0.353554 0,-0.195262 0.138505,-0.353553 0.30936,-0.353553 0.170854,0 0.309359,0.158291 0.309359,0.353553 z"
           transform="translate(364.57143,499.79075)" />
        <path
           transform="matrix(0.72157434,0,0,0.87818878,370.02292,501.16951)"
           d="m 15.026019,13.086601 c 0,0.195262 -0.138505,0.353554 -0.309359,0.353554 -0.170855,0 -0.30936,-0.158292 -0.30936,-0.353554 0,-0.195262 0.138505,-0.353553 0.30936,-0.353553 0.170854,0 0.309359,0.158291 0.309359,0.353553 z"
           sodipodi:ry="0.35355341"
           sodipodi:rx="0.30935922"
           sodipodi:cy="13.086601"
           sodipodi:cx="14.71666"
           id="path3180"
           style="fill:#ececec;fill-opacity:1;fill-rule:evenodd;stroke:none"
           sodipodi:type="arc" />
        <path
           sodipodi:type="arc"
           style="fill:#ececec;fill-opacity:1;fill-rule:evenodd;stroke:none"
           id="path3182"
           sodipodi:cx="14.71666"
           sodipodi:cy="13.086601"
           sodipodi:rx="0.30935922"
           sodipodi:ry="0.35355341"
           d="m 15.026019,13.086601 c 0,0.195262 -0.138505,0.353554 -0.309359,0.353554 -0.170855,0 -0.30936,-0.158292 -0.30936,-0.353554 0,-0.195262 0.138505,-0.353553 0.30936,-0.353553 0.170854,0 0.309359,0.158291 0.309359,0.353553 z"
           transform="matrix(1.1392128,0,0,0.87818878,364.13508,500.17897)" />
        <path
           transform="matrix(0.72157431,0,0,0.57366073,367.99878,506.94201)"
           d="m 15.026019,13.086601 c 0,0.195262 -0.138505,0.353554 -0.309359,0.353554 -0.170855,0 -0.30936,-0.158292 -0.30936,-0.353554 0,-0.195262 0.138505,-0.353553 0.30936,-0.353553 0.170854,0 0.309359,0.158291 0.309359,0.353553 z"
           sodipodi:ry="0.35355341"
           sodipodi:rx="0.30935922"
           sodipodi:cy="13.086601"
           sodipodi:cx="14.71666"
           id="path3184"
           style="fill:#ececec;fill-opacity:1;fill-rule:evenodd;stroke:none"
           sodipodi:type="arc" />
        <path
           sodipodi:type="arc"
           style="fill:#ececec;fill-opacity:1;fill-rule:evenodd;stroke:none"
           id="path3186"
           sodipodi:cx="14.71666"
           sodipodi:cy="13.086601"
           sodipodi:rx="0.30935922"
           sodipodi:ry="0.35355341"
           d="m 15.026019,13.086601 c 0,0.195262 -0.138505,0.353554 -0.309359,0.353554 -0.170855,0 -0.30936,-0.158292 -0.30936,-0.353554 0,-0.195262 0.138505,-0.353553 0.30936,-0.353553 0.170854,0 0.309359,0.158291 0.309359,0.353553 z"
           transform="matrix(0.44314865,0,0,0.57366073,371.96708,506.16681)" />
      </g>
      <g
         transform="matrix(0.94140473,0.33727901,-0.33727901,0.94140473,199.45843,-100.23599)"
         id="g3188">
        <path
           transform="translate(364.57143,499.79075)"
           d="m 15.026019,13.086601 c 0,0.195262 -0.138505,0.353554 -0.309359,0.353554 -0.170855,0 -0.30936,-0.158292 -0.30936,-0.353554 0,-0.195262 0.138505,-0.353553 0.30936,-0.353553 0.170854,0 0.309359,0.158291 0.309359,0.353553 z"
           sodipodi:ry="0.35355341"
           sodipodi:rx="0.30935922"
           sodipodi:cy="13.086601"
           sodipodi:cx="14.71666"
           id="path3190"
           style="fill:#ececec;fill-opacity:1;fill-rule:evenodd;stroke:none"
           sodipodi:type="arc" />
        <path
           sodipodi:type="arc"
           style="fill:#ececec;fill-opacity:1;fill-rule:evenodd;stroke:none"
           id="path3192"
           sodipodi:cx="14.71666"
           sodipodi:cy="13.086601"
           sodipodi:rx="0.30935922"
           sodipodi:ry="0.35355341"
           d="m 15.026019,13.086601 c 0,0.195262 -0.138505,0.353554 -0.309359,0.353554 -0.170855,0 -0.30936,-0.158292 -0.30936,-0.353554 0,-0.195262 0.138505,-0.353553 0.30936,-0.353553 0.170854,0 0.309359,0.158291 0.309359,0.353553 z"
           transform="matrix(0.72157434,0,0,0.87818878,370.02292,501.16951)" />
        <path
           transform="matrix(1.1392128,0,0,0.87818878,364.13508,500.17897)"
           d="m 15.026019,13.086601 c 0,0.195262 -0.138505,0.353554 -0.309359,0.353554 -0.170855,0 -0.30936,-0.158292 -0.30936,-0.353554 0,-0.195262 0.138505,-0.353553 0.30936,-0.353553 0.170854,0 0.309359,0.158291 0.309359,0.353553 z"
           sodipodi:ry="0.35355341"
           sodipodi:rx="0.30935922"
           sodipodi:cy="13.086601"
           sodipodi:cx="14.71666"
           id="path3194"
           style="fill:#ececec;fill-opacity:1;fill-rule:evenodd;stroke:none"
           sodipodi:type="arc" />
        <path
           sodipodi:type="arc"
           style="fill:#ececec;fill-opacity:1;fill-rule:evenodd;stroke:none"
           id="path3196"
           sodipodi:cx="14.71666"
           sodipodi:cy="13.086601"
           sodipodi:rx="0.30935922"
           sodipodi:ry="0.35355341"
           d="m 15.026019,13.086601 c 0,0.195262 -0.138505,0.353554 -0.309359,0.353554 -0.170855,0 -0.30936,-0.158292 -0.30936,-0.353554 0,-0.195262 0.138505,-0.353553 0.30936,-0.353553 0.170854,0 0.309359,0.158291 0.309359,0.353553 z"
           transform="matrix(0.72157431,0,0,0.57366073,367.99878,506.94201)" />
        <path
           transform="matrix(0.44314865,0,0,0.57366073,371.96708,506.16681)"
           d="m 15.026019,13.086601 c 0,0.195262 -0.138505,0.353554 -0.309359,0.353554 -0.170855,0 -0.30936,-0.158292 -0.30936,-0.353554 0,-0.195262 0.138505,-0.353553 0.30936,-0.353553 0.170854,0 0.309359,0.158291 0.309359,0.353553 z"
           sodipodi:ry="0.35355341"
           sodipodi:rx="0.30935922"
           sodipodi:cy="13.086601"
           sodipodi:cx="14.71666"
           id="path3198"
           style="fill:#ececec;fill-opacity:1;fill-rule:evenodd;stroke:none"
           sodipodi:type="arc" />
      </g>
      <g
         id="g3200"
         transform="matrix(-0.7737708,0.63346566,0.63346566,0.7737708,357.43274,-127.63815)">
        <path
           sodipodi:type="arc"
           style="fill:#ececec;fill-opacity:1;fill-rule:evenodd;stroke:none"
           id="path3202"
           sodipodi:cx="14.71666"
           sodipodi:cy="13.086601"
           sodipodi:rx="0.30935922"
           sodipodi:ry="0.35355341"
           d="m 15.026019,13.086601 c 0,0.195262 -0.138505,0.353554 -0.309359,0.353554 -0.170855,0 -0.30936,-0.158292 -0.30936,-0.353554 0,-0.195262 0.138505,-0.353553 0.30936,-0.353553 0.170854,0 0.309359,0.158291 0.309359,0.353553 z"
           transform="translate(364.57143,499.79075)" />
        <path
           transform="matrix(0.72157434,0,0,0.87818878,370.02292,501.16951)"
           d="m 15.026019,13.086601 c 0,0.195262 -0.138505,0.353554 -0.309359,0.353554 -0.170855,0 -0.30936,-0.158292 -0.30936,-0.353554 0,-0.195262 0.138505,-0.353553 0.30936,-0.353553 0.170854,0 0.309359,0.158291 0.309359,0.353553 z"
           sodipodi:ry="0.35355341"
           sodipodi:rx="0.30935922"
           sodipodi:cy="13.086601"
           sodipodi:cx="14.71666"
           id="path3204"
           style="fill:#ececec;fill-opacity:1;fill-rule:evenodd;stroke:none"
           sodipodi:type="arc" />
        <path
           sodipodi:type="arc"
           style="fill:#ececec;fill-opacity:1;fill-rule:evenodd;stroke:none"
           id="path3206"
           sodipodi:cx="14.71666"
           sodipodi:cy="13.086601"
           sodipodi:rx="0.30935922"
           sodipodi:ry="0.35355341"
           d="m 15.026019,13.086601 c 0,0.195262 -0.138505,0.353554 -0.309359,0.353554 -0.170855,0 -0.30936,-0.158292 -0.30936,-0.353554 0,-0.195262 0.138505,-0.353553 0.30936,-0.353553 0.170854,0 0.309359,0.158291 0.309359,0.353553 z"
           transform="matrix(1.1392128,0,0,0.87818878,364.13508,500.17897)" />
        <path
           transform="matrix(0.72157431,0,0,0.57366073,367.99878,506.94201)"
           d="m 15.026019,13.086601 c 0,0.195262 -0.138505,0.353554 -0.309359,0.353554 -0.170855,0 -0.30936,-0.158292 -0.30936,-0.353554 0,-0.195262 0.138505,-0.353553 0.30936,-0.353553 0.170854,0 0.309359,0.158291 0.309359,0.353553 z"
           sodipodi:ry="0.35355341"
           sodipodi:rx="0.30935922"
           sodipodi:cy="13.086601"
           sodipodi:cx="14.71666"
           id="path3208"
           style="fill:#ececec;fill-opacity:1;fill-rule:evenodd;stroke:none"
           sodipodi:type="arc" />
        <path
           sodipodi:type="arc"
           style="fill:#ececec;fill-opacity:1;fill-rule:evenodd;stroke:none"
           id="path3210"
           sodipodi:cx="14.71666"
           sodipodi:cy="13.086601"
           sodipodi:rx="0.30935922"
           sodipodi:ry="0.35355341"
           d="m 15.026019,13.086601 c 0,0.195262 -0.138505,0.353554 -0.309359,0.353554 -0.170855,0 -0.30936,-0.158292 -0.30936,-0.353554 0,-0.195262 0.138505,-0.353553 0.30936,-0.353553 0.170854,0 0.309359,0.158291 0.309359,0.353553 z"
           transform="matrix(0.44314865,0,0,0.57366073,371.96708,506.16681)" />
      </g>
      <g
         transform="matrix(-0.987442,0.13919584,0.15798195,0.87002226,686.85904,11.251911)"
         id="g3212">
        <path
           transform="translate(364.57143,499.79075)"
           d="m 15.026019,13.086601 c 0,0.195262 -0.138505,0.353554 -0.309359,0.353554 -0.170855,0 -0.30936,-0.158292 -0.30936,-0.353554 0,-0.195262 0.138505,-0.353553 0.30936,-0.353553 0.170854,0 0.309359,0.158291 0.309359,0.353553 z"
           sodipodi:ry="0.35355341"
           sodipodi:rx="0.30935922"
           sodipodi:cy="13.086601"
           sodipodi:cx="14.71666"
           id="path3214"
           style="fill:#ececec;fill-opacity:1;fill-rule:evenodd;stroke:none"
           sodipodi:type="arc" />
        <path
           sodipodi:type="arc"
           style="fill:#ececec;fill-opacity:1;fill-rule:evenodd;stroke:none"
           id="path3216"
           sodipodi:cx="14.71666"
           sodipodi:cy="13.086601"
           sodipodi:rx="0.30935922"
           sodipodi:ry="0.35355341"
           d="m 15.026019,13.086601 c 0,0.195262 -0.138505,0.353554 -0.309359,0.353554 -0.170855,0 -0.30936,-0.158292 -0.30936,-0.353554 0,-0.195262 0.138505,-0.353553 0.30936,-0.353553 0.170854,0 0.309359,0.158291 0.309359,0.353553 z"
           transform="matrix(0.72157434,0,0,0.87818878,370.02292,501.16951)" />
        <path
           transform="matrix(1.1392128,0,0,0.87818878,364.13508,500.17897)"
           d="m 15.026019,13.086601 c 0,0.195262 -0.138505,0.353554 -0.309359,0.353554 -0.170855,0 -0.30936,-0.158292 -0.30936,-0.353554 0,-0.195262 0.138505,-0.353553 0.30936,-0.353553 0.170854,0 0.309359,0.158291 0.309359,0.353553 z"
           sodipodi:ry="0.35355341"
           sodipodi:rx="0.30935922"
           sodipodi:cy="13.086601"
           sodipodi:cx="14.71666"
           id="path3218"
           style="fill:#ececec;fill-opacity:1;fill-rule:evenodd;stroke:none"
           sodipodi:type="arc" />
        <path
           sodipodi:type="arc"
           style="fill:#ececec;fill-opacity:1;fill-rule:evenodd;stroke:none"
           id="path3220"
           sodipodi:cx="14.71666"
           sodipodi:cy="13.086601"
           sodipodi:rx="0.30935922"
           sodipodi:ry="0.35355341"
           d="m 15.026019,13.086601 c 0,0.195262 -0.138505,0.353554 -0.309359,0.353554 -0.170855,0 -0.30936,-0.158292 -0.30936,-0.353554 0,-0.195262 0.138505,-0.353553 0.30936,-0.353553 0.170854,0 0.309359,0.158291 0.309359,0.353553 z"
           transform="matrix(0.72157431,0,0,0.57366073,367.99878,506.94201)" />
        <path
           transform="matrix(0.44314865,0,0,0.57366073,371.96708,506.16681)"
           d="m 15.026019,13.086601 c 0,0.195262 -0.138505,0.353554 -0.309359,0.353554 -0.170855,0 -0.30936,-0.158292 -0.30936,-0.353554 0,-0.195262 0.138505,-0.353553 0.30936,-0.353553 0.170854,0 0.309359,0.158291 0.309359,0.353553 z"
           sodipodi:ry="0.35355341"
           sodipodi:rx="0.30935922"
           sodipodi:cy="13.086601"
           sodipodi:cx="14.71666"
           id="path3222"
           style="fill:#ececec;fill-opacity:1;fill-rule:evenodd;stroke:none"
           sodipodi:type="arc" />
      </g>
      <g
         id="g3224"
         transform="matrix(0.35595907,0.9315097,-0.83783957,0.28270458,691.34545,13.851382)">
        <path
           sodipodi:type="arc"
           style="fill:#ececec;fill-opacity:1;fill-rule:evenodd;stroke:none"
           id="path3226"
           sodipodi:cx="14.71666"
           sodipodi:cy="13.086601"
           sodipodi:rx="0.30935922"
           sodipodi:ry="0.35355341"
           d="m 15.026019,13.086601 c 0,0.195262 -0.138505,0.353554 -0.309359,0.353554 -0.170855,0 -0.30936,-0.158292 -0.30936,-0.353554 0,-0.195262 0.138505,-0.353553 0.30936,-0.353553 0.170854,0 0.309359,0.158291 0.309359,0.353553 z"
           transform="translate(364.57143,499.79075)" />
        <path
           transform="matrix(0.72157434,0,0,0.87818878,370.02292,501.16951)"
           d="m 15.026019,13.086601 c 0,0.195262 -0.138505,0.353554 -0.309359,0.353554 -0.170855,0 -0.30936,-0.158292 -0.30936,-0.353554 0,-0.195262 0.138505,-0.353553 0.30936,-0.353553 0.170854,0 0.309359,0.158291 0.309359,0.353553 z"
           sodipodi:ry="0.35355341"
           sodipodi:rx="0.30935922"
           sodipodi:cy="13.086601"
           sodipodi:cx="14.71666"
           id="path3228"
           style="fill:#ececec;fill-opacity:1;fill-rule:evenodd;stroke:none"
           sodipodi:type="arc" />
        <path
           sodipodi:type="arc"
           style="fill:#ececec;fill-opacity:1;fill-rule:evenodd;stroke:none"
           id="path3230"
           sodipodi:cx="14.71666"
           sodipodi:cy="13.086601"
           sodipodi:rx="0.30935922"
           sodipodi:ry="0.35355341"
           d="m 15.026019,13.086601 c 0,0.195262 -0.138505,0.353554 -0.309359,0.353554 -0.170855,0 -0.30936,-0.158292 -0.30936,-0.353554 0,-0.195262 0.138505,-0.353553 0.30936,-0.353553 0.170854,0 0.309359,0.158291 0.309359,0.353553 z"
           transform="matrix(1.1392128,0,0,0.87818878,364.13508,500.17897)" />
        <path
           transform="matrix(0.72157431,0,0,0.57366073,367.99878,506.94201)"
           d="m 15.026019,13.086601 c 0,0.195262 -0.138505,0.353554 -0.309359,0.353554 -0.170855,0 -0.30936,-0.158292 -0.30936,-0.353554 0,-0.195262 0.138505,-0.353553 0.30936,-0.353553 0.170854,0 0.309359,0.158291 0.309359,0.353553 z"
           sodipodi:ry="0.35355341"
           sodipodi:rx="0.30935922"
           sodipodi:cy="13.086601"
           sodipodi:cx="14.71666"
           id="path3232"
           style="fill:#ececec;fill-opacity:1;fill-rule:evenodd;stroke:none"
           sodipodi:type="arc" />
        <path
           sodipodi:type="arc"
           style="fill:#ececec;fill-opacity:1;fill-rule:evenodd;stroke:none"
           id="path3234"
           sodipodi:cx="14.71666"
           sodipodi:cy="13.086601"
           sodipodi:rx="0.30935922"
           sodipodi:ry="0.35355341"
           d="m 15.026019,13.086601 c 0,0.195262 -0.138505,0.353554 -0.309359,0.353554 -0.170855,0 -0.30936,-0.158292 -0.30936,-0.353554 0,-0.195262 0.138505,-0.353553 0.30936,-0.353553 0.170854,0 0.309359,0.158291 0.309359,0.353553 z"
           transform="matrix(0.44314865,0,0,0.57366073,371.96708,506.16681)" />
      </g>
    </g>
    <g
       id="g3236"
       transform="matrix(0.05820028,-0.91700401,0.75068672,0.0462093,-30.775137,855.64214)">
      <g
         id="g3238">
        <path
           transform="translate(364.57143,499.79075)"
           d="m 15.026019,13.086601 c 0,0.195262 -0.138505,0.353554 -0.309359,0.353554 -0.170855,0 -0.30936,-0.158292 -0.30936,-0.353554 0,-0.195262 0.138505,-0.353553 0.30936,-0.353553 0.170854,0 0.309359,0.158291 0.309359,0.353553 z"
           sodipodi:ry="0.35355341"
           sodipodi:rx="0.30935922"
           sodipodi:cy="13.086601"
           sodipodi:cx="14.71666"
           id="path3240"
           style="fill:#ececec;fill-opacity:1;fill-rule:evenodd;stroke:none"
           sodipodi:type="arc" />
        <path
           sodipodi:type="arc"
           style="fill:#ececec;fill-opacity:1;fill-rule:evenodd;stroke:none"
           id="path3242"
           sodipodi:cx="14.71666"
           sodipodi:cy="13.086601"
           sodipodi:rx="0.30935922"
           sodipodi:ry="0.35355341"
           d="m 15.026019,13.086601 c 0,0.195262 -0.138505,0.353554 -0.309359,0.353554 -0.170855,0 -0.30936,-0.158292 -0.30936,-0.353554 0,-0.195262 0.138505,-0.353553 0.30936,-0.353553 0.170854,0 0.309359,0.158291 0.309359,0.353553 z"
           transform="matrix(0.72157434,0,0,0.87818878,370.02292,501.16951)" />
        <path
           transform="matrix(1.1392128,0,0,0.87818878,364.13508,500.17897)"
           d="m 15.026019,13.086601 c 0,0.195262 -0.138505,0.353554 -0.309359,0.353554 -0.170855,0 -0.30936,-0.158292 -0.30936,-0.353554 0,-0.195262 0.138505,-0.353553 0.30936,-0.353553 0.170854,0 0.309359,0.158291 0.309359,0.353553 z"
           sodipodi:ry="0.35355341"
           sodipodi:rx="0.30935922"
           sodipodi:cy="13.086601"
           sodipodi:cx="14.71666"
           id="path3244"
           style="fill:#ececec;fill-opacity:1;fill-rule:evenodd;stroke:none"
           sodipodi:type="arc" />
        <path
           sodipodi:type="arc"
           style="fill:#ececec;fill-opacity:1;fill-rule:evenodd;stroke:none"
           id="path3246"
           sodipodi:cx="14.71666"
           sodipodi:cy="13.086601"
           sodipodi:rx="0.30935922"
           sodipodi:ry="0.35355341"
           d="m 15.026019,13.086601 c 0,0.195262 -0.138505,0.353554 -0.309359,0.353554 -0.170855,0 -0.30936,-0.158292 -0.30936,-0.353554 0,-0.195262 0.138505,-0.353553 0.30936,-0.353553 0.170854,0 0.309359,0.158291 0.309359,0.353553 z"
           transform="matrix(0.72157431,0,0,0.57366073,367.99878,506.94201)" />
        <path
           transform="matrix(0.44314865,0,0,0.57366073,371.96708,506.16681)"
           d="m 15.026019,13.086601 c 0,0.195262 -0.138505,0.353554 -0.309359,0.353554 -0.170855,0 -0.30936,-0.158292 -0.30936,-0.353554 0,-0.195262 0.138505,-0.353553 0.30936,-0.353553 0.170854,0 0.309359,0.158291 0.309359,0.353553 z"
           sodipodi:ry="0.35355341"
           sodipodi:rx="0.30935922"
           sodipodi:cy="13.086601"
           sodipodi:cx="14.71666"
           id="path3248"
           style="fill:#ececec;fill-opacity:1;fill-rule:evenodd;stroke:none"
           sodipodi:type="arc" />
      </g>
      <g
         id="g3250"
         transform="matrix(0.94140473,0.33727901,-0.33727901,0.94140473,199.45843,-100.23599)">
        <path
           sodipodi:type="arc"
           style="fill:#ececec;fill-opacity:1;fill-rule:evenodd;stroke:none"
           id="path3252"
           sodipodi:cx="14.71666"
           sodipodi:cy="13.086601"
           sodipodi:rx="0.30935922"
           sodipodi:ry="0.35355341"
           d="m 15.026019,13.086601 c 0,0.195262 -0.138505,0.353554 -0.309359,0.353554 -0.170855,0 -0.30936,-0.158292 -0.30936,-0.353554 0,-0.195262 0.138505,-0.353553 0.30936,-0.353553 0.170854,0 0.309359,0.158291 0.309359,0.353553 z"
           transform="translate(364.57143,499.79075)" />
        <path
           transform="matrix(0.72157434,0,0,0.87818878,370.02292,501.16951)"
           d="m 15.026019,13.086601 c 0,0.195262 -0.138505,0.353554 -0.309359,0.353554 -0.170855,0 -0.30936,-0.158292 -0.30936,-0.353554 0,-0.195262 0.138505,-0.353553 0.30936,-0.353553 0.170854,0 0.309359,0.158291 0.309359,0.353553 z"
           sodipodi:ry="0.35355341"
           sodipodi:rx="0.30935922"
           sodipodi:cy="13.086601"
           sodipodi:cx="14.71666"
           id="path3254"
           style="fill:#ececec;fill-opacity:1;fill-rule:evenodd;stroke:none"
           sodipodi:type="arc" />
        <path
           sodipodi:type="arc"
           style="fill:#ececec;fill-opacity:1;fill-rule:evenodd;stroke:none"
           id="path3256"
           sodipodi:cx="14.71666"
           sodipodi:cy="13.086601"
           sodipodi:rx="0.30935922"
           sodipodi:ry="0.35355341"
           d="m 15.026019,13.086601 c 0,0.195262 -0.138505,0.353554 -0.309359,0.353554 -0.170855,0 -0.30936,-0.158292 -0.30936,-0.353554 0,-0.195262 0.138505,-0.353553 0.30936,-0.353553 0.170854,0 0.309359,0.158291 0.309359,0.353553 z"
           transform="matrix(1.1392128,0,0,0.87818878,364.13508,500.17897)" />
        <path
           transform="matrix(0.72157431,0,0,0.57366073,367.99878,506.94201)"
           d="m 15.026019,13.086601 c 0,0.195262 -0.138505,0.353554 -0.309359,0.353554 -0.170855,0 -0.30936,-0.158292 -0.30936,-0.353554 0,-0.195262 0.138505,-0.353553 0.30936,-0.353553 0.170854,0 0.309359,0.158291 0.309359,0.353553 z"
           sodipodi:ry="0.35355341"
           sodipodi:rx="0.30935922"
           sodipodi:cy="13.086601"
           sodipodi:cx="14.71666"
           id="path3258"
           style="fill:#ececec;fill-opacity:1;fill-rule:evenodd;stroke:none"
           sodipodi:type="arc" />
        <path
           sodipodi:type="arc"
           style="fill:#ececec;fill-opacity:1;fill-rule:evenodd;stroke:none"
           id="path3260"
           sodipodi:cx="14.71666"
           sodipodi:cy="13.086601"
           sodipodi:rx="0.30935922"
           sodipodi:ry="0.35355341"
           d="m 15.026019,13.086601 c 0,0.195262 -0.138505,0.353554 -0.309359,0.353554 -0.170855,0 -0.30936,-0.158292 -0.30936,-0.353554 0,-0.195262 0.138505,-0.353553 0.30936,-0.353553 0.170854,0 0.309359,0.158291 0.309359,0.353553 z"
           transform="matrix(0.44314865,0,0,0.57366073,371.96708,506.16681)" />
      </g>
      <g
         transform="matrix(-0.7737708,0.63346566,0.63346566,0.7737708,357.43274,-127.63815)"
         id="g3262">
        <path
           transform="translate(364.57143,499.79075)"
           d="m 15.026019,13.086601 c 0,0.195262 -0.138505,0.353554 -0.309359,0.353554 -0.170855,0 -0.30936,-0.158292 -0.30936,-0.353554 0,-0.195262 0.138505,-0.353553 0.30936,-0.353553 0.170854,0 0.309359,0.158291 0.309359,0.353553 z"
           sodipodi:ry="0.35355341"
           sodipodi:rx="0.30935922"
           sodipodi:cy="13.086601"
           sodipodi:cx="14.71666"
           id="path3264"
           style="fill:#ececec;fill-opacity:1;fill-rule:evenodd;stroke:none"
           sodipodi:type="arc" />
        <path
           sodipodi:type="arc"
           style="fill:#ececec;fill-opacity:1;fill-rule:evenodd;stroke:none"
           id="path3266"
           sodipodi:cx="14.71666"
           sodipodi:cy="13.086601"
           sodipodi:rx="0.30935922"
           sodipodi:ry="0.35355341"
           d="m 15.026019,13.086601 c 0,0.195262 -0.138505,0.353554 -0.309359,0.353554 -0.170855,0 -0.30936,-0.158292 -0.30936,-0.353554 0,-0.195262 0.138505,-0.353553 0.30936,-0.353553 0.170854,0 0.309359,0.158291 0.309359,0.353553 z"
           transform="matrix(0.72157434,0,0,0.87818878,370.02292,501.16951)" />
        <path
           transform="matrix(1.1392128,0,0,0.87818878,364.13508,500.17897)"
           d="m 15.026019,13.086601 c 0,0.195262 -0.138505,0.353554 -0.309359,0.353554 -0.170855,0 -0.30936,-0.158292 -0.30936,-0.353554 0,-0.195262 0.138505,-0.353553 0.30936,-0.353553 0.170854,0 0.309359,0.158291 0.309359,0.353553 z"
           sodipodi:ry="0.35355341"
           sodipodi:rx="0.30935922"
           sodipodi:cy="13.086601"
           sodipodi:cx="14.71666"
           id="path3268"
           style="fill:#ececec;fill-opacity:1;fill-rule:evenodd;stroke:none"
           sodipodi:type="arc" />
        <path
           sodipodi:type="arc"
           style="fill:#ececec;fill-opacity:1;fill-rule:evenodd;stroke:none"
           id="path3270"
           sodipodi:cx="14.71666"
           sodipodi:cy="13.086601"
           sodipodi:rx="0.30935922"
           sodipodi:ry="0.35355341"
           d="m 15.026019,13.086601 c 0,0.195262 -0.138505,0.353554 -0.309359,0.353554 -0.170855,0 -0.30936,-0.158292 -0.30936,-0.353554 0,-0.195262 0.138505,-0.353553 0.30936,-0.353553 0.170854,0 0.309359,0.158291 0.309359,0.353553 z"
           transform="matrix(0.72157431,0,0,0.57366073,367.99878,506.94201)" />
        <path
           transform="matrix(0.44314865,0,0,0.57366073,371.96708,506.16681)"
           d="m 15.026019,13.086601 c 0,0.195262 -0.138505,0.353554 -0.309359,0.353554 -0.170855,0 -0.30936,-0.158292 -0.30936,-0.353554 0,-0.195262 0.138505,-0.353553 0.30936,-0.353553 0.170854,0 0.309359,0.158291 0.309359,0.353553 z"
           sodipodi:ry="0.35355341"
           sodipodi:rx="0.30935922"
           sodipodi:cy="13.086601"
           sodipodi:cx="14.71666"
           id="path3272"
           style="fill:#ececec;fill-opacity:1;fill-rule:evenodd;stroke:none"
           sodipodi:type="arc" />
      </g>
      <g
         id="g3274"
         transform="matrix(-0.987442,0.13919584,0.15798195,0.87002226,686.85904,11.251911)">
        <path
           sodipodi:type="arc"
           style="fill:#ececec;fill-opacity:1;fill-rule:evenodd;stroke:none"
           id="path3276"
           sodipodi:cx="14.71666"
           sodipodi:cy="13.086601"
           sodipodi:rx="0.30935922"
           sodipodi:ry="0.35355341"
           d="m 15.026019,13.086601 c 0,0.195262 -0.138505,0.353554 -0.309359,0.353554 -0.170855,0 -0.30936,-0.158292 -0.30936,-0.353554 0,-0.195262 0.138505,-0.353553 0.30936,-0.353553 0.170854,0 0.309359,0.158291 0.309359,0.353553 z"
           transform="translate(364.57143,499.79075)" />
        <path
           transform="matrix(0.72157434,0,0,0.87818878,370.02292,501.16951)"
           d="m 15.026019,13.086601 c 0,0.195262 -0.138505,0.353554 -0.309359,0.353554 -0.170855,0 -0.30936,-0.158292 -0.30936,-0.353554 0,-0.195262 0.138505,-0.353553 0.30936,-0.353553 0.170854,0 0.309359,0.158291 0.309359,0.353553 z"
           sodipodi:ry="0.35355341"
           sodipodi:rx="0.30935922"
           sodipodi:cy="13.086601"
           sodipodi:cx="14.71666"
           id="path3278"
           style="fill:#ececec;fill-opacity:1;fill-rule:evenodd;stroke:none"
           sodipodi:type="arc" />
        <path
           sodipodi:type="arc"
           style="fill:#ececec;fill-opacity:1;fill-rule:evenodd;stroke:none"
           id="path3280"
           sodipodi:cx="14.71666"
           sodipodi:cy="13.086601"
           sodipodi:rx="0.30935922"
           sodipodi:ry="0.35355341"
           d="m 15.026019,13.086601 c 0,0.195262 -0.138505,0.353554 -0.309359,0.353554 -0.170855,0 -0.30936,-0.158292 -0.30936,-0.353554 0,-0.195262 0.138505,-0.353553 0.30936,-0.353553 0.170854,0 0.309359,0.158291 0.309359,0.353553 z"
           transform="matrix(1.1392128,0,0,0.87818878,364.13508,500.17897)" />
        <path
           transform="matrix(0.72157431,0,0,0.57366073,367.99878,506.94201)"
           d="m 15.026019,13.086601 c 0,0.195262 -0.138505,0.353554 -0.309359,0.353554 -0.170855,0 -0.30936,-0.158292 -0.30936,-0.353554 0,-0.195262 0.138505,-0.353553 0.30936,-0.353553 0.170854,0 0.309359,0.158291 0.309359,0.353553 z"
           sodipodi:ry="0.35355341"
           sodipodi:rx="0.30935922"
           sodipodi:cy="13.086601"
           sodipodi:cx="14.71666"
           id="path3282"
           style="fill:#ececec;fill-opacity:1;fill-rule:evenodd;stroke:none"
           sodipodi:type="arc" />
        <path
           sodipodi:type="arc"
           style="fill:#ececec;fill-opacity:1;fill-rule:evenodd;stroke:none"
           id="path3284"
           sodipodi:cx="14.71666"
           sodipodi:cy="13.086601"
           sodipodi:rx="0.30935922"
           sodipodi:ry="0.35355341"
           d="m 15.026019,13.086601 c 0,0.195262 -0.138505,0.353554 -0.309359,0.353554 -0.170855,0 -0.30936,-0.158292 -0.30936,-0.353554 0,-0.195262 0.138505,-0.353553 0.30936,-0.353553 0.170854,0 0.309359,0.158291 0.309359,0.353553 z"
           transform="matrix(0.44314865,0,0,0.57366073,371.96708,506.16681)" />
      </g>
      <g
         transform="matrix(0.35595907,0.9315097,-0.83783957,0.28270458,691.34545,13.851382)"
         id="g3286">
        <path
           transform="translate(364.57143,499.79075)"
           d="m 15.026019,13.086601 c 0,0.195262 -0.138505,0.353554 -0.309359,0.353554 -0.170855,0 -0.30936,-0.158292 -0.30936,-0.353554 0,-0.195262 0.138505,-0.353553 0.30936,-0.353553 0.170854,0 0.309359,0.158291 0.309359,0.353553 z"
           sodipodi:ry="0.35355341"
           sodipodi:rx="0.30935922"
           sodipodi:cy="13.086601"
           sodipodi:cx="14.71666"
           id="path3288"
           style="fill:#ececec;fill-opacity:1;fill-rule:evenodd;stroke:none"
           sodipodi:type="arc" />
        <path
           sodipodi:type="arc"
           style="fill:#ececec;fill-opacity:1;fill-rule:evenodd;stroke:none"
           id="path3290"
           sodipodi:cx="14.71666"
           sodipodi:cy="13.086601"
           sodipodi:rx="0.30935922"
           sodipodi:ry="0.35355341"
           d="m 15.026019,13.086601 c 0,0.195262 -0.138505,0.353554 -0.309359,0.353554 -0.170855,0 -0.30936,-0.158292 -0.30936,-0.353554 0,-0.195262 0.138505,-0.353553 0.30936,-0.353553 0.170854,0 0.309359,0.158291 0.309359,0.353553 z"
           transform="matrix(0.72157434,0,0,0.87818878,370.02292,501.16951)" />
        <path
           transform="matrix(1.1392128,0,0,0.87818878,364.13508,500.17897)"
           d="m 15.026019,13.086601 c 0,0.195262 -0.138505,0.353554 -0.309359,0.353554 -0.170855,0 -0.30936,-0.158292 -0.30936,-0.353554 0,-0.195262 0.138505,-0.353553 0.30936,-0.353553 0.170854,0 0.309359,0.158291 0.309359,0.353553 z"
           sodipodi:ry="0.35355341"
           sodipodi:rx="0.30935922"
           sodipodi:cy="13.086601"
           sodipodi:cx="14.71666"
           id="path3292"
           style="fill:#ececec;fill-opacity:1;fill-rule:evenodd;stroke:none"
           sodipodi:type="arc" />
        <path
           sodipodi:type="arc"
           style="fill:#ececec;fill-opacity:1;fill-rule:evenodd;stroke:none"
           id="path3294"
           sodipodi:cx="14.71666"
           sodipodi:cy="13.086601"
           sodipodi:rx="0.30935922"
           sodipodi:ry="0.35355341"
           d="m 15.026019,13.086601 c 0,0.195262 -0.138505,0.353554 -0.309359,0.353554 -0.170855,0 -0.30936,-0.158292 -0.30936,-0.353554 0,-0.195262 0.138505,-0.353553 0.30936,-0.353553 0.170854,0 0.309359,0.158291 0.309359,0.353553 z"
           transform="matrix(0.72157431,0,0,0.57366073,367.99878,506.94201)" />
        <path
           transform="matrix(0.44314865,0,0,0.57366073,371.96708,506.16681)"
           d="m 15.026019,13.086601 c 0,0.195262 -0.138505,0.353554 -0.309359,0.353554 -0.170855,0 -0.30936,-0.158292 -0.30936,-0.353554 0,-0.195262 0.138505,-0.353553 0.30936,-0.353553 0.170854,0 0.309359,0.158291 0.309359,0.353553 z"
           sodipodi:ry="0.35355341"
           sodipodi:rx="0.30935922"
           sodipodi:cy="13.086601"
           sodipodi:cx="14.71666"
           id="path3296"
           style="fill:#ececec;fill-opacity:1;fill-rule:evenodd;stroke:none"
           sodipodi:type="arc" />
      </g>
    </g>
  </g>
</svg>
