<?xml version="1.0" encoding="UTF-8" standalone="no"?>
<!-- Created with Inkscape (http://www.inkscape.org/) -->

<svg
   xmlns:dc="http://purl.org/dc/elements/1.1/"
   xmlns:cc="http://creativecommons.org/ns#"
   xmlns:rdf="http://www.w3.org/1999/02/22-rdf-syntax-ns#"
   xmlns:svg="http://www.w3.org/2000/svg"
   xmlns="http://www.w3.org/2000/svg"
   xmlns:xlink="http://www.w3.org/1999/xlink"
   xmlns:sodipodi="http://sodipodi.sourceforge.net/DTD/sodipodi-0.dtd"
   xmlns:inkscape="http://www.inkscape.org/namespaces/inkscape"
   id="svg7384"
   height="48"
   width="48"
   version="1.1"
   inkscape:version="0.48.5 r10040"
   sodipodi:docname="edit-web-search.svg"
   inkscape:export-filename="/home/uri/Descargas/NITRUX-KDE/NITRUX-KDE/16x16/actions/view-preview.png"
   inkscape:export-xdpi="30"
   inkscape:export-ydpi="30">
  <defs
     id="defs9">
    <linearGradient
       id="linearGradient4132">
      <stop
         id="stop4134"
         style="stop-color:#7bb8f0;stop-opacity:1"
         offset="0" />
      <stop
         id="stop4136"
         style="stop-color:#b5d5f2;stop-opacity:0.1221374"
         offset="1" />
    </linearGradient>
    <radialGradient
       inkscape:collect="always"
       xlink:href="#linearGradient4132"
       id="radialGradient3026"
       gradientUnits="userSpaceOnUse"
       gradientTransform="matrix(1.090012,0,0,0.84044811,-12.644412,-50.523652)"
       cx="63.98003"
       cy="61.948856"
       fx="63.98003"
       fy="61.948856"
       r="58.01997" />
  </defs>
  <sodipodi:namedview
     pagecolor="#ffffff"
     bordercolor="#666666"
     borderopacity="1"
     objecttolerance="10"
     gridtolerance="10"
     guidetolerance="10"
     inkscape:pageopacity="0"
     inkscape:pageshadow="2"
     inkscape:window-width="1280"
     inkscape:window-height="670"
     id="namedview7"
     showgrid="false"
     inkscape:zoom="7.928607"
     inkscape:cx="-14.558495"
     inkscape:cy="30.260181"
     inkscape:window-x="-2"
     inkscape:window-y="-3"
     inkscape:window-maximized="1"
     inkscape:current-layer="svg7384"
     showguides="true"
     inkscape:guide-bbox="true">
    <sodipodi:guide
       orientation="0,1"
       position="26.517899,9.8377936"
       id="guide3017" />
  </sodipodi:namedview>
  <metadata
     id="metadata90">
    <rdf:RDF>
      <cc:Work
         rdf:about="">
        <dc:format>image/svg+xml</dc:format>
        <dc:type
           rdf:resource="http://purl.org/dc/dcmitype/StillImage" />
        <dc:title>Gnome Symbolic Icon Theme</dc:title>
      </cc:Work>
    </rdf:RDF>
  </metadata>
  <title
     id="title9167">Gnome Symbolic Icon Theme</title>
  <g
     id="g3022"
     transform="matrix(0.35838877,0,0,0.35838877,3.4093859,22.943174)">
    <rect
       width="84"
       height="84"
       rx="6"
       ry="0"
       x="15.09459"
       y="-39.035835"
       id="rect2419-8"
       style="fill:#278a49;fill-opacity:1;fill-rule:nonzero;stroke:none;display:inline" />
    <path
       d="m 45.36847,-38.939458 c 1.65012,2.215592 0.11259,5.915398 2.60148,5.878671 1.2119,1.713164 -2.41545,0.511042 0.2036,1.831432 1.5061,1.185988 -1.5934,1.863613 0.27178,2.927919 -2.14968,1.109114 0.34844,5.801103 1.94512,6.97538 2.62795,2.212061 1.1622,-4.683394 4.0945,-5.04209 1.59336,-1.818795 4.39184,-2.986327 6.37927,-4.815989 -1.9423,-0.15766 -3.07647,-1.366454 -1.23702,-2.115252 3.38545,3.468671 0.8489,-1.642711 -1.02514,-2.452023 1.81336,-0.576759 3.57698,-0.154404 3.32537,-1.650549 1.91632,-1.401819 -1.84226,-1.854423 -3.18394,-1.537499 -4.45834,0 -8.91667,0 -13.37502,0 z M 17.566625,-37.4924 c -2.44976,0.697848 -2.620642,6.551623 -0.15835,3.3011 0.604343,-1.334705 3.397077,-2.943211 0.15835,-3.3011 z m 11.446494,0.203492 c -1.41226,2.214241 0.204911,3.989518 1.379911,1.288786 0.83171,-1.127782 -0.617931,-1.247465 -1.379911,-1.288786 z m 3.528951,0.497427 c -2.728751,1.264583 -0.6726,4.213471 -0.60506,4.869319 2.87457,0.994334 4.47323,-0.650114 5.56069,2.160413 2.73516,1.576152 -0.0538,4.314918 -1.08054,5.028176 1.84934,-1.610389 5.40416,4.378304 4.47226,1.214321 -1.11179,-0.811673 2.98515,1.303915 0.85962,-1.334006 -1.95607,-3.151091 0.15527,-1.410713 0.97995,-0.675273 2.80488,-2.514847 -3.1736,-2.818813 -1.68123,-5.40689 -1.30775,-1.059057 -3.02289,-4.267374 -5.33867,-3.640254 -1.55024,2.004567 -0.21415,-4.367791 -2.48861,-1.178979 -0.11789,1.782531 -0.0429,4.044447 -0.70571,0.956351 -0.44407,-0.540606 0.764,-1.797407 0.0273,-1.993178 z m -5.56489,0.02261 c -1.831602,0.610549 -1.733229,3.084972 0.518956,3.350246 0.771434,-0.879196 0.306494,-3.183757 -0.518956,-3.350246 z m -7.148403,0.791359 c -2.379078,0.563598 -1.407992,2.481632 -0.679572,3.02182 -2.944918,0.737557 4.49569,0.942657 0.79268,1.409793 -3.08079,1.230224 2.966663,2.67961 3.958767,1.220954 3.804388,0.930273 0.136908,-3.045031 -0.197041,-5.199948 -1.612752,-1.730621 -0.06365,3.989551 -1.521868,0.184316 -0.508787,1.129983 -2.126528,0.166515 -2.352966,-0.636935 z M 95.4299,-35.7288 c -3.19244,1.249243 1.98418,5.963472 0.69765,1.674664 -0.12817,-0.517868 0.28819,-1.886169 -0.69765,-1.674664 z m -66.66562,1.899263 c -2.294083,2.155636 2.91599,3.938244 -0.658894,5.54415 -0.53602,-2.001942 -1.458276,1.001608 -3.503467,-0.615111 -3.515899,1.46374 -5.313868,-0.762449 -8.257534,-2.288432 -1.768029,-0.220055 -1.103781,1.679698 -1.220884,3.458474 0,4.915862 0,9.831727 0,14.74759 1.733489,1.823574 0.676329,0.804576 0,0.301602 0.951467,3.2400313 -0.419572,7.9762663 3.330851,9.8609283 0.637563,1.182446 3.312882,6.219986 3.43622,4.712704 -1.341214,-1.40436799 -2.717353,-5.614596 -0.447896,-1.86209799 2.032756,3.56702199 4.774753,5.88058399 8.780474,6.72941499 2.19006,0.744855 3.99117,3.3053217 5.91712,2.741963 1.08905,2.8705387 -3.22741,5.6270877 0.14491,8.3044697 1.76052,2.71045 4.71618,4.488168 3.11596,8.29345 -1.11907,3.716413 -0.63993,7.765882 -1.60779,11.228513 -0.30039,2.107681 2.93804,7.457302 2.65747,3.173531 0.94557,-2.976918 0.92064,-6.252508 3.14759,-8.360679 3.04711,0.02412 0.58237,-3.276114 3.607,-2.844995 1.84565,-2.418872 2.38023,-5.304486 5.49491,-6.264978 0.37205,-2.936144 5.17882,-7.4329 0.21314,-8.576056 -1.34961,-0.665119 -4.8245,-0.904282 -4.55894,-1.232465 0.53803,-2.913429 -4.49347,-3.7428407 -6.63424,-4.9348167 -2.81075,-1.994856 -7.03423,3.3139477 -8.02451,-1.260398 -0.59088,-1.439233 -2.75133,-1.462574 -1.75843,-3.683379 -1.78939,1.779441 -5.28934,1.238624 -4.373028,-2.197824 1.391566,-2.894156 6.735638,-3.031092 7.646258,0.450058 -1.26435,-3.839294 2.44394,-6.828036 4.50253,-9.559465 0.41916,-1.305551 2.90974,-2.4272193 2.05268,-0.692077 1.46015,-0.05266 3.67328,-2.6873023 1.07941,-1.4712813 -0.0367,-2.402702 -2.27298,-1.719417 -2.998,-1.378249 1.34377,-2.132514 8.24498,-0.966646 5.35509,-4.452373 -2.2393,-0.907229 -2.05302,-6.201368 -4.318,-3.251981 0.1906,-1.817243 -4.61001,-5.374474 -4.50525,-2.327163 0.58599,2.726773 0.10714,5.867952 -1.13992,7.655308 -0.26025,-3.995633 -7.075686,-3.112538 -6.199431,-7.370332 1.269451,-2.029282 2.752851,-4.835506 2.894181,-4.583059 2.27505,-0.868509 4.10459,-3.394824 1.46783,-5.055609 -0.14092,1.447483 -1.98303,4.433935 -1.72366,0.821917 -1.705794,2.022175 -1.3162,-3.217808 -2.91375,-3.761252 z m 54.45,1.401837 c -3.99594,0.977352 -5.58007,4.793453 -7.55681,7.954209 -2.91386,1.313584 -2.80294,6.954861 0.45241,5.153113 0.87128,1.52152 -0.60951,3.919724 1.92831,1.930256 2.047,-2.708555 0.35794,-7.089232 3.84142,-8.797142 0.25374,1.32799 -3.21334,6.286746 0.83699,5.471685 3.66156,0.13814 -2.66185,0.364788 -0.88099,2.703385 -1.85027,-1.097665 -0.88884,2.997843 -3.30399,2.044772 -2.09232,1.137967 -3.46433,-0.528366 -2.98503,-2.353789 -1.64596,0.960095 0.5177,3.668626 -2.33958,3.831405 -0.64005,2.272529 -5.90338,1.930002 -2.9102,4.244049 1.3289,3.4436473 -4.95154,0.215879 -3.16854,4.3483693 1.52545,4.086407 4.7224,-1.354049 6.01943,-2.405153 2.50248,-1.9409073 6.21066,3.309444 3.95877,3.504593 2.52508,-0.338743 2.00619,-2.739888 -0.0169,-3.669477 -1.09268,-2.8335243 3.45903,1.389634 3.2066,2.810286 1.60595,3.006852 0.94462,-3.078557 2.57885,-0.384373 -0.1908,2.841965 6.57418,0.668223 3.34439,4.290282 -2.77688,0.559235 -5.51013,-0.715787 -7.90083,0.100876 -2.22511,-0.01969 -2.11347,-2.396773 -2.92358,-2.992055 -2.83037,0.229926 -6.32794,0.203926 -8.22277,2.490166 -2.04902,2.81094601 -5.00383,6.740445 -2.77053,10.329674 2.23487,5.3188177 7.77718,0.27589 10.96298,3.4170677 0.94693,1.309731 -0.8206,2.86661 1.2967,4.285291 0.79672,3.022035 -0.90448,5.891404 1.05227,8.780282 1.01184,2.716843 1.63978,6.783262 5.40576,4.300665 3.98577,-2.398255 2.92416,-6.819304 6.21294,-9.268036 -2.60227,-5.035562 3.18363,-7.243505 4.62722,-11.3314697 -3.15395,0.461678 -5.96377,-2.682428 -6.72579,-5.847035 -1.32494,-1.53711999 -0.98368,-3.80361 0.49633,-0.916013 2.03426,1.970926 2.07821,7.819175 5.84127,4.810628 1.72035,-0.719477 6.4186,-3.464001 2.67511,-4.712977 -2.41304,1.747528 -5.07525,-5.221667 -1.53182,-1.17938499 2.57602,1.09275899 4.37996,1.74383799 4.37996,-1.87921601 0,-9.7612733 0,-19.6548093 0,-29.4822143 -0.8024,0.819872 -2.8638,2.334082 -3.90428,1.32791 -1.79037,0.249281 -4.15389,3.732429 -3.59125,0.365356 -1.55624,-0.103042 -0.27858,3.019034 -2.41664,3.106347 -0.21529,1.605089 -2.15987,0.29723 -1.42943,1.821464 -1.50065,-1.064346 -2.77067,-4.424842 0.18614,-2.315577 4.39103,-1.31719 -2.8956,-4.288275 -3.45804,-5.006418 0.94545,-0.226501 -1.02861,-1.211646 -1.26681,-0.881801 z m -36.23968,0.881801 c -1.4615,1.217596 2.77854,1.446893 0,0 z M 27.452229,-30.8902 c -1.634647,1.709655 2.603281,1.571667 0,0 z m 9.478421,1.69577 c -1.23786,2.027571 1.82903,0.748571 0,0 z m 27.10058,2.39669 c -1.44923,1.668248 -3.36205,-0.439045 -3.39323,0.994852 0.26265,0.433258 1.31467,3.52554 3.61945,1.243565 1.23698,-0.521451 0.74995,-1.835967 -0.22622,-2.238417 z m -30.85575,0.994852 c -2.74881,2.400285 4.6683,2.621438 0.58232,0.275289 l -0.58232,-0.27529 z m 36.2623,6.647418 c -1.97909,1.2904 0.94943,4.030804 -0.0431,5.318079 -1.2401,2.160392 4.60832,-0.152179 1.48461,-1.875826 -0.22257,-1.48088 -1.83002,-3.287723 -1.44154,-3.442253 z m -1.33468,2.600181 c -2.75739,0.779471 -0.62595,4.803849 0.35067,1.013493 0.0549,-0.219748 0.12936,-1.020842 -0.35067,-1.013493 z m -22.0786,2.916726 c -2.56522,1.748962 -0.39843,3.494707 1.48156,2.707775 -0.38596,-1.055239 -1.46417,-1.720102 -1.48156,-2.707775 z m 48.4553,2.939335 c 1.27995,0.645878 -2.34554,1.7492133 -0.0498,2.8859243 1.33598,1.570889 0.83231,4.942999 -1.3392,2.556372 0.40344,-2.664667 -2.94356,-4.654664 1.38903,-5.4422963 z m -6.58287,0.02261 c -0.17366,1.7119433 3.69395,4.3729673 -0.47504,3.5045933 -2.20475,0.258597 -5.50697,-0.06736 -2.72943,-2.814283 0.87765,-0.5268223 3.18206,1.817596 1.98292,-0.3737653 0.42513,-0.02712 0.82107,-0.18758 1.22155,-0.316545 z m -12.73591,3.7080833 c -1.60811,1.035898 1.11199,1.830212 0,0 z m -40.37941,9.654585 c -0.27111,0.904354 5.08598,1.82085 1.38929,0.371963 l -0.55107,-0.193949 -0.83822,-0.178014 z m 4.16235,1.288785 c -1.62491,1.649392 3.34782,0.492772 0,0 z m 54.3369,15.1262717 c -3.53072,0.09109 -3.06133,9.197024 -0.60013,3.808943 0.2334,-1.169216 1.1689,-2.712425 0.60013,-3.808943 z"
       inkscape:connector-curvature="0"
       id="path3522-9"
       style="opacity:0.8;fill:url(#radialGradient3026);fill-opacity:1;stroke:none;display:inline" />
  </g>
  <g
     id="g3002"
     transform="matrix(1.4421595,-0.01518956,0.01518956,1.4421595,-11.092998,-13.642043)">
    <g
       transform="matrix(1.3443075,0,0,1.3443075,-30.174711,24.657427)"
       id="g3028">
      <g
         id="g3856">
        <path
           d="m 39.920609,5.176075 c 0,1.8707005 -1.435262,3.387203 -3.205746,3.387203 -1.770485,0 -3.205746,-1.5165025 -3.205746,-3.387203 0,-1.8707006 1.435261,-3.387203 3.205746,-3.387203 1.770484,0 3.205746,1.5165024 3.205746,3.387203 z"
           sodipodi:ry="3.387203"
           sodipodi:rx="3.2057457"
           sodipodi:cy="5.176075"
           sodipodi:cx="36.714863"
           id="path3852"
           style="fill:#8c8c8c;fill-opacity:1;fill-rule:evenodd;stroke:none"
           sodipodi:type="arc" />
        <path
           transform="matrix(0.78571428,0,0,0.78571428,7.8674709,1.109159)"
           sodipodi:type="arc"
           style="fill:#b3b3b3;fill-opacity:1;fill-rule:evenodd;stroke:none"
           id="path3854"
           sodipodi:cx="36.714863"
           sodipodi:cy="5.176075"
           sodipodi:rx="3.2057457"
           sodipodi:ry="3.387203"
           d="m 39.920609,5.176075 c 0,1.8707005 -1.435262,3.387203 -3.205746,3.387203 -1.770485,0 -3.205746,-1.5165025 -3.205746,-3.387203 0,-1.8707006 1.435261,-3.387203 3.205746,-3.387203 1.770484,0 3.205746,1.5165024 3.205746,3.387203 z" />
        <path
           id="path3040"
           transform="matrix(0.74387742,0,0,0.74387742,22.446286,-18.342103)"
           d="m 19.1875,28.3125 c -1.73397,0 -3.15625,1.48038 -3.15625,3.3125 0,0.989879 0.443001,1.860935 1.09375,2.46875 -0.5086,-0.589528 -0.84375,-1.358193 -0.84375,-2.21875 0,-1.83212 1.42228,-3.34375 3.15625,-3.34375 0.789969,0 1.510691,0.334853 2.0625,0.84375 -0.573818,-0.659329 -1.397936,-1.0625 -2.3125,-1.0625 z"
           style="fill:#f2f2f2;fill-opacity:1;fill-rule:evenodd;stroke:none"
           inkscape:connector-curvature="0" />
      </g>
      <g
         id="g3860"
         transform="translate(7.1689629,0.09228655)">
        <path
           sodipodi:type="arc"
           style="fill:#8c8c8c;fill-opacity:1;fill-rule:evenodd;stroke:none"
           id="path3862"
           sodipodi:cx="36.714863"
           sodipodi:cy="5.176075"
           sodipodi:rx="3.2057457"
           sodipodi:ry="3.387203"
           d="m 39.920609,5.176075 c 0,1.8707005 -1.435262,3.387203 -3.205746,3.387203 -1.770485,0 -3.205746,-1.5165025 -3.205746,-3.387203 0,-1.8707006 1.435261,-3.387203 3.205746,-3.387203 1.770484,0 3.205746,1.5165024 3.205746,3.387203 z" />
        <path
           d="m 39.920609,5.176075 c 0,1.8707005 -1.435262,3.387203 -3.205746,3.387203 -1.770485,0 -3.205746,-1.5165025 -3.205746,-3.387203 0,-1.8707006 1.435261,-3.387203 3.205746,-3.387203 1.770484,0 3.205746,1.5165024 3.205746,3.387203 z"
           sodipodi:ry="3.387203"
           sodipodi:rx="3.2057457"
           sodipodi:cy="5.176075"
           sodipodi:cx="36.714863"
           id="path3864"
           style="fill:#b3b3b3;fill-opacity:1;fill-rule:evenodd;stroke:none"
           sodipodi:type="arc"
           transform="matrix(0.78571428,0,0,0.78571428,7.8674709,1.109159)" />
      </g>
      <path
         sodipodi:type="arc"
         style="fill:#8c8c8c;fill-opacity:1;fill-rule:evenodd;stroke:none"
         id="path3866"
         sodipodi:cx="40.390743"
         sodipodi:cy="3.8562689"
         sodipodi:rx="1.1382008"
         sodipodi:ry="0.76905453"
         d="m 41.528944,3.8562689 c 0,0.4247371 -0.50959,0.7690545 -1.138201,0.7690545 -0.628611,0 -1.138201,-0.3443174 -1.138201,-0.7690545 0,-0.4247371 0.50959,-0.7690545 1.138201,-0.7690545 0.628611,0 1.138201,0.3443174 1.138201,0.7690545 z" />
      <path
         sodipodi:type="arc"
         style="fill:#8c8c8c;fill-opacity:1;fill-rule:evenodd;stroke:none"
         id="path3868"
         sodipodi:cx="40.390743"
         sodipodi:cy="3.3179307"
         sodipodi:rx="0.7075302"
         sodipodi:ry="0.59986258"
         d="m 41.098273,3.3179307 c 0,0.331295 -0.316772,0.5998626 -0.70753,0.5998626 -0.390758,0 -0.70753,-0.2685676 -0.70753,-0.5998626 0,-0.331295 0.316772,-0.5998626 0.70753,-0.5998626 0.390758,0 0.70753,0.2685676 0.70753,0.5998626 z"
         transform="translate(-0.03076218,-0.12304873)" />
      <rect
         style="fill:#8c8c8c;fill-opacity:1;fill-rule:evenodd;stroke:none"
         id="rect3870"
         width="1.5381091"
         height="2.1225905"
         x="39.498642"
         y="4.2254148" />
      <path
         sodipodi:type="arc"
         style="fill:#b3b3b3;fill-opacity:1;fill-rule:evenodd;stroke:none"
         id="path3872"
         sodipodi:cx="40.344601"
         sodipodi:cy="3.1641197"
         sodipodi:rx="0.19995418"
         sodipodi:ry="0.19995418"
         d="m 40.544555,3.1641197 c 0,0.1104317 -0.08952,0.1999542 -0.199954,0.1999542 -0.110432,0 -0.199955,-0.089523 -0.199955,-0.1999542 0,-0.1104316 0.08952,-0.1999542 0.199955,-0.1999542 0.110431,0 0.199954,0.089523 0.199954,0.1999542 z" />
    </g>
    <path
       id="path3040-8"
       d="m 28.835117,28.376924 c -1.73397,0 -3.15625,1.48038 -3.15625,3.3125 0,0.989879 0.443001,1.860935 1.09375,2.46875 -0.5086,-0.589528 -0.84375,-1.358193 -0.84375,-2.21875 0,-1.83212 1.42228,-3.34375 3.15625,-3.34375 0.789969,0 1.510691,0.334853 2.0625,0.84375 -0.573818,-0.659329 -1.397936,-1.0625 -2.3125,-1.0625 z"
       style="fill:#f2f2f2;fill-opacity:1;fill-rule:evenodd;stroke:none"
       inkscape:connector-curvature="0" />
  </g>
</svg>
