<?xml version="1.0" encoding="UTF-8" standalone="no"?>
<!-- Created using Karbon, part of Calligra: http://www.calligra.org/karbon -->

<svg
   xmlns:dc="http://purl.org/dc/elements/1.1/"
   xmlns:cc="http://creativecommons.org/ns#"
   xmlns:rdf="http://www.w3.org/1999/02/22-rdf-syntax-ns#"
   xmlns:svg="http://www.w3.org/2000/svg"
   xmlns="http://www.w3.org/2000/svg"
   xmlns:xlink="http://www.w3.org/1999/xlink"
   xmlns:sodipodi="http://sodipodi.sourceforge.net/DTD/sodipodi-0.dtd"
   xmlns:inkscape="http://www.inkscape.org/namespaces/inkscape"
   width="38.4pt"
   height="38.4pt"
   id="svg2"
   version="1.1"
   inkscape:version="0.48.4 r9939"
   sodipodi:docname="games-difficult.svg">
  <metadata
     id="metadata13">
    <rdf:RDF>
      <cc:Work
         rdf:about="">
        <dc:format>image/svg+xml</dc:format>
        <dc:type
           rdf:resource="http://purl.org/dc/dcmitype/StillImage" />
        <dc:title></dc:title>
      </cc:Work>
    </rdf:RDF>
  </metadata>
  <sodipodi:namedview
     pagecolor="#ffffff"
     bordercolor="#666666"
     borderopacity="1"
     objecttolerance="10"
     gridtolerance="10"
     guidetolerance="10"
     inkscape:pageopacity="0"
     inkscape:pageshadow="2"
     inkscape:window-width="711"
     inkscape:window-height="649"
     id="namedview11"
     showgrid="false"
     inkscape:zoom="3.1076593"
     inkscape:cx="118.94273"
     inkscape:cy="23.117697"
     inkscape:window-x="305"
     inkscape:window-y="30"
     inkscape:window-maximized="0"
     inkscape:current-layer="svg2">
    <sodipodi:guide
       position="9.5367432e-07,48.000001"
       orientation="47.999999,0"
       id="guide4071" />
    <sodipodi:guide
       position="9.5367432e-07,1.9073486e-06"
       orientation="0,47.999999"
       id="guide4073" />
    <sodipodi:guide
       position="48,1.9073486e-06"
       orientation="-47.999999,0"
       id="guide4075" />
    <sodipodi:guide
       position="48,48.000001"
       orientation="0,-47.999999"
       id="guide4077" />
    <sodipodi:guide
       position="9.000001,39.000001"
       orientation="29.999999,0"
       id="guide4079" />
    <sodipodi:guide
       position="9.000001,9.0000019"
       orientation="0,29.999999"
       id="guide4081" />
    <sodipodi:guide
       position="39,9.0000019"
       orientation="-29.999999,0"
       id="guide4083" />
    <sodipodi:guide
       position="39,39.000001"
       orientation="0,-29.999999"
       id="guide4085" />
  </sodipodi:namedview>
  <defs
     id="defs4">
    <linearGradient
       inkscape:collect="always"
       id="linearGradient3772">
      <stop
         style="stop-color:#000000;stop-opacity:1;"
         offset="0"
         id="stop3774" />
      <stop
         style="stop-color:#000000;stop-opacity:0;"
         offset="1"
         id="stop3776" />
    </linearGradient>
    <radialGradient
       inkscape:collect="always"
       xlink:href="#linearGradient3772"
       id="radialGradient3778"
       cx="26.504368"
       cy="27.826399"
       fx="26.504368"
       fy="27.826399"
       r="11.118112"
       gradientUnits="userSpaceOnUse"
       gradientTransform="matrix(1.0955365,-0.31554923,0.27677931,0.96093351,-10.233906,9.4505126)" />
  </defs>
  <rect
     style="color:#000000;fill:#e6e6e6;fill-opacity:1;fill-rule:nonzero;stroke:none;stroke-width:1;marker:none;visibility:visible;display:inline;overflow:visible;enable-background:accumulate"
     id="rect2991"
     width="29.999998"
     height="30"
     x="9.000001"
     y="8.999999" />
  <path
     sodipodi:type="arc"
     style="color:#000000;fill:#333333;fill-opacity:1;fill-rule:nonzero;stroke:none;stroke-width:1;marker:none;visibility:visible;display:inline;overflow:visible;enable-background:accumulate"
     id="path3811"
     sodipodi:cx="27.237597"
     sodipodi:cy="36.745937"
     sodipodi:rx="0.58686835"
     sodipodi:ry="0.62139004"
     d="m 27.824465,36.745937 a 0.58686835,0.62139004 0 1 1 -1.173737,0 0.58686835,0.62139004 0 1 1 1.173737,0 z"
     transform="matrix(1.3333333,0,0,1.3333333,-9.0791986,-12.248645)" />
  <path
     transform="matrix(0.86274505,0,0,0.86274505,3.7384942,5.0435612)"
     d="m 27.824465,36.745937 a 0.58686835,0.62139004 0 1 1 -1.173737,0 0.58686835,0.62139004 0 1 1 1.173737,0 z"
     sodipodi:ry="0.62139004"
     sodipodi:rx="0.58686835"
     sodipodi:cy="36.745937"
     sodipodi:cx="27.237597"
     id="path3813"
     style="color:#000000;fill:#dd0c0c;fill-opacity:1;fill-rule:nonzero;stroke:none;stroke-width:1;marker:none;visibility:visible;display:inline;overflow:visible;enable-background:accumulate"
     sodipodi:type="arc" />
  <path
     transform="matrix(1.3333333,0,0,1.3333333,-5.0791986,-12.248645)"
     d="m 27.824465,36.745937 a 0.58686835,0.62139004 0 1 1 -1.173737,0 0.58686835,0.62139004 0 1 1 1.173737,0 z"
     sodipodi:ry="0.62139004"
     sodipodi:rx="0.58686835"
     sodipodi:cy="36.745937"
     sodipodi:cx="27.237597"
     id="path3815"
     style="color:#000000;fill:#333333;fill-opacity:1;fill-rule:nonzero;stroke:none;stroke-width:1;marker:none;visibility:visible;display:inline;overflow:visible;enable-background:accumulate"
     sodipodi:type="arc" />
  <path
     sodipodi:type="arc"
     style="color:#000000;fill:#ddb20c;fill-opacity:1;fill-rule:nonzero;stroke:none;stroke-width:1;marker:none;visibility:visible;display:inline;overflow:visible;enable-background:accumulate"
     id="path3817"
     sodipodi:cx="27.237597"
     sodipodi:cy="36.745937"
     sodipodi:rx="0.58686835"
     sodipodi:ry="0.62139004"
     d="m 27.824465,36.745937 a 0.58686835,0.62139004 0 1 1 -1.173737,0 0.58686835,0.62139004 0 1 1 1.173737,0 z"
     transform="matrix(0.86274505,0,0,0.86274505,7.7384942,5.0435612)" />
  <path
     sodipodi:type="arc"
     style="color:#000000;fill:#333333;fill-opacity:1;fill-rule:nonzero;stroke:none;stroke-width:1;marker:none;visibility:visible;display:inline;overflow:visible;enable-background:accumulate"
     id="path3819"
     sodipodi:cx="27.237597"
     sodipodi:cy="36.745937"
     sodipodi:rx="0.58686835"
     sodipodi:ry="0.62139004"
     d="m 27.824465,36.745937 a 0.58686835,0.62139004 0 1 1 -1.173737,0 0.58686835,0.62139004 0 1 1 1.173737,0 z"
     transform="matrix(1.3333333,0,0,1.3333333,-1.0791986,-12.248645)" />
  <path
     transform="matrix(0.86274505,0,0,0.86274505,11.738494,5.0435612)"
     d="m 27.824465,36.745937 a 0.58686835,0.62139004 0 1 1 -1.173737,0 0.58686835,0.62139004 0 1 1 1.173737,0 z"
     sodipodi:ry="0.62139004"
     sodipodi:rx="0.58686835"
     sodipodi:cy="36.745937"
     sodipodi:cx="27.237597"
     id="path3821"
     style="color:#000000;fill:#0cdd0c;fill-opacity:1;fill-rule:nonzero;stroke:none;stroke-width:1;marker:none;visibility:visible;display:inline;overflow:visible;enable-background:accumulate"
     sodipodi:type="arc" />
  <path
     style="color:#000000;fill:#ccff00;fill-opacity:1;fill-rule:nonzero;stroke:none;stroke-width:1;marker:none;visibility:visible;display:inline;overflow:visible;enable-background:accumulate"
     d="M 23.59375 10.40625 C 16.775808 10.40625 11.25 14.030571 11.25 18.5 C 11.25 22.969429 16.775808 26.59375 23.59375 26.59375 C 30.411692 26.59375 35.9375 22.969429 35.9375 18.5 C 35.9375 14.030571 30.411692 10.40625 23.59375 10.40625 z M 23.59375 11.96875 C 29.095172 11.96875 33.5625 14.893602 33.5625 18.5 C 33.5625 22.106398 29.095172 25.03125 23.59375 25.03125 C 18.092328 25.03125 13.625 22.106398 13.625 18.5 C 13.625 14.893602 18.092328 11.96875 23.59375 11.96875 z "
     id="path3178" />
  <rect
     style="color:#000000;fill:#1a1a1a;fill-opacity:1;fill-rule:nonzero;stroke:none;stroke-width:1;marker:none;visibility:visible;display:inline;overflow:visible;enable-background:accumulate"
     id="rect3161"
     width="2.44874"
     height="26.623955"
     x="4.7873664"
     y="18.942902"
     transform="matrix(0.84610506,-0.53301615,0.62472167,0.78084751,0,0)" />
  <rect
     y="20.210711"
     x="4.7873664"
     height="3.4411914"
     width="2.44874"
     id="rect3163"
     style="color:#000000;fill:#b3b3b3;fill-opacity:1;fill-rule:nonzero;stroke:none;stroke-width:1;marker:none;visibility:visible;display:inline;overflow:visible;enable-background:accumulate"
     transform="matrix(0.84610506,-0.53301615,0.62472167,0.78084751,0,0)" />
  <rect
     style="color:#000000;fill:#f9f9f9;fill-opacity:1;fill-rule:nonzero;stroke:none;stroke-width:1;marker:none;visibility:visible;display:inline;overflow:visible;enable-background:accumulate"
     id="rect3165"
     width="0.7534585"
     height="3.4411914"
     x="4.7873664"
     y="20.210711"
     transform="matrix(0.84610506,-0.53301615,0.62472167,0.78084751,0,0)" />
  <path
     style="color:#000000;fill:#ccff00;fill-opacity:1;fill-rule:nonzero;stroke:none;stroke-width:1;marker:none;visibility:visible;display:inline;overflow:visible;enable-background:accumulate"
     d="m 11.307779,19.220863 c 0.587794,4.110797 5.856844,7.34375 12.28125,7.34375 6.424406,0 11.693456,-3.232953 12.28125,-7.34375 l -2.40625,0 c -0.578032,3.246575 -4.767827,5.78125 -9.875,5.78125 -5.107173,0 -9.296968,-2.534675 -9.875,-5.78125 l -2.40625,0 z"
     id="path3190"
     inkscape:connector-curvature="0" />
  <path
     sodipodi:type="star"
     style="color:#000000;fill:#ccff00;fill-opacity:1;fill-rule:nonzero;stroke:none;stroke-width:1;marker:none;visibility:visible;display:inline;overflow:visible;enable-background:accumulate"
     id="path3211"
     sodipodi:sides="5"
     sodipodi:cx="16.155111"
     sodipodi:cy="27.862995"
     sodipodi:r1="2.3453954"
     sodipodi:r2="1.2291271"
     sodipodi:arg1="1.8325957"
     sodipodi:arg2="2.4609142"
     inkscape:flatsided="false"
     inkscape:rounded="0"
     inkscape:randomized="0"
     d="M 15.548078,30.128473 15.1999,28.63651 l -1.38697,-0.650766 1.311349,-0.792179 0.190318,-1.520185 1.158636,1.00237 1.504593,-0.28876 -0.595272,1.411678 0.739571,1.341721 -1.526534,-0.129905 z"
     inkscape:transform-center-x="0.18758351"
     inkscape:transform-center-y="0.037931376" />
  <path
     sodipodi:type="star"
     style="color:#000000;fill:#ccff00;fill-opacity:1;fill-rule:nonzero;stroke:none;stroke-width:1;marker:none;visibility:visible;display:inline;overflow:visible;enable-background:accumulate"
     id="path3213"
     sodipodi:sides="5"
     sodipodi:cx="17.747869"
     sodipodi:cy="19.102829"
     sodipodi:r1="1.9573454"
     sodipodi:r2="1.0257657"
     sodipodi:arg1="-2.0943951"
     sodipodi:arg2="-1.4660766"
     inkscape:flatsided="false"
     inkscape:rounded="0"
     inkscape:randomized="0"
     d="m 16.769197,17.407718 1.085894,0.674965 1.202498,-0.434445 -0.306369,1.241322 0.784773,1.009393 -1.275241,0.09221 -0.717481,1.058284 -0.481773,-1.184331 -1.228201,-0.355337 0.977489,-0.824171 z"
     inkscape:transform-center-x="0.063224352"
     inkscape:transform-center-y="0.12575601" />
  <path
     sodipodi:type="star"
     style="color:#000000;fill:#ccff00;fill-opacity:1;fill-rule:nonzero;stroke:none;stroke-width:1;marker:none;visibility:visible;display:inline;overflow:visible;enable-background:accumulate"
     id="path3215"
     sodipodi:sides="5"
     sodipodi:cx="29.010939"
     sodipodi:cy="19.78544"
     sodipodi:r1="3.1875458"
     sodipodi:r2="1.6704641"
     sodipodi:arg1="-1.5707963"
     sodipodi:arg2="-0.9424778"
     inkscape:flatsided="false"
     inkscape:rounded="0"
     inkscape:randomized="0"
     d="m 29.010939,16.597895 0.981874,1.836112 2.049662,0.366428 -1.442831,1.501207 0.284887,2.062577 -1.873592,-0.908314 -1.873593,0.908314 0.284887,-2.062577 -1.442831,-1.501207 2.049662,-0.366428 z"
     inkscape:transform-center-y="-0.30438354" />
</svg>
