<?xml version="1.0" encoding="UTF-8" standalone="no"?>
<!-- Created using Karbon, part of Calligra: http://www.calligra.org/karbon -->

<svg
   xmlns:dc="http://purl.org/dc/elements/1.1/"
   xmlns:cc="http://creativecommons.org/ns#"
   xmlns:rdf="http://www.w3.org/1999/02/22-rdf-syntax-ns#"
   xmlns:svg="http://www.w3.org/2000/svg"
   xmlns="http://www.w3.org/2000/svg"
   xmlns:sodipodi="http://sodipodi.sourceforge.net/DTD/sodipodi-0.dtd"
   xmlns:inkscape="http://www.inkscape.org/namespaces/inkscape"
   width="38.4pt"
   height="38.4pt"
   id="svg2"
   version="1.1"
   inkscape:version="0.48.4 r9939"
   sodipodi:docname="align-horizontal-center.svg">
  <metadata
     id="metadata13">
    <rdf:RDF>
      <cc:Work
         rdf:about="">
        <dc:format>image/svg+xml</dc:format>
        <dc:type
           rdf:resource="http://purl.org/dc/dcmitype/StillImage" />
        <dc:title></dc:title>
      </cc:Work>
    </rdf:RDF>
  </metadata>
  <sodipodi:namedview
     pagecolor="#ffffff"
     bordercolor="#666666"
     borderopacity="1"
     objecttolerance="10"
     gridtolerance="10"
     guidetolerance="10"
     inkscape:pageopacity="0"
     inkscape:pageshadow="2"
     inkscape:window-width="1680"
     inkscape:window-height="989"
     id="namedview11"
     showgrid="false"
     inkscape:zoom="9.8333329"
     inkscape:cx="-2.7043037"
     inkscape:cy="26.149359"
     inkscape:window-x="-2"
     inkscape:window-y="-1"
     inkscape:window-maximized="1"
     inkscape:current-layer="svg2">
    <sodipodi:guide
       position="9.5367432e-07,48.000001"
       orientation="47.999999,0"
       id="guide4071" />
    <sodipodi:guide
       position="9.5367432e-07,1.9073486e-06"
       orientation="0,47.999999"
       id="guide4073" />
    <sodipodi:guide
       position="48,1.9073486e-06"
       orientation="-47.999999,0"
       id="guide4075" />
    <sodipodi:guide
       position="48,48.000001"
       orientation="0,-47.999999"
       id="guide4077" />
    <sodipodi:guide
       position="9.000001,39.000001"
       orientation="29.999999,0"
       id="guide4079" />
    <sodipodi:guide
       position="9.000001,9.0000019"
       orientation="0,29.999999"
       id="guide4081" />
    <sodipodi:guide
       position="39,9.0000019"
       orientation="-29.999999,0"
       id="guide4083" />
    <sodipodi:guide
       position="39,39.000001"
       orientation="0,-29.999999"
       id="guide4085" />
  </sodipodi:namedview>
  <defs
     id="defs4" />
  <path
     style="color:#000000;fill:#3e3efd;fill-opacity:1;fill-rule:nonzero;stroke:none;stroke-width:0.89999998000000003;stroke-linecap:butt;stroke-linejoin:miter;stroke-miterlimit:4;stroke-opacity:1;stroke-dasharray:1.80000000000000004, 0.90000000000000002;stroke-dashoffset:0;marker:none;visibility:visible;display:inline;overflow:visible;enable-background:accumulate"
     d="M 9 9 L 9 39 L 39 39 L 39 9 L 9 9 z M 31.875 12.0625 C 33.067566 12.062523 34.02394 12.609994 34.71875 13.6875 C 35.413545 14.754788 35.749991 16.204601 35.75 18.03125 C 35.749991 19.303777 35.586883 20.398717 35.21875 21.28125 C 34.850601 22.153549 34.30424 22.755111 33.625 23.09375 C 34.376832 23.41189 34.986249 24.056817 35.40625 25.0625 C 35.831419 26.068203 36.031241 27.303504 36.03125 28.78125 C 36.031241 31.049197 35.631876 32.820779 34.84375 34.0625 C 34.055609 35.304224 32.951821 35.9375 31.5 35.9375 C 31.012597 35.9375 30.518506 35.819981 30 35.625 C 29.486673 35.440281 28.924618 35.160951 28.375 34.78125 L 28.375 31.78125 C 28.810546 32.2841 29.293988 32.649698 29.8125 32.90625 C 30.331006 33.162807 30.872321 33.312502 31.4375 33.3125 C 32.422663 33.312502 33.174169 32.925916 33.6875 32.15625 C 34.206003 31.38659 34.468743 30.248747 34.46875 28.78125 C 34.468743 27.42665 34.232207 26.384411 33.75 25.625 C 33.272965 24.855347 32.605535 24.468761 31.75 24.46875 L 30.40625 24.46875 L 30.40625 21.90625 L 31.8125 21.90625 C 32.585074 21.906264 33.184121 21.605483 33.59375 21 C 34.003366 20.384284 34.187493 19.49313 34.1875 18.34375 C 34.187493 17.163617 33.987671 16.282262 33.5625 15.65625 C 33.142501 15.020015 32.538129 14.687521 31.75 14.6875 C 31.319633 14.687521 30.86758 14.784051 30.375 14.96875 C 29.882413 15.15349 29.341099 15.453807 28.75 15.84375 L 28.75 13.0625 C 29.346284 12.734133 29.887738 12.476718 30.40625 12.3125 C 30.929941 12.148328 31.413522 12.062523 31.875 12.0625 z M 11.96875 12.5 L 13.5625 12.5 L 16 31.90625 L 18.4375 12.5 L 20.1875 12.5 L 22.625 31.90625 L 25.0625 12.5 L 26.65625 12.5 L 23.75 35.46875 L 21.78125 35.46875 L 19.3125 15.53125 L 16.84375 35.46875 L 14.875 35.46875 L 11.96875 12.5 z "
     id="rect2991" />
</svg>
