<?xml version="1.0" encoding="UTF-8" standalone="no"?>
<!-- Created using Karbon, part of Calligra: http://www.calligra.org/karbon -->

<svg
   xmlns:dc="http://purl.org/dc/elements/1.1/"
   xmlns:cc="http://creativecommons.org/ns#"
   xmlns:rdf="http://www.w3.org/1999/02/22-rdf-syntax-ns#"
   xmlns:svg="http://www.w3.org/2000/svg"
   xmlns="http://www.w3.org/2000/svg"
   xmlns:sodipodi="http://sodipodi.sourceforge.net/DTD/sodipodi-0.dtd"
   xmlns:inkscape="http://www.inkscape.org/namespaces/inkscape"
   width="38.4pt"
   height="38.4pt"
   id="svg2"
   version="1.1"
   inkscape:version="0.48.4 r9939"
   sodipodi:docname="im-user.svg">
  <metadata
     id="metadata13">
    <rdf:RDF>
      <cc:Work
         rdf:about="">
        <dc:format>image/svg+xml</dc:format>
        <dc:type
           rdf:resource="http://purl.org/dc/dcmitype/StillImage" />
        <dc:title></dc:title>
      </cc:Work>
    </rdf:RDF>
  </metadata>
  <sodipodi:namedview
     pagecolor="#ffffff"
     bordercolor="#666666"
     borderopacity="1"
     objecttolerance="10"
     gridtolerance="10"
     guidetolerance="10"
     inkscape:pageopacity="0"
     inkscape:pageshadow="2"
     inkscape:window-width="959"
     inkscape:window-height="757"
     id="namedview11"
     showgrid="false"
     inkscape:zoom="11.721514"
     inkscape:cx="23.147994"
     inkscape:cy="25.835304"
     inkscape:window-x="0"
     inkscape:window-y="0"
     inkscape:window-maximized="0"
     inkscape:current-layer="svg2">
    <sodipodi:guide
       position="9.5367432e-07,48.000001"
       orientation="47.999999,0"
       id="guide4071" />
    <sodipodi:guide
       position="9.5367432e-07,1.9073486e-06"
       orientation="0,47.999999"
       id="guide4073" />
    <sodipodi:guide
       position="48,1.9073486e-06"
       orientation="-47.999999,0"
       id="guide4075" />
    <sodipodi:guide
       position="48,48.000001"
       orientation="0,-47.999999"
       id="guide4077" />
    <sodipodi:guide
       position="9.000001,39.000001"
       orientation="29.999999,0"
       id="guide4079" />
    <sodipodi:guide
       position="9.000001,9.0000019"
       orientation="0,29.999999"
       id="guide4081" />
    <sodipodi:guide
       position="39,9.0000019"
       orientation="-29.999999,0"
       id="guide4083" />
    <sodipodi:guide
       position="39,39.000001"
       orientation="0,-29.999999"
       id="guide4085" />
  </sodipodi:namedview>
  <defs
     id="defs4" />
  <rect
     style="color:#000000;fill:#999999;fill-opacity:1;fill-rule:nonzero;stroke:none;stroke-width:0.89999998000000003;stroke-linecap:butt;stroke-linejoin:miter;stroke-miterlimit:4;stroke-opacity:1;stroke-dasharray:1.80000000000000004, 0.90000000000000002;stroke-dashoffset:0;marker:none;visibility:visible;display:inline;overflow:visible;enable-background:accumulate"
     id="rect2991"
     width="29.999998"
     height="30"
     x="9.000001"
     y="8.999999" />
  <path
     d="m 24.000009,10.785318 c -3.704362,0 -6.70485,2.970603 -6.70485,6.626113 0.0091,0.418921 0.01158,0.886732 0.0528,1.407813 -0.586242,0.330426 -0.663706,1.625561 -0.14079,2.928251 0.201643,0.50232 0.478808,0.908311 0.756717,1.238876 0.0093,0.01107 0.02587,0.02678 0.03519,0.03756 0.06634,0.34418 0.113357,0.606618 0.193579,0.994855 0.248529,0.788315 1.277792,2.272984 2.182154,3.547689 0.09019,0.983346 0.09346,1.95988 -0.08799,3.078417 -2.603065,2.283395 -9.266543,3.304907 -9.256567,5.668797 l -0.123184,0.900994 26.185865,0 -0.123185,-0.901002 c -0.01057,-2.023172 -6.703014,-3.304908 -9.274162,-5.668795 -0.104109,-0.9055 -0.123385,-1.792361 -0.07039,-2.684232 0.822231,-1.341019 1.907015,-3.069168 2.182154,-3.941876 0.101126,-0.45196 0.150236,-0.756936 0.228774,-1.145021 0.242805,-0.313784 0.471892,-0.679747 0.651127,-1.126253 0.496592,-1.237091 0.435733,-2.432737 -0.07039,-2.834397 0.03537,-0.53753 0.07321,-1.042259 0.08799,-1.501667 6e-6,-3.655503 -3.000487,-6.626105 -6.70485,-6.626105 z"
     inkscape:connector-curvature="0"
     id="path3798-9"
     style="fill:#ffffff;fill-opacity:1;stroke:none;display:inline;enable-background:new" />
</svg>
