<?xml version="1.0" encoding="UTF-8" standalone="no"?>
<!-- Created with Inkscape (http://www.inkscape.org/) -->

<svg
   xmlns:dc="http://purl.org/dc/elements/1.1/"
   xmlns:cc="http://creativecommons.org/ns#"
   xmlns:rdf="http://www.w3.org/1999/02/22-rdf-syntax-ns#"
   xmlns:svg="http://www.w3.org/2000/svg"
   xmlns="http://www.w3.org/2000/svg"
   xmlns:sodipodi="http://sodipodi.sourceforge.net/DTD/sodipodi-0.dtd"
   xmlns:inkscape="http://www.inkscape.org/namespaces/inkscape"
   width="48"
   height="48"
   id="svg3380"
   version="1.1"
   inkscape:version="0.48.4 r9939"
   sodipodi:docname="mixer-ac97.svg">
  <defs
     id="defs3382" />
  <sodipodi:namedview
     id="base"
     pagecolor="#ffffff"
     bordercolor="#666666"
     borderopacity="1.0"
     inkscape:pageopacity="0.0"
     inkscape:pageshadow="2"
     inkscape:zoom="8.961571"
     inkscape:cx="27.107142"
     inkscape:cy="23.466508"
     inkscape:document-units="px"
     inkscape:current-layer="layer1"
     showgrid="false"
     fit-margin-top="0"
     fit-margin-left="0"
     fit-margin-right="0"
     fit-margin-bottom="0"
     inkscape:window-width="602"
     inkscape:window-height="455"
     inkscape:window-x="0"
     inkscape:window-y="0"
     inkscape:window-maximized="0"
     showguides="true">
    <sodipodi:guide
       position="9,38.999997"
       orientation="30,0"
       id="guide3264" />
    <sodipodi:guide
       position="9,8.9999974"
       orientation="0,30"
       id="guide3266" />
    <sodipodi:guide
       position="39,8.9999974"
       orientation="-30,0"
       id="guide3268" />
    <sodipodi:guide
       position="39,38.999997"
       orientation="0,-30"
       id="guide3270" />
  </sodipodi:namedview>
  <metadata
     id="metadata3385">
    <rdf:RDF>
      <cc:Work
         rdf:about="">
        <dc:format>image/svg+xml</dc:format>
        <dc:type
           rdf:resource="http://purl.org/dc/dcmitype/StillImage" />
        <dc:title></dc:title>
      </cc:Work>
    </rdf:RDF>
  </metadata>
  <g
     inkscape:label="Capa 1"
     inkscape:groupmode="layer"
     id="layer1"
     transform="translate(-336,-328.36218)">
    <rect
       style="color:#000000;fill:#aa0000;fill-opacity:1;fill-rule:evenodd;stroke:none;stroke-width:0.80000000999999998;marker:none;visibility:visible;display:inline;overflow:visible;enable-background:accumulate"
       id="rect2987"
       width="30"
       height="30"
       x="9"
       y="9.0000029"
       transform="translate(336,328.36218)" />
    <g
       id="g3046"
       transform="translate(-1.3733181,0.92519845)">
      <g
         transform="matrix(0.87264628,0,0,0.87264628,45.188377,43.007801)"
         id="g3038">
        <path
           inkscape:connector-curvature="0"
           style="color:#000000;fill:#ffffff;fill-opacity:1;fill-rule:evenodd;stroke:none;stroke-width:0.80000001;marker:none;visibility:visible;display:inline;overflow:visible;enable-background:accumulate"
           d="m 20.59375,11.09375 c -3.113383,0 -5.65625,4.531465 -5.65625,10.125 0,0.222587 0.02338,0.437236 0.03125,0.65625 l 11.21875,0 c 0.0079,-0.219014 0.03125,-0.433663 0.03125,-0.65625 0,-5.593535 -2.511617,-10.125 -5.625,-10.125 z"
           transform="translate(336,328.36218)"
           id="path3028" />
        <path
           inkscape:connector-curvature="0"
           style="color:#000000;fill:#ffffff;fill-opacity:1;fill-rule:evenodd;stroke:none;stroke-width:0.80000001;marker:none;visibility:visible;display:inline;overflow:visible;enable-background:accumulate"
           d="m 14.96875,23.09375 c -0.0078,0.21901 -0.03125,0.43366 -0.03125,0.65625 0,5.59353 2.54287,10.125 5.65625,10.125 3.11338,0 5.625,-4.53147 5.625,-10.125 0,-0.22259 -0.02325,-0.43724 -0.03125,-0.65625 l -11.21875,0 z m 0.65625,0.4375 9.90625,0 c 0.007,0.20088 0.03125,0.42084 0.03125,0.625 0,5.13038 -2.22492,9.28125 -4.96875,9.28125 -2.74383,0 -5,-4.15087 -5,-9.28125 0,-0.20416 0.02435,-0.42412 0.03125,-0.625 z"
           transform="translate(336,328.36218)"
           id="path3033" />
      </g>
      <rect
         y="358.95453"
         x="354.96988"
         height="5.3562036"
         width="2.678102"
         id="rect3042"
         style="color:#000000;fill:#ffffff;fill-opacity:1;fill-rule:evenodd;stroke:none;stroke-width:0.80000001;marker:none;visibility:visible;display:inline;overflow:visible;enable-background:accumulate" />
      <rect
         y="348.57687"
         x="350.17163"
         height="1.8969889"
         width="12.497808"
         id="rect3044"
         style="color:#000000;fill:#ffffff;fill-opacity:1;fill-rule:evenodd;stroke:none;stroke-width:0.80000001;marker:none;visibility:visible;display:inline;overflow:visible;enable-background:accumulate" />
    </g>
    <g
       id="g3053"
       transform="matrix(0.875,0,0,0.85761202,55.865928,48.55834)">
      <g
         id="g3055"
         transform="matrix(0.87264628,0,0,0.87264628,45.188377,43.007801)">
        <path
           id="path3057"
           transform="translate(336,328.36218)"
           d="m 20.59375,11.09375 c -3.113383,0 -5.65625,4.531465 -5.65625,10.125 0,0.222587 0.02338,0.437236 0.03125,0.65625 l 11.21875,0 c 0.0079,-0.219014 0.03125,-0.433663 0.03125,-0.65625 0,-5.593535 -2.511617,-10.125 -5.625,-10.125 z"
           style="color:#000000;fill:#ffffff;fill-opacity:1;fill-rule:evenodd;stroke:none;stroke-width:0.80000001;marker:none;visibility:visible;display:inline;overflow:visible;enable-background:accumulate"
           inkscape:connector-curvature="0" />
        <path
           id="path3059"
           transform="translate(336,328.36218)"
           d="m 14.96875,23.09375 c -0.0078,0.21901 -0.03125,0.43366 -0.03125,0.65625 0,5.59353 2.54287,10.125 5.65625,10.125 3.11338,0 5.625,-4.53147 5.625,-10.125 0,-0.22259 -0.02325,-0.43724 -0.03125,-0.65625 l -11.21875,0 z m 0.65625,0.4375 9.90625,0 c 0.007,0.20088 0.03125,0.42084 0.03125,0.625 0,5.13038 -2.22492,9.28125 -4.96875,9.28125 -2.74383,0 -5,-4.15087 -5,-9.28125 0,-0.20416 0.02435,-0.42412 0.03125,-0.625 z"
           style="color:#000000;fill:#ffffff;fill-opacity:1;fill-rule:evenodd;stroke:none;stroke-width:0.80000001;marker:none;visibility:visible;display:inline;overflow:visible;enable-background:accumulate"
           inkscape:connector-curvature="0" />
      </g>
      <rect
         style="color:#000000;fill:#ffffff;fill-opacity:1;fill-rule:evenodd;stroke:none;stroke-width:0.80000001;marker:none;visibility:visible;display:inline;overflow:visible;enable-background:accumulate"
         id="rect3061"
         width="2.678102"
         height="5.3562036"
         x="354.96988"
         y="358.95453" />
      <rect
         style="color:#000000;fill:#ffffff;fill-opacity:1;fill-rule:evenodd;stroke:none;stroke-width:0.80000001;marker:none;visibility:visible;display:inline;overflow:visible;enable-background:accumulate"
         id="rect3063"
         width="12.497808"
         height="1.8969889"
         x="350.17163"
         y="348.57687" />
    </g>
  </g>
</svg>
