<?xml version="1.0" encoding="UTF-8" standalone="no"?>
<!-- Created with Inkscape (http://www.inkscape.org/) -->

<svg
   xmlns:dc="http://purl.org/dc/elements/1.1/"
   xmlns:cc="http://creativecommons.org/ns#"
   xmlns:rdf="http://www.w3.org/1999/02/22-rdf-syntax-ns#"
   xmlns:svg="http://www.w3.org/2000/svg"
   xmlns="http://www.w3.org/2000/svg"
   xmlns:sodipodi="http://sodipodi.sourceforge.net/DTD/sodipodi-0.dtd"
   xmlns:inkscape="http://www.inkscape.org/namespaces/inkscape"
   width="48"
   height="48"
   id="svg865"
   version="1.1"
   inkscape:version="0.48.5 r10040"
   sodipodi:docname="folder-linux.svg">
  <defs
     id="defs867" />
  <sodipodi:namedview
     id="base"
     pagecolor="#ffffff"
     bordercolor="#666666"
     borderopacity="1.0"
     inkscape:pageopacity="0.0"
     inkscape:pageshadow="2"
     inkscape:zoom="8.074902"
     inkscape:cx="11.31372"
     inkscape:cy="16.398906"
     inkscape:document-units="px"
     inkscape:current-layer="folderLayer"
     showgrid="false"
     inkscape:window-width="1280"
     inkscape:window-height="670"
     inkscape:window-x="-2"
     inkscape:window-y="-3"
     inkscape:window-maximized="1"
     borderlayer="true"
     inkscape:showpageshadow="false"
     showguides="true"
     inkscape:guide-bbox="true">
    <sodipodi:guide
       position="0,39.000017"
       orientation="30,0"
       id="guide4110" />
    <sodipodi:guide
       position="30,39.000017"
       orientation="0,-30"
       id="guide4116" />
    <sodipodi:guide
       position="30,9.0000174"
       orientation="0,18"
       id="guide4120" />
    <sodipodi:guide
       position="48,9.0000174"
       orientation="-30,0"
       id="guide4122" />
    <sodipodi:guide
       position="48,39.000017"
       orientation="0,-18"
       id="guide4124" />
    <sodipodi:guide
       position="4,41.000017"
       orientation="34,0"
       id="guide4164" />
    <sodipodi:guide
       position="22,41.000017"
       orientation="0,-18"
       id="guide4170" />
    <sodipodi:guide
       position="6,37.0002"
       orientation="27.999817,0"
       id="guide4174" />
    <sodipodi:guide
       position="6,9.0003836"
       orientation="0,35.999992"
       id="guide4176" />
    <sodipodi:guide
       position="41.999992,9.0003836"
       orientation="-27.999817,0"
       id="guide4178" />
    <sodipodi:guide
       position="41.999992,37.0002"
       orientation="0,-35.999992"
       id="guide4180" />
    <sodipodi:guide
       position="14,31.000017"
       orientation="20,0"
       id="guide4221" />
    <sodipodi:guide
       position="34,11.000017"
       orientation="-20,0"
       id="guide4225" />
    <sodipodi:guide
       position="34,31.000017"
       orientation="0,-20"
       id="guide4227" />
    <sodipodi:guide
       position="14,31.000017"
       orientation="11,0"
       id="guide4412" />
    <sodipodi:guide
       position="14,20.000017"
       orientation="6.123234e-17,1"
       id="guide4414" />
    <sodipodi:guide
       position="25,20.000017"
       orientation="-11,0"
       id="guide4416" />
    <sodipodi:guide
       position="25,31.000017"
       orientation="0,-11"
       id="guide4418" />
    <sodipodi:guide
       position="25,20.000017"
       orientation="9,0"
       id="guide4420" />
    <sodipodi:guide
       position="25,11.000017"
       orientation="0,9"
       id="guide4422" />
    <sodipodi:guide
       position="34,11.000017"
       orientation="-9,0"
       id="guide4424" />
    <sodipodi:guide
       position="34,20.000017"
       orientation="0,-9"
       id="guide4426" />
    <sodipodi:guide
       position="23.000001,35.000017"
       orientation="-1.9999999,0"
       id="guide4068" />
    <sodipodi:guide
       position="23.000001,37.000017"
       orientation="0,2"
       id="guide4070" />
    <sodipodi:guide
       position="25,37.000017"
       orientation="1.9999999,0"
       id="guide4072" />
    <sodipodi:guide
       position="25,35.000017"
       orientation="0,-2"
       id="guide4074" />
    <sodipodi:guide
       orientation="0,1"
       position="-5.0900019,45.012788"
       id="guide3049" />
    <sodipodi:guide
       orientation="0,1"
       position="14,5.0286766"
       id="guide3051" />
    <sodipodi:guide
       orientation="1,0"
       position="18.481902,18.990154"
       id="guide3071" />
    <sodipodi:guide
       orientation="0,1"
       position="23.000001,33.560779"
       id="guide3298" />
    <sodipodi:guide
       orientation="1,0"
       position="11.579088,13.746297"
       id="guide3300" />
    <sodipodi:guide
       orientation="1,0"
       position="36.16143,9.0000174"
       id="guide3302" />
  </sodipodi:namedview>
  <metadata
     id="metadata870">
    <rdf:RDF>
      <cc:Work
         rdf:about="">
        <dc:format>image/svg+xml</dc:format>
        <dc:type
           rdf:resource="http://purl.org/dc/dcmitype/StillImage" />
        <dc:title />
      </cc:Work>
    </rdf:RDF>
  </metadata>
  <g
     inkscape:groupmode="layer"
     id="folderLayer"
     inkscape:label="folder">
    <g
       transform="matrix(1.4584708,0,0,1.4584708,-10.027411,-14.032475)"
       id="g3044"
       style="fill:#1a1a1a">
      <path
         sodipodi:nodetypes="ssssccssssccs"
         inkscape:connector-curvature="0"
         id="path3059"
         d="m 24.016532,14.965545 c -6.367799,0 -11.540064,5.172264 -11.540064,11.540063 0,6.367799 5.172265,11.540064 11.540064,11.540064 6.367798,0 11.506997,-5.172265 11.506997,-11.540064 0,-2.726689 -0.935458,-5.232354 -2.513022,-7.208406 -0.247906,0.100838 -0.497526,0.19949 -0.76052,0.330661 1.554937,1.859374 2.479956,4.261545 2.479956,6.877745 0,5.921458 -4.791954,10.713411 -10.713411,10.713411 -5.921458,0 -10.746478,-4.791953 -10.746478,-10.713411 0,-5.921457 4.82502,-10.713411 10.746478,-10.713411 3.103804,0 5.87678,1.324836 7.832497,3.430542 0.375242,-0.06394 0.647238,-0.110382 0.975321,-0.153089 -2.10873,-2.524519 -5.259039,-4.104105 -8.807818,-4.104105 z"
         style="color:#000000;fill:#8c8c8c;fill-opacity:1;fill-rule:nonzero;stroke:none;stroke-width:2.59999989999999981;marker:none;visibility:visible;display:inline;overflow:visible;enable-background:accumulate" />
      <path
         sodipodi:nodetypes="sccccccccccccccccssssscsssssss"
         inkscape:connector-curvature="0"
         id="path3083"
         d="m 23.884267,17.743096 c -0.235717,0.01094 -0.363727,0.03307 -0.363727,0.03307 -7.273547,0.646538 -10.415816,8.663314 -10.415816,8.663314 l 0.218481,2.286823 c 1.454709,-3.609836 10.032005,1.052851 10.032005,1.052851 -3.071053,-3.124931 -5.109453,-3.89592 -5.109453,-3.89592 -1.316933,-0.751576 -2.755012,-1.030313 -2.755012,-1.030313 1.19761,-2.734151 2.474693,-4.001609 2.474693,-4.001609 l 0.423983,2.612834 c 3.081315,2.645504 5.990838,2.380144 5.990838,2.380144 4.525762,3.340444 5.026044,9.919826 5.026044,9.919826 l 1.804427,-0.971898 c 0.754293,-1.777977 -2.234286,-7.261557 -2.234286,-7.261557 -0.890693,-1.67432 -1.157313,-3.174344 -1.157313,-3.174344 0.215513,-0.215513 1.454908,-2.446891 1.454908,-2.446891 1.077563,-1.7241 6.216424,-3.20741 6.216424,-3.20741 -3.825348,-0.431025 -6.580151,0.529058 -6.580151,0.529058 -2.58615,-1.414302 -4.318894,-1.520806 -5.026045,-1.487978 z m 10.184354,1.190379 c 0.311991,-0.02389 0.367395,-0.0067 0,0.03307 -0.97857,0.105827 -2.395361,0.725105 -3.473533,1.378303 -1.078171,0.653199 -1.367008,1.19842 -1.368353,0.999067 -0.0069,-1.013692 -0.858433,-1.054426 -0.858433,-1.054426 1.101144,-0.761624 4.764348,-1.284321 5.700319,-1.356014 z m -10.647279,0.363727 c 0.08417,-0.01723 0.175261,0 0.264529,0 0.714146,0 1.289577,0.575431 1.289577,1.289577 0,0.714146 -0.575431,1.289577 -1.289577,1.289577 -0.714146,0 -1.289578,-0.575431 -1.289578,-1.289577 0,-0.624877 0.435817,-1.169003 1.025049,-1.289577 z"
         style="fill:#8c8c8c;stroke:none;fill-opacity:1" />
      <path
         style="color:#000000;fill:#8c8c8c;fill-opacity:1;fill-rule:nonzero;stroke:none;stroke-width:2.59999989999999981;marker:none;visibility:visible;display:inline;overflow:visible;enable-background:accumulate"
         d="m 24.017035,14.614792 c -6.561345,0 -11.890817,5.329472 -11.890817,11.890816 0,6.561344 5.329472,11.890817 11.890817,11.890817 6.561343,0 11.856744,-5.329473 11.856744,-11.890817 0,-2.809565 -0.908715,-5.336213 -2.534228,-7.372326 -0.255441,0.103903 -0.567823,0.150378 -0.838811,0.285536 1.602198,1.915889 2.555333,4.391072 2.555333,7.08679 0,6.101437 -4.937603,11.039038 -11.039038,11.039038 -6.101437,0 -11.073111,-4.937601 -11.073111,-11.039038 0,-6.101436 4.971674,-11.039038 11.073111,-11.039038 3.198142,0 6.055401,1.365103 8.07056,3.534811 0.386648,-0.06588 0.666911,-0.113737 1.004966,-0.157742 -2.172824,-2.60125 -5.418885,-4.228847 -9.075526,-4.228847 z"
         id="path3042"
         inkscape:connector-curvature="0"
         sodipodi:nodetypes="ssssccssssccs" />
    </g>
  </g>
</svg>
