<?xml version="1.0" encoding="UTF-8" standalone="no"?>
<!-- Created with Inkscape (http://www.inkscape.org/) -->

<svg
   xmlns:dc="http://purl.org/dc/elements/1.1/"
   xmlns:cc="http://creativecommons.org/ns#"
   xmlns:rdf="http://www.w3.org/1999/02/22-rdf-syntax-ns#"
   xmlns:svg="http://www.w3.org/2000/svg"
   xmlns="http://www.w3.org/2000/svg"
   xmlns:sodipodi="http://sodipodi.sourceforge.net/DTD/sodipodi-0.dtd"
   xmlns:inkscape="http://www.inkscape.org/namespaces/inkscape"
   id="svg3037"
   version="1.1"
   inkscape:version="0.91+devel r"
   width="512"
   height="512"
   sodipodi:docname="libreoffice-writer.svg"
   viewBox="0 0 512 512">
  <metadata
     id="metadata3043">
    <rdf:RDF>
      <cc:Work
         rdf:about="">
        <dc:format>image/svg+xml</dc:format>
        <dc:type
           rdf:resource="http://purl.org/dc/dcmitype/StillImage" />
        <dc:title></dc:title>
      </cc:Work>
    </rdf:RDF>
  </metadata>
  <defs
     id="defs3041" />
  <sodipodi:namedview
     pagecolor="#ffffff"
     bordercolor="#666666"
     borderopacity="1"
     objecttolerance="10"
     gridtolerance="10"
     guidetolerance="10"
     inkscape:pageopacity="0"
     inkscape:pageshadow="2"
     inkscape:window-width="1920"
     inkscape:window-height="1024"
     id="namedview3039"
     showgrid="false"
     inkscape:zoom="1.6230469"
     inkscape:cx="256"
     inkscape:cy="477.80505"
     inkscape:window-x="0"
     inkscape:window-y="29"
     inkscape:window-maximized="1"
     inkscape:current-layer="svg3037"
     inkscape:document-units="px" />
  <rect
     style="fill:#ffffff;fill-opacity:1;fill-rule:evenodd;stroke:none;stroke-width:0.44935629px;stroke-linecap:butt;stroke-linejoin:miter;stroke-opacity:1"
     id="rect2983"
     width="249.54126"
     height="268.8428"
     x="128.78667"
     y="143.918"
     ry="6.1440964" />
  <path
     inkscape:connector-curvature="0"
     id="path2986"
     d="M 112.10821,480.77558 C 94.852172,476.94648 83.051694,465.85482 77.272971,448.03291 L 76.264435,444.92242 76.124548,259.49058 C 76.022952,124.77412 76.130856,73.027918 76.518683,70.289717 78.896541,53.506075 90.737302,39.226139 106.89251,33.658934 c 7.00861,-2.415216 5.5286,-2.373772 84.7665,-2.373772 l 73.92955,0 84.07893,84.607678 84.07893,84.60767 0.29004,30.68984 c 0.15952,16.87939 0.32082,72.32269 0.35844,123.20733 0.0684,92.49017 0.0681,92.51841 -0.92552,95.58341 -4.86242,14.99892 -15.26536,24.99039 -31.50041,30.25446 l -3.11049,1.00854 -141.94138,0.0839 c -116.66221,0.069 -142.45207,-0.0296 -144.80889,-0.5524 z m 158.78901,-216.6399 c 0.11296,-100.00546 0.0695,-106.72915 -0.69092,-107.02097 -1.04992,-0.4029 -128.55887,22.08546 -129.45865,22.83222 -0.58501,0.48551 -0.68129,12.36752 -0.68129,84.08386 0,66.23208 0.12365,83.62095 0.5974,84.01361 0.72811,0.60348 126.65915,22.99715 128.67918,22.88235 l 1.43375,-0.0815 z m -55.55161,39.44276 c -0.1109,-0.32857 -1.72865,-7.90953 -3.595,-16.84659 -3.78237,-18.11197 -6.41169,-29.41725 -7.17223,-30.83834 -0.67652,-1.26409 -1.73735,-1.19512 -2.03287,0.13217 -0.13168,0.59143 -2.30916,11.27466 -4.83885,23.74052 -2.52969,12.46586 -4.67864,22.74441 -4.77545,22.84121 -0.40471,0.40472 -12.78958,-0.53102 -13.40069,-1.01248 -0.42566,-0.33535 -2.32011,-9.26052 -5.23439,-24.66038 -2.51201,-13.27414 -5.47773,-28.81543 -6.59049,-34.53619 -2.33954,-12.02767 -2.43511,-11.54681 2.45142,-12.33376 8.00691,-1.28948 7.88607,-1.61759 14.00273,38.02197 1.2616,8.17593 1.69388,10.0579 2.33877,10.18208 0.59625,0.1148 0.91713,-0.41331 1.30278,-2.14412 0.28142,-1.26304 2.11554,-9.66616 4.07582,-18.67361 4.20706,-19.33137 6.26149,-27.02904 7.63979,-28.6252 1.1558,-1.33848 4.89332,-1.94431 8.58224,-1.39112 4.01199,0.60164 3.6717,-0.34692 8.41396,23.45347 2.35684,11.82845 4.7206,23.00123 5.25279,24.8284 1.56249,5.36444 3.36967,6.13955 3.36967,1.44527 0,-3.03117 0.92554,-10.02063 2.90956,-21.97241 1.54662,-9.31682 5.07866,-28.27448 5.46273,-29.32033 0.31203,-0.84966 12.3062,-0.61367 13.17852,0.25929 0.44062,0.44095 -0.30581,4.60222 -3.30052,18.39981 -2.12845,9.80649 -5.83095,27.07005 -8.22777,38.36347 -2.39681,11.29341 -4.46224,20.70241 -4.58984,20.90888 -0.1276,0.20646 -3.55953,0.37538 -7.62651,0.37538 -5.48945,0 -7.44647,-0.15391 -7.59617,-0.59739 z m 154.50329,44.47018 c 0.8342,-0.83419 0.8342,-167.20147 0,-168.03566 -0.83161,-0.8316 -90.7373,-0.8316 -91.56891,0 -0.81356,0.81357 -0.81356,21.9353 0,22.74886 0.43525,0.43526 8.72995,0.5735 34.41003,0.5735 l 33.83653,0 0,3.34542 0,3.34542 -33.83653,0 c -25.68008,0 -33.97478,0.13825 -34.41003,0.5735 -0.39368,0.39368 -0.5735,2.7613 -0.5735,7.55109 0,4.78979 0.17982,7.15741 0.5735,7.55109 0.43525,0.43526 8.72995,0.5735 34.41003,0.5735 l 33.83653,0 0,3.34543 0,3.34541 -33.83653,0 c -25.68008,0 -33.97478,0.13825 -34.41003,0.5735 -0.39368,0.39368 -0.5735,2.76131 -0.5735,7.55109 0,4.78979 0.17982,7.15741 0.5735,7.55109 0.43525,0.43526 8.72995,0.5735 34.41003,0.5735 l 33.83653,0 0,3.34543 0,3.34541 -33.83653,0 c -25.68008,0 -33.97478,0.13825 -34.41003,0.5735 -0.80048,0.80049 -0.80048,14.3017 0,15.10218 0.43525,0.43526 8.72995,0.57351 34.41003,0.57351 l 33.83653,0 0,3.34541 0,3.34542 -33.83653,0 c -25.68008,0 -33.97478,0.13825 -34.41003,0.5735 -0.39368,0.39369 -0.5735,2.7613 -0.5735,7.55109 0,4.7898 0.17982,7.15741 0.5735,7.5511 0.43525,0.43525 8.72995,0.57349 34.41003,0.57349 l 33.83653,0 0,3.34543 0,3.34541 -33.83653,0 c -25.68008,0 -33.97478,0.13825 -34.41003,0.57351 -0.80048,0.80048 -0.80048,14.30169 0,15.10217 0.43525,0.43526 8.72995,0.57351 34.41003,0.57351 l 33.83653,0 0,3.34542 0,3.34542 -33.83653,0 c -25.68008,0 -33.97478,0.13825 -34.41003,0.57349 -0.41222,0.41223 -0.5735,3.61094 -0.5735,11.37443 0,7.7635 0.16128,10.96221 0.5735,11.37443 0.83161,0.83161 90.7373,0.83161 91.56891,0 z"
     style="fill:#4aaee8;stroke-width:0.44935629"
     sodipodi:nodetypes="cccscsscccsssscscsssssscsssssscsssssssssssssssssssssssssscccssssscccssssscccsssscccssssscccsssscccsssss" />
  <path
     inkscape:connector-curvature="0"
     id="path2984"
     d="M 432.42457,139.87424 C 431.75274,139.58805 332.82778,39.479195 329.42623,35.643257 c -1.42027,-1.601627 -2.2696,-3.01435 -2.2696,-3.775061 l 0,-1.215632 35.24234,0.154789 c 34.37886,0.150995 35.33309,0.180375 38.94649,1.199148 14.54693,4.101404 25.82881,13.832413 31.20791,26.917891 3.43143,8.347471 3.35796,7.338049 3.35796,46.129738 l 0,34.87902 -1.45329,0.0941 c -0.79931,0.0518 -1.71438,-0.0171 -2.03347,-0.15303 z"
     style="fill:#175e99;stroke-width:0.44935629" />
</svg>
