<?xml version="1.0" encoding="UTF-8" standalone="no"?>
<!-- Created with Inkscape (http://www.inkscape.org/) -->

<svg
   xmlns:dc="http://purl.org/dc/elements/1.1/"
   xmlns:cc="http://creativecommons.org/ns#"
   xmlns:rdf="http://www.w3.org/1999/02/22-rdf-syntax-ns#"
   xmlns:svg="http://www.w3.org/2000/svg"
   xmlns="http://www.w3.org/2000/svg"
   xmlns:sodipodi="http://sodipodi.sourceforge.net/DTD/sodipodi-0.dtd"
   xmlns:inkscape="http://www.inkscape.org/namespaces/inkscape"
   id="svg2997"
   version="1.1"
   inkscape:version="0.91+devel r"
   width="512"
   height="512"
   sodipodi:docname="libreoffice-base.svg"
   viewBox="0 0 512 512">
  <metadata
     id="metadata3003">
    <rdf:RDF>
      <cc:Work
         rdf:about="">
        <dc:format>image/svg+xml</dc:format>
        <dc:type
           rdf:resource="http://purl.org/dc/dcmitype/StillImage" />
        <dc:title></dc:title>
      </cc:Work>
    </rdf:RDF>
  </metadata>
  <defs
     id="defs3001" />
  <sodipodi:namedview
     pagecolor="#ffffff"
     bordercolor="#666666"
     borderopacity="1"
     objecttolerance="10"
     gridtolerance="10"
     guidetolerance="10"
     inkscape:pageopacity="0"
     inkscape:pageshadow="2"
     inkscape:window-width="1920"
     inkscape:window-height="1024"
     id="namedview2999"
     showgrid="true"
     inkscape:zoom="1.625"
     inkscape:cx="256"
     inkscape:cy="256"
     inkscape:window-x="0"
     inkscape:window-y="29"
     inkscape:window-maximized="1"
     inkscape:current-layer="svg2997"
     showguides="true">
    <inkscape:grid
       type="xygrid"
       id="grid4144" />
  </sodipodi:namedview>
  <path
     style="fill:#ffffff;fill-opacity:1;fill-rule:evenodd;stroke:none;stroke-width:0.4456763px;stroke-linecap:butt;stroke-linejoin:miter;stroke-opacity:1"
     d="m 104.73013,155.53805 0,262.87915 296.87483,0 0,-229.8796 -87.50991,-50.52388 -211.94519,0 z"
     id="path3338"
     inkscape:connector-curvature="0" />
  <g
     id="g3415"
     transform="matrix(0.44567629,0,0,0.44567629,25.150996,28.293316)"
     style="fill:#d41a1a;fill-opacity:1">
    <path
       style="fill:#d41a1a;fill-opacity:1;stroke-width:1.06779671"
       d="m 916.87265,738.31732 -0.38403,6.09798 0.004,-12.81356 0.004,-12.81356 0.38019,6.71558 c 0.20911,3.69356 0.20739,9.45966 -0.004,12.81356 z M 816.47629,287.93222 c -0.16688,0 -2.92981,-2.76292 -6.13983,-6.13983 l -5.8364,-6.13983 6.13983,5.83641 c 3.3769,3.21002 6.13983,5.97294 6.13983,6.13983 0,0.16688 -0.13654,0.30342 -0.30343,0.30342 z m 94.80343,-36.30508 c -0.29364,0 -0.53389,-0.24026 -0.53389,-0.5339 0,-0.29365 0.24025,-0.5339 0.53389,-0.5339 0.29365,0 0.5339,0.24025 0.5339,0.5339 0,0.29364 -0.24025,0.5339 -0.5339,0.5339 z m 8.54238,-1.0678 c -0.29365,0 -0.5339,-0.24026 -0.5339,-0.5339 0,-0.29364 0.24025,-0.5339 0.5339,-0.5339 0.29364,0 0.5339,0.24026 0.5339,0.5339 0,0.29364 -0.24026,0.5339 -0.5339,0.5339 z m -12.58309,-1.0678 c -0.16689,0 -2.92981,-2.76292 -6.13983,-6.13983 l -5.83641,-6.13983 6.13983,5.83641 c 3.37691,3.21002 6.13984,5.97294 6.13984,6.13983 0,0.16688 -0.13654,0.30342 -0.30343,0.30342 z m -70.70505,-71.54238 c -0.29365,0 -0.5339,-0.24025 -0.5339,-0.53389 0,-0.29365 0.24025,-0.5339 0.5339,-0.5339 0.29364,0 0.53389,0.24025 0.53389,0.5339 0,0.29364 -0.24025,0.53389 -0.53389,0.53389 z m -1.89729,-2.13559 c -0.16257,0 -3.64625,-3.48369 -7.74152,-7.74153 l -7.44594,-7.74152 7.74153,7.44594 c 4.25783,4.09526 7.74152,7.57895 7.74152,7.74152 0,0.16258 -0.13301,0.29559 -0.29559,0.29559 z M 631.64773,102.1356 c -0.22172,0 -1.06261,-0.84089 -1.86864,-1.86864 l -1.46549,-1.868648 1.86865,1.465492 c 1.02775,0.806016 1.86864,1.646906 1.86864,1.868646 0,0.22173 -0.18142,0.40315 -0.40316,0.40315 z m 289.42013,-2.491525 -0.71186,0.711865 0,-1.42373 0,-1.423729 0.71186,0.711864 0.71186,0.711865 -0.71186,0.711865 z M 759.06524,98.93221 c -0.29364,0 -4.11365,-3.603814 -8.48892,-8.008475 -4.37526,-4.404662 -7.71476,-8.008475 -7.42112,-8.008475 0.29364,0 4.11366,3.603813 8.48892,8.008475 4.37527,4.404661 7.71477,8.008475 7.42112,8.008475 z M 626.42387,96.796617 c -0.15842,0 -4.84338,-4.684958 -10.41102,-10.411018 l -10.12298,-10.411018 10.41102,10.12298 c 5.72606,5.567638 10.41102,10.252596 10.41102,10.411017 0,0.158421 -0.12962,0.288039 -0.28804,0.288039 z M 919.8221,91.457633 c -0.29365,0 -0.5339,-0.240254 -0.5339,-0.533898 0,-0.293644 0.24025,-0.533899 0.5339,-0.533899 0.29364,0 0.5339,0.240255 0.5339,0.533899 0,0.293644 -0.24026,0.533898 -0.5339,0.533898 z m -1.0678,-5.338983 c -0.29364,0 -0.5339,-0.240255 -0.5339,-0.533899 0,-0.293644 0.24026,-0.533898 0.5339,-0.533898 0.29364,0 0.5339,0.240254 0.5339,0.533898 0,0.293644 -0.24026,0.533899 -0.5339,0.533899 z m -1.0678,-4.271187 c -0.29364,0 -0.53389,-0.240254 -0.53389,-0.533898 0,-0.293644 0.24025,-0.533899 0.53389,-0.533899 0.29365,0 0.5339,0.240255 0.5339,0.533899 0,0.293644 -0.24025,0.533898 -0.5339,0.533898 z m -1.06779,-3.20339 c -0.29365,0 -0.5339,-0.240254 -0.5339,-0.533898 0,-0.293644 0.24025,-0.533899 0.5339,-0.533899 0.29364,0 0.5339,0.240255 0.5339,0.533899 0,0.293644 -0.24026,0.533898 -0.5339,0.533898 z m -1.0678,-3.20339 c -0.29364,0 -0.5339,-0.240254 -0.5339,-0.533898 0,-0.293645 0.24026,-0.533899 0.5339,-0.533899 0.29364,0 0.5339,0.240254 0.5339,0.533899 0,0.293644 -0.24026,0.533898 -0.5339,0.533898 z m -1.0678,-3.20339 c -0.29364,0 -0.53389,-0.240254 -0.53389,-0.533898 0,-0.293645 0.24025,-0.533899 0.53389,-0.533899 0.29365,0 0.5339,0.240254 0.5339,0.533899 0,0.293644 -0.24025,0.533898 -0.5339,0.533898 z m -2.13559,-5.338984 c -0.29364,0 -0.5339,-0.240254 -0.5339,-0.533898 0,-0.293644 0.24026,-0.533898 0.5339,-0.533898 0.29364,0 0.5339,0.240254 0.5339,0.533898 0,0.293644 -0.24026,0.533898 -0.5339,0.533898 z m -1.0678,-2.135593 c -0.29364,0 -0.53389,-0.240254 -0.53389,-0.533898 0,-0.293644 0.24025,-0.533899 0.53389,-0.533899 0.29365,0 0.5339,0.240255 0.5339,0.533899 0,0.293644 -0.24025,0.533898 -0.5339,0.533898 z m -1.06779,-2.135593 c -0.29365,0 -0.5339,-0.240255 -0.5339,-0.533899 0,-0.293644 0.24025,-0.533898 0.5339,-0.533898 0.29364,0 0.5339,0.240254 0.5339,0.533898 0,0.293644 -0.24026,0.533899 -0.5339,0.533899 z m -1.0678,-2.135594 c -0.29364,0 -0.5339,-0.240254 -0.5339,-0.533898 0,-0.293644 0.24026,-0.533898 0.5339,-0.533898 0.29364,0 0.5339,0.240254 0.5339,0.533898 0,0.293644 -0.24026,0.533898 -0.5339,0.533898 z m -3.20339,-5.338983 c -0.29364,0 -0.5339,-0.240254 -0.5339,-0.533898 0,-0.293644 0.24026,-0.533899 0.5339,-0.533899 0.29364,0 0.5339,0.240255 0.5339,0.533899 0,0.293644 -0.24026,0.533898 -0.5339,0.533898 z m -2.13559,-3.20339 c -0.29365,0 -0.5339,-0.240254 -0.5339,-0.533898 0,-0.293644 0.24025,-0.533899 0.5339,-0.533899 0.29364,0 0.5339,0.240255 0.5339,0.533899 0,0.293644 -0.24026,0.533898 -0.5339,0.533898 z m -2.1356,-3.20339 c -0.29364,0 -0.53389,-0.240254 -0.53389,-0.533898 0,-0.293645 0.24025,-0.533899 0.53389,-0.533899 0.29365,0 0.5339,0.240254 0.5339,0.533899 0,0.293644 -0.24025,0.533898 -0.5339,0.533898 z m -3.14036,-4.271187 c -0.25899,0 -0.81374,-0.554751 -1.23279,-1.23278 l -0.7619,-1.23278 1.23278,0.761899 c 0.67803,0.419046 1.23278,0.973797 1.23278,1.232781 0,0.258984 -0.21189,0.47088 -0.47087,0.47088 z M 884.64783,30.593222 c -0.25899,0 -0.81374,-0.554751 -1.23278,-1.232779 l -0.76191,-1.232781 1.23278,0.761899 c 0.67803,0.419046 1.23279,0.973797 1.23279,1.232781 0,0.258985 -0.2119,0.47088 -0.47088,0.47088 z m -5.40201,-4.271186 c -0.29364,0 -0.53389,-0.240255 -0.53389,-0.533899 0,-0.293644 0.24025,-0.533898 0.53389,-0.533898 0.29365,0 0.5339,0.240254 0.5339,0.533898 0,0.293644 -0.24025,0.533899 -0.5339,0.533899 z m -3.20339,-2.135594 c -0.29364,0 -0.53389,-0.240254 -0.53389,-0.533898 0,-0.293644 0.24025,-0.533898 0.53389,-0.533898 0.29365,0 0.5339,0.240254 0.5339,0.533898 0,0.293644 -0.24025,0.533898 -0.5339,0.533898 z m -3.20339,-2.135593 c -0.29364,0 -0.53389,-0.240254 -0.53389,-0.533898 0,-0.293645 0.24025,-0.533899 0.53389,-0.533899 0.29365,0 0.5339,0.240254 0.5339,0.533899 0,0.293644 -0.24025,0.533898 -0.5339,0.533898 z m -193.2712,-3.20339 c -0.29364,0 -0.53389,-0.240254 -0.53389,-0.533898 0,-0.293645 0.24025,-0.533899 0.53389,-0.533899 0.29365,0 0.5339,0.240254 0.5339,0.533899 0,0.293644 -0.24025,0.533898 -0.5339,0.533898 z m 187.93222,0 c -0.29364,0 -0.5339,-0.240254 -0.5339,-0.533898 0,-0.293645 0.24026,-0.533899 0.5339,-0.533899 0.29364,0 0.5339,0.240254 0.5339,0.533899 0,0.293644 -0.24026,0.533898 -0.5339,0.533898 z m -2.13559,-1.067797 c -0.29365,0 -0.5339,-0.240254 -0.5339,-0.533898 0,-0.293644 0.24025,-0.533898 0.5339,-0.533898 0.29364,0 0.53389,0.240254 0.53389,0.533898 0,0.293644 -0.24025,0.533898 -0.53389,0.533898 z m -2.1356,-1.067796 c -0.29364,0 -0.5339,-0.240255 -0.5339,-0.533899 0,-0.293644 0.24026,-0.533898 0.5339,-0.533898 0.29365,0 0.5339,0.240254 0.5339,0.533898 0,0.293644 -0.24025,0.533899 -0.5339,0.533899 z m -2.13559,-1.067797 c -0.29364,0 -0.5339,-0.240254 -0.5339,-0.533898 0,-0.293645 0.24026,-0.533899 0.5339,-0.533899 0.29364,0 0.5339,0.240254 0.5339,0.533899 0,0.293644 -0.24026,0.533898 -0.5339,0.533898 z m -5.33898,-2.135594 c -0.29365,0 -0.5339,-0.240254 -0.5339,-0.533898 0,-0.293644 0.24025,-0.533898 0.5339,-0.533898 0.29364,0 0.53389,0.240254 0.53389,0.533898 0,0.293644 -0.24025,0.533898 -0.53389,0.533898 z m -3.20339,-1.067796 c -0.29365,0 -0.5339,-0.240254 -0.5339,-0.533899 0,-0.293644 0.24025,-0.533898 0.5339,-0.533898 0.29364,0 0.53389,0.240254 0.53389,0.533898 0,0.293645 -0.24025,0.533899 -0.53389,0.533899 z m -3.20339,-1.067797 c -0.29365,0 -0.5339,-0.240254 -0.5339,-0.533898 0,-0.293644 0.24025,-0.533899 0.5339,-0.533899 0.29364,0 0.53389,0.240255 0.53389,0.533899 0,0.293644 -0.24025,0.533898 -0.53389,0.533898 z m -3.20339,-1.067797 c -0.29365,0 -0.5339,-0.240254 -0.5339,-0.5338979 0,-0.2936441 0.24025,-0.5338983 0.5339,-0.5338983 0.29364,0 0.53389,0.2402542 0.53389,0.5338983 0,0.2936439 -0.24025,0.5338979 -0.53389,0.5338979 z m -4.27119,-1.0677962 c -0.29364,0 -0.5339,-0.2402543 -0.5339,-0.5338984 0,-0.2936441 0.24026,-0.5338983 0.5339,-0.5338983 0.29364,0 0.5339,0.2402542 0.5339,0.5338983 0,0.2936441 -0.24026,0.5338984 -0.5339,0.5338984 z M 677.43225,8.1694921 c -0.29364,0 -0.5339,-0.2402543 -0.5339,-0.5338984 0,-0.293644 0.24026,-0.5338983 0.5339,-0.5338983 0.29365,0 0.5339,0.2402543 0.5339,0.5338983 0,0.2936441 -0.24025,0.5338984 -0.5339,0.5338984 z m 159.10171,0 c -0.29365,0 -0.5339,-0.2402543 -0.5339,-0.5338984 0,-0.293644 0.24025,-0.5338983 0.5339,-0.5338983 0.29364,0 0.53389,0.2402543 0.53389,0.5338983 0,0.2936441 -0.24025,0.5338984 -0.53389,0.5338984 z m -8.00848,-1.0677967 -1.42372,0 0.71185,-0.7118645 0.71187,-0.7118644 0.71187,0.7118644 0.71186,0.7118645 -1.42373,0 z"
       id="path3427"
       inkscape:connector-curvature="0" />
    <path
       style="fill:#d41a1a;fill-opacity:1;stroke-width:1.06779671"
       d="m 916.79668,860.98311 -0.71187,0.71186 0,-1.42373 0,-1.42372 0.71187,0.71185 0.71185,0.71187 -0.71185,0.71187 z m 0.0882,-31.94492 -0.30258,28.56356 0,-57.12712 0,-57.12712 0.30258,28.56356 c 0.16642,15.70996 0.16642,41.41716 0,57.12712 z M 804.7488,276.18646 c -0.15684,0 -5.56256,-5.40572 -12.01271,-12.01271 l -11.72756,-12.01272 12.01271,11.72756 c 6.60699,6.45015 12.01271,11.85588 12.01271,12.01271 0,0.15684 -0.12831,0.28516 -0.28515,0.28516 z m 107.59872,-24.55932 c -0.29364,0 -0.5339,-0.24026 -0.5339,-0.5339 0,-0.29365 0.24026,-0.5339 0.5339,-0.5339 0.29364,0 0.5339,0.24025 0.5339,0.5339 0,0.29364 -0.24026,0.5339 -0.5339,0.5339 z m 4.27119,0 c -0.29365,0 -0.5339,-0.24026 -0.5339,-0.5339 0,-0.29365 0.24025,-0.5339 0.5339,-0.5339 0.29364,0 0.5339,0.24025 0.5339,0.5339 0,0.29364 -0.24026,0.5339 -0.5339,0.5339 z M 857.06795,198.2373 c -0.15841,0 -4.84337,-4.68496 -10.41101,-10.41102 l -10.12298,-10.41101 10.41101,10.12298 c 5.72606,5.56764 10.41102,10.25259 10.41102,10.41101 0,0.15842 -0.12962,0.28804 -0.28804,0.28804 z m -21.60179,-21.35593 c -0.29364,0 -0.5339,-0.24026 -0.5339,-0.5339 0,-0.29364 0.24026,-0.5339 0.5339,-0.5339 0.29364,0 0.5339,0.24026 0.5339,0.5339 0,0.29364 -0.24026,0.5339 -0.5339,0.5339 z m -720.58948,-23.22458 -0.53858,1.33475 0,-2.6695 0,-2.66949 0.53858,1.33475 0.53859,1.33474 -0.53859,1.33475 z m 0.0899,-16.07375 -0.34669,11.00172 -0.002,-21.35594 -0.002,-21.35593 0.3484,10.35422 c 0.19161,5.69482 0.19239,15.30499 0.002,21.35593 z m 665.22106,-17.2949 c -0.15784,0 -5.08305,-4.92521 -10.94492,-10.94491 L 758.5848,98.398312 769.52971,109.05625 c 6.01971,5.86186 10.94492,10.78707 10.94492,10.94491 0,0.15784 -0.12914,0.28698 -0.28698,0.28698 z m 140.81348,-17.37394 -0.64513,0.64513 0.0842,-2.04661 0.0842,-2.046612 0.56083,1.401482 0.56083,1.40148 -0.64512,0.64513 z M 919.8221,92.52543 c -0.29365,0 -0.5339,-0.240254 -0.5339,-0.533899 0,-0.293644 0.24025,-0.533898 0.5339,-0.533898 0.29364,0 0.5339,0.240254 0.5339,0.533898 0,0.293645 -0.24026,0.533899 -0.5339,0.533899 z m -1.0678,-5.338984 c -0.29364,0 -0.5339,-0.240254 -0.5339,-0.533898 0,-0.293644 0.24026,-0.533898 0.5339,-0.533898 0.29364,0 0.5339,0.240254 0.5339,0.533898 0,0.293644 -0.24026,0.533898 -0.5339,0.533898 z m -1.0678,-4.271186 c -0.29364,0 -0.53389,-0.240255 -0.53389,-0.533899 0,-0.293644 0.24025,-0.533898 0.53389,-0.533898 0.29365,0 0.5339,0.240254 0.5339,0.533898 0,0.293644 -0.24025,0.533899 -0.5339,0.533899 z M 606.02061,76.50848 c -0.22172,0 -1.06261,-0.84089 -1.86864,-1.868645 l -1.46549,-1.868644 1.86865,1.465492 c 1.02775,0.80602 1.86864,1.64691 1.86864,1.868645 0,0.221733 -0.18142,0.403152 -0.40316,0.403152 z m -4.3389,-4.271187 c -0.25899,0 -0.81374,-0.554751 -1.23278,-1.23278 l -0.76191,-1.232781 1.23278,0.7619 c 0.67803,0.419046 1.23279,0.973796 1.23279,1.232781 0,0.258984 -0.2119,0.47088 -0.47088,0.47088 z M 913.41532,70.1017 c -0.29365,0 -0.5339,-0.240255 -0.5339,-0.533899 0,-0.293644 0.24025,-0.533898 0.5339,-0.533898 0.29364,0 0.5339,0.240254 0.5339,0.533898 0,0.293644 -0.24026,0.533899 -0.5339,0.533899 z m -316.0048,-2.135594 c -0.25898,0 -0.81373,-0.554751 -1.23278,-1.23278 l -0.76191,-1.232781 1.23279,0.7619 c 0.67803,0.419046 1.23278,0.973796 1.23278,1.232781 0,0.258984 -0.2119,0.47088 -0.47088,0.47088 z M 907.00854,57.288139 c -0.29365,0 -0.5339,-0.240254 -0.5339,-0.533898 0,-0.293644 0.24025,-0.533898 0.5339,-0.533898 0.29364,0 0.5339,0.240254 0.5339,0.533898 0,0.293644 -0.24026,0.533898 -0.5339,0.533898 z m -6.40678,-9.61017 c -0.29365,0 -0.5339,-0.240254 -0.5339,-0.533898 0,-0.293644 0.24025,-0.533898 0.5339,-0.533898 0.29364,0 0.5339,0.240254 0.5339,0.533898 0,0.293644 -0.24026,0.533898 -0.5339,0.533898 z m -4.27119,-5.338983 c -0.29364,0 -0.5339,-0.240254 -0.5339,-0.533899 0,-0.293644 0.24026,-0.533898 0.5339,-0.533898 0.29364,0 0.5339,0.240254 0.5339,0.533898 0,0.293645 -0.24026,0.533899 -0.5339,0.533899 z M 702.23944,41.271189 c -0.15731,0 -5.32277,-5.165466 -11.47881,-11.478814 l -11.19279,-11.478814 11.47882,11.192786 c 6.31335,6.156033 11.47881,11.321499 11.47881,11.478815 0,0.157315 -0.12871,0.286027 -0.28603,0.286027 z m 183.41316,-9.61017 c -0.29364,0 -0.53389,-0.240254 -0.53389,-0.533898 0,-0.293644 0.24025,-0.533899 0.53389,-0.533899 0.29365,0 0.5339,0.240255 0.5339,0.533899 0,0.293644 -0.24025,0.533898 -0.5339,0.533898 z m -5.33898,-4.271187 c -0.29364,0 -0.5339,-0.240254 -0.5339,-0.533898 0,-0.293644 0.24026,-0.533898 0.5339,-0.533898 0.29364,0 0.5339,0.240254 0.5339,0.533898 0,0.293644 -0.24026,0.533898 -0.5339,0.533898 z m -9.61017,-6.40678 c -0.29364,0 -0.5339,-0.240254 -0.5339,-0.533898 0,-0.293644 0.24026,-0.533898 0.5339,-0.533898 0.29364,0 0.5339,0.240254 0.5339,0.533898 0,0.293644 -0.24026,0.533898 -0.5339,0.533898 z m -193.2712,-6.40678 c -0.29364,0 -0.5339,-0.240254 -0.5339,-0.533898 0,-0.293644 0.24026,-0.533899 0.5339,-0.533899 0.29365,0 0.5339,0.240255 0.5339,0.533899 0,0.293644 -0.24025,0.533898 -0.5339,0.533898 z m 180.45764,0 c -0.29364,0 -0.5339,-0.240254 -0.5339,-0.533898 0,-0.293644 0.24026,-0.533899 0.5339,-0.533899 0.29364,0 0.5339,0.240255 0.5339,0.533899 0,0.293644 -0.24026,0.533898 -0.5339,0.533898 z m -12.81356,-4.271187 c -0.29364,0 -0.5339,-0.240254 -0.5339,-0.5338979 0,-0.2936441 0.24026,-0.5338983 0.5339,-0.5338983 0.29364,0 0.5339,0.2402542 0.5339,0.5338983 0,0.2936439 -0.24026,0.5338979 -0.5339,0.5338979 z m -4.27119,-1.0677962 c -0.29364,0 -0.5339,-0.2402543 -0.5339,-0.5338984 0,-0.2936441 0.24026,-0.5338983 0.5339,-0.5338983 0.29365,0 0.5339,0.2402542 0.5339,0.5338983 0,0.2936441 -0.24025,0.5338984 -0.5339,0.5338984 z m -5.33898,-1.0677967 c -0.29364,0 -0.5339,-0.2402543 -0.5339,-0.5338984 0,-0.293644 0.24026,-0.5338983 0.5339,-0.5338983 0.29364,0 0.5339,0.2402543 0.5339,0.5338983 0,0.2936441 -0.24026,0.5338984 -0.5339,0.5338984 z m -9.69915,-1.1520965 -2.04661,-0.0843 1.40148,-0.5608275 1.40148,-0.5608274 0.64513,0.6451271 0.64512,0.6451272 -2.0466,-0.0843 z"
       id="path3423"
       inkscape:connector-curvature="0" />
    <path
       style="fill:#d41a1a;fill-opacity:1;stroke-width:1.06779671"
       d="m 212.85172,1016.0853 -2.04662,-0.084 1.40149,-0.5608 1.40148,-0.5609 0.64513,0.6452 0.64512,0.6451 -2.0466,-0.084 z m 610.33478,0.084 -1.42373,0 0.71186,-0.7119 0.71187,-0.7119 0.71187,0.7119 0.71185,0.7119 -1.42372,0 z m -621.99157,-1.0678 c -0.29364,0 -0.5339,-0.2403 -0.5339,-0.5339 0,-0.2937 0.24026,-0.5339 0.5339,-0.5339 0.29365,0 0.5339,0.2402 0.5339,0.5339 0,0.2936 -0.24025,0.5339 -0.5339,0.5339 z m 633.20343,0 c -0.29364,0 -0.5339,-0.2403 -0.5339,-0.5339 0,-0.2937 0.24026,-0.5339 0.5339,-0.5339 0.29365,0 0.5339,0.2402 0.5339,0.5339 0,0.2936 -0.24025,0.5339 -0.5339,0.5339 z m -647.08479,-3.2034 c -0.29364,0 -0.53389,-0.2403 -0.53389,-0.5339 0,-0.2937 0.24025,-0.5339 0.53389,-0.5339 0.29365,0 0.5339,0.2402 0.5339,0.5339 0,0.2936 -0.24025,0.5339 -0.5339,0.5339 z m -6.40678,-2.1356 c -0.29364,0 -0.53389,-0.2403 -0.53389,-0.5339 0,-0.2937 0.24025,-0.5339 0.53389,-0.5339 0.29365,0 0.5339,0.2402 0.5339,0.5339 0,0.2936 -0.24025,0.5339 -0.5339,0.5339 z m 673.77971,0 c -0.29364,0 -0.5339,-0.2403 -0.5339,-0.5339 0,-0.2937 0.24026,-0.5339 0.5339,-0.5339 0.29364,0 0.5339,0.2402 0.5339,0.5339 0,0.2936 -0.24026,0.5339 -0.5339,0.5339 z m -336.88985,-2.1356 -341.47556,0 -7.52468,-3.8707 -7.52468,-3.87077 -8.52846,-6.8236 -8.52846,-6.82362 -6.42506,-7.98681 -6.42506,-7.98681 -4.05945,-7.21292 -4.05947,-7.21292 -0.53389,-26.12265 -0.5339,-26.12264 -3.47034,-0.99369 -3.47034,-0.99369 -0.0191,-119.17181 c -0.0106,-65.5445 -0.19623,-234.73411 -0.41262,-375.97692 l -0.39344,-256.8051 0.77919,-30.4322 0.7792,-30.432209 2.37388,-8.008475 2.37387,-8.008475 4.69971,-9.61017 4.69972,-9.61017 7.01681,-8.767561 7.01682,-8.767561 8.76756,-7.01682 8.76756,-7.01682 9.61017,-4.70386 9.61017,-4.703859 8.00848,-2.108843 8.00848,-2.1088414 L 367.96519,8.529738 539.00662,8.7030904 727.49658,198.237 l 188.48996,189.53391 0.0491,221.637 0.0491,221.63699 -3.73729,1.78218 -3.73729,1.78219 0,64.10629 0,64.1063 -2.81281,4.51692 c -1.54705,2.4843 -5.46882,7.7887 -8.71506,11.78753 l -5.90225,7.27062 -8.42927,6.74426 -8.42928,6.74424 -7.52468,3.87077 -7.52463,3.8707 -341.47556,0 z m 31.5,-239.68572 1.0678,-0.2126 0.26929,-238.83054 0.2693,-238.83052 -1.00226,0 c -0.55124,0 -65.06057,11.28917 -143.35406,25.08705 -78.29348,13.79787 -143.43293,25.33924 -144.75433,25.64746 l -2.40254,0.56041 0,187.41149 0,187.41149 1.86865,0.72267 c 1.02775,0.39748 66.01652,12.09035 144.4195,25.98418 78.40297,13.89383 143.03136,25.16583 143.61865,25.04891 z m -90.99616,-152.26336 -12.58012,-0.0677 -2.41807,-0.97145 -2.41808,-0.97145 -1.12854,-2.96511 c -0.62071,-1.6308 -2.49289,-8.01044 -4.16041,-14.17697 -1.66753,-6.16652 -3.57631,-13.26352 -4.24175,-15.7711 l -1.20988,-4.55923 -22.6301,0.28805 -22.6301,0.28804 -2.3895,10.67797 c -1.31421,5.87288 -2.90096,13.36786 -3.52609,16.65553 l -1.1366,5.97755 -15.13402,0.64726 c -8.32371,0.35599 -15.33501,0.44626 -15.58065,0.20062 -0.24565,-0.24565 0.0362,-2.2658 0.62627,-4.48922 0.5901,-2.22342 7.89265,-28.78877 16.22789,-59.03411 8.33525,-30.24535 17.54555,-63.64069 20.46734,-74.21187 2.92179,-10.57119 5.82094,-20.81512 6.44256,-22.76429 l 1.1302,-3.54394 16.39333,0.34055 16.39331,0.34056 1.19491,1.19786 1.19491,1.19788 12.58707,45.78517 c 6.92289,25.18186 17.04511,61.72394 22.49383,81.20462 l 9.90677,35.41943 -0.64718,1.6865 -0.64717,1.68651 -12.58013,-0.0677 z m -49.82226,-69.3391 14.28451,0 0.0265,-0.80085 c 0.0145,-0.44046 -3.18792,-13.53432 -7.11664,-29.09746 -3.92872,-15.56313 -7.49638,-28.70503 -7.92815,-29.20422 l -0.78502,-0.90759 -1.83569,6.24658 c -1.00962,3.43562 -4.39931,16.31445 -7.53265,28.61962 l -5.69698,22.37302 1.14981,1.38545 1.14983,1.38545 14.2845,0 z m 197.94554,136.52231 13.34746,0.15341 21.35593,-1.59954 c 11.74577,-0.87974 28.75033,-2.5767 37.78792,-3.77102 9.0376,-1.19431 22.25158,-3.39884 29.36441,-4.89894 7.11284,-1.50011 17.49726,-4.18544 23.07649,-5.96743 l 10.14407,-3.23996 8.4712,-4.25214 8.4712,-4.25213 6.211,-6.211 6.21101,-6.21101 0.13459,-5.15746 c 0.074,-2.8366 0.43441,-18.25199 0.80084,-34.25641 0.36645,-16.00443 0.53764,-29.09828 0.38044,-29.09746 -0.15721,8.2e-4 -3.42466,3.32881 -7.26099,7.39553 l -6.97516,7.39403 -9.28986,4.75061 -9.28986,4.75062 -8.54238,2.75589 c -4.6983,1.51574 -12.62669,3.70441 -17.61864,4.86372 -4.99195,1.1593 -14.12161,2.89493 -20.28814,3.85693 -6.16652,0.96201 -18.17924,2.46202 -26.69491,3.33336 l -15.48306,1.58425 -41.91102,0.63382 -41.91102,0.63382 0,31.91391 0,31.9139 1.52642,0.58574 c 0.83953,0.32216 6.72576,0.95829 13.08051,1.41364 6.35476,0.45534 17.56045,0.89694 24.90155,0.98132 z m -15.48305,-79.00592 c 7.04746,0.0675 23.625,-0.35773 36.83899,-0.94485 13.21398,-0.58714 32.67457,-1.8003 43.24576,-2.6959 l 19.22034,-1.62837 12.27966,-2.71511 c 6.75382,-1.4933 16.36399,-3.88062 21.35594,-5.30514 4.99195,-1.42452 13.5236,-4.30854 18.95923,-6.40894 l 9.88296,-3.81889 6.13399,-4.10423 c 3.37369,-2.25731 7.48821,-5.52298 9.14338,-7.25704 l 3.00939,-3.15283 0.7279,-34.30291 c 0.40034,-18.86659 0.52611,-34.30243 0.27948,-34.30186 -0.24661,5.7e-4 -3.61956,3.06252 -7.49542,6.80435 l -7.04702,6.80332 -7.98762,4.02923 -7.98763,4.02922 -10.65218,3.59328 -10.65218,3.59326 -15.50884,3.17421 -15.50884,3.17421 -13.608,1.5891 c -7.4844,0.87402 -22.36722,2.14362 -33.07292,2.82134 l -19.4649,1.23222 -26.85128,-0.46387 -26.85126,-0.46387 -0.66558,12.34336 c -0.36606,6.78885 -0.7295,21.13228 -0.80763,31.87428 l -0.14205,19.53091 0.68808,0.68808 c 0.37845,0.37843 2.72132,1.01943 5.20638,1.42442 2.48508,0.40499 10.28441,0.79154 17.33187,0.85902 z m -6.15041,-78.31012 c 9.25561,-0.34379 31.4247,-1.10292 49.26465,-1.68695 17.83995,-0.58402 37.30055,-1.54826 43.24577,-2.14274 5.94521,-0.59449 14.4133,-1.75733 18.81796,-2.58409 4.40466,-0.82678 11.3498,-2.28413 15.43364,-3.23858 4.08383,-0.95445 12.01222,-3.19347 17.61864,-4.9756 l 10.19349,-3.24024 9.95927,-4.75207 9.95927,-4.75206 5.68588,-5.54833 5.68588,-5.54833 0.65805,-17.61864 c 0.36193,-9.69026 0.76948,-25.18732 0.90569,-34.43792 0.13621,-9.2506 0.13642,-16.81861 4.8e-4,-16.8178 -0.13595,8.2e-4 -3.31202,3.06631 -7.05792,6.81223 l -6.81075,6.81074 -10.92072,5.4671 -10.92071,5.4671 -11.91967,3.70808 c -6.55582,2.03944 -16.72475,4.66476 -22.59764,5.83405 -5.87288,1.16928 -15.96356,2.62886 -22.42373,3.24351 l -11.74576,1.11754 -35.77119,1.0866 c -19.67415,0.59764 -42.25805,1.19417 -50.18644,1.32565 l -14.41526,0.23905 -0.28323,32.02223 c -0.15578,17.61223 -0.0404,32.655 0.25637,33.42839 l 0.53959,1.40616 16.82839,-0.62508 z m 20.03177,-77.59277 21.35593,0.14163 17.08475,-1.07489 c 9.39661,-0.5912 21.16907,-1.58577 26.16102,-2.21015 4.99195,-0.62438 14.84237,-2.08658 21.88983,-3.24933 7.04746,-1.16275 18.36042,-3.49686 25.13993,-5.18693 6.7795,-1.69005 15.42865,-4.24209 19.22034,-5.67118 3.79168,-1.42909 10.18034,-4.20241 14.19701,-6.16293 l 7.30306,-3.56458 4.74546,-4.17713 4.74547,-4.17712 1.56589,-3.0281 1.56589,-3.0281 0,-4.164 0,-4.16401 -3.1011,-4.28095 -3.10112,-4.28097 -6.776,-4.43825 -6.77601,-4.43826 -8.20455,-3.1727 c -4.5125,-1.74499 -13.16165,-4.59228 -19.22034,-6.32731 -6.05869,-1.73504 -16.06113,-4.11417 -22.22766,-5.28698 -6.16653,-1.17279 -16.97797,-2.86759 -24.02543,-3.76621 -7.04745,-0.89863 -19.54067,-2.12767 -27.76271,-2.73122 l -14.94915,-1.09737 -22.95763,10e-4 c -12.6267,6.5e-4 -27.64259,0.31142 -33.36865,0.69061 l -10.41102,0.68942 0,43.00788 0,43.00789 6.13984,0.66936 c 3.3769,0.36814 7.10084,0.81779 8.27542,0.99921 1.17458,0.18142 11.74576,0.39359 23.49153,0.47148 z m 307.52544,507.35263 c -0.29364,0 -0.5339,-0.24026 -0.5339,-0.5339 0,-0.29365 0.24026,-0.5339 0.5339,-0.5339 0.29364,0 0.5339,0.24025 0.5339,0.5339 0,0.29364 -0.24026,0.5339 -0.5339,0.5339 z m -791.23734,-5.33899 c -0.29364,0 -0.5339,-0.24025 -0.5339,-0.53389 0,-0.29365 0.24026,-0.5339 0.5339,-0.5339 0.29364,0 0.5339,0.24025 0.5339,0.5339 0,0.29364 -0.24026,0.53389 -0.5339,0.53389 z m 793.37293,0 c -0.29364,0 -0.53389,-0.24025 -0.53389,-0.53389 0,-0.29365 0.24025,-0.5339 0.53389,-0.5339 0.29365,0 0.5339,0.24025 0.5339,0.5339 0,0.29364 -0.24025,0.53389 -0.5339,0.53389 z m -795.50852,-6.40678 c -0.29365,0 -0.5339,-0.24025 -0.5339,-0.53389 0,-0.29365 0.24025,-0.5339 0.5339,-0.5339 0.29364,0 0.5339,0.24025 0.5339,0.5339 0,0.29364 -0.24026,0.53389 -0.5339,0.53389 z m -2.1356,-8.54237 c -0.29364,0 -0.53389,-0.24025 -0.53389,-0.5339 0,-0.29364 0.24025,-0.5339 0.53389,-0.5339 0.29365,0 0.5339,0.24026 0.5339,0.5339 0,0.29365 -0.24025,0.5339 -0.5339,0.5339 z m -1.06779,-5.33898 c -0.29365,0 -0.5339,-0.24026 -0.5339,-0.5339 0,-0.29365 0.24025,-0.5339 0.5339,-0.5339 0.29364,0 0.5339,0.24025 0.5339,0.5339 0,0.29364 -0.24026,0.5339 -0.5339,0.5339 z m -0.95657,-10.96716 -0.64513,0.64512 0.0842,-2.0466 0.0842,-2.04662 0.56083,1.40148 0.56083,1.40149 -0.64512,0.64513 z"
       id="path3421"
       inkscape:connector-curvature="0" />
    <path
       style="fill:#d41a1a;fill-opacity:1;stroke-width:1.06779671"
       d="m 523.66953,1015.7309 -308.59324,0.1672 -8.7332,-0.8555 -8.7332,-0.8554 -6.74985,-1.8692 c -3.71242,-1.028 -8.19138,-2.4852 -9.95325,-3.2382 l -3.20339,-1.369 340.09325,0.016 340.09324,0.016 -4.92981,2.0036 c -2.7114,1.102 -8.4775,2.8616 -12.81356,3.9101 l -7.88375,1.9063 -308.59324,0.1672 z m 385.36254,-54.01897 c -0.23202,0 -0.42184,-28.57792 -0.42184,-63.50648 l 0,-63.50649 3.30262,-1.70785 3.30262,-1.70785 0.54554,0.54554 c 0.30005,0.30004 0.79584,25.2018 1.10176,55.33722 l 0.55623,54.79167 -3.98255,9.87712 c -2.1904,5.43241 -4.17237,9.87712 -4.40438,9.87712 z m -786.56565,-32.54254 -0.28844,23.46627 -2.05441,-6.40678 c -1.12993,-3.52373 -2.78211,-9.28984 -3.67152,-12.81356 l -1.61711,-6.40679 -0.0849,-197.00848 -0.085,-197.00849 0.28912,184.37769 0.28913,184.3777 3.27253,0.71877 3.27253,0.71877 0.48324,1.25931 c 0.26579,0.69263 0.35345,11.81914 0.1948,24.72559 z m -7.50509,-431.14817 -0.37355,7.20763 0,-14.41526 0,-14.41525 0.37355,7.20762 c 0.20545,3.9642 0.20545,10.45106 0,14.41526 z m -0.0557,-29.89831 -0.48834,1.86865 0,-3.73729 0,-3.73729 0.48834,1.86864 c 0.26857,1.02776 0.26857,2.70954 0,3.73729 z"
       id="path3419"
       inkscape:connector-curvature="0" />
    <path
       style="fill:#a31f1f;fill-opacity:1;stroke-width:1.06779671"
       d="m 914.05683,251.48172 c -0.35283,-0.08 -1.68371,-0.34855 -2.95751,-0.59682 L 908.78333,250.43349 793.67709,133.6789 678.57086,16.924305 l -0.94051,-2.821533 -0.94052,-2.821535 0.67435,-2.6867971 0.67434,-2.686798 77.64603,0.3746211 77.64602,0.374621 10.67796,2.8971213 10.67797,2.8971207 9.61017,4.772191 9.61017,4.772189 8.80784,6.969834 8.80784,6.969833 6.96983,8.80784 6.96984,8.807838 4.77218,9.61017 4.7722,9.61017 2.89711,10.677967 2.89713,10.677967 0.37439,77.555825 0.37439,77.55582 -3.42563,1.19418 c -1.8841,0.65681 -3.71431,1.12875 -4.06713,1.04877 z"
       id="path3417"
       inkscape:connector-curvature="0" />
  </g>
</svg>
