<?xml version="1.0" encoding="UTF-8" standalone="no"?>
<!-- Created with Inkscape (http://www.inkscape.org/) -->

<svg
   xmlns:dc="http://purl.org/dc/elements/1.1/"
   xmlns:cc="http://creativecommons.org/ns#"
   xmlns:rdf="http://www.w3.org/1999/02/22-rdf-syntax-ns#"
   xmlns:svg="http://www.w3.org/2000/svg"
   xmlns="http://www.w3.org/2000/svg"
   xmlns:sodipodi="http://sodipodi.sourceforge.net/DTD/sodipodi-0.dtd"
   xmlns:inkscape="http://www.inkscape.org/namespaces/inkscape"
   id="svg2"
   version="1.1"
   inkscape:version="0.91+devel r"
   width="512"
   height="512"
   sodipodi:docname="preferences-desktop-locale.svg"
   viewBox="0 0 512 512">
  <metadata
     id="metadata8">
    <rdf:RDF>
      <cc:Work
         rdf:about="">
        <dc:format>image/svg+xml</dc:format>
        <dc:type
           rdf:resource="http://purl.org/dc/dcmitype/StillImage" />
        <dc:title></dc:title>
      </cc:Work>
    </rdf:RDF>
  </metadata>
  <defs
     id="defs6" />
  <sodipodi:namedview
     pagecolor="#ffffff"
     bordercolor="#666666"
     borderopacity="1"
     objecttolerance="10"
     gridtolerance="10"
     guidetolerance="10"
     inkscape:pageopacity="0"
     inkscape:pageshadow="2"
     inkscape:window-width="1920"
     inkscape:window-height="1025"
     id="namedview4"
     showgrid="false"
     inkscape:zoom="0.75390625"
     inkscape:cx="17.906736"
     inkscape:cy="256"
     inkscape:window-x="0"
     inkscape:window-y="29"
     inkscape:window-maximized="1"
     inkscape:current-layer="svg2"
     inkscape:document-units="px" />
  <path
     inkscape:connector-curvature="0"
     id="path2996"
     d="M 228.07117,480.03103 C 203.74931,478.00657 181.91669,471.6361 156.35997,459.10666 132.64311,447.47924 114.19287,434.2216 95.169082,415.13724 64.094755,383.96396 41.26254,341.19872 34.160705,300.86718 c -4.236477,-24.0591 -4.210572,-65.67538 0.05609,-90.10368 5.501908,-31.50046 23.150598,-69.00127 45.714367,-97.13616 7.685273,-9.5828 24.162148,-26.044096 33.754028,-33.722104 28.35511,-22.697425 65.57348,-40.182359 97.22806,-45.677075 24.76605,-4.298979 64.76383,-4.304957 90.18894,-0.01347 31.52457,5.321001 69.33036,23.007117 97.66801,45.69055 9.59188,7.678008 26.06875,24.139309 33.75402,33.722099 26.2779,32.76605 44.31294,74.70981 47.43646,110.32206 1.38576,15.79948 1.38576,48.37191 0,64.17141 -3.10905,35.44731 -21.21424,77.44371 -47.54902,110.29363 -31.91422,39.80969 -80.16006,69.33164 -129.10975,79.00309 -17.33674,3.42538 -51.30125,4.6053 -75.23077,2.61351 z m 44.68919,-14.82973 c 14.93595,-1.6243 34.58722,-6.24169 38.39128,-9.02065 1.54225,-1.12665 1.23575,-1.63578 -4.86162,-8.0752 -19.29964,-20.38233 -40.83475,-24.98739 -73.29495,-15.6733 -6.71958,1.9281 -26.40942,8.79026 -36.16007,12.60225 l -2.63968,1.03196 3.35191,2.91817 c 9.06033,7.88787 26.85593,14.07065 47.68183,16.56622 5.84276,0.70015 19.47048,0.52717 27.5313,-0.34945 z m 32.62546,-71.79183 c 10.08305,-4.76064 27.55935,-24.89171 47.72659,-54.97657 5.90963,-8.81581 11.89268,-17.50002 13.29568,-19.29824 1.45094,-1.85969 6.86609,-5.94445 12.5584,-9.47307 12.89714,-7.99484 14.01726,-9.34989 15.3702,-18.59399 1.27779,-8.7306 2.16498,-7.6485 -13.41666,-16.36408 -12.65064,-7.07613 -14.5209,-9.15779 -23.02939,-25.63236 -3.2864,-6.36329 -7.60843,-13.36194 -9.60452,-15.55251 l -3.62925,-3.98289 -12.75844,-2.52916 c -22.0272,-4.36653 -34.20491,-8.60719 -39.81512,-13.86484 -1.33084,-1.24721 -2.42577,-3.0837 -2.43318,-4.08108 -0.0217,-2.90896 -0.91096,-3.5935 -8.39194,-6.45928 -13.93689,-5.33887 -24.59636,-5.77904 -37.90375,-1.56514 -20.62046,6.52962 -44.38029,31.90711 -44.30039,47.31649 0.0625,12.04697 12.39269,21.50005 38.69593,29.66662 6.5332,2.02841 15.15944,4.69919 19.16944,5.93506 4.97995,1.53482 8.09705,3.07083 9.8343,4.84606 6.41486,6.55507 12.29403,33.83795 15.00779,69.64512 1.84739,24.37587 4.92409,34.03733 11.77034,36.96131 3.23404,1.38123 5.5103,0.99767 11.85397,-1.99745 z M 82.009089,348.50853 c 0,-5.30367 2.163597,-8.81469 13.106983,-21.26955 12.011598,-13.67062 17.157408,-25.67556 15.561898,-36.30513 -0.65733,-4.37922 -2.63764,-6.48576 -18.110179,-19.26453 C 85.4116,265.75902 81.987082,260.77194 73.6831,244.16779 65.621188,228.04768 61.839189,216.8693 61.043007,206.80773 c -0.325203,-4.1096 -0.975976,-7.47201 -1.446171,-7.47201 -2.184271,0 -8.966034,20.68306 -11.38527,34.72288 -4.709533,27.3313 -0.895489,62.0906 10.111197,92.14851 2.994735,8.17825 12.472697,19.97862 20.142569,25.07814 3.204028,2.1303 3.543757,1.8641 3.543757,-2.77672 z M 463.21043,255.11266 c 3.53466,-7.21789 3.18528,-20.64992 -1.08496,-41.71198 -3.51072,-17.31587 -12.79688,-43.16957 -20.04392,-55.80445 -6.76696,-11.79791 -39.85752,-46.79315 -51.98827,-54.9807 -6.03821,-4.075442 -6.84391,-4.370815 -11.88781,-4.358093 -4.82294,0.0122 -6.6744,0.619618 -17.04649,5.592793 -14.27065,6.84244 -15.00248,6.79904 -18.58864,-1.10258 -4.58444,-10.101206 -8.3729,-9.598232 -28.01306,3.71914 -5.70649,3.8694 -11.71154,8.41867 -13.34454,10.10951 -3.28846,3.40494 -3.29829,3.6689 -0.51255,13.76068 1.49795,5.42653 1.40333,8.59249 -0.33638,11.25601 -0.41466,0.63488 -7.4463,3.64136 -15.62587,6.68109 -8.17954,3.03973 -16.96486,6.58881 -19.52292,7.88686 -5.43217,2.75646 -11.20892,7.7315 -13.00378,11.19913 -1.9244,3.71785 -1.50283,10.43867 0.65477,10.43867 0.46721,0 5.21786,-2.02806 10.55698,-4.50681 9.3192,-4.32653 9.94139,-4.48856 15.55436,-4.05046 15.25839,1.1909 54.23094,19.18003 63.25903,29.19937 2.18609,2.42611 7.58273,9.15804 11.99255,14.95984 10.12426,13.32005 21.83361,25.50189 28.21085,29.34921 6.5369,3.94362 13.45893,5.53881 19.26299,4.43912 7.36876,-1.39614 9.5371,-4.87319 7.20689,-11.55667 -0.72321,-2.07427 -1.32067,-4.23762 -1.32772,-4.80743 -0.027,-2.18488 2.7998,-3.7988 6.65363,-3.7988 3.51864,0 4.52607,0.5386 10.27668,5.49413 9.31583,8.02782 20.57862,17.37276 26.61155,22.08007 6.6168,5.16289 9.74431,5.29547 12.08663,0.51235 z M 116.25584,130.6265 c 8.52583,-3.44692 13.39053,-3.61124 22.36742,-0.75552 5.40778,1.72032 8.30634,2.2092 10.4152,1.75664 6.5054,-1.39607 8.14862,-3.55693 9.98109,-13.12535 0.7169,-3.74336 2.12602,-7.96021 3.13137,-9.37077 3.13305,-4.3958 19.7613,-14.578851 41.045,-25.135717 22.48853,-11.154479 28.39482,-12.987514 28.39482,-8.812408 0,2.557065 -4.2216,6.464418 -25.24563,23.366385 -13.26022,10.66036 -17.86908,15.09012 -17.86908,17.17467 0,0.59572 0.52445,1.79969 1.16546,2.67549 2.76785,3.78169 11.5981,1.37386 46.78865,-12.75832 40.48946,-16.260192 45.71289,-18.63565 46.04728,-20.940978 0.85494,-5.893776 -2.67707,-9.080212 -10.80953,-9.751929 -5.29107,-0.437025 -5.33266,-0.462123 -7.29184,-4.402181 -1.14464,-2.301963 -2.05614,-5.931434 -2.17499,-8.660475 -0.24474,-5.619312 -1.3118,-6.675231 -10.6231,-10.512133 C 240.67357,46.880541 236.93893,46.41261 225.4341,48.098208 188.8475,53.45859 152.94613,69.290942 123.42228,93.084984 115.73137,99.283297 99.207052,115.40372 96.155202,119.68559 l -1.7441,2.44704 2.15797,3.17274 c 1.18689,1.745 2.15797,3.76743 2.15797,4.49428 0,3.80216 9.106908,4.23174 17.528798,0.82685 z"
     style="fill:#367bf0;fill-opacity:1;stroke-width:1.01743293" />
</svg>
