<?xml version="1.0" encoding="UTF-8" standalone="no"?>
<!-- Created with Inkscape (http://www.inkscape.org/) -->

<svg
   xmlns:dc="http://purl.org/dc/elements/1.1/"
   xmlns:cc="http://creativecommons.org/ns#"
   xmlns:rdf="http://www.w3.org/1999/02/22-rdf-syntax-ns#"
   xmlns:svg="http://www.w3.org/2000/svg"
   xmlns="http://www.w3.org/2000/svg"
   xmlns:sodipodi="http://sodipodi.sourceforge.net/DTD/sodipodi-0.dtd"
   xmlns:inkscape="http://www.inkscape.org/namespaces/inkscape"
   id="svg2"
   version="1.1"
   inkscape:version="0.91+devel r14033 custom"
   width="512"
   height="512"
   sodipodi:docname="gnome-chess.svg"
   viewBox="0 0 512 512">
  <metadata
     id="metadata8">
    <rdf:RDF>
      <cc:Work
         rdf:about="">
        <dc:format>image/svg+xml</dc:format>
        <dc:type
           rdf:resource="http://purl.org/dc/dcmitype/StillImage" />
        <dc:title></dc:title>
      </cc:Work>
    </rdf:RDF>
  </metadata>
  <defs
     id="defs6" />
  <sodipodi:namedview
     pagecolor="#ffffff"
     bordercolor="#666666"
     borderopacity="1"
     objecttolerance="10"
     gridtolerance="10"
     guidetolerance="10"
     inkscape:pageopacity="0"
     inkscape:pageshadow="2"
     inkscape:window-width="960"
     inkscape:window-height="1011"
     id="namedview4"
     showgrid="false"
     inkscape:zoom="1.5664062"
     inkscape:cx="256"
     inkscape:cy="256"
     inkscape:window-x="960"
     inkscape:window-y="27"
     inkscape:window-maximized="0"
     inkscape:current-layer="svg2"
     inkscape:document-units="px" />
  <path
     style="fill:#51b9c3;fill-opacity:0.99607843;stroke:none;stroke-width:1.61751008;stroke-miterlimit:4;stroke-dasharray:none;stroke-dashoffset:0;stroke-opacity:1"
     d="M 256 31 A 225 225 0 0 0 31 256 A 225 225 0 0 0 256 481 A 225 225 0 0 0 481 256 A 225 225 0 0 0 256 31 z M 229.82812 64.142578 L 239.98242 77.636719 L 250.13672 91.132812 L 259.0625 95.402344 C 295.41327 112.79576 316.2552 141.3018 325.12305 185.75195 C 328.61662 203.26345 329.4439 215.22958 328.89258 240.2207 C 328.22454 270.50196 324.59534 296.88486 316.86719 327.64453 C 315.04173 334.91026 313.78392 341.22252 314.07031 341.67188 C 314.3567 342.12124 317.27659 342.65807 320.56055 342.86328 C 324.53883 343.11188 327.01905 343.72413 327.99219 344.69727 C 329.90761 346.61269 329.85656 351.07026 327.89453 353.23828 C 325.83333 355.51588 326.803 356.83594 330.53516 356.83594 C 334.26948 356.83594 337.10547 359.43057 337.10547 362.84766 C 337.10547 366.47624 335.35097 368.30104 330.90039 369.30078 C 325.56481 370.49933 322.97852 373.06073 322.97852 377.14453 C 322.97852 381.37428 325.9315 384.18842 331.05859 384.84375 C 338.18735 385.75493 342.70287 389.47124 343.80273 395.33398 C 345.18901 402.72344 341.61667 408.75934 334.44727 411.14062 C 330.58342 412.42399 329.97177 412.97556 329.18945 415.88086 C 328.1124 419.88072 324.33578 423.67365 320.26953 424.83984 C 316.49811 425.92147 203.52543 425.87382 199.90039 424.78906 C 196.22181 423.68826 192.41577 419.69241 191.37891 415.8418 C 190.61444 413.00278 189.9869 412.3806 187.09375 411.60156 C 177.91541 409.13008 173.47494 399.18457 178.13672 391.53906 C 180.4357 387.76861 183.07232 386.17177 188.77734 385.08984 C 194.83894 383.94027 197.60156 381.45322 197.60156 377.14453 C 197.60156 373.06073 195.01527 370.49933 189.67969 369.30078 C 185.22911 368.30104 183.47461 366.47624 183.47461 362.84766 C 183.47461 359.43057 186.3106 356.83594 190.04492 356.83594 C 193.77708 356.83594 194.7448 355.51588 192.68359 353.23828 C 191.82667 352.29138 191.12695 350.30964 191.12695 348.83594 C 191.12695 344.62982 193.22341 343.25653 200.25195 342.85938 C 206.083 342.5299 206.42969 342.39189 206.42969 340.39648 C 206.42969 338.37125 199.53574 310.76382 195.93359 298.36719 L 194.20898 292.43164 L 201.1582 287.5625 C 229.84814 267.45893 245.45925 237.96517 248.94336 197.28516 C 250.20744 182.5258 248.8988 161.08978 246.63086 159.41797 C 245.6709 158.71034 242.0846 158.88023 233.19336 160.05664 C 226.52351 160.93912 220.50722 161.87582 219.82227 162.13867 C 218.95895 162.46995 218.73667 163.41968 219.09961 165.23438 C 219.50546 167.26365 219.23498 168.06099 217.89648 168.77734 C 214.97566 170.34051 191.35248 178.48242 189.73828 178.48242 C 188.13601 178.48242 170.23047 158.19083 170.23047 156.375 C 170.23047 155.79852 180.8422 141.06773 193.8125 123.64062 L 217.39453 91.955078 L 222.40039 91.955078 C 225.46506 91.955078 227.77969 91.503606 228.37109 90.791016 C 228.94387 90.100866 229.43617 84.44167 229.58203 76.884766 L 229.82812 64.142578 z M 223.82227 112.62695 C 223.37105 112.6637 222.9152 112.82836 222.38281 113.11328 C 220.07449 114.34865 219.89569 118.85273 222.10352 120.13867 C 224.14426 121.3273 224.25897 121.31523 226.54102 119.7168 C 229.11294 117.91536 229.03444 115.30024 226.35547 113.54492 C 225.31109 112.86062 224.57429 112.56571 223.82227 112.62695 z "
     id="path3005" />
</svg>
