<?xml version="1.0" encoding="UTF-8" standalone="no"?>
<!-- Created with Inkscape (http://www.inkscape.org/) -->

<svg
   xmlns:dc="http://purl.org/dc/elements/1.1/"
   xmlns:cc="http://creativecommons.org/ns#"
   xmlns:rdf="http://www.w3.org/1999/02/22-rdf-syntax-ns#"
   xmlns:svg="http://www.w3.org/2000/svg"
   xmlns="http://www.w3.org/2000/svg"
   xmlns:sodipodi="http://sodipodi.sourceforge.net/DTD/sodipodi-0.dtd"
   xmlns:inkscape="http://www.inkscape.org/namespaces/inkscape"
   width="16"
   height="16"
   id="svg3529"
   version="1.1"
   inkscape:version="0.91 r13725"
   sodipodi:docname="media-optical-data.svg">
  <sodipodi:namedview
     pagecolor="#ffffff"
     bordercolor="#ffffff"
     borderopacity="1"
     objecttolerance="10"
     gridtolerance="10"
     guidetolerance="10"
     inkscape:pageopacity="0"
     inkscape:pageshadow="2"
     inkscape:window-width="1920"
     inkscape:window-height="1002"
     id="namedview6"
     showgrid="true"
     inkscape:snap-bbox="true"
     inkscape:zoom="59"
     inkscape:cx="8.2679424"
     inkscape:cy="7.7919693"
     inkscape:window-x="0"
     inkscape:window-y="26"
     inkscape:window-maximized="1"
     inkscape:current-layer="layer1">
    <inkscape:grid
       id="grid2987"
       type="xygrid" />
  </sodipodi:namedview>
  <metadata
     id="metadata10">
    <rdf:RDF>
      <cc:Work
         rdf:about="">
        <dc:format>image/svg+xml</dc:format>
        <dc:type
           rdf:resource="http://purl.org/dc/dcmitype/StillImage" />
      </cc:Work>
    </rdf:RDF>
  </metadata>
  <defs
     id="defs8" />
  <g
     transform="translate(-456.14285,-657.36218)"
     id="layer1"
     inkscape:groupmode="layer"
     inkscape:label="Capa 1">
    <path
       id="path3784"
       transform="translate(456.14285,657.36218)"
       d="M 8 2 C 4.6862915 2 2 4.6862915 2 8 C 2 11.313708 4.6862915 14 8 14 L 8 13 C 5.2385763 13 3 10.761424 3 8 C 3 5.2385763 5.2385763 3 8 3 C 10.761424 3 13 5.2385763 13 8 L 14 8 C 14 4.6862915 11.313708 2 8 2 z M 8 6 C 6.8954305 6 6 6.8954305 6 8 C 6 9.1045695 6.8954305 10 8 10 L 8 9 C 7.4477153 9 7 8.5522847 7 8 C 7 7.4477153 7.4477153 7 8 7 C 8.5522847 7 9 7.4477153 9 8 L 10 8 C 10 6.8954305 9.1045695 6 8 6 z "
       style="opacity:1;fill:#d6d0cb;fill-opacity:1;stroke:none" />
    <path
       transform="translate(456.14285,657.36218)"
       id="rect3763"
       d="M 9 9 L 9 14 L 11 14 L 12 13 L 13 12 L 13 9 L 9 9 z M 10 10 L 12 10 L 12 12 L 11 12 L 11 13 L 10 13 L 10 10 z "
       style="fill:#d6d0cb;fill-opacity:1;stroke:none" />
  </g>
</svg>
