<?xml version="1.0" encoding="UTF-8" standalone="no"?>
<svg
   xmlns:dc="http://purl.org/dc/elements/1.1/"
   xmlns:cc="http://creativecommons.org/ns#"
   xmlns:rdf="http://www.w3.org/1999/02/22-rdf-syntax-ns#"
   xmlns:svg="http://www.w3.org/2000/svg"
   xmlns="http://www.w3.org/2000/svg"
   xmlns:sodipodi="http://sodipodi.sourceforge.net/DTD/sodipodi-0.dtd"
   xmlns:inkscape="http://www.inkscape.org/namespaces/inkscape"
   width="64"
   viewBox="0 0 64 64"
   height="64"
   id="svg2"
   version="1.1"
   inkscape:version="0.91 r13725"
   sodipodi:docname="application-x-font-type1.svg">
  <metadata
     id="metadata14">
    <rdf:RDF>
      <cc:Work
         rdf:about="">
        <dc:format>image/svg+xml</dc:format>
        <dc:type
           rdf:resource="http://purl.org/dc/dcmitype/StillImage" />
        <dc:title />
      </cc:Work>
    </rdf:RDF>
  </metadata>
  <defs
     id="defs12">
    <clipPath
       clipPathUnits="userSpaceOnUse"
       id="clipPath4157">
      <path
         d="m 27.642964,3.2951379 13.085584,13.0855841 -11.072418,0 c -0.977824,0 -2.013166,-1.035372 -2.013166,-2.013167 l 0,-11.0724171 z"
         id="path4159"
         inkscape:connector-curvature="0"
         style="fill:#f9f8f2;fill-opacity:1;stroke-width:1.00658333" />
    </clipPath>
  </defs>
  <sodipodi:namedview
     pagecolor="#ffffff"
     bordercolor="#666666"
     borderopacity="1"
     objecttolerance="10"
     gridtolerance="10"
     guidetolerance="10"
     inkscape:pageopacity="0"
     inkscape:pageshadow="2"
     inkscape:window-width="1920"
     inkscape:window-height="996"
     id="namedview10"
     showgrid="true"
     inkscape:zoom="16"
     inkscape:cx="-18.990802"
     inkscape:cy="29.060603"
     inkscape:window-x="-4"
     inkscape:window-y="0"
     inkscape:window-maximized="1"
     inkscape:current-layer="svg2"
     inkscape:snap-bbox="true"
     inkscape:bbox-nodes="true"
     inkscape:object-nodes="true"
     borderlayer="false">
    <inkscape:grid
       type="xygrid"
       id="grid4160"
       visible="true" />
  </sodipodi:namedview>
  <g
     id="g4174"
     transform="matrix(0.13425926,0,0,0.13425926,-1.8703707,-2.3703705)">
    <path
       sodipodi:nodetypes="sccssssss"
       inkscape:connector-curvature="0"
       id="path4172"
       d="m 111.68966,39.999999 200.17241,2e-6 107.99807,111.724139 0,293.27586 c 0,14.958 -12.042,27 -27,27 l -281.17048,0 C 96.731656,472 84.689656,459.958 84.689656,445 l 0,-378.000001 c 0,-14.958 12.042,-27 27.000004,-27 z"
       style="fill:#e87e04;fill-opacity:1;fill-rule:evenodd;stroke:none;stroke-width:1.19299817px;stroke-linecap:butt;stroke-linejoin:miter;stroke-opacity:1" />
    <path
       inkscape:connector-curvature="0"
       id="rect4167"
       d="M 419.86014,151.72414 311.86207,40.000001 l -0.002,84.724139 c -3.4e-4,14.958 12.042,27 27,27 z"
       style="fill:#000000;fill-opacity:0.17647059;fill-rule:evenodd;stroke:none;stroke-width:1.19299817px;stroke-linecap:butt;stroke-linejoin:miter;stroke-opacity:1"
       sodipodi:nodetypes="ccssc" />
  </g>
  <path
     style="fill:#f7f7f7;fill-opacity:1"
     inkscape:connector-curvature="0"
     d="m 29.693805,42.363667 c -1.807667,0 -3.039667,-0.905667 -2.7115,-3.213834 0.410667,-2.883833 2.135833,-3.831666 7.601,-4.6145 0.04033,0 1.725167,-0.287833 1.725167,-0.287833 l -0.6985,5.1095 c -1.4795,1.8535 -4.148834,3.006667 -5.916167,3.006667 m 5.628333,-0.2475 0.0825,2.388833 2.341167,0 2.135833,-15.4495 C 40.539805,24.3585 37.868638,23 34.130472,23 c -2.671167,0 -5.300167,0.782833 -6.860334,1.6885 l 0.451,2.553833 c 1.684834,-0.823166 3.985667,-1.400666 6.079334,-1.400666 2.588666,0 3.532833,1.277833 3.204666,3.749166 l -0.370333,2.3485 -1.9305,0.2475 C 29.734138,32.969667 24.884972,33.7525 24.105805,39.272667 23.530138,43.227167 25.873138,45 28.995305,45 c 1.972667,0 4.396333,-0.740667 6.326833,-2.883833"
     id="path24-7" />
</svg>
