<?xml version="1.0" encoding="UTF-8" standalone="no"?>
<svg
   xmlns:dc="http://purl.org/dc/elements/1.1/"
   xmlns:cc="http://creativecommons.org/ns#"
   xmlns:rdf="http://www.w3.org/1999/02/22-rdf-syntax-ns#"
   xmlns:svg="http://www.w3.org/2000/svg"
   xmlns="http://www.w3.org/2000/svg"
   xmlns:sodipodi="http://sodipodi.sourceforge.net/DTD/sodipodi-0.dtd"
   xmlns:inkscape="http://www.inkscape.org/namespaces/inkscape"
   width="64"
   viewBox="0 0 64 64"
   height="64"
   id="svg2"
   version="1.1"
   inkscape:version="0.91 r13725"
   sodipodi:docname="application-x-ruby.svg">
  <metadata
     id="metadata14">
    <rdf:RDF>
      <cc:Work
         rdf:about="">
        <dc:format>image/svg+xml</dc:format>
        <dc:type
           rdf:resource="http://purl.org/dc/dcmitype/StillImage" />
        <dc:title />
      </cc:Work>
    </rdf:RDF>
  </metadata>
  <defs
     id="defs12">
    <clipPath
       clipPathUnits="userSpaceOnUse"
       id="clipPath4157">
      <path
         d="m 27.642964,3.2951379 13.085584,13.0855841 -11.072418,0 c -0.977824,0 -2.013166,-1.035372 -2.013166,-2.013167 l 0,-11.0724171 z"
         id="path4159"
         inkscape:connector-curvature="0"
         style="fill:#f9f8f2;fill-opacity:1;stroke-width:1.00658333" />
    </clipPath>
  </defs>
  <sodipodi:namedview
     pagecolor="#ffffff"
     bordercolor="#666666"
     borderopacity="1"
     objecttolerance="10"
     gridtolerance="10"
     guidetolerance="10"
     inkscape:pageopacity="0"
     inkscape:pageshadow="2"
     inkscape:window-width="1920"
     inkscape:window-height="996"
     id="namedview10"
     showgrid="true"
     inkscape:zoom="11.313709"
     inkscape:cx="-6.4498894"
     inkscape:cy="35.23678"
     inkscape:window-x="-4"
     inkscape:window-y="0"
     inkscape:window-maximized="1"
     inkscape:current-layer="svg2"
     inkscape:snap-bbox="true"
     inkscape:bbox-nodes="true"
     inkscape:object-nodes="true"
     borderlayer="false"
     showguides="false"
     inkscape:bbox-paths="true"
     inkscape:snap-bbox-edge-midpoints="true">
    <inkscape:grid
       type="xygrid"
       id="grid4160"
       visible="true" />
  </sodipodi:namedview>
  <g
     id="g4174"
     transform="matrix(0.13425926,0,0,0.13425926,-1.8702411,-2.3703705)">
    <path
       sodipodi:nodetypes="sccssssss"
       inkscape:connector-curvature="0"
       id="path4172"
       d="m 111.68966,39.999999 200.17241,2e-6 107.99807,111.724139 0,293.27586 c 0,14.958 -12.042,27 -27,27 l -281.17048,0 C 96.731656,472 84.689656,459.958 84.689656,445 l 0,-378.000001 c 0,-14.958 12.042,-27 27.000004,-27 z"
       style="fill:#d91e18;fill-opacity:1;fill-rule:evenodd;stroke:none;stroke-width:1.19299817px;stroke-linecap:butt;stroke-linejoin:miter;stroke-opacity:1" />
    <path
       inkscape:connector-curvature="0"
       id="rect4167"
       d="M 419.86014,151.72414 311.86207,40.000001 l -0.002,84.724139 c -3.4e-4,14.958 12.042,27 27,27 z"
       style="fill:#000000;fill-opacity:0.17647059;fill-rule:evenodd;stroke:none;stroke-width:1.19299817px;stroke-linecap:butt;stroke-linejoin:miter;stroke-opacity:1"
       sodipodi:nodetypes="ccssc" />
  </g>
  <path
     inkscape:connector-curvature="0"
     style="opacity:1;fill:#f7f7f7;fill-opacity:1;stroke:none"
     d="M 27.966797,23 27,23.259766 27.513672,25.173828 28.478516,24.914062 27.966797,23 Z m 8.066406,0 -0.511719,1.914062 0.964844,0.259766 L 37,23.259766 36.033203,23 Z m -12.167969,0.400391 -0.865234,0.5 2,3.46289 0.865234,-0.5 -2,-3.46289 z m 16.269532,0 -2,3.46289 0.865234,0.5 2,-3.46289 -0.865234,-0.5 z M 21.5,27.158203 21,28.023438 l 1.716797,0.992187 0.5,-0.867187 L 21.5,27.158203 Z m 21,0 -1.716797,0.990235 0.5,0.867187 L 43,28.023438 42.5,27.158203 Z M 25.986328,29 22,32.986328 22,33 31.126953,43.953125 31.166016,44 32,45 32.873047,43.953125 32.931641,43.880859 42,33 42,32.992188 38.007812,29 38,29 l -10.919922,0 -1.09375,0 z m 0.414063,1 0.949218,0 0.535157,2 -3.484375,0 2,-2 z m 1.984375,0 2.443359,0 -1.154297,2 -0.751953,0 -0.537109,-2 z m 3.599609,0 0.03125,0 1.154297,2 -2.339844,0 1.154297,-2 z m 1.1875,0 2.443359,0 -0.537109,2 -0.751953,0 -1.154297,-2 z m 3.480469,0 0.941406,0 2,2 -3.478516,0 0.53711,-2 z m -13.365235,3 0.113282,0 4.751953,0 2.310547,8.619141 L 23.287109,33 Z m 5.902344,0 1.0625,0 3.496094,0 1.0625,0 L 32.009766,43.455078 32,43.466797 31.990234,43.455078 29.189453,33 Z m 6.658203,0 4.746094,0 0.119141,0 -7.175782,8.619141 L 35.847656,33 Z"
     id="rect4186" />
</svg>
