<?xml version="1.0" encoding="UTF-8" standalone="no"?>
<svg
   xmlns:dc="http://purl.org/dc/elements/1.1/"
   xmlns:cc="http://creativecommons.org/ns#"
   xmlns:rdf="http://www.w3.org/1999/02/22-rdf-syntax-ns#"
   xmlns:svg="http://www.w3.org/2000/svg"
   xmlns="http://www.w3.org/2000/svg"
   xmlns:sodipodi="http://sodipodi.sourceforge.net/DTD/sodipodi-0.dtd"
   xmlns:inkscape="http://www.inkscape.org/namespaces/inkscape"
   width="64"
   viewBox="0 0 64 64"
   height="64"
   id="svg2"
   version="1.1"
   inkscape:version="0.91 r13725"
   sodipodi:docname="application-vnd.scribus.svg">
  <metadata
     id="metadata14">
    <rdf:RDF>
      <cc:Work
         rdf:about="">
        <dc:format>image/svg+xml</dc:format>
        <dc:type
           rdf:resource="http://purl.org/dc/dcmitype/StillImage" />
        <dc:title />
      </cc:Work>
    </rdf:RDF>
  </metadata>
  <defs
     id="defs12">
    <clipPath
       clipPathUnits="userSpaceOnUse"
       id="clipPath4157">
      <path
         d="m 27.642964,3.2951379 13.085584,13.0855841 -11.072418,0 c -0.977824,0 -2.013166,-1.035372 -2.013166,-2.013167 l 0,-11.0724171 z"
         id="path4159"
         inkscape:connector-curvature="0"
         style="fill:#f9f8f2;fill-opacity:1;stroke-width:1.00658333" />
    </clipPath>
  </defs>
  <sodipodi:namedview
     pagecolor="#ffffff"
     bordercolor="#666666"
     borderopacity="1"
     objecttolerance="10"
     gridtolerance="10"
     guidetolerance="10"
     inkscape:pageopacity="0"
     inkscape:pageshadow="2"
     inkscape:window-width="1920"
     inkscape:window-height="996"
     id="namedview10"
     showgrid="true"
     inkscape:zoom="8.0000005"
     inkscape:cx="-27.143683"
     inkscape:cy="36.239965"
     inkscape:window-x="-4"
     inkscape:window-y="0"
     inkscape:window-maximized="1"
     inkscape:current-layer="svg2"
     inkscape:snap-bbox="true"
     inkscape:bbox-nodes="true"
     inkscape:object-nodes="true"
     borderlayer="false"
     showguides="true"
     inkscape:bbox-paths="true"
     inkscape:snap-bbox-edge-midpoints="true">
    <inkscape:grid
       type="xygrid"
       id="grid4160"
       visible="true" />
  </sodipodi:namedview>
  <g
     id="g4174"
     transform="matrix(0.13425926,0,0,0.13425926,-1.8702411,-2.3703705)">
    <path
       sodipodi:nodetypes="sccssssss"
       inkscape:connector-curvature="0"
       id="path4172"
       d="m 111.68966,39.999999 200.17241,2e-6 107.99807,111.724139 0,293.27586 c 0,14.958 -12.042,27 -27,27 l -281.17048,0 C 96.731656,472 84.689656,459.958 84.689656,445 l 0,-378.000001 c 0,-14.958 12.042,-27 27.000004,-27 z"
       style="fill:#3598dc;fill-opacity:1;fill-rule:evenodd;stroke:none;stroke-width:1.19299817px;stroke-linecap:butt;stroke-linejoin:miter;stroke-opacity:1" />
    <path
       inkscape:connector-curvature="0"
       id="rect4167"
       d="M 419.86014,151.72414 311.86207,40.000001 l -0.002,84.724139 c -3.4e-4,14.958 12.042,27 27,27 z"
       style="fill:#000000;fill-opacity:0.17647059;fill-rule:evenodd;stroke:none;stroke-width:1.19299817px;stroke-linecap:butt;stroke-linejoin:miter;stroke-opacity:1"
       sodipodi:nodetypes="ccssc" />
  </g>
  <g
     transform="matrix(0.45167798,0,0,0.45167798,29.022915,29.012497)"
     id="g4" />
  <g
     id="g4186"
     style="fill:#f7f7f7;fill-opacity:1">
    <path
       inkscape:connector-curvature="0"
       id="rect3339"
       d="m 38,23 0,1 0,0.90625 c -1.674531,0.149759 -3.591821,0.501601 -5.496094,1.253906 -0.965112,0.381279 -1.926201,0.867974 -2.847656,1.480469 C 29.214445,27.246928 28.638327,27 28,27 c -1.380712,0 -2.5,1.119288 -2.5,2.5 0,0.608299 0.226741,1.158343 0.587891,1.591797 -0.207098,0.289573 -0.410499,0.584497 -0.601563,0.900391 C 24.241014,34.051105 23.373862,36.686621 23.0625,40 L 22,40 l -1,0 0,1 0,4 5,0 0,-1 0,-3 0,-1 -1,0 -0.935547,0 c 0.306344,-3.138852 1.129521,-5.594453 2.277344,-7.492188 0.167876,-0.277554 0.346604,-0.535675 0.527344,-0.791015 C 27.210181,31.891215 27.590643,32 28,32 c 1.380712,0 2.5,-1.119288 2.5,-2.5 0,-0.380686 -0.09194,-0.737589 -0.244141,-1.060547 0.842819,-0.553872 1.723953,-0.997498 2.615235,-1.349609 C 34.636073,26.392568 36.424602,26.062225 38,25.916016 L 38,28 l 1,0 4,0 0,-1 0,-3 0,-1 -1,0 -3,0 z m 1,1 3,0 0,0.886719 0,1.003906 L 42,27 l -3,0 0,-1.148438 0,-1.003906 z m -17,17 0.974609,0 0.998047,0 L 25,41 25,44 23.962891,44 22.964844,44 22,44 Z"
       style="fill:#f7f7f7;fill-opacity:1"
       sodipodi:nodetypes="cccscsscscccccccccccscsscscccccccccccccccccccccccccccc" />
    <path
       inkscape:connector-curvature="0"
       id="path4182"
       d="m 31.495844,32.40744 a 0.50005,0.50005 0 0 0 -0.279297,0.0918 0.50005,0.50005 0 0 0 -0.04102,0.03125 0.50005,0.50005 0 0 0 -0.03516,0.0332 0.50005,0.50005 0 0 0 -0.002,0.002 0.50005,0.50005 0 0 0 -0.03125,0.03711 0.50005,0.50005 0 0 0 -0.03711,0.564453 0.50005,0.50005 0 0 0 0.0039,0.0059 l 4.011718,9.519531 a 0.50005,0.50005 0 0 0 0.951172,-0.0918 l 0.890625,-4.261721 4.677735,-0.933594 a 0.50005,0.50005 0 0 0 0.08789,-0.955078 l -9.943359,-3.976563 a 0.50005,0.50005 0 0 0 -0.253906,-0.06641 z m 0.935547,1.416016 7.326172,2.929687 -3.34961,0.669922 a 0.50005,0.50005 0 0 0 -0.390625,0.388672 l -0.632812,3.017578 -2.953125,-7.005859 z"
       style="color:#000000;font-style:normal;font-variant:normal;font-weight:normal;font-stretch:normal;font-size:medium;line-height:normal;font-family:sans-serif;text-indent:0;text-align:start;text-decoration:none;text-decoration-line:none;text-decoration-style:solid;text-decoration-color:#000000;letter-spacing:normal;word-spacing:normal;text-transform:none;direction:ltr;block-progression:tb;writing-mode:lr-tb;baseline-shift:baseline;text-anchor:start;white-space:normal;clip-rule:nonzero;display:inline;overflow:visible;visibility:visible;opacity:1;isolation:auto;mix-blend-mode:normal;color-interpolation:sRGB;color-interpolation-filters:linearRGB;solid-color:#000000;solid-opacity:1;fill:#f7f7f7;fill-opacity:1;fill-rule:evenodd;stroke:none;stroke-width:1px;stroke-linecap:round;stroke-linejoin:round;stroke-miterlimit:4;stroke-dasharray:none;stroke-dashoffset:0;stroke-opacity:1;color-rendering:auto;image-rendering:auto;shape-rendering:auto;text-rendering:auto;enable-background:accumulate" />
  </g>
</svg>
