<?xml version="1.0" encoding="UTF-8" standalone="no"?>
<svg
   xmlns:dc="http://purl.org/dc/elements/1.1/"
   xmlns:cc="http://creativecommons.org/ns#"
   xmlns:rdf="http://www.w3.org/1999/02/22-rdf-syntax-ns#"
   xmlns:svg="http://www.w3.org/2000/svg"
   xmlns="http://www.w3.org/2000/svg"
   xmlns:sodipodi="http://sodipodi.sourceforge.net/DTD/sodipodi-0.dtd"
   xmlns:inkscape="http://www.inkscape.org/namespaces/inkscape"
   width="64"
   viewBox="0 0 64 64"
   height="64"
   id="svg2"
   version="1.1"
   inkscape:version="0.91 r13725"
   sodipodi:docname="libreoffice-spreadsheet-template.svg">
  <metadata
     id="metadata14">
    <rdf:RDF>
      <cc:Work
         rdf:about="">
        <dc:format>image/svg+xml</dc:format>
        <dc:type
           rdf:resource="http://purl.org/dc/dcmitype/StillImage" />
        <dc:title />
      </cc:Work>
    </rdf:RDF>
  </metadata>
  <defs
     id="defs12">
    <clipPath
       clipPathUnits="userSpaceOnUse"
       id="clipPath4157">
      <path
         d="m 27.642964,3.2951379 13.085584,13.0855841 -11.072418,0 c -0.977824,0 -2.013166,-1.035372 -2.013166,-2.013167 l 0,-11.0724171 z"
         id="path4159"
         inkscape:connector-curvature="0"
         style="fill:#f9f8f2;fill-opacity:1;stroke-width:1.00658333" />
    </clipPath>
  </defs>
  <sodipodi:namedview
     pagecolor="#ffffff"
     bordercolor="#666666"
     borderopacity="1"
     objecttolerance="10"
     gridtolerance="10"
     guidetolerance="10"
     inkscape:pageopacity="0"
     inkscape:pageshadow="2"
     inkscape:window-width="1920"
     inkscape:window-height="996"
     id="namedview10"
     showgrid="true"
     inkscape:zoom="16"
     inkscape:cx="1.233806"
     inkscape:cy="26.839112"
     inkscape:window-x="-4"
     inkscape:window-y="0"
     inkscape:window-maximized="1"
     inkscape:current-layer="svg2"
     inkscape:snap-bbox="true"
     inkscape:bbox-nodes="true"
     inkscape:object-nodes="true"
     borderlayer="false">
    <inkscape:grid
       type="xygrid"
       id="grid4160"
       visible="true" />
  </sodipodi:namedview>
  <g
     id="g4174"
     transform="matrix(0.13425926,0,0,0.13425926,-1.8703707,-2.3703705)">
    <path
       sodipodi:nodetypes="sccssssss"
       inkscape:connector-curvature="0"
       id="path4172"
       d="m 111.68966,39.999999 200.17241,2e-6 107.99807,111.724139 0,293.27586 c 0,14.958 -12.042,27 -27,27 l -281.17048,0 C 96.731656,472 84.689656,459.958 84.689656,445 l 0,-378.000001 c 0,-14.958 12.042,-27 27.000004,-27 z"
       style="fill:#96a6a6;fill-opacity:1;fill-rule:evenodd;stroke:none;stroke-width:1.19299817px;stroke-linecap:butt;stroke-linejoin:miter;stroke-opacity:1" />
    <path
       inkscape:connector-curvature="0"
       id="rect4167"
       d="M 419.86014,151.72414 311.86207,40.000001 l -0.002,84.724139 c -3.4e-4,14.958 12.042,27 27,27 z"
       style="fill:#000000;fill-opacity:0.17647059;fill-rule:evenodd;stroke:none;stroke-width:1.19299817px;stroke-linecap:butt;stroke-linejoin:miter;stroke-opacity:1"
       sodipodi:nodetypes="ccssc" />
  </g>
  <path
     style="fill:#f7f7f7;fill-opacity:1"
     d="M 21 23 L 21 24 L 21 36 L 21 37 L 21 44 L 21 45 L 22 45 L 28 45 L 29 45 L 35 45 L 36 45 L 42 45 L 43 45 L 43 44 L 43 41 L 43 40 L 43 37 L 43 36 L 43 33 L 43 32 L 43 29 L 43 28 L 43 25 L 43 24 L 43 23 L 36 23 L 35 23 L 29 23 L 28 23 L 21 23 z M 22 25 L 28 25 L 28 28 L 22 28 L 22 25 z M 29 25 L 35 25 L 35 28 L 29 28 L 29 25 z M 36 25 L 42 25 L 42 28 L 36 28 L 36 25 z M 22 29 L 28 29 L 28 32 L 22 32 L 22 29 z M 29 29 L 35 29 L 35 32 L 29 32 L 29 29 z M 36 29 L 42 29 L 42 32 L 36 32 L 36 29 z M 22 33 L 28 33 L 28 36 L 22 36 L 22 33 z M 29 33 L 35 33 L 35 36 L 29 36 L 29 33 z M 36 33 L 42 33 L 42 36 L 36 36 L 36 33 z M 22 37 L 28 37 L 28 40 L 22 40 L 22 37 z M 29 37 L 35 37 L 35 40 L 29 40 L 29 37 z M 36 37 L 42 37 L 42 40 L 36 40 L 36 37 z M 22 41 L 28 41 L 28 44 L 22 44 L 22 41 z M 29 41 L 35 41 L 35 44 L 29 44 L 29 41 z M 36 41 L 42 41 L 42 44 L 36 44 L 36 41 z "
     id="rect4145" />
</svg>
