<?xml version="1.0" encoding="UTF-8" standalone="no"?>
<svg
   xmlns:dc="http://purl.org/dc/elements/1.1/"
   xmlns:cc="http://creativecommons.org/ns#"
   xmlns:rdf="http://www.w3.org/1999/02/22-rdf-syntax-ns#"
   xmlns:svg="http://www.w3.org/2000/svg"
   xmlns="http://www.w3.org/2000/svg"
   xmlns:sodipodi="http://sodipodi.sourceforge.net/DTD/sodipodi-0.dtd"
   xmlns:inkscape="http://www.inkscape.org/namespaces/inkscape"
   width="24"
   height="24"
   version="1.1"
   id="svg9"
   sodipodi:docname="gpm-brightness-kbd-invalid.svg"
   inkscape:version="0.92.3 (2405546, 2018-03-11)">
  <metadata
     id="metadata13">
    <rdf:RDF>
      <cc:Work
         rdf:about="">
        <dc:format>image/svg+xml</dc:format>
        <dc:type
           rdf:resource="http://purl.org/dc/dcmitype/StillImage" />
      </cc:Work>
    </rdf:RDF>
  </metadata>
  <sodipodi:namedview
     pagecolor="#ffffff"
     bordercolor="#666666"
     borderopacity="1"
     objecttolerance="10"
     gridtolerance="10"
     guidetolerance="10"
     inkscape:pageopacity="0"
     inkscape:pageshadow="2"
     inkscape:window-width="640"
     inkscape:window-height="480"
     id="namedview11"
     showgrid="false"
     inkscape:zoom="9.8333333"
     inkscape:cx="10.220339"
     inkscape:cy="12"
     inkscape:window-x="0"
     inkscape:window-y="27"
     inkscape:window-maximized="0"
     inkscape:current-layer="svg9" />
  <defs
     id="defs3">
    <style
       id="current-color-scheme"
       type="text/css">
   .ColorScheme-Text { color:#d3dae3; } .ColorScheme-Highlight { color:#16a085; }
  </style>
  </defs>
  <path
     class="ColorScheme-Text"
     d="m 19,13 c 0,-0.554 -0.446,-1 -1,-1 H 5 c -0.554,0 -1,0.446 -1,1 v 5 c 0,0.554 0.446,1 1,1 h 13 c 0.554,0 1,-0.446 1,-1 z m -3,0 v 1 h -1 v -1 z m 0,2 v 1 h -1 v -1 z m -1,2 v 1 H 8.0000002 v -1 z m -1,-4 v 1 h -1 v -1 z m 0,2 v 1 h -1 v -1 z m -2,-2 v 1 h -1 v -1 z m 0,2 v 1 h -1 v -1 z m -2,-2 v 1 H 9.0000002 v -1 z m 0,2 v 1 H 9.0000002 V 15 Z M 8.0000002,13 v 1 h -1 v -1 z m 0,2 v 1 h -1 v -1 z"
     style="opacity:0.3;fill:currentColor;fill-rule:evenodd"
     id="path5" />
  <path
     style="fill:#ff0000"
     class="ColorScheme-Highlight"
     d="m 11,5 v 4 h 2 V 5 Z m 0,5 v 1 h 2 v -1 z"
     id="path7" />
</svg>
