<?xml version="1.0" encoding="UTF-8" standalone="no"?>
<svg
   xmlns:dc="http://purl.org/dc/elements/1.1/"
   xmlns:cc="http://creativecommons.org/ns#"
   xmlns:rdf="http://www.w3.org/1999/02/22-rdf-syntax-ns#"
   xmlns:svg="http://www.w3.org/2000/svg"
   xmlns="http://www.w3.org/2000/svg"
   xmlns:sodipodi="http://sodipodi.sourceforge.net/DTD/sodipodi-0.dtd"
   xmlns:inkscape="http://www.inkscape.org/namespaces/inkscape"
   width="24"
   height="24"
   version="1.1"
   id="svg7"
   sodipodi:docname="indicator-cpufreq-100.svg"
   inkscape:version="0.92.3 (2405546, 2018-03-11)">
  <metadata
     id="metadata11">
    <rdf:RDF>
      <cc:Work
         rdf:about="">
        <dc:format>image/svg+xml</dc:format>
        <dc:type
           rdf:resource="http://purl.org/dc/dcmitype/StillImage" />
      </cc:Work>
    </rdf:RDF>
  </metadata>
  <sodipodi:namedview
     pagecolor="#ffffff"
     bordercolor="#666666"
     borderopacity="1"
     objecttolerance="10"
     gridtolerance="10"
     guidetolerance="10"
     inkscape:pageopacity="0"
     inkscape:pageshadow="2"
     inkscape:window-width="640"
     inkscape:window-height="480"
     id="namedview9"
     showgrid="false"
     inkscape:zoom="9.8333333"
     inkscape:cx="10.220339"
     inkscape:cy="12"
     inkscape:window-x="0"
     inkscape:window-y="27"
     inkscape:window-maximized="0"
     inkscape:current-layer="svg7" />
  <defs
     id="defs3">
    <style
       id="current-color-scheme"
       type="text/css">
   .ColorScheme-Text { color:#d3dae3; } .ColorScheme-Highlight { color:#16a085; }
  </style>
  </defs>
  <path
     style="fill:#ff0000"
     class="ColorScheme-Highlight"
     d="m7.3532 3.9945a0.25823 0.25823 0 0 0 -0.2539 0.2617v1.5684c-0.6493 0.1087-1.1549 0.6144-1.2637 1.2636h-1.5684a0.25879 0.25879 0 1 0 0 0.51758h1.541v2.582h-1.541a0.25823 0.25823 0 1 0 0 0.51562h1.541v2.582h-1.541a0.25823 0.25823 0 1 0 0 0.51562h1.541v2.582h-1.541a0.25879 0.25879 0 1 0 0 0.51758h1.5684c0.10876 0.64926 0.61441 1.1549 1.2637 1.2637v1.5684a0.25879 0.25879 0 1 0 0.51758 0v-1.541h2.582v1.541a0.25823 0.25823 0 1 0 0.51562 0v-1.541h2.582v1.541a0.25823 0.25823 0 1 0 0.51562 0v-1.541h2.582v1.541a0.25879 0.25879 0 0 0 0.51758 0v-1.5684c0.64926-0.10876 1.1549-0.61441 1.2637-1.2637h1.5684a0.25823 0.25823 0 0 0 0.26172 -0.26172 0.25823 0.25823 0 0 0 -0.26172 -0.25586h-1.541v-2.582h1.541a0.25823 0.25823 0 0 0 0.26172 -0.26172 0.25823 0.25823 0 0 0 -0.26172 -0.25391h-1.541v-2.582h1.541a0.25823 0.25823 0 0 0 0.26172 -0.26172 0.25823 0.25823 0 0 0 -0.26172 -0.25391h-1.541v-2.582h1.541a0.25823 0.25823 0 0 0 0.261 -0.2639 0.25823 0.25823 0 0 0 -0.262 -0.2539h-1.5684c-0.109-0.6492-0.615-1.1549-1.264-1.2636v-1.5684a0.25823 0.25823 0 0 0 -0.264 -0.2617 0.25823 0.25823 0 0 0 -0.254 0.2617v1.541h-2.582v-1.541a0.25823 0.25823 0 0 0 -0.262 -0.2617 0.25823 0.25823 0 0 0 -0.253 0.2617v1.541h-2.582v-1.541a0.25823 0.25823 0 0 0 -0.262 -0.2617 0.25823 0.25823 0 0 0 -0.254 0.2617v1.541h-2.582v-1.541a0.25823 0.25823 0 0 0 -0.2638 -0.2617zm0.15234 3h9c0.277 0 0.5 0.223 0.5 0.5s-0.223 0.5-0.5 0.5h-9c-0.277 0-0.5-0.223-0.5-0.5s0.223-0.5 0.5-0.5zm0 3h9c0.277 0 0.5 0.223 0.5 0.5s-0.223 0.5-0.5 0.5h-9c-0.277 0-0.5-0.223-0.5-0.5s0.223-0.5 0.5-0.5zm0 3h9c0.277 0 0.5 0.223 0.5 0.5s-0.223 0.5-0.5 0.5h-9c-0.277 0-0.5-0.223-0.5-0.5s0.223-0.5 0.5-0.5zm0 3h9c0.277 0 0.5 0.223 0.5 0.5s-0.223 0.5-0.5 0.5h-9c-0.277 0-0.5-0.223-0.5-0.5s0.223-0.5 0.5-0.5z"
     id="path5" />
</svg>
