<?xml version="1.0" encoding="UTF-8" standalone="no"?>
<svg
   xmlns:dc="http://purl.org/dc/elements/1.1/"
   xmlns:cc="http://creativecommons.org/ns#"
   xmlns:rdf="http://www.w3.org/1999/02/22-rdf-syntax-ns#"
   xmlns:svg="http://www.w3.org/2000/svg"
   xmlns="http://www.w3.org/2000/svg"
   xmlns:sodipodi="http://sodipodi.sourceforge.net/DTD/sodipodi-0.dtd"
   xmlns:inkscape="http://www.inkscape.org/namespaces/inkscape"
   width="24"
   height="24"
   version="1"
   id="svg7"
   sodipodi:docname="simplescreenrecorder-error.svg"
   inkscape:version="0.92.3 (2405546, 2018-03-11)">
  <metadata
     id="metadata11">
    <rdf:RDF>
      <cc:Work
         rdf:about="">
        <dc:format>image/svg+xml</dc:format>
        <dc:type
           rdf:resource="http://purl.org/dc/dcmitype/StillImage" />
      </cc:Work>
    </rdf:RDF>
  </metadata>
  <sodipodi:namedview
     pagecolor="#ffffff"
     bordercolor="#666666"
     borderopacity="1"
     objecttolerance="10"
     gridtolerance="10"
     guidetolerance="10"
     inkscape:pageopacity="0"
     inkscape:pageshadow="2"
     inkscape:window-width="787"
     inkscape:window-height="480"
     id="namedview9"
     showgrid="false"
     inkscape:zoom="9.8333333"
     inkscape:cx="0.61016949"
     inkscape:cy="12"
     inkscape:window-x="0"
     inkscape:window-y="27"
     inkscape:window-maximized="0"
     inkscape:current-layer="svg7" />
  <defs
     id="defs3">
    <style
       id="current-color-scheme"
       type="text/css">
   .ColorScheme-Text { color:#d3dae3; } .ColorScheme-Highlight { color:#16a085; }
  </style>
  </defs>
  <path
     style="fill:#ff0000"
     class="ColorScheme-Highlight"
     d="M 4.1816406,6 C 3.5269406,6 3,6.5344188 3,7.1992188 L 3,16.800781 C 3,17.465781 3.5269406,18 4.1816406,18 L 15.818359,18 C 16.473359,18 17,17.465781 17,16.800781 L 17,14 l 5,2 0,-8 -5,2 0,-2.8007812 C 17,6.5344187 16.473359,6 15.818359,6 L 4.1816406,6 Z M 7.7773438,8 10,10.222656 12.222656,8 14,9.777344 11.777344,12 14,14.222656 12.222656,16 10,13.777344 7.7773438,16 6,14.222656 8.2226562,12 6,9.777344 7.7773438,8 Z"
     id="path5" />
</svg>
