<?xml version="1.0" encoding="UTF-8" standalone="no"?>
<svg
   xmlns:dc="http://purl.org/dc/elements/1.1/"
   xmlns:cc="http://creativecommons.org/ns#"
   xmlns:rdf="http://www.w3.org/1999/02/22-rdf-syntax-ns#"
   xmlns:svg="http://www.w3.org/2000/svg"
   xmlns="http://www.w3.org/2000/svg"
   xmlns:sodipodi="http://sodipodi.sourceforge.net/DTD/sodipodi-0.dtd"
   xmlns:inkscape="http://www.inkscape.org/namespaces/inkscape"
   width="24"
   height="24"
   version="1.1"
   id="svg7"
   sodipodi:docname="system-devices-panel-alert.svg"
   inkscape:version="0.92.3 (2405546, 2018-03-11)">
  <metadata
     id="metadata11">
    <rdf:RDF>
      <cc:Work
         rdf:about="">
        <dc:format>image/svg+xml</dc:format>
        <dc:type
           rdf:resource="http://purl.org/dc/dcmitype/StillImage" />
      </cc:Work>
    </rdf:RDF>
  </metadata>
  <sodipodi:namedview
     pagecolor="#ffffff"
     bordercolor="#666666"
     borderopacity="1"
     objecttolerance="10"
     gridtolerance="10"
     guidetolerance="10"
     inkscape:pageopacity="0"
     inkscape:pageshadow="2"
     inkscape:window-width="787"
     inkscape:window-height="480"
     id="namedview9"
     showgrid="false"
     inkscape:zoom="9.8333333"
     inkscape:cx="0.61016949"
     inkscape:cy="12"
     inkscape:window-x="0"
     inkscape:window-y="27"
     inkscape:window-maximized="0"
     inkscape:current-layer="svg7" />
  <defs
     id="defs3">
    <style
       id="current-color-scheme"
       type="text/css">
   .ColorScheme-Text { color:#d3dae3; } .ColorScheme-Highlight { color:#16a085; }
  </style>
  </defs>
  <path
     style="fill:#ff0000"
     class="ColorScheme-Highlight"
     d="M 12 5 C 11.446 5 11 5.446 11 6 L 11 11.003906 C 11 11.557906 11.446 12.003906 12 12.003906 C 12.554 12.003906 13 11.557906 13 11.003906 L 13 6 C 13 5.446 12.554 5 12 5 z M 15.037109 6.9882812 A 1.0001 1.0001 0 0 0 14.84375 7 A 1.0001 1.0001 0 0 0 14.40625 8.8125 C 16.18475 10.1429 16.54905 12.62775 15.21875 14.40625 C 13.88835 16.18475 11.37225 16.51785 9.59375 15.1875 C 7.81525 13.85715 7.48215 11.37225 8.8125 9.59375 C 9.02906 9.30424 9.2764 9.06479 9.5625 8.84375 A 1.0032039 1.0032039 0 1 0 8.34375 7.25 C 7.9146 7.58156 7.51229 7.97204 7.1875 8.40625 C 5.2097 11.05025 5.76225 14.8348 8.40625 16.8125 C 11.05025 18.7903 14.8348 18.23775 16.8125 15.59375 C 18.7903 12.94975 18.23775 9.1652 15.59375 7.1875 A 1.0001 1.0001 0 0 0 15.037109 6.9882812 z"
     id="path5" />
</svg>
