<?xml version="1.0" encoding="UTF-8" standalone="no"?>
<!-- Generator: flash2svg, http://dissentgraphics.com/tools/flash2svg -->

<svg
   xmlns:dc="http://purl.org/dc/elements/1.1/"
   xmlns:cc="http://creativecommons.org/ns#"
   xmlns:rdf="http://www.w3.org/1999/02/22-rdf-syntax-ns#"
   xmlns:svg="http://www.w3.org/2000/svg"
   xmlns="http://www.w3.org/2000/svg"
   xmlns:sodipodi="http://sodipodi.sourceforge.net/DTD/sodipodi-0.dtd"
   xmlns:inkscape="http://www.inkscape.org/namespaces/inkscape"
   id="Messages"
   version="1.1"
   style="image-rendering:optimizeSpeed"
   x="0px"
   y="0px"
   width="512"
   height="512"
   viewBox="0 0 512 512"
   enable-background="new 0 0 1024 1024"
   inkscape:version="0.91+devel r"
   sodipodi:docname="empathy.svg">
  <metadata
     id="metadata25">
    <rdf:RDF>
      <cc:Work
         rdf:about="">
        <dc:format>image/svg+xml</dc:format>
        <dc:type
           rdf:resource="http://purl.org/dc/dcmitype/StillImage" />
        <dc:title></dc:title>
      </cc:Work>
    </rdf:RDF>
  </metadata>
  <sodipodi:namedview
     pagecolor="#ffffff"
     bordercolor="#666666"
     borderopacity="1"
     objecttolerance="10"
     gridtolerance="10"
     guidetolerance="10"
     inkscape:pageopacity="0"
     inkscape:pageshadow="2"
     inkscape:window-width="959"
     inkscape:window-height="1024"
     id="namedview23"
     showgrid="false"
     inkscape:zoom="0.65186406"
     inkscape:cx="416.83645"
     inkscape:cy="845.21723"
     inkscape:window-x="960"
     inkscape:window-y="29"
     inkscape:window-maximized="0"
     inkscape:current-layer="Messages" />
  <defs
     transform="matrix(1 0 0 1 0 0) "
     id="defs3" />
  <path
     id="path14"
     d="m 488.75096,173.10721 c 0,-6.10458 -2.18285,-11.35822 -6.51155,-15.68692 -4.3287,-4.3287 -9.58234,-6.51155 -15.68692,-6.51155 l -93.56655,0 -152.57749,0 c -6.10458,0 -11.35822,2.18285 -15.68692,6.51155 -4.3287,4.3287 -6.51155,9.58234 -6.51155,15.68692 l 0,167.19148 0,38.51435 c 0,6.10458 2.18285,11.35822 6.51155,15.68692 4.3287,4.3287 9.58234,6.51155 15.68692,6.51155 l 116.83795,0 74.77185,74.77185 c 3.47776,3.47776 7.69547,5.21664 12.61613,5.21664 4.92066,0 9.13837,-1.73888 12.61613,-5.21664 3.47776,-3.47776 5.21664,-7.69547 5.21664,-12.61613 l 0,-62.15572 24.08534,0 c 6.10458,0 11.35822,-2.18285 15.68692,-6.51155 4.3287,-4.3287 6.51155,-9.58234 6.51155,-15.68692 l 0,-205.70583 z m -217.50801,124.8664 c -7.06652,0 -13.0601,-2.51583 -18.05476,-7.51048 -4.99466,-4.99466 -7.47349,-10.98825 -7.47349,-18.05476 0,-7.02952 2.47883,-13.0601 7.47349,-18.05476 4.99466,-4.99465 10.98824,-7.47348 18.05476,-7.47348 7.06651,0 13.0601,2.47883 18.05475,7.47348 4.99466,4.99466 7.47349,11.02524 7.47349,18.05476 0,7.06651 -2.47883,13.0601 -7.47349,18.05476 -4.99465,4.99465 -10.98824,7.51048 -18.05475,7.51048 z m 98.04324,-25.56524 c 0,7.06651 -2.51582,13.0601 -7.51048,18.05476 -4.99466,4.99465 -10.98824,7.51048 -18.01776,7.51048 -7.06651,0 -13.0971,-2.51583 -18.09175,-7.51048 -4.99466,-4.99466 -7.47349,-10.98825 -7.47349,-18.05476 0,-7.02952 2.47883,-13.0601 7.47349,-18.05476 4.99465,-4.99465 11.02524,-7.47348 18.09175,-7.47348 7.02952,0 13.0231,2.47883 18.01776,7.47348 4.99466,4.99466 7.51048,11.02524 7.51048,18.05476 z m 72.51501,0 c 0,7.06651 -2.51583,13.0601 -7.51048,18.05476 -4.99466,4.99465 -10.98825,7.51048 -18.05476,7.51048 -7.02952,0 -13.0601,-2.51583 -18.05476,-7.51048 -4.99465,-4.99466 -7.47348,-10.98825 -7.47348,-18.05476 0,-7.02952 2.47883,-13.0601 7.47348,-18.05476 4.99466,-4.99465 11.02524,-7.47348 18.05476,-7.47348 7.06651,0 13.0601,2.47883 18.05476,7.47348 4.99465,4.99466 7.51048,11.02524 7.51048,18.05476 z"
     inkscape:connector-curvature="0"
     style="fill:#f1f1f1;fill-opacity:1;stroke-width:0.73994905" />
  <path
     id="path15"
     d="m 271.24295,297.97361 c 7.06651,0 13.0601,-2.51583 18.05475,-7.51048 4.99466,-4.99466 7.47349,-10.98825 7.47349,-18.05476 0,-7.02952 -2.47883,-13.0601 -7.47349,-18.05476 -4.99465,-4.99465 -10.98824,-7.47348 -18.05475,-7.47348 -7.06652,0 -13.0601,2.47883 -18.05476,7.47348 -4.99466,4.99466 -7.47349,11.02524 -7.47349,18.05476 0,7.06651 2.47883,13.0601 7.47349,18.05476 4.99466,4.99465 10.98824,7.51048 18.05476,7.51048 z"
     inkscape:connector-curvature="0"
     style="fill:#999999;fill-opacity:1;stroke-width:0.73994905" />
  <path
     id="path16"
     d="m 369.28619,272.40837 c 0,-7.02952 -2.51582,-13.0601 -7.51048,-18.05476 -4.99466,-4.99465 -10.98824,-7.47348 -18.01776,-7.47348 -7.06651,0 -13.0971,2.47883 -18.09175,7.47348 -4.99466,4.99466 -7.47349,11.02524 -7.47349,18.05476 0,7.06651 2.47883,13.0601 7.47349,18.05476 4.99465,4.99465 11.02524,7.51048 18.09175,7.51048 7.02952,0 13.0231,-2.51583 18.01776,-7.51048 4.99466,-4.99466 7.51048,-10.98825 7.51048,-18.05476 z"
     inkscape:connector-curvature="0"
     style="fill:#999999;fill-opacity:1;stroke-width:0.73994905" />
  <path
     id="path17"
     d="m 441.8012,272.40837 c 0,-7.02952 -2.51583,-13.0601 -7.51048,-18.05476 -4.99466,-4.99465 -10.98825,-7.47348 -18.05476,-7.47348 -7.02952,0 -13.0601,2.47883 -18.05476,7.47348 -4.99465,4.99466 -7.47348,11.02524 -7.47348,18.05476 0,7.06651 2.47883,13.0601 7.47348,18.05476 4.99466,4.99465 11.02524,7.51048 18.05476,7.51048 7.06651,0 13.0601,-2.51583 18.05476,-7.51048 4.99465,-4.99466 7.51048,-10.98825 7.51048,-18.05476 z"
     inkscape:connector-curvature="0"
     style="fill:#999999;fill-opacity:1;stroke-width:0.73994905" />
  <path
     id="path18"
     d="m 372.98594,53.198469 c 0,-6.104579 -2.18285,-11.358217 -6.51155,-15.686919 -4.32871,-4.328702 -9.58234,-6.511551 -15.68692,-6.511551 l -305.33997,0 c -6.104579,0 -11.358218,2.182849 -15.686919,6.511551 -4.328702,4.328702 -6.511552,9.58234 -6.511552,15.686919 l 0,264.901751 c 0,6.10458 2.18285,11.35822 6.511552,15.68692 4.328701,4.3287 9.58234,6.51155 15.686919,6.51155 l 24.085341,0 0,62.15572 c 0,4.92066 1.73888,9.13837 5.216641,12.61613 3.47776,3.47776 7.69547,5.21664 12.616131,5.21664 4.920661,0 9.13837,-1.73888 12.616131,-5.21664 l 74.771846,-74.77185 23.45639,0 0,-167.19148 c 0,-6.10458 2.18285,-11.35822 6.51155,-15.68692 4.3287,-4.3287 9.58234,-6.51155 15.68692,-6.51155 l 152.57749,0 0,-97.710271 z"
     inkscape:connector-curvature="0"
     style="fill:#52b3d9;fill-opacity:1;stroke-width:0.73994905" />
</svg>
