<?xml version="1.0" encoding="UTF-8" standalone="no"?>
<!-- Created with Inkscape (http://www.inkscape.org/) -->

<svg
   xmlns:dc="http://purl.org/dc/elements/1.1/"
   xmlns:cc="http://creativecommons.org/ns#"
   xmlns:rdf="http://www.w3.org/1999/02/22-rdf-syntax-ns#"
   xmlns:svg="http://www.w3.org/2000/svg"
   xmlns="http://www.w3.org/2000/svg"
   xmlns:sodipodi="http://sodipodi.sourceforge.net/DTD/sodipodi-0.dtd"
   xmlns:inkscape="http://www.inkscape.org/namespaces/inkscape"
   id="svg2"
   version="1.1"
   inkscape:version="0.91+devel r"
   width="512"
   height="512"
   sodipodi:docname="preferences-desktop-keyboard-shortcuts.svg"
   viewBox="0 0 512 512">
  <metadata
     id="metadata8">
    <rdf:RDF>
      <cc:Work
         rdf:about="">
        <dc:format>image/svg+xml</dc:format>
        <dc:type
           rdf:resource="http://purl.org/dc/dcmitype/StillImage" />
        <dc:title></dc:title>
      </cc:Work>
    </rdf:RDF>
  </metadata>
  <defs
     id="defs6" />
  <sodipodi:namedview
     pagecolor="#ffffff"
     bordercolor="#666666"
     borderopacity="1"
     objecttolerance="10"
     gridtolerance="10"
     guidetolerance="10"
     inkscape:pageopacity="0"
     inkscape:pageshadow="2"
     inkscape:window-width="1920"
     inkscape:window-height="1025"
     id="namedview4"
     showgrid="false"
     inkscape:zoom="0.65186406"
     inkscape:cx="69.358079"
     inkscape:cy="186.89598"
     inkscape:window-x="0"
     inkscape:window-y="29"
     inkscape:window-maximized="1"
     inkscape:current-layer="svg2"
     inkscape:document-units="px" />
  <path
     inkscape:connector-curvature="0"
     id="path2996"
     d="m 47.400263,452.52642 c -1.363524,-1.36352 -1.510335,-21.30269 -1.510335,-205.12987 0,-183.827185 0.146811,-203.76635 1.510335,-205.129867 1.363523,-1.363518 21.302767,-1.510329 205.130687,-1.510329 183.82793,0 203.76717,0.146811 205.13069,1.510329 1.36352,1.363517 1.51033,21.302682 1.51033,205.129867 0,183.82718 -0.14681,203.76635 -1.51033,205.12987 -1.36352,1.3635 -21.30276,1.51032 -205.13069,1.51032 -183.82792,0 -203.767164,-0.14682 -205.130687,-1.51032 z"
     style="fill:#ebeff0;stroke-width:1.06302166" />
  <path
     inkscape:connector-curvature="0"
     id="path2992"
     d="M 31.3017,479.86248 C 31.023454,479.1303 30.918448,377.8367 31.068356,254.76561 l 0.272559,-223.765613 224.829545,0 224.82954,0 0,224.828633 0,224.82864 -224.5962,0.26823 C 77.284901,481.13942 31.70516,480.9245 31.3017,479.86248 Z M 449.51353,436.1638 c 0.87855,-1.05859 1.12476,-52.34999 0.92743,-193.20381 l -0.26865,-191.762621 -194.00185,0 -194.001853,0 -0.268648,191.762621 c -0.197329,140.85382 0.0489,192.14522 0.927425,193.20381 1.786114,2.15212 384.900036,2.15212 386.686146,0 z M 166.87646,350.66526 c 0,-1.04398 15.00519,-43.97669 33.34489,-95.40602 l 33.34488,-93.50785 22.67358,0 22.67356,0 33.27234,94.07724 c 18.29979,51.74247 33.04564,94.68555 32.76856,95.42905 -0.38882,1.04331 -5.15986,1.2859 -20.90669,1.06301 L 303.64469,352.0319 297.873,333.96057 c -3.17442,-9.93923 -6.26093,-18.66928 -6.8589,-19.40011 -0.82826,-1.0123 -9.12702,-1.32877 -34.84364,-1.32877 -25.73612,0 -34.00607,0.31571 -34.80711,1.32877 -0.57787,0.73083 -3.57074,8.98252 -6.65082,18.33709 -3.08008,9.35457 -6.07295,17.60627 -6.65082,18.33709 -0.77409,0.97898 -6.33317,1.32877 -21.11796,1.32877 -18.55555,0 -20.06729,-0.143 -20.06729,-1.89815 z M 279.54879,278.4178 c -0.0147,-3.31632 -21.80175,-69.89354 -22.87239,-69.89354 -1.28287,0 -24.05263,68.58405 -23.38096,70.42505 0.36735,1.00687 6.0297,1.32877 23.37317,1.32877 21.09289,0 22.88773,-0.14593 22.88018,-1.86028 z"
     style="fill:#b3b3b3;stroke-width:1.06302166" />
  <path
     style="fill:#94a4a5;stroke-width:1.06302166"
     d="m 61.943395,446.96495 0,-10.09868 194.227075,0 194.22706,0 0,10.09868 0,10.09869 -194.22706,0 -194.227075,0 0,-10.09869 z"
     id="path3009"
     inkscape:connector-curvature="0" />
  <path
     style="fill:#999999;fill-opacity:0;fill-rule:nonzero;stroke:none;stroke-width:1.06302166"
     d="m 167.51783,370.01683 c 0,-1.8713 21.39815,-62.88201 59.23277,-168.88532 l 7.20725,-20.19293 22.34518,0.21638 22.34517,0.2164 12.14155,34.2455 c 36.65519,103.3867 53.88851,153.48934 53.18549,154.62684 -0.23828,0.38553 -9.33887,0.70097 -20.22355,0.70097 l -19.79033,0 -3.92081,-12.43438 c -6.43324,-20.40222 -8.37508,-24.97803 -10.90078,-25.68677 -2.78447,-0.78135 -63.45709,-0.80084 -66.22336,-0.0213 -1.87722,0.52903 -2.71951,2.39923 -8.44597,18.75349 -3.49846,9.99122 -6.77968,18.43542 -7.29163,18.7649 -1.62149,1.04357 -39.66098,0.75217 -39.66098,-0.3038 z m 111.80732,-71.41516 c 0.92122,-0.92124 -1.09777,-8.17624 -9.59278,-34.47036 -8.52858,-26.39803 -12.51456,-37.02677 -13.51176,-36.02956 -1.81366,1.81364 -22.27438,63.14467 -22.82889,68.42962 -0.2352,2.24156 -0.20502,2.25583 5.87888,2.77769 8.30812,0.71268 39.17969,0.16745 40.05455,-0.70739 z"
     id="path3011"
     inkscape:connector-curvature="0" />
  <path
     style="fill:#999999;fill-opacity:0;fill-rule:nonzero;stroke:none;stroke-width:1.06302166"
     d="m 167.51783,370.01683 c 0,-1.8713 21.39815,-62.88201 59.23277,-168.88532 l 7.20725,-20.19293 22.34518,0.21638 22.34517,0.2164 12.14155,34.2455 c 36.65519,103.3867 53.88851,153.48934 53.18549,154.62684 -0.23828,0.38553 -9.33887,0.70097 -20.22355,0.70097 l -19.79033,0 -3.92081,-12.43438 c -6.43324,-20.40222 -8.37508,-24.97803 -10.90078,-25.68677 -2.78447,-0.78135 -63.45709,-0.80084 -66.22336,-0.0213 -1.87722,0.52903 -2.71951,2.39923 -8.44597,18.75349 -3.49846,9.99122 -6.77968,18.43542 -7.29163,18.7649 -1.62149,1.04357 -39.66098,0.75217 -39.66098,-0.3038 z m 111.80732,-71.41516 c 0.92122,-0.92124 -1.09777,-8.17624 -9.59278,-34.47036 -8.52858,-26.39803 -12.51456,-37.02677 -13.51176,-36.02956 -1.81366,1.81364 -22.27438,63.14467 -22.82889,68.42962 -0.2352,2.24156 -0.20502,2.25583 5.87888,2.77769 8.30812,0.71268 39.17969,0.16745 40.05455,-0.70739 z"
     id="path3013"
     inkscape:connector-curvature="0" />
  <path
     style="fill:#999999;fill-opacity:0;fill-rule:nonzero;stroke:none;stroke-width:1.06302166"
     d="m 167.51783,370.01683 c 0,-1.8713 21.39815,-62.88201 59.23277,-168.88532 l 7.20725,-20.19293 22.34518,0.21638 22.34517,0.2164 12.14155,34.2455 c 36.65519,103.3867 53.88851,153.48934 53.18549,154.62684 -0.23828,0.38553 -9.33887,0.70097 -20.22355,0.70097 l -19.79033,0 -3.92081,-12.43438 c -6.43324,-20.40222 -8.37508,-24.97803 -10.90078,-25.68677 -2.78447,-0.78135 -63.45709,-0.80084 -66.22336,-0.0213 -1.87722,0.52903 -2.71951,2.39923 -8.44597,18.75349 -3.49846,9.99122 -6.77968,18.43542 -7.29163,18.7649 -1.62149,1.04357 -39.66098,0.75217 -39.66098,-0.3038 z m 111.80732,-71.41516 c 0.92122,-0.92124 -1.09777,-8.17624 -9.59278,-34.47036 -8.52858,-26.39803 -12.51456,-37.02677 -13.51176,-36.02956 -1.81366,1.81364 -22.27438,63.14467 -22.82889,68.42962 -0.2352,2.24156 -0.20502,2.25583 5.87888,2.77769 8.30812,0.71268 39.17969,0.16745 40.05455,-0.70739 z"
     id="path3015"
     inkscape:connector-curvature="0" />
</svg>
