<?xml version="1.0" encoding="UTF-8" standalone="no"?>
<!-- Generator: flash2svg, http://dissentgraphics.com/tools/flash2svg -->

<svg
   xmlns:dc="http://purl.org/dc/elements/1.1/"
   xmlns:cc="http://creativecommons.org/ns#"
   xmlns:rdf="http://www.w3.org/1999/02/22-rdf-syntax-ns#"
   xmlns:svg="http://www.w3.org/2000/svg"
   xmlns="http://www.w3.org/2000/svg"
   xmlns:sodipodi="http://sodipodi.sourceforge.net/DTD/sodipodi-0.dtd"
   xmlns:inkscape="http://www.inkscape.org/namespaces/inkscape"
   id="Drive-Internal"
   version="1.1"
   style="image-rendering:optimizeSpeed"
   x="0px"
   y="0px"
   width="512"
   height="512"
   viewBox="0 0 512 512"
   enable-background="new 0 0 1024 1024"
   inkscape:version="0.91 r13725"
   sodipodi:docname="drive-optical.svg">
  <metadata
     id="metadata26">
    <rdf:RDF>
      <cc:Work
         rdf:about="">
        <dc:format>image/svg+xml</dc:format>
        <dc:type
           rdf:resource="http://purl.org/dc/dcmitype/StillImage" />
        <dc:title />
      </cc:Work>
    </rdf:RDF>
  </metadata>
  <sodipodi:namedview
     pagecolor="#ffffff"
     bordercolor="#666666"
     borderopacity="1"
     objecttolerance="10"
     gridtolerance="10"
     guidetolerance="10"
     inkscape:pageopacity="0"
     inkscape:pageshadow="2"
     inkscape:window-width="679"
     inkscape:window-height="691"
     id="namedview24"
     showgrid="false"
     inkscape:zoom="0.2917506"
     inkscape:cx="238.55238"
     inkscape:cy="765.25081"
     inkscape:window-x="683"
     inkscape:window-y="0"
     inkscape:window-maximized="0"
     inkscape:current-layer="Drive-Internal" />
  <defs
     transform="matrix(1 0 0 1 0 0) "
     id="defs3" />
  <rect
     style="opacity:1;fill:#5d6a7b;fill-opacity:1;stroke:none;stroke-width:0;stroke-linecap:butt;stroke-linejoin:miter;stroke-miterlimit:4;stroke-dasharray:none;stroke-dashoffset:0;stroke-opacity:1;image-rendering:optimizeSpeed"
     id="rect5752-11"
     width="349.00848"
     height="423.47656"
     x="81.490311"
     y="32.134033"
     ry="19.920866"
     rx="19.920866" />
  <rect
     style="opacity:1;fill:#394050;fill-opacity:1;stroke:none;stroke-width:0;stroke-linecap:butt;stroke-linejoin:miter;stroke-miterlimit:4;stroke-dasharray:none;stroke-dashoffset:0;stroke-opacity:1;image-rendering:optimizeSpeed"
     id="rect6297-3"
     width="306.52072"
     height="21.767715"
     x="102.03246"
     y="417.4169"
     ry="5.4774365"
     rx="10.647017" />
  <rect
     style="opacity:1;fill:#ebebeb;fill-opacity:1;stroke:none;stroke-width:0;stroke-linecap:butt;stroke-linejoin:miter;stroke-miterlimit:4;stroke-dasharray:none;stroke-dashoffset:0;stroke-opacity:1;image-rendering:optimizeSpeed"
     id="rect5752-1-3"
     width="349.00848"
     height="371.17096"
     x="81.501205"
     y="31"
     ry="17.460346"
     rx="19.920866" />
  <path
     id="path6-7"
     d="m 346.08728,306.66733 q 37.30851,-37.30852 37.30851,-90.08181 c 0,-35.19005 -12.42832,-65.20163 -37.30851,-90.08182 -24.8802,-24.88018 -54.89178,-37.30852 -90.08182,-37.30852 -35.19005,0 -65.20163,12.42834 -90.08182,37.30852 -24.88019,24.88019 -37.30852,54.89177 -37.30852,90.08182 0,35.19004 12.42833,65.20163 37.30852,90.08181 24.88019,24.88019 54.89177,37.30851 90.08182,37.30851 35.19004,0 65.20162,-12.42832 90.08182,-37.30851 z"
     inkscape:connector-curvature="0"
     style="fill:#f5f5f5;fill-opacity:1;stroke-width:0.47076985;image-rendering:optimizeSpeed" />
  <path
     style="fill:#3ecdf6;fill-opacity:1;fill-rule:nonzero;stroke:none;stroke-width:3.12802339"
     d="M 137.36336,424.52901 A 145.7449,145.7449 0 0 0 252.26807,481 145.7449,145.7449 0 0 0 367.24464,424.52901 l -229.88128,0 z"
     id="path5993"
     inkscape:connector-curvature="0" />
</svg>
