<?xml version="1.0" encoding="UTF-8" standalone="no"?>
<!-- Created with Inkscape (http://www.inkscape.org/) -->

<svg
   xmlns:dc="http://purl.org/dc/elements/1.1/"
   xmlns:cc="http://creativecommons.org/ns#"
   xmlns:rdf="http://www.w3.org/1999/02/22-rdf-syntax-ns#"
   xmlns:svg="http://www.w3.org/2000/svg"
   xmlns="http://www.w3.org/2000/svg"
   xmlns:sodipodi="http://sodipodi.sourceforge.net/DTD/sodipodi-0.dtd"
   xmlns:inkscape="http://www.inkscape.org/namespaces/inkscape"
   width="48"
   height="48"
   id="svg865"
   version="1.1"
   inkscape:version="0.48.5 r10040"
   sodipodi:docname="folder-younited.svg">
  <defs
     id="defs867" />
  <sodipodi:namedview
     id="base"
     pagecolor="#ffffff"
     bordercolor="#666666"
     borderopacity="1.0"
     inkscape:pageopacity="0.0"
     inkscape:pageshadow="2"
     inkscape:zoom="8"
     inkscape:cx="13.843788"
     inkscape:cy="19.087423"
     inkscape:document-units="px"
     inkscape:current-layer="folderLayer"
     showgrid="false"
     inkscape:window-width="1366"
     inkscape:window-height="707"
     inkscape:window-x="-2"
     inkscape:window-y="-3"
     inkscape:window-maximized="1"
     borderlayer="true"
     inkscape:showpageshadow="false"
     showguides="true"
     inkscape:guide-bbox="true">
    <sodipodi:guide
       position="0,39.000017"
       orientation="30,0"
       id="guide4110" />
    <sodipodi:guide
       position="30,39.000017"
       orientation="0,-30"
       id="guide4116" />
    <sodipodi:guide
       position="64.25,-19.25"
       orientation="0,18"
       id="guide4120" />
    <sodipodi:guide
       position="48,9.0000174"
       orientation="-30,0"
       id="guide4122" />
    <sodipodi:guide
       position="48,39.000017"
       orientation="0,-18"
       id="guide4124" />
    <sodipodi:guide
       position="4,41.000017"
       orientation="34,0"
       id="guide4164" />
    <sodipodi:guide
       position="22,41.000017"
       orientation="0,-18"
       id="guide4170" />
    <sodipodi:guide
       position="6,37.0002"
       orientation="27.999817,0"
       id="guide4174" />
    <sodipodi:guide
       position="64.25,-11.125"
       orientation="0,35.999992"
       id="guide4176" />
    <sodipodi:guide
       position="41.999992,9.0003836"
       orientation="-27.999817,0"
       id="guide4178" />
    <sodipodi:guide
       position="14,31.000017"
       orientation="20,0"
       id="guide4221" />
    <sodipodi:guide
       position="34,11.000017"
       orientation="-20,0"
       id="guide4225" />
    <sodipodi:guide
       position="14,31.000017"
       orientation="11,0"
       id="guide4412" />
    <sodipodi:guide
       position="25,31.000017"
       orientation="-11,0"
       id="guide4416" />
    <sodipodi:guide
       position="25,20.000017"
       orientation="9,0"
       id="guide4420" />
    <sodipodi:guide
       position="25,11.000017"
       orientation="0,9"
       id="guide4422" />
    <sodipodi:guide
       position="34,11.000017"
       orientation="-9,0"
       id="guide4424" />
    <sodipodi:guide
       position="65.25,-32.125"
       orientation="0,-9"
       id="guide4426" />
    <sodipodi:guide
       position="23.000001,35.000017"
       orientation="-1.9999999,0"
       id="guide4068" />
    <sodipodi:guide
       position="25,37.000017"
       orientation="1.9999999,0"
       id="guide4072" />
    <sodipodi:guide
       position="25,35.000017"
       orientation="0,-2"
       id="guide4074" />
    <sodipodi:guide
       orientation="0,1"
       position="-5.0900019,45.012788"
       id="guide3049" />
    <sodipodi:guide
       orientation="0,1"
       position="14,5.0286766"
       id="guide3051" />
    <sodipodi:guide
       orientation="1,0"
       position="18.481902,18.990154"
       id="guide3071" />
  </sodipodi:namedview>
  <metadata
     id="metadata870">
    <rdf:RDF>
      <cc:Work
         rdf:about="">
        <dc:format>image/svg+xml</dc:format>
        <dc:type
           rdf:resource="http://purl.org/dc/dcmitype/StillImage" />
        <dc:title></dc:title>
      </cc:Work>
    </rdf:RDF>
  </metadata>
  <g
     inkscape:groupmode="layer"
     id="folderLayer"
     inkscape:label="folder">
    <rect
       y="2.9586298"
       x="4"
       height="11.773318"
       width="18"
       id="folderTab"
       style="fill:#27ae60;fill-opacity:1;stroke:none" />
    <rect
       style="fill:#27ae60;fill-opacity:1;stroke:none"
       id="folderBackground"
       width="40"
       height="35.319954"
       x="4"
       y="5.313652" />
    <rect
       style="fill:#ffffff;fill-opacity:1;stroke:none"
       id="folderPaper"
       width="35.999992"
       height="32.965004"
       x="6"
       y="7.6680799" />
    <rect
       y="10.022959"
       x="2"
       height="32.965298"
       width="43.999996"
       id="folderFront"
       style="fill:#27ae60;fill-opacity:1;stroke:none" />
    <path
       style="color:#000000;fill:#27ae60;fill-opacity:1;fill-rule:nonzero;stroke:none;stroke-width:2;marker:none;visibility:visible;display:inline;overflow:visible;enable-background:accumulate"
       d="M 14.417277,35.266254 C 12.726767,35.192868 11.446148,35.019333 10.754422,34.769906 9.648523,34.371133 8.6820446,33.374033 8.2230099,32.158289 7.9942416,31.552401 7.904013,31.045033 7.904013,30.364527 c 0,-1.427863 0.473423,-2.601314 1.4885115,-3.689501 0.9347835,-1.0021 1.3179005,-1.133235 3.9392095,-1.348335 0.667884,-0.05481 1.284714,-0.109704 1.370729,-0.121997 l 0.156392,-0.02235 0,-1.104271 c 0,-1.612818 0.08321,-2.32781 0.386588,-3.321833 0.304836,-0.998796 0.728218,-1.772339 1.322868,-2.41695 0.694988,-0.75338 1.372807,-1.128362 2.259067,-1.249755 1.460414,-0.200036 3.227047,0.879501 3.934535,2.404277 0.334622,0.721177 0.541192,1.821044 0.633253,3.371716 0.07132,1.201387 0.0344,4.627936 -0.07376,6.844654 -0.06568,1.34611 -0.186063,2.215154 -0.372676,2.690343 -0.201496,0.513088 -0.697599,1.132894 -1.281416,1.600936 -0.402621,0.322778 -1.076143,0.720189 -1.454979,0.858507 -0.255824,0.0934 -0.874794,0.220296 -1.379286,0.282757 -0.966724,0.119692 -3.11791,0.17987 -4.415773,0.12353 z"
       id="path3814"
       inkscape:connector-curvature="0" />
    <path
       style="fill:#ffffff;fill-opacity:1"
       d="M 10.485979,35.385106 C 8.764951,34.489903 7.7097772,32.859773 7.5102329,30.78789 7.165724,27.210852 9.2983123,24.558144 12.520946,24.555096 l 1.67327,-0.0017 0.159562,-2.251841 c 0.09205,-1.299062 0.455337,-2.725969 0.858607,-3.37241 1.475718,-2.365583 4.458228,-3.088134 6.559052,-1.589011 1.959282,1.398119 2.278165,2.666919 2.278165,9.064618 0,5.580122 -0.02109,5.732443 -0.977778,7.063057 -0.537779,0.747966 -1.509133,1.619768 -2.158562,1.937333 -1.576599,0.770947 -8.933725,0.756724 -10.427283,-0.02015 z m 9.61182,-0.674074 c 0.711037,-0.231161 1.687618,-0.911593 2.170179,-1.512071 0.806681,-1.003796 0.887336,-1.489002 1.000912,-6.021181 0.151414,-6.041999 -0.217539,-7.733711 -1.961827,-8.995358 -3.023274,-2.186729 -6.299876,0.653057 -6.299876,5.460015 l 0,1.655926 -2.187559,0.185182 c -1.831613,0.155055 -2.36308,0.390601 -3.2662469,1.447594 -2.1682446,2.537549 -1.4002401,6.487816 1.4876689,7.651895 1.538082,0.61998 7.293269,0.701318 9.056749,0.127998 z"
       id="path2996"
       inkscape:connector-curvature="0"
       sodipodi:nodetypes="csccssssssccssssscssss" />
    <path
       inkscape:connector-curvature="0"
       id="path3828"
       d="m 33.582724,35.483039 c 1.69051,-0.07339 2.971129,-0.246921 3.662855,-0.496348 1.105899,-0.398773 2.072377,-1.395872 2.531412,-2.611616 0.228768,-0.605888 0.318997,-1.113256 0.318997,-1.793762 0,-1.427863 -0.473423,-2.601315 -1.488512,-3.689502 -0.934783,-1.0021 -1.3179,-1.133235 -3.939209,-1.348334 -0.667885,-0.05481 -1.284714,-0.109704 -1.370729,-0.121998 l -0.156392,-0.02235 0,-1.104271 c 0,-1.612817 -0.08321,-2.327809 -0.386588,-3.321832 -0.304836,-0.998797 -0.728219,-1.772339 -1.322868,-2.416951 -0.694988,-0.75338 -1.372808,-1.128362 -2.259067,-1.249754 -1.460414,-0.200037 -3.227047,0.8795 -3.934535,2.404276 -0.334622,0.721177 -0.541192,1.821044 -0.633253,3.371717 -0.07133,1.201387 -0.0344,4.627936 0.07376,6.844653 0.06568,1.34611 0.186062,2.215154 0.372676,2.690343 0.201496,0.513089 0.697599,1.132894 1.281416,1.600937 0.40262,0.322778 1.076143,0.720188 1.454978,0.858507 0.255825,0.0934 0.874794,0.220295 1.379287,0.282757 0.966724,0.119691 3.11791,0.179869 4.415773,0.123529 z"
       style="color:#000000;fill:#27ae60;fill-opacity:1;fill-rule:nonzero;stroke:none;stroke-width:2;marker:none;visibility:visible;display:inline;overflow:visible;enable-background:accumulate" />
    <path
       sodipodi:nodetypes="csccssssssccssssscssss"
       inkscape:connector-curvature="0"
       id="path3830"
       d="m 37.514022,35.601891 c 1.721028,-0.895202 2.776201,-2.525332 2.975746,-4.597216 0.344509,-3.577037 -1.788079,-6.229746 -5.010713,-6.232793 l -1.67327,-0.0017 -0.159562,-2.251841 c -0.09205,-1.299062 -0.455337,-2.725969 -0.858607,-3.37241 -1.475719,-2.365583 -4.458229,-3.088133 -6.559052,-1.58901 -1.959282,1.398118 -2.278165,2.666918 -2.278165,9.064617 0,5.580122 0.02109,5.732443 0.977778,7.063058 0.537778,0.747965 1.509132,1.619768 2.158562,1.937333 1.576599,0.770946 8.933724,0.756723 10.427283,-0.02015 z m -9.61182,-0.674074 c -0.711038,-0.23116 -1.687618,-0.911592 -2.170179,-1.512071 -0.806681,-1.003796 -0.887336,-1.489001 -1.000912,-6.021181 -0.151414,-6.041999 0.217538,-7.733711 1.961827,-8.995357 3.023274,-2.18673 6.299876,0.653057 6.299876,5.460014 l 0,1.655926 2.187559,0.185182 c 1.831613,0.155056 2.36308,0.390602 3.266247,1.447594 2.168244,2.537549 1.40024,6.487816 -1.487669,7.651895 -1.538082,0.619981 -7.293269,0.701318 -9.056749,0.127998 z"
       style="fill:#ffffff;fill-opacity:1" />
  </g>
</svg>
