<?xml version="1.0" encoding="UTF-8" standalone="no"?>
<!-- Created with Inkscape (http://www.inkscape.org/) -->

<svg
   xmlns:dc="http://purl.org/dc/elements/1.1/"
   xmlns:cc="http://creativecommons.org/ns#"
   xmlns:rdf="http://www.w3.org/1999/02/22-rdf-syntax-ns#"
   xmlns:svg="http://www.w3.org/2000/svg"
   xmlns="http://www.w3.org/2000/svg"
   xmlns:sodipodi="http://sodipodi.sourceforge.net/DTD/sodipodi-0.dtd"
   xmlns:inkscape="http://www.inkscape.org/namespaces/inkscape"
   width="48"
   height="48"
   id="svg3022"
   version="1.1"
   inkscape:version="0.48.5 r10040"
   sodipodi:docname="network-server-database.svg">
  <defs
     id="defs3024" />
  <sodipodi:namedview
     id="base"
     pagecolor="#ffffff"
     bordercolor="#666666"
     borderopacity="1.0"
     inkscape:pageopacity="0.0"
     inkscape:pageshadow="2"
     inkscape:zoom="8.0343727"
     inkscape:cx="6.6232663"
     inkscape:cy="23.859039"
     inkscape:document-units="px"
     inkscape:current-layer="g3015"
     showgrid="false"
     inkscape:window-width="1366"
     inkscape:window-height="712"
     inkscape:window-x="-2"
     inkscape:window-y="-3"
     inkscape:window-maximized="1">
    <sodipodi:guide
       position="11,41.000017"
       orientation="34,0"
       id="guide3359" />
    <sodipodi:guide
       position="11,7.0000174"
       orientation="0,26"
       id="guide3361" />
    <sodipodi:guide
       position="37,7.0000174"
       orientation="-34,0"
       id="guide3363" />
    <sodipodi:guide
       position="37,41.000017"
       orientation="0,-26"
       id="guide3365" />
  </sodipodi:namedview>
  <metadata
     id="metadata3027">
    <rdf:RDF>
      <cc:Work
         rdf:about="">
        <dc:format>image/svg+xml</dc:format>
        <dc:type
           rdf:resource="http://purl.org/dc/dcmitype/StillImage" />
        <dc:title />
      </cc:Work>
    </rdf:RDF>
  </metadata>
  <g
     inkscape:label="Capa 1"
     inkscape:groupmode="layer"
     id="layer1"
     transform="translate(0,-1004.3622)">
    <path
       sodipodi:type="arc"
       style="fill:none;fill-opacity:1;fill-rule:evenodd;stroke:none"
       id="path3265"
       sodipodi:cx="23.997576"
       sodipodi:cy="1048.8622"
       sodipodi:rx="3.502425"
       sodipodi:ry="3.5001078"
       d="m 27.500001,1048.8622 c 0,1.933 -1.568089,3.5001 -3.502425,3.5001 -1.934336,0 -3.502425,-1.5671 -3.502425,-3.5001 0,-1.9331 1.568089,-3.5001 3.502425,-3.5001 1.934336,0 3.502425,1.567 3.502425,3.5001 z" />
    <path
       d="m 27.500001,1007.8622 c 0,1.933 -1.568089,3.5001 -3.502425,3.5001 -1.934336,0 -3.502425,-1.5671 -3.502425,-3.5001 0,-1.9331 1.568089,-3.5001 3.502425,-3.5001 1.934336,0 3.502425,1.567 3.502425,3.5001 z"
       sodipodi:ry="3.5001078"
       sodipodi:rx="3.502425"
       sodipodi:cy="1007.8622"
       sodipodi:cx="23.997576"
       id="path3267"
       style="fill:none;fill-opacity:1;fill-rule:evenodd;stroke:none"
       sodipodi:type="arc" />
    <path
       sodipodi:type="arc"
       style="fill:none;fill-opacity:1;fill-rule:evenodd;stroke:none"
       id="path3269"
       sodipodi:cx="5.4961891"
       sodipodi:cy="1028.3622"
       sodipodi:rx="5.5038109"
       sodipodi:ry="5.5001693"
       d="m 11,1028.3622 c 0,3.0376 -2.4641401,5.5002 -5.5038109,5.5002 -3.0396708,0 -5.50381087,-2.4626 -5.50381087,-5.5002 0,-3.0377 2.46414007,-5.5002 5.50381087,-5.5002 3.0396708,0 5.5038109,2.4625 5.5038109,5.5002 z" />
    <path
       d="m 48,1028.3622 c 0,3.0376 -2.46414,5.5002 -5.503811,5.5002 -3.039671,0 -5.503811,-2.4626 -5.503811,-5.5002 0,-3.0377 2.46414,-5.5002 5.503811,-5.5002 3.039671,0 5.503811,2.4625 5.503811,5.5002 z"
       sodipodi:ry="5.5001693"
       sodipodi:rx="5.5038109"
       sodipodi:cy="1028.3622"
       sodipodi:cx="42.496189"
       id="path3271"
       style="fill:none;fill-opacity:1;fill-rule:evenodd;stroke:none"
       sodipodi:type="arc" />
    <path
       d="m 27.500001,1048.8622 c 0,1.933 -1.568089,3.5001 -3.502425,3.5001 -1.934336,0 -3.502425,-1.5671 -3.502425,-3.5001 0,-1.9331 1.568089,-3.5001 3.502425,-3.5001 1.934336,0 3.502425,1.567 3.502425,3.5001 z"
       sodipodi:ry="3.5001078"
       sodipodi:rx="3.502425"
       sodipodi:cy="1048.8622"
       sodipodi:cx="23.997576"
       id="path3293"
       style="fill:none;fill-opacity:1;fill-rule:evenodd;stroke:none"
       sodipodi:type="arc" />
    <path
       sodipodi:type="arc"
       style="fill:none;fill-opacity:1;fill-rule:evenodd;stroke:none"
       id="path3295"
       sodipodi:cx="23.997576"
       sodipodi:cy="1007.8622"
       sodipodi:rx="3.502425"
       sodipodi:ry="3.5001078"
       d="m 27.500001,1007.8622 c 0,1.933 -1.568089,3.5001 -3.502425,3.5001 -1.934336,0 -3.502425,-1.5671 -3.502425,-3.5001 0,-1.9331 1.568089,-3.5001 3.502425,-3.5001 1.934336,0 3.502425,1.567 3.502425,3.5001 z" />
    <path
       d="m 11,1028.3622 c 0,3.0376 -2.4641401,5.5002 -5.5038109,5.5002 -3.0396708,0 -5.50381087,-2.4626 -5.50381087,-5.5002 0,-3.0377 2.46414007,-5.5002 5.50381087,-5.5002 3.0396708,0 5.5038109,2.4625 5.5038109,5.5002 z"
       sodipodi:ry="5.5001693"
       sodipodi:rx="5.5038109"
       sodipodi:cy="1028.3622"
       sodipodi:cx="5.4961891"
       id="path3297"
       style="fill:none;fill-opacity:1;fill-rule:evenodd;stroke:none"
       sodipodi:type="arc" />
    <path
       sodipodi:type="arc"
       style="fill:none;fill-opacity:1;fill-rule:evenodd;stroke:none"
       id="path3299"
       sodipodi:cx="42.496189"
       sodipodi:cy="1028.3622"
       sodipodi:rx="5.5038109"
       sodipodi:ry="5.5001693"
       d="m 48,1028.3622 c 0,3.0376 -2.46414,5.5002 -5.503811,5.5002 -3.039671,0 -5.503811,-2.4626 -5.503811,-5.5002 0,-3.0377 2.46414,-5.5002 5.503811,-5.5002 3.039671,0 5.503811,2.4625 5.503811,5.5002 z" />
    <g
       id="g3015"
       transform="matrix(1.686369,0,0,1.9525138,-7.7060693,972.74554)">
      <rect
         style="fill:#4d4d4d;fill-rule:evenodd;stroke:#003bc3;stroke-width:0;stroke-linecap:square;stroke-linejoin:miter;stroke-miterlimit:2"
         y="35.46471"
         x="10.580257"
         height="1.7183038"
         width="16.32048"
         stroke-miterlimit="2.00000000000"
         id="shape1" />
      <rect
         style="fill:#4d4d4d;fill-rule:evenodd;stroke:#003bc3;stroke-width:0;stroke-linecap:square;stroke-linejoin:miter;stroke-miterlimit:2"
         y="-19.854296"
         x="29.893166"
         height="2.1410315"
         width="7.2637377"
         stroke-miterlimit="2.00000000000"
         transform="matrix(0,1,-1,0,0,0)"
         id="shape2" />
      <rect
         style="fill:#278a49;fill-rule:evenodd;stroke:#003bc3;stroke-width:0;stroke-linecap:square;stroke-linejoin:miter;stroke-miterlimit:2;fill-opacity:1"
         y="19.819849"
         x="18.769802"
         height="4.0703735"
         width="7.79809"
         stroke-miterlimit="2.00000000000"
         id="shape11" />
      <rect
         style="fill:#278a49;fill-rule:evenodd;stroke:#003bc3;stroke-width:0;stroke-linecap:square;stroke-linejoin:miter;stroke-miterlimit:2;fill-opacity:1"
         y="24.399019"
         x="18.769802"
         height="4.0703735"
         width="7.79809"
         stroke-miterlimit="2.00000000000"
         id="shape21" />
      <rect
         style="fill:#278a49;fill-rule:evenodd;stroke:#003bc3;stroke-width:0;stroke-linecap:square;stroke-linejoin:miter;stroke-miterlimit:2;fill-opacity:1"
         y="28.978189"
         x="18.769802"
         height="4.0703735"
         width="7.79809"
         stroke-miterlimit="2.00000000000"
         id="shape3" />
      <rect
         style="fill:#27ae60;fill-rule:evenodd;stroke:#003bc3;stroke-width:0;stroke-linecap:square;stroke-linejoin:miter;stroke-miterlimit:2;fill-opacity:1"
         y="19.819931"
         x="11.009444"
         height="4.0703754"
         width="7.7851276"
         stroke-miterlimit="2.00000000000"
         id="rect15" />
      <rect
         style="fill:#27ae60;fill-rule:evenodd;stroke:#003bc3;stroke-width:0;stroke-linecap:square;stroke-linejoin:miter;stroke-miterlimit:2;fill-opacity:1"
         y="24.399183"
         x="11.009444"
         height="4.0703754"
         width="7.7851276"
         stroke-miterlimit="2.00000000000"
         id="rect17" />
      <rect
         style="fill:#27ae60;fill-rule:evenodd;stroke:#003bc3;stroke-width:0;stroke-linecap:square;stroke-linejoin:miter;stroke-miterlimit:2;fill-opacity:1"
         y="28.978271"
         x="11.009444"
         height="4.0703754"
         width="7.7851276"
         stroke-miterlimit="2.00000000000"
         id="shape31" />
      <rect
         style="fill:#ecf0f1;fill-opacity:0.8745098;fill-rule:evenodd;stroke:#003bc3;stroke-width:0;stroke-linecap:square;stroke-linejoin:miter;stroke-miterlimit:2"
         y="20.430439"
         x="11.546803"
         height="2.4381588"
         width="1.2426618"
         stroke-miterlimit="2.00000000000"
         id="shape4" />
      <rect
         style="fill:#ecf0f1;fill-opacity:0.8745098;fill-rule:evenodd;stroke:#003bc3;stroke-width:0;stroke-linecap:square;stroke-linejoin:miter;stroke-miterlimit:2"
         y="25.009609"
         x="11.546803"
         height="2.4381588"
         width="1.2426618"
         stroke-miterlimit="2.00000000000"
         id="shape5" />
      <rect
         style="fill:#ecf0f1;fill-opacity:0.8745098;fill-rule:evenodd;stroke:#003bc3;stroke-width:0;stroke-linecap:square;stroke-linejoin:miter;stroke-miterlimit:2"
         y="29.588779"
         x="11.580665"
         height="2.4381588"
         width="1.2426618"
         stroke-miterlimit="2.00000000000"
         id="shape6" />
    </g>
  </g>
</svg>
