<?xml version="1.0" encoding="UTF-8" standalone="no"?>
<!-- Created with Inkscape (http://www.inkscape.org/) -->

<svg
   xmlns:dc="http://purl.org/dc/elements/1.1/"
   xmlns:cc="http://creativecommons.org/ns#"
   xmlns:rdf="http://www.w3.org/1999/02/22-rdf-syntax-ns#"
   xmlns:svg="http://www.w3.org/2000/svg"
   xmlns="http://www.w3.org/2000/svg"
   xmlns:sodipodi="http://sodipodi.sourceforge.net/DTD/sodipodi-0.dtd"
   xmlns:inkscape="http://www.inkscape.org/namespaces/inkscape"
   width="16"
   height="16"
   id="svg3049"
   version="1.1"
   inkscape:version="0.91 r13725"
   sodipodi:docname="bitmap-trace.svg"
   inkscape:export-filename="/home/uri/.kde/share/icons/NITRUX-KDE/16x16/actions/view-right-new.png"
   inkscape:export-xdpi="30"
   inkscape:export-ydpi="30">
  <sodipodi:namedview
     id="base"
     pagecolor="#ffffff"
     bordercolor="#ffffff"
     borderopacity="1.0"
     inkscape:pageopacity="0.0"
     inkscape:pageshadow="2"
     inkscape:zoom="32"
     inkscape:cx="4.4783916"
     inkscape:cy="3.6195443"
     inkscape:document-units="px"
     inkscape:current-layer="layer1"
     showgrid="true"
     fit-margin-top="0"
     fit-margin-left="0"
     fit-margin-right="0"
     fit-margin-bottom="0"
     inkscape:window-width="1920"
     inkscape:window-height="1002"
     inkscape:window-x="0"
     inkscape:window-y="26"
     inkscape:window-maximized="1"
     inkscape:showpageshadow="false"
     borderlayer="true"
     inkscape:snap-bbox="true"
     inkscape:snap-global="true">
    <inkscape:grid
       id="grid4085"
       type="xygrid" />
    <sodipodi:guide
       id="guide4075"
       orientation="12,0"
       position="2.0000044,14.00003" />
    <sodipodi:guide
       id="guide4077"
       orientation="0,12"
       position="2.0000044,2.0000296" />
    <sodipodi:guide
       id="guide4079"
       orientation="-12,0"
       position="14.000004,2.0000296" />
    <sodipodi:guide
       id="guide4081"
       orientation="0,-12"
       position="14.000004,14.00003" />
  </sodipodi:namedview>
  <defs
     id="defs3051" />
  <metadata
     id="metadata3054">
    <rdf:RDF>
      <cc:Work
         rdf:about="">
        <dc:format>image/svg+xml</dc:format>
        <dc:type
           rdf:resource="http://purl.org/dc/dcmitype/StillImage" />
        <dc:title />
      </cc:Work>
    </rdf:RDF>
  </metadata>
  <g
     transform="translate(-421.71429,-531.79074)"
     id="layer1"
     inkscape:groupmode="layer"
     inkscape:label="Capa 1">
    <rect
       y="534.79071"
       x="404.71429"
       height="10.999983"
       width="0"
       id="rect4035"
       style="fill:#d6d0cb;fill-opacity:1;stroke:none" />
    <rect
       y="532.73938"
       x="422.75507"
       height="10.999983"
       width="0"
       id="rect4035-5"
       style="fill:#d6d0cb;fill-opacity:1;stroke:none" />
    <rect
       y="534.79071"
       x="404.71429"
       height="10.999983"
       width="0"
       id="rect4035-8"
       style="fill:#d6d0cb;fill-opacity:1;stroke:none" />
    <rect
       y="534.79071"
       x="404.71429"
       height="10.999983"
       width="0"
       id="rect4035-59"
       style="fill:#d6d0cb;fill-opacity:1;stroke:none" />
    <text
       xml:space="preserve"
       style="font-style:normal;font-weight:normal;font-size:9px;line-height:125%;font-family:Sans;letter-spacing:0px;word-spacing:0px;fill:#ffffff;fill-opacity:1;stroke:none"
       x="420.15027"
       y="547.54797"
       id="text3781"
       sodipodi:linespacing="125%"><tspan
         y="547.54797"
         x="420.15027"
         sodipodi:role="line"
         id="tspan3783" /></text>
    <text
       xml:space="preserve"
       style="font-style:normal;font-weight:normal;font-size:9px;line-height:125%;font-family:Sans;letter-spacing:0px;word-spacing:0px;fill:#ffffff;fill-opacity:1;stroke:none"
       x="420.88696"
       y="541.68463"
       id="text3781-8"
       sodipodi:linespacing="125%"><tspan
         y="541.68463"
         x="420.88696"
         sodipodi:role="line"
         id="tspan3783-1" /></text>
    <path
       id="rect4082"
       d="m 423.71429,533.79074 0,11.28125 0,0.71875 5,0 0,-1 0,-1 1,-1 1,-1 1,-1 1,-1 0.5,-0.5 -0.5,-0.5 -3.34375,3.34375 -1.34375,-1.34375 -0.0312,0 -3.28125,3.28125 0,-9.28125 10,0 0,5 1,0 0,-6 -12,0 z m 4,2 c -1.10457,0 -2,0.89543 -2,2 0,1.10457 0.89543,2 2,2 1.10457,0 2,-0.89543 2,-2 0,-1.10457 -0.89543,-2 -2,-2 z"
       style="fill:#d6d0cb;fill-opacity:1;stroke:none"
       inkscape:connector-curvature="0" />
    <text
       xml:space="preserve"
       style="font-style:normal;font-weight:normal;font-size:9px;line-height:125%;font-family:Sans;letter-spacing:0px;word-spacing:0px;fill:#ffffff;fill-opacity:1;stroke:none"
       x="414.15027"
       y="548.54797"
       id="text3781-4"
       sodipodi:linespacing="125%"><tspan
         y="548.54797"
         x="414.15027"
         sodipodi:role="line"
         id="tspan3783-13" /></text>
    <path
       inkscape:connector-curvature="0"
       style="fill:#d6d0cb;fill-opacity:1;stroke:none"
       d="m 433.71429,539.79075 -1,0.99998 -1,1.00004 -2,1.99995 0,1.00005 0,0.99997 2,0 0.59375,-0.59378 0.40625,-0.40619 1,-1.00005 1,-0.99997 1,-0.99998 -2,-2.00002 z m -0.3125,1.6875 0.59375,0.59377 -0.28125,0.28125 -1.40625,1.40625 0,0.0315 -1.28125,1.28129 -0.59375,-0.59377 1.875,-1.90627 1.09375,-1.09372 z"
       id="rect4126-8" />
  </g>
</svg>
