<?xml version="1.0" encoding="UTF-8" standalone="no"?>
<!-- Created with Inkscape (http://www.inkscape.org/) -->

<svg
   xmlns:dc="http://purl.org/dc/elements/1.1/"
   xmlns:cc="http://creativecommons.org/ns#"
   xmlns:rdf="http://www.w3.org/1999/02/22-rdf-syntax-ns#"
   xmlns:svg="http://www.w3.org/2000/svg"
   xmlns="http://www.w3.org/2000/svg"
   xmlns:sodipodi="http://sodipodi.sourceforge.net/DTD/sodipodi-0.dtd"
   xmlns:inkscape="http://www.inkscape.org/namespaces/inkscape"
   width="22"
   height="22"
   id="svg3760"
   version="1.1"
   inkscape:version="0.91 r13725"
   sodipodi:docname="cartesian-plot-two-axes-centered.svg">
  <sodipodi:namedview
     id="base"
     pagecolor="#ffffff"
     bordercolor="#ffffff"
     borderopacity="1.0"
     inkscape:pageopacity="0.0"
     inkscape:pageshadow="2"
     inkscape:zoom="22.627417"
     inkscape:cx="3.9272431"
     inkscape:cy="15.473977"
     inkscape:document-units="px"
     inkscape:current-layer="layer1"
     showgrid="true"
     fit-margin-top="0"
     fit-margin-left="0"
     fit-margin-right="0"
     fit-margin-bottom="0"
     inkscape:window-width="1920"
     inkscape:window-height="1002"
     inkscape:window-x="0"
     inkscape:window-y="26"
     inkscape:window-maximized="1"
     inkscape:showpageshadow="false"
     showguides="true"
     inkscape:snap-bbox="true">
    <inkscape:grid
       originy="-1.0000252px"
       originx="-0.99998557px"
       id="grid4106"
       type="xygrid" />
    <sodipodi:guide
       id="guide4229"
       orientation="0,18"
       position="2.00001,19.99997" />
    <sodipodi:guide
       id="guide4231"
       orientation="18,0"
       position="20.00001,19.99997" />
    <sodipodi:guide
       id="guide4233"
       orientation="0,-18"
       position="20.00001,1.99997" />
    <sodipodi:guide
       id="guide4235"
       orientation="-18,0"
       position="2.00001,1.99997" />
    <sodipodi:guide
       id="guide4237"
       orientation="0,16"
       position="3.00001,18.99997" />
    <sodipodi:guide
       id="guide4239"
       orientation="16,0"
       position="19.00001,18.99997" />
    <sodipodi:guide
       id="guide4241"
       orientation="0,-16"
       position="19.00001,2.99997" />
    <sodipodi:guide
       id="guide4243"
       orientation="-16,0"
       position="3.00001,2.99997" />
  </sodipodi:namedview>
  <defs
     id="defs3762" />
  <metadata
     id="metadata3765">
    <rdf:RDF>
      <cc:Work
         rdf:about="">
        <dc:format>image/svg+xml</dc:format>
        <dc:type
           rdf:resource="http://purl.org/dc/dcmitype/StillImage" />
        <dc:title />
      </cc:Work>
    </rdf:RDF>
  </metadata>
  <g
     transform="translate(-551.28571,-607.64788)"
     id="layer1"
     inkscape:groupmode="layer"
     inkscape:label="Capa 1">
    <path
       id="rect3764"
       transform="translate(551.28571,607.64788)"
       d="M 10.5 3 L 10.5 10.5 L 3 10.5 L 3 11.5 L 10.5 11.5 L 10.5 14.783203 L 6.9882812 18 L 3 18 L 3 19 L 7 19 L 7.3769531 19 L 10.5 16.138672 L 10.5 19 L 11.5 19 L 11.5 15.222656 L 15 12.017578 L 15 11.5 L 19 11.5 L 19 10.5 L 15 10.5 L 15 9.4609375 L 18.994141 6 L 19 6 L 19 5.9941406 L 19 4.671875 L 19 3 L 18 3 L 18 5.5390625 L 14.003906 9 L 14 9 L 14 9.0039062 L 14 10.328125 L 14 10.5 L 11.5 10.5 L 11.5 3 L 10.5 3 z M 11.5 11.5 L 14 11.5 L 14 11.578125 L 11.5 13.867188 L 11.5 11.5 z "
       style="fill:#e7ded7;fill-opacity:1;stroke:none" />
  </g>
</svg>
