<?xml version="1.0" encoding="UTF-8" standalone="no"?>
<!-- Created with Inkscape (http://www.inkscape.org/) -->

<svg
   xmlns:dc="http://purl.org/dc/elements/1.1/"
   xmlns:cc="http://creativecommons.org/ns#"
   xmlns:rdf="http://www.w3.org/1999/02/22-rdf-syntax-ns#"
   xmlns:svg="http://www.w3.org/2000/svg"
   xmlns="http://www.w3.org/2000/svg"
   xmlns:sodipodi="http://sodipodi.sourceforge.net/DTD/sodipodi-0.dtd"
   xmlns:inkscape="http://www.inkscape.org/namespaces/inkscape"
   width="22"
   height="22"
   id="svg3760"
   version="1.1"
   inkscape:version="0.91 r13725"
   sodipodi:docname="cartesian-plot-two-axes.svg">
  <sodipodi:namedview
     id="base"
     pagecolor="#ffffff"
     bordercolor="#ffffff"
     borderopacity="1.0"
     inkscape:pageopacity="0.0"
     inkscape:pageshadow="2"
     inkscape:zoom="24.50705"
     inkscape:cx="1.9045433"
     inkscape:cy="11.043515"
     inkscape:document-units="px"
     inkscape:current-layer="layer1"
     showgrid="true"
     fit-margin-top="0"
     fit-margin-left="0"
     fit-margin-right="0"
     fit-margin-bottom="0"
     inkscape:window-width="1920"
     inkscape:window-height="1002"
     inkscape:window-x="0"
     inkscape:window-y="26"
     inkscape:window-maximized="1"
     inkscape:showpageshadow="false"
     showguides="true">
    <inkscape:grid
       originy="-1.0000252px"
       originx="-0.99998557px"
       id="grid4106"
       type="xygrid" />
    <sodipodi:guide
       id="guide4229"
       orientation="0,18"
       position="2.00001,19.99997" />
    <sodipodi:guide
       id="guide4231"
       orientation="18,0"
       position="20.00001,19.99997" />
    <sodipodi:guide
       id="guide4233"
       orientation="0,-18"
       position="20.00001,1.99997" />
    <sodipodi:guide
       id="guide4235"
       orientation="-18,0"
       position="2.00001,1.99997" />
    <sodipodi:guide
       id="guide4237"
       orientation="0,16"
       position="3.00001,18.99997" />
    <sodipodi:guide
       id="guide4239"
       orientation="16,0"
       position="19.00001,18.99997" />
    <sodipodi:guide
       id="guide4241"
       orientation="0,-16"
       position="19.00001,2.99997" />
    <sodipodi:guide
       id="guide4243"
       orientation="-16,0"
       position="3.00001,2.99997" />
    <sodipodi:guide
       id="guide4185"
       orientation="0.70710678,0.70710678"
       position="9.3000344,11.707075" />
    <sodipodi:guide
       id="guide4189"
       orientation="-0.70710678,-0.70710678"
       position="19.199543,20.19237" />
    <sodipodi:guide
       id="guide4193"
       orientation="-0.70710678,0.70710678"
       position="5.0000144,16.007095" />
    <sodipodi:guide
       id="guide4197"
       orientation="0.70710678,-0.70710678"
       position="18.69944,11.707191" />
  </sodipodi:namedview>
  <defs
     id="defs3762" />
  <metadata
     id="metadata3765">
    <rdf:RDF>
      <cc:Work
         rdf:about="">
        <dc:format>image/svg+xml</dc:format>
        <dc:type
           rdf:resource="http://purl.org/dc/dcmitype/StillImage" />
        <dc:title />
      </cc:Work>
    </rdf:RDF>
  </metadata>
  <g
     transform="translate(-551.28571,-607.64788)"
     id="layer1"
     inkscape:groupmode="layer"
     inkscape:label="Capa 1">
    <path
       id="rect3003"
       transform="translate(551.28571,607.64788)"
       d="M 4 3 L 4 9 L 4 10 L 4 12 L 4 13 L 4 17 L 3 17 L 3 18 L 4 18 L 4 19 L 5 19 L 5 18 L 17.71875 18 L 19 18 L 19 17.84375 L 19 17 L 18.15625 17 L 17.96875 16.8125 L 17.125 16 L 15.84375 14.6875 L 15.125 14 L 13 16.09375 L 11.6875 14.8125 L 10.875 14 L 8.875 12 L 7 12 L 6 12 L 5 12 L 5 10 L 6 10 L 7 10 L 8.875 10 L 10.875 8 L 11.6875 7.15625 L 13 5.875 L 15.125 8 L 17.125 6 L 17.96875 5.15625 L 19 4.125 L 19 3.90625 L 18.78125 3.90625 L 18.28125 3.4375 L 17.25 4.46875 L 16.4375 5.28125 L 15.125 6.59375 L 13 4.46875 L 11.46875 6 L 11 6.46875 L 10.15625 7.28125 L 8.46875 9 L 7 9 L 6 9 L 5 9 L 5 3 L 4 3 z M 5 13 L 6 13 L 7 13 L 8.46875 13 L 10.15625 14.6875 L 11 15.53125 L 11.46875 16 L 12.46875 17 L 5 17 L 5 13 z M 15.125 15.40625 L 16.4375 16.6875 L 16.732422 17 L 13.53125 17 L 15.125 15.40625 z "
       style="fill:#e7ded7;fill-opacity:1;stroke:none" />
  </g>
</svg>
