<?xml version="1.0" encoding="UTF-8" standalone="no"?>
<!-- Created with Inkscape (http://www.inkscape.org/) -->

<svg
   xmlns:dc="http://purl.org/dc/elements/1.1/"
   xmlns:cc="http://creativecommons.org/ns#"
   xmlns:rdf="http://www.w3.org/1999/02/22-rdf-syntax-ns#"
   xmlns:svg="http://www.w3.org/2000/svg"
   xmlns="http://www.w3.org/2000/svg"
   xmlns:sodipodi="http://sodipodi.sourceforge.net/DTD/sodipodi-0.dtd"
   xmlns:inkscape="http://www.inkscape.org/namespaces/inkscape"
   width="22"
   height="22"
   id="svg3813"
   version="1.1"
   inkscape:version="0.91 r13725"
   sodipodi:docname="code-typedef.svg">
  <sodipodi:namedview
     id="base"
     pagecolor="#ffffff"
     bordercolor="#ffffff"
     borderopacity="1.0"
     inkscape:pageopacity="0.0"
     inkscape:pageshadow="2"
     inkscape:zoom="12.462573"
     inkscape:cx="-8.5324075"
     inkscape:cy="3.9275089"
     inkscape:document-units="px"
     inkscape:current-layer="layer1"
     showgrid="true"
     fit-margin-top="0"
     fit-margin-left="0"
     fit-margin-right="0"
     fit-margin-bottom="0"
     inkscape:window-width="1920"
     inkscape:window-height="1002"
     inkscape:window-x="0"
     inkscape:window-y="26"
     inkscape:window-maximized="1"
     inkscape:showpageshadow="false"
     showguides="true">
    <inkscape:grid
       id="grid4109"
       type="xygrid" />
    <sodipodi:guide
       id="guide4115"
       orientation="18,0"
       position="2.0000072,19.999993" />
    <sodipodi:guide
       id="guide4117"
       orientation="0,18"
       position="2.0000072,1.9999929" />
    <sodipodi:guide
       id="guide4119"
       orientation="-18,0"
       position="20.000007,1.9999929" />
    <sodipodi:guide
       id="guide4121"
       orientation="0,-18"
       position="20.000007,19.999993" />
    <sodipodi:guide
       id="guide4123"
       orientation="16,0"
       position="3.0000072,18.999993" />
    <sodipodi:guide
       id="guide4125"
       orientation="0,16"
       position="3.0000072,2.9999929" />
    <sodipodi:guide
       id="guide4127"
       orientation="-16,0"
       position="19.000007,2.9999929" />
    <sodipodi:guide
       id="guide4129"
       orientation="0,-16"
       position="19.000007,18.999993" />
  </sodipodi:namedview>
  <defs
     id="defs3815" />
  <metadata
     id="metadata3818">
    <rdf:RDF>
      <cc:Work
         rdf:about="">
        <dc:format>image/svg+xml</dc:format>
        <dc:type
           rdf:resource="http://purl.org/dc/dcmitype/StillImage" />
        <dc:title />
      </cc:Work>
    </rdf:RDF>
  </metadata>
  <g
     transform="translate(-378.85714,-540.07647)"
     id="layer1"
     inkscape:groupmode="layer"
     inkscape:label="Capa 1">
    <path
       id="rect4108"
       transform="translate(378.85714,540.07647)"
       d="M 5 3 C 3.892 3 3 3.892 3 5 C 3 6.108 3.892 7 5 7 L 5 10 L 3 10 L 3 11 L 3 17 L 3 18 L 5 18 L 5 19 L 19 19 L 19 16 L 5 16 L 5 17 L 4 17 L 4 11 L 5 11 L 5 13.652344 L 19 13.652344 L 19 5 L 7 5 C 7 3.892 6.108 3 5 3 z M 5 4 C 5.554 4 6 4.446 6 5 C 6 5.554 5.554 6 5 6 C 4.446 6 4 5.554 4 5 C 4 4.446 4.446 4 5 4 z M 6 6 L 18 6 L 18 13 L 6 13 L 6 6 z "
       style="opacity:1;fill:#e7ded7;fill-opacity:1;stroke:none" />
  </g>
</svg>
