<?xml version="1.0" encoding="UTF-8" standalone="no"?>
<!-- Created with Inkscape (http://www.inkscape.org/) -->

<svg
   xmlns:dc="http://purl.org/dc/elements/1.1/"
   xmlns:cc="http://creativecommons.org/ns#"
   xmlns:rdf="http://www.w3.org/1999/02/22-rdf-syntax-ns#"
   xmlns:svg="http://www.w3.org/2000/svg"
   xmlns="http://www.w3.org/2000/svg"
   xmlns:sodipodi="http://sodipodi.sourceforge.net/DTD/sodipodi-0.dtd"
   xmlns:inkscape="http://www.inkscape.org/namespaces/inkscape"
   sodipodi:docname="debug-step-into-instruction.svg"
   inkscape:version="0.91 r13725"
   version="1.1"
   id="svg3813"
   height="22"
   width="22">
  <sodipodi:namedview
     inkscape:showpageshadow="false"
     inkscape:window-maximized="1"
     inkscape:window-y="26"
     inkscape:window-x="0"
     inkscape:window-height="1002"
     inkscape:window-width="1920"
     fit-margin-bottom="0"
     fit-margin-right="0"
     fit-margin-left="0"
     fit-margin-top="0"
     showgrid="true"
     inkscape:current-layer="layer1"
     inkscape:document-units="px"
     inkscape:cy="9.1935591"
     inkscape:cx="-0.27234639"
     inkscape:zoom="25.411964"
     inkscape:pageshadow="2"
     inkscape:pageopacity="0.0"
     borderopacity="1.0"
     bordercolor="#ffffff"
     pagecolor="#ffffff"
     id="base">
    <inkscape:grid
       id="grid4109"
       type="xygrid" />
    <sodipodi:guide
       id="guide4115"
       orientation="18,0"
       position="2.0000072,19.999993" />
    <sodipodi:guide
       id="guide4117"
       orientation="0,18"
       position="2.0000072,1.9999929" />
    <sodipodi:guide
       id="guide4119"
       orientation="-18,0"
       position="20.000007,1.9999929" />
    <sodipodi:guide
       id="guide4121"
       orientation="0,-18"
       position="20.000007,19.999993" />
    <sodipodi:guide
       id="guide4123"
       orientation="16,0"
       position="3.0000072,18.999993" />
    <sodipodi:guide
       id="guide4125"
       orientation="0,16"
       position="3.0000072,2.9999929" />
    <sodipodi:guide
       id="guide4127"
       orientation="-16,0"
       position="19.000007,2.9999929" />
    <sodipodi:guide
       id="guide4129"
       orientation="0,-16"
       position="19.000007,18.999993" />
  </sodipodi:namedview>
  <defs
     id="defs3815" />
  <metadata
     id="metadata3818">
    <rdf:RDF>
      <cc:Work
         rdf:about="">
        <dc:format>image/svg+xml</dc:format>
        <dc:type
           rdf:resource="http://purl.org/dc/dcmitype/StillImage" />
        <dc:title />
      </cc:Work>
    </rdf:RDF>
  </metadata>
  <g
     transform="translate(-378.85714,-540.07647)"
     id="layer1"
     inkscape:groupmode="layer"
     inkscape:label="Capa 1">
    <g
       inkscape:label="Capa 1"
       id="layer1-9">
      <path
         style="font-style:normal;font-variant:normal;font-weight:normal;font-stretch:normal;font-size:medium;line-height:125%;font-family:oxygen;-inkscape-font-specification:oxygen;letter-spacing:0px;word-spacing:0px;fill:#e7ded7;fill-opacity:1;stroke:none;stroke-width:1px;stroke-linecap:butt;stroke-linejoin:miter;stroke-opacity:1"
         d="m 11,9 c -0.554,0 -1,0.446 -1,1 0,0.554 0.446,1 1,1 0.554,0 1,-0.446 1,-1 0,-0.554 -0.446,-1 -1,-1 z m -1,3 0,4 2,0 0,-4 z"
         transform="translate(378.85714,540.07647)"
         id="path4136"
         inkscape:connector-curvature="0"
         sodipodi:nodetypes="sssssccccc" />
      <path
         inkscape:connector-curvature="0"
         style="font-style:normal;font-variant:normal;font-weight:normal;font-stretch:normal;font-size:medium;line-height:125%;font-family:oxygen;-inkscape-font-specification:oxygen;letter-spacing:0px;word-spacing:0px;fill:#e7ded7;fill-opacity:1;stroke:none;stroke-width:1px;stroke-linecap:butt;stroke-linejoin:miter;stroke-opacity:1"
         d="m 381.85714,543.07647 0,4 0,12 1,0 15,0 0,-1 0,-11 0,-2 0,-2 -5,0 0,1 0,3 4,0 0,11 -14,0 0,-11 4,0 0,-3 0,-1 -5,0 z m 6.42773,6 c -1.06609,0 -1.51367,0.35225 -1.51367,1.25391 l 0,1.22265 c 0,0.55691 -0.0205,1.20117 -0.60937,1.20117 l -0.30469,0 0,0.64454 0.30469,0 c 0.58889,0 0.60937,0.64426 0.60937,1.20117 l 0,1.22265 c 0,0.90166 0.44758,1.25391 1.51367,1.25391 l 0,-0.5918 c -0.71072,0 -0.7207,-0.23916 -0.7207,-1.10547 l 0,-1.00781 c 0,-0.41546 -0.12361,-1.03466 -0.72265,-1.29101 0.59904,-0.25635 0.72265,-0.8736 0.72265,-1.28907 l 0,-1.01757 c 0,-0.86631 0.01,-1.10547 0.7207,-1.10547 l 0,-0.5918 z m 3.13672,0 0,0.5918 c 0.71073,0 0.72852,0.23916 0.72852,1.10547 l 0,1.01757 c 0,0.41547 0.12361,1.03272 0.72266,1.28907 -0.59905,0.25635 -0.72266,0.87555 -0.72266,1.29101 l 0,1.00781 c 0,0.86631 -0.0177,1.10547 -0.72852,1.10547 l 0,0.5918 c 1.0661,0 1.52148,-0.35225 1.52149,-1.25391 l 0,-1.22265 c 0,-0.55691 0.0404,-1.20117 0.61914,-1.20117 l 0.29492,0 0,-0.64454 -0.29492,0 c -0.57874,0 -0.61915,-0.64426 -0.61914,-1.20117 l 0,-1.22265 c 0,-0.90166 -0.45539,-1.25391 -1.52149,-1.25391 z"
         id="path4136-8" />
      <path
         style="fill:#e67e22;fill-rule:evenodd;stroke:none;stroke-width:1px;stroke-linecap:butt;stroke-linejoin:miter;stroke-opacity:1"
         d="m 387.85714,543.07647 2,3 2,-3 z"
         id="path4133"
         inkscape:connector-curvature="0"
         sodipodi:nodetypes="cccc" />
    </g>
  </g>
</svg>
