<?xml version="1.0" encoding="UTF-8" standalone="no"?>
<!-- Created with Inkscape (http://www.inkscape.org/) -->

<svg
   xmlns:dc="http://purl.org/dc/elements/1.1/"
   xmlns:cc="http://creativecommons.org/ns#"
   xmlns:rdf="http://www.w3.org/1999/02/22-rdf-syntax-ns#"
   xmlns:svg="http://www.w3.org/2000/svg"
   xmlns="http://www.w3.org/2000/svg"
   xmlns:sodipodi="http://sodipodi.sourceforge.net/DTD/sodipodi-0.dtd"
   xmlns:inkscape="http://www.inkscape.org/namespaces/inkscape"
   width="24"
   height="24"
   id="svg2"
   version="1.1"
   inkscape:version="0.91 r13725"
   viewBox="0 0 24 24"
   sodipodi:docname="distribute-vertical-center.svg">
  <sodipodi:namedview
     id="base"
     pagecolor="#ffffff"
     bordercolor="#ffffff"
     borderopacity="1.0"
     inkscape:pageopacity="0.0"
     inkscape:pageshadow="2"
     inkscape:zoom="23.818182"
     inkscape:cx="-8.1946563"
     inkscape:cy="11.999983"
     inkscape:document-units="px"
     inkscape:current-layer="layer1"
     showgrid="true"
     inkscape:showpageshadow="false"
     borderlayer="true"
     inkscape:window-width="1920"
     inkscape:window-height="1002"
     inkscape:window-x="0"
     inkscape:window-y="26"
     inkscape:window-maximized="1"
     units="px"
     fit-margin-top="0"
     fit-margin-left="0"
     fit-margin-right="0"
     fit-margin-bottom="0"
     inkscape:object-nodes="true">
    <sodipodi:guide
       id="guide4093"
       orientation="16,0"
       position="4,20" />
    <sodipodi:guide
       id="guide4095"
       orientation="0,16"
       position="4,4" />
    <sodipodi:guide
       id="guide4097"
       orientation="-16,0"
       position="20,4" />
    <sodipodi:guide
       id="guide4099"
       orientation="0,-16"
       position="20,20" />
    <inkscape:grid
       originy="0.99998262px"
       originx="1px"
       id="grid4101"
       type="xygrid" />
    <sodipodi:guide
       id="guide4123"
       orientation="16,0"
       position="4,20" />
    <sodipodi:guide
       id="guide4125"
       orientation="0,2.000001"
       position="4,4" />
    <sodipodi:guide
       id="guide4129"
       orientation="0,-2.000001"
       position="6.000001,20" />
    <sodipodi:guide
       id="guide4133"
       orientation="0,2"
       position="18,4" />
    <sodipodi:guide
       id="guide4135"
       orientation="-16,0"
       position="20,4" />
    <sodipodi:guide
       id="guide4137"
       orientation="0,-2"
       position="20,20" />
  </sodipodi:namedview>
  <defs
     id="defs4" />
  <metadata
     id="metadata7">
    <rdf:RDF>
      <cc:Work
         rdf:about="">
        <dc:format>image/svg+xml</dc:format>
        <dc:type
           rdf:resource="http://purl.org/dc/dcmitype/StillImage" />
        <dc:title />
      </cc:Work>
    </rdf:RDF>
  </metadata>
  <g
     transform="translate(1,-1029.3622)"
     id="layer1"
     inkscape:groupmode="layer"
     inkscape:label="Capa 1">
    <g
       inkscape:label="Capa 1"
       id="layer1-5"
       transform="translate(-378.85714,490.28573)">
      <path
         inkscape:connector-curvature="0"
         style="opacity:1;fill:#d6d0cb;fill-opacity:1;stroke:none"
         d="M 9,3 6,5 9,7 9,3 Z m 4,0 0,4 3,-2 -3,-2 z m -7,3 0,2 -3,0 0,7 3,0 0,4 1,0 0,-4 3,0 L 10,8 7,8 7,6 6,6 Z m 9,0 0,2 -3,0 0,9 3,0 0,2 1,0 0,-2 3,0 0,-9 -3,0 0,-2 -1,0 z M 4,9 9,9 9,14 4,14 4,9 Z m 9,0 5,0 0,7 -5,0 0,-7 z"
         transform="translate(378.85714,540.07647)"
         id="rect4109-0" />
    </g>
  </g>
</svg>
