<?xml version="1.0" encoding="UTF-8" standalone="no"?>
<!-- Created with Inkscape (http://www.inkscape.org/) -->

<svg
   xmlns:dc="http://purl.org/dc/elements/1.1/"
   xmlns:cc="http://creativecommons.org/ns#"
   xmlns:rdf="http://www.w3.org/1999/02/22-rdf-syntax-ns#"
   xmlns:svg="http://www.w3.org/2000/svg"
   xmlns="http://www.w3.org/2000/svg"
   xmlns:sodipodi="http://sodipodi.sourceforge.net/DTD/sodipodi-0.dtd"
   xmlns:inkscape="http://www.inkscape.org/namespaces/inkscape"
   width="22"
   height="22"
   id="svg3813"
   version="1.1"
   inkscape:version="0.91 r13725"
   sodipodi:docname="distribute-vertical-page.svg">
  <sodipodi:namedview
     id="base"
     pagecolor="#ffffff"
     bordercolor="#ffffff"
     borderopacity="1.0"
     inkscape:pageopacity="0.0"
     inkscape:pageshadow="2"
     inkscape:zoom="13.465108"
     inkscape:cx="-5.1456173"
     inkscape:cy="13.503977"
     inkscape:document-units="px"
     inkscape:current-layer="layer1"
     showgrid="true"
     fit-margin-top="0"
     fit-margin-left="0"
     fit-margin-right="0"
     fit-margin-bottom="0"
     inkscape:window-width="1920"
     inkscape:window-height="1002"
     inkscape:window-x="0"
     inkscape:window-y="26"
     inkscape:window-maximized="1"
     inkscape:showpageshadow="false">
    <inkscape:grid
       id="grid4109"
       type="xygrid" />
    <sodipodi:guide
       id="guide4115"
       orientation="18,0"
       position="2.0000072,19.999993" />
    <sodipodi:guide
       id="guide4117"
       orientation="0,18"
       position="2.0000072,1.9999929" />
    <sodipodi:guide
       id="guide4119"
       orientation="-18,0"
       position="20.000007,1.9999929" />
    <sodipodi:guide
       id="guide4121"
       orientation="0,-18"
       position="20.000007,19.999993" />
    <sodipodi:guide
       id="guide4123"
       orientation="16,0"
       position="3.0000072,18.999993" />
    <sodipodi:guide
       id="guide4125"
       orientation="0,16"
       position="3.0000072,2.9999929" />
    <sodipodi:guide
       id="guide4127"
       orientation="-16,0"
       position="19.000007,2.9999929" />
    <sodipodi:guide
       id="guide4129"
       orientation="0,-16"
       position="19.000007,18.999993" />
  </sodipodi:namedview>
  <defs
     id="defs3815" />
  <metadata
     id="metadata3818">
    <rdf:RDF>
      <cc:Work
         rdf:about="">
        <dc:format>image/svg+xml</dc:format>
        <dc:type
           rdf:resource="http://purl.org/dc/dcmitype/StillImage" />
        <dc:title />
      </cc:Work>
    </rdf:RDF>
  </metadata>
  <g
     transform="translate(-378.85714,-540.07647)"
     id="layer1"
     inkscape:groupmode="layer"
     inkscape:label="Capa 1">
    <path
       inkscape:connector-curvature="0"
       id="rect4109"
       d="m 397.85714,543.07647 -1,0 -15,0 0,1 0,11 1,1.33398 1.25,1.66602 0.75,1 12,0 1,0 0,-16 z m -1,1 0,14 -12,0 0,-3 -2,0 0,-11 14,0 z m -3,1 -8,0 0,5 8,0 0,-5 z m 0,7 -8,0 0,5 8,0 0,-5 z m -1,-6 0,3 -6,0 0,-3 6,0 z m 0,7 0,3 -6,0 0,-3 6,0 z"
       style="opacity:1;fill:#e7ded7;fill-opacity:1;stroke:none" />
  </g>
</svg>
