<?xml version="1.0" encoding="UTF-8" standalone="no"?>
<!-- Created with Inkscape (http://www.inkscape.org/) -->

<svg
   xmlns:dc="http://purl.org/dc/elements/1.1/"
   xmlns:cc="http://creativecommons.org/ns#"
   xmlns:rdf="http://www.w3.org/1999/02/22-rdf-syntax-ns#"
   xmlns:svg="http://www.w3.org/2000/svg"
   xmlns="http://www.w3.org/2000/svg"
   xmlns:xlink="http://www.w3.org/1999/xlink"
   xmlns:sodipodi="http://sodipodi.sourceforge.net/DTD/sodipodi-0.dtd"
   xmlns:inkscape="http://www.inkscape.org/namespaces/inkscape"
   width="22"
   height="22"
   id="svg3760"
   version="1.1"
   inkscape:version="0.91 r13725"
   sodipodi:docname="document-share.svg">
  <sodipodi:namedview
     id="base"
     pagecolor="#ffffff"
     bordercolor="#ffffff"
     borderopacity="1.0"
     inkscape:pageopacity="0.0"
     inkscape:pageshadow="2"
     inkscape:zoom="24.50705"
     inkscape:cx="0.69455306"
     inkscape:cy="11.944967"
     inkscape:document-units="px"
     inkscape:current-layer="layer1"
     showgrid="true"
     fit-margin-top="0"
     fit-margin-left="0"
     fit-margin-right="0"
     fit-margin-bottom="0"
     inkscape:window-width="1920"
     inkscape:window-height="1002"
     inkscape:window-x="0"
     inkscape:window-y="26"
     inkscape:window-maximized="1"
     inkscape:showpageshadow="false"
     showguides="true">
    <inkscape:grid
       originy="-1.0000252px"
       originx="-0.99998557px"
       id="grid4106"
       type="xygrid" />
    <sodipodi:guide
       id="guide4229"
       orientation="0,18"
       position="2.00001,19.99997" />
    <sodipodi:guide
       id="guide4231"
       orientation="18,0"
       position="20.00001,19.99997" />
    <sodipodi:guide
       id="guide4233"
       orientation="0,-18"
       position="20.00001,1.99997" />
    <sodipodi:guide
       id="guide4235"
       orientation="-18,0"
       position="2.00001,1.99997" />
    <sodipodi:guide
       id="guide4237"
       orientation="0,16"
       position="3.00001,18.99997" />
    <sodipodi:guide
       id="guide4239"
       orientation="16,0"
       position="19.00001,18.99997" />
    <sodipodi:guide
       id="guide4241"
       orientation="0,-16"
       position="19.00001,2.99997" />
    <sodipodi:guide
       id="guide4243"
       orientation="-16,0"
       position="3.00001,2.99997" />
    <sodipodi:guide
       id="guide4155"
       orientation="6,0"
       position="2.9999956,18.999992" />
    <sodipodi:guide
       id="guide4161"
       orientation="0,-6"
       position="8.9999956,18.999992" />
    <sodipodi:guide
       id="guide4169"
       orientation="0,-6"
       position="18.999996,18.999992" />
  </sodipodi:namedview>
  <defs
     id="defs3762">
    <linearGradient
       gradientTransform="translate(-5.9283447e-6,0)"
       gradientUnits="userSpaceOnUse"
       y2="517.79797"
       x2="400.57144"
       y1="545.79797"
       x1="400.57144"
       id="linearGradient4238"
       xlink:href="#ffffffGradient4303"
       inkscape:collect="always" />
    <linearGradient
       gradientTransform="translate(120.71429,82.849876)"
       gradientUnits="userSpaceOnUse"
       y2="537.79797"
       x2="408.57144"
       y1="518.79797"
       x1="389.57144"
       id="linearGradient4155"
       xlink:href="#ffffffGradient4227"
       inkscape:collect="always" />
    <linearGradient
       gradientUnits="userSpaceOnUse"
       y2="1.999974"
       x2="16"
       y1="30"
       x1="16"
       id="linearGradient4370"
       xlink:href="#ffffffGradient4159"
       inkscape:collect="always"
       gradientTransform="translate(505.28572,598.64788)" />
    <linearGradient
       gradientUnits="userSpaceOnUse"
       y2="12"
       x2="16"
       y1="20"
       x1="16"
       id="linearGradient4434"
       xlink:href="#ffffffGradient4159"
       inkscape:collect="always"
       gradientTransform="translate(505.28572,598.64788)" />
    <linearGradient
       inkscape:collect="always"
       xlink:href="#ffffffGradient4303"
       id="linearGradient3053"
       gradientUnits="userSpaceOnUse"
       gradientTransform="translate(120.71428,82.849876)"
       x1="400.57144"
       y1="545.79797"
       x2="400.57144"
       y2="517.79797" />
    <linearGradient
       y2="517.79797"
       x2="400.57144"
       y1="545.79797"
       x1="400.57144"
       gradientTransform="translate(120.71428,82.849876)"
       gradientUnits="userSpaceOnUse"
       id="linearGradient3054"
       xlink:href="#ffffffGradient4303"
       inkscape:collect="always" />
    <linearGradient
       y2="537.79797"
       x2="408.57144"
       y1="518.79797"
       x1="389.57144"
       gradientTransform="translate(120.71429,82.849876)"
       gradientUnits="userSpaceOnUse"
       id="linearGradient3056"
       xlink:href="#ffffffGradient4227"
       inkscape:collect="always" />
    <linearGradient
       y2="1.999974"
       x2="16"
       y1="30"
       x1="16"
       gradientTransform="translate(505.28572,598.64788)"
       gradientUnits="userSpaceOnUse"
       id="linearGradient3058"
       xlink:href="#ffffffGradient4159"
       inkscape:collect="always" />
    <linearGradient
       y2="12"
       x2="16"
       y1="20"
       x1="16"
       gradientTransform="translate(505.28572,598.64788)"
       gradientUnits="userSpaceOnUse"
       id="linearGradient3060"
       xlink:href="#ffffffGradient4159"
       inkscape:collect="always" />
  </defs>
  <metadata
     id="metadata3765">
    <rdf:RDF>
      <cc:Work
         rdf:about="">
        <dc:format>image/svg+xml</dc:format>
        <dc:type
           rdf:resource="http://purl.org/dc/dcmitype/StillImage" />
        <dc:title />
      </cc:Work>
    </rdf:RDF>
  </metadata>
  <g
     transform="translate(-551.28571,-607.64788)"
     id="layer1"
     inkscape:groupmode="layer"
     inkscape:label="Capa 1">
    <path
       id="path3062"
       transform="translate(551.28571,607.64788)"
       d="M 16 3 A 2.0000093 2 0 0 0 14 5 A 2.0000093 2 0 0 0 16 7 A 2.0000093 2 0 0 0 18 5 A 2.0000093 2 0 0 0 16 3 z M 11.5 7 A 0.5 0.5 0 0 0 11 7.5 A 0.5 0.5 0 0 0 11.5 8 A 0.5 0.5 0 0 0 12 7.5 A 0.5 0.5 0 0 0 11.5 7 z M 9.5 8 A 0.5 0.49999139 0 0 0 9 8.5 A 0.5 0.49999139 0 0 0 9.5 9 A 0.5 0.49999139 0 0 0 10 8.5 A 0.5 0.49999139 0 0 0 9.5 8 z M 6 9 A 2 2.0000086 0 0 0 4 11 A 2 2.0000086 0 0 0 6 13 A 2 2.0000086 0 0 0 8 11 A 2 2.0000086 0 0 0 6 9 z M 9.5 13 A 0.50000942 0.5 0 0 0 9 13.5 A 0.50000942 0.5 0 0 0 9.5 14 A 0.50000942 0.5 0 0 0 10 13.5 A 0.50000942 0.5 0 0 0 9.5 13 z M 11.5 14 A 0.5 0.5 0 0 0 11 14.5 A 0.5 0.5 0 0 0 11.5 15 A 0.5 0.5 0 0 0 12 14.5 A 0.5 0.5 0 0 0 11.5 14 z M 16 15 A 2.0000093 2 0 0 0 14 17 A 2.0000093 2 0 0 0 16 19 A 2.0000093 2 0 0 0 18 17 A 2.0000093 2 0 0 0 16 15 z "
       style="fill:#e7ded7;fill-opacity:1;stroke:none" />
  </g>
</svg>
