<?xml version="1.0" encoding="UTF-8" standalone="no"?>
<!-- Created with Inkscape (http://www.inkscape.org/) -->

<svg
   xmlns:dc="http://purl.org/dc/elements/1.1/"
   xmlns:cc="http://creativecommons.org/ns#"
   xmlns:rdf="http://www.w3.org/1999/02/22-rdf-syntax-ns#"
   xmlns:svg="http://www.w3.org/2000/svg"
   xmlns="http://www.w3.org/2000/svg"
   xmlns:sodipodi="http://sodipodi.sourceforge.net/DTD/sodipodi-0.dtd"
   xmlns:inkscape="http://www.inkscape.org/namespaces/inkscape"
   width="24"
   height="24"
   id="svg3760"
   version="1.1"
   inkscape:version="0.91 r13725"
   sodipodi:docname="draw-donut.svg">
  <sodipodi:namedview
     id="base"
     pagecolor="#ffffff"
     bordercolor="#ffffff"
     borderopacity="1.0"
     inkscape:pageopacity="0.0"
     inkscape:pageshadow="2"
     inkscape:zoom="34.574201"
     inkscape:cx="10.301337"
     inkscape:cy="13.597211"
     inkscape:document-units="px"
     inkscape:current-layer="layer1"
     showgrid="true"
     fit-margin-top="0"
     fit-margin-left="0"
     fit-margin-right="0"
     fit-margin-bottom="0"
     inkscape:window-width="1920"
     inkscape:window-height="1002"
     inkscape:window-x="0"
     inkscape:window-y="26"
     inkscape:window-maximized="1"
     inkscape:showpageshadow="false">
    <sodipodi:guide
       id="guide4115"
       orientation="24,0"
       position="-1.4433594e-05,24.000012" />
    <sodipodi:guide
       id="guide4117"
       orientation="0,24"
       position="-1.4433594e-05,1.1816406e-05" />
    <sodipodi:guide
       id="guide4119"
       orientation="-24,0"
       position="23.999986,1.1816406e-05" />
    <sodipodi:guide
       id="guide4121"
       orientation="0,-24"
       position="23.999986,24.000012" />
    <sodipodi:guide
       id="guide4123"
       orientation="18,0"
       position="2.9999856,21.000012" />
    <sodipodi:guide
       id="guide4125"
       orientation="0,18"
       position="2.9999856,3.0000118" />
    <sodipodi:guide
       id="guide4127"
       orientation="-18,0"
       position="20.999986,3.0000118" />
    <sodipodi:guide
       id="guide4129"
       orientation="0,-18"
       position="20.999986,21.000012" />
    <sodipodi:guide
       id="guide4131"
       orientation="16,0"
       position="3.9999856,20.000012" />
    <sodipodi:guide
       id="guide4133"
       orientation="0,16"
       position="3.9999856,4.0000118" />
    <sodipodi:guide
       id="guide4135"
       orientation="-16,0"
       position="19.999986,4.0000118" />
    <sodipodi:guide
       id="guide4137"
       orientation="0,-16"
       position="19.999986,20.000012" />
    <inkscape:grid
       id="grid4139"
       type="xygrid" />
  </sodipodi:namedview>
  <defs
     id="defs3762" />
  <metadata
     id="metadata3765">
    <rdf:RDF>
      <cc:Work
         rdf:about="">
        <dc:format>image/svg+xml</dc:format>
        <dc:type
           rdf:resource="http://purl.org/dc/dcmitype/StillImage" />
        <dc:title />
      </cc:Work>
    </rdf:RDF>
  </metadata>
  <g
     transform="translate(-550.28572,-606.6479)"
     id="layer1"
     inkscape:groupmode="layer"
     inkscape:label="Capa 1">
    <path
       id="rect4112"
       transform="translate(550.28572,606.6479)"
       d="M 12 4 C 7.568 4 4 7.568 4 12 C 4 16.432 7.568 20 12 20 C 16.432 20 20 16.432 20 12 C 20 7.568 16.432 4 12 4 z M 12 5 C 15.878 5 19 8.122 19 12 C 19 15.878 15.878 19 12 19 C 8.122 19 5 15.878 5 12 C 5 8.122 8.122 5 12 5 z M 12 10 C 10.892 10 10 10.892 10 12 C 10 13.108 10.892 14 12 14 C 13.108 14 14 13.108 14 12 C 14 10.892 13.108 10 12 10 z M 12 11 C 12.554 11 13 11.446 13 12 C 13 12.554 12.554 13 12 13 C 11.446 13 11 12.554 11 12 C 11 11.446 11.446 11 12 11 z "
       style="opacity:1;fill:#e7ded7;fill-opacity:1;stroke:none" />
  </g>
</svg>
