<?xml version="1.0" encoding="UTF-8" standalone="no"?>
<!-- Created with Inkscape (http://www.inkscape.org/) -->

<svg
   xmlns:dc="http://purl.org/dc/elements/1.1/"
   xmlns:cc="http://creativecommons.org/ns#"
   xmlns:rdf="http://www.w3.org/1999/02/22-rdf-syntax-ns#"
   xmlns:svg="http://www.w3.org/2000/svg"
   xmlns="http://www.w3.org/2000/svg"
   xmlns:sodipodi="http://sodipodi.sourceforge.net/DTD/sodipodi-0.dtd"
   xmlns:inkscape="http://www.inkscape.org/namespaces/inkscape"
   width="24"
   height="24"
   id="svg3760"
   version="1.1"
   inkscape:version="0.91 r13725"
   sodipodi:docname="draw-bezier-curves.svg">
  <sodipodi:namedview
     id="base"
     pagecolor="#ffffff"
     bordercolor="#ffffff"
     borderopacity="1.0"
     inkscape:pageopacity="0.0"
     inkscape:pageshadow="2"
     inkscape:zoom="23.069359"
     inkscape:cx="-0.75831356"
     inkscape:cy="11.214812"
     inkscape:document-units="px"
     inkscape:current-layer="layer1"
     showgrid="true"
     fit-margin-top="0"
     fit-margin-left="0"
     fit-margin-right="0"
     fit-margin-bottom="0"
     inkscape:window-width="1920"
     inkscape:window-height="1002"
     inkscape:window-x="0"
     inkscape:window-y="26"
     inkscape:window-maximized="1"
     inkscape:showpageshadow="false">
    <sodipodi:guide
       id="guide4115"
       orientation="24,0"
       position="-1.4433594e-05,24.000012" />
    <sodipodi:guide
       id="guide4117"
       orientation="0,24"
       position="-1.4433594e-05,1.1816406e-05" />
    <sodipodi:guide
       id="guide4119"
       orientation="-24,0"
       position="23.999986,1.1816406e-05" />
    <sodipodi:guide
       id="guide4121"
       orientation="0,-24"
       position="23.999986,24.000012" />
    <sodipodi:guide
       id="guide4123"
       orientation="18,0"
       position="2.9999856,21.000012" />
    <sodipodi:guide
       id="guide4125"
       orientation="0,18"
       position="2.9999856,3.0000118" />
    <sodipodi:guide
       id="guide4127"
       orientation="-18,0"
       position="20.999986,3.0000118" />
    <sodipodi:guide
       id="guide4129"
       orientation="0,-18"
       position="20.999986,21.000012" />
    <sodipodi:guide
       id="guide4131"
       orientation="16,0"
       position="3.9999856,20.000012" />
    <sodipodi:guide
       id="guide4133"
       orientation="0,16"
       position="3.9999856,4.0000118" />
    <sodipodi:guide
       id="guide4135"
       orientation="-16,0"
       position="19.999986,4.0000118" />
    <sodipodi:guide
       id="guide4137"
       orientation="0,-16"
       position="19.999986,20.000012" />
    <inkscape:grid
       id="grid4139"
       type="xygrid" />
  </sodipodi:namedview>
  <defs
     id="defs3762" />
  <metadata
     id="metadata3765">
    <rdf:RDF>
      <cc:Work
         rdf:about="">
        <dc:format>image/svg+xml</dc:format>
        <dc:type
           rdf:resource="http://purl.org/dc/dcmitype/StillImage" />
        <dc:title />
      </cc:Work>
    </rdf:RDF>
  </metadata>
  <g
     transform="translate(-550.28572,-606.6479)"
     id="layer1"
     inkscape:groupmode="layer"
     inkscape:label="Capa 1">
    <path
       id="rect3316"
       transform="translate(550.28572,606.6479)"
       d="M 18.5 4 C 17.84576 4 17.297803 4.4180774 17.091797 5 L 4 5 L 4 6 C 7.601 6 10.5 8.899 10.5 12.5 C 10.5 14.405514 9.677885 16.101777 8.3789062 17.287109 C 8.1331793 17.10687 7.8301303 17 7.5 17 C 6.669 17 6 17.669 6 18.5 C 6 19.331 6.669 20 7.5 20 C 8.1542402 20 8.7021974 19.581923 8.9082031 19 L 13 19 L 13 20 L 16 20 L 16 17 L 13 17 L 13 18 L 9.0878906 18 C 10.567038 16.632069 11.5 14.682903 11.5 12.5 C 11.5 9.7113329 9.9893316 7.2925313 7.7421875 6 L 17.091797 6 C 17.297803 6.5819226 17.84576 7 18.5 7 C 19.331 7 20 6.331 20 5.5 C 20 4.669 19.331 4 18.5 4 z M 18.5 5 C 18.777 5 19 5.223 19 5.5 C 19 5.777 18.777 6 18.5 6 C 18.43075 6 18.364547 5.9861719 18.304688 5.9609375 C 18.125109 5.8852344 18 5.70775 18 5.5 C 18 5.43075 18.013828 5.3645469 18.039062 5.3046875 C 18.114766 5.1251094 18.29225 5 18.5 5 z M 7.5 18 C 7.777 18 8 18.223 8 18.5 C 8 18.777 7.777 19 7.5 19 C 7.223 19 7 18.777 7 18.5 C 7 18.223 7.223 18 7.5 18 z M 14 18 L 15 18 L 15 19 L 14 19 L 14 18 z "
       style="opacity:1;fill:#e7ded7;fill-opacity:1;stroke:none" />
  </g>
</svg>
