<?xml version="1.0" encoding="UTF-8" standalone="no"?>
<!-- Created with Inkscape (http://www.inkscape.org/) -->

<svg
   xmlns:dc="http://purl.org/dc/elements/1.1/"
   xmlns:cc="http://creativecommons.org/ns#"
   xmlns:rdf="http://www.w3.org/1999/02/22-rdf-syntax-ns#"
   xmlns:svg="http://www.w3.org/2000/svg"
   xmlns="http://www.w3.org/2000/svg"
   xmlns:sodipodi="http://sodipodi.sourceforge.net/DTD/sodipodi-0.dtd"
   xmlns:inkscape="http://www.inkscape.org/namespaces/inkscape"
   width="16"
   height="16"
   id="svg3049"
   version="1.1"
   inkscape:version="0.91 r13725"
   sodipodi:docname="edit-select-all-layers.svg"
   inkscape:export-filename="/home/uri/.kde/share/icons/NITRUX-KDE/16x16/actions/view-right-new.png"
   inkscape:export-xdpi="30"
   inkscape:export-ydpi="30">
  <sodipodi:namedview
     id="base"
     pagecolor="#ffffff"
     bordercolor="#ffffff"
     borderopacity="1.0"
     inkscape:pageopacity="0.0"
     inkscape:pageshadow="2"
     inkscape:zoom="16"
     inkscape:cx="8.273958"
     inkscape:cy="2.5120363"
     inkscape:document-units="px"
     inkscape:current-layer="layer1"
     showgrid="true"
     fit-margin-top="0"
     fit-margin-left="0"
     fit-margin-right="0"
     fit-margin-bottom="0"
     inkscape:window-width="1920"
     inkscape:window-height="1002"
     inkscape:window-x="0"
     inkscape:window-y="26"
     inkscape:window-maximized="1"
     inkscape:showpageshadow="false"
     borderlayer="true"
     inkscape:snap-bbox="true"
     inkscape:snap-global="true"
     inkscape:object-nodes="true">
    <inkscape:grid
       id="grid4085"
       type="xygrid" />
    <sodipodi:guide
       id="guide4075"
       orientation="12,0"
       position="2.0000044,14.00003" />
    <sodipodi:guide
       id="guide4077"
       orientation="0,12"
       position="2.0000044,2.0000296" />
    <sodipodi:guide
       id="guide4079"
       orientation="-12,0"
       position="14,9" />
    <sodipodi:guide
       id="guide4081"
       orientation="0,-12"
       position="14.000004,14.00003" />
  </sodipodi:namedview>
  <defs
     id="defs3051" />
  <metadata
     id="metadata3054">
    <rdf:RDF>
      <cc:Work
         rdf:about="">
        <dc:format>image/svg+xml</dc:format>
        <dc:type
           rdf:resource="http://purl.org/dc/dcmitype/StillImage" />
        <dc:title />
      </cc:Work>
    </rdf:RDF>
  </metadata>
  <g
     transform="translate(-421.71429,-531.79074)"
     id="layer1"
     inkscape:groupmode="layer"
     inkscape:label="Capa 1">
    <path
       id="rect4619"
       transform="translate(421.71429,531.79074)"
       d="M 2 2 L 2 5 L 3 5 L 3 3 L 5 3 L 5 2 L 3 2 L 2 2 z M 11 2 L 11 3 L 13 3 L 13 4 L 13 5 L 14 5 L 14 3 L 14 2 L 11 2 z M 2 11 L 2 12 L 2 13 L 2 14 L 5 14 L 5 13 L 3 13 L 3 12 L 3 11 L 2 11 z M 13 11 L 13 12 L 13 13 L 12 13 L 11 13 L 11 14 L 12 14 L 13 14 L 14 14 L 14 12 L 14 11 L 13 11 z "
       style="color:#000000;fill:#d6d0cb;fill-opacity:1;fill-rule:nonzero;stroke:none;stroke-width:2.75;marker:none;visibility:visible;display:inline;overflow:visible;enable-background:accumulate" />
    <path
       inkscape:connector-curvature="0"
       id="path4143"
       d="m 425.71429,539.79074 3,-3 5,0 -3,3 z"
       style="fill:#d6d0cb;fill-opacity:1;fill-rule:evenodd;stroke:none;stroke-width:1px;stroke-linecap:butt;stroke-linejoin:miter;stroke-opacity:1" />
    <path
       inkscape:connector-curvature="0"
       id="path4143-9"
       d="m 425.71429,543.79074 3,-3 5,0 -3,3 z"
       style="fill:#d6d0cb;fill-opacity:1;fill-rule:evenodd;stroke:none;stroke-width:1px;stroke-linecap:butt;stroke-linejoin:miter;stroke-opacity:1" />
    <rect
       y="534.79071"
       x="424.71429"
       height="10.999983"
       width="0"
       id="rect4035"
       style="fill:#d6d0cb;fill-opacity:1;stroke:none" />
    <rect
       y="532.73938"
       x="442.75507"
       height="10.999983"
       width="0"
       id="rect4035-5"
       style="fill:#d6d0cb;fill-opacity:1;stroke:none" />
    <rect
       y="534.79071"
       x="424.71429"
       height="10.999983"
       width="0"
       id="rect4035-8"
       style="fill:#d6d0cb;fill-opacity:1;stroke:none" />
    <rect
       y="534.79071"
       x="424.71429"
       height="10.999983"
       width="0"
       id="rect4035-59"
       style="fill:#d6d0cb;fill-opacity:1;stroke:none" />
    <g
       inkscape:label="Capa 1"
       id="layer1-1"
       transform="translate(423.29133,-498.40752)" />
    <rect
       y="534.79071"
       x="424.71429"
       height="10.999983"
       width="0"
       id="rect4035-2"
       style="fill:#d6d0cb;fill-opacity:1;stroke:none" />
    <rect
       y="532.73938"
       x="442.75507"
       height="10.999983"
       width="0"
       id="rect4035-5-5"
       style="fill:#d6d0cb;fill-opacity:1;stroke:none" />
    <rect
       y="534.79071"
       x="424.71429"
       height="10.999983"
       width="0"
       id="rect4035-8-9"
       style="fill:#d6d0cb;fill-opacity:1;stroke:none" />
    <rect
       y="534.79071"
       x="424.71429"
       height="10.999983"
       width="0"
       id="rect4035-59-3"
       style="fill:#d6d0cb;fill-opacity:1;stroke:none" />
    <g
       inkscape:label="Capa 1"
       id="layer1-1-3"
       transform="translate(423.29133,-498.40755)" />
  </g>
</svg>
