<?xml version="1.0" encoding="UTF-8" standalone="no"?>
<!-- Created with Inkscape (http://www.inkscape.org/) -->

<svg
   xmlns:dc="http://purl.org/dc/elements/1.1/"
   xmlns:cc="http://creativecommons.org/ns#"
   xmlns:rdf="http://www.w3.org/1999/02/22-rdf-syntax-ns#"
   xmlns:svg="http://www.w3.org/2000/svg"
   xmlns="http://www.w3.org/2000/svg"
   xmlns:sodipodi="http://sodipodi.sourceforge.net/DTD/sodipodi-0.dtd"
   xmlns:inkscape="http://www.inkscape.org/namespaces/inkscape"
   width="22"
   height="22"
   id="svg3815"
   version="1.1"
   inkscape:version="0.91 r13725"
   sodipodi:docname="edit-table-delete-column.svg">
  <sodipodi:namedview
     id="base"
     pagecolor="#ffffff"
     bordercolor="#ffffff"
     borderopacity="1.0"
     inkscape:pageopacity="0.0"
     inkscape:pageshadow="2"
     inkscape:zoom="18.693525"
     inkscape:cx="1.4280235"
     inkscape:cy="16.379327"
     inkscape:document-units="px"
     inkscape:current-layer="layer1"
     showgrid="true"
     fit-margin-top="0"
     fit-margin-left="0"
     fit-margin-right="0"
     fit-margin-bottom="0"
     inkscape:window-width="1920"
     inkscape:window-height="1002"
     inkscape:window-x="0"
     inkscape:window-y="26"
     inkscape:window-maximized="1"
     inkscape:showpageshadow="false"
     borderlayer="false">
    <sodipodi:guide
       id="guide3338"
       orientation="18,0"
       position="2.0000044,19.999979" />
    <sodipodi:guide
       id="guide3340"
       orientation="0,18"
       position="2.0000044,1.9999785" />
    <sodipodi:guide
       id="guide3342"
       orientation="-18,0"
       position="20.000004,1.9999785" />
    <sodipodi:guide
       id="guide3344"
       orientation="0,-18"
       position="20.000004,19.999979" />
    <sodipodi:guide
       id="guide3346"
       orientation="16,0"
       position="3.0000044,18.999979" />
    <sodipodi:guide
       id="guide3348"
       orientation="0,16"
       position="3.0000044,2.9999785" />
    <sodipodi:guide
       id="guide3350"
       orientation="-16,0"
       position="19.000004,2.9999785" />
    <sodipodi:guide
       id="guide3352"
       orientation="0,-16"
       position="17,19" />
    <inkscape:grid
       id="grid3354"
       type="xygrid" />
  </sodipodi:namedview>
  <defs
     id="defs3817" />
  <metadata
     id="metadata3820">
    <rdf:RDF>
      <cc:Work
         rdf:about="">
        <dc:format>image/svg+xml</dc:format>
        <dc:type
           rdf:resource="http://purl.org/dc/dcmitype/StillImage" />
        <dc:title />
      </cc:Work>
    </rdf:RDF>
  </metadata>
  <g
     transform="translate(-461.71429,-525.79075)"
     id="layer1"
     inkscape:groupmode="layer"
     inkscape:label="Capa 1">
    <path
       id="rect4108-9"
       d="m 464.71429,528.79075 0,1 0,14 0,1 15,0 1,0 0,-16 -1,0 -15,0 z m 1,1 2,0 0,3 0,1 -1.09961,0 -0.90039,0 0,-4 z m 3,0 1,0 1,0 1,0 2,0 1,0 1,0 1,0 0,3 0,1 -1,0 0,1 1,0 0,4 -1,0 0,1 1,0 0,4 -1,0 -1,0 -1,0 -2,0 -1,0 -1,0 -1,0 0,-4 1,0 0,-1 -1,0 0,-4 1,0 0,-1 -1,0 0,-1 0,-3 z m 9,0 2,0 0,4 -1,0 -1,0 0,-1 0,-3 z m -12,5 2,0 0,4 -2,0 0,-4 z m 12,0 1,0 1,0 0,4 -1,0 -1,0 0,-4 z m -12,5 2,0 0,4 -2,0 0,-4 z m 12,0 1,0 1,0 0,4 -2,0 0,-3 0,-1 z"
       style="opacity:1;fill:#e7ded7;fill-opacity:1;stroke:none"
       inkscape:connector-curvature="0" />
    <path
       inkscape:connector-curvature="0"
       id="rect4197-8"
       d="m 475.71429,543.79075 0,-5.29297 0,-4 0,-4 0,-0.70703 -0.70703,0 -0.29297,0 0,0.29297 -4,4 0,-4.29297 -1,0 0,14 1,0 0,-0.29297 4,-4 0,4.29297 1,0 z m -5,-1.70703 0,-2.58594 4,-4 0,2.58594 -4,4 z m 0,-4 0,-2.58594 4,-4 0,2.58594 -4,4 z"
       style="opacity:1;fill:#e74c3c;fill-opacity:1;stroke:none" />
  </g>
</svg>
