<?xml version="1.0" encoding="UTF-8" standalone="no"?>
<!-- Created with Inkscape (http://www.inkscape.org/) -->

<svg
   xmlns:dc="http://purl.org/dc/elements/1.1/"
   xmlns:cc="http://creativecommons.org/ns#"
   xmlns:rdf="http://www.w3.org/1999/02/22-rdf-syntax-ns#"
   xmlns:svg="http://www.w3.org/2000/svg"
   xmlns="http://www.w3.org/2000/svg"
   xmlns:sodipodi="http://sodipodi.sourceforge.net/DTD/sodipodi-0.dtd"
   xmlns:inkscape="http://www.inkscape.org/namespaces/inkscape"
   width="22"
   height="22"
   id="svg3815"
   version="1.1"
   inkscape:version="0.91 r13725"
   sodipodi:docname="edit-select-all.svg">
  <sodipodi:namedview
     id="base"
     pagecolor="#ffffff"
     bordercolor="#ffffff"
     borderopacity="1.0"
     inkscape:pageopacity="0.0"
     inkscape:pageshadow="2"
     inkscape:zoom="18.335411"
     inkscape:cx="-1.0662913"
     inkscape:cy="9.6179909"
     inkscape:document-units="px"
     inkscape:current-layer="layer1"
     showgrid="true"
     fit-margin-top="0"
     fit-margin-left="0"
     fit-margin-right="0"
     fit-margin-bottom="0"
     inkscape:window-width="1920"
     inkscape:window-height="1002"
     inkscape:window-x="0"
     inkscape:window-y="26"
     inkscape:window-maximized="1"
     inkscape:showpageshadow="false"
     borderlayer="false">
    <sodipodi:guide
       id="guide3338"
       orientation="18,0"
       position="2.0000044,19.999979" />
    <sodipodi:guide
       id="guide3340"
       orientation="0,18"
       position="2.0000044,1.9999785" />
    <sodipodi:guide
       id="guide3342"
       orientation="-18,0"
       position="20.000004,1.9999785" />
    <sodipodi:guide
       id="guide3344"
       orientation="0,-18"
       position="20.000004,19.999979" />
    <sodipodi:guide
       id="guide3346"
       orientation="16,0"
       position="3.0000044,18.999979" />
    <sodipodi:guide
       id="guide3348"
       orientation="0,16"
       position="3.0000044,2.9999785" />
    <sodipodi:guide
       id="guide3350"
       orientation="-16,0"
       position="19.000004,2.9999785" />
    <sodipodi:guide
       id="guide3352"
       orientation="0,-16"
       position="17,19" />
    <inkscape:grid
       id="grid3354"
       type="xygrid" />
  </sodipodi:namedview>
  <defs
     id="defs3817" />
  <metadata
     id="metadata3820">
    <rdf:RDF>
      <cc:Work
         rdf:about="">
        <dc:format>image/svg+xml</dc:format>
        <dc:type
           rdf:resource="http://purl.org/dc/dcmitype/StillImage" />
        <dc:title />
      </cc:Work>
    </rdf:RDF>
  </metadata>
  <g
     transform="translate(-461.71429,-525.79075)"
     id="layer1"
     inkscape:groupmode="layer"
     inkscape:label="Capa 1">
    <path
       id="rect4108"
       transform="translate(461.71429,525.79075)"
       d="M 3 3 L 3 4 L 3 7 L 4 7 L 4 4 L 7 4 L 7 3 L 4 3 L 3 3 z M 15 3 L 15 4 L 18 4 L 18 7 L 19 7 L 19 3 L 15 3 z M 5 5 L 5 10 L 10 10 L 10 5 L 5 5 z M 12 5 L 12 10 L 17 10 L 17 5 L 12 5 z M 6 6 L 9 6 L 9 9 L 6 9 L 6 6 z M 13 6 L 16 6 L 16 9 L 13 9 L 13 6 z M 5 12 L 5 17 L 10 17 L 10 12 L 5 12 z M 12 12 L 12 17 L 17 17 L 17 12 L 12 12 z M 6 13 L 9 13 L 9 16 L 6 16 L 6 13 z M 13 13 L 16 13 L 16 16 L 13 16 L 13 13 z M 3 15 L 3 19 L 4 19 L 7 19 L 7 18 L 4 18 L 4 15 L 3 15 z M 18 15 L 18 18 L 15 18 L 15 19 L 19 19 L 19 18 L 19 15 L 18 15 z "
       style="opacity:1;fill:#e7ded7;fill-opacity:1;stroke:none" />
  </g>
</svg>
