<?xml version="1.0" encoding="UTF-8" standalone="no"?>
<!-- Created with Inkscape (http://www.inkscape.org/) -->

<svg
   xmlns:dc="http://purl.org/dc/elements/1.1/"
   xmlns:cc="http://creativecommons.org/ns#"
   xmlns:rdf="http://www.w3.org/1999/02/22-rdf-syntax-ns#"
   xmlns:svg="http://www.w3.org/2000/svg"
   xmlns="http://www.w3.org/2000/svg"
   xmlns:sodipodi="http://sodipodi.sourceforge.net/DTD/sodipodi-0.dtd"
   xmlns:inkscape="http://www.inkscape.org/namespaces/inkscape"
   width="22"
   height="22"
   id="svg2"
   version="1.1"
   inkscape:version="0.91 r13725"
   viewBox="0 0 22 22"
   sodipodi:docname="format-join-node.svg">
  <sodipodi:namedview
     id="base"
     pagecolor="#ffffff"
     bordercolor="#ffffff"
     borderopacity="1.0"
     inkscape:pageopacity="0.0"
     inkscape:pageshadow="2"
     inkscape:zoom="23.283545"
     inkscape:cx="-1.5545771"
     inkscape:cy="11.390332"
     inkscape:document-units="px"
     inkscape:current-layer="layer1"
     showgrid="true"
     inkscape:showpageshadow="false"
     units="px"
     inkscape:window-width="1920"
     inkscape:window-height="1002"
     inkscape:window-x="0"
     inkscape:window-y="26"
     inkscape:window-maximized="1"
     showguides="true">
    <inkscape:grid
       id="grid4120"
       type="xygrid" />
    <sodipodi:guide
       id="guide4126"
       orientation="18,0"
       position="2,20.000017" />
    <sodipodi:guide
       id="guide4128"
       orientation="0,18"
       position="2,2.0000174" />
    <sodipodi:guide
       id="guide4130"
       orientation="-18,0"
       position="20,2.0000174" />
    <sodipodi:guide
       id="guide4132"
       orientation="0,-18"
       position="20,20.000017" />
    <sodipodi:guide
       id="guide4134"
       orientation="16,0"
       position="3,19.000017" />
    <sodipodi:guide
       id="guide4136"
       orientation="0,16"
       position="3,3.0000174" />
    <sodipodi:guide
       id="guide4138"
       orientation="-16,0"
       position="19,3.0000174" />
    <sodipodi:guide
       id="guide4140"
       orientation="0,-16"
       position="19,19.000017" />
    <sodipodi:guide
       id="guide4199"
       orientation="-6,0"
       position="19,13.000017" />
    <sodipodi:guide
       id="guide4201"
       orientation="0,-6.0000172"
       position="19,19.000017" />
  </sodipodi:namedview>
  <defs
     id="defs4" />
  <metadata
     id="metadata7">
    <rdf:RDF>
      <cc:Work
         rdf:about="">
        <dc:format>image/svg+xml</dc:format>
        <dc:type
           rdf:resource="http://purl.org/dc/dcmitype/StillImage" />
        <dc:title />
      </cc:Work>
    </rdf:RDF>
  </metadata>
  <g
     transform="translate(0,-1030.3622)"
     id="layer1"
     inkscape:groupmode="layer"
     inkscape:label="Capa 1">
    <path
       id="rect4191"
       transform="translate(0,1030.3622)"
       d="M 3 3 L 3 6 L 6 6 L 6 5 L 9 5 L 13 5 L 16 5 L 16 6 L 19 6 L 19 3 L 16 3 L 16 4 L 13 4 L 9 4 L 6 4 L 6 3 L 3 3 z M 4 4 L 5 4 L 5 5 L 4 5 L 4 4 z M 17 4 L 18 4 L 18 5 L 17 5 L 17 4 z M 9 15 L 9 17 L 3 17 L 3 18 L 9 18 L 9 19 L 13 19 L 13 18 L 19 18 L 19 17 L 13 17 L 13 15 L 9 15 z M 10 16 L 12 16 L 12 17 L 12 18 L 10 18 L 10 16 z "
       style="opacity:1;fill:#e7ded7;fill-opacity:1;stroke:none" />
    <path
       style="fill:#3498db;fill-opacity:1;fill-rule:evenodd;stroke:none;stroke-width:1px;stroke-linecap:butt;stroke-linejoin:miter;stroke-opacity:1"
       d="m 9,1039.8622 2,3 2,-3 z"
       id="path4133-6-5"
       inkscape:connector-curvature="0"
       sodipodi:nodetypes="cccc" />
  </g>
</svg>
