<?xml version="1.0" encoding="UTF-8" standalone="no"?>
<!-- Created with Inkscape (http://www.inkscape.org/) -->

<svg
   xmlns:dc="http://purl.org/dc/elements/1.1/"
   xmlns:cc="http://creativecommons.org/ns#"
   xmlns:rdf="http://www.w3.org/1999/02/22-rdf-syntax-ns#"
   xmlns:svg="http://www.w3.org/2000/svg"
   xmlns="http://www.w3.org/2000/svg"
   xmlns:sodipodi="http://sodipodi.sourceforge.net/DTD/sodipodi-0.dtd"
   xmlns:inkscape="http://www.inkscape.org/namespaces/inkscape"
   width="22"
   height="22"
   id="svg2"
   version="1.1"
   inkscape:version="0.91 r13725"
   viewBox="0 0 22 22"
   sodipodi:docname="format-text-bold.svg">
  <sodipodi:namedview
     id="base"
     pagecolor="#ffffff"
     bordercolor="#ffffff"
     borderopacity="1.0"
     inkscape:pageopacity="0.0"
     inkscape:pageshadow="2"
     inkscape:zoom="24.20194"
     inkscape:cx="-4.153175"
     inkscape:cy="12.896473"
     inkscape:document-units="px"
     inkscape:current-layer="layer1"
     showgrid="true"
     inkscape:showpageshadow="false"
     units="px"
     inkscape:window-width="1920"
     inkscape:window-height="1002"
     inkscape:window-x="0"
     inkscape:window-y="26"
     inkscape:window-maximized="1"
     showguides="true">
    <inkscape:grid
       id="grid4120"
       type="xygrid" />
    <sodipodi:guide
       id="guide4126"
       orientation="18,0"
       position="2,20.000017" />
    <sodipodi:guide
       id="guide4128"
       orientation="0,18"
       position="2,2.0000174" />
    <sodipodi:guide
       id="guide4130"
       orientation="-18,0"
       position="20,2.0000174" />
    <sodipodi:guide
       id="guide4132"
       orientation="0,-18"
       position="20,20.000017" />
    <sodipodi:guide
       id="guide4134"
       orientation="16,0"
       position="3,19.000017" />
    <sodipodi:guide
       id="guide4136"
       orientation="0,16"
       position="3,3.0000174" />
    <sodipodi:guide
       id="guide4138"
       orientation="-16,0"
       position="19,3.0000174" />
    <sodipodi:guide
       id="guide4140"
       orientation="0,-16"
       position="19,19.000017" />
    <sodipodi:guide
       id="guide4199"
       orientation="-6,0"
       position="19,13.000017" />
    <sodipodi:guide
       id="guide4201"
       orientation="0,-6.0000172"
       position="19,19.000017" />
  </sodipodi:namedview>
  <defs
     id="defs4" />
  <metadata
     id="metadata7">
    <rdf:RDF>
      <cc:Work
         rdf:about="">
        <dc:format>image/svg+xml</dc:format>
        <dc:type
           rdf:resource="http://purl.org/dc/dcmitype/StillImage" />
        <dc:title />
      </cc:Work>
    </rdf:RDF>
  </metadata>
  <g
     transform="translate(0,-1030.3622)"
     id="layer1"
     inkscape:groupmode="layer"
     inkscape:label="Capa 1">
    <path
       id="rect4164"
       d="m 3.5,1033.362 c -0.1713731,0 -0.3353491,0.025 -0.5,0.049 l 0,1.9512 c 1.108,0 2,0.892 2,2 l 0,3 0,5 c 0,1.108 -0.892,2 -2,2 l 0,1.9512 c 0.1646509,0.024 0.3286269,0.049 0.5,0.049 l 1.5,0 4,0 5,0 c 2.769995,0 5,-2.23 5,-5 0,-2.2049 -1.422883,-4.0466 -3.396484,-4.7148 C 16.447639,1039.0093 17,1038.0063 17,1036.862 c 0,-1.939 -1.561,-3.5 -3.5,-3.5 l -4.5,0 -4,0 -1.5,0 z m 5.5,2 2,0 c 1.108,0 2,0.892 2,2 0,1.108 -0.892,2 -2,2 l -2,0 0,-4 z m 0,6 3,0 c 1.662,0 3,1.338 3,3 0,1.662 -1.338,3 -3,3 l -3,0 0,-6 z"
       style="opacity:1;fill:#e7ded7;fill-opacity:1;stroke:none;stroke-opacity:1"
       inkscape:connector-curvature="0" />
  </g>
</svg>
