<?xml version="1.0" encoding="UTF-8" standalone="no"?>
<!-- Created with Inkscape (http://www.inkscape.org/) -->

<svg
   xmlns:dc="http://purl.org/dc/elements/1.1/"
   xmlns:cc="http://creativecommons.org/ns#"
   xmlns:rdf="http://www.w3.org/1999/02/22-rdf-syntax-ns#"
   xmlns:svg="http://www.w3.org/2000/svg"
   xmlns="http://www.w3.org/2000/svg"
   xmlns:sodipodi="http://sodipodi.sourceforge.net/DTD/sodipodi-0.dtd"
   xmlns:inkscape="http://www.inkscape.org/namespaces/inkscape"
   width="22"
   height="22"
   id="svg2"
   version="1.1"
   inkscape:version="0.91 r13725"
   viewBox="0 0 22 22"
   sodipodi:docname="gtk-cdrom.svg">
  <sodipodi:namedview
     id="base"
     pagecolor="#ffffff"
     bordercolor="#ffffff"
     borderopacity="1.0"
     inkscape:pageopacity="0.0"
     inkscape:pageshadow="2"
     inkscape:zoom="32.676067"
     inkscape:cx="7.5863021"
     inkscape:cy="9.8989938"
     inkscape:document-units="px"
     inkscape:current-layer="layer1"
     showgrid="true"
     inkscape:showpageshadow="false"
     units="px"
     inkscape:window-width="1920"
     inkscape:window-height="1002"
     inkscape:window-x="0"
     inkscape:window-y="26"
     inkscape:window-maximized="1">
    <inkscape:grid
       id="grid4101"
       type="xygrid" />
    <sodipodi:guide
       id="guide4107"
       orientation="18,0"
       position="2,20.000017" />
    <sodipodi:guide
       id="guide4109"
       orientation="0,18"
       position="2,2.0000174" />
    <sodipodi:guide
       id="guide4111"
       orientation="-18,0"
       position="20,2.0000174" />
    <sodipodi:guide
       id="guide4113"
       orientation="0,-18"
       position="20,20.000017" />
    <sodipodi:guide
       id="guide4115"
       orientation="16,0"
       position="3,19.000017" />
    <sodipodi:guide
       id="guide4117"
       orientation="0,16"
       position="3,3.0000174" />
    <sodipodi:guide
       id="guide4119"
       orientation="-16,0"
       position="19,3.0000174" />
    <sodipodi:guide
       id="guide4121"
       orientation="0,-16"
       position="19,19.000017" />
  </sodipodi:namedview>
  <defs
     id="defs4" />
  <metadata
     id="metadata7">
    <rdf:RDF>
      <cc:Work
         rdf:about="">
        <dc:format>image/svg+xml</dc:format>
        <dc:type
           rdf:resource="http://purl.org/dc/dcmitype/StillImage" />
        <dc:title />
      </cc:Work>
    </rdf:RDF>
  </metadata>
  <g
     transform="translate(0,-1030.3622)"
     id="layer1"
     inkscape:groupmode="layer"
     inkscape:label="Capa 1">
    <g
       inkscape:label="Capa 1"
       id="layer1-0">
      <path
         sodipodi:nodetypes="ssssssssssssssssssss"
         inkscape:connector-curvature="0"
         style="opacity:1;fill:#e7ded7;fill-opacity:1;stroke:none"
         d="m 11,3 c -4.432,0 -8,3.568 -8,8 0,4.432 3.568,8 8,8 4.432,0 8,-3.568 8,-8 0,-4.432 -3.568,-8 -8,-8 z m 0,1 c 3.878,0 7,3.122 7,7 0,3.878 -3.122,7 -7,7 C 7.122,18 4,14.878 4,11 4,7.122 7.122,4 11,4 Z m 0,5 c -1.1079987,0 -2,0.8920013 -2,2 0,1.107999 0.8920013,2 2,2 1.107999,0 2,-0.892001 2,-2 0,-1.1079987 -0.892001,-2 -2,-2 z m 0,1 c 0.553999,0 1,0.446001 1,1 0,0.553999 -0.446001,1 -1,1 -0.553999,0 -1,-0.446001 -1,-1 0,-0.553999 0.446001,-1 1,-1 z"
         transform="translate(0,1030.3622)"
         id="rect4119" />
    </g>
  </g>
</svg>
