<?xml version="1.0" encoding="UTF-8" standalone="no"?>
<!-- Created with Inkscape (http://www.inkscape.org/) -->

<svg
   xmlns:dc="http://purl.org/dc/elements/1.1/"
   xmlns:cc="http://creativecommons.org/ns#"
   xmlns:rdf="http://www.w3.org/1999/02/22-rdf-syntax-ns#"
   xmlns:svg="http://www.w3.org/2000/svg"
   xmlns="http://www.w3.org/2000/svg"
   xmlns:sodipodi="http://sodipodi.sourceforge.net/DTD/sodipodi-0.dtd"
   xmlns:inkscape="http://www.inkscape.org/namespaces/inkscape"
   width="22"
   height="22"
   id="svg2"
   version="1.1"
   inkscape:version="0.91 r13725"
   viewBox="0 0 22 22"
   sodipodi:docname="hint.svg">
  <sodipodi:namedview
     id="base"
     pagecolor="#ffffff"
     bordercolor="#ffffff"
     borderopacity="1.0"
     inkscape:pageopacity="0.0"
     inkscape:pageshadow="2"
     inkscape:zoom="36.363636"
     inkscape:cx="1.77375"
     inkscape:cy="11"
     inkscape:document-units="px"
     inkscape:current-layer="layer1"
     showgrid="true"
     units="px"
     borderlayer="true"
     inkscape:showpageshadow="false"
     inkscape:window-width="1920"
     inkscape:window-height="1002"
     inkscape:window-x="0"
     inkscape:window-y="26"
     inkscape:window-maximized="1"
     showguides="true"
     inkscape:object-nodes="true">
    <sodipodi:guide
       id="guide4066"
       orientation="18,0"
       position="2,20.000017" />
    <sodipodi:guide
       id="guide4068"
       orientation="0,18"
       position="2,2.0000174" />
    <sodipodi:guide
       id="guide4070"
       orientation="-18,0"
       position="20,2.0000174" />
    <sodipodi:guide
       id="guide4072"
       orientation="0,-18"
       position="20,20.000017" />
    <sodipodi:guide
       id="guide4074"
       orientation="16,0"
       position="3,19.000017" />
    <sodipodi:guide
       id="guide4076"
       orientation="0,16"
       position="3,3.0000174" />
    <sodipodi:guide
       id="guide4078"
       orientation="-16,0"
       position="19,3.0000174" />
    <sodipodi:guide
       id="guide4080"
       orientation="0,-16"
       position="19,19.000017" />
    <inkscape:grid
       id="grid4101"
       type="xygrid" />
    <sodipodi:guide
       id="guide4124"
       orientation="0,-5"
       position="8,19.000017" />
    <sodipodi:guide
       id="guide4241"
       orientation="0,4"
       position="11,3.0000174" />
  </sodipodi:namedview>
  <defs
     id="defs4">
    <clipPath
       id="clipPath4160"
       clipPathUnits="userSpaceOnUse">
      <rect
         y="1023.3622"
         x="7"
         height="1"
         width="1"
         id="rect4162"
         style="opacity:1;fill:#f2f2f2;fill-opacity:1;stroke:none;stroke-opacity:1" />
    </clipPath>
  </defs>
  <metadata
     id="metadata7">
    <rdf:RDF>
      <cc:Work
         rdf:about="">
        <dc:format>image/svg+xml</dc:format>
        <dc:type
           rdf:resource="http://purl.org/dc/dcmitype/StillImage" />
        <dc:title />
      </cc:Work>
    </rdf:RDF>
  </metadata>
  <g
     transform="translate(0,-1030.3622)"
     id="layer1"
     inkscape:groupmode="layer"
     inkscape:label="Capa 1">
    <path
       id="path3354"
       transform="translate(0,1030.3622)"
       d="M 11 6 A 10 9.9999781 0 0 0 2.2871094 11.119141 C 2.4663699 11.420241 2.7209984 11.668644 3.0273438 11.839844 A 9 8.99998 0 0 1 11 7 A 4 4 0 0 0 7 11 A 4 4 0 0 0 7.3574219 12.642578 L 8.1308594 11.869141 A 3 3 0 0 1 8 11 A 3 3 0 0 1 11 8 A 3 3 0 0 1 11.869141 8.1308594 L 12.640625 7.359375 A 4 4 0 0 0 11.34375 7.0175781 A 9 8.99998 0 0 1 12.796875 7.203125 L 13.640625 6.359375 A 10 9.9999781 0 0 0 11 6 z M 16.404297 7.5957031 L 15.675781 8.3242188 A 9 8.99998 0 0 1 18.974609 11.837891 C 19.282742 11.665091 19.539718 11.415428 19.71875 11.111328 A 10 9.9999781 0 0 0 16.404297 7.5957031 z M 11 9 A 2 2 0 0 0 9 11 L 11 9 z M 14.642578 9.3574219 L 13.869141 10.130859 A 3 3 0 0 1 14 11 A 3 3 0 0 1 11 14 A 3 3 0 0 1 10.130859 13.869141 L 9.3574219 14.642578 A 4 4 0 0 0 11 15 A 4 4 0 0 0 15 11 A 4 4 0 0 0 14.642578 9.3574219 z M 13 11 L 11 13 A 2 2 0 0 0 13 11 z "
       style="fill:#d6d0cb;fill-opacity:1" />
    <path
       sodipodi:nodetypes="ccccccc"
       id="path41"
       d="M 18.292969,1033.3622 3,1048.6552 3.7070312,1049.3622 19,1034.0692 Z M 1,1043.3622 c -0.66666667,6 -0.33333333,3 0,0 z"
       style="fill:#d6d0cb;fill-opacity:1;fill-rule:evenodd;stroke:none;stroke-width:1.30120218px;stroke-linecap:butt;stroke-linejoin:miter;stroke-opacity:1"
       inkscape:connector-curvature="0" />
  </g>
</svg>
