<?xml version="1.0" encoding="UTF-8" standalone="no"?>
<!-- Created with Inkscape (http://www.inkscape.org/) -->

<svg
   xmlns:dc="http://purl.org/dc/elements/1.1/"
   xmlns:cc="http://creativecommons.org/ns#"
   xmlns:rdf="http://www.w3.org/1999/02/22-rdf-syntax-ns#"
   xmlns:svg="http://www.w3.org/2000/svg"
   xmlns="http://www.w3.org/2000/svg"
   xmlns:sodipodi="http://sodipodi.sourceforge.net/DTD/sodipodi-0.dtd"
   xmlns:inkscape="http://www.inkscape.org/namespaces/inkscape"
   width="22"
   height="22"
   id="svg2"
   version="1.1"
   inkscape:version="0.91 r13725"
   sodipodi:docname="im-identi.ca.svg">
  <sodipodi:namedview
     id="base"
     pagecolor="#ffffff"
     bordercolor="#ffffff"
     borderopacity="1.0"
     inkscape:pageopacity="0.0"
     inkscape:pageshadow="2"
     inkscape:zoom="33.262207"
     inkscape:cx="5.5396837"
     inkscape:cy="9.6842435"
     inkscape:document-units="px"
     inkscape:current-layer="layer1"
     showgrid="true"
     inkscape:window-width="1920"
     inkscape:window-height="1002"
     inkscape:window-x="0"
     inkscape:window-y="26"
     inkscape:window-maximized="1"
     inkscape:showpageshadow="false"
     showguides="true">
    <inkscape:grid
       id="grid4109"
       type="xygrid" />
    <sodipodi:guide
       id="guide4113"
       orientation="18,0"
       position="2,20.000017" />
    <sodipodi:guide
       id="guide4115"
       orientation="0,18"
       position="2,2.0000174" />
    <sodipodi:guide
       id="guide4117"
       orientation="-18,0"
       position="20,2.0000174" />
    <sodipodi:guide
       id="guide4119"
       orientation="0,-18"
       position="20,20.000017" />
    <sodipodi:guide
       id="guide4121"
       orientation="16,0"
       position="3,19.000017" />
    <sodipodi:guide
       id="guide4123"
       orientation="0,16"
       position="3,3.0000174" />
    <sodipodi:guide
       id="guide4125"
       orientation="-16,0"
       position="19,3.0000174" />
    <sodipodi:guide
       id="guide4127"
       orientation="0,-16"
       position="19,19.000017" />
  </sodipodi:namedview>
  <defs
     id="defs4" />
  <metadata
     id="metadata7">
    <rdf:RDF>
      <cc:Work
         rdf:about="">
        <dc:format>image/svg+xml</dc:format>
        <dc:type
           rdf:resource="http://purl.org/dc/dcmitype/StillImage" />
        <dc:title />
      </cc:Work>
    </rdf:RDF>
  </metadata>
  <g
     transform="translate(0,-1030.3622)"
     id="layer1"
     inkscape:groupmode="layer"
     inkscape:label="Capa 1">
    <path
       id="rect4108"
       transform="translate(0,1030.3622)"
       d="M 10 3 C 6.676 3 4 5.676 4 9 L 4 13 L 3 17 L 7 15 L 10 15 C 10.818565 15 11.596956 14.835293 12.306641 14.541016 C 12.177653 14.230639 12.102202 13.895445 12.054688 13.550781 C 11.427016 13.833532 10.735425 14 10 14 L 6.6757812 14 L 5 14 L 5 12.324219 L 5 12 L 5 9 C 5 6.23 7.23 4 10 4 C 12.77 4 15 6.23 15 9 C 15 9.0475903 14.993494 9.093362 14.992188 9.140625 C 15.315539 9.0568158 15.64972 9 16 9 C 16 5.676 13.324 3 10 3 z M 16 10 C 14.338 10 13 11.338 13 13 C 13 13.978064 13.47132 14.833863 14.191406 15.380859 L 16 19 L 17.808594 15.380859 C 18.52868 14.833863 19 13.978064 19 13 C 19 11.338 17.662 10 16 10 z M 16 11 C 17.108 11 18 11.892 18 13 C 18 14.108 17.108 15 16 15 C 14.892 15 14 14.108 14 13 C 14 11.892 14.892 11 16 11 z M 6 11.978516 L 6 12 L 6.0175781 12 C 6.0119981 11.99 6.00554 11.986516 6 11.978516 z "
       style="opacity:1;fill:#e7ded7;fill-opacity:1;stroke:none" />
  </g>
</svg>
