<?xml version="1.0" encoding="UTF-8" standalone="no"?>
<!-- Created with Inkscape (http://www.inkscape.org/) -->

<svg
   xmlns:dc="http://purl.org/dc/elements/1.1/"
   xmlns:cc="http://creativecommons.org/ns#"
   xmlns:rdf="http://www.w3.org/1999/02/22-rdf-syntax-ns#"
   xmlns:svg="http://www.w3.org/2000/svg"
   xmlns="http://www.w3.org/2000/svg"
   xmlns:sodipodi="http://sodipodi.sourceforge.net/DTD/sodipodi-0.dtd"
   xmlns:inkscape="http://www.inkscape.org/namespaces/inkscape"
   width="22"
   height="22"
   id="svg3760"
   version="1.1"
   inkscape:version="0.91 r13725"
   sodipodi:docname="insert-image.svg">
  <sodipodi:namedview
     id="base"
     pagecolor="#ffffff"
     bordercolor="#ffffff"
     borderopacity="1.0"
     inkscape:pageopacity="0.0"
     inkscape:pageshadow="2"
     inkscape:zoom="16.631104"
     inkscape:cx="6.0658066"
     inkscape:cy="12.270818"
     inkscape:document-units="px"
     inkscape:current-layer="layer1"
     showgrid="true"
     fit-margin-top="0"
     fit-margin-left="0"
     fit-margin-right="0"
     fit-margin-bottom="0"
     inkscape:window-width="1920"
     inkscape:window-height="1002"
     inkscape:window-x="0"
     inkscape:window-y="26"
     inkscape:window-maximized="1"
     inkscape:showpageshadow="false">
    <sodipodi:guide
       id="guide4116"
       orientation="22,0"
       position="4.1796875e-06,21.999997" />
    <sodipodi:guide
       id="guide4118"
       orientation="0,22"
       position="4.1796875e-06,-2.6953124e-06" />
    <sodipodi:guide
       id="guide4120"
       orientation="-22,0"
       position="22.000004,-2.6953124e-06" />
    <sodipodi:guide
       id="guide4122"
       orientation="0,-22"
       position="22.000004,21.999997" />
    <sodipodi:guide
       id="guide4124"
       orientation="18,0"
       position="2.0000042,19.999997" />
    <sodipodi:guide
       id="guide4128"
       orientation="-18,0"
       position="20.000004,1.9999973" />
    <sodipodi:guide
       id="guide4130"
       orientation="0,-18"
       position="20.000004,19.999997" />
    <sodipodi:guide
       id="guide4132"
       orientation="16,0"
       position="3.0000042,18.999997" />
    <sodipodi:guide
       id="guide4134"
       orientation="0,16"
       position="3.0000042,2.9999973" />
    <sodipodi:guide
       id="guide4136"
       orientation="-16,0"
       position="19.000004,2.9999973" />
    <sodipodi:guide
       id="guide4138"
       orientation="0,-16"
       position="19.000004,18.999997" />
    <inkscape:grid
       id="grid4140"
       type="xygrid" />
  </sodipodi:namedview>
  <defs
     id="defs3762" />
  <metadata
     id="metadata3765">
    <rdf:RDF>
      <cc:Work
         rdf:about="">
        <dc:format>image/svg+xml</dc:format>
        <dc:type
           rdf:resource="http://purl.org/dc/dcmitype/StillImage" />
        <dc:title />
      </cc:Work>
    </rdf:RDF>
  </metadata>
  <g
     transform="translate(-553.72253,-583.11926)"
     id="layer1"
     inkscape:groupmode="layer"
     inkscape:label="Capa 1">
    <path
       id="rect4112"
       transform="translate(553.72253,583.11926)"
       d="M 3 3 L 3 4 L 3 19 L 4 19 L 15 19 L 12 16 L 15 13 L 17 13 L 16 12 L 14 10 L 10 14 L 9 13 L 4.1484375 17.851562 L 4 18 L 4 4 L 18 4 L 18 12 L 19 12 L 19 4 L 19 3 L 4 3 L 3 3 z M 7 5 C 5.892 5 5 5.892 5 7 C 5 8.108 5.892 9 7 9 C 8.108 9 9 8.108 9 7 C 9 5.892 8.108 5 7 5 z M 16 14 L 16 16 L 14 16 L 14 17 L 16 17 L 16 19 L 17 19 L 17 17 L 19 17 L 19 16 L 17 16 L 17 14 L 16 14 z "
       style="opacity:1;fill:#e7ded7;fill-opacity:1;stroke:none" />
  </g>
</svg>
