<?xml version="1.0" encoding="UTF-8" standalone="no"?>
<!-- Created with Inkscape (http://www.inkscape.org/) -->

<svg
   xmlns:dc="http://purl.org/dc/elements/1.1/"
   xmlns:cc="http://creativecommons.org/ns#"
   xmlns:rdf="http://www.w3.org/1999/02/22-rdf-syntax-ns#"
   xmlns:svg="http://www.w3.org/2000/svg"
   xmlns="http://www.w3.org/2000/svg"
   xmlns:sodipodi="http://sodipodi.sourceforge.net/DTD/sodipodi-0.dtd"
   xmlns:inkscape="http://www.inkscape.org/namespaces/inkscape"
   width="22"
   height="22"
   id="svg2"
   version="1.1"
   inkscape:version="0.91 r13725"
   viewBox="0 0 22 22"
   sodipodi:docname="kdenlive-hide-video.svg">
  <sodipodi:namedview
     id="base"
     pagecolor="#ffffff"
     bordercolor="#ffffff"
     borderopacity="1.0"
     inkscape:pageopacity="0.0"
     inkscape:pageshadow="2"
     inkscape:zoom="35.663085"
     inkscape:cx="8.0272682"
     inkscape:cy="7.4016049"
     inkscape:document-units="px"
     inkscape:current-layer="layer1"
     showgrid="true"
     units="px"
     borderlayer="true"
     inkscape:showpageshadow="false"
     inkscape:window-width="1920"
     inkscape:window-height="1002"
     inkscape:window-x="0"
     inkscape:window-y="26"
     inkscape:window-maximized="1"
     showguides="true"
     inkscape:snap-bbox="true"
     inkscape:object-nodes="true">
    <sodipodi:guide
       id="guide4066"
       orientation="18,0"
       position="2,20.000017" />
    <sodipodi:guide
       id="guide4068"
       orientation="0,18"
       position="2,2.0000174" />
    <sodipodi:guide
       id="guide4070"
       orientation="-18,0"
       position="20,2.0000174" />
    <sodipodi:guide
       id="guide4072"
       orientation="0,-18"
       position="20,20.000017" />
    <sodipodi:guide
       id="guide4074"
       orientation="16,0"
       position="3,19.000017" />
    <sodipodi:guide
       id="guide4076"
       orientation="0,16"
       position="3,3.0000174" />
    <sodipodi:guide
       id="guide4078"
       orientation="-16,0"
       position="19,3.0000174" />
    <sodipodi:guide
       id="guide4080"
       orientation="0,-16"
       position="19,19.000017" />
    <inkscape:grid
       id="grid4101"
       type="xygrid" />
    <sodipodi:guide
       id="guide4124"
       orientation="0,-5"
       position="8,19.000017" />
    <sodipodi:guide
       id="guide4241"
       orientation="0,4"
       position="11,3.0000174" />
  </sodipodi:namedview>
  <defs
     id="defs4" />
  <metadata
     id="metadata7">
    <rdf:RDF>
      <cc:Work
         rdf:about="">
        <dc:format>image/svg+xml</dc:format>
        <dc:type
           rdf:resource="http://purl.org/dc/dcmitype/StillImage" />
        <dc:title />
      </cc:Work>
    </rdf:RDF>
  </metadata>
  <g
     transform="translate(0,-1030.3622)"
     id="layer1"
     inkscape:groupmode="layer"
     inkscape:label="Capa 1">
    <path
       sodipodi:nodetypes="ccccccccccccccccccccccccccccccccc"
       inkscape:connector-curvature="0"
       id="rect3009"
       transform="translate(0,1030.3622)"
       d="M 3,4 3,16.878906 4.8789062,15 4,15 l 0,-1 1,0 0,0.878906 1,-1 L 6,12 l 2,0 2,-2 -4,0 0,-5 8.878906,0 1,-1 L 6,4 4,4 Z M 4,5 5,5 5,6 4,6 Z M 4,8 5,8 5,9 4,9 Z m 0,3 1,0 0,1 -1,0 z"
       style="fill:#e7ded7;fill-opacity:1;stroke:none" />
    <path
       sodipodi:nodetypes="ccccccccccccccccccccccccccccccccc"
       inkscape:connector-curvature="0"
       id="rect3009-4"
       transform="translate(0,1030.3622)"
       d="M 19,5.1230469 17.123047,7 18,7 l 0,1 -1,0 0,-0.8769531 -1,1 L 16,10 l -2,0 -2,2 4,0 0,5 -8.8769531,0 -1,1 L 16,18 l 2,0 1,0 z M 17,10 l 1,0 0,1 -1,0 z m 0,3 1,0 0,1 -1,0 z m 0,3 1,0 0,1 -1,0 z"
       style="fill:#e7ded7;fill-opacity:1;stroke:none" />
    <path
       id="rect3343"
       transform="translate(0,1030.3622)"
       d="M 18.292969 3 L 3 18.292969 L 3.7070312 19 L 19 3.7070312 L 18.292969 3 z "
       style="opacity:1;fill:#e7ded7;fill-opacity:1;stroke:none;stroke-width:0.1;stroke-linecap:round;stroke-linejoin:miter;stroke-miterlimit:4;stroke-dasharray:none;stroke-opacity:0.29943501" />
  </g>
</svg>
