<?xml version="1.0" encoding="UTF-8" standalone="no"?>
<!-- Created with Inkscape (http://www.inkscape.org/) -->

<svg
   xmlns:dc="http://purl.org/dc/elements/1.1/"
   xmlns:cc="http://creativecommons.org/ns#"
   xmlns:rdf="http://www.w3.org/1999/02/22-rdf-syntax-ns#"
   xmlns:svg="http://www.w3.org/2000/svg"
   xmlns="http://www.w3.org/2000/svg"
   xmlns:sodipodi="http://sodipodi.sourceforge.net/DTD/sodipodi-0.dtd"
   xmlns:inkscape="http://www.inkscape.org/namespaces/inkscape"
   width="22"
   height="22"
   id="svg2"
   version="1.1"
   inkscape:version="0.91 r13725"
   viewBox="0 0 22 22"
   sodipodi:docname="kt-queue-manager.svg">
  <sodipodi:namedview
     id="base"
     pagecolor="#ffffff"
     bordercolor="#ffffff"
     borderopacity="1.0"
     inkscape:pageopacity="0.0"
     inkscape:pageshadow="2"
     inkscape:zoom="32"
     inkscape:cx="6.571079"
     inkscape:cy="11.088343"
     inkscape:document-units="px"
     inkscape:current-layer="layer1"
     showgrid="true"
     units="px"
     borderlayer="true"
     inkscape:showpageshadow="false"
     inkscape:window-width="1920"
     inkscape:window-height="1002"
     inkscape:window-x="0"
     inkscape:window-y="26"
     inkscape:window-maximized="1"
     inkscape:object-nodes="true"
     inkscape:snap-bbox="true">
    <sodipodi:guide
       id="guide4066"
       orientation="18,0"
       position="2,20.000017" />
    <sodipodi:guide
       id="guide4068"
       orientation="0,18"
       position="2,2.0000174" />
    <sodipodi:guide
       id="guide4070"
       orientation="-18,0"
       position="20,2.0000174" />
    <sodipodi:guide
       id="guide4072"
       orientation="0,-18"
       position="20,20.000017" />
    <sodipodi:guide
       id="guide4074"
       orientation="16,0"
       position="3,19.000017" />
    <sodipodi:guide
       id="guide4076"
       orientation="0,16"
       position="3,3.0000174" />
    <sodipodi:guide
       id="guide4078"
       orientation="-16,0"
       position="19,3.0000174" />
    <sodipodi:guide
       id="guide4080"
       orientation="0,-16"
       position="19,19.000017" />
    <inkscape:grid
       id="grid4101"
       type="xygrid" />
    <sodipodi:guide
       id="guide4124"
       orientation="0,-5"
       position="8,19.000017" />
    <sodipodi:guide
       id="guide4241"
       orientation="0,4"
       position="11,3.0000174" />
  </sodipodi:namedview>
  <defs
     id="defs4" />
  <metadata
     id="metadata7">
    <rdf:RDF>
      <cc:Work
         rdf:about="">
        <dc:format>image/svg+xml</dc:format>
        <dc:type
           rdf:resource="http://purl.org/dc/dcmitype/StillImage" />
        <dc:title />
      </cc:Work>
    </rdf:RDF>
  </metadata>
  <g
     transform="translate(0,-1030.3622)"
     id="layer1"
     inkscape:groupmode="layer"
     inkscape:label="Capa 1">
    <path
       id="path4174"
       d="m 10,1033.3622 0,1 9,0 0,-1 -9,0 z m 0,2 0,1 6,0 0,-1 -6,0 z m 0,4 0,1 9,0 0,-1 -9,0 z m 0,2 0,1 2,0 0,-1 -2,0 z m 0,4 0,1 9,0 0,-1 -9,0 z m 0,2 0,1 6,0 0,-1 -6,0 z m 7,1 0,1 2,0 0,-1 -2,0 z"
       style="opacity:1;fill:#e7ded7;fill-opacity:1;stroke:none"
       inkscape:connector-curvature="0" />
    <path
       id="rect2994"
       d="m 4,1033.3622 0,1 1,0 0,2 -1,0 0,1 3,0 0,-1 -1,0 0,-2 1,0 0,-1 -3,0 z m -1,6 0,1 1,0 0,2 -1,0 0,1 5,0 0,-1 -1,0 0,-2 1,0 0,-1 -5,0 z m 2,1 1,0 0,2 -1,0 0,-2 z"
       style="color:#000000;display:inline;overflow:visible;visibility:visible;fill:#3498db;fill-opacity:1;fill-rule:nonzero;stroke:none;stroke-width:1;marker:none;enable-background:accumulate"
       inkscape:connector-curvature="0" />
  </g>
</svg>
