<?xml version="1.0" encoding="UTF-8" standalone="no"?>
<!-- Created with Inkscape (http://www.inkscape.org/) -->

<svg
   xmlns:dc="http://purl.org/dc/elements/1.1/"
   xmlns:cc="http://creativecommons.org/ns#"
   xmlns:rdf="http://www.w3.org/1999/02/22-rdf-syntax-ns#"
   xmlns:svg="http://www.w3.org/2000/svg"
   xmlns="http://www.w3.org/2000/svg"
   xmlns:sodipodi="http://sodipodi.sourceforge.net/DTD/sodipodi-0.dtd"
   xmlns:inkscape="http://www.inkscape.org/namespaces/inkscape"
   width="22"
   height="22"
   id="svg2"
   version="1.1"
   inkscape:version="0.91 r13725"
   viewBox="0 0 22 22"
   sodipodi:docname="kt-stop-all.svg">
  <sodipodi:namedview
     id="base"
     pagecolor="#ffffff"
     bordercolor="#ffffff"
     borderopacity="1.0"
     inkscape:pageopacity="0.0"
     inkscape:pageshadow="2"
     inkscape:zoom="22.627417"
     inkscape:cx="4.6817781"
     inkscape:cy="15.864858"
     inkscape:document-units="px"
     inkscape:current-layer="layer1"
     showgrid="true"
     units="px"
     borderlayer="true"
     inkscape:showpageshadow="false"
     inkscape:window-width="1920"
     inkscape:window-height="1002"
     inkscape:window-x="0"
     inkscape:window-y="26"
     inkscape:window-maximized="1"
     inkscape:object-nodes="true"
     inkscape:snap-bbox="true">
    <sodipodi:guide
       id="guide4066"
       orientation="18,0"
       position="2,20.000017" />
    <sodipodi:guide
       id="guide4068"
       orientation="0,18"
       position="2,2.0000174" />
    <sodipodi:guide
       id="guide4070"
       orientation="-18,0"
       position="20,2.0000174" />
    <sodipodi:guide
       id="guide4072"
       orientation="0,-18"
       position="20,20.000017" />
    <sodipodi:guide
       id="guide4074"
       orientation="16,0"
       position="3,19.000017" />
    <sodipodi:guide
       id="guide4076"
       orientation="0,16"
       position="3,3.0000174" />
    <sodipodi:guide
       id="guide4078"
       orientation="-16,0"
       position="19,3.0000174" />
    <sodipodi:guide
       id="guide4080"
       orientation="0,-16"
       position="19,19.000017" />
    <inkscape:grid
       id="grid4101"
       type="xygrid" />
    <sodipodi:guide
       id="guide4124"
       orientation="0,-5"
       position="8,19.000017" />
    <sodipodi:guide
       id="guide4241"
       orientation="0,4"
       position="11,3.0000174" />
  </sodipodi:namedview>
  <defs
     id="defs4" />
  <metadata
     id="metadata7">
    <rdf:RDF>
      <cc:Work
         rdf:about="">
        <dc:format>image/svg+xml</dc:format>
        <dc:type
           rdf:resource="http://purl.org/dc/dcmitype/StillImage" />
        <dc:title />
      </cc:Work>
    </rdf:RDF>
  </metadata>
  <g
     transform="translate(0,-1030.3622)"
     id="layer1"
     inkscape:groupmode="layer"
     inkscape:label="Capa 1">
    <rect
       ry="0"
       y="1038.3622"
       x="8"
       height="6"
       width="6"
       id="rect3274-4"
       style="fill:#e7ded7;fill-opacity:1;stroke:none" />
    <path
       id="rect3356-1"
       transform="translate(0,1030.3622)"
       d="M 11 3 C 6.568 3 3 6.568 3 11 C 3 15.432 6.568 19 11 19 C 11.339398 19 11.672624 18.976442 12 18.933594 L 12 17.925781 C 11.67354 17.973388 11.340107 18 11 18 C 7.122 18 4 14.878 4 11 C 4 7.122 7.122 4 11 4 C 14.878 4 18 7.122 18 11 C 18 11.6962 17.894565 12.3662 17.707031 13 L 18.740234 13 C 18.903948 12.3603 19 11.6921 19 11 C 19 6.568 15.432 3 11 3 z "
       style="fill:#e7ded7;fill-opacity:1;stroke:none" />
    <path
       id="rect4169"
       transform="translate(0,1030.3622)"
       d="M 13 18 L 13 19 L 14 19 L 19 19 L 19 18 L 14 18 L 13 18 z "
       style="fill:#e7ded7;fill-opacity:1;stroke:none" />
    <rect
       y="1046.3622"
       x="14"
       height="1"
       width="5"
       id="rect4171"
       style="fill:#e7ded7;fill-opacity:1;stroke:none" />
    <path
       id="rect4173"
       transform="translate(0,1030.3622)"
       d="M 15 14 L 15 15 L 19 15 L 19 14 L 15 14 z "
       style="fill:#e7ded7;fill-opacity:1;stroke:none" />
  </g>
</svg>
