<?xml version="1.0" encoding="UTF-8" standalone="no"?>
<!-- Created with Inkscape (http://www.inkscape.org/) -->

<svg
   xmlns:dc="http://purl.org/dc/elements/1.1/"
   xmlns:cc="http://creativecommons.org/ns#"
   xmlns:rdf="http://www.w3.org/1999/02/22-rdf-syntax-ns#"
   xmlns:svg="http://www.w3.org/2000/svg"
   xmlns="http://www.w3.org/2000/svg"
   xmlns:sodipodi="http://sodipodi.sourceforge.net/DTD/sodipodi-0.dtd"
   xmlns:inkscape="http://www.inkscape.org/namespaces/inkscape"
   width="22"
   height="22"
   id="svg3869"
   version="1.1"
   inkscape:version="0.91 r13725"
   sodipodi:docname="mail-forward.svg">
  <sodipodi:namedview
     id="base"
     pagecolor="#ffffff"
     bordercolor="#ffffff"
     borderopacity="1.0"
     inkscape:pageopacity="0.0"
     inkscape:pageshadow="2"
     inkscape:zoom="22.98097"
     inkscape:cx="13.455116"
     inkscape:cy="7.7159259"
     inkscape:document-units="px"
     inkscape:current-layer="layer1"
     showgrid="true"
     fit-margin-top="0"
     fit-margin-left="0"
     fit-margin-right="0"
     fit-margin-bottom="0"
     inkscape:window-width="1920"
     inkscape:window-height="1002"
     inkscape:window-x="0"
     inkscape:window-y="26"
     inkscape:window-maximized="1"
     inkscape:showpageshadow="false">
    <inkscape:grid
       id="grid4132"
       type="xygrid" />
    <sodipodi:guide
       id="guide4138"
       orientation="18,0"
       position="2,20.000017" />
    <sodipodi:guide
       id="guide4140"
       orientation="0,18"
       position="2,2.0000174" />
    <sodipodi:guide
       id="guide4142"
       orientation="-18,0"
       position="20,2.0000174" />
    <sodipodi:guide
       id="guide4144"
       orientation="0,-18"
       position="20,20.000017" />
    <sodipodi:guide
       id="guide4146"
       orientation="16,0"
       position="3,19.000017" />
    <sodipodi:guide
       id="guide4148"
       orientation="0,16"
       position="3,3.0000174" />
    <sodipodi:guide
       id="guide4150"
       orientation="-16,0"
       position="19,3.0000174" />
    <sodipodi:guide
       id="guide4152"
       orientation="0,-16"
       position="19,19.000017" />
    <sodipodi:guide
       id="guide4181"
       orientation="6,0"
       position="0,9.0000174" />
    <sodipodi:guide
       id="guide4183"
       orientation="0,22"
       position="0,3.0000174" />
    <sodipodi:guide
       id="guide4185"
       orientation="-6,0"
       position="22,3.0000174" />
    <sodipodi:guide
       id="guide4193"
       orientation="16,0"
       position="-1,19.000017" />
    <sodipodi:guide
       id="guide4195"
       orientation="0,12"
       position="-1,3.0000174" />
    <sodipodi:guide
       id="guide4197"
       orientation="-16,0"
       position="11,3.0000174" />
    <sodipodi:guide
       id="guide4199"
       orientation="0,-12"
       position="11,19.000017" />
    <sodipodi:guide
       id="guide4223"
       orientation="-1.414063,0"
       position="11,9.048828" />
    <sodipodi:guide
       id="guide4227"
       orientation="0,-1.4140625"
       position="2.4628906,19" />
    <sodipodi:guide
       id="guide4233"
       orientation="-1.41406,0"
       position="11,9.04883" />
    <sodipodi:guide
       id="guide4237"
       orientation="0,1.41406"
       position="19.53711,19" />
  </sodipodi:namedview>
  <defs
     id="defs3871" />
  <metadata
     id="metadata3874">
    <rdf:RDF>
      <cc:Work
         rdf:about="">
        <dc:format>image/svg+xml</dc:format>
        <dc:type
           rdf:resource="http://purl.org/dc/dcmitype/StillImage" />
        <dc:title />
      </cc:Work>
    </rdf:RDF>
  </metadata>
  <g
     transform="translate(-326,-534.3622)"
     id="layer1"
     inkscape:groupmode="layer"
     inkscape:label="Capa 1">
    <path
       id="rect4144"
       transform="translate(326,534.3622)"
       d="M 1 3 L 1 4 L 1 12 L 1 18 L 1 18.414062 L 1 19 L 2 19 L 8 19 L 14 19 L 14 18 L 8 18 L 2 18 L 2 17.414062 L 2.4628906 16.951172 L 8.7304688 10.683594 L 10.183594 12.134766 L 10.998047 12.949219 L 11 12.949219 L 11.816406 12.134766 L 13.269531 10.683594 L 14.585938 12 L 16 12 L 13.976562 9.9765625 L 19.728516 4.2226562 L 19.951172 4 L 20 4 L 20 4.2226562 L 20 12 L 21 12 L 21 3 L 20.951172 3 L 20 3 L 19.537109 3 L 2.4628906 3 L 2 3 L 1 3 z M 2 4 L 2.0488281 4 L 2.2714844 4.2226562 L 8.0234375 9.9765625 L 2 16 L 2 12 L 2 4.2226562 L 2 4 z M 3.4628906 4 L 18.537109 4 L 11 11.537109 L 3.4628906 4 z "
       style="opacity:1;fill:#e7ded7;fill-opacity:1;stroke:none;stroke-width:2.79999995;stroke-miterlimit:4;stroke-dasharray:none;stroke-opacity:0.55026455" />
    <path
       id="rect4071"
       d="m 347.207,549.8622 -0.207,0.20703 -3.293,3.29297 -0.707,-0.70703 2.2929,-2.29297 -4.2929,0 0,-1 4.2929,0 -2.2929,-2.29297 0.707,-0.70703 3.293,3.29297 0.207,0.20703 z"
       style="fill:#e7ded7;fill-opacity:1;stroke:none"
       inkscape:connector-curvature="0" />
  </g>
</svg>
