<?xml version="1.0" encoding="UTF-8" standalone="no"?>
<!-- Created with Inkscape (http://www.inkscape.org/) -->

<svg
   xmlns:dc="http://purl.org/dc/elements/1.1/"
   xmlns:cc="http://creativecommons.org/ns#"
   xmlns:rdf="http://www.w3.org/1999/02/22-rdf-syntax-ns#"
   xmlns:svg="http://www.w3.org/2000/svg"
   xmlns="http://www.w3.org/2000/svg"
   xmlns:sodipodi="http://sodipodi.sourceforge.net/DTD/sodipodi-0.dtd"
   xmlns:inkscape="http://www.inkscape.org/namespaces/inkscape"
   width="24"
   height="24"
   id="svg2"
   version="1.1"
   inkscape:version="0.91 r13725"
   viewBox="0 0 24 24"
   sodipodi:docname="media-playlist-shuffle.svg">
  <sodipodi:namedview
     id="base"
     pagecolor="#ffffff"
     bordercolor="#ffffff"
     borderopacity="1.0"
     inkscape:pageopacity="0.0"
     inkscape:pageshadow="2"
     inkscape:zoom="33.683996"
     inkscape:cx="9.7301192"
     inkscape:cy="11.685741"
     inkscape:document-units="px"
     inkscape:current-layer="layer1"
     showgrid="true"
     inkscape:showpageshadow="false"
     borderlayer="true"
     inkscape:window-width="1920"
     inkscape:window-height="1002"
     inkscape:window-x="0"
     inkscape:window-y="26"
     inkscape:window-maximized="1"
     units="px"
     fit-margin-top="0"
     fit-margin-left="0"
     fit-margin-right="0"
     fit-margin-bottom="0"
     inkscape:snap-bbox="true"
     inkscape:object-nodes="true"
     inkscape:snap-global="true">
    <sodipodi:guide
       id="guide4085"
       orientation="18,0"
       position="3,21" />
    <sodipodi:guide
       id="guide4087"
       orientation="0,18"
       position="3,3" />
    <sodipodi:guide
       id="guide4089"
       orientation="-18,0"
       position="21,3" />
    <sodipodi:guide
       id="guide4091"
       orientation="0,-18"
       position="21,21" />
    <sodipodi:guide
       id="guide4093"
       orientation="16,0"
       position="4,20" />
    <sodipodi:guide
       id="guide4095"
       orientation="0,16"
       position="4,4" />
    <sodipodi:guide
       id="guide4097"
       orientation="-16,0"
       position="20,4" />
    <sodipodi:guide
       id="guide4099"
       orientation="0,-16"
       position="20,20" />
    <inkscape:grid
       originy="0.99998262px"
       originx="1px"
       id="grid4101"
       type="xygrid" />
    <sodipodi:guide
       id="guide4123"
       orientation="16,0"
       position="4,20" />
    <sodipodi:guide
       id="guide4125"
       orientation="0,2.000001"
       position="4,4" />
    <sodipodi:guide
       id="guide4127"
       orientation="-16,0"
       position="5,20" />
    <sodipodi:guide
       id="guide4129"
       orientation="0,-2.000001"
       position="6.000001,20" />
    <sodipodi:guide
       id="guide4131"
       orientation="16,0"
       position="19,20" />
    <sodipodi:guide
       id="guide4133"
       orientation="0,2"
       position="18,4" />
    <sodipodi:guide
       id="guide4135"
       orientation="-16,0"
       position="20,4" />
    <sodipodi:guide
       id="guide4137"
       orientation="0,-2"
       position="20,20" />
  </sodipodi:namedview>
  <defs
     id="defs4" />
  <metadata
     id="metadata7">
    <rdf:RDF>
      <cc:Work
         rdf:about="">
        <dc:format>image/svg+xml</dc:format>
        <dc:type
           rdf:resource="http://purl.org/dc/dcmitype/StillImage" />
        <dc:title />
      </cc:Work>
    </rdf:RDF>
  </metadata>
  <g
     transform="translate(1,-1029.3622)"
     id="layer1"
     inkscape:groupmode="layer"
     inkscape:label="Capa 1">
    <path
       id="rect3356-8"
       d="m 11,1033.3622 c -4.432,0 -8,3.568 -8,8 0,4.432 3.568,8 8,8 4.432,0 8,-3.568 8,-8 0,-4.432 -3.568,-8 -8,-8 z m 0,1 c 3.878,0 7,3.122 7,7 0,3.878 -3.122,7 -7,7 -3.878,0 -7,-3.122 -7,-7 0,-3.878 3.122,-7 7,-7 z"
       style="fill:#d6d0cb;fill-opacity:1;stroke:none"
       inkscape:connector-curvature="0" />
    <path
       inkscape:connector-curvature="0"
       id="rect4155-8"
       d="m 14,1037.3622 0,1 -2.185547,0 -1.814453,2.2383 -1.814453,-2.2383 -2.185547,0 0,1 1.7597656,0 c -9.455e-4,0.01 0.8357924,1.046 1.6113284,2.0137 l -1.6113284,1.9863 -1.7597656,0 0,1 2.238281,0 c 0,0 0.893116,-1.1189 1.761719,-2.2012 0.868772,1.0823 1.761719,2.2012 1.761719,2.2012 l 2.238281,0 0,1 2,-1.5 -2,-1.5 0,1 -1.759766,0 -1.611328,-1.9863 c 0.775385,-0.9677 1.612274,-2.0058 1.611328,-2.0137 l 1.759766,0 0,1 2,-1.5 -2,-1.5 z"
       style="fill:#d6d0cb;fill-opacity:1;fill-rule:evenodd;stroke:none" />
  </g>
</svg>
