<?xml version="1.0" encoding="UTF-8" standalone="no"?>
<!-- Created with Inkscape (http://www.inkscape.org/) -->

<svg
   xmlns:dc="http://purl.org/dc/elements/1.1/"
   xmlns:cc="http://creativecommons.org/ns#"
   xmlns:rdf="http://www.w3.org/1999/02/22-rdf-syntax-ns#"
   xmlns:svg="http://www.w3.org/2000/svg"
   xmlns="http://www.w3.org/2000/svg"
   xmlns:sodipodi="http://sodipodi.sourceforge.net/DTD/sodipodi-0.dtd"
   xmlns:inkscape="http://www.inkscape.org/namespaces/inkscape"
   width="22"
   height="22"
   id="svg18109"
   version="1.1"
   inkscape:version="0.91 r13725"
   sodipodi:docname="merge.svg">
  <sodipodi:namedview
     id="base"
     pagecolor="#ffffff"
     bordercolor="#ffffff"
     borderopacity="1.0"
     inkscape:pageopacity="0.0"
     inkscape:pageshadow="2"
     inkscape:zoom="24.342444"
     inkscape:cx="3.4473714"
     inkscape:cy="12.118668"
     inkscape:document-units="px"
     inkscape:current-layer="layer1"
     showgrid="true"
     inkscape:window-width="1920"
     inkscape:window-height="1002"
     inkscape:window-x="0"
     inkscape:window-y="26"
     inkscape:window-maximized="1"
     inkscape:showpageshadow="false"
     showguides="true">
    <inkscape:grid
       id="grid4122"
       type="xygrid" />
    <sodipodi:guide
       id="guide4126"
       orientation="-16,0"
       position="3,3.0000174" />
    <sodipodi:guide
       id="guide4128"
       orientation="0,16"
       position="3,19.000017" />
    <sodipodi:guide
       id="guide4130"
       orientation="16,0"
       position="19,19.000017" />
    <sodipodi:guide
       id="guide4132"
       orientation="0,-16"
       position="19,3.0000174" />
    <sodipodi:guide
       id="guide4134"
       orientation="-18,0"
       position="2,2.0000174" />
    <sodipodi:guide
       id="guide4136"
       orientation="0,18"
       position="2,20.000017" />
    <sodipodi:guide
       id="guide4138"
       orientation="18,0"
       position="20,20.000017" />
    <sodipodi:guide
       id="guide4140"
       orientation="0,-18"
       position="20,2.0000174" />
  </sodipodi:namedview>
  <defs
     id="defs18111" />
  <metadata
     id="metadata18114">
    <rdf:RDF>
      <cc:Work
         rdf:about="">
        <dc:format>image/svg+xml</dc:format>
        <dc:type
           rdf:resource="http://purl.org/dc/dcmitype/StillImage" />
        <dc:title />
      </cc:Work>
    </rdf:RDF>
  </metadata>
  <g
     transform="translate(0,-1030.3622)"
     id="layer1"
     inkscape:groupmode="layer"
     inkscape:label="Capa 1">
    <path
       id="rect4144"
       transform="translate(0,1030.3622)"
       d="M 3 3 L 3 7 L 9 7 L 10 7 L 11 7 L 11 15 L 10 15 L 9 15 L 3 15 L 3 19 L 12 19 L 12 15 L 12 13 L 19 13 L 19 9 L 12 9 L 12 7 L 12 3 L 3 3 z M 4 4 L 11 4 L 11 6 L 4 6 L 4 4 z M 7.5 8 C 7.223 8 7 8.223 7 8.5 C 7 8.777 7.223 9 7.5 9 C 7.777 9 8 8.777 8 8.5 C 8 8.223 7.777 8 7.5 8 z M 12 10 L 13 10 L 14 10 L 18 10 L 18 12 L 14 12 L 13 12 L 12 12 L 12 10 z M 7.5 13 C 7.223 13 7 13.223 7 13.5 C 7 13.777 7.223 14 7.5 14 C 7.777 14 8 13.777 8 13.5 C 8 13.223 7.777 13 7.5 13 z M 4 16 L 11 16 L 11 18 L 4 18 L 4 16 z "
       style="opacity:1;fill:#e7ded7;fill-opacity:1;stroke:none;stroke-width:2.79999995;stroke-miterlimit:4;stroke-dasharray:none;stroke-opacity:0.55026455" />
  </g>
</svg>
