<?xml version="1.0" encoding="UTF-8" standalone="no"?>
<!-- Created with Inkscape (http://www.inkscape.org/) -->

<svg
   xmlns:dc="http://purl.org/dc/elements/1.1/"
   xmlns:cc="http://creativecommons.org/ns#"
   xmlns:rdf="http://www.w3.org/1999/02/22-rdf-syntax-ns#"
   xmlns:svg="http://www.w3.org/2000/svg"
   xmlns="http://www.w3.org/2000/svg"
   xmlns:sodipodi="http://sodipodi.sourceforge.net/DTD/sodipodi-0.dtd"
   xmlns:inkscape="http://www.inkscape.org/namespaces/inkscape"
   width="22"
   height="22"
   id="svg3049"
   version="1.1"
   inkscape:version="0.91 r13725"
   sodipodi:docname="snap-orthogonal.svg"
   inkscape:export-filename="/home/uri/.kde/share/icons/NITRUX-KDE/16x16/actions/view-right-new.png"
   inkscape:export-xdpi="30"
   inkscape:export-ydpi="30">
  <sodipodi:namedview
     id="base"
     pagecolor="#ffffff"
     bordercolor="#ffffff"
     borderopacity="1.0"
     inkscape:pageopacity="0.0"
     inkscape:pageshadow="2"
     inkscape:zoom="25.615453"
     inkscape:cx="5.4760341"
     inkscape:cy="11.458656"
     inkscape:document-units="px"
     inkscape:current-layer="layer1"
     showgrid="true"
     fit-margin-top="0"
     fit-margin-left="0"
     fit-margin-right="0"
     fit-margin-bottom="0"
     inkscape:window-width="1920"
     inkscape:window-height="1002"
     inkscape:window-x="0"
     inkscape:window-y="26"
     inkscape:window-maximized="1"
     inkscape:showpageshadow="false"
     borderlayer="true">
    <sodipodi:guide
       id="guide4067"
       orientation="18,0"
       position="2.0000044,20.00003" />
    <sodipodi:guide
       id="guide4069"
       orientation="0,18"
       position="2.0000044,2.0000296" />
    <sodipodi:guide
       id="guide4071"
       orientation="-18,0"
       position="20.000004,2.0000296" />
    <sodipodi:guide
       id="guide4073"
       orientation="0,-18"
       position="20.000004,20.00003" />
    <sodipodi:guide
       id="guide4077"
       orientation="16,0"
       position="3.0000044,19.00003" />
    <sodipodi:guide
       id="guide4079"
       orientation="0,16"
       position="3.0000044,3.0000296" />
    <sodipodi:guide
       id="guide4081"
       orientation="-16,0"
       position="19.000004,3.0000296" />
    <sodipodi:guide
       id="guide4083"
       orientation="0,-16"
       position="19.000004,19.00003" />
    <inkscape:grid
       id="grid4085"
       type="xygrid" />
  </sodipodi:namedview>
  <defs
     id="defs3051" />
  <metadata
     id="metadata3054">
    <rdf:RDF>
      <cc:Work
         rdf:about="">
        <dc:format>image/svg+xml</dc:format>
        <dc:type
           rdf:resource="http://purl.org/dc/dcmitype/StillImage" />
        <dc:title />
      </cc:Work>
    </rdf:RDF>
  </metadata>
  <g
     transform="translate(-421.71429,-525.79074)"
     id="layer1"
     inkscape:groupmode="layer"
     inkscape:label="Capa 1">
    <path
       id="rect3346"
       transform="translate(421.71429,525.79074)"
       d="M 11 3 L 11 4 L 12 4 L 12 3 L 11 3 z M 11 6 L 11 7 L 12 7 L 12 6 L 11 6 z M 9 8 L 9 13 L 14 13 L 14 8 L 9 8 z M 3 10 L 3 11 L 4 11 L 4 10 L 3 10 z M 5 10 L 5 11 L 6 11 L 6 10 L 5 10 z M 7 10 L 7 11 L 8 11 L 8 10 L 7 10 z M 15 10 L 15 11 L 16 11 L 16 10 L 15 10 z M 18 10 L 18 11 L 19 11 L 19 10 L 18 10 z M 11 14 L 11 15 L 12 15 L 12 14 L 11 14 z M 11 16 L 11 17 L 12 17 L 12 16 L 11 16 z M 11 18 L 11 19 L 12 19 L 12 18 L 11 18 z "
       style="opacity:1;fill:#e7ded7;fill-opacity:1;stroke:none;stroke-width:2.79999995;stroke-miterlimit:4;stroke-dasharray:none;stroke-opacity:0.55026455" />
  </g>
</svg>
