<?xml version="1.0" encoding="UTF-8" standalone="no"?>
<!-- Created with Inkscape (http://www.inkscape.org/) -->

<svg
   xmlns:dc="http://purl.org/dc/elements/1.1/"
   xmlns:cc="http://creativecommons.org/ns#"
   xmlns:rdf="http://www.w3.org/1999/02/22-rdf-syntax-ns#"
   xmlns:svg="http://www.w3.org/2000/svg"
   xmlns="http://www.w3.org/2000/svg"
   xmlns:sodipodi="http://sodipodi.sourceforge.net/DTD/sodipodi-0.dtd"
   xmlns:inkscape="http://www.inkscape.org/namespaces/inkscape"
   width="22"
   height="22"
   id="svg3049"
   version="1.1"
   inkscape:version="0.91 r13725"
   sodipodi:docname="stroke-cap-round.svg"
   inkscape:export-filename="/home/uri/.kde/share/icons/NITRUX-KDE/16x16/actions/view-right-new.png"
   inkscape:export-xdpi="30"
   inkscape:export-ydpi="30">
  <sodipodi:namedview
     id="base"
     pagecolor="#ffffff"
     bordercolor="#ffffff"
     borderopacity="1.0"
     inkscape:pageopacity="0.0"
     inkscape:pageshadow="2"
     inkscape:zoom="27.680183"
     inkscape:cx="7.003192"
     inkscape:cy="9.9703449"
     inkscape:document-units="px"
     inkscape:current-layer="layer1"
     showgrid="true"
     fit-margin-top="0"
     fit-margin-left="0"
     fit-margin-right="0"
     fit-margin-bottom="0"
     inkscape:window-width="1920"
     inkscape:window-height="1002"
     inkscape:window-x="0"
     inkscape:window-y="26"
     inkscape:window-maximized="1"
     inkscape:showpageshadow="false"
     borderlayer="true">
    <sodipodi:guide
       id="guide4067"
       orientation="18,0"
       position="2.0000044,20.00003" />
    <sodipodi:guide
       id="guide4069"
       orientation="0,18"
       position="2.0000044,2.0000296" />
    <sodipodi:guide
       id="guide4071"
       orientation="-18,0"
       position="20.000004,2.0000296" />
    <sodipodi:guide
       id="guide4073"
       orientation="0,-18"
       position="20.000004,20.00003" />
    <sodipodi:guide
       id="guide4077"
       orientation="16,0"
       position="3.0000044,19.00003" />
    <sodipodi:guide
       id="guide4079"
       orientation="0,16"
       position="3.0000044,3.0000296" />
    <sodipodi:guide
       id="guide4081"
       orientation="-16,0"
       position="19.000004,3.0000296" />
    <sodipodi:guide
       id="guide4083"
       orientation="0,-16"
       position="19.000004,19.00003" />
    <inkscape:grid
       id="grid4085"
       type="xygrid" />
  </sodipodi:namedview>
  <defs
     id="defs3051" />
  <metadata
     id="metadata3054">
    <rdf:RDF>
      <cc:Work
         rdf:about="">
        <dc:format>image/svg+xml</dc:format>
        <dc:type
           rdf:resource="http://purl.org/dc/dcmitype/StillImage" />
        <dc:title />
      </cc:Work>
    </rdf:RDF>
  </metadata>
  <g
     transform="translate(-421.71429,-525.79074)"
     id="layer1"
     inkscape:groupmode="layer"
     inkscape:label="Capa 1">
    <path
       sodipodi:nodetypes="ssccccccccsssccccccccccsssscccccccsssccccccss"
       inkscape:connector-curvature="0"
       id="rect3355"
       transform="translate(421.71429,525.79074)"
       d="M 11,3 C 8.2300013,3 6,5.2300013 6,8 l 0,6 0,5 1,0 3,0 0,-0.09961 0,-0.175782 L 10,17 10,9 10,8 c 0,-0.554 0.446,-1 1,-1 0.554,0 1,0.446 1,1 l 0,9 0,1 0,0.724609 0,0.175782 0,0.09961 1,0 2,0 1,0 0,-1 0,-9 0,-1 C 16,5.2300013 13.769999,3 11,3 Z m 0,1 c 2.215999,0 4,1.7840012 4,4 l 0,6 0,2.982422 L 15,18 13.978516,18 13,18 13,17.441406 13,9 13,8 C 13,6.8920013 12.107999,6 11,6 9.8920013,6 9,6.8920013 9,8 L 9,17 9,18 7,18 7,16.982422 7,14 7,9 7,8 C 7,5.7840012 8.7840012,4 11,4 Z"
       style="opacity:1;fill:#e7ded7;fill-opacity:1;stroke:none;stroke-width:2.79999995;stroke-miterlimit:4;stroke-dasharray:none;stroke-opacity:0.55026455" />
  </g>
</svg>
