<?xml version="1.0" encoding="UTF-8" standalone="no"?>
<!-- Created with Inkscape (http://www.inkscape.org/) -->

<svg
   xmlns:dc="http://purl.org/dc/elements/1.1/"
   xmlns:cc="http://creativecommons.org/ns#"
   xmlns:rdf="http://www.w3.org/1999/02/22-rdf-syntax-ns#"
   xmlns:svg="http://www.w3.org/2000/svg"
   xmlns="http://www.w3.org/2000/svg"
   xmlns:sodipodi="http://sodipodi.sourceforge.net/DTD/sodipodi-0.dtd"
   xmlns:inkscape="http://www.inkscape.org/namespaces/inkscape"
   width="22"
   height="22"
   id="svg3049"
   version="1.1"
   inkscape:version="0.91 r13725"
   sodipodi:docname="svn-update.svg"
   inkscape:export-filename="/home/uri/.kde/share/icons/NITRUX-KDE/16x16/actions/view-right-new.png"
   inkscape:export-xdpi="30"
   inkscape:export-ydpi="30">
  <sodipodi:namedview
     id="base"
     pagecolor="#ffffff"
     bordercolor="#ffffff"
     borderopacity="1.0"
     inkscape:pageopacity="0.0"
     inkscape:pageshadow="2"
     inkscape:zoom="23.704737"
     inkscape:cx="8.1623245"
     inkscape:cy="11.947858"
     inkscape:document-units="px"
     inkscape:current-layer="layer1"
     showgrid="true"
     fit-margin-top="0"
     fit-margin-left="0"
     fit-margin-right="0"
     fit-margin-bottom="0"
     inkscape:window-width="1920"
     inkscape:window-height="1002"
     inkscape:window-x="0"
     inkscape:window-y="26"
     inkscape:window-maximized="1"
     inkscape:showpageshadow="false"
     borderlayer="true">
    <sodipodi:guide
       id="guide4067"
       orientation="18,0"
       position="2.0000044,20.00003" />
    <sodipodi:guide
       id="guide4069"
       orientation="0,18"
       position="2.0000044,2.0000296" />
    <sodipodi:guide
       id="guide4071"
       orientation="-18,0"
       position="20.000004,2.0000296" />
    <sodipodi:guide
       id="guide4073"
       orientation="0,-18"
       position="20.000004,20.00003" />
    <sodipodi:guide
       id="guide4077"
       orientation="16,0"
       position="3.0000044,19.00003" />
    <sodipodi:guide
       id="guide4079"
       orientation="0,16"
       position="3.0000044,3.0000296" />
    <sodipodi:guide
       id="guide4081"
       orientation="-16,0"
       position="19.000004,3.0000296" />
    <sodipodi:guide
       id="guide4083"
       orientation="0,-16"
       position="19.000004,19.00003" />
    <inkscape:grid
       id="grid4085"
       type="xygrid" />
  </sodipodi:namedview>
  <defs
     id="defs3051" />
  <metadata
     id="metadata3054">
    <rdf:RDF>
      <cc:Work
         rdf:about="">
        <dc:format>image/svg+xml</dc:format>
        <dc:type
           rdf:resource="http://purl.org/dc/dcmitype/StillImage" />
        <dc:title />
      </cc:Work>
    </rdf:RDF>
  </metadata>
  <g
     transform="translate(-421.71429,-525.79074)"
     id="layer1"
     inkscape:groupmode="layer"
     inkscape:label="Capa 1">
    <path
       inkscape:connector-curvature="0"
       id="rect4144"
       d="m 432.21429,528.79074 c -0.65424,0 -1.2022,0.41808 -1.4082,1 l -4.0918,0 -1,0 0,1 0,11.0918 c -0.58192,0.206 -1,0.75396 -1,1.4082 0,0.831 0.669,1.5 1.5,1.5 0.831,0 1.5,-0.669 1.5,-1.5 0,-0.65424 -0.41808,-1.2022 -1,-1.4082 l 0,-11.0918 4.0918,0 c 0.15034,0.4247 0.4835,0.75786 0.9082,0.9082 l 0,6.0918 0,1 1,0 0.0918,0 c 0.206,0.58192 0.75396,1 1.4082,1 0.831,0 1.5,-0.669 1.5,-1.5 0,-0.831 -0.669,-1.5 -1.5,-1.5 -0.65424,0 -1.2022,0.41808 -1.4082,1 l -0.0918,0 0,-6.0918 c 0.58192,-0.206 1,-0.75396 1,-1.4082 0,-0.831 -0.669,-1.5 -1.5,-1.5 z m 0,1 c 0.277,0 0.5,0.223 0.5,0.5 0,0.277 -0.223,0.5 -0.5,0.5 -0.277,0 -0.5,-0.223 -0.5,-0.5 0,-0.277 0.223,-0.5 0.5,-0.5 z m 2,8 c 0.277,0 0.5,0.223 0.5,0.5 0,0.277 -0.223,0.5 -0.5,0.5 -0.277,0 -0.5,-0.223 -0.5,-0.5 0,-0.277 0.223,-0.5 0.5,-0.5 z m -8,5 c 0.277,0 0.5,0.223 0.5,0.5 0,0.277 -0.223,0.5 -0.5,0.5 -0.277,0 -0.5,-0.223 -0.5,-0.5 0,-0.277 0.223,-0.5 0.5,-0.5 z"
       style="opacity:1;fill:#e7ded7;fill-opacity:1;stroke:none;stroke-width:2.79999995;stroke-miterlimit:4;stroke-dasharray:none;stroke-opacity:0.55026455" />
    <path
       id="rect4071"
       d="m 438.21429,544.99774 -0.20703,-0.207 -3.29297,-3.293 0.70703,-0.707 2.29297,2.2929 0,-4.2929 1,0 0,4.2929 2.29297,-2.2929 0.70703,0.707 -3.29297,3.293 -0.20703,0.207 z"
       style="fill:#e7ded7;fill-opacity:1;stroke:none"
       inkscape:connector-curvature="0" />
  </g>
</svg>
