<?xml version="1.0" encoding="UTF-8" standalone="no"?>
<!-- Created with Inkscape (http://www.inkscape.org/) -->

<svg
   xmlns:dc="http://purl.org/dc/elements/1.1/"
   xmlns:cc="http://creativecommons.org/ns#"
   xmlns:rdf="http://www.w3.org/1999/02/22-rdf-syntax-ns#"
   xmlns:svg="http://www.w3.org/2000/svg"
   xmlns="http://www.w3.org/2000/svg"
   xmlns:sodipodi="http://sodipodi.sourceforge.net/DTD/sodipodi-0.dtd"
   xmlns:inkscape="http://www.inkscape.org/namespaces/inkscape"
   width="24"
   height="24"
   id="svg2"
   version="1.1"
   inkscape:version="0.91 r13725"
   viewBox="0 0 24 24"
   sodipodi:docname="text_subscript.svg">
  <sodipodi:namedview
     id="base"
     pagecolor="#ffffff"
     bordercolor="#ffffff"
     borderopacity="1.0"
     inkscape:pageopacity="0.0"
     inkscape:pageshadow="2"
     inkscape:zoom="16.841998"
     inkscape:cx="-9.7354649"
     inkscape:cy="18.066647"
     inkscape:document-units="px"
     inkscape:current-layer="layer1-8"
     showgrid="true"
     inkscape:showpageshadow="false"
     borderlayer="true"
     inkscape:window-width="1920"
     inkscape:window-height="1002"
     inkscape:window-x="0"
     inkscape:window-y="26"
     inkscape:window-maximized="1"
     units="px"
     fit-margin-top="0"
     fit-margin-left="0"
     fit-margin-right="0"
     fit-margin-bottom="0"
     inkscape:object-nodes="true"
     inkscape:snap-bbox="true">
    <sodipodi:guide
       id="guide4093"
       orientation="16,0"
       position="4,20" />
    <sodipodi:guide
       id="guide4095"
       orientation="0,16"
       position="4,4" />
    <sodipodi:guide
       id="guide4097"
       orientation="-16,0"
       position="20,4" />
    <sodipodi:guide
       id="guide4099"
       orientation="0,-16"
       position="20,20" />
    <inkscape:grid
       originy="0.99998262px"
       originx="1px"
       id="grid4101"
       type="xygrid" />
    <sodipodi:guide
       id="guide4123"
       orientation="16,0"
       position="4,20" />
    <sodipodi:guide
       id="guide4125"
       orientation="0,2.000001"
       position="4,4" />
    <sodipodi:guide
       id="guide4129"
       orientation="0,-2.000001"
       position="6.000001,20" />
    <sodipodi:guide
       id="guide4133"
       orientation="0,2"
       position="18,4" />
    <sodipodi:guide
       id="guide4135"
       orientation="-16,0"
       position="20,4" />
    <sodipodi:guide
       id="guide4137"
       orientation="0,-2"
       position="20,20" />
  </sodipodi:namedview>
  <defs
     id="defs4" />
  <metadata
     id="metadata7">
    <rdf:RDF>
      <cc:Work
         rdf:about="">
        <dc:format>image/svg+xml</dc:format>
        <dc:type
           rdf:resource="http://purl.org/dc/dcmitype/StillImage" />
        <dc:title />
      </cc:Work>
    </rdf:RDF>
  </metadata>
  <g
     transform="translate(1,-1029.3622)"
     id="layer1"
     inkscape:groupmode="layer"
     inkscape:label="Capa 1">
    <g
       inkscape:label="Capa 1"
       id="layer1-9"
       transform="translate(-1,1.738e-5)">
      <g
         inkscape:label="Capa 1"
         id="layer1-8"
         transform="translate(1,-1)">
        <g
           inkscape:label="Capa 1"
           id="layer1-6"
           transform="translate(-551.28571,423.71429)">
          <path
             inkscape:connector-curvature="0"
             style="font-style:normal;font-variant:normal;font-weight:normal;font-stretch:normal;font-size:medium;line-height:125%;font-family:Oxygen;-inkscape-font-specification:Oxygen;letter-spacing:0px;word-spacing:0px;fill:#d6d0cb;fill-opacity:1;stroke:none;stroke-width:1px;stroke-linecap:butt;stroke-linejoin:miter;stroke-opacity:1"
             d="M 9.2167969,4 4,18 l 1.6875,0 1.6679688,-4.429688 5.5625002,0 L 13.066406,14 14.732422,14 11.210938,4 9.2167969,4 Z m 1.0156251,1.6113281 2.128906,6.6738279 -4.4882811,0 2.3593751,-6.6738279 z M 15,14 l 0,2 0,1 0,2 0,1 1,0 2,0 c 1.108,0 2,-0.892 2,-2 0,-0.81094 -0.481265,-1.501896 -1.171875,-1.816406 C 18.934075,15.977744 19,15.74831 19,15.5 19,14.669 18.331,14 17.5,14 l -1.5,0 -1,0 z m 1,1 1.5,0 c 0.277,0 0.5,0.223 0.5,0.5 0,0.277 -0.223,0.5 -0.5,0.5 l -1.5,0 0,-1 z m 0,2 1.5,0 0.5,0 c 0.554,0 1,0.446 1,1 0,0.554 -0.446,1 -1,1 l -2,0 0,-2 z"
             transform="translate(550.28571,606.64789)"
             id="path4152" />
        </g>
      </g>
    </g>
  </g>
</svg>
