<?xml version="1.0" encoding="UTF-8" standalone="no"?>
<!-- Created with Inkscape (http://www.inkscape.org/) -->

<svg
   xmlns:dc="http://purl.org/dc/elements/1.1/"
   xmlns:cc="http://creativecommons.org/ns#"
   xmlns:rdf="http://www.w3.org/1999/02/22-rdf-syntax-ns#"
   xmlns:svg="http://www.w3.org/2000/svg"
   xmlns="http://www.w3.org/2000/svg"
   xmlns:sodipodi="http://sodipodi.sourceforge.net/DTD/sodipodi-0.dtd"
   xmlns:inkscape="http://www.inkscape.org/namespaces/inkscape"
   width="24"
   height="24"
   id="svg2"
   version="1.1"
   inkscape:version="0.91 r13725"
   viewBox="0 0 24 24"
   sodipodi:docname="text_letter_spacing.svg">
  <sodipodi:namedview
     id="base"
     pagecolor="#ffffff"
     bordercolor="#ffffff"
     borderopacity="1.0"
     inkscape:pageopacity="0.0"
     inkscape:pageshadow="2"
     inkscape:zoom="16.841998"
     inkscape:cx="-9.7354649"
     inkscape:cy="18.066647"
     inkscape:document-units="px"
     inkscape:current-layer="layer1-8"
     showgrid="true"
     inkscape:showpageshadow="false"
     borderlayer="true"
     inkscape:window-width="1920"
     inkscape:window-height="1002"
     inkscape:window-x="0"
     inkscape:window-y="26"
     inkscape:window-maximized="1"
     units="px"
     fit-margin-top="0"
     fit-margin-left="0"
     fit-margin-right="0"
     fit-margin-bottom="0"
     inkscape:object-nodes="true"
     inkscape:snap-bbox="true">
    <sodipodi:guide
       id="guide4093"
       orientation="16,0"
       position="4,20" />
    <sodipodi:guide
       id="guide4095"
       orientation="0,16"
       position="4,4" />
    <sodipodi:guide
       id="guide4097"
       orientation="-16,0"
       position="20,4" />
    <sodipodi:guide
       id="guide4099"
       orientation="0,-16"
       position="20,20" />
    <inkscape:grid
       originy="0.99998262px"
       originx="1px"
       id="grid4101"
       type="xygrid" />
    <sodipodi:guide
       id="guide4123"
       orientation="16,0"
       position="4,20" />
    <sodipodi:guide
       id="guide4125"
       orientation="0,2.000001"
       position="4,4" />
    <sodipodi:guide
       id="guide4129"
       orientation="0,-2.000001"
       position="6.000001,20" />
    <sodipodi:guide
       id="guide4133"
       orientation="0,2"
       position="18,4" />
    <sodipodi:guide
       id="guide4135"
       orientation="-16,0"
       position="20,4" />
    <sodipodi:guide
       id="guide4137"
       orientation="0,-2"
       position="20,20" />
  </sodipodi:namedview>
  <defs
     id="defs4" />
  <metadata
     id="metadata7">
    <rdf:RDF>
      <cc:Work
         rdf:about="">
        <dc:format>image/svg+xml</dc:format>
        <dc:type
           rdf:resource="http://purl.org/dc/dcmitype/StillImage" />
        <dc:title />
      </cc:Work>
    </rdf:RDF>
  </metadata>
  <g
     transform="translate(1,-1029.3622)"
     id="layer1"
     inkscape:groupmode="layer"
     inkscape:label="Capa 1">
    <g
       inkscape:label="Capa 1"
       id="layer1-9"
       transform="translate(-1,1.738e-5)">
      <g
         inkscape:label="Capa 1"
         id="layer1-8"
         transform="translate(1,-1)">
        <g
           inkscape:label="Capa 1"
           id="layer1-7"
           transform="translate(-364.57143,505.57143)">
          <g
             transform="translate(-186.71428,-81.85714)"
             id="layer1-9-2"
             inkscape:label="Capa 1">
            <path
               id="path4152"
               transform="translate(550.28571,606.64789)"
               d="m 4,4 0,2 0,1 0,2 0,1 1,0 2,0 C 8.108,10 9,9.108 9,8 9,7.18906 8.518735,6.4981038 7.828125,6.1835938 7.934075,5.9777437 8,5.74831 8,5.5 8,4.669 7.331,4 6.5,4 L 5,4 4,4 Z m 11,0 0,6 2,0 1,0 c 1.10801,0 2,-0.89199 2,-2 L 20,6 C 20,4.89199 19.10801,4 18,4 L 17,4 15,4 Z M 5,5 6.5,5 C 6.777,5 7,5.223 7,5.5 7,5.777 6.777,6 6.5,6 L 5,6 5,5 Z m 11,0 1,0 1,0 c 0.55401,0 1,0.44599 1,1 l 0,2 c 0,0.55401 -0.44599,1 -1,1 L 17,9 16,9 16,5 Z M 5,7 6.5,7 7,7 C 7.554,7 8,7.446 8,8 8,8.554 7.554,9 7,9 L 5,9 5,7 Z m 6,0 0,1 2,0 0,-1 -2,0 z m -6,6 0,1 2,0 0,-1 -2,0 z m 4,0 0,1 2,0 0,-1 -2,0 z m 4,0 0,1 2,0 0,-1 -2,0 z m 4,0 0,1 2,0 0,-1 -2,0 z m -11,3 -2,2 2,2 0,-4 z m 12,0 0,4 2,-2 -2,-2 z m -6,1 c -0.554,0 -1,0.446 -1,1 0,0.554 0.446,1 1,1 0.554,0 1,-0.446 1,-1 0,-0.554 -0.446,-1 -1,-1 z"
               style="font-style:normal;font-variant:normal;font-weight:normal;font-stretch:normal;font-size:medium;line-height:125%;font-family:Oxygen;-inkscape-font-specification:Oxygen;letter-spacing:0px;word-spacing:0px;fill:#d6d0cb;fill-opacity:1;stroke:none;stroke-width:1px;stroke-linecap:butt;stroke-linejoin:miter;stroke-opacity:1"
               inkscape:connector-curvature="0" />
          </g>
        </g>
      </g>
    </g>
  </g>
</svg>
