<?xml version="1.0" encoding="UTF-8" standalone="no"?>
<!-- Created with Inkscape (http://www.inkscape.org/) -->

<svg
   xmlns:dc="http://purl.org/dc/elements/1.1/"
   xmlns:cc="http://creativecommons.org/ns#"
   xmlns:rdf="http://www.w3.org/1999/02/22-rdf-syntax-ns#"
   xmlns:svg="http://www.w3.org/2000/svg"
   xmlns="http://www.w3.org/2000/svg"
   xmlns:sodipodi="http://sodipodi.sourceforge.net/DTD/sodipodi-0.dtd"
   xmlns:inkscape="http://www.inkscape.org/namespaces/inkscape"
   width="22"
   height="22"
   id="svg3529"
   version="1.1"
   inkscape:version="0.91 r13725"
   sodipodi:docname="tools-rip-video-dvd.svg">
  <sodipodi:namedview
     id="base"
     pagecolor="#ffffff"
     bordercolor="#ffffff"
     borderopacity="1.0"
     inkscape:pageopacity="0.0"
     inkscape:pageshadow="2"
     inkscape:zoom="33.486188"
     inkscape:cx="-1.2190662"
     inkscape:cy="10.940497"
     inkscape:document-units="px"
     inkscape:current-layer="layer1"
     showgrid="true"
     fit-margin-top="0"
     fit-margin-left="0"
     fit-margin-right="0"
     fit-margin-bottom="0"
     inkscape:window-width="1920"
     inkscape:window-height="1002"
     inkscape:window-x="0"
     inkscape:window-y="26"
     inkscape:window-maximized="1"
     inkscape:showpageshadow="false">
    <inkscape:grid
       id="grid4107"
       type="xygrid" />
    <sodipodi:guide
       id="guide4113"
       orientation="18,0"
       position="1.9999928,19.999997" />
    <sodipodi:guide
       id="guide4115"
       orientation="0,18"
       position="1.9999928,1.9999974" />
    <sodipodi:guide
       id="guide4117"
       orientation="-18,0"
       position="19.999993,1.9999974" />
    <sodipodi:guide
       id="guide4119"
       orientation="0,-18"
       position="19.999993,19.999997" />
    <sodipodi:guide
       id="guide4121"
       orientation="16,0"
       position="2.9999928,18.999997" />
    <sodipodi:guide
       id="guide4125"
       orientation="-16,0"
       position="18.999993,2.9999974" />
    <sodipodi:guide
       id="guide4127"
       orientation="0,-16"
       position="18.999993,18.999997" />
  </sodipodi:namedview>
  <defs
     id="defs3531" />
  <metadata
     id="metadata3534">
    <rdf:RDF>
      <cc:Work
         rdf:about="">
        <dc:format>image/svg+xml</dc:format>
        <dc:type
           rdf:resource="http://purl.org/dc/dcmitype/StillImage" />
        <dc:title />
      </cc:Work>
    </rdf:RDF>
  </metadata>
  <g
     transform="translate(-453.14286,-654.36218)"
     id="layer1"
     inkscape:groupmode="layer"
     inkscape:label="Capa 1">
    <path
       sodipodi:nodetypes="ssccssccsssccssccs"
       inkscape:connector-curvature="0"
       id="rect4119"
       transform="translate(453.14286,654.36218)"
       d="m 11,3 c -4.432,0 -8,3.568 -8,8 0,4.432 3.568,8 8,8 l 0,-1 C 7.122,18 4,14.878 4,11 4,7.122 7.122,4 11,4 c 3.878,0 7,3.122 7,7 l 1,0 C 19,6.568 15.432,3 11,3 Z m 0,6 c -1.108,0 -2,0.892 -2,2 0,1.108 0.892,2 2,2 l 0,-1 c -0.554,0 -1,-0.446 -1,-1 0,-0.554 0.446,-1 1,-1 0.554,0 1,0.446 1,1 l 1,0 C 13,9.892 12.108,9 11,9 Z"
       style="opacity:1;fill:#e7ded7;fill-opacity:1;stroke:none" />
    <path
       id="rect4170"
       transform="translate(453.14286,654.36218)"
       d="M 13.5 13 C 12.669 13 12 13.669 12 14.5 C 12 15.15424 12.418077 15.702197 13 15.908203 L 13 19 L 17 19 L 17 17 L 17 16 C 17.554 16 18 15.554 18 15 C 18 14.446 17.554 14 17 14 C 16.446 14 16 14.446 16 15 L 14.908203 15 C 14.963861 14.842779 15 14.67676 15 14.5 C 15 13.669 14.331 13 13.5 13 z M 17 17 L 19 19 L 19 15 L 17 17 z M 14 16 L 16 16 L 16 18 L 14 18 L 14 16 z "
       style="opacity:1;fill:#e7ded7;fill-opacity:1;stroke:none;stroke-width:2.79999995;stroke-miterlimit:4;stroke-dasharray:none;stroke-opacity:0.55026455" />
  </g>
</svg>
