<?xml version="1.0" encoding="UTF-8" standalone="no"?>
<!-- Created with Inkscape (http://www.inkscape.org/) -->

<svg
   xmlns:dc="http://purl.org/dc/elements/1.1/"
   xmlns:cc="http://creativecommons.org/ns#"
   xmlns:rdf="http://www.w3.org/1999/02/22-rdf-syntax-ns#"
   xmlns:svg="http://www.w3.org/2000/svg"
   xmlns="http://www.w3.org/2000/svg"
   xmlns:sodipodi="http://sodipodi.sourceforge.net/DTD/sodipodi-0.dtd"
   xmlns:inkscape="http://www.inkscape.org/namespaces/inkscape"
   width="22"
   height="22"
   id="svg3529"
   version="1.1"
   inkscape:version="0.91 r13725"
   sodipodi:docname="tools-rip-audio-cd.svg">
  <sodipodi:namedview
     id="base"
     pagecolor="#ffffff"
     bordercolor="#ffffff"
     borderopacity="1.0"
     inkscape:pageopacity="0.0"
     inkscape:pageshadow="2"
     inkscape:zoom="16.231885"
     inkscape:cx="3.1327944"
     inkscape:cy="9.6905251"
     inkscape:document-units="px"
     inkscape:current-layer="layer1"
     showgrid="true"
     fit-margin-top="0"
     fit-margin-left="0"
     fit-margin-right="0"
     fit-margin-bottom="0"
     inkscape:window-width="1920"
     inkscape:window-height="1002"
     inkscape:window-x="0"
     inkscape:window-y="26"
     inkscape:window-maximized="1"
     inkscape:showpageshadow="false">
    <inkscape:grid
       id="grid4107"
       type="xygrid" />
    <sodipodi:guide
       id="guide4113"
       orientation="18,0"
       position="1.9999928,19.999997" />
    <sodipodi:guide
       id="guide4115"
       orientation="0,18"
       position="1.9999928,1.9999974" />
    <sodipodi:guide
       id="guide4117"
       orientation="-18,0"
       position="19.999993,1.9999974" />
    <sodipodi:guide
       id="guide4119"
       orientation="0,-18"
       position="19.999993,19.999997" />
    <sodipodi:guide
       id="guide4121"
       orientation="16,0"
       position="2.9999928,18.999997" />
    <sodipodi:guide
       id="guide4123"
       orientation="0,16"
       position="2.9999928,2.9999974" />
    <sodipodi:guide
       id="guide4125"
       orientation="-16,0"
       position="18.999993,2.9999974" />
    <sodipodi:guide
       id="guide4127"
       orientation="0,-16"
       position="18.999993,18.999997" />
  </sodipodi:namedview>
  <defs
     id="defs3531" />
  <metadata
     id="metadata3534">
    <rdf:RDF>
      <cc:Work
         rdf:about="">
        <dc:format>image/svg+xml</dc:format>
        <dc:type
           rdf:resource="http://purl.org/dc/dcmitype/StillImage" />
        <dc:title />
      </cc:Work>
    </rdf:RDF>
  </metadata>
  <g
     transform="translate(-453.14286,-654.36218)"
     id="layer1"
     inkscape:groupmode="layer"
     inkscape:label="Capa 1">
    <path
       id="rect4119"
       transform="translate(453.14286,654.36218)"
       d="M 11 3 C 6.568 3 3 6.568 3 11 C 3 15.432 6.568 19 11 19 L 11 18 C 7.122 18 4 14.878 4 11 C 4 7.122 7.122 4 11 4 C 14.878 4 18 7.122 18 11 L 19 11 C 19 6.568 15.432 3 11 3 z M 11 5 C 7.676 5 5 7.676 5 11 L 8 11 C 8 9.338 9.338 8 11 8 L 11 5 z M 11 9 C 9.892 9 9 9.892 9 11 C 9 12.108 9.892 13 11 13 L 11 12 C 10.446 12 10 11.554 10 11 C 10 10.446 10.446 10 11 10 C 11.554 10 12 10.446 12 11 L 13 11 C 13 9.892 12.108 9 11 9 z M 15 10 L 15 15.277344 C 14.704935 15.106143 14.367047 15 14 15 C 12.892 15 12 15.892 12 17 C 12 18.108 12.892 19 14 19 C 15.108 19 16 18.108 16 17 L 16 12 L 16 11 L 17 11 L 16 10 L 15 10 z "
       style="opacity:1;fill:#e7ded7;fill-opacity:1;stroke:none" />
  </g>
</svg>
