<?xml version="1.0" encoding="UTF-8" standalone="no"?>
<!-- Created with Inkscape (http://www.inkscape.org/) -->

<svg
   xmlns:dc="http://purl.org/dc/elements/1.1/"
   xmlns:cc="http://creativecommons.org/ns#"
   xmlns:rdf="http://www.w3.org/1999/02/22-rdf-syntax-ns#"
   xmlns:svg="http://www.w3.org/2000/svg"
   xmlns="http://www.w3.org/2000/svg"
   xmlns:sodipodi="http://sodipodi.sourceforge.net/DTD/sodipodi-0.dtd"
   xmlns:inkscape="http://www.inkscape.org/namespaces/inkscape"
   width="24"
   height="24"
   id="svg2"
   version="1.1"
   inkscape:version="0.91 r13725"
   viewBox="0 0 24 24"
   sodipodi:docname="tool-node-editor.svg">
  <sodipodi:namedview
     id="base"
     pagecolor="#ffffff"
     bordercolor="#ffffff"
     borderopacity="1.0"
     inkscape:pageopacity="0.0"
     inkscape:pageshadow="2"
     inkscape:zoom="23.818182"
     inkscape:cx="-0.84732814"
     inkscape:cy="11.999983"
     inkscape:document-units="px"
     inkscape:current-layer="layer1"
     showgrid="true"
     inkscape:showpageshadow="false"
     borderlayer="true"
     inkscape:window-width="1920"
     inkscape:window-height="1002"
     inkscape:window-x="0"
     inkscape:window-y="26"
     inkscape:window-maximized="1"
     units="px"
     fit-margin-top="0"
     fit-margin-left="0"
     fit-margin-right="0"
     fit-margin-bottom="0">
    <sodipodi:guide
       id="guide4093"
       orientation="16,0"
       position="4,20" />
    <sodipodi:guide
       id="guide4095"
       orientation="0,16"
       position="4,4" />
    <sodipodi:guide
       id="guide4097"
       orientation="-16,0"
       position="20,4" />
    <sodipodi:guide
       id="guide4099"
       orientation="0,-16"
       position="20,20" />
    <inkscape:grid
       originy="0.99998262px"
       originx="1px"
       id="grid4101"
       type="xygrid" />
    <sodipodi:guide
       id="guide4123"
       orientation="16,0"
       position="4,20" />
    <sodipodi:guide
       id="guide4125"
       orientation="0,2.000001"
       position="4,4" />
    <sodipodi:guide
       id="guide4129"
       orientation="0,-2.000001"
       position="6.000001,20" />
    <sodipodi:guide
       id="guide4133"
       orientation="0,2"
       position="18,4" />
    <sodipodi:guide
       id="guide4135"
       orientation="-16,0"
       position="20,4" />
    <sodipodi:guide
       id="guide4137"
       orientation="0,-2"
       position="20,20" />
  </sodipodi:namedview>
  <defs
     id="defs4" />
  <metadata
     id="metadata7">
    <rdf:RDF>
      <cc:Work
         rdf:about="">
        <dc:format>image/svg+xml</dc:format>
        <dc:type
           rdf:resource="http://purl.org/dc/dcmitype/StillImage" />
        <dc:title />
      </cc:Work>
    </rdf:RDF>
  </metadata>
  <g
     transform="translate(1,-1029.3622)"
     id="layer1"
     inkscape:groupmode="layer"
     inkscape:label="Capa 1">
    <g
       inkscape:label="Capa 1"
       id="layer1-1"
       transform="translate(-461.71429,504.57145)">
      <path
         style="opacity:1;fill:#d6d0cb;fill-opacity:1;stroke:none"
         d="M 4.5,3 C 3.669,3 3,3.669 3,4.5 3,5.1542402 3.4180774,5.7021974 4,5.9082031 L 4,16 3,16 3,19 6,19 6,16 5,16 5,5.9082031 C 5.4244565,5.7579418 5.7567461,5.4226635 5.9082031,5 L 16,5 16,6 19,6 19,3 16,3 16,4 5.9082031,4 C 5.7021974,3.4180774 5.1542402,3 4.5,3 Z m 0,1 C 4.777,4 5,4.223 5,4.5 5,4.777 4.777,5 4.5,5 4.223,5 4,4.777 4,4.5 4,4.223 4.223,4 4.5,4 Z m 12.5,0 1,0 0,1 -1,0 z m -13,13 1,0 0,1 -1,0 z"
         transform="translate(461.71429,525.79075)"
         id="rect4108"
         inkscape:connector-curvature="0"
         sodipodi:nodetypes="ssccccccccccccccccsssssscccccccccc" />
      <g
         id="layer1-4"
         inkscape:label="Capa 1"
         transform="matrix(0.5,0,0,0.5,233.85714,267.39537)">
        <path
           id="path4147"
           transform="translate(461.71429,525.79075)"
           d="M 6,3 6,17 9.1721428,15.572266 13,19 12.599877,14.199219 16,13 Z"
           style="fill:#d6d0cb;fill-rule:evenodd;stroke:none;stroke-width:1px;stroke-linecap:butt;stroke-linejoin:miter;stroke-opacity:1"
           inkscape:connector-curvature="0"
           sodipodi:nodetypes="ccccccc" />
      </g>
    </g>
  </g>
</svg>
