<?xml version="1.0" encoding="UTF-8" standalone="no"?>
<!-- Created with Inkscape (http://www.inkscape.org/) -->

<svg
   xmlns:dc="http://purl.org/dc/elements/1.1/"
   xmlns:cc="http://creativecommons.org/ns#"
   xmlns:rdf="http://www.w3.org/1999/02/22-rdf-syntax-ns#"
   xmlns:svg="http://www.w3.org/2000/svg"
   xmlns="http://www.w3.org/2000/svg"
   xmlns:sodipodi="http://sodipodi.sourceforge.net/DTD/sodipodi-0.dtd"
   xmlns:inkscape="http://www.inkscape.org/namespaces/inkscape"
   width="22"
   height="22"
   id="svg3760"
   version="1.1"
   inkscape:version="0.91 r13725"
   sodipodi:docname="transform-scale-textbox-points.svg">
  <sodipodi:namedview
     id="base"
     pagecolor="#ffffff"
     bordercolor="#ffffff"
     borderopacity="1.0"
     inkscape:pageopacity="0.0"
     inkscape:pageshadow="2"
     inkscape:zoom="24.048284"
     inkscape:cx="8.0776387"
     inkscape:cy="10.657957"
     inkscape:document-units="px"
     inkscape:current-layer="layer1"
     showgrid="true"
     fit-margin-top="0"
     fit-margin-left="0"
     fit-margin-right="0"
     fit-margin-bottom="0"
     inkscape:window-width="1920"
     inkscape:window-height="1002"
     inkscape:window-x="0"
     inkscape:window-y="26"
     inkscape:window-maximized="1"
     inkscape:showpageshadow="false"
     showguides="true">
    <sodipodi:guide
       id="guide4116"
       orientation="22,0"
       position="4.1796875e-06,21.999997" />
    <sodipodi:guide
       id="guide4118"
       orientation="0,22"
       position="4.1796875e-06,-2.6953124e-06" />
    <sodipodi:guide
       id="guide4120"
       orientation="-22,0"
       position="22.000004,-2.6953124e-06" />
    <sodipodi:guide
       id="guide4122"
       orientation="0,-22"
       position="22.000004,21.999997" />
    <sodipodi:guide
       id="guide4124"
       orientation="18,0"
       position="2.0000042,19.999997" />
    <sodipodi:guide
       id="guide4126"
       orientation="0,18"
       position="2.0000042,1.9999973" />
    <sodipodi:guide
       id="guide4128"
       orientation="-18,0"
       position="20.000004,1.9999973" />
    <sodipodi:guide
       id="guide4130"
       orientation="0,-18"
       position="20.000004,19.999997" />
    <sodipodi:guide
       id="guide4132"
       orientation="16,0"
       position="3.0000042,18.999997" />
    <sodipodi:guide
       id="guide4134"
       orientation="0,16"
       position="3.0000042,2.9999973" />
    <sodipodi:guide
       id="guide4136"
       orientation="-16,0"
       position="19.000004,2.9999973" />
    <sodipodi:guide
       id="guide4138"
       orientation="0,-16"
       position="19.000004,18.999997" />
    <inkscape:grid
       id="grid4140"
       type="xygrid" />
  </sodipodi:namedview>
  <defs
     id="defs3762" />
  <metadata
     id="metadata3765">
    <rdf:RDF>
      <cc:Work
         rdf:about="">
        <dc:format>image/svg+xml</dc:format>
        <dc:type
           rdf:resource="http://purl.org/dc/dcmitype/StillImage" />
        <dc:title />
      </cc:Work>
    </rdf:RDF>
  </metadata>
  <g
     transform="translate(-553.72253,-583.11926)"
     id="layer1"
     inkscape:groupmode="layer"
     inkscape:label="Capa 1">
    <path
       id="rect4150"
       transform="translate(553.72253,583.11926)"
       d="M 3 3 L 3 5 L 3 6 L 6 6 L 6 5 L 6 3 L 4 3 L 3 3 z M 16 3 L 16 4 L 16 5 L 16 6 L 17 6 L 18 6 L 19 6 L 19 5 L 19 4 L 19 3 L 16 3 z M 4 4 L 5 4 L 5 5 L 4 5 L 4 4 z M 17 4 L 18 4 L 18 5 L 17 5 L 17 4 z M 7 5 L 7 6 L 9 6 L 9 5 L 7 5 z M 10 5 L 10 6 L 12 6 L 12 5 L 10 5 z M 13 5 L 13 6 L 15 6 L 15 5 L 13 5 z M 5 7 L 5 9 L 6 9 L 6 7 L 5 7 z M 16 7 L 16 9 L 17 9 L 17 7 L 16 7 z M 5 10 L 5 12 L 6 12 L 6 10 L 5 10 z M 16 10 L 16 12 L 17 12 L 17 10 L 16 10 z M 5 13 L 5 15 L 6 15 L 6 13 L 5 13 z M 14 13 L 14 14 L 16 14 L 16 19 L 17 19 L 17 14 L 19 14 L 19 13 L 14 13 z M 3 16 L 3 17 L 3 19 L 4 19 L 5 19 L 6 19 L 6 16 L 3 16 z M 7 16 L 7 17 L 9 17 L 9 16 L 7 16 z M 10 16 L 10 17 L 12 17 L 12 16 L 10 16 z M 4 17 L 5 17 L 5 18 L 4 18 L 4 17 z "
       style="opacity:1;fill:#e7ded7;fill-opacity:1;stroke:none;stroke-width:0.1;stroke-miterlimit:4;stroke-dasharray:none;stroke-opacity:1" />
  </g>
</svg>
