<?xml version="1.0" encoding="UTF-8" standalone="no"?>
<!-- Created with Inkscape (http://www.inkscape.org/) -->

<svg
   xmlns:dc="http://purl.org/dc/elements/1.1/"
   xmlns:cc="http://creativecommons.org/ns#"
   xmlns:rdf="http://www.w3.org/1999/02/22-rdf-syntax-ns#"
   xmlns:svg="http://www.w3.org/2000/svg"
   xmlns="http://www.w3.org/2000/svg"
   xmlns:sodipodi="http://sodipodi.sourceforge.net/DTD/sodipodi-0.dtd"
   xmlns:inkscape="http://www.inkscape.org/namespaces/inkscape"
   width="22"
   height="22"
   id="svg3760"
   version="1.1"
   inkscape:version="0.91 r13725"
   sodipodi:docname="trash-empty.svg">
  <sodipodi:namedview
     id="base"
     pagecolor="#ffffff"
     bordercolor="#ffffff"
     borderopacity="1.0"
     inkscape:pageopacity="0.0"
     inkscape:pageshadow="2"
     inkscape:zoom="22.627417"
     inkscape:cx="5.4425931"
     inkscape:cy="11.058263"
     inkscape:document-units="px"
     inkscape:current-layer="layer1"
     showgrid="true"
     fit-margin-top="0"
     fit-margin-left="0"
     fit-margin-right="0"
     fit-margin-bottom="0"
     inkscape:window-width="1920"
     inkscape:window-height="1002"
     inkscape:window-x="0"
     inkscape:window-y="26"
     inkscape:window-maximized="1"
     inkscape:showpageshadow="false"
     inkscape:snap-bbox="true"
     inkscape:bbox-paths="true"
     inkscape:bbox-nodes="true"
     inkscape:object-nodes="true">
    <sodipodi:guide
       id="guide4116"
       orientation="22,0"
       position="4.1796875e-06,21.999997" />
    <sodipodi:guide
       id="guide4118"
       orientation="0,22"
       position="4.1796875e-06,-2.6953124e-06" />
    <sodipodi:guide
       id="guide4122"
       orientation="0,-22"
       position="22.000004,21.999997" />
    <sodipodi:guide
       id="guide4124"
       orientation="18,0"
       position="2.0000042,19.999997" />
    <sodipodi:guide
       id="guide4126"
       orientation="0,18"
       position="2.0000042,1.9999973" />
    <sodipodi:guide
       id="guide4128"
       orientation="-18,0"
       position="20.000004,1.9999973" />
    <sodipodi:guide
       id="guide4130"
       orientation="0,-18"
       position="20.000004,19.999997" />
    <sodipodi:guide
       id="guide4132"
       orientation="16,0"
       position="3.0000042,18.999997" />
    <sodipodi:guide
       id="guide4134"
       orientation="0,16"
       position="3.0000042,2.9999973" />
    <sodipodi:guide
       id="guide4136"
       orientation="-16,0"
       position="19.000004,2.9999973" />
    <sodipodi:guide
       id="guide4138"
       orientation="0,-16"
       position="19.000004,18.999997" />
    <inkscape:grid
       id="grid4140"
       type="xygrid" />
  </sodipodi:namedview>
  <defs
     id="defs3762" />
  <metadata
     id="metadata3765">
    <rdf:RDF>
      <cc:Work
         rdf:about="">
        <dc:format>image/svg+xml</dc:format>
        <dc:type
           rdf:resource="http://purl.org/dc/dcmitype/StillImage" />
        <dc:title />
      </cc:Work>
    </rdf:RDF>
  </metadata>
  <g
     transform="translate(-553.72253,-583.11926)"
     id="layer1"
     inkscape:groupmode="layer"
     inkscape:label="Capa 1">
    <path
       sodipodi:nodetypes="ccccccccccccccccccccccccccccccccccccccccccccccccccccc"
       id="rect4172"
       d="m 561.78503,586.18176 0,2.00001 -3.0625,-0.0625 -1,0 0,1 0,1 0,1 1,0 0,10 0,1 1,0 11,0 0,-1 0,-10 1,0 0,-1 0,-2 -3.9375,0.0625 0,-2.00001 -1,0 -4,0 z m 1,1.00001 4,0 0,1 -4,0 z m -4.0625,1.93749 12,0 0,1 -11,0 -1,0 z m 1,2 10,0 0,10 -10,0 z m 1.5,1 0,8 1,0 0,-8 z m 3.0625,0.0625 0,8 1,0 0,-8 z m 2.9375,-0.0625 0,8 1,0 0,-8 z"
       style="fill:#e7ded7;fill-opacity:1;fill-rule:nonzero;stroke:#ff00ff;stroke-width:0;stroke-miterlimit:4;stroke-dasharray:none;stroke-opacity:1"
       inkscape:connector-curvature="0" />
  </g>
</svg>
