<?xml version="1.0" encoding="UTF-8" standalone="no"?>
<!-- Created with Inkscape (http://www.inkscape.org/) -->

<svg
   xmlns:dc="http://purl.org/dc/elements/1.1/"
   xmlns:cc="http://creativecommons.org/ns#"
   xmlns:rdf="http://www.w3.org/1999/02/22-rdf-syntax-ns#"
   xmlns:svg="http://www.w3.org/2000/svg"
   xmlns="http://www.w3.org/2000/svg"
   xmlns:sodipodi="http://sodipodi.sourceforge.net/DTD/sodipodi-0.dtd"
   xmlns:inkscape="http://www.inkscape.org/namespaces/inkscape"
   width="22"
   height="22"
   id="svg3049"
   version="1.1"
   inkscape:version="0.91 r13725"
   sodipodi:docname="view-group.svg"
   inkscape:export-filename="/home/uri/.kde/share/icons/NITRUX-KDE/16x16/actions/view-right-new.png"
   inkscape:export-xdpi="30"
   inkscape:export-ydpi="30">
  <sodipodi:namedview
     id="base"
     pagecolor="#ffffff"
     bordercolor="#ffffff"
     borderopacity="1.0"
     inkscape:pageopacity="0.0"
     inkscape:pageshadow="2"
     inkscape:zoom="24.888089"
     inkscape:cx="3.2449171"
     inkscape:cy="10.760794"
     inkscape:document-units="px"
     inkscape:current-layer="layer1"
     showgrid="true"
     fit-margin-top="0"
     fit-margin-left="0"
     fit-margin-right="0"
     fit-margin-bottom="0"
     inkscape:window-width="1920"
     inkscape:window-height="1002"
     inkscape:window-x="0"
     inkscape:window-y="26"
     inkscape:window-maximized="1"
     inkscape:showpageshadow="false"
     borderlayer="true">
    <sodipodi:guide
       id="guide4067"
       orientation="18,0"
       position="2.0000044,20.00003" />
    <sodipodi:guide
       id="guide4069"
       orientation="0,18"
       position="2.0000044,2.0000296" />
    <sodipodi:guide
       id="guide4071"
       orientation="-18,0"
       position="20.000004,2.0000296" />
    <sodipodi:guide
       id="guide4073"
       orientation="0,-18"
       position="20.000004,20.00003" />
    <sodipodi:guide
       id="guide4077"
       orientation="16,0"
       position="3.0000044,19.00003" />
    <sodipodi:guide
       id="guide4079"
       orientation="0,16"
       position="3.0000044,3.0000296" />
    <sodipodi:guide
       id="guide4081"
       orientation="-16,0"
       position="19.000004,3.0000296" />
    <sodipodi:guide
       id="guide4083"
       orientation="0,-16"
       position="19.000004,19.00003" />
    <inkscape:grid
       id="grid4085"
       type="xygrid" />
  </sodipodi:namedview>
  <defs
     id="defs3051" />
  <metadata
     id="metadata3054">
    <rdf:RDF>
      <cc:Work
         rdf:about="">
        <dc:format>image/svg+xml</dc:format>
        <dc:type
           rdf:resource="http://purl.org/dc/dcmitype/StillImage" />
        <dc:title />
      </cc:Work>
    </rdf:RDF>
  </metadata>
  <g
     transform="translate(-421.71429,-525.79074)"
     id="layer1"
     inkscape:groupmode="layer"
     inkscape:label="Capa 1">
    <path
       id="rect4089"
       transform="translate(421.71429,525.79074)"
       d="M 3 3 L 3 19 L 19 19 L 19 3 L 3 3 z M 4 7 L 18 7 L 18 18 L 4 18 L 4 7 z "
       style="fill:#e7ded7;fill-opacity:1;stroke:none" />
    <path
       inkscape:connector-curvature="0"
       id="rect4109"
       d="m 427.71429,533.79074 0,4 4,0 0,-4 -4,0 z m 1,1 2,0 0,2 -2,0 0,-2 z"
       style="opacity:1;fill:#e7ded7;fill-opacity:1;stroke:none" />
    <path
       inkscape:connector-curvature="0"
       id="rect4111"
       d="m 433.71429,533.79074 0,4 4,0 0,-4 -4,0 z m 1,1 2,0 0,2 -2,0 0,-2 z"
       style="opacity:1;fill:#e7ded7;fill-opacity:1;stroke:none" />
    <path
       inkscape:connector-curvature="0"
       style="opacity:1;fill:#e7ded7;fill-opacity:1;stroke:none"
       d="m 427.71429,538.79074 0,4 4,0 0,-4 -4,0 z m 1,1 2,0 0,2 -2,0 0,-2 z"
       id="path4119" />
    <path
       inkscape:connector-curvature="0"
       style="opacity:1;fill:#e7ded7;fill-opacity:1;stroke:none"
       d="m 433.71429,538.79074 0,4 4,0 0,-4 -4,0 z m 1,1 2,0 0,2 -2,0 0,-2 z"
       id="path4121" />
  </g>
</svg>
