<?xml version="1.0" encoding="UTF-8" standalone="no"?>
<!-- Created with Inkscape (http://www.inkscape.org/) -->

<svg
   xmlns:dc="http://purl.org/dc/elements/1.1/"
   xmlns:cc="http://creativecommons.org/ns#"
   xmlns:rdf="http://www.w3.org/1999/02/22-rdf-syntax-ns#"
   xmlns:svg="http://www.w3.org/2000/svg"
   xmlns="http://www.w3.org/2000/svg"
   xmlns:sodipodi="http://sodipodi.sourceforge.net/DTD/sodipodi-0.dtd"
   xmlns:inkscape="http://www.inkscape.org/namespaces/inkscape"
   width="512"
   height="512"
   viewBox="0 0 512 512"
   id="svg2"
   version="1.1"
   inkscape:version="0.91 r13725"
   sodipodi:docname="folder-html.svg"
   inkscape:export-filename="E:\Usuarios\David\Desktop\folder-download.png"
   inkscape:export-xdpi="90"
   inkscape:export-ydpi="90">
  <defs
     id="defs4" />
  <sodipodi:namedview
     id="base"
     pagecolor="#ffffff"
     bordercolor="#666666"
     borderopacity="1.0"
     inkscape:pageopacity="0.0"
     inkscape:pageshadow="2"
     inkscape:zoom="0.7"
     inkscape:cx="114.833"
     inkscape:cy="318.75971"
     inkscape:document-units="px"
     inkscape:current-layer="layer1"
     showgrid="true"
     inkscape:snap-bbox="true"
     inkscape:bbox-nodes="true"
     fit-margin-top="0"
     fit-margin-left="0"
     fit-margin-right="0"
     fit-margin-bottom="0"
     units="px"
     inkscape:object-nodes="true"
     inkscape:snap-nodes="true"
     inkscape:snap-others="false"
     inkscape:window-width="1366"
     inkscape:window-height="705"
     inkscape:window-x="-8"
     inkscape:window-y="-8"
     inkscape:window-maximized="1">
    <inkscape:grid
       type="xygrid"
       id="grid4136"
       originx="-282.28082"
       originy="-341.501"
       visible="true" />
  </sodipodi:namedview>
  <metadata
     id="metadata7">
    <rdf:RDF>
      <cc:Work
         rdf:about="">
        <dc:format>image/svg+xml</dc:format>
        <dc:type
           rdf:resource="http://purl.org/dc/dcmitype/StillImage" />
        <dc:title></dc:title>
      </cc:Work>
    </rdf:RDF>
  </metadata>
  <g
     inkscape:label="Capa 1"
     inkscape:groupmode="layer"
     id="layer1"
     transform="translate(-282.28082,-198.8612)">
    <g
       id="g4172"
       transform="matrix(2.460733,0,0,2.460733,-533.36734,-915.42835)">
      <path
         inkscape:connector-curvature="0"
         transform="translate(282.28082,403.66119)"
         id="rect4151"
         d="m 65.71875,84.701172 c -4.431995,0 -8,3.568005 -8,8 l 0,9.999998 0,111 0,0.0488 c 0,4.4051 3.546075,7.95117 7.951172,7.95117 l 0.04883,0 61.999998,0 113.04883,0 c 4.40509,0 7.95117,-3.54607 7.95117,-7.95117 l 0,-111.04883 c 0,-4.405095 -3.54608,-7.95117 -7.95117,-7.95117 l -105.04883,0 0,-2.048828 c 0,-4.431995 -3.568,-8 -8,-8 l -61.999998,0 z"
         style="fill:#107662;fill-opacity:1;stroke:none" />
      <path
         sodipodi:nodetypes="cccccc"
         inkscape:connector-curvature="0"
         id="rect4166"
         d="m 347.99512,522.17497 14.81747,-14.81277 160.18741,1e-5 0,49.7153 -175.00488,0 z"
         style="fill:#ffffff;fill-opacity:1;stroke:none" />
      <path
         sodipodi:nodetypes="cccc"
         inkscape:connector-curvature="0"
         id="rect4169"
         d="m 362.81277,507.3622 0,14.81277 -14.81277,0 z"
         style="fill:#000000;fill-opacity:0.1372549;stroke:none" />
      <path
         sodipodi:nodetypes="czzssssccssccssc"
         inkscape:connector-curvature="0"
         id="rect4156"
         transform="translate(282.28082,403.66119)"
         d="m 144,112.88819 c -4.33969,0.0225 -7.52934,0.36085 -10.39035,3.49916 -2.86101,3.13831 -3.89047,6.50084 -8.89047,6.50084 -5,0 -59.00043,1.6e-4 -59.00043,1.6e-4 -4.432001,1e-5 -8,3.12199 -8,7 l 0,84.81282 c 0,3.87801 3.567999,7 8,7 l 71,0 103,0 1,0 c 4.432,0 8,-3.12199 8,-7 l 0,-1 0,-83.81282 0,-9 c 0,-4.43201 -4.014,-7.99999 -9,-8 z"
         style="fill:#16a085;fill-opacity:1;stroke:none" />
    </g>
    <path
       inkscape:connector-curvature="0"
       style="color:#000000;fill:#ffffff;fill-opacity:1;fill-rule:nonzero"
       d="m 538.28082,421.8612 c -2.59688,0 -5.20702,0.21375 -7.73438,0.46875 -5.05485,0.51 -9.82859,1.35593 -14.53125,2.8125 -23.51332,7.2828 -42.17032,25.9398 -49.45312,49.45312 -1.45658,4.70265 -2.30228,9.47641 -2.8125,14.53125 -0.255,2.52735 -0.46875,5.13751 -0.46875,7.73438 0,2.59687 0.21375,5.20695 0.46875,7.73437 0.51,5.05478 1.35592,9.82853 2.8125,14.53125 7.2828,23.51326 25.9398,42.17025 49.45312,49.45313 4.70266,1.4565 9.4764,2.3022 14.53125,2.8125 2.52736,0.255 5.1375,0.46875 7.73438,0.46875 2.59688,0 5.20695,-0.21375 7.73437,-0.46875 5.05478,-0.51 9.8286,-1.356 14.53125,-2.8125 4.69695,-1.46093 9.3429,-3.5502 13.59375,-5.85938 17.00595,-9.2154 30.03308,-24.78314 35.85938,-43.59375 1.45657,-4.70272 2.3022,-9.47647 2.8125,-14.53125 0.255,-2.52742 0.46875,-5.1375 0.46875,-7.73437 0,-2.58885 -0.213,-5.2131 -0.46875,-7.73438 -0.51,-5.05484 -1.35593,-9.8286 -2.8125,-14.53125 -2.91315,-9.40537 -7.72403,-18.1443 -13.82813,-25.54687 -1.5285,-1.85213 -3.22537,-3.45975 -4.92187,-5.15625 -6.77812,-6.77813 -14.69303,-12.38678 -23.67188,-16.17188 -2.24324,-0.94882 -4.68277,-1.8477 -7.03125,-2.57812 -4.70265,-1.45657 -9.47647,-2.30227 -14.53125,-2.8125 -2.52742,-0.255 -5.13749,-0.46875 -7.73437,-0.46875 z m 0,7.5 c 11.34975,0 22.01857,2.7855 31.40625,7.73437 0.24825,0.1305 0.45675,0.33525 0.70275,0.46875 0.18975,0.25126 0.135,0.51901 0.46875,0.70276 0.24525,0.13649 0.4725,0.34649 0.70275,0.46875 0.39525,0.21825 0.78488,0.55499 0.70275,0.9375 -0.10875,0.55874 -1.0245,0.52799 -1.40625,0.9375 0.0525,0.79064 -0.26475,0.6405 -0.46875,1.17187 0.123,0.34125 0.41475,0.294 0.46875,0.70275 -0.0675,0.4365 -0.633,0.4875 -0.46875,0.9375 0.7365,0.573 1.41397,0.0952 2.10938,0 1.52715,-0.19125 2.80912,0.03 3.75,-0.70275 -0.0998,-0.5835 0.45824,-0.75 0.70274,-1.17187 0.49801,0.34874 0.91846,0.80992 1.40625,1.17187 -0.28649,0.123 -0.91274,0.30525 -1.17187,0.46875 -0.38175,0.25875 -0.501,0.651 -0.9375,0.9375 -0.3135,0.21825 -1.07895,0.9375 -1.40625,0.9375 -0.39525,0 -1.1199,-0.32925 -1.40625,-0.234 -0.4095,0.123 -0.24075,0.77392 -0.70275,0.9375 -0.89993,0.327 -2.49892,-0.8805 -2.8125,0.46875 0.38175,0.777 1.662,0.51525 2.34375,0.9375 0.423,0.273 1.06283,1.64587 1.17188,2.10937 0.10874,0.38175 0.16349,1.70048 0,2.10938 -0.42301,1.0905 -1.55813,0.9648 -2.8125,0.9375 -0.34125,0 -0.62401,0.03 -0.9375,0 -2.11343,-0.1365 -4.20173,-0.80985 -5.15625,0.70275 0.0675,1.15868 0.25949,1.80375 0,2.8125 -0.19051,0.73575 -0.97845,1.23428 -0.9375,1.875 0.015,0.327 0.62174,0.95632 0.70274,1.40625 0.0525,0.24525 -0.10949,0.72 0,0.9375 0.35476,0.66825 1.24778,-0.10875 1.875,0 0.6,0.0953 1.17188,0.97267 1.17188,1.64063 0,0.477 -0.16875,1.41149 -0.46875,1.875 -0.6,0.89962 -1.71907,0.681 -2.57813,1.17187 -0.70875,0.40875 -0.98354,1.40048 -1.40625,2.10938 -0.44999,0.76335 -0.88065,1.01887 -0.70274,2.10937 -0.61351,1.2132 -1.3101,1.99192 -2.57813,2.57813 -0.36825,0.16349 -0.831,0.45749 -1.17187,0.70275 -0.273,0.19049 -0.55576,0.501 -0.9375,0.9375 -0.477,0.53175 -1.14721,0.7629 -1.40625,1.17187 -0.19125,0.3135 -0.03,0.9837 -0.23401,1.40625 -0.29999,0.573 -0.79012,1.06807 -1.17187,1.64063 -0.177,0.273 -0.513,0.58275 -0.70275,0.9375 -0.4365,0.79064 -1.01932,1.4142 -0.9375,2.10937 0.0675,0.66825 0.89662,0.82005 0.9375,1.40625 0.0375,0.327 -0.24825,0.58275 -0.234,0.9375 0.015,0.51825 0.1935,0.7629 0.234,1.17188 0.0953,1.00875 -0.513,1.41412 -0.70275,2.10937 -0.0953,0.327 0.0817,0.67875 0,0.9375 -0.1635,0.50475 -0.92385,0.80647 -0.9375,1.40625 -0.015,0.423 0.66225,0.80678 0.70275,1.40625 0.03,0.40875 -0.31575,0.7902 -0.234,1.17188 0.15,0.7365 1.53675,1.77119 2.10937,2.34375 0.77723,0.77707 1.5342,1.29142 1.875,2.10937 0.2865,0.69525 0.40575,1.82572 0.9375,2.34375 0.39525,0.38175 1.13618,0.54225 1.64063,0.9375 0.477,0.36825 1.1361,0.54225 1.64062,0.9375 0.83176,0.65475 1.95855,1.97047 3.28125,1.875 0.69525,-0.0525 1.33216,-0.333 2.10938,-0.46875 0.80445,-0.1365 1.76003,-0.5505 2.57812,-0.46875 0.62701,0.0675 1.22055,0.51 1.875,0.46875 0.68175,-0.0375 1.56661,-0.363 2.34375,-0.70275 1.34993,-0.5865 3.4272,-1.69252 5.39063,-1.40625 1.49985,0.21825 1.5282,1.91017 2.57812,2.57813 1.19985,0.10875 2.09243,-0.23175 3.04688,0 0.723,0.17699 1.57245,1.5369 1.64062,2.10937 0.0675,0.5865 -0.387,1.03823 -0.46875,1.40625 -0.1905,0.79065 -0.333,1.83938 -0.46875,2.34375 -0.10875,0.39525 -0.24825,0.77655 -0.234,1.17188 0,0.35475 0.56926,1.17712 0.9375,1.64062 0.45,0.573 1.09523,1.01355 1.64063,1.64063 0.9954,1.14502 1.41397,2.70555 2.10937,4.21875 0.177,0.38175 -0.1635,0.46049 0,0.9375 -0.3,2.2902 -1.07827,3.79259 -2.57812,6.32812 -0.70875,0.81788 -1.4199,1.79018 -1.40625,2.8125 -0.0525,2.4537 1.281,3.7218 1.17187,6.09375 -0.24525,3.18983 0.015,3.6867 -0.234,5.39063 1.07723,0.54524 0.5475,2.14979 0.234,3.28125 -0.4635,1.34947 -0.91282,1.67842 -1.17187,2.57812 0.5595,0.2415 1.02772,0.30225 1.64062,0.234 -12.28095,12.76815 -29.63527,20.625 -48.75,20.625 -8.9475,0 -17.49847,-1.76033 -25.3125,-4.92187 -0.03,-0.007 0.0225,-0.2235 0,-0.234 0.70876,-0.30001 2.06003,0.5265 2.57813,-0.46875 0.2595,-0.47701 -0.34125,-1.39785 0,-1.875 0.24525,-0.32701 1.8393,-0.62176 2.34375,-0.70276 0.723,-0.12299 1.46595,0.0225 1.875,-0.234 0.45,-0.2865 1.01932,-1.02982 0.9375,-1.875 -0.0375,-0.39525 -0.39075,-0.5835 -0.70275,-0.9375 -0.25875,-0.3 -0.06,-0.6645 -0.234,-0.9375 -0.327,-0.477 -0.80115,-0.71025 -0.9375,-1.40625 0.98175,-0.1905 2.33197,1.09868 3.75,0.70275 0.66825,-0.19125 1.79572,-1.48237 2.10937,-2.10937 0.0953,-0.19125 -0.10875,-0.93975 0,-1.17188 0.123,-0.25874 0.4275,-0.333 0.46875,-0.46875 0.0953,-0.36825 -0.0817,-0.4725 0,-0.70275 0.24525,-0.69524 0.99713,-1.13625 1.40625,-1.64062 0.3135,-0.38175 0.651,-0.77655 0.9375,-1.17188 0.327,-0.423 0.486,-0.56925 0.70275,-0.9375 0.20475,-1.2405 -0.76875,-2.19075 -0.46875,-3.28125 0.327,-1.22685 2.09505,-2.01922 3.28125,-2.57812 0.40875,-0.19125 0.83101,-0.5805 1.17188,-0.70275 0.8181,-0.2865 1.81455,-0.1965 2.57812,-0.46875 1.28175,-0.4635 1.71645,-1.87463 2.34375,-3.04688 0.3,-0.54525 0.648,-1.01092 0.70275,-1.40625 0.0525,-0.35475 -0.0675,-0.76267 0,-1.17187 0.0675,-0.40875 0.126,-0.72225 0.234,-1.17188 0.15,-0.58649 0.234,-1.68945 0.234,-2.34375 0,-0.54525 -0.2205,-0.681 -0.234,-1.17187 -0.0952,-1.7721 0.5175,-1.8447 1.17188,-2.8125 0.327,-0.477 0.4725,-1.2999 0.70275,-1.64063 1.10445,-1.63582 2.94885,-2.44095 2.8125,-4.92187 -0.0525,-0.81795 -0.3375,-2.55345 -0.9375,-2.8125 -0.34125,-0.15 -1.1361,-0.045 -1.64063,-0.234 -1.60897,-0.6 -2.77605,-2.44185 -4.45312,-2.57813 -0.35475,-0.015 -0.54225,0.015 -0.9375,0 -0.65475,-0.015 -1.3731,-0.62175 -2.10938,-0.70275 -0.46349,-0.0525 -1.36792,0.1365 -1.64062,0 -0.423,-0.20475 -0.363,-0.94012 -0.70275,-1.17187 -0.273,-0.19125 -0.74925,-0.31875 -1.17188,-0.46875 -0.66825,-0.25875 -1.09777,-0.414 -1.875,-0.46875 -0.24525,-0.015 -0.8994,0.0375 -1.17187,0 -0.423,-0.0675 -0.77647,-0.45825 -1.17188,-0.70275 -0.49049,-0.3 -0.73275,-0.5145 -0.9375,-0.9375 0.45,-1.47225 -1.10625,-1.71938 -1.40625,-2.57813 -0.1365,-0.39525 0.1365,-1.0518 0,-1.40625 -0.177,-0.50475 -0.61275,-0.74925 -1.17187,-1.17187 -0.98175,-0.76343 -1.8768,-1.46348 -3.28125,-1.64063 -0.627,-0.0675 -1.35945,0.0525 -2.10938,0 -0.7908,-0.0525 -1.74382,-0.4905 -2.34375,-1.17187 -0.573,-0.66825 -0.6675,-1.32713 -1.17187,-1.64063 -0.477,-0.3 -1.3134,-0.39075 -1.64063,-0.70275 -0.15,-0.1365 -0.0982,-0.39075 -0.234,-0.70275 -0.24525,-0.49125 -0.76875,-0.57225 -0.46875,-1.17187 -0.54525,-0.273 -0.351,0.3435 -0.9375,0.234 -0.53175,-0.75 -0.90952,-1.16925 -2.10937,-0.9375 -0.54525,0.10875 -0.99975,0.92392 -1.64063,0.9375 -0.53175,0.015 -0.94522,-0.8421 -1.64062,-0.9375 -0.53175,-0.0675 -1.27245,0.5505 -1.64063,0.46875 -0.5865,-0.10875 -0.6405,-0.81683 -1.17187,-1.17188 -0.39525,-0.2595 -1.18808,-0.95107 -1.40625,-0.9375 -0.68175,0.015 -1.16858,1.44188 -2.10938,0.9375 -0.4635,-0.5865 0.78008,-0.627 0.234,-1.17187 -0.40874,-0.40875 -0.60975,0.015 -0.9375,0.234 -0.38174,0.25875 -0.74925,0.5535 -1.17187,0.70275 -0.94088,0.35475 -1.60748,0.32175 -2.34375,0.70275 -0.68175,0.35475 -0.77647,0.94537 -1.17188,1.64062 -0.3135,0.573 -0.92902,1.37895 -1.40625,1.40625 -0.573,0.0375 -1.12245,-0.71925 -1.64062,-0.9375 -1.56803,-0.68175 -2.45468,0.45525 -3.75,0.46875 -1.19992,0.015 -2.86702,-1.91535 -2.8125,-3.04687 0.0375,-0.69525 0.387,-1.71938 0.46875,-2.57813 0.0675,-0.68175 0.69,-1.24792 0.70275,-1.875 0.015,-0.83152 -1.3296,-1.54515 -1.875,-1.64062 -1.28175,-0.23175 -2.99415,0.573 -4.45313,0 -0.27299,-0.4635 0.53926,-0.72225 0.70275,-1.17188 0.0953,-0.25875 -0.0952,-0.417 0,-0.70275 0.1635,-0.4365 0.73275,-0.708 0.9375,-1.17187 0.15,-0.35475 0.084,-0.96998 0.23401,-1.40625 0.17699,-0.49125 0.6615,-0.81743 0.70274,-1.17188 0.0525,-0.4635 -0.33599,-1.10632 -0.70274,-1.40625 -1.13176,0.0675 -1.9236,0.17175 -2.57813,0.46875 -1.47255,0.66825 -1.09185,2.58345 -2.57812,3.04688 -0.50476,0.1635 -1.30231,0.3735 -1.875,0.46875 0.96982,-4.9071 2.48212,-9.60038 4.45312,-14.0625 0.51825,0.0952 0.95633,0.4275 1.40625,0.46875 1.25445,0.0952 1.3074,-0.861 2.34375,-1.40625 1.06357,0.15 1.61002,-0.10875 2.57813,0 0.65474,0.0675 1.59127,0.89662 2.10937,0.9375 0.4365,0.015 0.528,-0.537 0.9375,-0.46875 0.40875,0.0675 1.1037,0.91545 1.17188,1.40625 0.0675,0.6135 -0.4125,1.1934 -0.23401,1.875 0.64126,0.65475 1.89893,1.02457 2.8125,1.40625 0.60001,-0.49125 0.0953,-1.63485 0,-2.34375 -0.015,-0.3135 0.0375,-0.651 0,-0.9375 -0.0675,-0.4905 -0.234,-0.9837 -0.234,-1.40625 0,-1.94933 1.50353,-2.7522 2.8125,-3.51563 0.55875,-0.327 1.14975,-0.92647 1.64063,-1.17187 0.69525,-0.34125 1.06792,-0.3765 1.64062,-0.70275 1.0362,-0.5865 2.00798,-1.20698 2.8125,-1.875 0.36825,-0.88598 -0.0375,-1.9401 0,-2.8125 0.36825,-0.23175 0.54225,0.0375 0.9375,0 0.627,-0.1365 0.81728,-1.05188 1.17188,-1.40625 0.20475,-0.20475 0.92617,-0.26475 1.17187,-0.46875 0.627,-0.49125 0.62625,-1.18808 1.17188,-1.40625 0.19125,-0.0675 0.63675,-0.153 0.9375,-0.234 0.4095,-0.10875 0.98617,-0.4725 1.64062,-0.70275 0.42301,-0.15 1.47698,-0.075 1.64063,-0.234 0.20475,-0.20475 -0.0525,-1.09268 0,-1.40625 0.327,-1.54035 2.60722,-1.59128 3.98437,-2.10938 0.95445,-0.36825 1.98331,-1.14202 3.04688,-0.9375 -0.20475,0.73575 -1.1148,0.51975 -0.9375,1.40625 0.23175,1.2405 1.67302,-0.29175 2.10937,-0.46875 0.83175,-0.35475 2.42475,-0.54225 3.51563,-0.9375 0.95445,-0.3405 2.54048,-1.00522 1.64062,-2.10937 -0.75,-0.0525 -0.98617,0.6645 -1.64062,0.9375 -0.45,0.0675 -0.55575,-0.207 -0.9375,-0.234 -0.36825,-0.015 -0.56925,0.30225 -0.9375,0.234 -0.36825,-0.0675 -0.88298,-0.73575 -0.9375,-1.17188 -0.15,-1.14502 1.17713,-1.49857 1.64062,-2.34375 -0.31349,-1.03605 -1.7055,-0.06 -2.57812,-0.46875 0.0953,-0.6135 0.44925,-1.28347 1.17187,-1.40625 0.5865,-0.0953 1.98923,0.18525 2.34375,0.46875 0.20475,0.177 -0.0788,0.65025 0.234,0.9375 0.35475,0.3135 0.94268,0.0675 1.40625,0 0.1635,-0.777 -1.07384,-0.43275 -0.9375,-0.9375 0.92715,-0.6 2.61826,-0.31875 3.75,-0.46875 0.65476,-0.0953 1.28866,-0.624 1.875,-0.9375 0.54525,-0.3135 1.06793,-0.7527 1.64063,-0.234 0.1635,0.55875 -0.39075,0.8856 -0.70275,1.17188 -1.04992,0.92692 -1.9944,1.97002 -2.8125,3.04687 0.50475,0.49125 1.26398,0.1395 2.10937,0.234 0.327,0.0375 0.83093,0.18 1.17188,0.234 0.4095,0.0675 0.84457,-0.0675 1.17187,0 0.573,0.1365 0.59925,0.9375 1.17188,0.9375 0.92722,0 1.00088,-0.77917 0.46875,-1.40625 0.1635,-0.64125 0.4665,-1.1907 0.234,-1.64062 -0.423,-0.84518 -2.02755,0.13875 -2.10938,-0.9375 -0.0525,-0.68175 0.69225,-0.88815 0.9375,-1.40625 -0.10875,-1.3086 1.07386,-1.39215 0.9375,-2.57813 -0.0675,-0.49125 -0.59625,-0.47475 -0.9375,-0.9375 -0.17699,-0.24525 -0.26475,-0.76027 -0.46875,-0.9375 -0.70875,-0.6 -2.02755,-0.49575 -2.10937,-1.64062 -0.0375,-0.68175 0.0952,-1.13895 0,-1.875 -0.0952,-0.69525 -0.80655,-2.67615 -1.40625,-2.8125 -0.76358,-0.1635 -1.1958,1.21807 -2.10938,1.64062 -0.4905,0.23175 -1.37054,0.33 -1.875,0.234 -0.32699,-0.0675 -0.89655,-0.3105 -0.9375,-0.9375 -0.0375,-0.3615 0.0833,-0.489 0.23401,-0.70275 0.0375,-0.0525 -0.0375,-0.1815 0,-0.234 5.93242,-1.70497 12.26917,-2.57812 18.75,-2.57812 z m -27.89063,6.09375 c -0.66525,2.13082 -2.59147,3.34725 -5.15625,3.28125 -0.627,0.6 -0.363,1.74652 -0.70275,2.57812 -0.28649,0.69525 -1.17967,1.22648 -1.875,1.17188 -0.50475,-0.0375 -1.40625,-0.6945 -1.40625,-1.17188 0,-0.39075 0.378,-0.83272 0.46875,-1.17187 2.7603,-1.78478 5.65403,-3.31448 8.67188,-4.6875 z m 57.42188,2.34375 c -0.25125,0.045 -0.48225,0.10425 -0.70275,0.234 -0.51825,0.3135 -0.54225,0.78757 -0.9375,0.9375 -0.55875,0.20475 -1.32443,0.19875 -1.40625,0.70275 -0.0675,0.423 0.483,0.55575 0.46875,0.9375 -0.20475,0.50475 -0.594,0.558 -0.70275,1.17188 0.69525,1.13145 2.42227,0.015 3.28125,-0.234 0.38175,-0.10876 0.73275,0.06 0.9375,-0.23401 0.23175,-0.36825 0.06,-1.12259 0.234,-1.64062 0.19125,-0.573 0.77137,-0.4335 0.70275,-0.9375 -0.0525,-0.50475 -1.0296,-1.01925 -1.875,-0.9375 z m -74.29688,8.67187 c 0.50025,0.60375 0.91846,1.48005 0,1.875 -0.1365,0.0675 -1.78215,0.30225 -2.10937,0.23401 -0.10125,-0.015 -0.14325,-0.17101 -0.234,-0.23401 0.717,-0.696 1.59667,-1.21094 2.34375,-1.875 z m 1.875,2.34375 c 0.327,0.015 0.55576,0.67576 0.9375,0.70276 0.36825,0.03 0.95333,-0.30226 1.17188,-0.23401 0.573,0.15 0.78007,1.218 0.234,1.64063 -0.45,0.0525 -0.6105,-0.537 -0.9375,-0.46875 -0.92723,0.1635 -1.1796,1.92952 -1.875,1.875 -0.65475,-0.0675 -1.13723,-1.39785 -0.46875,-1.875 0.015,-0.4095 -0.2625,-0.528 -0.234,-0.9375 0.20475,-0.25875 0.62625,-0.744 1.17187,-0.70275 z m -3.04687,0.46875 c 0.19125,0 0.16575,-0.0817 0.234,0 -0.0952,0.72225 -0.37875,0.83108 -0.9375,1.17188 -0.9681,0.5865 -1.56135,1.32398 -1.875,2.57812 -0.0952,0.36825 -1.17705,1.50158 -1.64063,1.40625 -1.07722,-0.23174 0.4575,-2.26462 0.70275,-2.57812 0.273,-0.34125 0.62401,-0.555 0.9375,-0.9375 0.3135,-0.38175 0.40351,-1.18815 0.70276,-1.40625 0.32699,-0.23175 1.30237,-0.2625 1.875,-0.234 z m 92.34375,1.875 c 1.07715,-0.0675 1.6185,1.22063 2.10937,1.875 0.40875,0.53175 1.6755,1.27253 2.34375,1.64063 0.38175,0.20475 0.74925,0.513 1.17188,0.70275 0.44325,0.19725 1.11727,0.45675 1.64062,0.9375 0.5235,0.48075 0.91703,1.20443 0.9375,1.64063 0.015,0.43649 -0.30299,0.76289 -0.234,1.17187 0.4725,0.0765 0.717,-0.40425 0.9375,-0.9375 1.7673,2.5209 3.2724,5.2113 4.6875,7.96875 -0.28725,0.17775 -0.411,0.35175 -0.46875,0.70275 -0.1365,0.76335 0.44175,1.73873 -0.70275,1.875 -0.72225,0.0952 -1.5828,-0.72 -2.57812,-0.9375 -0.40875,-0.0952 -1.07903,0.10875 -1.40625,0 -0.75,-0.25875 -0.531,-1.19077 -1.17188,-1.64062 -0.36825,-0.25951 -1.28865,-0.63525 -1.875,-0.70275 -0.36825,-0.0375 -0.55575,0.0525 -0.9375,0 -0.46349,-0.0525 -1.25887,-0.003 -1.64062,-0.23401 -0.36825,-0.23174 -1.31077,-0.624 -1.40625,-0.9375 -0.15,-0.50474 1.14465,-1.218 1.17187,-1.64062 0.03,-0.327 -0.4005,-0.447 -0.46875,-0.9375 -0.0525,-0.3 0.0675,-0.74625 0,-0.9375 -0.0952,-0.35475 -0.61275,-0.68925 -1.17187,-0.70275 -0.49125,0 -0.98355,0.234 -1.40625,0.234 -0.6,0.015 -1.8282,-0.30225 -2.57813,-0.234 -0.44999,0.0375 -0.74925,0.207 -1.17187,0.234 -1.18628,0.0952 -1.88528,-0.0675 -2.8125,0 -0.66825,0.0375 -1.9509,0.41775 -2.57813,0.70275 -0.3135,0.15 -0.52875,0.4995 -0.9375,0.70275 -0.1905,0.0952 -0.4575,0.126 -0.70275,0.234 -0.38175,0.177 -1.03807,0.60825 -1.40625,0.70275 -0.53175,0.1365 -1.14127,-0.0375 -2.10937,0 -0.69525,0.0375 -1.86135,-0.1065 -1.875,-0.9375 -0.015,-1.26772 2.31577,-0.72 3.51562,-0.9375 0.45,-0.0952 0.62625,-0.624 1.17188,-0.9375 0.2595,-0.15 0.4575,-0.30525 0.70275,-0.46875 0.40875,-0.2865 1.1037,-0.84465 1.17187,-1.17187 0.0525,-0.3 -0.276,-0.72 -0.234,-0.9375 0.0525,-0.2865 0.56926,-0.56925 0.9375,-0.9375 0.57301,-0.573 0.93158,-1.2726 1.64063,-1.64063 0.477,-0.25875 1.42245,-0.3225 1.64062,-0.70275 0.0525,-0.4365 -0.015,-0.54225 0,-0.9375 0.3,-0.273 0.2235,-0.41475 0.46875,-0.46875 0.7365,-0.1635 1.48478,0.27525 2.34375,0.234 0.36825,-0.015 0.77648,0.03 1.17188,-0.234 0.327,-0.21825 0.6105,-0.54 0.9375,-0.70275 0.35475,-0.19125 0.735,-0.67575 1.17187,-0.70275 z m -86.01563,0.70276 c 0.18075,-0.03 0.4845,0.0225 0.70275,0 0.3135,-0.015 0.59625,0 0.9375,0 0.34125,0 0.80115,-0.1365 0.9375,0 -0.21825,0.8997 -2.33782,0.56249 -3.04687,0.234 0.015,-0.17101 0.288,-0.2055 0.46875,-0.234 z m -2.57812,1.64062 c 0.23175,0 0.4575,-0.0952 0.70275,0 -0.627,0.53175 -1.48725,0.83108 -2.57813,1.17188 -0.51825,0.16349 -1.31077,0.33824 -1.40625,-0.23401 -0.1095,-0.70875 0.47401,-0.63525 0.9375,-0.70275 0.6,-0.0675 1.64835,-0.2205 2.34375,-0.234 z m 88.82812,0 c -0.44999,0.15 -0.66825,1.04925 0,1.17188 0.3135,-0.19051 0.3165,-0.59926 0.234,-1.17188 -0.177,-0.1905 -0.0983,-0.0525 -0.234,0 z m -0.234,1.875 c -0.21825,0.0675 -0.4725,-0.015 -0.70275,0.234 0.015,0.76335 0.15,1.20705 0,1.875 0.4365,0.84518 1.42253,0.33825 1.64063,-0.234 0.2595,-1.41773 -0.28275,-2.05223 -0.9375,-1.875 z m 5.85938,3.75 c -0.6,-0.03 -1.05173,0.18525 -1.40625,0.46875 0.50475,0.81795 1.44637,0.96735 2.57812,1.17188 0.40875,-0.30001 0.27825,-1.1226 0.46875,-1.64063 -0.49125,0 -0.80632,0.03 -1.40625,0 l -0.234,0 z m -119.0625,28.82813 c 0.47925,0.61049 0.99667,1.32195 1.64062,1.64062 0.34125,0.177 0.73576,0.1395 1.17188,0.234 0.35475,0.0675 0.597,0.36 0.9375,0.46875 0.723,0.24525 1.77112,0.21 2.34375,0.46875 0.8727,0.38175 1.35937,1.90748 2.10937,2.34375 0.0375,0.4365 -0.1365,0.84473 0,1.17188 0.35475,0.47699 1.06785,0.62399 1.64063,0.9375 0.69525,0.38175 0.98617,1.3407 1.64062,1.64062 0.23175,0.0952 0.58276,-0.10875 0.9375,0 0.89993,0.273 1.09778,1.63793 1.875,1.40625 0.50475,-0.15 0.62175,-0.91552 0.70275,-1.40625 0.34125,-0.36825 0.63975,-0.9375 1.17188,-0.9375 0.84532,-0.015 1.0926,1.04355 1.40625,1.875 0.177,0.4635 0.5805,0.91552 0.70275,1.40625 0.20475,0.84518 0.177,3.24563 0,3.75 -0.21825,0.627 -1.12245,0.95902 -1.64063,1.64063 -0.24525,0.327 -0.513,0.72 -0.70275,0.9375 -0.327,0.40875 -0.6915,0.57 -0.9375,0.9375 -0.1365,0.20475 -0.11175,0.65099 -0.234,0.9375 -0.4095,0.87239 -1.04422,1.52842 -0.70275,2.57812 0.1365,0.423 0.70275,0.90195 0.70275,1.40625 0,0.6 -1.31077,0.75195 -1.40625,1.40625 -0.0675,0.477 0.5535,1.46865 0.70275,2.10938 0.10875,0.47699 0.88553,0.85829 1.17188,1.17187 0.477,0.53175 0.9699,1.1934 1.40625,1.875 0.85897,1.32225 1.26412,2.92373 2.10937,4.21875 0.45,0.66825 1.34063,1.16617 1.64063,1.875 0.15,0.35475 -0.1365,1.07917 0,1.40625 0.4905,1.10423 2.87993,2.26725 3.98437,2.8125 0.51826,0.2595 0.9291,0.42975 1.40625,0.70275 0.723,0.4095 2.21003,1.23435 2.57813,1.875 0.327,0.573 0.53925,1.89923 0.70275,2.8125 0.20475,1.19963 -0.0525,2.22053 0,3.51562 0.0375,0.70876 0.234,1.16611 0.234,1.875 0,0.24525 0.015,0.69226 0,0.9375 -0.015,0.84518 0.0675,1.71938 0,2.57813 -0.0375,0.4635 -0.03,1.01093 0,1.40625 0.0375,0.423 0.44175,0.56925 0.46875,0.9375 0.03,0.39525 -0.51,0.85837 -0.46875,1.17187 0.0952,0.85883 1.00822,1.55311 1.17187,2.34375 0.1365,0.627 0.31575,2.06273 0.23401,2.8125 -0.0525,0.39526 -0.18001,0.97006 -0.23401,1.40625 -0.0375,0.34126 0.0525,0.624 0,0.9375 -18.6879,-12.00405 -31.17187,-32.85787 -31.17187,-56.71875 0,-3.05909 0.309,-5.95507 0.70275,-8.90625 z m 25.78125,6.79687 c 0.65475,-0.3 0.53175,0.85567 0,0.9375 -0.50475,0.0675 -0.4905,-0.70575 0,-0.9375 z"
       id="path26" />
  </g>
</svg>
