<?xml version="1.0" encoding="UTF-8" standalone="no"?>
<!-- Created with Inkscape (http://www.inkscape.org/) -->

<svg
   xmlns:dc="http://purl.org/dc/elements/1.1/"
   xmlns:cc="http://creativecommons.org/ns#"
   xmlns:rdf="http://www.w3.org/1999/02/22-rdf-syntax-ns#"
   xmlns:svg="http://www.w3.org/2000/svg"
   xmlns="http://www.w3.org/2000/svg"
   xmlns:sodipodi="http://sodipodi.sourceforge.net/DTD/sodipodi-0.dtd"
   xmlns:inkscape="http://www.inkscape.org/namespaces/inkscape"
   width="48"
   height="48"
   id="svg865"
   version="1.1"
   inkscape:version="0.91 r13725"
   sodipodi:docname="desktop.svg">
  <defs
     id="defs867" />
  <sodipodi:namedview
     id="base"
     pagecolor="#ffffff"
     bordercolor="#666666"
     borderopacity="1.0"
     inkscape:pageopacity="0.0"
     inkscape:pageshadow="2"
     inkscape:zoom="11.362822"
     inkscape:cx="12.459151"
     inkscape:cy="20.470973"
     inkscape:document-units="px"
     inkscape:current-layer="folderLayer"
     showgrid="false"
     inkscape:window-width="1366"
     inkscape:window-height="701"
     inkscape:window-x="-4"
     inkscape:window-y="0"
     inkscape:window-maximized="1"
     borderlayer="true"
     inkscape:showpageshadow="false"
     showguides="true"
     inkscape:guide-bbox="true">
    <sodipodi:guide
       position="0,39.000017"
       orientation="30,0"
       id="guide4110" />
    <sodipodi:guide
       position="30,39.000017"
       orientation="0,-30"
       id="guide4116" />
    <sodipodi:guide
       position="30,9.0000174"
       orientation="0,18"
       id="guide4120" />
    <sodipodi:guide
       position="48,9.0000174"
       orientation="-30,0"
       id="guide4122" />
    <sodipodi:guide
       position="48,39.000017"
       orientation="0,-18"
       id="guide4124" />
    <sodipodi:guide
       position="4,41.000017"
       orientation="34,0"
       id="guide4164" />
    <sodipodi:guide
       position="22,41.000017"
       orientation="0,-18"
       id="guide4170" />
    <sodipodi:guide
       position="6,37.0002"
       orientation="27.999817,0"
       id="guide4174" />
    <sodipodi:guide
       position="6,9.0003836"
       orientation="0,35.999992"
       id="guide4176" />
    <sodipodi:guide
       position="41.999992,9.0003836"
       orientation="-27.999817,0"
       id="guide4178" />
    <sodipodi:guide
       position="41.999992,37.0002"
       orientation="0,-35.999992"
       id="guide4180" />
    <sodipodi:guide
       position="14,31.000017"
       orientation="20,0"
       id="guide4221" />
    <sodipodi:guide
       position="34,11.000017"
       orientation="-20,0"
       id="guide4225" />
    <sodipodi:guide
       position="34,31.000017"
       orientation="0,-20"
       id="guide4227" />
    <sodipodi:guide
       position="14,31.000017"
       orientation="11,0"
       id="guide4412" />
    <sodipodi:guide
       position="14,20.000017"
       orientation="6.123234e-17,1"
       id="guide4414" />
    <sodipodi:guide
       position="25,20.000017"
       orientation="-11,0"
       id="guide4416" />
    <sodipodi:guide
       position="25,31.000017"
       orientation="0,-11"
       id="guide4418" />
    <sodipodi:guide
       position="25,20.000017"
       orientation="9,0"
       id="guide4420" />
    <sodipodi:guide
       position="25,11.000017"
       orientation="0,9"
       id="guide4422" />
    <sodipodi:guide
       position="34,11.000017"
       orientation="-9,0"
       id="guide4424" />
    <sodipodi:guide
       position="34,20.000017"
       orientation="0,-9"
       id="guide4426" />
    <sodipodi:guide
       position="23.000001,35.000017"
       orientation="-1.9999999,0"
       id="guide4068" />
    <sodipodi:guide
       position="23.000001,37.000017"
       orientation="0,2"
       id="guide4070" />
    <sodipodi:guide
       position="25,37.000017"
       orientation="1.9999999,0"
       id="guide4072" />
    <sodipodi:guide
       position="25,35.000017"
       orientation="0,-2"
       id="guide4074" />
    <sodipodi:guide
       orientation="0,1"
       position="-5.0900019,45.012788"
       id="guide3049" />
    <sodipodi:guide
       orientation="0,1"
       position="14,5.0286766"
       id="guide3051" />
    <sodipodi:guide
       orientation="1,0"
       position="18.481902,18.990154"
       id="guide3071" />
    <sodipodi:guide
       orientation="0,1"
       position="38.343944,6.3672171"
       id="guide5272" />
  </sodipodi:namedview>
  <metadata
     id="metadata870">
    <rdf:RDF>
      <cc:Work
         rdf:about="">
        <dc:format>image/svg+xml</dc:format>
        <dc:type
           rdf:resource="http://purl.org/dc/dcmitype/StillImage" />
        <dc:title />
      </cc:Work>
    </rdf:RDF>
  </metadata>
  <g
     inkscape:groupmode="layer"
     id="folderLayer"
     inkscape:label="folder">
    <rect
       style="fill:#16a085;fill-opacity:1;stroke:none"
       id="rect907"
       width="43.999992"
       height="35.98143"
       x="1.9631437"
       y="7.0368686" />
    <rect
       y="39.06493"
       x="1.9631486"
       height="4"
       width="43.999981"
       id="rect920"
       style="fill:#292f34;fill-opacity:1;stroke:none" />
    <rect
       y="40.520332"
       x="36.786125"
       height="1.0939896"
       width="1.3556478"
       id="rect827"
       style="fill:#f7f7f7;fill-opacity:1;stroke:none" />
    <rect
       y="40.031963"
       x="8.8844576"
       height="1.6728451"
       width="1.6121296"
       id="rect5248"
       style="fill:#d45500;fill-opacity:1;stroke:none" />
    <rect
       style="fill:#349ba3;fill-opacity:1;stroke:none"
       id="rect5250"
       width="1.6121296"
       height="1.6728451"
       x="11.967057"
       y="40.031963" />
    <rect
       style="fill:#cccccc;fill-opacity:1;stroke:none"
       id="rect5252"
       width="1.6121296"
       height="1.6728451"
       x="5.9876146"
       y="40.031963" />
    <rect
       y="40.031963"
       x="14.586259"
       height="1.6728451"
       width="1.6121296"
       id="rect5254"
       style="fill:#16a085;fill-opacity:1;stroke:none" />
    <path
       inkscape:connector-curvature="0"
       style="fill:#f7f7f7;fill-opacity:1;stroke:none"
       d="m 4.0505945,39.814228 -0.3833979,0.03705 0,1.585582 0.3796232,-0.05726 0,-0.676166 0.5100779,0.749845 0.4001768,-0.127148 -0.5226627,-0.720796 0.5268577,-0.680378 -0.4085658,-0.09431 -0.5058839,0.680378 0.00377,-0.696798 z M 3.1810284,40.20073 c -0.00431,4.35e-4 -0.00853,0.0026 -0.011747,0.0059 l -0.1505905,0.151149 c -0.00629,0.0064 -0.00763,0.01628 -0.00296,0.024 l 0.1761778,0.29135 c -0.031271,0.05277 -0.056337,0.109658 -0.074245,0.169673 l -0.3234131,0.06736 c -0.00901,0.0019 -0.015519,0.01009 -0.015519,0.01937 l 0,0.21346 c 0,0.009 0.00602,0.01684 0.014684,0.01895 L 3.1076,41.238992 c 0.016749,0.06951 0.042874,0.135637 0.077181,0.196199 l -0.1820513,0.278297 c -0.00503,0.0078 -0.00404,0.01787 0.00251,0.02443 l 0.1505905,0.151147 c 0.00629,0.0064 0.016192,0.0076 0.023907,0.0029 l 0.285241,-0.173461 c 0.055978,0.03242 0.1161545,0.05764 0.1799543,0.07494 l 0.066279,0.32082 c 0.00189,0.0091 0.010112,0.01558 0.019291,0.01558 l 0.2130917,0 c 0.00898,0 0.01674,-0.0059 0.018878,-0.01474 l 0.078025,-0.321662 c 0.065767,-0.01782 0.1280703,-0.04442 0.1854066,-0.07831 l 0.281047,0.184829 c 0.00772,0.0051 0.017773,0.0041 0.024329,-0.0026 L 4.6818714,41.74627 c 0.00638,-0.0064 0.00763,-0.01588 0.00296,-0.02358 l -0.1027712,-0.169673 -0.033139,0.01052 c -0.00485,0.0015 -0.010157,-4.35e-4 -0.013004,-0.0047 0,0 -0.065309,-0.09615 -0.1497517,-0.220195 -0.1009481,0.198302 -0.3064636,0.334294 -0.5436357,0.334294 -0.3369616,0 -0.6099133,-0.274364 -0.6099133,-0.612592 0,-0.248813 0.1476476,-0.462846 0.3599077,-0.558701 l 0,-0.157884 c -0.038636,0.01356 -0.07569,0.02987 -0.1111611,0.04926 -3.15e-5,-2.7e-5 -3.198e-4,5.3e-5 -4.212e-4,0 l -0.287339,-0.18904 c -0.00386,-0.0026 -0.00826,-0.0038 -0.012582,-0.0034 z"
       id="path5692_2_" />
    <path
       d="m 39.750262,41.636875 0,-0.195185 c 0.03915,-0.07007 0.08687,-0.133126 0.143151,-0.189182 0.05629,-0.05672 0.11501,-0.108435 0.176187,-0.155147 0.06199,-0.04738 0.123166,-0.09109 0.183527,-0.131125 0.06118,-0.04071 0.115826,-0.07974 0.163951,-0.117111 0.04894,-0.03803 0.0885,-0.07608 0.118681,-0.114109 0.03018,-0.03803 0.04527,-0.07841 0.04527,-0.121116 -3e-6,-0.06272 -0.01917,-0.109102 -0.05751,-0.139132 -0.03833,-0.03002 -0.09462,-0.04504 -0.168843,-0.04504 -0.07341,1e-6 -0.129694,0.01636 -0.168846,0.04904 -0.03834,0.03202 -0.06322,0.08041 -0.07464,0.145138 l -0.346255,-0.01601 c 0.0082,-0.05538 0.02488,-0.107435 0.05016,-0.156149 0.02528,-0.04872 0.06118,-0.09142 0.10767,-0.128121 0.04731,-0.0367 0.106038,-0.06539 0.176186,-0.08608 0.07096,-0.02135 0.155386,-0.03202 0.253268,-0.03202 0.09298,10e-7 0.17537,0.009 0.247151,0.02703 0.07178,0.01735 0.132137,0.04304 0.181081,0.07707 0.04894,0.03403 0.08605,0.07574 0.111339,0.125119 0.02528,0.04872 0.03793,0.104435 0.03793,0.167159 -3e-6,0.06607 -0.01591,0.125789 -0.04771,0.179172 -0.03182,0.05339 -0.0726,0.102765 -0.122351,0.148141 -0.04976,0.04471 -0.105223,0.08675 -0.1664,0.12612 -0.06036,0.03937 -0.119087,0.07774 -0.176185,0.11511 -0.0571,0.03737 -0.109302,0.07507 -0.15661,0.113108 -0.0465,0.03803 -0.08116,0.07874 -0.103999,0.122116 l 0.80018,0 0,0.23122 -1.206388,0"
       inkscape:connector-curvature="0"
       id="text3830"
       style="font-size:9px;font-style:normal;font-variant:normal;font-weight:bold;font-stretch:normal;text-align:start;line-height:100%;writing-mode:lr-tb;text-anchor:start;fill:#f7f7f7;fill-opacity:1;stroke:none;display:inline;font-family:Liberation Sans;-inkscape-font-specification:Liberation Sans Bold" />
    <path
       d="m 42.290917,41.231557 c 0,0.06285 -0.0118,0.119483 -0.0354,0.169895 -0.02287,0.04977 -0.05752,0.09231 -0.103982,0.127667 -0.04646,0.03536 -0.104352,0.06252 -0.173672,0.08151 -0.06858,0.01833 -0.148595,0.0275 -0.240041,0.0275 -0.10177,0 -0.187685,-0.01146 -0.257741,-0.03437 -0.06932,-0.02291 -0.126474,-0.05303 -0.171459,-0.09035 -0.04424,-0.03797 -0.0778,-0.08085 -0.100663,-0.128649 -0.02213,-0.04779 -0.0365,-0.09624 -0.04315,-0.145343 l 0.316371,-0.02455 c 0.0044,0.02946 0.01253,0.05663 0.02433,0.08151 0.01253,0.02423 0.02913,0.04517 0.04978,0.06285 0.02065,0.01768 0.04572,0.03143 0.07522,0.04125 0.03024,0.0091 0.06563,0.01375 0.106192,0.01375 0.07448,0 0.132376,-0.01637 0.173671,-0.0491 0.0413,-0.03273 0.06195,-0.08282 0.06195,-0.150254 -3e-6,-0.04124 -0.01,-0.07431 -0.02987,-0.09919 -0.01917,-0.02488 -0.04387,-0.04386 -0.07411,-0.05696 -0.0295,-0.01375 -0.06158,-0.02291 -0.09624,-0.0275 -0.03466,-0.0046 -0.06748,-0.007 -0.09845,-0.007 l -0.108403,0 0,-0.222927 0.10177,0 c 0.03097,10e-7 0.06231,-0.0025 0.09402,-0.0077 0.03244,-0.0052 0.06158,-0.01473 0.08739,-0.02848 0.02581,-0.01375 0.04683,-0.03273 0.06305,-0.05696 0.01622,-0.02488 0.02433,-0.0563 0.02433,-0.09428 0,-0.05696 -0.01806,-0.101481 -0.0542,-0.13356 -0.0354,-0.03273 -0.08739,-0.0491 -0.155971,-0.0491 -0.06416,10e-7 -0.116151,0.01571 -0.155973,0.04714 -0.03909,0.03143 -0.06158,0.07595 -0.06748,0.133559 l -0.310838,-0.01964 c 0.0088,-0.06481 0.02877,-0.121121 0.05973,-0.168916 0.03171,-0.04779 0.07116,-0.0874 0.118364,-0.118828 0.04794,-0.03143 0.102875,-0.05467 0.16482,-0.06972 0.06195,-0.01571 0.127582,-0.02357 0.196903,-0.02357 0.09144,3e-6 0.169983,0.0098 0.23562,0.02946 0.06563,0.01964 0.119465,0.04616 0.161502,0.07955 0.04204,0.03339 0.073,0.07235 0.09292,0.116865 0.01991,0.04452 0.02987,0.092 0.02987,0.142399 0,0.04059 -0.0067,0.07857 -0.01991,0.113918 -0.01328,0.0347 -0.03355,0.06613 -0.06084,0.09428 -0.02655,0.0275 -0.06084,0.05139 -0.102874,0.07169 -0.04204,0.01964 -0.09182,0.03437 -0.149336,0.04419 l 0,0.0039 c 0.06415,0.0065 0.119838,0.01964 0.167034,0.03928 0.0472,0.01898 0.08591,0.04288 0.116148,0.07169 0.03023,0.02881 0.05273,0.06154 0.06748,0.09821 0.01475,0.03601 0.02213,0.07431 0.02213,0.114901"
       inkscape:connector-curvature="0"
       id="text3834"
       style="font-size:9px;font-style:normal;font-variant:normal;font-weight:bold;font-stretch:normal;text-align:start;line-height:100%;writing-mode:lr-tb;text-anchor:start;fill:#f7f7f7;fill-opacity:1;stroke:none;display:inline;font-family:Liberation Sans;-inkscape-font-specification:Liberation Sans Bold" />
    <rect
       style="fill:#f7f7f7;fill-opacity:1;stroke:none"
       id="rect5274"
       width="0.22939412"
       height="0.23658361"
       x="42.61533"
       y="40.573856" />
    <rect
       y="41.075222"
       x="42.622597"
       height="0.23658361"
       width="0.22939412"
       id="rect5276"
       style="fill:#f7f7f7;fill-opacity:1;stroke:none" />
    <path
       style="font-size:9px;font-style:normal;font-variant:normal;font-weight:bold;font-stretch:normal;text-align:start;line-height:100%;writing-mode:lr-tb;text-anchor:start;fill:#f7f7f7;fill-opacity:1;stroke:none;display:inline;font-family:Liberation Sans;-inkscape-font-specification:Liberation Sans Bold"
       id="path5278"
       inkscape:connector-curvature="0"
       d="m 43.132639,41.622343 0,-0.195185 c 0.03915,-0.07007 0.08687,-0.133126 0.143151,-0.189182 0.05629,-0.05672 0.11501,-0.108435 0.176187,-0.155147 0.06199,-0.04738 0.123166,-0.09109 0.183527,-0.131125 0.06118,-0.04071 0.115826,-0.07974 0.163951,-0.117111 0.04894,-0.03803 0.0885,-0.07608 0.118681,-0.114109 0.03018,-0.03803 0.04527,-0.07841 0.04527,-0.121116 -3e-6,-0.06272 -0.01917,-0.109102 -0.05751,-0.139132 -0.03833,-0.03002 -0.09462,-0.04504 -0.168843,-0.04504 -0.07341,10e-7 -0.129694,0.01636 -0.168846,0.04904 -0.03834,0.03202 -0.06322,0.08041 -0.07464,0.145138 l -0.346255,-0.01601 c 0.0082,-0.05538 0.02488,-0.107435 0.05016,-0.156149 0.02528,-0.04872 0.06118,-0.09142 0.10767,-0.128121 0.04731,-0.0367 0.106038,-0.06539 0.176186,-0.08608 0.07096,-0.02135 0.155386,-0.03202 0.253268,-0.03202 0.09298,10e-7 0.17537,0.009 0.247151,0.02703 0.07178,0.01735 0.132137,0.04304 0.181081,0.07707 0.04894,0.03403 0.08605,0.07574 0.111339,0.125119 0.02528,0.04872 0.03793,0.104435 0.03793,0.167159 -3e-6,0.06607 -0.01591,0.125789 -0.04771,0.179172 -0.03182,0.05339 -0.0726,0.102765 -0.122351,0.148141 -0.04976,0.04471 -0.105223,0.08675 -0.1664,0.12612 -0.06036,0.03937 -0.119087,0.07774 -0.176185,0.11511 -0.0571,0.03737 -0.109302,0.07507 -0.15661,0.113108 -0.0465,0.03803 -0.08116,0.07874 -0.103999,0.122116 l 0.80018,0 0,0.23122 -1.206388,0" />
    <path
       style="font-size:9px;font-style:normal;font-variant:normal;font-weight:bold;font-stretch:normal;text-align:start;line-height:100%;writing-mode:lr-tb;text-anchor:start;fill:#f7f7f7;fill-opacity:1;stroke:none;display:inline;font-family:Liberation Sans;-inkscape-font-specification:Liberation Sans Bold"
       id="path5280"
       inkscape:connector-curvature="0"
       d="m 45.778949,41.233303 c 0,0.06285 -0.0118,0.119483 -0.0354,0.169895 -0.02287,0.04977 -0.05752,0.09231 -0.103982,0.127667 -0.04646,0.03536 -0.104352,0.06252 -0.173672,0.08151 -0.06858,0.01833 -0.148595,0.0275 -0.240041,0.0275 -0.10177,0 -0.187685,-0.01146 -0.257741,-0.03437 -0.06932,-0.02291 -0.126474,-0.05303 -0.171459,-0.09035 -0.04424,-0.03797 -0.0778,-0.08085 -0.100663,-0.128649 -0.02213,-0.04779 -0.0365,-0.09624 -0.04315,-0.145343 l 0.316371,-0.02455 c 0.0044,0.02946 0.01253,0.05663 0.02433,0.08151 0.01253,0.02423 0.02913,0.04517 0.04978,0.06285 0.02065,0.01768 0.04572,0.03143 0.07522,0.04125 0.03024,0.0091 0.06563,0.01375 0.106192,0.01375 0.07448,0 0.132376,-0.01637 0.173671,-0.0491 0.0413,-0.03273 0.06195,-0.08282 0.06195,-0.150254 -3e-6,-0.04124 -0.01,-0.07431 -0.02987,-0.09919 -0.01917,-0.02488 -0.04387,-0.04386 -0.07411,-0.05696 -0.0295,-0.01375 -0.06158,-0.02291 -0.09624,-0.0275 -0.03466,-0.0046 -0.06748,-0.007 -0.09845,-0.007 l -0.108403,0 0,-0.222927 0.10177,0 c 0.03097,1e-6 0.06231,-0.0025 0.09402,-0.0077 0.03244,-0.0052 0.06158,-0.01473 0.08739,-0.02848 0.02581,-0.01375 0.04683,-0.03273 0.06305,-0.05696 0.01622,-0.02488 0.02433,-0.0563 0.02433,-0.09428 0,-0.05696 -0.01806,-0.101481 -0.0542,-0.13356 -0.0354,-0.03273 -0.08739,-0.0491 -0.155971,-0.0491 -0.06416,10e-7 -0.116151,0.01571 -0.155973,0.04714 -0.03909,0.03143 -0.06158,0.07595 -0.06748,0.133559 l -0.310838,-0.01964 c 0.0088,-0.06481 0.02877,-0.121121 0.05973,-0.168916 0.03171,-0.04779 0.07116,-0.0874 0.118364,-0.118828 0.04794,-0.03143 0.102875,-0.05467 0.16482,-0.06972 0.06195,-0.01571 0.127582,-0.02357 0.196903,-0.02357 0.09144,3e-6 0.169983,0.0098 0.23562,0.02946 0.06563,0.01964 0.119465,0.04616 0.161502,0.07955 0.04204,0.03339 0.073,0.07235 0.09292,0.116865 0.01991,0.04452 0.02987,0.092 0.02987,0.142399 0,0.04059 -0.0067,0.07857 -0.01991,0.113918 -0.01328,0.0347 -0.03355,0.06613 -0.06084,0.09428 -0.02655,0.0275 -0.06084,0.05139 -0.102874,0.07169 -0.04204,0.01964 -0.09182,0.03437 -0.149336,0.04419 l 0,0.0039 c 0.06415,0.0065 0.119838,0.01964 0.167034,0.03928 0.0472,0.01898 0.08591,0.04288 0.116148,0.07169 0.03023,0.02881 0.05273,0.06154 0.06748,0.09821 0.01475,0.03601 0.02213,0.07431 0.02213,0.114901" />
    <rect
       style="fill:#f7f7f7;fill-opacity:1;stroke:none"
       id="rect5282"
       width="1.3556478"
       height="1.0939896"
       x="34.773338"
       y="40.533119" />
    <rect
       y="40.545906"
       x="32.798908"
       height="1.0939896"
       width="1.3556478"
       id="rect5284"
       style="fill:#f7f7f7;fill-opacity:1;stroke:none" />
    <path
       sodipodi:type="star"
       style="fill:#f7f7f7;fill-opacity:1;fill-rule:evenodd;stroke:none"
       id="path5286"
       sodipodi:sides="3"
       sodipodi:cx="38.975643"
       sodipodi:cy="40.712048"
       sodipodi:r1="0.27668685"
       sodipodi:r2="0.13834342"
       sodipodi:arg1="2.6191892"
       sodipodi:arg2="3.6663868"
       inkscape:flatsided="true"
       inkscape:rounded="0"
       inkscape:randomized="0"
       d="m 38.73586,40.850104 0.240114,-0.414743 0.239121,0.415316 z"
       inkscape:transform-center-x="0.00013789124"
       inkscape:transform-center-y="-0.052120772"
       transform="matrix(0.83321831,0,0,0.75506352,6.5694244,10.281935)" />
    <rect
       y="10.996526"
       x="4.0273743"
       height="2.0151093"
       width="2.0166237"
       id="rect5288"
       style="fill:#1abc9c;fill-opacity:1;stroke:none" />
    <rect
       style="fill:#1abc9c;fill-opacity:1;stroke:none"
       id="rect5290"
       width="2.0166237"
       height="2.0151093"
       x="4.0273743"
       y="14.996526" />
    <rect
       y="18.996525"
       x="4.0273743"
       height="2.0151093"
       width="2.0166237"
       id="rect5292"
       style="fill:#1abc9c;fill-opacity:1;stroke:none" />
  </g>
</svg>
