<?xml version="1.0" encoding="UTF-8" standalone="no"?>
<svg
   xmlns:dc="http://purl.org/dc/elements/1.1/"
   xmlns:cc="http://creativecommons.org/ns#"
   xmlns:rdf="http://www.w3.org/1999/02/22-rdf-syntax-ns#"
   xmlns:svg="http://www.w3.org/2000/svg"
   xmlns="http://www.w3.org/2000/svg"
   xmlns:sodipodi="http://sodipodi.sourceforge.net/DTD/sodipodi-0.dtd"
   xmlns:inkscape="http://www.inkscape.org/namespaces/inkscape"
   width="64"
   viewBox="0 0 64 64"
   height="64"
   id="svg2"
   version="1.1"
   inkscape:version="0.91 r13725"
   sodipodi:docname="application-pdf.svg">
  <metadata
     id="metadata14">
    <rdf:RDF>
      <cc:Work
         rdf:about="">
        <dc:format>image/svg+xml</dc:format>
        <dc:type
           rdf:resource="http://purl.org/dc/dcmitype/StillImage" />
        <dc:title></dc:title>
      </cc:Work>
    </rdf:RDF>
  </metadata>
  <defs
     id="defs12">
    <clipPath
       clipPathUnits="userSpaceOnUse"
       id="clipPath4157">
      <path
         d="m 27.642964,3.2951379 13.085584,13.0855841 -11.072418,0 c -0.977824,0 -2.013166,-1.035372 -2.013166,-2.013167 l 0,-11.0724171 z"
         id="path4159"
         inkscape:connector-curvature="0"
         style="fill:#f9f8f2;fill-opacity:1;stroke-width:1.00658333" />
    </clipPath>
  </defs>
  <sodipodi:namedview
     pagecolor="#ffffff"
     bordercolor="#666666"
     borderopacity="1"
     objecttolerance="10"
     gridtolerance="10"
     guidetolerance="10"
     inkscape:pageopacity="0"
     inkscape:pageshadow="2"
     inkscape:window-width="1920"
     inkscape:window-height="996"
     id="namedview10"
     showgrid="true"
     inkscape:zoom="11.313709"
     inkscape:cx="8.3993523"
     inkscape:cy="35.23678"
     inkscape:window-x="-4"
     inkscape:window-y="0"
     inkscape:window-maximized="1"
     inkscape:current-layer="svg2"
     inkscape:snap-bbox="true"
     inkscape:bbox-nodes="true"
     inkscape:object-nodes="true"
     borderlayer="false"
     showguides="false"
     inkscape:bbox-paths="true"
     inkscape:snap-bbox-edge-midpoints="true">
    <inkscape:grid
       type="xygrid"
       id="grid4160"
       visible="true" />
  </sodipodi:namedview>
  <g
     id="g4174"
     transform="matrix(0.13425926,0,0,0.13425926,-1.8702411,-2.3703705)">
    <path
       sodipodi:nodetypes="sccssssss"
       inkscape:connector-curvature="0"
       id="path4172"
       d="m 111.68966,39.999999 200.17241,2e-6 107.99807,111.724139 0,293.27586 c 0,14.958 -12.042,27 -27,27 l -281.17048,0 C 96.731656,472 84.689656,459.958 84.689656,445 l 0,-378.000001 c 0,-14.958 12.042,-27 27.000004,-27 z"
       style="fill:#d91e18;fill-opacity:1;fill-rule:evenodd;stroke:none;stroke-width:1.19299817px;stroke-linecap:butt;stroke-linejoin:miter;stroke-opacity:1" />
    <path
       inkscape:connector-curvature="0"
       id="rect4167"
       d="M 419.86014,151.72414 311.86207,40.000001 l -0.002,84.724139 c -3.4e-4,14.958 12.042,27 27,27 z"
       style="fill:#000000;fill-opacity:0.17647059;fill-rule:evenodd;stroke:none;stroke-width:1.19299817px;stroke-linecap:butt;stroke-linejoin:miter;stroke-opacity:1"
       sodipodi:nodetypes="ccssc" />
  </g>
  <path
     style="fill:#f7f7f7;fill-opacity:1"
     inkscape:connector-curvature="0"
     d="m 24.403385,23.000005 c -0.297007,0.011 -0.616013,0.08985 -0.966187,0.240194 -3.124068,1.334824 -0.823185,4.400518 3.158901,7.204014 0.02384,-0.53723 0.0385,-1.063458 0.033,-1.567685 -3.397241,-2.32494 -5.384616,-4.589373 -3.219404,-5.487812 2.28255,-0.946111 3.17907,1.732704 3.219404,5.487812 0.212671,0.144851 0.427176,0.287868 0.650847,0.434552 -0.0825,-3.417736 -0.832351,-6.098384 -2.581389,-6.296408 -0.0935,-0.011 -0.196171,-0.0165 -0.295173,-0.01284 m 2.876562,6.309242 -0.407008,-0.645409 -0.517011,0.445553 -0.108174,0.678412 0.682015,1.285318 0.34284,-0.165018 c 2.291717,1.527345 5.028944,2.933677 7.5975,3.899958 l 0.762683,0.443719 1.05419,0.02567 c 0.971687,-0.575735 0.392342,-0.788426 3.923419,-1.224811 l -3.97842,0.302536 c -3.069067,-1.18814 -6.504809,-3.184875 -9.353872,-5.045927 m 7.654335,5.482311 c 0.460176,0.03667 3.703414,-0.529895 5.131611,-0.667412 1.413531,-0.135683 3.149736,-0.2897 2.821562,1.367828 0.374007,-0.869102 -0.188837,-1.692366 -1.400698,-1.950896 -1.873707,-0.419883 -5.483618,0.903939 -6.552475,1.25048 m 2.069879,-0.40338 c -0.557346,0.199857 -1.497867,0.179687 -2.099213,0.423549 0.852519,0.436385 5.219613,1.595188 6.986985,1.263315 0.28234,-0.044 1.056023,-0.25853 1.085357,-0.881937 -0.09167,1.116632 -5.324116,0.293368 -5.973129,-0.804927 m 1.164191,0.01834 c -0.458343,-0.146684 -2.821561,0.581236 -3.296405,0.401547 -2.905896,0.968114 -6.088633,2.361612 -8.677357,3.84862 l -0.749849,0.148518 -0.579345,1.034121 -0.777351,1.012119 0.876353,0.872769 0.685681,-1.125798 c 3.030565,-1.817048 9.02203,-4.776396 12.51644,-6.19373 m -12.51644,6.19373 c -0.370341,0.221859 -0.724182,0.441885 -1.05969,0.654577 -0.77735,2.203925 -1.683036,3.685432 -2.548389,3.621258 1.33653,0.647243 2.638225,-1.309154 3.608079,-4.275835 m -3.608079,4.275835 c -2.038709,-1.202808 1.582202,-2.98135 2.548389,-3.621258 0.218172,-0.621574 0.42351,-1.296321 0.617847,-2.015071 -3.0434,1.894056 -4.950107,3.857787 -3.928918,5.15594 0.245672,0.313537 0.506011,0.460221 0.764516,0.478556 m 3.164402,-5.63633 c 0.31534,-0.196189 0.64718,-0.388713 0.986354,-0.583068 0.599514,-2.418451 0.997356,-5.199946 1.079857,-7.748578 -0.231004,-0.154019 -0.45651,-0.30987 -0.676514,-0.465721 -0.128336,2.869503 -0.661848,6.109384 -1.387863,8.797367"
     id="path26" />
</svg>
