<?xml version="1.0" encoding="UTF-8" standalone="no"?>
<svg
   xmlns:dc="http://purl.org/dc/elements/1.1/"
   xmlns:cc="http://creativecommons.org/ns#"
   xmlns:rdf="http://www.w3.org/1999/02/22-rdf-syntax-ns#"
   xmlns:svg="http://www.w3.org/2000/svg"
   xmlns="http://www.w3.org/2000/svg"
   xmlns:sodipodi="http://sodipodi.sourceforge.net/DTD/sodipodi-0.dtd"
   xmlns:inkscape="http://www.inkscape.org/namespaces/inkscape"
   width="64"
   viewBox="0 0 64 64"
   height="64"
   id="svg2"
   version="1.1"
   inkscape:version="0.91 r13725"
   sodipodi:docname="text-x-javascript.svg">
  <metadata
     id="metadata14">
    <rdf:RDF>
      <cc:Work
         rdf:about="">
        <dc:format>image/svg+xml</dc:format>
        <dc:type
           rdf:resource="http://purl.org/dc/dcmitype/StillImage" />
        <dc:title />
      </cc:Work>
    </rdf:RDF>
  </metadata>
  <defs
     id="defs12">
    <clipPath
       clipPathUnits="userSpaceOnUse"
       id="clipPath4157">
      <path
         d="m 27.642964,3.2951379 13.085584,13.0855841 -11.072418,0 c -0.977824,0 -2.013166,-1.035372 -2.013166,-2.013167 l 0,-11.0724171 z"
         id="path4159"
         inkscape:connector-curvature="0"
         style="fill:#f9f8f2;fill-opacity:1;stroke-width:1.00658333" />
    </clipPath>
  </defs>
  <sodipodi:namedview
     pagecolor="#ffffff"
     bordercolor="#666666"
     borderopacity="1"
     objecttolerance="10"
     gridtolerance="10"
     guidetolerance="10"
     inkscape:pageopacity="0"
     inkscape:pageshadow="2"
     inkscape:window-width="1920"
     inkscape:window-height="996"
     id="namedview10"
     showgrid="true"
     inkscape:zoom="8.0000004"
     inkscape:cx="11.714402"
     inkscape:cy="29.403673"
     inkscape:window-x="-4"
     inkscape:window-y="0"
     inkscape:window-maximized="1"
     inkscape:current-layer="svg2"
     inkscape:snap-bbox="true"
     inkscape:bbox-nodes="false"
     inkscape:object-nodes="true"
     borderlayer="false"
     showguides="false">
    <inkscape:grid
       type="xygrid"
       id="grid4160"
       visible="true" />
  </sodipodi:namedview>
  <g
     id="g4174"
     transform="matrix(0.13425926,0,0,0.13425926,-1.8703707,-2.3703705)">
    <path
       sodipodi:nodetypes="sccssssss"
       inkscape:connector-curvature="0"
       id="path4172"
       d="m 111.68966,39.999999 200.17241,2e-6 107.99807,111.724139 0,293.27586 c 0,14.958 -12.042,27 -27,27 l -281.17048,0 C 96.731656,472 84.689656,459.958 84.689656,445 l 0,-378.000001 c 0,-14.958 12.042,-27 27.000004,-27 z"
       style="fill:#e87e04;fill-opacity:1;fill-rule:evenodd;stroke:none;stroke-width:1.19299817px;stroke-linecap:butt;stroke-linejoin:miter;stroke-opacity:1" />
    <path
       inkscape:connector-curvature="0"
       id="rect4167"
       d="M 419.86014,151.72414 311.86207,40.000001 l -0.002,84.724139 c -3.4e-4,14.958 12.042,27 27,27 z"
       style="fill:#000000;fill-opacity:0.17647059;fill-rule:evenodd;stroke:none;stroke-width:1.19299817px;stroke-linecap:butt;stroke-linejoin:miter;stroke-opacity:1"
       sodipodi:nodetypes="ccssc" />
  </g>
  <path
     inkscape:connector-curvature="0"
     style="opacity:1;fill:#f7f7f7;fill-opacity:1;stroke:none"
     d="m 31,23 c -2.216,0 -4,1.784 -4,4 l 0,3 c 0,1.662 -1.338,3 -3,3 l 0,1 c 2.216,0 4,-1.784 4,-4 l 0,-3 c 0,-1.662 1.338,-3 3,-3 l 0,-1 z m -7,11 0,1 c 1.662,0 3,1.338 3,3 l 0,3 c 0,2.216 1.784,4 4,4 l 0,-1 c -1.662,0 -3,-1.338 -3,-3 l 0,-3 c 0,-2.216 -1.784,-4 -4,-4 z m 9,-11 0,1 c 1.662,0 3,1.338 3,3 l 0,3 c 0,2.216 1.784,4 4,4 l 0,-1 c -1.662,0 -3,-1.338 -3,-3 l 0,-3 c 0,-2.216 -1.784,-4 -4,-4 z m 7,11 c -2.216,0 -4,1.784 -4,4 l 0,3 c 0,1.662 -1.338,3 -3,3 l 0,1 c 2.216,0 4,-1.784 4,-4 l 0,-3 c 0,-1.662 1.338,-3 3,-3 l 0,-1 z m -8,-3 c -0.554,0 -1,0.446 -1,1 0,0.554 0.446,1 1,1 0.554,0 1,-0.446 1,-1 0,-0.554 -0.446,-1 -1,-1 z m 0,4 c -0.554,0 -1,0.446 -1,1 0,0.438406 0.282733,0.799907 0.673828,0.935547 0.005,0.05595 0.02539,0.106724 0.02539,0.164062 0,0.355462 -0.100989,0.684823 -0.269531,0.96875 C 32.323557,37.912724 33,37.138963 33,36.199219 33,36.154229 32.9918,36.111659 32.98633,36.068359 32.988007,36.044564 33,36.024237 33,36 33,35.446 32.554,35 32,35 Z"
     id="path4222" />
</svg>
